<svg xmlns="http://www.w3.org/2000/svg" xmlns:xlink="http://www.w3.org/1999/xlink" width="660.5" height="722.555" viewBox="0 0 660.5 722.555">
  <defs>
    <style>
      .cls-1, .cls-3 {
        fill: #fff;
      }

      .cls-2 {
        fill: url(#radial-gradient);
      }

      .cls-4 {
        fill: none;
        stroke: #6e2626;
        stroke-linecap: round;
        stroke-width: 10px;
      }

      .cls-5 {
        fill: #e85454;
      }

      .cls-6 {
        fill: #43ac3f;
      }

      .cls-7 {
        fill: #d8d8d8;
        font-size: 50px;
      }

      .cls-7, .cls-8 {
        font-family: DroidSans-Bold, Droid Sans;
        font-weight: 700;
      }

      .cls-8 {
        fill: #fb7611;
        font-size: 150px;
      }

      .cls-10, .cls-9 {
        stroke: none;
      }

      .cls-10 {
        fill: #707070;
      }
    </style>
    <radialGradient id="radial-gradient" cx="0.5" cy="0.5" r="0.5" gradientUnits="objectBoundingBox">
      <stop offset="0" stop-color="#38e6cf"/>
      <stop offset="1" stop-color="#38c2b0"/>
      <stop offset="1" stop-color="#802929"/>
    </radialGradient>
  </defs>
  <g id="h6-colorblind-svg" transform="translate(-960 -145.445)">
    <g id="Path_172" data-name="Path 172" class="cls-1" transform="translate(960 245)">
      <path class="cls-9" d="M 225.0000152587891 79.4580078125 C 196.3539123535156 79.4580078125 168.314208984375 76.551513671875 141.6597595214844 70.81925964355469 C 130.0557098388672 68.32370758056641 118.6390609741211 65.27060699462891 107.7269592285156 61.74475860595703 C 97.8714599609375 58.56031036376953 88.31810760498047 54.9563102722168 79.33226013183594 51.032958984375 C 71.28755950927734 47.52051162719727 63.6938591003418 43.75286102294922 56.76205825805664 39.83470916748047 C 50.57555770874023 36.33781051635742 45.03895950317383 32.7949104309082 40.30606079101563 29.30441093444824 C 36.09055709838867 26.19545936584473 32.61865997314453 23.19050979614258 30.2657585144043 20.61441040039063 C 27.39155960083008 17.46755981445313 26.9624080657959 15.84276008605957 26.9624080657959 15.15431022644043 C 26.9624080657959 13.94981002807617 28.1762580871582 11.6832103729248 30.29265975952148 8.935760498046875 C 32.68960952758789 5.82411003112793 36.16630935668945 2.156410217285156 40.34690856933594 -1.670839786529541 C 45.13740921020508 -6.056389808654785 50.67546081542969 -10.50864028930664 56.80730819702148 -14.90388965606689 C 63.78881072998047 -19.90818977355957 71.38225555419922 -24.7177906036377 79.37665557861328 -29.19903945922852 C 88.39985656738281 -34.25698852539063 97.95146179199219 -38.90264129638672 107.7661590576172 -43.00698852539063 C 118.7046127319336 -47.58124160766602 130.1180572509766 -51.54283905029297 141.6894073486328 -54.78179168701172 C 168.4126129150391 -62.26194000244141 196.4423522949219 -66.0546875 225.0000152587891 -66.0546875 C 253.5563049316406 -66.0546875 281.5236206054688 -62.26198959350586 308.1250610351563 -54.78194046020508 C 319.6429138183594 -51.54328918457031 330.9923095703125 -47.58174133300781 341.8581237792969 -43.00743865966797 C 351.60595703125 -38.90373992919922 361.0841979980469 -34.25823974609375 370.0296630859375 -29.19998931884766 C 377.9523620605469 -24.72003936767578 385.4725036621094 -19.91064071655273 392.3811950683594 -14.9053897857666 C 398.4446105957031 -10.51258945465088 403.9187622070313 -6.060539722442627 408.6517639160156 -1.672939896583557 C 412.776611328125 2.150960206985474 416.2070007324219 5.818459987640381 418.5720520019531 8.933010101318359 C 420.657470703125 11.67936038970947 421.853515625 13.94690990447998 421.853515625 15.15431022644043 C 421.853515625 17.14861106872559 418.4066467285156 22.05155944824219 408.6924438476563 29.30615997314453 C 404.0162963867188 32.79835891723633 398.5436706542969 36.34101104736328 392.426513671875 39.83581161499023 C 385.5667724609375 43.75485992431641 378.0463562011719 47.52236175537109 370.0742492675781 51.03361129760742 C 361.1656188964844 54.95730972290039 351.685546875 58.56116104125977 341.8974609375 61.74505996704102 C 331.0577087402344 65.27101135253906 319.7050476074219 68.32401275634766 308.1548156738281 70.81935882568359 C 281.6217041015625 76.55155944824219 253.6444091796875 79.4580078125 225.0000152587891 79.4580078125 Z"/>
      <path class="cls-10" d="M 225.0000152587891 -65.5546875 C 196.4879150390625 -65.5546875 168.5035095214844 -61.7681884765625 141.8241577148438 -54.30029296875 C 130.2725219726563 -51.06684112548828 118.8786010742188 -47.11204147338867 107.9590148925781 -42.54568862915039 C 98.16189575195313 -38.44873809814453 88.62765502929688 -33.81153869628906 79.62115478515625 -28.76288986206055 C 71.642822265625 -24.2906379699707 64.06509399414063 -19.4910888671875 57.09860229492188 -14.49753952026367 C 50.98284912109375 -10.11384010314941 45.46041870117188 -5.674240112304688 40.68450927734375 -1.302040100097656 C 36.52487182617188 2.506010055541992 33.068359375 6.151710033416748 30.68875122070313 9.240859985351563 C 27.695068359375 13.12721061706543 27.46240234375 14.74960994720459 27.46240234375 15.15431022644043 C 27.46240234375 15.65025997161865 27.77154541015625 17.14221000671387 30.63491821289063 20.2772102355957 C 32.96624755859375 22.82971000671387 36.41311645507813 25.81211090087891 40.60281372070313 28.90200996398926 C 45.31954956054688 32.38056182861328 50.839111328125 35.91241073608398 57.008056640625 39.39941024780273 C 63.92501831054688 43.30921173095703 71.50326538085938 47.06911087036133 79.53231811523438 50.57471084594727 C 88.5030517578125 54.49150848388672 98.04086303710938 58.08956146240234 107.8807067871094 61.26895904541016 C 118.77685546875 64.78965759277344 130.1771545410156 67.83840942382813 141.7648620605469 70.33041381835938 C 168.3847961425781 76.05525970458984 196.38916015625 78.9580078125 225.0000152587891 78.9580078125 C 253.6089630126953 78.9580078125 281.55078125 76.05535888671875 308.0491943359375 70.33061218261719 C 319.5829467773438 67.83885955810547 330.9190979003906 64.79031372070313 341.7427978515625 61.26956176757813 C 351.5150756835938 58.09085845947266 360.9793090820313 54.49301147460938 369.8727111816406 50.57601165771484 C 377.8290100097656 47.07175827026367 385.3337707519531 43.31216049194336 392.1784973144531 39.40166091918945 C 398.2780151367188 35.91696166992188 403.7334594726563 32.38555908203125 408.393310546875 28.90555953979492 C 412.5267944335938 25.81861114501953 415.9273071289063 22.83681106567383 418.22705078125 20.28251075744629 C 421.0488586425781 17.14841079711914 421.353515625 15.65216064453125 421.353515625 15.15431022644043 C 421.353515625 14.74810981750488 421.1242065429688 13.12081050872803 418.1737976074219 9.235360145568848 C 415.8260498046875 6.143510341644287 412.4158020019531 2.498260498046875 408.3117980957031 -1.306289672851563 C 403.5935668945313 -5.680240631103516 398.135009765625 -10.11944007873535 392.0878601074219 -14.50049018859863 C 385.1942749023438 -19.49478912353516 377.6900024414063 -24.29399108886719 369.7835693359375 -28.76473999023438 C 360.8549194335938 -33.81354141235352 351.3941650390625 -38.450439453125 341.6641235351563 -42.54658889770508 C 330.8173522949219 -47.11288833618164 319.4876708984375 -51.06754302978516 307.9897155761719 -54.30063629150391 C 281.4323120117188 -61.76828765869141 253.5105590820313 -65.5546875 225.0000152587891 -65.5546875 M 225.0000152587891 -66.5546875 C 349.2640686035156 -66.5546875 422.353515625 4.660910606384277 422.353515625 15.15431022644043 C 422.353515625 25.64770889282227 349.2640686035156 79.9580078125 225.0000152587891 79.9580078125 C 100.7359008789063 79.9580078125 26.46240234375 25.64770889282227 26.46240234375 15.15431022644043 C 26.46240234375 4.660910606384277 100.7359008789063 -66.5546875 225.0000152587891 -66.5546875 Z"/>
    </g>
    <circle id="Ellipse_179" data-name="Ellipse 179" class="cls-2" cx="98" cy="98" r="98" transform="translate(1086 157)"/>
    <path id="Path_173" data-name="Path 173" d="M225-66.555C349.264-66.555,450,8.507,450,19c0,3.19-135.3-54.331-221.783-54.331C138-35.331,0,21.875,0,19,0,8.507,100.736-66.555,225-66.555Z" transform="translate(960 212)"/>
    <path id="Path_174" data-name="Path 174" d="M225,19.128c124.264,0,225-75.061,225-85.555C450-69.617,314.7-12.1,228.217-12.1,138-12.1,0-69.3,0-66.427,0-55.933,100.736,19.128,225,19.128Z" transform="translate(960 341)"/>
    <circle id="Ellipse_180" data-name="Ellipse 180" cx="36.5" cy="36.5" r="36.5" transform="translate(1164 238)"/>
    <circle id="Ellipse_181" data-name="Ellipse 181" class="cls-3" cx="12" cy="12" r="12" transform="translate(1207 243)"/>
    <path id="Path_176" data-name="Path 176" class="cls-4" d="M0-1.18S21.249-11.666,29.7,3.355,33.8,58.9,33.8,58.9" transform="translate(1475.133 537.823)"/>
    <path id="Path_180" data-name="Path 180" class="cls-4" d="M0-1.18S21.249-11.666,29.7,3.355,33.8,58.9,33.8,58.9" transform="translate(1173.964 537.823)"/>
    <path id="Path_175" data-name="Path 175" class="cls-5" d="M107.006,7.268c10.531,0,30.425-3.531,30.425-3.531s30.029-14.064,49.1-1.57,29.806,40.149,29.806,57.682-8.217,115.164-54.353,137.636c-8.063,3.928-19.591-6.151-45.112-6.151-24.135,0-20.636,6.555-45.886,4.613S8.119,73.876,9,59.849,15.736,21.689,37.034,7.268s45.326-5.1,45.326-5.1S98.442,7.268,107.006,7.268Z" transform="translate(1398.168 586.585)"/>
    <path id="Path_179" data-name="Path 179" class="cls-5" d="M107.006,7.268c10.531,0,30.425-3.531,30.425-3.531s30.029-14.064,49.1-1.57,29.806,40.149,29.806,57.682-8.217,115.164-54.353,137.636c-8.063,3.928-19.591-6.151-45.112-6.151-24.135,0-20.636,6.555-45.886,4.613S8.119,73.876,9,59.849,15.736,21.689,37.034,7.268s45.326-5.1,45.326-5.1S98.442,7.268,107.006,7.268Z" transform="translate(1097 586.585)"/>
    <path id="Path_177" data-name="Path 177" class="cls-6" d="M54.826,0c30.28,0,54.826,13.709,54.826,17.65s-24.547,8.567-54.826,8.567S0,21.59,0,17.65,24.547,0,54.826,0Z" transform="translate(1507.763 524.385) rotate(-14)"/>
    <path id="Path_181" data-name="Path 181" class="cls-6" d="M54.826,0c30.28,0,54.826,13.709,54.826,17.65s-24.547,8.567-54.826,8.567S0,21.59,0,17.65,24.547,0,54.826,0Z" transform="translate(1206.594 524.385) rotate(-14)"/>
    <path id="Path_178" data-name="Path 178" class="cls-3" d="M34.751,0C56.54,0,78.905,13.767,78.905,16.049S55.3,6.114,33.509,6.114,0,18.33,0,16.049,12.962,0,34.751,0Z" transform="translate(1565.713 594.443) rotate(61)"/>
    <path id="Path_182" data-name="Path 182" class="cls-3" d="M34.751,0C56.54,0,78.905,13.767,78.905,16.049S55.3,6.114,33.509,6.114,0,18.33,0,16.049,12.962,0,34.751,0Z" transform="translate(1264.545 594.443) rotate(61)"/>
    <text id="RED" class="cls-7" transform="translate(1174 856)"><tspan x="0" y="0">RED</tspan></text>
    <text id="GREEN" class="cls-7" transform="translate(1429 856)"><tspan x="0" y="0">GREEN</tspan></text>
    <g id="Component_5_1" data-name="Component 5 – 1" transform="translate(1528.478 241.484) rotate(22)">
      <text id="_" data-name="?" class="cls-8" transform="translate(0 140)"><tspan x="0" y="0">?</tspan></text>
    </g>
  </g>
</svg>
