<svg xmlns="http://www.w3.org/2000/svg" width="517.46" height="644.41" viewBox="0 0 517.46 644.41">
  <defs>
    <style>
      .cls-1 {
        fill: #d8d8d8;
        font-size: 81px;
        font-family: DroidSans-Bold, Droid Sans;
        font-weight: 700;
      }

      .cls-2 {
        fill: #ff5252;
      }

      .cls-3 {
        fill: #5893ff;
      }

      .cls-4 {
        fill: #4b0b67;
      }

      .cls-5 {
        fill: #fb7611;
      }

      .cls-6 {
        fill: #3fe739;
      }

      .cls-10, .cls-12, .cls-7, .cls-8, .cls-9 {
        fill: none;
      }

      .cls-7 {
        stroke: #9a906a;
      }

      .cls-7, .cls-8 {
        stroke-width: 20px;
      }

      .cls-8 {
        stroke: #d6c992;
      }

      .cls-10, .cls-9 {
        stroke: #707070;
        stroke-width: 10px;
      }

      .cls-9 {
        stroke-linecap: round;
        stroke-linejoin: round;
      }

      .cls-11 {
        stroke: none;
      }
    </style>
  </defs>
  <g id="h6-stillemutaties-svg" transform="translate(-1097.893 -174.59)">
    <g id="Component_4_1" data-name="Component 4 – 1" transform="translate(1203.909 212.604) rotate(-9)">
      <text id="SHHH_" data-name="SHHH!" class="cls-1" transform="translate(0 75)"><tspan x="0" y="0">SHHH!</tspan></text>
    </g>
    <g id="dna" transform="translate(4147.953 -4691.438) rotate(41)">
      <rect id="Rectangle_14" data-name="Rectangle 14" class="cls-2" width="83.084" height="27.927" transform="translate(1326.084 6024.233)"/>
      <path id="Path_16" data-name="Path 16" class="cls-3" d="M0,0H83.084V27.927H0Z" transform="translate(1326.084 5976.756)"/>
      <rect id="Rectangle_15" data-name="Rectangle 15" class="cls-4" width="83.084" height="27.927" transform="translate(1243 6024.233)"/>
      <rect id="Rectangle_17" data-name="Rectangle 17" class="cls-5" width="83.084" height="27.927" transform="translate(1243 5976.756)"/>
      <rect id="Rectangle_18" data-name="Rectangle 18" class="cls-5" width="83.084" height="27.927" transform="translate(1326.084 5842.705)"/>
      <rect id="Rectangle_21" data-name="Rectangle 21" class="cls-4" width="83.084" height="27.927" transform="translate(1326.084 5542.486)"/>
      <rect id="Rectangle_25" data-name="Rectangle 25" class="cls-2" width="83.084" height="27.927" transform="translate(1326.084 5501.991)"/>
      <path id="Path_17" data-name="Path 17" class="cls-2" d="M0,0H83.084V27.927H0Z" transform="translate(1326.084 5795.229)"/>
      <path id="Path_20" data-name="Path 20" class="cls-2" d="M0,0H83.084V27.927H0Z" transform="translate(1326.084 5751.243)"/>
      <path id="Path_18" data-name="Path 18" class="cls-3" d="M0,0H83.084V27.927H0Z" transform="translate(1326.084 5703.766)"/>
      <path id="Path_19" data-name="Path 19" class="cls-5" d="M0,0H83.084V27.927H0Z" transform="translate(1326.084 5656.29)"/>
      <rect id="Rectangle_19" data-name="Rectangle 19" class="cls-3" width="83.084" height="27.927" transform="translate(1243 5842.705)"/>
      <rect id="Rectangle_22" data-name="Rectangle 22" class="cls-2" width="83.084" height="27.927" transform="translate(1243 5542.486)"/>
      <rect id="Rectangle_26" data-name="Rectangle 26" class="cls-4" width="83.084" height="27.927" transform="translate(1243 5501.991)"/>
      <rect id="Rectangle_20" data-name="Rectangle 20" class="cls-4" width="83.084" height="27.927" transform="translate(1243 5795.229)"/>
      <rect id="Rectangle_27" data-name="Rectangle 27" class="cls-4" width="83.084" height="27.927" transform="translate(1243 5751.243)"/>
      <rect id="Rectangle_23" data-name="Rectangle 23" class="cls-5" width="83.084" height="27.927" transform="translate(1243 5703.766)"/>
      <rect id="Rectangle_24" data-name="Rectangle 24" class="cls-6" width="83.084" height="27.927" transform="translate(1243 5656.29)"/>
      <path id="Path_14" data-name="Path 14" class="cls-7" d="M0-122.783v86.742L165.668,33.352v234.87L0,344.351V452.37" transform="translate(1243.349 5615.5)"/>
      <path id="Path_15" data-name="Path 15" class="cls-8" d="M165.668-122.783v86.742L0,33.352v234.87l165.668,76.13V452.37" transform="translate(1243.349 5615.5)"/>
    </g>
    <path id="Path_171" data-name="Path 171" class="cls-9" d="M-6.642-6.061S-1.915,31.389,1.8,53.57A107.546,107.546,0,0,0,17.048,92.5" transform="translate(1339.5 301.5)"/>
    <g id="Rectangle_114" data-name="Rectangle 114" class="cls-10" transform="translate(1380.381 366.333) rotate(43)">
      <rect class="cls-11" width="124" height="72" rx="22"/>
      <rect class="cls-12" x="5" y="5" width="114" height="62" rx="17"/>
    </g>
  </g>
</svg>
