<svg xmlns="http://www.w3.org/2000/svg" width="54.356" height="181.697" viewBox="0 0 54.356 181.697">
  <defs>
    <style>
      .cls-1 {
        fill: #fff;
        stroke-linecap: round;
      }

      .cls-2, .cls-3 {
        stroke: none;
      }

      .cls-3 {
        fill: #9a9a9a;
      }
    </style>
  </defs>
  <g id="ch17-1" class="cls-1" transform="translate(0.031 0.151)">
    <path class="cls-2" d="M 28.62130546569824 180.5459899902344 C 23.27851867675781 180.5459899902344 18.69401931762695 179.8095550537109 14.99516201019287 178.3571624755859 C 11.92149543762207 177.1502227783203 9.421710014343262 175.4338226318359 7.565281391143799 173.2556304931641 C 5.500400543212891 170.8329162597656 4.229186058044434 167.8800354003906 3.786948204040527 164.4790802001953 C 3.452733755111694 161.9087524414063 3.744828939437866 160.0351257324219 3.747828960418701 160.0165100097656 L 3.762090921401978 159.9275665283203 L 3.760519504547119 159.8358154296875 L 0.9997814297676086 25.37179756164551 L 0.9991862177848816 25.34236907958984 L 0.9968528747558594 25.31301307678223 C 0.9949480891227722 25.28860664367676 0.8074004650115967 22.73279762268066 1.448519587516785 19.32594108581543 C 1.822186231613159 17.34041786193848 2.400495767593384 15.45689296722412 3.167424201965332 13.72770309448242 C 4.118781566619873 11.58275032043457 5.365567207336426 9.66920280456543 6.873186111450195 8.040250778198242 C 11.28944778442383 3.26858377456665 17.96778106689453 0.8491314053535461 26.7226619720459 0.8491314053535461 C 35.48897171020508 0.8491314053535461 42.22835159301758 3.275131464004517 46.75361633300781 8.059750556945801 C 48.29640197753906 9.690964698791504 49.58447265625 11.60644054412842 50.5820426940918 13.75301265716553 C 51.3858757019043 15.48265552520752 52.00454330444336 17.36627388000488 52.42085266113281 19.35148811340332 C 53.13494873046875 22.75658416748047 53.00302124023438 25.31020355224609 53.00161361694336 25.33560752868652 L 53.00004196166992 25.36341667175293 L 52.99999618530273 25.3923225402832 L 52.99999618530273 159.8563385009766 L 52.99999618530273 159.9730072021484 L 53.02685165405273 160.0865631103516 C 53.03068542480469 160.1030578613281 53.4475212097168 161.9292297363281 53.28794860839844 164.4458160400391 C 53.07730484008789 167.7678985595703 52.01511383056641 170.6660766601563 50.13085174560547 173.0598754882813 C 48.40554428100586 175.2517700195313 45.98566055297852 176.9895172119141 42.93844985961914 178.2248229980469 C 39.25358963012695 179.7186279296875 34.60135269165039 180.4988861083984 29.11092376708984 180.5439605712891 C 28.94730567932129 180.5453186035156 28.78289985656738 180.5459899902344 28.62130546569824 180.5459899902344 Z"/>
    <path class="cls-3" d="M 26.7226448059082 1.84912109375 C 18.26679611206055 1.84912109375 11.83989334106445 4.155792236328125 7.620445251464844 8.705062866210938 C 6.192245483398438 10.24493408203125 5.008293151855469 12.05606079101563 4.101543426513672 14.08819580078125 C 3.364543914794922 15.7398681640625 2.806770324707031 17.54216003417969 2.443744659423828 19.44503784179688 C 1.815746307373047 22.73683166503906 1.992168426513672 25.21324157714844 1.993694305419922 25.23371887207031 L 1.998371124267578 25.29241943359375 L 1.999568939208984 25.35128784179688 L 4.760318756103516 159.8152923583984 L 4.764095306396484 159.9988098144531 L 4.734394073486328 160.1799926757813 C 4.723117828369141 160.2486877441406 3.661369323730469 167.1147155761719 8.310195922851563 172.5879821777344 C 10.05719375610352 174.6448059082031 12.42364501953125 176.2704315185547 15.34381866455078 177.4197082519531 C 18.92874526977539 178.8306121826172 23.39591979980469 179.5459899902344 28.62131881713867 179.5459899902344 C 28.78017044067383 179.5459899902344 28.94176864624023 179.5453338623047 29.10272026062012 179.5440063476563 C 34.45829391479492 179.5000457763672 38.98134613037109 178.7466430664063 42.54629516601563 177.3047332763672 C 45.42942047119141 176.1386108398438 47.71194458007813 174.5085906982422 49.33042144775391 172.4599914550781 C 51.08159637451172 170.2433624267578 52.07571792602539 167.5502166748047 52.28519439697266 164.4553070068359 C 52.44355392456055 162.1150512695313 52.07144546508789 160.3968658447266 52.05283355712891 160.3131256103516 L 51.99999618530273 160.0966949462891 L 51.99999618530273 159.8563385009766 L 51.99999618530273 25.392333984375 L 51.99999618530273 25.33453369140625 L 52.00334548950195 25.27684020996094 C 52.00889587402344 25.18074035644531 52.48464584350586 15.5887451171875 46.04074478149414 8.761337280273438 C 41.71176910400391 4.174713134765625 35.21221923828125 1.84912109375 26.7226448059082 1.84912109375 M 26.7226448059082 -0.15087890625 C 55.47754287719727 -0.15087890625 53.99999618530273 25.392333984375 53.99999618530273 25.392333984375 L 53.99999618530273 159.8563385009766 C 53.99999618530273 159.8563385009766 59.07226943969727 181.2980346679688 29.11914443969727 181.5439453125 C 28.95277976989746 181.5453033447266 28.78561210632324 181.5459899902344 28.62130928039551 181.5459899902344 C -0.7959976196289063 181.5459899902344 2.760746002197266 159.8563385009766 2.760746002197266 159.8563385009766 L -3.814697265625e-06 25.392333984375 C -3.814697265625e-06 25.392333984375 -2.032230377197266 -0.15087890625 26.7226448059082 -0.15087890625 Z"/>
  </g>
</svg>
