<svg xmlns="http://www.w3.org/2000/svg" width="65.356" height="184.516" viewBox="0 0 65.356 184.516">
  <defs>
    <style>
      .cls-1 {
        fill: #fff;
        stroke-linecap: round;
        stroke-linejoin: round;
      }

      .cls-2, .cls-3 {
        stroke: none;
      }

      .cls-3 {
        fill: #9a9a9a;
      }
    </style>
  </defs>
  <g id="ch17-2" class="cls-1" transform="translate(-2.291 -94.182)">
    <path class="cls-2" d="M 34.56336975097656 277.6981201171875 C 26.7047290802002 277.6980285644531 20.89694213867188 275.7091369628906 17.30132293701172 271.7867431640625 C 15.46915721893311 269.7880554199219 14.25515651702881 267.3434143066406 13.69303798675537 264.520751953125 C 13.38731002807617 262.985595703125 13.36814022064209 261.7477111816406 13.38196563720703 261.1680297851563 C 14.18575096130371 260.3400573730469 16.23638343811035 257.8490295410156 18.05134773254395 252.4878082275391 C 21.01646614074707 243.7291870117188 22.0152759552002 231.7261199951172 21.0200138092041 216.8119964599609 C 19.78775215148926 198.3465881347656 15.18680000305176 172.4367523193359 11.5440616607666 153.9526824951172 C 7.599942684173584 133.9394073486328 3.898252010345459 118.0766372680664 3.861323356628418 117.9187545776367 L 3.857561588287354 117.902587890625 L 3.853251934051514 117.886589050293 C 3.847490072250366 117.8650436401367 3.250490188598633 115.5895919799805 3.293632984161377 112.5270919799805 C 3.31868052482605 110.7489013671875 3.551704406738281 109.0553512573242 3.986228227615356 107.493522644043 C 4.522894859313965 105.564567565918 5.371299743652344 103.8301849365234 6.507871150970459 102.3385162353516 C 10.07048988342285 97.66290283203125 16.4770622253418 95.25578308105469 25.54965591430664 95.18406677246094 C 25.68525123596191 95.18299865722656 25.81703758239746 95.18247222900391 25.95132255554199 95.18247222900391 C 34.98884582519531 95.18247222900391 41.98570251464844 97.61532592773438 46.74753952026367 102.413444519043 C 48.25765609741211 103.9350891113281 49.54301452636719 105.7025680541992 50.56787109375 107.6667327880859 C 51.39251327514648 109.247184753418 52.05191802978516 110.9587326049805 52.52782440185547 112.7538757324219 C 53.34356307983398 115.8310470581055 53.33591842651367 118.1149215698242 53.33575057983398 118.1376419067383 L 53.33501434326172 118.2330169677734 L 53.35232162475586 118.3280944824219 C 53.38041687011719 118.4801635742188 56.19539642333984 133.7605895996094 59.1933479309082 153.1947174072266 C 61.95837020874023 171.1187133789063 65.44879913330078 196.3406372070313 66.37503814697266 214.7093048095703 C 66.77872467041016 222.7147369384766 66.73213195800781 230.085205078125 66.23653411865234 236.6160430908203 C 65.84011077880859 241.8404235839844 65.15713500976563 246.5417633056641 64.20663452148438 250.5894775390625 C 62.58970260620117 257.4750061035156 60.7346076965332 260.1092224121094 60.71606063842773 260.135009765625 L 60.55587005615234 260.353271484375 L 60.53106307983398 260.6141662597656 C 60.52651214599609 260.6540832519531 60.01348876953125 264.8742980957031 56.6578483581543 269.0549926757813 C 54.69589614868164 271.4993286132813 52.15244293212891 273.4605102539063 49.09811019897461 274.8840637207031 C 45.241943359375 276.6813659667969 40.55022811889648 277.6268920898438 35.15327453613281 277.6943969726563 C 34.95613479614258 277.6968688964844 34.75765609741211 277.6981201171875 34.56336975097656 277.6981201171875 Z"/>
    <path class="cls-3" d="M 34.5633430480957 276.6981201171875 L 34.56332015991211 276.6981201171875 C 34.75229263305664 276.6981201171875 34.94661712646484 276.6968994140625 35.14074325561523 276.6944885253906 C 40.36294555664063 276.629150390625 44.89386749267578 275.7257080078125 48.60766983032227 274.0092468261719 C 51.51754379272461 272.6643371582031 53.94149398803711 270.8143310546875 55.8121452331543 268.5106201171875 C 58.98089981079102 264.6082153320313 59.51848220825195 260.6490478515625 59.53744506835938 260.5007019042969 C 59.57452011108398 260.1371765136719 59.68639373779297 259.83837890625 59.90658950805664 259.5474548339844 C 60.01665115356445 259.3851928710938 61.76215744018555 256.7362976074219 63.28754425048828 250.1270599365234 C 64.20991516113281 246.1304016113281 64.87166595458984 241.4923095703125 65.25434112548828 236.3416137695313 C 65.73271942138672 229.9027862548828 65.77376556396484 222.6415863037109 65.37631988525391 214.7596588134766 C 64.45229339599609 196.4349060058594 60.96701812744141 171.2521057128906 58.20596694946289 153.3531799316406 C 55.2101936340332 133.9326019287109 52.39701843261719 118.6616592407227 52.36894226074219 118.5096817016602 C 52.34517669677734 118.3810043334961 52.33398818969727 118.2603225708008 52.33574676513672 118.129638671875 C 52.33579635620117 118.0575790405273 52.32817459106445 115.8689422607422 51.54229354858398 112.939208984375 C 51.08169555664063 111.2221374511719 50.44669342041016 109.5869064331055 49.65494537353516 108.0789566040039 C 48.67694473266602 106.21630859375 47.45374298095703 104.5409317016602 46.01936721801758 103.0993804931641 C 41.45246887207031 98.50963592529297 34.70059204101563 96.18245697021484 25.95131874084473 96.18245697021484 C 25.8197193145752 96.18245697021484 25.69054412841797 96.18296051025391 25.55756950378418 96.18400573730469 C 16.81854438781738 96.25310516357422 10.68006896972656 98.5235595703125 7.312643527984619 102.9323120117188 C 6.256893634796143 104.3145065307617 5.465818881988525 105.9251327514648 4.961418628692627 107.7194366455078 C 4.547568798065186 109.1915817260742 4.323193550109863 110.7925872802734 4.29451847076416 112.4780120849609 C 4.24449348449707 115.4167556762695 4.814268589019775 117.609260559082 4.818868637084961 117.6266555786133 C 4.824618816375732 117.6480102539063 4.829993724822998 117.6694564819336 4.835043907165527 117.6909866333008 C 4.871993541717529 117.8490600585938 8.577718734741211 133.7289886474609 12.52516841888428 153.7593078613281 C 16.17356872558594 172.2720642089844 20.78201866149902 198.2271881103516 22.01776885986328 216.7454376220703 C 23.02184295654297 231.7913513183594 22.00601959228516 243.9247283935547 18.9985179901123 252.8084869384766 C 17.30162620544434 257.8208923339844 15.39632511138916 260.4312133789063 14.37826633453369 261.5677185058594 C 14.38426399230957 262.1608276367188 14.43767833709717 263.1114501953125 14.65969371795654 264.2539672851563 C 15.1766939163208 266.9145202636719 16.30731964111328 269.2148132324219 18.02014350891113 271.0909729003906 C 21.41671943664551 274.8115234375 26.98266792297363 276.6980285644531 34.5633430480957 276.6981201171875 M 34.56332778930664 278.6981201171875 C 10.7625904083252 278.6978454589844 12.4020938873291 260.72265625 12.4020938873291 260.72265625 C 12.4020938873291 260.72265625 22.40084457397461 252.5226593017578 20.02221870422363 216.8786163330078 C 17.64359283447266 181.2345581054688 2.887593746185303 118.146484375 2.887593746185303 118.146484375 C 2.887593746185303 118.146484375 -3.500306367874146 94.41371154785156 25.54174423217773 94.18408203125 C 25.68000602722168 94.18299102783203 25.81438636779785 94.18245697021484 25.95132446289063 94.18245697021484 C 54.57822036743164 94.18245697021484 54.335693359375 118.146484375 54.335693359375 118.146484375 C 54.335693359375 118.146484375 65.576416015625 179.0148773193359 67.37377166748047 214.658935546875 C 69.171142578125 250.302978515625 61.52514266967773 260.72265625 61.52514266967773 260.72265625 C 61.52514266967773 260.72265625 59.59709548950195 278.388671875 35.16576766967773 278.6943359375 C 34.96297073364258 278.6968688964844 34.76254653930664 278.6981201171875 34.56332778930664 278.6981201171875 Z"/>
  </g>
</svg>
