<svg xmlns="http://www.w3.org/2000/svg" width="89.371" height="85.86" viewBox="0 0 89.371 85.86">
  <defs>
    <style>
      .cls-1 {
        fill: #fff;
      }

      .cls-2, .cls-3 {
        stroke: none;
      }

      .cls-3 {
        fill: #707070;
      }
    </style>
  </defs>
  <g id="ch17" transform="translate(-377.421 -364.45)">
    <g id="ch17-1" class="cls-1" transform="matrix(-0.999, -0.035, 0.035, -0.999, 418.917, 452.452)">
      <path class="cls-2" d="M 8.474688529968262 82.44584655761719 L 8.474555015563965 82.44584655761719 C 7.450766086578369 82.44581604003906 6.462010383605957 82.27397918701172 5.615177154541016 81.94891357421875 C 4.163299560546875 81.39159393310547 3.34263277053833 80.78734588623047 2.954232692718506 79.98967742919922 C 2.582199335098267 79.22562408447266 2.576677322387695 78.24134826660156 2.569688320159912 76.99522399902344 C 2.565142631530762 76.1859130859375 2.560017585754395 75.27075958251953 2.457441329956055 74.21794891357422 L 3.466681003570557 67.19950866699219 C 3.514297485351563 67.03298950195313 4.086800575256348 65.28931427001953 9.115310668945313 56.99153518676758 C 10.23166656494141 55.14939117431641 11.52829933166504 53.597412109375 13.07931041717529 52.24691390991211 L 13.41311073303223 51.95626831054688 L 13.16512203216553 51.58966827392578 C 12.23089981079102 50.20865631103516 11.66691017150879 48.95206832885742 11.48884391784668 47.85480117797852 C 11.16315460205078 45.84875869750977 10.26683235168457 43.18721389770508 9.026277542114258 39.50349044799805 C 8.042688369750977 36.58281326293945 6.818577289581299 32.94792175292969 5.554955005645752 28.63162422180176 C 3.314820289611816 20.98098564147949 -0.1581190973520279 14.05155944824219 -0.5358063578605652 13.30798244476318 C -0.9820160865783691 10.96589946746826 -0.8925019502639771 9.042953491210938 -0.2696227729320526 7.591212272644043 C 0.417666107416153 5.989356994628906 1.779577255249023 4.9800124168396 3.778277158737183 4.591201305389404 C 4.376988410949707 4.474845886230469 5.018777370452881 4.41584587097168 5.685710430145264 4.41584587097168 C 7.788110733032227 4.41584587097168 9.998410224914551 4.998890399932861 11.7498664855957 6.015468120574951 C 13.07633876800537 6.785381317138672 14.74291229248047 8.149547576904297 15.1748161315918 10.28336238861084 C 15.19366550445557 10.94942665100098 15.45414733886719 18.89978408813477 17.27662086486816 27.59932327270508 C 18.8315544128418 35.024658203125 21.71143341064453 41.01074600219727 23.43210029602051 44.58732223510742 L 23.88073348999023 45.51984405517578 L 24.33249855041504 44.58883285522461 C 24.38128852844238 44.48828887939453 24.42622184753418 44.38484573364258 24.46604347229004 44.28137969970703 C 24.57721138000488 43.99256896972656 24.69572257995605 43.72971343994141 24.82119941711426 43.45143508911133 C 25.59016609191895 41.74594497680664 26.46174430847168 39.81290054321289 26.78781127929688 30.21106719970703 C 27.00336647033691 23.85442352294922 25.37554359436035 17.89016723632813 24.18696594238281 13.53525638580322 C 23.39677810668945 10.6400899887085 22.71435546875 8.139723777770996 23.14853286743164 7.330101490020752 C 23.30051040649414 7.046512603759766 24.00691032409668 6.387234687805176 27.27765464782715 6.387234687805176 C 30.47949409484863 6.387234687805176 34.10134506225586 7.016790866851807 34.46780776977539 7.138774394989014 C 34.61136627197266 7.199762344360352 34.77222061157227 7.215226650238037 35.01223373413086 7.238312244415283 C 36.06918716430664 7.339956760406494 38.54438781738281 7.578001499176025 39.40708923339844 12.25597953796387 L 39.48417663574219 12.6736011505127 C 40.53121185302734 18.34395599365234 41.52017593383789 23.6998462677002 41.02664566040039 33.41774749755859 C 40.51035690307617 43.5804328918457 39.69058990478516 45.87093353271484 38.6527214050293 48.77081298828125 C 38.5542106628418 49.04604721069336 38.45235443115234 49.33064651489258 38.3493537902832 49.62612533569336 C 37.57335662841797 51.85160064697266 35.71488952636719 53.0079231262207 33.16315460205078 54.05942535400391 L 32.13233184814453 54.48419952392578 L 33.1351432800293 54.971435546875 C 33.72836685180664 55.25966644287109 34.31962203979492 55.54029083251953 34.89141082763672 55.81167984008789 C 37.1513786315918 56.88430023193359 39.48827743530273 57.99343490600586 39.99508666992188 58.731689453125 C 40.80870056152344 59.91683578491211 40.70199966430664 61.39479064941406 40.52523422241211 63.84336853027344 C 40.4034538269043 65.53032684326172 40.25189971923828 67.62979125976563 40.34769821166992 70.36957550048828 L 40.34907913208008 70.40888214111328 L 40.3565788269043 70.44748687744141 C 40.76420974731445 72.54505920410156 40.33061218261719 74.67592620849609 39.13564300537109 76.44754791259766 C 37.94065475463867 78.21919250488281 36.12741088867188 79.41936492919922 34.02991104125977 79.82698059082031 C 33.50220108032227 79.92953491210938 32.97797775268555 79.98155975341797 32.47180938720703 79.98159027099609 C 30.75707817077637 79.98171997070313 29.20662117004395 79.38707733154297 27.98804473876953 78.26194763183594 C 26.79016494750977 77.15593719482422 25.95996856689453 75.58914947509766 25.58428382873535 73.72705841064453 L 26.71266555786133 64.14115905761719 L 26.74866676330566 63.83538055419922 L 26.49178886413574 63.66558074951172 C 26.47283363342285 63.65304565429688 24.56768798828125 62.39027786254883 22.14434432983398 60.49143600463867 L 21.77884483337402 60.20503616333008 L 21.46623229980469 60.54838943481445 C 20.83515548706055 61.24153518676758 20.25585556030273 62.0067138671875 19.74444389343262 62.82265853881836 C 17.3850212097168 66.58766937255859 15.94793319702148 69.55872344970703 15.47308826446533 71.65331268310547 C 15.19052600860596 72.89971160888672 15.32910823822021 73.54332733154297 15.46613788604736 73.84541320800781 L 15.46959972381592 77.03244781494141 L 15.46963310241699 77.06212615966797 L 15.47317695617676 77.09159088134766 C 15.60695457458496 78.20423126220703 15.27643299102783 79.21751403808594 14.49078845977783 80.103271484375 C 13.22857761383057 81.52633666992188 10.86712169647217 82.44584655761719 8.474688529968262 82.44584655761719 Z"/>
      <path class="cls-3" d="M 8.474688529968262 81.94584655761719 C 10.7305326461792 81.94584655761719 12.94516658782959 81.09235382080078 14.11673259735107 79.77149200439453 C 14.80336570739746 78.99734497070313 15.09272193908691 78.11577606201172 14.97675514221191 77.15127563476563 L 14.96966648101807 77.09234619140625 L 14.96959972381592 77.03298950195313 L 14.96624851226807 73.94777679443359 C 14.79955673217773 73.50930023193359 14.70782470703125 72.76744079589844 14.98545455932617 71.54277038574219 C 15.47278881072998 69.39315795898438 16.93138885498047 66.36996459960938 19.32077789306641 62.55712509155273 C 19.84797668457031 61.71599197387695 20.44542121887207 60.92690277099609 21.09652137756348 60.21176910400391 L 21.72173309326172 59.52507781982422 L 22.45273208618164 60.09785842895508 C 24.85796546936035 61.98251342773438 26.74871063232422 63.23604583740234 26.7674446105957 63.2484245300293 L 27.2812442779541 63.58796691894531 L 27.20924377441406 64.19961547851563 L 26.09029197692871 73.70539855957031 C 26.45203971862793 75.42964935302734 27.22360992431641 76.87560272216797 28.32722091674805 77.89459228515625 C 29.45181083679199 78.93293762207031 30.88496589660645 79.48171234130859 32.47177886962891 79.48159027099609 C 32.94602203369141 79.48155975341797 33.43815612792969 79.43263244628906 33.93453216552734 79.33616638183594 C 35.90090942382813 78.95402526855469 37.60082244873047 77.82886505126953 38.72112274169922 76.16794586181641 C 39.84141159057617 74.50704956054688 40.24792098999023 72.50934600830078 39.86576461791992 70.54286956787109 L 39.85075378417969 70.46566009521484 L 39.8480110168457 70.38704681396484 C 39.75126647949219 67.62049102783203 39.90390014648438 65.5062255859375 40.02653121948242 63.80736923217773 C 40.20117568969727 61.38811111450195 40.29738998413086 60.05546951293945 39.58287811279297 59.01466751098633 C 39.50565338134766 58.90219116210938 39.19706726074219 58.56948852539063 38.00226593017578 57.9111442565918 C 37.09191131591797 57.4095344543457 35.91889953613281 56.85280227661133 34.67702102661133 56.26337814331055 C 34.10422134399414 55.99151229858398 33.51192092895508 55.71039962768555 32.91663360595703 55.42116928100586 L 30.9110221862793 54.44668960571289 L 32.9726676940918 53.59713363647461 C 35.39973449707031 52.59700012207031 37.1626091003418 51.51095581054688 37.87722015380859 49.46155548095703 C 37.98089981079102 49.16411209106445 38.08311080932617 48.87852478027344 38.18196487426758 48.60232162475586 C 39.2059440612793 45.74125671386719 40.01473236083984 43.48139953613281 40.52728652954102 33.39237976074219 C 41.01785659790039 23.73301315307617 40.03405380249023 18.40511322021484 38.99248886108398 12.76438999176025 L 38.91537857055664 12.34665679931641 C 38.12107849121094 8.03960132598877 35.98898696899414 7.834557056427002 34.9643669128418 7.73601245880127 C 34.71133804321289 7.711676120758057 34.50729370117188 7.692054271697998 34.30305099487305 7.611546039581299 C 33.82827758789063 7.478611946105957 30.32339859008789 6.887234687805176 27.27765464782715 6.887234687805176 C 24.04357719421387 6.887234687805176 23.59295463562012 7.559345722198486 23.58917808532715 7.566401481628418 C 23.54424476623535 7.650201320648193 23.41662216186523 8.02700138092041 23.66098785400391 9.357634544372559 C 23.85832214355469 10.43215656280518 24.23414421081543 11.80916786193848 24.66932106018066 13.40361213684082 C 25.86631011962891 17.7893238067627 27.50564384460449 23.79576873779297 27.28752136230469 30.22804641723633 C 26.95811080932617 39.9284782409668 26.06498908996582 41.9093017578125 25.27700996398926 43.65694427490234 C 25.15449905395508 43.92864608764648 25.03878784179688 44.18527984619141 24.93267631530762 44.46095657348633 C 24.88782119750977 44.5775032043457 24.83724403381348 44.6939697265625 24.78234481811523 44.80712509155273 L 23.87879943847656 46.66914749145508 L 22.98153305053711 44.8040885925293 C 21.25099945068359 41.20702362060547 18.35463333129883 35.1866455078125 16.78724479675293 27.70184516906738 C 14.99111938476563 19.12804985046387 14.70459461212158 11.27340412139893 14.67632293701172 10.34180927276611 C 14.26793956756592 8.412965774536133 12.72774600982666 7.161172866821289 11.49886608123779 6.447901248931885 C 9.821388244628906 5.474256992340088 7.702577114105225 4.91584587097168 5.685710430145264 4.91584587097168 C 5.05068826675415 4.91584587097168 4.440999507904053 4.971756935119629 3.873754978179932 5.082001209259033 C 2.021643877029419 5.442290306091309 0.8166438937187195 6.327545642852783 0.1898661255836487 7.788356781005859 C -0.3870516419410706 9.13299560546875 -0.4702238440513611 10.93471431732178 -0.05761883407831192 13.14558219909668 C 0.4599238932132721 14.17073822021484 3.837455987930298 20.98659324645996 6.034821510314941 28.49113464355469 C 7.295621871948242 32.79783630371094 8.51795482635498 36.42745590209961 9.5001220703125 39.34391403198242 C 10.74828815460205 43.05022430419922 11.65011024475098 45.72809982299805 11.98238849639893 47.77471160888672 C 12.14874362945557 48.79978942871094 12.68601036071777 49.98907852172852 13.57925510406494 51.30951309204102 L 14.07525539398193 52.04270172119141 L 13.40765476226807 52.62400054931641 C 11.89623260498047 53.94002532958984 10.63206577301025 55.45342254638672 9.542922019958496 57.25066757202148 C 4.774188041687012 65.11978912353516 4.042477130889893 67.05161285400391 3.955743789672852 67.31134796142578 L 2.960882663726807 74.22979736328125 C 3.060070037841797 75.27956390380859 3.065163850784302 76.18769073486328 3.069677114486694 76.99242401123047 C 3.076310634613037 78.17498016357422 3.081555128097534 79.10903167724609 3.403777122497559 79.77079010009766 C 3.625066041946411 80.22525787353516 4.096765995025635 80.83049011230469 5.794365882873535 81.48212432861328 C 6.584599494934082 81.78545379638672 7.511399269104004 81.94581604003906 8.474543571472168 81.94584655761719 L 8.474688529968262 81.94584655761719 M 8.474684715270996 82.94584655761719 C 8.474448204040527 82.94584655761719 8.474781036376953 82.94584655761719 8.474543571472168 82.94584655761719 C 7.417977333068848 82.94581604003906 6.373721599578857 82.77565765380859 5.435999393463135 82.41570281982422 C 1.05389940738678 80.73360443115234 2.401199340820313 78.65640258789063 1.953899502754211 74.20680236816406 L 2.975399494171143 67.10310363769531 C 2.975399494171143 67.10310363769531 3.221099376678467 65.75309753417969 8.687699317932129 56.73240280151367 C 9.932565689086914 54.67818832397461 11.32487678527832 53.11155700683594 12.75097751617432 51.86982345581055 C 11.83969974517822 50.52273559570313 11.19839954376221 49.18637847900391 10.99529933929443 47.93490219116211 C 10.41389942169189 44.35380172729492 7.882199287414551 38.36070251464844 5.075099468231201 28.7721004486084 C 2.701799392700195 20.66670036315918 -1.013400554656982 13.47210121154785 -1.013400554656982 13.47210121154785 C -1.908900499343872 8.863201141357422 -0.9252005219459534 4.996801376342773 3.682799339294434 4.100401401519775 C 4.320955753326416 3.97638463973999 4.995319366455078 3.915844917297363 5.685715198516846 3.915844917297363 C 9.980530738830566 3.915844917297363 14.90201568603516 6.257757663726807 15.67349910736084 10.22760105133057 C 15.67349910736084 10.22760105133057 15.85889911651611 18.39330101013184 17.76599884033203 27.49680137634277 C 19.27374458312988 34.69681167602539 22.04579925537109 40.55245590209961 23.88266563415527 44.37055587768555 C 23.9250659942627 44.28318023681641 23.96405410766602 44.19364547729492 23.99939918518066 44.10180282592773 C 24.79409980773926 42.03720092773438 25.91009902954102 41.32530212402344 26.28809928894043 30.19410133361816 C 26.65979957580566 19.23300170898438 21.47039985656738 9.401401519775391 22.70789909362793 7.093801498413086 C 23.20015525817871 6.175211906433105 25.11747360229492 5.887234210968018 27.27765464782715 5.887234210968018 C 30.54409408569336 5.887234210968018 34.36627960205078 6.545459270477295 34.6599006652832 6.677101135253906 C 35.14770126342773 6.894901275634766 38.80799865722656 6.250501155853271 39.89879989624023 12.16530132293701 C 40.98960113525391 18.08010101318359 42.03450012207031 23.43060111999512 41.5260009765625 33.44309997558594 C 40.956298828125 44.65710067749023 39.99509811401367 46.42380142211914 38.82149887084961 49.79070281982422 C 37.96302032470703 52.25271224975586 35.89613342285156 53.47402191162109 33.35365676879883 54.52171325683594 C 36.55475616455078 56.07704544067383 39.69224548339844 57.40710067749023 40.40729904174805 58.44869995117188 C 41.92290115356445 60.65640258789063 40.6088981628418 63.53190231323242 40.8474006652832 70.35210418701172 C 41.74290084838867 74.96009826660156 38.73329925537109 79.42230224609375 34.12529754638672 80.31780242919922 C 33.55717468261719 80.42820739746094 33.004638671875 80.48155212402344 32.47184753417969 80.48159027099609 C 28.68323707580566 80.48187255859375 25.86359214782715 77.78677368164063 25.07849884033203 73.74690246582031 L 26.21609878540039 64.08270263671875 C 26.21609878540039 64.08270263671875 24.30568885803223 62.8201904296875 21.8359546661377 60.88500213623047 C 21.24368858337402 61.5355110168457 20.68414306640625 62.26486968994141 20.16810035705566 63.08819961547852 C 14.5511999130249 72.05130004882813 15.96599960327148 73.71720123291016 15.96599960327148 73.71720123291016 L 15.96959972381592 77.03189849853516 C 16.40462875366211 80.65007781982422 12.35540199279785 82.94584655761719 8.474684715270996 82.94584655761719 Z"/>
    </g>
    <g id="ch17-2" class="cls-1" transform="matrix(-0.999, -0.035, 0.035, -0.999, 460.917, 452.452)">
      <path class="cls-2" d="M 4.687144756317139 86.07374572753906 L 4.686922550201416 86.07374572753906 C 3.663022518157959 86.07372283935547 2.674100399017334 85.90187835693359 1.827055811882019 85.57679748535156 C 0.3754891753196716 85.01960754394531 -0.4450441598892212 84.41549682617188 -0.8334107995033264 83.61803436279297 C -1.205399751663208 82.85418701171875 -1.210977435112 81.87024688720703 -1.218033075332642 80.62453460693359 C -1.222652554512024 79.80948638916016 -1.227872014045715 78.88712310791016 -1.332702159881592 77.82490539550781 C -1.30290949344635 77.38272094726563 -0.9073361158370972 72.59971618652344 2.426066875457764 67.32521820068359 C 4.389411449432373 64.21781158447266 5.13551139831543 63.70863342285156 5.999422550201416 63.11905670166016 C 6.741800308227539 62.61242294311523 7.583233833312988 62.03818893432617 9.182188987731934 60.04397583007813 C 10.39205551147461 58.53543090820313 12.48694515228271 57.01777648925781 14.17684459686279 55.86414337158203 L 14.60876655578613 55.56927871704102 L 14.2948112487793 55.15102005004883 C 12.91969013214111 53.31906890869141 11.6234712600708 51.67151260375977 10.44194030761719 50.25382232666016 C 7.966809749603271 47.13384246826172 -0.2182321697473526 36.30547332763672 -1.899533033370972 27.6293773651123 C -2.804621934890747 22.95693206787109 -2.180488586425781 17.96191024780273 -1.49751079082489 14.59438800811768 C -0.7813478112220764 11.06318187713623 0.1477037370204926 8.533327102661133 0.2240440547466278 8.328349113464355 C 0.2542431652545929 8.264775276184082 0.5376921892166138 7.694216728210449 1.282000303268433 7.040587902069092 C 2.014433622360229 6.397387981414795 3.355889081954956 5.539632797241211 5.587189197540283 5.106021404266357 C 5.906289100646973 5.043943881988525 6.218233585357666 5.012476921081543 6.51443338394165 5.012476921081543 C 7.578322410583496 5.012476921081543 8.49803352355957 5.415666103363037 9.248022079467773 6.210843563079834 C 10.63481140136719 7.681199073791504 11.15920066833496 10.18285465240479 11.05955600738525 11.88497734069824 C 10.87924480438232 14.96402168273926 10.85772228240967 16.63705444335938 12.15317821502686 27.26032066345215 C 13.01183319091797 34.2956657409668 18.92475509643555 40.60691070556641 22.45761108398438 44.37774276733398 C 23.04058837890625 44.9999885559082 23.5440559387207 45.53737640380859 23.96973419189453 46.01642227172852 L 24.78231048583984 46.93087768554688 L 24.8428783416748 45.70905303955078 C 24.90774536132813 44.40044403076172 24.75961112976074 42.53884506225586 24.57206726074219 40.18197631835938 C 24.36141204833984 37.53472137451172 24.09925651550293 34.24011993408203 24.01869964599609 30.31164360046387 C 23.90292167663574 24.67551040649414 22.36857795715332 19.03786659240723 21.13570022583008 14.50794410705566 C 20.17742156982422 10.98696613311768 19.34982299804688 7.946143627166748 19.5045108795166 6.067432403564453 C 19.74332237243652 3.174865961074829 22.839599609375 2.74294376373291 24.66399955749512 2.74294376373291 C 26.34651184082031 2.74294376373291 28.27388954162598 3.112299203872681 29.95195579528809 3.756299257278442 C 33.81968307495117 5.241752624511719 36.57881927490234 9.954170227050781 36.96226119995117 10.63697814941406 C 37.10451889038086 12.00434494018555 38.62925338745117 26.87543296813965 38.62839889526367 35.75245666503906 C 38.62775421142578 42.16094207763672 37.500244140625 44.12235641479492 36.50545501708984 45.85286712646484 C 36.1257438659668 46.51342010498047 35.73310089111328 47.19646453857422 35.42886734008789 48.06909942626953 C 34.73085403442383 50.0709342956543 33.43869018554688 52.59718704223633 31.69208908081055 55.3747444152832 L 31.4693660736084 55.72893142700195 L 31.77873420715332 56.0106201171875 C 32.23200988769531 56.42334365844727 32.67342376708984 56.81945419311523 33.10029983520508 57.20252227783203 C 34.60306549072266 58.55108642578125 35.90091323852539 59.71575546264648 36.24800109863281 60.29914474487305 C 37.31660461425781 62.09611892700195 41.29555892944336 68.32486724853516 41.79957962036133 69.11335754394531 C 42.17697525024414 71.18107604980469 41.73870849609375 73.27537536621094 40.56124496459961 75.02104187011719 C 39.36625671386719 76.79270172119141 37.55301284790039 77.99287414550781 35.45551300048828 78.40048980712891 C 35.07643508911133 78.47416687011719 34.68447875976563 78.51153564453125 34.29053497314453 78.51156616210938 C 32.40986633300781 78.51171875 30.45145606994629 77.68016815185547 28.77606773376465 76.17007446289063 C 27.14922332763672 74.70374298095703 26.00139999389648 72.75864410400391 25.62689971923828 70.83351898193359 L 25.60238838195801 70.70753479003906 L 25.52022171020508 70.60892486572266 L 22.83135414123535 67.38210296630859 C 22.80283164978027 67.33808135986328 22.73798370361328 67.23817443847656 22.63990020751953 67.08805847167969 L 22.35866737365723 66.65764617919922 L 21.9362678527832 66.95075225830078 C 21.58300018310547 67.19589996337891 21.25492286682129 67.38861083984375 20.96112251281738 67.52352905273438 C 18.60554504394531 68.6053466796875 16.4604663848877 70.85317993164063 15.07577800750732 72.54837799072266 C 13.52068901062012 74.45217895507813 12.33555603027344 76.39875793457031 12.08817768096924 77.18082427978516 C 11.63988876342773 78.60196685791016 11.67971134185791 80.58826446533203 11.68163394927979 80.672119140625 L 11.68218898773193 80.69635772705078 L 11.68507766723633 80.72041320800781 C 11.81885623931885 81.83280181884766 11.48842239379883 82.84585571289063 10.702956199646 83.73143005371094 C 9.440922737121582 85.15433502197266 7.079577922821045 86.07374572753906 4.687144756317139 86.07374572753906 Z"/>
      <path class="cls-3" d="M 4.687123775482178 85.57375335693359 C 6.942970752716064 85.57375335693359 9.157488822937012 84.72035980224609 10.32888889312744 83.399658203125 C 11.01534748077393 82.62570190429688 11.3046178817749 81.74435424804688 11.18865299224854 80.78010559082031 L 11.18286514282227 80.73198699951172 L 11.18175888061523 80.68352508544922 C 11.17977046966553 80.59629058837891 11.13841819763184 78.52965545654297 11.61146545410156 77.03002166748047 C 12.12562942504883 75.40454864501953 16.30680656433105 69.11082458496094 20.7524528503418 67.06915283203125 C 21.0196647644043 66.94643402099609 21.32204055786133 66.76839447021484 21.65119361877441 66.53998565673828 L 22.49600601196289 65.95371246337891 L 23.05846405029297 66.81455993652344 C 23.14140892028809 66.94149780273438 23.20074844360352 67.03278350830078 23.2346363067627 67.08501434326172 L 25.90433502197266 70.28883361816406 L 26.06867599487305 70.48605346679688 L 26.11770057678223 70.73804473876953 C 26.4719123840332 72.55891418457031 27.56286430358887 74.4034423828125 29.11081886291504 75.79868316650391 C 30.69418334960938 77.22582244873047 32.53368759155273 78.01171875 34.29048919677734 78.01156616210938 C 34.65250015258789 78.01152801513672 35.01238250732422 77.97724151611328 35.36013412475586 77.90966796875 C 39.35887908935547 77.132568359375 42.00044250488281 73.29342651367188 41.324462890625 69.29844665527344 C 40.62656784057617 68.20661163330078 36.87326812744141 62.32884979248047 35.81830215454102 60.5547981262207 C 35.51019287109375 60.03692626953125 34.11525344848633 58.78512573242188 32.76624298095703 57.57455062866211 C 32.33874893188477 57.19092559814453 31.89668846130371 56.79423141479492 31.44211196899414 56.38032913208008 L 30.8233699798584 55.81696319580078 L 31.26881790161133 55.10858535766602 C 32.97099304199219 52.40167999267578 34.28073501586914 49.84319686889648 34.95674896240234 47.90451431274414 C 35.27634811401367 46.98776245117188 35.68081665039063 46.28413772583008 36.07198333740234 45.60367965698242 C 37.08267593383789 43.84549331665039 38.12776947021484 42.02744674682617 38.1284065246582 35.75241088867188 C 38.12923431396484 27.08605766296387 36.67000579833984 12.67250156402588 36.47572326660156 10.79265022277832 C 35.96389007568359 9.900675773620605 33.34568405151367 5.595323085784912 29.77280616760254 4.22311544418335 C 28.14971160888672 3.600209712982178 26.28763008117676 3.242950916290283 24.66399383544922 3.242950916290283 C 23.28753471374512 3.242950916290283 22.13588905334473 3.493374347686768 21.33354759216309 3.967150926589966 C 20.51727676391602 4.449151039123535 20.08198356628418 5.149656772613525 20.00283050537109 6.108456611633301 C 19.8553466796875 7.899621486663818 20.6722526550293 10.90116310119629 21.6181583404541 14.3766565322876 C 22.85824203491211 18.93305587768555 24.40155982971191 24.60365676879883 24.51859474182129 30.3013973236084 C 24.59885406494141 34.21515274047852 24.86035919189453 37.5015983581543 25.07048797607422 40.14230346679688 C 25.25946426391602 42.51716232299805 25.40873527526855 44.39296340942383 25.34226417541504 45.73381042480469 L 25.22112464904785 48.17745590209961 L 23.59597015380859 46.34855270385742 C 23.1746768951416 45.87443161010742 22.67328834533691 45.33926773071289 22.09272384643555 44.71959686279297 C 18.51811218261719 40.9041862487793 12.53530025482178 34.51835250854492 11.65685367584229 27.32084465026855 C 10.35614776611328 16.65455055236816 10.37823009490967 14.96680927276611 10.56040573120117 11.85575103759766 C 10.6539831161499 10.25735092163086 10.16938304901123 7.916433334350586 8.884276390075684 6.553892135620117 C 8.223335266113281 5.853127479553223 7.448147296905518 5.512468338012695 6.51444149017334 5.512468338012695 C 6.250241279602051 5.512468338012695 5.970417976379395 5.540844917297363 5.682570934295654 5.596833229064941 C 3.598535537719727 6.001833438873291 2.345900297164917 6.786150932312012 1.662041425704956 7.372786045074463 C 1.004514336585999 7.936838626861572 0.7326173782348633 8.431242942810059 0.6836344003677368 8.527065277099609 C 0.566150426864624 8.845854759216309 -0.3227828145027161 11.31077194213867 -1.011252641677856 14.71237468719482 C -1.682852625846863 18.03055000305176 -2.296958446502686 22.94855117797852 -1.408652663230896 27.53425598144531 C 0.2501772940158844 36.09443664550781 8.367682456970215 46.83409881591797 10.82982730865479 49.93825912475586 C 12.01563930511475 51.36127853393555 13.31593608856201 53.01407623291016 14.69468879699707 54.85085678100586 L 15.32260608673096 55.68736267089844 L 14.45874691009521 56.27709197998047 C 12.79750061035156 57.41116333007813 10.74078273773193 58.89977264404297 9.572288513183594 60.35675048828125 C 7.926676750183105 62.40914916992188 7.052523612976074 63.00571441650391 6.281276702880859 63.53205490112305 C 5.429547309875488 64.11331939697266 4.756806373596191 64.57243347167969 2.848735570907593 67.59233856201172 C -0.3437643051147461 72.64389038085938 -0.7864899039268494 77.2310791015625 -0.8309847116470337 77.81803131103516 C -0.7278696894645691 78.88526153564453 -0.7226505279541016 79.80646514892578 -0.7180408835411072 80.6217041015625 C -0.7113350033760071 81.80384826660156 -0.7060409188270569 82.73756408691406 -0.3838761746883392 83.39910125732422 C -0.1626055985689163 83.85345458984375 0.3090179264545441 84.45851898193359 2.006206274032593 85.11000061035156 C 2.796664953231812 85.41336059570313 3.723641395568848 85.57373046875 4.687005996704102 85.57375335693359 L 4.687123775482178 85.57375335693359 M 4.687127113342285 86.57375335693359 C 4.686890125274658 86.57375335693359 4.687125205993652 86.57375335693359 4.686888694763184 86.57375335693359 C 3.6302649974823 86.57373046875 2.58581805229187 86.403564453125 1.647900342941284 86.04359436035156 C -2.734193801879883 84.36150360107422 -1.385993838310242 82.2843017578125 -1.834193825721741 77.83470153808594 C -1.834193825721741 77.83470153808594 -1.599299669265747 72.75870513916016 2.003406286239624 67.05810546875 C 5.60520601272583 61.35750198364258 5.260500431060791 64.13581085205078 8.792099952697754 59.73119735717773 C 9.951629638671875 58.28540802001953 11.83448886871338 56.85778427124023 13.89493560791016 55.45118713378906 C 12.63366508483887 53.77091598510742 11.32882976531982 52.09872817993164 10.05390071868896 50.56919860839844 C 7.526700496673584 47.38410568237305 -0.6839938163757324 36.53010559082031 -2.390393733978271 27.7245044708252 C -4.175099849700928 18.51119804382324 -0.238499715924263 8.137798309326172 -0.238499715924263 8.137798309326172 C -0.238499715924263 8.137798309326172 0.8838061690330505 5.510704040527344 5.491806030273438 4.615198135375977 C 5.850399971008301 4.545440196990967 6.191307067871094 4.512472629547119 6.514442920684814 4.512472629547119 C 10.34366703033447 4.512472629547119 11.72137260437012 9.13548469543457 11.55870056152344 11.91419792175293 C 11.38230037689209 14.92650413513184 11.34270000457764 16.4835033416748 12.64949989318848 27.19979858398438 C 13.62341785430908 35.17956161499023 21.24231147766113 42.19432830810547 24.3434886932373 45.68430328369141 C 24.47775840759277 42.97565841674805 23.67172431945801 37.77910232543945 23.51880645751953 30.32190322875977 C 23.31360626220703 20.3319034576416 18.63990020751953 10.4751033782959 19.00620651245117 6.026397705078125 C 19.23265075683594 3.283443212509155 21.74416923522949 2.242946863174438 24.66399383544922 2.242946863174438 C 26.4787712097168 2.242946863174438 28.45109367370605 2.644751310348511 30.13109970092773 3.289503812789917 C 34.51320648193359 4.972503662109375 37.44900512695313 10.48410415649414 37.44900512695313 10.48410415649414 C 37.44900512695313 10.48410415649414 39.12929916381836 26.35379791259766 39.1284065246582 35.75250244140625 C 39.12749862670898 44.70210266113281 36.97470092773438 45.15390396118164 35.90100479125977 48.23370361328125 C 35.15986633300781 50.35918426513672 33.7816162109375 52.99112701416016 32.11536026000977 55.64091491699219 C 34.24290084838867 57.57806777954102 36.18747711181641 59.21951675415039 36.67770004272461 60.04350280761719 C 37.82250213623047 61.96859741210938 42.27300643920898 68.92559814453125 42.27300643920898 68.92559814453125 C 43.16849899291992 73.53359985351563 40.15890121459961 77.99581146240234 35.55089950561523 78.89130401611328 C 35.13240051269531 78.97263336181641 34.71082305908203 79.01152038574219 34.29056930541992 79.01155853271484 C 30.08349990844727 79.01191711425781 25.95108985900879 75.11850738525391 25.13610076904297 70.92900085449219 L 22.42800521850586 67.67910003662109 C 22.42800521850586 67.67910003662109 22.35638236999512 67.56824493408203 22.22132301330566 67.36154174804688 C 21.84893608093262 67.61996459960938 21.49667739868164 67.82778930664063 21.1697940826416 67.9779052734375 C 16.9955940246582 69.89490509033203 12.99420642852783 75.97441101074219 12.56490039825439 77.33161163330078 C 12.13650035858154 78.68970489501953 12.18150043487549 80.66070556640625 12.18150043487549 80.66070556640625 C 12.61653232574463 84.27817535400391 8.568039894104004 86.57375335693359 4.687127113342285 86.57375335693359 Z"/>
    </g>
  </g>
</svg>
