<svg xmlns="http://www.w3.org/2000/svg" width="63.198" height="182.197" viewBox="0 0 63.198 182.197">
  <defs>
    <style>
      .cls-1 {
        fill: #fff;
        stroke-linecap: round;
        stroke-linejoin: round;
      }

      .cls-2, .cls-3 {
        stroke: none;
      }

      .cls-3 {
        fill: #9a9a9a;
      }
    </style>
  </defs>
  <g id="ch18-1" class="cls-1" transform="translate(1.983 -0.98)">
    <path class="cls-2" d="M 23.46213912963867 182.1775207519531 C 18.95835304260254 182.1772003173828 15.03835391998291 181.55615234375 11.81099700927734 180.3316040039063 C 9.134663581848145 179.3161315917969 6.90221118927002 177.8734130859375 5.175639629364014 176.0435333251953 C 3.307330131530762 174.0634613037109 2.036496877670288 171.6664886474609 1.398425340652466 168.919189453125 C 0.9779528975486755 167.1088256835938 0.9859454035758972 165.7317047119141 0.9953228831291199 165.4015502929688 C 1.272446751594543 164.2199401855469 4.05735445022583 152.238037109375 6.806496620178223 136.4524230957031 C 9.468925476074219 121.1647796630859 12.64263916015625 99.07363128662109 12.64263916015625 80.64844512939453 C 12.64263916015625 62.17610931396484 9.455044746398926 47.41877746582031 6.780972957611084 38.29172897338867 C 3.933560371398926 28.57295799255371 1.119703412055969 23.12615394592285 0.8941895961761475 22.69682884216309 C 0.809554398059845 22.51703262329102 -0.1618897914886475 20.41437339782715 -0.6713127493858337 17.64175415039063 C -0.9775746464729309 15.97477722167969 -1.059360384941101 14.39432525634766 -0.9143604040145874 12.94425296783447 C -0.7372413277626038 11.17306327819824 -0.2180746644735336 9.59144401550293 0.6287348866462708 8.243396759033203 C 1.806806325912476 6.36796760559082 3.654901504516602 4.892063140869141 6.121687412261963 3.856634378433228 C 9.08790111541748 2.611610651016235 12.99123477935791 1.980301022529602 17.72325897216797 1.980301022529602 C 17.91561508178711 1.980301022529602 18.11123466491699 1.981348633766174 18.30725860595703 1.983443856239319 C 24.79252052307129 2.052324771881104 30.49313926696777 3.21906304359436 35.25078201293945 5.451253414154053 C 39.03273391723633 7.225658416748047 42.23540115356445 9.676776885986328 44.76982879638672 12.73649120330811 C 47.03085327148438 15.4661340713501 48.3349494934082 18.18953895568848 49.03078079223633 19.99353981018066 C 49.78840255737305 21.95768165588379 50.01059341430664 23.29084777832031 50.01273345947266 23.30408668518066 L 50.03009033203125 23.41061019897461 L 50.07001876831055 23.51258659362793 C 50.09532928466797 23.57668113708496 52.63656997680664 30.06206321716309 55.14456939697266 40.78075408935547 C 56.61690139770508 47.07315826416016 57.78992462158203 53.57204055786133 58.6310920715332 60.09682464599609 C 59.68202209472656 68.24897003173828 60.21490097045898 76.46477508544922 60.21490097045898 84.51605987548828 C 60.21490097045898 92.58603668212891 59.6796875 101.839469909668 58.62416458129883 112.0193252563477 C 57.77885437011719 120.1715621948242 56.59999847412109 128.9310913085938 55.12035369873047 138.0545654296875 C 52.60068893432617 153.5906829833984 50.05004501342773 164.9325408935547 50.02456665039063 165.0453033447266 L 50.01599502563477 165.083251953125 L 50.01040267944336 165.1217498779297 C 50.00432968139648 165.1621856689453 49.33123397827148 169.4273223876953 45.77268600463867 173.6284637451172 C 43.69125747680664 176.0857696533203 41.0368537902832 178.0484008789063 37.88323593139648 179.4617767333984 C 33.90554428100586 181.2445220947266 29.11209106445313 182.1581115722656 23.63602066040039 182.1772003173828 C 23.5767822265625 182.1774139404297 23.52109146118164 182.1775207519531 23.46213912963867 182.1775207519531 Z"/>
    <path class="cls-3" d="M 23.47735786437988 181.177490234375 C 23.52968406677246 181.177490234375 23.57985877990723 181.1773681640625 23.63255882263184 181.1772003173828 C 28.93593406677246 181.1587219238281 33.56973266601563 180.2848968505859 37.40530776977539 178.5800170898438 C 40.41668319702148 177.2414855957031 42.95205688476563 175.3852233886719 44.94095993041992 173.0627899169922 C 48.30635833740234 169.133056640625 48.99647903442383 165.1253967285156 49.02143859863281 164.9733123779297 C 49.029052734375 164.9185028076172 49.03677368164063 164.8798065185547 49.04916000366211 164.8249359130859 C 49.07455825805664 164.7124938964844 51.61845779418945 153.4006195068359 54.13325881958008 137.8944702148438 C 55.60985946655273 128.7898101806641 56.78615951538086 120.049446105957 57.62948226928711 111.9161911010742 C 58.6815071105957 101.7704391479492 59.21490859985352 92.55171966552734 59.21490859985352 84.51604461669922 C 59.21490859985352 76.51769256591797 58.6861572265625 68.35541534423828 57.64333343505859 60.25591659545898 C 56.80825805664063 53.7701416015625 55.64358520507813 47.30984115600586 54.18161010742188 41.05449295043945 C 51.69010925292969 30.39399337768555 49.16503524780273 23.9434928894043 49.14006042480469 23.88021850585938 C 49.08650970458984 23.7447681427002 49.04793548583984 23.60386848449707 49.02498245239258 23.46004295349121 C 49.01713180541992 23.41076850891113 48.19120788574219 18.47471809387207 44.06233215332031 13.45029258728027 C 41.62668228149414 10.48634243011475 38.53995895385742 8.109467506408691 34.88793182373047 6.385692596435547 C 30.24825859069824 4.195742607116699 24.66613388061523 3.051042795181274 18.29658317565918 2.983367681503296 C 18.10415840148926 2.981342792510986 17.91208457946777 2.980317831039429 17.72325897216797 2.980317831039429 C 13.12805843353271 2.980317831039429 9.356908798217773 3.584542751312256 6.514633655548096 4.776242733001709 C 4.241408824920654 5.729317665100098 2.547508716583252 7.072442531585693 1.479933619499207 8.768292427062988 C -1.886488914489746 14.1159496307373 1.578402876853943 21.79545593261719 1.790338039398193 22.25252532958984 C 2.094383716583252 22.83499908447266 4.909448146820068 28.34720611572266 7.740633487701416 38.01056671142578 C 10.43310832977295 47.20041656494141 13.64263343811035 62.05751800537109 13.64263343811035 80.64844512939453 C 13.64263343811035 99.14506530761719 10.46085834503174 121.297492980957 7.791658878326416 136.6239929199219 C 5.102839946746826 152.0632476806641 2.378334522247314 163.8768005371094 1.992313981056213 165.5298461914063 C 1.987211108207703 165.9180755615234 2.00710654258728 167.0844116210938 2.355358600616455 168.6183471679688 C 2.943858623504639 171.2104644775391 4.1301589012146 173.4700622558594 5.881358623504639 175.3343200683594 C 7.501808643341064 177.0594177246094 9.609058380126953 178.4234619140625 12.1445837020874 179.3885955810547 C 15.26228332519531 180.5753173828125 19.07008361816406 181.1772003173828 23.46288299560547 181.177490234375 L 23.47735786437988 181.177490234375 M 23.46205139160156 183.1775054931641 C -1.120218515396118 183.1758270263672 8.666992471262347e-06 165.2656402587891 8.666992471262347e-06 165.2656402587891 C 8.666992471262347e-06 165.2656402587891 11.64263343811035 116.178596496582 11.64263343811035 80.64844512939453 C 11.64263343811035 45.11826705932617 8.666992471262347e-06 23.14496803283691 8.666992471262347e-06 23.14496803283691 C 8.666992471262347e-06 23.14496803283691 -10.73164558410645 0.9803120493888855 17.72325897216797 0.9803120493888855 C 17.91911506652832 0.9803120493888855 18.11829948425293 0.9813727140426636 18.31788444519043 0.9834927320480347 C 47.51413345336914 1.293592691421509 51.00000762939453 23.14496803283691 51.00000762939453 23.14496803283691 C 51.00000762939453 23.14496803283691 61.21490859985352 48.98589324951172 61.21490859985352 84.51604461669922 C 61.21490859985352 120.0462188720703 51.00000762939453 165.2656402587891 51.00000762939453 165.2656402587891 C 51.00000762939453 165.2656402587891 48.40826034545898 183.0908203125 23.63953399658203 183.1772003173828 C 23.57906341552734 183.1773986816406 23.52221298217773 183.1775054931641 23.46205139160156 183.1775054931641 Z"/>
  </g>
</svg>
