<svg xmlns="http://www.w3.org/2000/svg" width="61.748" height="183.308" viewBox="0 0 61.748 183.308">
  <defs>
    <style>
      .cls-1 {
        fill: #fff;
        stroke-linecap: round;
        stroke-linejoin: round;
      }

      .cls-2, .cls-3 {
        stroke: none;
      }

      .cls-3 {
        fill: #9a9a9a;
      }
    </style>
  </defs>
  <g id="ch18-2" class="cls-1" transform="translate(-27.93 0.823)">
    <path class="cls-2" d="M 64.14166259765625 181.4847717285156 C 59.10206985473633 181.4847717285156 54.62326049804688 180.7567596435547 50.82964324951172 179.3209838867188 C 47.82095336914063 178.1822967529297 45.23302459716797 176.5972595214844 43.13778686523438 174.6099853515625 C 39.69052505493164 171.34033203125 38.70954895019531 168.0203094482422 38.63930511474609 167.7693328857422 C 38.50905609130859 167.1531372070313 36.13180923461914 155.8397216796875 33.78478622436523 140.3438873291016 C 32.37471389770508 131.0339965820313 31.25130844116211 122.0584564208984 30.44576072692871 113.6665725708008 C 29.43983268737793 103.1867446899414 28.92976188659668 93.59488677978516 28.92976188659668 85.15747833251953 C 28.92976188659668 76.73264312744141 29.43840408325195 68.05376434326172 30.44157028198242 59.36195755004883 C 31.24447631835938 52.40509796142578 32.36418914794922 45.42448043823242 33.76956939697266 38.6140022277832 C 36.16349792480469 27.01321792602539 38.58904647827148 19.83721733093262 38.61328506469727 19.76609992980957 L 38.62173843383789 19.74124145507813 L 38.62892913818359 19.71586036682129 C 38.64259338378906 19.66807556152344 40.08328628540039 14.7523136138916 44.53302383422852 9.916337013244629 C 47.13280868530273 7.090932369232178 50.24161911010742 4.840194225311279 53.77309417724609 3.226670503616333 C 58.20202255249023 1.203122854232788 63.32130813598633 0.1770990639925003 68.98878479003906 0.1770990639925003 C 69.28418731689453 0.1770990639925003 69.57290649414063 0.1797657310962677 69.87140655517578 0.1852181106805801 C 74.44547271728516 0.2689324021339417 78.25580596923828 0.9568847417831421 81.19657135009766 2.230003833770752 C 83.63185882568359 3.284265756607056 85.49935913085938 4.754503726959229 86.74721527099609 6.599861145019531 C 87.57133483886719 7.818599224090576 88.13899993896484 9.220694541931152 88.43450164794922 10.7672176361084 C 88.67497253417969 12.0258846282959 88.737548828125 13.38424205780029 88.62045288085938 14.80457496643066 C 88.43735504150391 17.02547073364258 87.86550903320313 18.71511077880859 87.75209045410156 19.03305244445801 C 87.34141540527344 19.80185699462891 83.59944915771484 26.92964363098145 79.91623687744141 38.05891036987305 C 76.33433532714844 48.88212203979492 72.06452178955078 65.83895874023438 72.06452178955078 85.15747833251953 C 72.06452178955078 104.4416732788086 76.3221435546875 126.0295486450195 79.89382934570313 140.7437591552734 C 83.50855255126953 155.6352844238281 87.17076110839844 166.6902618408203 87.66440582275391 168.1606903076172 C 87.63953399658203 168.7957153320313 87.39402770996094 171.6656341552734 85.02604675292969 174.5321655273438 C 83.44804382324219 176.4423828125 81.243408203125 177.9883575439453 78.47338104248047 179.1271209716797 C 74.945068359375 180.5776214599609 70.49266815185547 181.3670806884766 65.23980712890625 181.4735565185547 C 64.87245178222656 181.4809875488281 64.50299835205078 181.4847717285156 64.14166259765625 181.4847717285156 Z"/>
    <path class="cls-3" d="M 64.14167785644531 180.4847564697266 C 64.49607849121094 180.4847564697266 64.85872650146484 180.4810638427734 65.21955108642578 180.4737396240234 C 70.29645538330078 180.3708343505859 74.59317779541016 179.6207122802734 77.99030303955078 178.2442169189453 C 80.60447692871094 177.1849670410156 82.68352508544922 175.7561340332031 84.16970062255859 173.9974670410156 C 86.26551055908203 171.5173492431641 86.60329437255859 169.0886383056641 86.65707397460938 168.3015594482422 C 85.97512054443359 166.2565307617188 82.42478942871094 155.409912109375 78.92202758789063 140.9796600341797 C 75.33745574951172 126.2124099731445 71.06450653076172 104.5405578613281 71.06450653076172 85.15748596191406 C 71.06450653076172 65.70576477050781 75.36185455322266 48.63773727416992 78.96688079833984 37.74471282958984 C 82.62799835205078 26.68218803405762 86.25147247314453 19.71942520141602 86.83510589599609 18.62657165527344 C 86.97060394287109 18.23316192626953 87.45115661621094 16.73104476928711 87.61890411376953 14.78086090087891 C 87.87700653076172 11.78008556365967 87.30747985839844 9.219685554504395 85.92610168457031 7.170811176300049 C 84.78815460205078 5.482985973358154 83.06629943847656 4.130735874176025 80.80838012695313 3.151635885238647 C 77.98675537109375 1.928110957145691 74.30088043212891 1.266435980796814 69.85302734375 1.185060977935791 C 69.56170654296875 1.179710984230042 69.27897644042969 1.177110910415649 68.98877716064453 1.177110910415649 C 63.48972702026367 1.177110910415649 58.52902984619141 2.164135932922363 54.24450302124023 4.110785961151123 C 50.84042739868164 5.657411098480225 47.84172821044922 7.815636157989502 45.3316535949707 10.52546119689941 C 41.04412841796875 15.15427207946777 39.62434387207031 19.8756103515625 39.59018325805664 19.99155044555664 C 39.58024597167969 20.02718162536621 39.57193374633789 20.0531120300293 39.55978012084961 20.08873558044434 C 39.53585433959961 20.15898513793945 37.13830184936523 27.24736022949219 34.75687789916992 38.77763748168945 C 33.35545349121094 45.56298446655273 32.23880386352539 52.51845932006836 31.43792915344238 59.45080947875977 C 30.43717765808105 68.11346435546875 29.92975234985352 76.76243591308594 29.92975234985352 85.15748596191406 C 29.92975234985352 93.56085968017578 30.43800354003906 103.1177368164063 31.44037818908691 113.5626373291016 C 32.24382781982422 121.9345626831055 33.36452865600586 130.8899078369141 34.77135467529297 140.1799163818359 C 37.08654022216797 155.4682922363281 39.43159103393555 166.6799621582031 39.61187744140625 167.5350036621094 C 39.69719314575195 167.8289337158203 40.62428283691406 170.8092498779297 43.73935317993164 173.8017578125 C 45.73335266113281 175.7173156738281 48.20985412597656 177.2488861083984 51.10002899169922 178.3539428710938 C 54.79805374145508 179.7678375244141 59.1859016418457 180.4847564697266 64.14167785644531 180.4847564697266 M 64.14167785644531 182.4847564697266 C 41.34063339233398 182.4847564697266 37.66667938232422 168.0033416748047 37.66667938232422 168.0033416748047 C 37.66667938232422 168.0033416748047 27.92975234985352 122.2974090576172 27.92975234985352 85.15748596191406 C 27.92975234985352 48.01756286621094 37.66667938232422 19.44363594055176 37.66667938232422 19.44363594055176 C 37.66667938232422 19.44363594055176 43.39988708496094 -0.8229003548622131 68.98878479003906 -0.8229003548622131 C 69.28741455078125 -0.8229003548622131 69.58563995361328 -0.8201788067817688 69.88970184326172 -0.8146140575408936 C 96.24810028076172 -0.332239031791687 88.66667938232422 19.44363594055176 88.66667938232422 19.44363594055176 C 88.66667938232422 19.44363594055176 73.06450653076172 48.01756286621094 73.06450653076172 85.15748596191406 C 73.06450653076172 122.2974090576172 88.66667938232422 168.0033416748047 88.66667938232422 168.0033416748047 C 88.66667938232422 168.0033416748047 89.05963134765625 181.990966796875 65.26007843017578 182.4733428955078 C 64.88240051269531 182.4809875488281 64.50934600830078 182.4847564697266 64.14167785644531 182.4847564697266 Z"/>
  </g>
</svg>
