<svg xmlns="http://www.w3.org/2000/svg" width="86.526" height="80.481" viewBox="0 0 86.526 80.481">
  <defs>
    <style>
      .cls-1 {
        fill: #fff;
      }

      .cls-2, .cls-3 {
        stroke: none;
      }

      .cls-3 {
        fill: #707070;
      }
    </style>
  </defs>
  <g id="ch18" transform="translate(-377.421 -368.102)">
    <g id="ch16-1" class="cls-1" transform="matrix(0.999, -0.035, 0.035, 0.999, 377.421, 369.602)">
      <path class="cls-2" d="M 6.998939037322998 78.52991485595703 C 6.998810768127441 78.52991485595703 6.998887062072754 78.52991485595703 6.998758792877197 78.52991485595703 C 6.331769943237305 78.52989959716797 5.689980983734131 78.47090148925781 5.091236591339111 78.35453796386719 C 3.092636585235596 77.96574401855469 1.730736613273621 76.95640563964844 1.043447732925415 75.35456085205078 C 0.4205794930458069 73.90281677246094 0.3310546278953552 71.97987365722656 0.7772641777992249 69.63778686523438 C 1.154949307441711 68.89421081542969 4.627867698669434 61.96479797363281 6.867991924285889 54.31419372558594 C 8.131603240966797 49.99788284301758 9.355703353881836 46.36301422119141 10.33928108215332 43.44234848022461 C 11.57983684539795 39.75861358642578 12.47616958618164 37.0970458984375 12.80183696746826 35.09102630615234 C 12.97993659973145 33.99371337890625 13.54391479492188 32.73712539672852 14.47811412811279 31.35613632202148 L 14.72610282897949 30.98953628540039 L 14.39230346679688 30.69889259338379 C 12.8413143157959 29.34841346740723 11.54468059539795 27.79643630981445 10.42833614349365 25.95428085327148 C 5.399858474731445 17.65651512145996 4.827356815338135 15.9128360748291 4.779740333557129 15.74631786346436 L 3.770511865615845 8.727890968322754 C 3.873088121414185 7.675092220306396 3.878212928771973 6.759939670562744 3.882747650146484 5.950625419616699 C 3.889736652374268 4.704503059387207 3.895258903503418 3.720236539840698 4.267292022705078 2.956169843673706 C 4.655692100524902 2.158503293991089 5.476358890533447 1.554258823394775 6.928225517272949 0.9969366192817688 C 7.775081157684326 0.6718699336051941 8.763836860656738 0.5000365972518921 9.787591934204102 0.5000144243240356 C 12.18010330200195 0.4999699592590332 14.54159259796143 1.419425487518311 15.80375862121582 2.842414379119873 C 16.58942604064941 3.728181123733521 16.91994857788086 4.741514205932617 16.78615951538086 5.854247570037842 L 16.78261375427246 5.883714199066162 L 16.7825813293457 5.913392066955566 L 16.77911949157715 9.100421905517578 C 16.64208984375 9.402508735656738 16.50350761413574 10.04612064361572 16.78606986999512 11.29251480102539 C 17.26091384887695 13.38711452484131 18.6979923248291 16.35815811157227 21.05738067626953 20.12313652038574 C 21.56881523132324 20.93912506103516 22.14810371398926 21.70430374145508 22.7791690826416 22.39742469787598 L 23.09178161621094 22.74077033996582 L 23.4572811126709 22.45438194274902 C 25.88062477111816 20.5555477142334 27.78575897216797 19.29278182983398 27.80472564697266 19.28024864196777 L 28.06156921386719 19.11046981811523 L 28.02559280395508 18.8046703338623 L 26.89720916748047 9.218770980834961 C 27.27288246154785 7.356720447540283 28.10307884216309 5.78997802734375 29.30094718933105 4.684003353118896 C 30.51950263977051 3.558925628662109 32.06996917724609 2.964247703552246 33.78473663330078 2.964247703552246 C 34.29067993164063 2.964247703552246 34.81489181518555 3.016258955001831 35.34279251098633 3.118858814239502 C 39.67284774780273 3.960347652435303 42.51095962524414 8.167969703674316 41.66941452026367 12.49834728240967 L 41.66191482543945 12.53694820404053 L 41.66053771972656 12.57624816894531 C 41.56473541259766 15.31603622436523 41.71629333496094 17.41550254821777 41.83806991577148 19.10244750976563 C 42.01483535766602 21.551025390625 42.12152481079102 23.02898025512695 41.30792617797852 24.21412467956543 C 40.80112457275391 24.95236968994141 38.46423721313477 26.06150245666504 36.20429229736328 27.13413619995117 C 35.63250350952148 27.40551376342773 35.0412483215332 27.68613624572754 34.44802474975586 27.97438049316406 L 33.44522476196289 28.46161460876465 L 34.47603607177734 28.88639259338379 C 37.02774810791016 29.93789291381836 38.88620376586914 31.09421348571777 39.66222381591797 33.31972503662109 C 39.76520156860352 33.61516952514648 39.86706924438477 33.8997802734375 39.96556854248047 34.17501449584961 C 41.00342559814453 37.07489395141602 41.82319259643555 39.36537933349609 42.33946990966797 49.52804946899414 C 42.83300399780273 59.24589157104492 41.84404754638672 64.60174560546875 40.79702377319336 70.27207946777344 L 40.71992492675781 70.68978881835938 C 39.85722732543945 75.36775970458984 37.38203811645508 75.60580444335938 36.32509231567383 75.70745086669922 C 36.08465576171875 75.73057556152344 35.92363739013672 75.74606323242188 35.78053283691406 75.80702972412109 C 35.4133186340332 75.92912292480469 31.79197311401367 76.55852508544922 28.5905590057373 76.55852508544922 C 25.31984710693359 76.55852508544922 24.61344718933105 75.89924621582031 24.4615478515625 75.61579132080078 C 24.02729225158691 74.80603790283203 24.70971488952637 72.30567169189453 25.49989128112793 69.41049194335938 C 26.6884708404541 65.05559539794922 28.31628036499023 59.09134674072266 28.1007251739502 52.73474884033203 C 27.774658203125 43.13286972045898 26.90309143066406 41.19983673095703 26.13411521911621 39.49435806274414 C 26.00864791870117 39.21607971191406 25.89013671875 38.9532356262207 25.7789478302002 38.66439056396484 C 25.7391471862793 38.56095886230469 25.6942138671875 38.45751571655273 25.64542579650879 38.35697174072266 L 25.19365882873535 37.42596054077148 L 24.74502563476563 38.35848236083984 C 23.02435874938965 41.9350471496582 20.14449119567871 47.92113494873047 18.58956909179688 55.34650421142578 C 16.76711654663086 64.04599761962891 16.50663566589355 71.99634552001953 16.4877872467041 72.66240692138672 C 16.05588150024414 74.79622650146484 14.38932037353516 76.16039276123047 13.06285858154297 76.93031311035156 C 11.31149864196777 77.94685363769531 9.101179122924805 78.52991485595703 6.998939037322998 78.52991485595703 Z"/>
      <path class="cls-3" d="M 9.787582397460938 1 L 9.787593841552734 1 C 8.824459075927734 1.000022888183594 7.897670745849609 1.160377502441406 7.107414245605469 1.463722229003906 C 5.409824371337891 2.1153564453125 4.938125610351563 2.7205810546875 4.716835021972656 3.175056457519531 C 4.394615173339844 3.836814880371094 4.389369964599609 4.770866394042969 4.382736206054688 5.953422546386719 C 4.378223419189453 6.758155822753906 4.373130798339844 7.666275024414063 4.273941040039063 8.716041564941406 L 5.268802642822266 15.63448333740234 C 5.269424438476563 15.63633728027344 5.270088195800781 15.63831329345703 5.270774841308594 15.64033508300781 L 5.271705627441406 15.65467071533203 L 5.278282165527344 15.70039367675781 L 5.271873474121094 15.64357757568359 C 5.371982574462891 15.93707275390625 6.1392822265625 17.91192245483398 10.85594749450684 25.69514846801758 C 11.94509124755859 27.49240493774414 13.20923614501953 29.00580215454102 14.72064781188965 30.32180404663086 L 15.38823699951172 30.90309143066406 L 14.89224815368652 31.63629150390625 C 13.99902534484863 32.95671463012695 13.46175956726074 34.14600372314453 13.29538154602051 35.17115783691406 C 12.96312522888184 37.21771621704102 12.06130409240723 39.89560317993164 10.81312561035156 43.60193634033203 C 9.830970764160156 46.51837158203125 8.608646392822266 50.14797210693359 7.347846984863281 54.45469284057617 C 5.150501251220703 61.95917129516602 1.772975921630859 68.77505493164063 1.255447387695313 69.80021667480469 C 0.8429298400878906 72.01089477539063 0.9260444641113281 73.81285095214844 1.502937316894531 75.15740203857422 C 2.129703521728516 76.61821746826172 3.334701538085938 77.50347137451172 5.186614990234375 77.86372375488281 C 5.754035949707031 77.97400665283203 6.363723754882813 78.02991485595703 6.998748779296875 78.02991485595703 C 9.015590667724609 78.02991485595703 11.13439178466797 77.47150421142578 12.81185913085938 76.49785614013672 C 14.04072761535645 75.78458404541016 15.58091163635254 74.53279113769531 15.98929405212402 72.60395050048828 C 16.01756477355957 71.67235565185547 16.3040885925293 63.81772613525391 18.10019302368164 55.24401473999023 C 19.66757011413574 47.75914764404297 22.56393623352051 41.73876953125 24.29445838928223 38.14171600341797 L 25.19171524047852 36.27665710449219 L 26.09527015686035 38.13867950439453 C 26.15016937255859 38.25183486938477 26.20074844360352 38.36830139160156 26.24558067321777 38.48477935791016 C 26.35171508789063 38.76051330566406 26.46742630004883 39.01714706420898 26.58992576599121 39.28884887695313 C 27.37790298461914 41.03647994995117 28.27102661132813 43.01729202270508 28.60043716430664 52.71779251098633 C 28.81855773925781 59.15000152587891 27.17923736572266 65.15643310546875 25.98224830627441 69.54214477539063 C 25.54708099365234 71.13658905029297 25.1712589263916 72.51360321044922 24.97392463684082 73.58812713623047 C 24.72955894470215 74.91876220703125 24.85718154907227 75.29556274414063 24.90225791931152 75.37962341308594 C 24.90589141845703 75.38641357421875 25.35651397705078 76.05852508544922 28.5905590057373 76.05852508544922 C 31.63531875610352 76.05852508544922 35.13892364501953 75.46751403808594 35.61543273925781 75.33433532714844 C 35.8191032409668 75.25379180908203 36.02352523803711 75.23413848876953 36.27721405029297 75.20973968505859 C 37.30183792114258 75.1112060546875 39.43391418457031 74.90618133544922 40.22821426391602 70.59910583496094 L 40.30531311035156 70.18138122558594 C 41.34687042236328 64.54065704345703 42.33066940307617 59.2127685546875 41.84011459350586 49.55341339111328 C 41.32757949829102 39.46441268920898 40.51877975463867 37.20457077026367 39.49481582641602 34.34350204467773 C 39.39596939086914 34.06730270385742 39.29374694824219 33.78169250488281 39.19010162353516 33.48434829711914 C 38.47546005249023 31.43483734130859 36.71259307861328 30.34880447387695 34.28553771972656 29.34868240356445 L 32.22389221191406 28.49913787841797 L 34.2295036315918 27.5246467590332 C 34.82477951049805 27.23542404174805 35.41706848144531 26.95430374145508 35.9898681640625 26.68244934082031 C 37.23174667358398 26.09301376342773 38.40474700927734 25.53628158569336 39.31510162353516 25.03467178344727 C 40.50990295410156 24.37631607055664 40.8184928894043 24.04362487792969 40.89571380615234 23.93114852905273 C 41.61021423339844 22.89034652709961 41.51401519775391 21.55770492553711 41.33937072753906 19.13844680786133 C 41.21672439575195 17.43959045410156 41.06410217285156 15.3253173828125 41.16084671020508 12.55876922607422 L 41.16359329223633 12.48015594482422 L 41.17860412597656 12.40294647216797 C 41.96754837036133 8.343215942382813 39.30682373046875 4.398567199707031 35.24740219116211 3.609672546386719 C 34.75089263916016 3.513168334960938 34.25876998901367 3.464248657226563 33.78473663330078 3.464248657226563 C 32.19787979125977 3.464248657226563 30.76470184326172 4.0130615234375 29.64013671875 5.051361083984375 C 28.53652572631836 6.0703125 27.76495552062988 7.516220092773438 27.40321731567383 9.240432739257813 L 28.52217102050781 18.7462158203125 L 28.59405899047852 19.35776901245117 L 28.08045959472656 19.69734954833984 C 28.06163787841797 19.70978164672852 26.1708927154541 20.96331405639648 23.76567077636719 22.84795761108398 L 23.03466987609863 23.42073822021484 L 22.40945816040039 22.73403549194336 C 21.75836944580078 22.01892471313477 21.16093635559082 21.22983551025391 20.63369178771973 20.38862609863281 C 18.24435806274414 16.57585906982422 16.78577041625977 13.55267333984375 16.29844856262207 11.40306091308594 C 16.02080917358398 10.17839813232422 16.11253929138184 9.436538696289063 16.27923011779785 8.998062133789063 L 16.2825813293457 5.912849426269531 L 16.28264808654785 5.853492736816406 L 16.28973579406738 5.7945556640625 C 16.40571403503418 4.8299560546875 16.11635971069336 3.948348999023438 15.42970275878906 3.174201965332031 C 14.25818061828613 1.8533935546875 12.04351425170898 0.999969482421875 9.787582397460938 1 M 9.787570953369141 0 C 13.66848182678223 -5.340576171875e-05 17.71763610839844 2.295547485351563 17.2825813293457 5.9139404296875 L 17.27898025512695 9.2286376953125 C 17.27898025512695 9.2286376953125 15.86419296264648 10.89453887939453 21.48105812072754 19.85761260986328 C 21.99709129333496 20.68094635009766 22.55663681030273 21.41031265258789 23.14889144897461 22.06081390380859 C 25.61861419677734 20.12563705444336 27.52902603149414 18.86312484741211 27.52902603149414 18.86312484741211 L 26.39142608642578 9.198928833007813 C 27.17651748657227 5.1590576171875 29.99614715576172 2.464241027832031 33.78473663330078 2.464241027832031 C 34.31752395629883 2.464241027832031 34.87005996704102 2.517631530761719 35.43817901611328 2.628036499023438 C 40.04614639282227 3.523536682128906 43.05572509765625 7.985733032226563 42.16023635864258 12.59371185302734 C 41.92173767089844 19.41391372680664 43.23572540283203 22.28941345214844 41.72013473510742 24.49711608886719 C 41.00508117675781 25.53870391845703 37.86760330200195 26.86877059936523 34.66652679443359 28.42410278320313 C 37.20899200439453 29.47178268432617 39.27587127685547 30.6931037902832 40.13434600830078 33.15510177612305 C 41.30793762207031 36.52200317382813 42.26913833618164 38.28869247436523 42.83882522583008 49.50268173217773 C 43.34731292724609 59.51516723632813 42.30242538452148 64.86566925048828 41.21163558959961 70.78045654296875 C 40.1208381652832 76.69525909423828 36.4605598449707 76.05085754394531 35.97275924682617 76.26864624023438 C 35.67913818359375 76.40029907226563 31.85697555541992 77.05851745605469 28.59055709838867 77.05851745605469 C 26.43039131164551 77.05851745605469 24.51308631896973 76.77054595947266 24.02083587646484 75.85195922851563 C 22.7833366394043 73.54435729980469 27.97271347045898 63.7127685546875 27.60101318359375 52.75167846679688 C 27.22301483154297 41.62049102783203 26.10702514648438 40.90859222412109 25.31232452392578 38.84400177001953 C 25.27698135375977 38.75215911865234 25.23799133300781 38.66262435913086 25.19559288024902 38.57524871826172 C 23.35873603820801 42.39333724975586 20.58669281005859 48.24897003173828 19.07895851135254 55.44898223876953 C 17.1718692779541 64.55246734619141 16.98646926879883 72.71815490722656 16.98646926879883 72.71815490722656 C 16.21499633789063 76.68800354003906 11.29353713989258 79.02991485595703 6.998741149902344 79.02991485595703 C 6.308349609375 79.02991485595703 5.633991241455078 78.96937561035156 4.995838165283203 78.84535980224609 C 0.3878707885742188 77.94895935058594 -0.5958290100097656 74.08255767822266 0.2996711730957031 69.47367095947266 C 0.2996711730957031 69.47367095947266 4.014846801757813 62.27906799316406 6.388137817382813 54.17368316650391 C 9.195224761962891 44.58509063720703 11.72691345214844 38.59200286865234 12.30830383300781 35.01090240478516 C 12.51141357421875 33.75943756103516 13.15270233154297 32.42306900024414 14.0639705657959 31.07598114013672 C 12.63788032531738 29.83425903320313 11.24558067321777 28.26762390136719 10.00072479248047 26.21341323852539 C 4.534160614013672 17.19272613525391 4.288459777832031 15.84272384643555 4.288459777832031 15.84272384643555 L 3.266960144042969 8.739036560058594 C 3.714260101318359 4.289443969726563 2.366970062255859 2.212234497070313 6.749046325683594 0.5301513671875 C 7.686759948730469 0.1701889038085938 8.731002807617188 2.288818359375e-05 9.787570953369141 0 Z"/>
    </g>
    <g id="ch16-2" class="cls-1" transform="matrix(-0.999, -0.035, 0.035, -0.999, 460.917, 452.452)">
      <path class="cls-2" d="M 7.859161853790283 79.47829437255859 L 7.858982086181641 79.47829437255859 C 7.09974193572998 79.478271484375 6.371791839599609 79.34658813476563 5.695281982421875 79.0869140625 C 4.648091793060303 78.68479919433594 3.880551815032959 77.88532257080078 3.41405177116394 76.71070098876953 C 2.389481782913208 74.13091278076172 3.102541923522949 70.52995300292969 3.405341863632202 69.9000244140625 L 3.411181926727295 69.88786315917969 L 3.4163818359375 69.87535858154297 C 3.439201831817627 69.82050323486328 5.738001823425293 64.33956909179688 9.182191848754883 60.04397964477539 C 10.03068161010742 58.98602294921875 11.52791213989258 57.62017059326172 14.03681182861328 55.61538314819336 L 14.41642189025879 55.31204223632813 L 14.12404155731201 54.92391967773438 C 12.81302356719971 53.18361282348633 11.57414436340332 51.61232376098633 10.44186210632324 50.25372695922852 C 8.03231143951416 47.21202850341797 6.750268936157227 40.59431838989258 5.127111911773682 32.21680068969727 L 5.047571659088135 31.80627059936523 C 3.387503147125244 23.23636627197266 0.6333528161048889 9.886669158935547 0.2870299816131592 8.210185050964355 C 0.408075362443924 7.999350547790527 0.7079942226409912 7.54466724395752 1.282001852989197 7.040591239929199 C 2.014431953430176 6.39738130569458 3.355891942977905 5.539641380310059 5.58718204498291 5.106021404266357 C 5.926732063293457 5.039971351623535 6.262321949005127 5.006481170654297 6.58472204208374 5.006481170654297 C 8.058362007141113 5.006481170654297 9.353672027587891 5.682881355285645 10.54468154907227 7.074331283569336 C 11.58075141906738 8.284761428833008 12.30722141265869 9.774661064147949 12.83767223358154 10.86255168914795 C 12.88365173339844 10.9568510055542 12.92809200286865 11.04800128936768 12.97106170654297 11.13553142547607 L 13.04339218139648 11.28277111053467 C 14.22709178924561 13.69147109985352 17.82925224304199 21.02143096923828 19.10028266906738 31.43727111816406 C 19.8455810546875 37.54833984375 22.31896209716797 42.38833999633789 24.64015197753906 46.3168830871582 L 24.96146202087402 46.86070251464844 L 25.41700172424316 46.42312240600586 C 26.80551147460938 45.08932113647461 27.64229202270508 44.02046203613281 27.97514152526855 43.15547180175781 C 28.35000228881836 42.18057250976563 27.60685157775879 41.11487197875977 26.57829093933105 39.6398811340332 C 24.98005104064941 37.34794998168945 22.56477165222168 33.88434982299805 22.44999122619629 28.31450080871582 C 22.33079147338867 22.51139068603516 20.62892150878906 18.38774108886719 19.26144218444824 15.07433128356934 C 18.25863265991211 12.64452171325684 17.46656227111816 10.72532176971436 17.61361122131348 8.9393310546875 C 17.78352165222168 6.87584114074707 18.85052108764648 5.914761543273926 20.97154235839844 5.914761543273926 C 22.30689239501953 5.914761543273926 24.01869201660156 6.311951160430908 26.05942153930664 7.095291137695313 C 29.78933525085449 8.526753425598145 32.73013305664063 11.05830669403076 33.40581893920898 11.66780853271484 C 33.70883941650391 19.13013648986816 36.30887222290039 27.80464172363281 38.40186309814453 34.78763961791992 C 39.18967056274414 37.41609954833984 39.87005233764648 39.68611145019531 40.30597305297852 41.49715042114258 C 40.75160217285156 43.34855270385742 40.88877105712891 44.54195022583008 40.71367263793945 45.0442008972168 C 40.21613311767578 46.47165298461914 39.13546371459961 48.3572998046875 37.50168228149414 50.6487922668457 C 36.04079055786133 52.69779205322266 34.16818237304688 55.01662063598633 32.0863037109375 57.3546028137207 L 31.77660179138184 57.70240020751953 L 32.1015510559082 58.03599166870117 L 32.32952117919922 58.26983261108398 C 33.30081176757813 59.26568984985352 34.13964080810547 60.12575149536133 34.47680282592773 60.69245147705078 C 35.60444259643555 62.58869171142578 38.85424041748047 68.47008514404297 38.88694000244141 68.52927398681641 L 38.89573287963867 68.54518890380859 L 38.90567016601563 68.56044006347656 C 40.03819274902344 70.29874420166016 40.17966079711914 72.92889404296875 39.2577018737793 75.105224609375 C 38.49670028686523 76.901611328125 37.14639282226563 78.07188415527344 35.45552062988281 78.40048217773438 C 35.20326995849609 78.44950103759766 34.94559097290039 78.47435760498047 34.68964004516602 78.47437286376953 C 31.46772193908691 78.47451019287109 28.57546234130859 74.62569427490234 26.66158103942871 72.07884216308594 C 26.22555160522461 71.49860382080078 25.84897232055664 70.99748229980469 25.517822265625 70.60606384277344 L 22.83139038085938 67.38214874267578 C 22.80328559875488 67.33876800537109 22.73984718322754 67.24103546142578 22.64407157897949 67.09444427490234 L 22.36816215515137 66.67210388183594 L 21.94829177856445 66.95177459716797 C 21.56847190856934 67.20475769042969 21.23634147644043 67.39713287353516 20.96111106872559 67.52354431152344 C 19.15998268127441 68.3507080078125 17.65602111816406 69.74028778076172 16.6118221282959 71.54206848144531 C 15.84951400756836 72.85743713378906 15.58887672424316 73.94217681884766 15.56330871582031 74.05391693115234 C 15.24742889404297 75.31798553466797 14.21446228027344 76.69400787353516 12.79917144775391 77.73569488525391 C 11.27241230010986 78.85942077636719 9.518012046813965 79.47829437255859 7.859161853790283 79.47829437255859 Z"/>
      <path class="cls-3" d="M 7.859168529510498 78.97830200195313 C 11.21396923065186 78.97830200195313 14.49000644683838 76.27105712890625 15.07689666748047 73.93802642822266 C 15.15807628631592 73.58557891845703 16.26626777648926 69.12944793701172 20.75245666503906 67.06916809082031 C 21.00390243530273 66.95368957519531 21.31297874450684 66.77418518066406 21.67112350463867 66.53562927246094 L 22.51082420349121 65.976318359375 L 23.06264686584473 66.82096862792969 C 23.14340782165527 66.944580078125 23.20132827758789 67.03367614746094 23.23464393615723 67.08502197265625 L 25.9017162322998 70.28569030761719 C 26.24164962768555 70.68772125244141 26.62155532836914 71.19328308105469 27.06131362915039 71.77848052978516 C 28.02532386779785 73.06132507324219 29.22506904602051 74.65785217285156 30.5875129699707 75.9200439453125 C 32.07973480224609 77.30245208740234 33.42154693603516 77.97444152832031 34.68962478637695 77.97438812255859 C 34.91364669799805 77.97438049316406 35.13923645019531 77.95261383056641 35.36013412475586 77.90967559814453 C 37.41429138183594 77.51047515869141 38.39533615112305 75.85906219482422 38.79730224609375 74.91020202636719 C 39.20977783203125 73.9365234375 39.40631484985352 72.80032348632813 39.35070037841797 71.71087646484375 C 39.29449081420898 70.60968017578125 38.99573516845703 69.61464691162109 38.48673629760742 68.8333740234375 L 38.46686935424805 68.80288696289063 L 38.44927978515625 68.77103424072266 C 38.4166145324707 68.7119140625 35.17058944702148 62.83736419677734 34.04710006713867 60.94810104370117 C 33.74026870727539 60.43237686157227 32.88112258911133 59.55149841308594 31.97153472900391 58.61888885498047 L 31.7433910369873 58.3848762512207 L 31.09349060058594 57.71768951416016 L 31.712890625 57.02208709716797 C 36.13348007202148 52.05770874023438 39.32175827026367 47.51848983764648 40.24153518676758 44.87960052490234 C 40.30633544921875 44.69374465942383 40.39495849609375 44.00348663330078 39.81985855102539 41.61416625976563 C 39.38715744018555 39.81648635864258 38.70860290527344 37.55257797241211 37.92291259765625 34.93119812011719 C 35.84169006347656 27.98745346069336 33.26104736328125 19.37721252441406 32.91548538208008 11.90106296539307 C 32.04071807861328 11.1334285736084 29.29033470153809 8.870798110961914 25.88024711608887 7.562088012695313 C 23.89690208435059 6.800776958465576 22.24538040161133 6.414754867553711 20.9715461730957 6.414754867553711 C 19.11521339416504 6.414754867553711 18.26000213623047 7.182043552398682 18.11192321777344 8.980354309082031 C 17.97477912902832 10.64609909057617 18.74653434753418 12.51608848571777 19.72362327575684 14.88357734680176 C 21.10704612731934 18.23562049865723 22.82876777648926 22.4073429107666 22.94989013671875 28.30419921875 C 23.06154632568359 33.72261047363281 25.42467880249023 37.11143112182617 26.98842430114746 39.35388946533203 C 28.10511207580566 40.95526504516602 28.91194725036621 42.11228942871094 28.44179153442383 43.33503341674805 C 28.07703590393066 44.28292083740234 27.2259578704834 45.37875366210938 25.76338005065918 46.78369903564453 L 24.8523120880127 47.65885543823242 L 24.20968055725098 46.57122039794922 C 21.86219024658203 42.59817504882813 19.36041259765625 37.70035552978516 18.60396766662598 31.49783325195313 C 17.34317970275879 21.1659984588623 13.7691125869751 13.89319896697998 12.59464645385742 11.50328826904297 L 12.52222442626953 11.35586547851563 C 12.47906875610352 11.26794338226318 12.43443489074707 11.17639923095703 12.38824653625488 11.0816764831543 C 11.37151336669922 8.996477127075195 9.66981315612793 5.506476879119873 6.584723949432373 5.506476879119873 C 6.294323921203613 5.506476879119873 5.990857601165771 5.536865711212158 5.682568550109863 5.596832275390625 C 3.598535299301147 6.001832485198975 2.345890760421753 6.786143779754639 1.662046313285828 7.372787952423096 C 1.227802753448486 7.745295524597168 0.9617636799812317 8.087410926818848 0.8170367479324341 8.304421424865723 C 1.297531127929688 10.63194751739502 3.930722713470459 23.41151809692383 5.538434982299805 31.71113204956055 L 5.617990970611572 32.12168884277344 C 7.227274894714355 40.42766189575195 8.498725891113281 46.99000549316406 10.82997703552246 49.93843841552734 C 11.96639728546143 51.30218887329102 13.20899105072021 52.87825393676758 14.52340221405029 54.62307739257813 L 15.10816860198975 55.39932250976563 L 14.3489351272583 56.00600051879883 C 12.81016826629639 57.23558807373047 10.6408576965332 59.02436447143555 9.572290420532227 60.35675430297852 C 6.175068378448486 64.59375762939453 3.900601863861084 70.01317596435547 3.878113031387329 70.06720733642578 L 3.867012977600098 70.09349822998047 L 3.856001853942871 70.11658477783203 C 3.774357318878174 70.28775787353516 3.506535291671753 71.23101043701172 3.411801815032959 72.59849548339844 C 3.337568521499634 73.670166015625 3.358824014663696 75.2227783203125 3.881690740585327 76.53355407714844 C 4.300524234771729 77.58351898193359 4.952390670776367 78.26605224609375 5.874468326568604 78.62012481689453 C 6.493568420410156 78.85776519775391 7.161235332489014 78.97827911376953 7.858890533447266 78.97830200195313 L 7.859168529510498 78.97830200195313 M 7.859164237976074 79.97830200195313 C 7.858935356140137 79.97830200195313 7.859119415283203 79.97830200195313 7.858890533447266 79.97830200195313 C 7.069157600402832 79.97827911376953 6.278635025024414 79.84641265869141 5.516101837158203 79.55369567871094 C 1.13310182094574 77.87071228027344 2.473201751708984 70.68511199951172 2.954701900482178 69.68339538574219 C 2.954701900482178 69.68339538574219 5.260501861572266 64.13579559326172 8.792101860046387 59.73119735717773 C 9.792945861816406 58.4832649230957 11.60539054870605 56.91824340820313 13.72467994689941 55.22477722167969 C 12.51655769348145 53.62105560302734 11.27147960662842 52.02992248535156 10.05390167236328 50.56919860839844 C 7.526701927185059 47.38409805297852 6.263102054595947 40.70610046386719 4.55670166015625 31.90139961242676 C 2.77200174331665 22.6880989074707 -0.2384981364011765 8.137799263000488 -0.2384981364011765 8.137799263000488 C -0.2384981364011765 8.137799263000488 0.8838018774986267 5.510699272155762 5.491801738739014 4.615199089050293 C 5.87233304977417 4.541173934936523 6.236527442932129 4.506482124328613 6.584722518920898 4.506482124328613 C 10.45295333862305 4.506482124328613 12.37376880645752 8.784125328063965 13.41990184783936 10.91519927978516 C 14.56020164489746 13.23899936676025 18.28890228271484 20.66039848327637 19.59660148620605 31.37669944763184 C 20.37069129943848 37.7238655090332 23.10713577270508 42.73938751220703 25.07062339782715 46.06252288818359 C 26.2934684753418 44.88786697387695 27.17927932739258 43.83145523071289 27.50850105285645 42.97589874267578 C 28.26360130310059 41.01210021972656 22.13730239868164 37.40940093994141 21.95010185241699 28.32479858398438 C 21.74490165710449 18.33479881286621 16.74900245666504 13.346999168396 17.11530113220215 8.898299217224121 C 17.32621955871582 6.33671236038208 18.86641120910645 5.414754390716553 20.97154235839844 5.414754390716553 C 22.52238845825195 5.414754390716553 24.37973976135254 5.914961814880371 26.23860168457031 6.628499031066895 C 30.62160110473633 8.310599327087402 33.89760208129883 11.44079875946045 33.89760208129883 11.44079875946045 C 34.35480117797852 24.53489875793457 42.25950241088867 42.12899780273438 41.1858024597168 45.20879745483398 C 40.10029220581055 48.32315444946289 36.44134521484375 53.2156867980957 32.45971298217773 57.68711090087891 C 33.56446838378906 58.82125473022461 34.51158142089844 59.77301025390625 34.90650177001953 60.43679809570313 C 36.05130004882813 62.36190032958984 39.32460021972656 68.28749847412109 39.32460021972656 68.28749847412109 C 41.54220199584961 71.69129943847656 40.15890121459961 77.99581146240234 35.5509033203125 78.89131164550781 C 35.26093292236328 78.94766235351563 34.9736213684082 78.97437286376953 34.68966674804688 78.97438812255859 C 30.461181640625 78.97456359863281 26.93415641784668 73.05428314208984 25.1361026763916 70.92900085449219 L 22.42800140380859 67.67910003662109 C 22.42800140380859 67.67910003662109 22.35781288146973 67.57046508789063 22.22547912597656 67.36791229248047 C 21.8291130065918 67.63191986083984 21.47425651550293 67.83808898925781 21.16980171203613 67.97791290283203 C 16.99560165405273 69.89491271972656 16.04970169067383 74.16989898681641 16.04970169067383 74.16989898681641 C 15.34426689147949 77.00799560546875 11.60758972167969 79.97830200195313 7.859164237976074 79.97830200195313 Z"/>
    </g>
  </g>
</svg>
