<svg xmlns="http://www.w3.org/2000/svg" width="94.788" height="86.812" viewBox="0 0 94.788 86.812">
  <defs>
    <style>
      .cls-1 {
        fill: #fff;
      }

      .cls-2, .cls-3 {
        stroke: none;
      }

      .cls-3 {
        fill: #707070;
      }
    </style>
  </defs>
  <g id="ch19" transform="translate(-375.024 -335.456)">
    <g id="ch19-1" class="cls-1" transform="matrix(-0.999, -0.035, 0.035, -0.999, 418.917, 452.452)">
      <path class="cls-2" d="M 30.77079010009766 114.9846496582031 C 29.05635070800781 114.9848022460938 27.5061092376709 114.3901062011719 26.28764915466309 113.2648315429688 C 25.08195877075195 112.1513519287109 24.24878692626953 110.5709762573242 23.87671279907227 108.692512512207 L 23.6581916809082 102.4312133789063 L 24.04462051391602 90.83836364746094 L 24.05299949645996 90.58705139160156 L 23.85623931884766 90.43046569824219 C 23.8544807434082 90.42906188964844 23.67736053466797 90.28803253173828 23.36698913574219 90.03379058837891 L 23.01438903808594 89.74497222900391 L 22.69425010681152 90.06940460205078 C 21.67378044128418 91.10356140136719 20.80131912231445 92.20690155029297 20.02701950073242 93.44248962402344 C 14.84337997436523 101.7120742797852 14.87116432189941 104.4268264770508 14.95664978027344 104.9693298339844 L 14.96020030975342 108.2381439208984 L 14.96022987365723 108.267822265625 L 14.96378040313721 108.2972946166992 C 15.09755039215088 109.4098892211914 14.76708030700684 110.4231185913086 13.98153972625732 111.3088302612305 C 12.71951961517334 112.7317886352539 10.35824012756348 113.6513595581055 7.965889930725098 113.6515426635742 C 6.942490100860596 113.6516189575195 5.953789710998535 113.4797897338867 5.106679916381836 113.1546249389648 C 1.037092328071594 111.5927963256836 0.7423779964447021 108.9413681030273 0.3018628060817719 104.5613021850586 L 1.717399954795837 99.60162353515625 C 1.73225998878479 99.54788970947266 3.144199848175049 94.55930328369141 8.5006103515625 85.72043609619141 C 9.678970336914063 83.77597045898438 11.06198024749756 82.15010070800781 12.72867012023926 80.74992370605469 L 13.12191963195801 80.41956329345703 L 12.78110980987549 80.03530883789063 C 9.730099678039551 76.59543609619141 8.015970230102539 73.8214111328125 7.686339855194092 71.79030609130859 C 6.594449996948242 65.06229400634766 5.013339996337891 49.35416412353516 4.997499942779541 49.19628143310547 L 4.99521017074585 49.17339324951172 L 4.990819931030273 49.15082168579102 C 4.529709815979004 46.77806091308594 4.614809989929199 44.83168411254883 5.243780136108398 43.36576080322266 C 5.93110990524292 41.76381301879883 7.292989730834961 40.75462341308594 9.291580200195313 40.3662223815918 C 9.890500068664551 40.24985122680664 10.53238964080811 40.19084167480469 11.19939994812012 40.19084167480469 C 13.30189037322998 40.19084167480469 15.51224994659424 40.77388381958008 17.26371002197266 41.79047393798828 C 18.59089469909668 42.560791015625 20.25861358642578 43.92596817016602 20.68983268737793 46.06192398071289 C 20.73929023742676 47.25286102294922 21.47937202453613 64.80390930175781 22.28647041320801 68.93682861328125 C 22.42122077941895 69.62672424316406 22.79526901245117 70.48944091796875 23.42997932434082 71.57430267333984 L 24.02597045898438 72.59300231933594 L 24.34314918518066 71.45618438720703 C 26.08483505249023 65.21356964111328 29.51419639587402 46.92443466186523 29.71132278442383 45.87029647827148 C 30.23506927490234 44.54107666015625 31.33014869689941 43.43459320068359 32.88114929199219 42.66828155517578 C 34.32621002197266 41.95430374145508 36.12773132324219 41.56110382080078 37.95384979248047 41.56110382080078 C 39.38125991821289 41.56110382080078 40.75341033935547 41.79814147949219 41.92195129394531 42.24660110473633 C 42.79777908325195 42.58298110961914 43.48577880859375 43.26525115966797 43.96670913696289 44.27443313598633 C 44.37125015258789 45.1233024597168 44.63304138183594 46.20080184936523 44.74478912353516 47.47699356079102 C 44.93013381958008 49.59341430664063 44.63582611083984 51.54615020751953 44.60702896118164 51.72917556762695 C 44.45345687866211 52.39878845214844 39.94756317138672 72.00868225097656 37.73468017578125 78.35498046875 C 36.93515014648438 80.64793395996094 35.07283020019531 82.02854919433594 33.35654067993164 83.07667541503906 L 32.83663940429688 83.3941650390625 L 33.24940872192383 83.84218597412109 C 33.8271598815918 84.46926879882813 34.24606323242188 84.91347503662109 34.41609573364258 85.09291076660156 L 38.41132736206055 98.61557006835938 L 38.64760971069336 105.3723754882813 L 38.64897918701172 105.4116744995117 L 38.65647888183594 105.4502716064453 C 39.49787139892578 109.7806930541992 36.65974044799805 113.9883193969727 32.32981872558594 114.8297805786133 C 31.80175971984863 114.932502746582 31.27725028991699 114.9846038818359 30.77078056335449 114.9846496582031 L 30.77079010009766 114.9846496582031 Z"/>
      <path class="cls-3" d="M 30.77074432373047 114.4846496582031 C 31.2452449798584 114.4846115112305 31.73763275146484 114.4356079101563 32.23443222045898 114.3389739990234 C 36.29373168945313 113.5501098632813 38.9544677734375 109.6054306030273 38.16565704345703 105.5456390380859 L 38.15065383911133 105.4684448242188 L 38.14791107177734 105.3898544311523 L 37.91384506225586 98.69642639160156 L 33.97055435180664 85.34955596923828 C 33.76721572875977 85.13432312011719 33.38835906982422 84.73090362548828 32.88168716430664 84.18096160888672 L 32.05614471435547 83.28492736816406 L 33.09595489501953 82.64994049072266 C 35.45276641845703 81.21067810058594 36.6599235534668 79.91864013671875 37.26255416870117 78.19035339355469 C 39.4506721496582 71.91508483886719 43.90187454223633 52.56640625 44.11565399169922 51.63495254516602 C 44.15338516235352 51.38837051391602 44.4251708984375 49.50151824951172 44.24359893798828 47.48568725585938 C 44.1347541809082 46.27729797363281 43.88748931884766 45.26456451416016 43.5086784362793 44.4755973815918 C 43.07927703857422 43.58127593994141 42.50157928466797 43.00481796264648 41.74280166625977 42.71340942382813 C 40.63086700439453 42.28666305541992 39.3206787109375 42.06110763549805 37.95386505126953 42.06110763549805 C 36.20305633544922 42.06110763549805 34.48017883300781 42.43593978881836 33.10263442993164 43.11655426025391 C 32.10751342773438 43.60822677612305 30.80391502380371 44.50716400146484 30.1938419342041 46.01028060913086 C 29.89007186889648 47.63624572753906 26.56951904296875 65.33689117431641 24.82475471496582 71.59055328369141 L 24.19041061401367 73.86420440673828 L 22.99841117858887 71.82679748535156 C 22.3348560333252 70.69261932373047 21.94145584106445 69.77866363525391 21.79574394226074 69.03267669677734 C 20.98969841003418 64.90515899658203 20.25468444824219 47.62685012817383 20.19194984436035 46.12319564819336 C 19.78512382507324 44.19072723388672 18.24288368225098 42.93692016601563 17.01272201538086 42.22289657592773 C 15.33523368835449 41.24925231933594 13.2163553237915 40.69084167480469 11.19939994812012 40.69084167480469 C 10.56428909301758 40.69084167480469 9.954488754272461 40.74675369262695 9.386966705322266 40.85702896118164 C 7.535022258758545 41.2169303894043 6.330066680908203 42.10203170776367 5.703266620635986 43.56290817260742 C 5.114577770233154 44.93497467041016 5.040010929107666 46.78292846679688 5.481633186340332 49.0554313659668 L 5.490411281585693 49.1005859375 L 5.494999885559082 49.1463508605957 C 5.510833263397217 49.30407333374023 7.090366840362549 64.99681854248047 8.179888725280762 71.710205078125 C 8.39591121673584 73.04130554199219 9.434432983398438 75.50858306884766 13.15517807006836 79.70352935791016 L 13.83679962158203 80.47201538085938 L 13.05028915405273 81.13275146484375 C 11.42613315582275 82.49720001220703 10.07778835296631 84.08261108398438 8.928221702575684 85.97957611083984 C 3.619288921356201 94.74010467529297 2.214066505432129 99.68180847167969 2.200822114944458 99.72948455810547 L 2.199533224105835 99.73417663574219 L 2.198199987411499 99.73883819580078 L 0.8089384436607361 104.6064682006836 C 1.238979816436768 108.8768920898438 1.529624342918396 111.2462539672852 5.285866737365723 112.6878280639648 C 6.076377868652344 112.9912719726563 7.003110885620117 113.1516189575195 7.965866565704346 113.1515426635742 C 10.22162246704102 113.1513748168945 12.43607807159424 112.2978515625 13.60745525360107 110.9770889282227 C 14.29399967193604 110.2029876708984 14.58331108093262 109.3214645385742 14.46735572814941 108.3569869995117 L 14.46026706695557 108.2980499267578 L 14.46020030975342 108.2386932373047 L 14.45668792724609 105.0054321289063 C 14.40664863586426 104.6294097900391 14.41927337646484 103.836067199707 14.89579963684082 102.3676223754883 C 15.64613342285156 100.0554428100586 17.22999954223633 96.96323394775391 19.60334396362305 93.17697143554688 C 20.38628959655762 91.92760467529297 21.30647850036621 90.76390838623047 22.33835601806641 89.71820831298828 L 22.97863388061523 89.06936645507813 L 23.68382263183594 89.64699554443359 C 23.99076652526855 89.89840698242188 24.16585540771484 90.03784942626953 24.16758918762207 90.03923034667969 L 24.56110000610352 90.3524169921875 L 24.54434394836426 90.85501098632813 L 24.15847969055176 102.4309539794922 L 24.37497901916504 108.6343460083008 C 24.73004722595215 110.3910293579102 25.50777053833008 111.8639907836914 26.62688827514648 112.8975219726563 C 27.75134468078613 113.9359741210938 29.18426704406738 114.4847946166992 30.77074432373047 114.4846496582031 M 30.77083396911621 115.4846496582031 C 26.98262214660645 115.4850006103516 24.16344451904297 112.7892990112305 23.3784008026123 108.7497100830078 L 23.15789985656738 102.4317092895508 L 23.54489898681641 90.82169342041016 C 23.54489898681641 90.82169342041016 23.36759948730469 90.68061828613281 23.05015563964844 90.42059326171875 C 22.12120056152344 91.36199951171875 21.24366569519043 92.44264221191406 20.4507007598877 93.70800018310547 C 14.83290004730225 102.6702041625977 15.45660018920898 104.9229049682617 15.45660018920898 104.9229049682617 L 15.46020030975342 108.2376098632813 C 15.89522266387939 111.8557281494141 11.84636211395264 114.151252746582 7.965943336486816 114.1515426635742 C 6.909126281738281 114.1516265869141 5.865489959716797 113.9814605712891 4.927499771118164 113.6214065551758 C 0.544499933719635 111.9393005371094 0.242099940776825 108.965705871582 -0.2052000612020493 104.5161056518555 L 1.236599922180176 99.46439361572266 C 1.236599922180176 99.46439361572266 2.606400012969971 94.48200988769531 8.072999954223633 85.46131134033203 C 9.396611213684082 83.27715301513672 10.88665580749512 81.64436340332031 12.40705585479736 80.36708831787109 C 9.762866973876953 77.38591003417969 7.586033344268799 74.29342651367188 7.192800045013428 71.87039947509766 C 6.085800170898438 65.04929351806641 4.5 49.24619674682617 4.5 49.24619674682617 C 3.60450005531311 44.63820648193359 4.588200092315674 40.77089691162109 9.196200370788574 39.87539672851563 C 9.834481239318848 39.75138092041016 10.50893402099609 39.69084167480469 11.19939517974854 39.69084167480469 C 15.49461555480957 39.69084167480469 20.41554069519043 42.03275299072266 21.18779945373535 46.00260925292969 C 21.18779945373535 46.00260925292969 21.95730018615723 64.64250946044922 22.77720069885254 68.84101104736328 C 22.90666580200195 69.50379943847656 23.29674530029297 70.35643768310547 23.86154365539551 71.32181549072266 C 25.6608772277832 64.87255096435547 29.2283992767334 45.73260879516602 29.2283992767334 45.73260879516602 C 30.43278884887695 42.59436416625977 34.26558303833008 41.06110382080078 37.9538688659668 41.06110382080078 C 39.41679382324219 41.06110382080078 40.85634231567383 41.30208969116211 42.10110092163086 41.7797966003418 C 46.48320007324219 43.46280670166016 45.09809875488281 51.8246955871582 45.09809875488281 51.8246955871582 C 45.09809875488281 51.8246955871582 40.48199844360352 71.99459838867188 38.2067985534668 78.51959991455078 C 37.4205322265625 80.77452087402344 35.72751235961914 82.21462249755859 33.61713409423828 83.50338745117188 C 34.38334274291992 84.33502960205078 34.86149978637695 84.83580017089844 34.86149978637695 84.83580017089844 L 38.90879821777344 98.53470611572266 L 39.14730072021484 105.3549041748047 C 40.04280090332031 109.9638061523438 37.03319931030273 114.4251098632813 32.42520141601563 115.3206100463867 C 31.8568000793457 115.4311752319336 31.30386734008789 115.4846115112305 30.77083396911621 115.4846496582031 Z"/>
    </g>
    <g id="ch19-2" class="cls-1" transform="matrix(0.998, 0.07, -0.07, 0.998, 424.219, 329.234)">
      <path class="cls-2" d="M 8.348106384277344 89.50905609130859 L 8.347928047180176 89.50905609130859 C 7.68095064163208 89.50905609130859 7.039173126220703 89.45005035400391 6.440395355224609 89.33367156982422 C 2.212217330932617 88.51117706298828 2.250361919403076 86.03995513916016 2.2945396900177 83.17852020263672 C 2.297328472137451 82.9193115234375 2.583084106445313 57.41218566894531 3.671450614929199 50.70599746704102 C 4.03919506072998 48.44216537475586 6.220061779022217 45.13298797607422 9.978283882141113 41.13626480102539 L 10.35511779785156 40.73550796508789 L 9.920317649841309 40.39852905273438 C 8.774494171142578 39.51054000854492 7.916318893432617 38.87001419067383 7.613348007202148 38.64525604248047 L 2.837421178817749 26.1005859375 L 1.426886320114136 21.16059684753418 C 1.868251442909241 16.7809009552002 2.163463115692139 14.12980175018311 6.231672763824463 12.56819725036621 C 7.078961849212646 12.24285316467285 8.068028450012207 12.07089710235596 9.092006683349609 12.07089710235596 C 11.48429489135742 12.07089710235596 13.84549522399902 12.99025249481201 15.10745048522949 14.4130744934082 C 15.89300632476807 15.2987642288208 16.22347259521484 16.31198692321777 16.08967208862305 17.42459678649902 L 16.08612823486328 17.45407485961914 L 16.08609580993652 17.4837532043457 L 16.08250617980957 20.79935264587402 L 16.08248329162598 20.81710815429688 L 16.0837287902832 20.83480834960938 L 16.80461692810059 31.13440895080566 L 16.82376098632813 31.4079418182373 L 17.06471824645996 31.53885269165039 C 17.07123947143555 31.54239654541016 17.72873878479004 31.90005302429199 18.78177261352539 32.51103210449219 L 19.08150672912598 32.68494033813477 L 19.34956169128418 32.4653205871582 C 19.66225051879883 32.20915222167969 19.84046173095703 32.06725311279297 19.84222793579102 32.06585311889648 L 19.93050575256348 31.99559783935547 L 19.98008346557617 31.89422988891602 L 26.44747352600098 18.66783142089844 L 26.47648429870605 18.6085090637207 L 26.48909568786621 18.54367446899414 C 26.85777282714844 16.64850807189941 27.69432830810547 15.05429744720459 28.90834999084473 13.93336391448975 C 30.12692832946777 12.80821895599365 31.67724990844727 12.21350860595703 33.39169692993164 12.21350860595703 C 33.89761734008789 12.21350860595703 34.42181777954102 12.26551914215088 34.9497184753418 12.36811923980713 C 37.04752731323242 12.77571964263916 38.86088562011719 13.97588634490967 40.0557746887207 15.7475414276123 C 41.23130035400391 17.49050712585449 41.66985702514648 19.58148002624512 41.29541015625 21.64631843566895 L 30.45829963684082 37.34506225585938 C 30.34270477294922 37.46665573120117 29.87182807922363 37.96356201171875 29.18791770935059 38.70647430419922 L 28.81926155090332 39.10695266723633 L 29.2495288848877 39.44035339355469 C 33.16733932495117 42.47610855102539 35.51436233520508 45.04941940307617 36.22537231445313 47.08879852294922 C 38.42776870727539 53.40500259399414 45.46425247192383 74.49072265625 45.81831359863281 75.55191040039063 C 45.90739059448242 76.14216613769531 46.94003677368164 83.54776000976563 43.12882995605469 85.01071166992188 C 41.96029663085938 85.45949554443359 40.58795166015625 85.69671630859375 39.16009521484375 85.69676208496094 C 37.33419418334961 85.69683074951172 35.53291702270508 85.30369567871094 34.08808517456055 84.58980560302734 C 32.52941131591797 83.81967163085938 31.4310359954834 82.70573425292969 30.91018295288086 81.36735534667969 C 30.54231643676758 80.06224060058594 23.86013793945313 56.37627792358398 22.34295082092285 52.43352890014648 C 22.0885066986084 51.77285385131836 21.56482887268066 50.98185348510742 20.74192810058594 50.01518630981445 L 20.30461692810059 49.50148773193359 L 19.94035148620605 50.06932067871094 C 18.98636245727539 51.55644226074219 18.44080543518066 52.6983757019043 18.2724723815918 53.56037521362305 C 17.46266174316406 57.70627593994141 17.81034660339355 82.00397491455078 17.8349609375 83.65168762207031 C 17.39995956420898 85.77973175048828 15.73653030395508 87.14058685302734 14.41209506988525 87.90933990478516 C 12.66060638427734 88.92598724365234 10.45037269592285 89.50905609130859 8.348106384277344 89.50905609130859 Z"/>
      <path class="cls-3" d="M 8.348106384277344 89.00905609130859 C 10.36482810974121 89.00905609130859 12.4835844039917 88.45060729980469 14.16109561920166 87.47690582275391 C 15.38564395904541 86.76612854003906 16.91933250427246 85.52054595947266 17.33418846130371 83.60338592529297 C 17.30358695983887 81.52812957763672 16.97027778625488 57.61891555786133 17.78174018859863 53.46454238891602 C 17.96238327026367 52.53946304321289 18.53081703186035 51.3405647277832 19.51949501037598 49.79935455322266 L 20.24802780151367 48.66366195678711 L 21.12265014648438 49.69108581542969 C 21.98271751403809 50.70140838623047 22.53449440002441 51.53964233398438 22.80959510803223 52.25396347045898 C 24.32642364501953 56.1957893371582 30.94864654541016 79.66110992431641 31.38470458984375 81.20783996582031 C 31.98810386657715 82.73511505126953 33.30582809448242 83.64559173583984 34.30957412719727 84.14154052734375 C 35.68688583374023 84.82206726074219 37.40949630737305 85.19682312011719 39.16007232666016 85.19676208496094 C 40.52729415893555 85.19671630859375 41.83763885498047 84.97100067138672 42.94964981079102 84.54390716552734 C 43.7086181640625 84.25257873535156 44.28631591796875 83.67630004882813 44.71577453613281 82.78211975097656 C 45.09465026855469 81.99327850341797 45.34199523925781 80.98062133789063 45.45096206665039 79.77230834960938 C 45.62419128417969 77.85124969482422 45.38565063476563 76.04722595214844 45.33030700683594 75.66907501220703 C 44.83974075317383 74.19886779785156 37.93098068237305 53.49888229370117 35.75325012207031 47.2534065246582 C 35.28667449951172 45.91514205932617 33.72646331787109 43.54188537597656 28.94328498840332 39.83558654785156 L 28.08273887634277 39.16878509521484 L 28.8200626373291 38.36783981323242 C 29.46973419189453 37.66210174560547 29.91817665100098 37.18770980834961 30.06904602050781 37.02882385253906 L 40.8216667175293 21.45247268676758 C 41.13948059082031 19.55073547363281 40.72347640991211 17.63176155090332 39.64123916625977 16.02711868286133 C 38.52104949951172 14.36620807647705 36.82104110717773 13.24106407165527 34.85432815551758 12.85893058776855 C 34.35780715942383 12.76243019104004 33.86570739746094 12.71350860595703 33.39169692993164 12.71350860595703 C 31.80516242980957 12.71350860595703 30.37213897705078 13.26235294342041 29.24753952026367 14.30071926116943 C 28.11223983764648 15.34896373748779 27.32810592651367 16.84916305541992 26.97989463806152 18.63915252685547 L 26.95467376708984 18.76880836486816 L 26.89665031433105 18.88747406005859 L 20.42926216125488 32.11387634277344 L 20.33010673522949 32.31659698486328 L 20.15356254577637 32.45708465576172 C 20.15182876586914 32.45847320556641 19.97566223144531 32.59875106811523 19.66643905639648 32.85209655761719 L 19.13031768798828 33.29133224487305 L 18.53083992004395 32.94350814819336 C 17.48518371582031 32.33680725097656 16.83248329162598 31.98170852661133 16.82601737976074 31.97819709777832 L 16.3441276550293 31.71635246276855 L 16.30583953857422 31.16931915283203 L 15.58495044708252 20.86971855163574 L 15.5824728012085 20.83430862426758 L 15.58250617980957 20.79881858825684 L 15.58609485626221 17.48321914672852 L 15.58616161346436 17.42384147644043 L 15.5932502746582 17.36489677429199 C 15.7092399597168 16.40041923522949 15.41993999481201 15.51890850067139 14.73338413238525 14.74485301971436 C 13.56206226348877 13.42421913146973 11.34769535064697 12.57089710235596 9.092006683349609 12.57089710235596 C 8.128684043884277 12.57089710235596 7.201583862304688 12.73136425018311 6.410850524902344 13.03498649597168 C 2.656155109405518 14.47625064849854 2.364817380905151 16.84585762023926 1.933977603912354 21.11547470092773 L 3.312269449234009 25.94254302978516 L 8.02873420715332 38.33102416992188 C 8.40529727935791 38.61144638061523 9.201722145080566 39.20905303955078 10.22659492492676 40.00331878662109 L 11.09621715545654 40.67727661132813 L 10.34253978729248 41.47877502441406 C 5.68107271194458 46.43607330322266 4.410228729248047 49.27642059326172 4.164995193481445 50.78609848022461 C 3.082617282867432 57.45536422729492 2.797295093536377 82.92505645751953 2.794472932815552 83.18623352050781 C 2.774395227432251 84.48722076416016 2.753628492355347 85.83249664306641 3.227195262908936 86.823486328125 C 3.538339614868164 87.474609375 4.21986198425293 88.39234161376953 6.535784244537354 88.84286499023438 C 7.103206157684326 88.95314025878906 7.712895393371582 89.00905609130859 8.347994804382324 89.00905609130859 L 8.348106384277344 89.00905609130859 M 8.348100662231445 90.00905609130859 C 8.347838401794434 90.00905609130859 8.348179817199707 90.00905609130859 8.347917556762695 90.00905609130859 C 7.657517433166504 90.00905609130859 6.983161926269531 89.94851684570313 6.345006465911865 89.82449340820313 C 1.736995100975037 88.9281005859375 1.749595165252686 86.08589935302734 1.794595122337341 83.17079925537109 C 1.794595122337341 83.17079925537109 2.070895195007324 57.4470100402832 3.177906274795532 50.62589645385742 C 3.630695104598999 47.83854293823242 6.444328308105469 44.16459655761719 9.614028930664063 40.79374313354492 C 8.169395446777344 39.67416381835938 7.198206424713135 38.96009826660156 7.198206424713135 38.96009826660156 L 2.362495183944702 26.25839805603027 L 0.9198062419891357 21.20579719543457 C 1.368006229400635 16.7562084197998 1.670406222343445 13.78349685668945 6.052495002746582 12.10140800476074 C 6.99041223526001 11.74126243591309 8.035378456115723 11.57089900970459 9.092007637023926 11.57089900970459 C 12.97314357757568 11.57089900970459 17.02116012573242 13.86660385131836 16.58609580993652 17.48429679870605 L 16.58250617980957 20.79989624023438 L 17.30339431762695 31.09949684143066 C 17.30339431762695 31.09949684143066 17.96001815795898 31.45617485046387 19.03269577026367 32.07855224609375 C 19.35251808166504 31.81653022766113 19.53090667724609 31.67459678649902 19.53090667724609 31.67459678649902 L 25.99829483032227 18.44819641113281 C 26.78413200378418 14.40861320495605 29.60364151000977 11.71350574493408 33.39169311523438 11.71350574493408 C 33.92470550537109 11.71350574493408 34.47669982910156 11.76683521270752 35.04510498046875 11.87729740142822 C 39.65399551391602 12.77279758453369 42.66270446777344 17.2349967956543 41.76720809936523 21.84299659729004 L 30.84749603271484 37.66139602661133 C 30.84749603271484 37.66139602661133 30.34961700439453 38.18278503417969 29.55578422546387 39.04512023925781 C 32.90027236938477 41.63663101196289 35.8438835144043 44.47579574584961 36.69750595092773 46.92419815063477 C 38.97270584106445 53.44919586181641 46.30590438842773 75.43350982666016 46.30590438842773 75.43350982666016 C 46.30590438842773 75.43350982666016 47.69010543823242 83.79541015625 43.30800628662109 85.47750091552734 C 42.06350326538086 85.95546722412109 40.6229248046875 86.19671630859375 39.16010665893555 86.19676971435547 C 35.47210311889648 86.19689178466797 31.64034080505371 84.66384124755859 30.43530654907227 81.52561187744141 C 30.43530654907227 81.52561187744141 23.41260719299316 56.60550689697266 21.87630653381348 52.61309814453125 C 21.63170623779297 51.97797393798828 21.09369468688965 51.19976425170898 20.3611946105957 50.33929824829102 C 19.52118492126465 51.64875411987305 18.92893981933594 52.80747604370117 18.76320648193359 53.65619659423828 C 17.94329452514648 57.85379791259766 18.33570671081543 83.69731140136719 18.33570671081543 83.69731140136719 C 17.56426429748535 87.66690063476563 12.64272594451904 90.00905609130859 8.348100662231445 90.00905609130859 Z"/>
    </g>
  </g>
</svg>
