<svg xmlns="http://www.w3.org/2000/svg" width="71.409" height="182.003" viewBox="0 0 71.409 182.003">
  <defs>
    <style>
      .cls-1 {
        fill: #fff;
        stroke-linecap: round;
        stroke-linejoin: round;
      }

      .cls-2, .cls-3 {
        stroke: none;
      }

      .cls-3 {
        fill: #9a9a9a;
      }
    </style>
  </defs>
  <g id="ch19-1" class="cls-1" transform="translate(21.431 -1.971)">
    <path class="cls-2" d="M 5.493370056152344 182.9741973876953 C 5.49109411239624 182.9741973876953 5.48985767364502 182.9741973876953 5.487581729888916 182.9741973876953 C 5.276176929473877 182.9741973876953 5.057772636413574 182.9734344482422 4.843820095062256 182.9719543457031 C -2.245418071746826 182.9226989746094 -7.962942123413086 182.0906524658203 -12.14991760253906 180.4989318847656 C -15.45837020874023 179.2411956787109 -17.80965614318848 177.5112915039063 -19.13848876953125 175.3572692871094 C -21.65804100036621 171.2730560302734 -19.75539398193359 166.8290557861328 -19.52698707580566 166.3296203613281 C -19.25658798217773 165.8954620361328 -18.48646545410156 164.3441772460938 -17.52268028259277 159.6687622070313 C -16.08170318603516 152.6784515380859 -14.81908512115479 141.6215515136719 -13.87132263183594 127.6933822631836 C -11.58563232421875 94.10292816162109 -10.17415618896484 30.67547798156738 -10.16015625 30.03874015808105 L -10.15748977661133 29.91771697998047 L -10.18379878997803 29.7995491027832 C -10.18953704833984 29.77355003356934 -10.77553749084473 27.0626220703125 -10.5683708190918 23.42131233215332 C -10.44777488708496 21.30190658569336 -10.0857515335083 19.28478813171387 -9.49232292175293 17.42597770690918 C -8.757347106933594 15.12378787994385 -7.662203788757324 13.05735969543457 -6.237322807312012 11.28409767150879 C -1.805084705352783 5.768216609954834 5.82274866104126 2.971430778503418 16.43424797058105 2.971430778503418 C 16.98282051086426 2.971430778503418 17.54708099365234 2.979049921035767 18.11134338378906 2.994121313095093 C 24.54329681396484 3.165811777114868 30.08915328979492 4.217930793762207 34.59486770629883 6.121240139007568 C 38.3691520690918 7.715573787689209 41.46384429931641 9.928145408630371 43.79293823242188 12.69750213623047 C 45.25691604614258 14.43819236755371 46.43379592895508 16.41752624511719 47.29084396362305 18.58050155639648 C 47.98031997680664 20.32050132751465 48.4662971496582 22.18400192260742 48.73527145385742 24.11926460266113 C 49.19655990600586 27.43790626525879 48.85436630249023 29.84645462036133 48.85084533691406 29.87040710449219 L 48.84303283691406 29.92369270324707 L 48.84079742431641 29.97878837585449 C 48.81581878662109 30.63619232177734 46.31679534912109 96.10700225830078 44.03367614746094 129.6596984863281 C 41.97397232055664 159.9290771484375 40.05539321899414 164.7142944335938 39.80811309814453 165.2178802490234 L 39.63462829589844 165.3941955566406 L 39.60196304321289 165.7496643066406 C 39.60127258300781 165.7565002441406 39.48755645751953 166.8382110595703 38.83610534667969 168.4276885986328 C 38.23653411865234 169.8905029296875 37.04415512084961 172.0980529785156 34.76850891113281 174.3075256347656 C 32.19329452514648 176.807861328125 28.78239059448242 178.803955078125 24.63055801391602 180.2403106689453 C 19.38725471496582 182.0543060302734 12.94790267944336 182.9741973876953 5.493370056152344 182.9741973876953 Z"/>
    <path class="cls-3" d="M 5.493253231048584 181.9742279052734 C 12.77767848968506 181.9742279052734 19.06497764587402 181.0871276855469 24.18045425415039 179.3376007080078 C 28.18605422973633 177.9676513671875 31.47547912597656 176.0709686279297 33.95730209350586 173.7003021240234 C 35.70430374145508 172.0315246582031 37.01725387573242 170.1713562011719 37.85962677001953 168.1714477539063 C 38.46162414550781 166.7422637939453 38.59491729736328 165.7468872070313 38.60681533813477 165.6499481201172 C 38.6337776184082 165.3118896484375 38.74480438232422 165.0048217773438 38.92864990234375 164.7340850830078 C 39.04657745361328 164.4541625976563 39.56748580932617 163.0263214111328 40.28977966308594 158.2268218994141 C 41.25597763061523 151.8066558837891 42.17992782592773 142.1724243164063 43.03600311279297 129.591796875 C 45.31807708740234 96.05422210693359 47.81655502319336 30.59810066223145 47.84152984619141 29.94084930419922 C 47.84440612792969 29.86508178710938 47.85004806518555 29.79966354370117 47.86145401000977 29.72505569458008 C 47.87157821655273 29.65233993530273 48.18358612060547 27.34268760681152 47.73423004150391 24.18179893493652 C 47.47127914428711 22.33212471008301 47.00202941894531 20.55319976806641 46.33952713012695 18.89450073242188 C 45.52077865600586 16.84457397460938 44.40062713623047 14.96920013427734 43.01020431518555 13.32049942016602 C 40.78230285644531 10.67867469787598 37.81417846679688 8.563949584960938 34.18830490112305 7.035049915313721 C 29.80110359191895 5.18512487411499 24.38307762145996 4.161900043487549 18.08467864990234 3.993774890899658 C 17.52912902832031 3.978949785232544 16.97382926940918 3.97142481803894 16.43422889709473 3.97142481803894 C 6.149478435516357 3.97142481803894 -1.21252167224884 6.63807487487793 -5.447221755981445 11.89732456207275 C -6.790946483612061 13.56614971160889 -7.826696872711182 15.51387500762939 -8.525696754455566 17.68639945983887 C -9.095696449279785 19.4580249786377 -9.445771217346191 21.38482475280762 -9.566196441650391 23.41327476501465 C -9.775121688842773 26.93197441101074 -9.212521553039551 29.56004905700684 -9.207672119140625 29.58237457275391 C -9.172746658325195 29.73932456970215 -9.156871795654297 29.89995002746582 -9.160396575927734 30.06069946289063 C -9.174396514892578 30.69770050048828 -10.58639621734619 94.14814758300781 -12.87364673614502 127.7612762451172 C -13.83797168731689 141.9332733154297 -15.07262134552002 152.7364196777344 -16.54327201843262 159.8706512451172 C -17.46229934692383 164.3289031982422 -18.23345184326172 166.1070404052734 -18.63827323913574 166.791748046875 C -18.75008583068848 167.0469818115234 -19.14904022216797 168.0227508544922 -19.33382225036621 169.3291778564453 C -19.62444686889648 171.3840942382813 -19.27237129211426 173.235595703125 -18.28739738464355 174.8322448730469 C -16.31487083435059 178.0296936035156 -10.69942188262939 181.8639068603516 4.850753307342529 181.9720001220703 C 5.062478542327881 181.9734802246094 5.278578281402588 181.9741973876953 5.492278575897217 181.9742279052734 L 5.493253231048584 181.9742279052734 M 5.487494468688965 183.9742126464844 C 5.273846626281738 183.9742126464844 5.053127288818359 183.9734497070313 4.836878299713135 183.9719543457031 C -29.23067092895508 183.7351531982422 -20.4022216796875 165.8411560058594 -20.4022216796875 165.8411560058594 C -20.4022216796875 165.8411560058594 -17.17959594726563 161.5816040039063 -14.86902141571045 127.6255035400391 C -12.55844688415527 93.66942596435547 -11.15992164611816 30.01677513122559 -11.15992164611816 30.01677513122559 C -11.15992164611816 30.01677513122559 -17.40047645568848 1.971418857574463 16.43422317504883 1.971418857574463 C 16.99047470092773 1.971418857574463 17.55990982055664 1.979042530059814 18.13802909851074 1.9944748878479 C 53.88097763061523 2.948574781417847 49.8400764465332 30.01677513122559 49.8400764465332 30.01677513122559 C 49.8400764465332 30.01677513122559 47.34195327758789 95.77147674560547 45.03137969970703 129.7275695800781 C 42.72080230712891 163.6836547851563 40.5977783203125 165.8411560058594 40.5977783203125 165.8411560058594 C 40.5977783203125 165.8411560058594 38.93163299560547 183.9763031005859 5.487494468688965 183.9742126464844 Z"/>
  </g>
</svg>
