<svg xmlns="http://www.w3.org/2000/svg" width="64.804" height="140.005" viewBox="0 0 64.804 140.005">
  <defs>
    <style>
      .cls-1 {
        fill: #fff;
        stroke-linecap: round;
        stroke-linejoin: round;
      }

      .cls-2, .cls-3 {
        stroke: none;
      }

      .cls-3 {
        fill: #9a9a9a;
      }
    </style>
  </defs>
  <g id="ch20-1" class="cls-1" transform="translate(-4.389 -93.628)">
    <path class="cls-2" d="M 27.99619483947754 232.6331176757813 C 27.7226676940918 232.6331176757813 27.455322265625 232.6309814453125 27.17892265319824 232.6265563964844 C 22.31046676635742 232.5487518310547 18.17179489135742 231.8205718994141 14.87783145904541 230.4622192382813 C 12.15604877471924 229.3397979736328 9.98003101348877 227.7737426757813 8.410248756408691 225.8075408935547 C 6.694267272949219 223.6582183837891 5.697412967681885 221.0635223388672 5.447376251220703 218.0955810546875 C 5.273710250854492 216.0343322753906 5.540435791015625 214.4935760498047 5.589008331298828 214.2371826171875 C 5.847545623779297 213.3974151611328 9.206143379211426 202.4285736083984 12.55790328979492 188.6954498291016 C 15.76737689971924 175.5452880859375 19.62823104858398 157.0902099609375 19.79503059387207 143.8484954833984 C 19.96395874023438 130.4377899169922 16.35146713256836 122.3344497680664 13.2912130355835 117.8980865478516 C 10.51489067077637 113.8733215332031 7.695255279541016 112.0396881103516 6.69797945022583 111.4762191772461 C 6.494249820709229 110.9172821044922 6.085579395294189 109.6521072387695 5.904867172241211 108.0692520141602 C 5.58617639541626 105.27783203125 6.088830947875977 102.854248046875 7.398867130279541 100.8658294677734 C 8.610630989074707 99.02651977539063 10.53174018859863 97.57063293457031 13.10879421234131 96.53861236572266 C 16.27379417419434 95.27114105224609 20.45686721801758 94.62848663330078 25.54183006286621 94.62848663330078 C 31.73666763305664 94.62848663330078 37.43006896972656 95.58268737792969 42.4638671875 97.46459197998047 C 46.47285079956055 98.96334075927734 50.07645034790039 101.0512466430664 53.17455673217773 103.6703033447266 C 58.42385101318359 108.1078872680664 60.39910507202148 112.540885925293 60.41844940185547 112.5851593017578 L 60.53026580810547 112.8410263061523 L 60.74234008789063 112.9904479980469 C 60.83530044555664 113.06298828125 62.80302810668945 114.6392135620117 64.67572021484375 119.0840148925781 C 65.80350494384766 121.7608337402344 66.67499542236328 124.9343414306641 67.26597595214844 128.5164337158203 C 68.00673675537109 133.0065002441406 68.30579376220703 138.1517333984375 68.15484619140625 143.8092346191406 C 67.8056640625 156.8951416015625 64.96699523925781 175.2173767089844 62.64714050292969 188.2835235595703 C 60.16604614257813 202.2577972412109 57.73560333251953 213.3497467041016 57.6442756652832 213.7653198242188 C 57.59530258178711 213.9592590332031 56.37906646728516 218.6263732910156 52.21895980834961 223.218017578125 C 49.74677658081055 225.9466247558594 46.72768402099609 228.1208648681641 43.24554061889648 229.6803283691406 C 38.87050247192383 231.6396484375 33.73988723754883 232.6331176757813 27.99619483947754 232.6331176757813 Z"/>
    <path class="cls-3" d="M 25.54182815551758 95.62847900390625 C 20.59096908569336 95.62847900390625 16.53675079345703 96.24549865722656 13.49182891845703 97.46241760253906 C 11.1077880859375 98.41522216796875 9.341449737548828 99.74134826660156 8.241870880126953 101.4039306640625 C 7.068470001220703 103.1781616210938 6.614128112792969 105.3616790771484 6.891490936279297 107.8938293457031 C 7.028705596923828 109.1465454101563 7.320964813232422 110.1912689208984 7.523471832275391 110.8048095703125 C 8.811527252197266 111.5941009521484 11.50371932983398 113.5456695556641 14.1143684387207 117.3302612304688 C 17.25708770751953 121.8861846923828 20.96718978881836 130.1872863769531 20.79494857788086 143.8610992431641 C 20.66008758544922 154.5675811767578 18.21561050415039 169.7318115234375 13.52938842773438 188.9325408935547 C 10.23079299926758 202.4478607177734 6.923957824707031 213.296630859375 6.561168670654297 214.47802734375 C 6.505882263183594 214.7867584228516 6.294155120849609 216.1345367431641 6.4381103515625 217.9414367675781 C 6.660129547119141 220.728515625 7.581607818603516 223.1588745117188 9.176990509033203 225.1650848388672 C 10.63780975341797 227.0020751953125 12.67863082885742 228.4709777832031 15.24274826049805 229.5309753417969 C 18.42292785644531 230.8456878662109 22.44421005249023 231.5507659912109 27.19488906860352 231.6266784667969 C 27.46620941162109 231.6310272216797 27.72829055786133 231.6331176757813 27.99615097045898 231.6331176757813 C 33.57080841064453 231.6331176757813 38.54316711425781 230.6783142089844 42.77510833740234 228.7951965332031 C 46.12471008300781 227.3047027587891 49.03032684326172 225.2270050048828 51.41128921508789 222.6197814941406 C 55.39205169677734 218.2607269287109 56.59829330444336 213.8144226074219 56.67123031616211 213.5340728759766 C 56.80833435058594 212.9092712402344 59.21297836303711 201.9073486328125 61.66547012329102 188.0922393798828 C 64.98188781738281 169.4104614257813 66.88021087646484 154.0884246826172 67.15518951416016 143.7825622558594 C 67.30219268798828 138.2733612060547 67.01853179931641 133.259521484375 66.31211090087891 128.8803100585938 C 65.74994659423828 125.3955078125 64.92098999023438 122.3061981201172 63.84822845458984 119.6982269287109 C 62.11823272705078 115.4924621582031 60.3073844909668 113.9275512695313 60.14234161376953 113.7910614013672 C 59.83681106567383 113.5795288085938 59.65153503417969 113.3324127197266 59.50378036499023 112.9894104003906 C 59.45034790039063 112.8713226318359 57.46192932128906 108.5478820800781 52.36418914794922 104.2956085205078 C 49.35476684570313 101.7853088378906 45.85876846313477 99.78460693359375 41.97328948974609 98.34909057617188 C 37.08705139160156 96.5438232421875 31.55868911743164 95.62847900390625 25.54182815551758 95.62847900390625 M 25.54182815551758 93.62847900390625 C 53.22674942016602 93.62847900390625 61.33478927612305 112.1847381591797 61.33478927612305 112.1847381591797 C 61.33478927612305 112.1847381591797 69.83358764648438 118.3841247558594 69.15447235107422 143.8359069824219 C 68.47537231445313 169.2877044677734 58.61834716796875 213.9919128417969 58.61834716796875 213.9919128417969 C 58.61834716796875 213.9919128417969 53.92198181152344 233.6331176757813 27.99615478515625 233.6331176757813 C 27.71947860717773 233.6331176757813 27.44446182250977 233.6309204101563 27.16292953491211 233.6264343261719 C 0.50048828125 233.2003784179688 4.618190765380859 213.9919128417969 4.618190765380859 213.9919128417969 C 4.618190765380859 213.9919128417969 18.47451019287109 169.2877044677734 18.79510879516602 143.8359069824219 C 19.11570739746094 118.3841247558594 5.900569915771484 112.1847381591797 5.900569915771484 112.1847381591797 C 5.900569915771484 112.1847381591797 -2.143089294433594 93.62847900390625 25.54182815551758 93.62847900390625 Z"/>
  </g>
</svg>
