<svg xmlns="http://www.w3.org/2000/svg" width="91.396" height="76.057" viewBox="0 0 91.396 76.057">
  <defs>
    <style>
      .cls-1 {
        fill: #fff;
      }

      .cls-2, .cls-3 {
        stroke: none;
      }

      .cls-3 {
        fill: #707070;
      }
    </style>
  </defs>
  <g id="ch20" transform="translate(-376.092 -332.044)">
    <g id="ch20-1" class="cls-1" transform="matrix(-0.999, -0.035, 0.035, -0.999, 418.917, 453.452)">
      <path class="cls-2" d="M 7.550040721893311 119.4232482910156 L 7.549820423126221 119.4232482910156 C 6.525960445404053 119.4232330322266 5.537040710449219 119.2513885498047 4.689940452575684 118.9263000488281 C 0.6217031478881836 117.3646774291992 0.3265150487422943 114.7132415771484 -0.1148193702101707 110.3330078125 L 1.301580548286438 105.3733978271484 L 1.309370517730713 105.3461227416992 L 1.314040541648865 105.3180618286133 C 1.318480610847473 105.2913513183594 1.771000504493713 102.6040344238281 2.880990505218506 98.85774993896484 C 3.902960538864136 95.40855407714844 5.707500457763672 90.32949066162109 8.5006103515625 85.72042846679688 C 9.678970336914063 83.77597045898438 11.06198024749756 82.15010070800781 12.72867012023926 80.74992370605469 L 13.12192058563232 80.41956329345703 L 12.7811107635498 80.03530883789063 C 9.730100631713867 76.59542846679688 8.015970230102539 73.8214111328125 7.68634033203125 71.79029846191406 C 6.592140674591064 65.04808044433594 5.849900722503662 60.36985015869141 5.842530727386475 60.32337951660156 L 5.841170787811279 60.3148307800293 L 5.839520454406738 60.30633163452148 C 5.378400325775146 57.93309020996094 5.463550567626953 55.9864501953125 6.09259033203125 54.52049255371094 C 6.78001070022583 52.91846084594727 8.14215087890625 51.90922927856445 10.14117050170898 51.52082061767578 C 10.739990234375 51.40444946289063 11.381760597229 51.34543991088867 12.04867076873779 51.34543991088867 C 14.15092086791992 51.34543991088867 16.3610897064209 51.92848205566406 18.11248016357422 52.94506072998047 C 19.43710136413574 53.71393585205078 21.10095024108887 55.07529449462891 21.53603744506836 57.20423889160156 C 21.52982902526855 57.93330383300781 21.49310493469238 64.87420654296875 22.28647041320801 68.93682861328125 C 22.42405128479004 69.64122009277344 22.81137084960938 70.52652740478516 23.4705696105957 71.64336395263672 L 24.02408981323242 72.58115386962891 L 24.37456130981445 71.55013275146484 C 26.02805328369141 66.68577575683594 28.8680248260498 56.50312805175781 29.02498245239258 55.93947219848633 C 29.54563522338867 54.60177993774414 30.64382743835449 53.48833465576172 32.20238876342773 52.7183723449707 C 33.64739227294922 52.00452041625977 35.44878005981445 51.61138153076172 37.27473068237305 51.61138153076172 C 38.70209884643555 51.61138153076172 40.07410049438477 51.84843063354492 41.2424201965332 52.29689025878906 C 45.03057861328125 53.75070190429688 44.0338249206543 61.07280731201172 43.93368911743164 61.74384689331055 C 43.62775802612305 62.53158950805664 39.90400314331055 72.13361358642578 37.73468017578125 78.35498046875 C 36.93515014648438 80.64793395996094 35.07283020019531 82.02854919433594 33.35654067993164 83.07666778564453 L 32.83663940429688 83.39415740966797 L 33.24940872192383 83.84217834472656 C 33.8271598815918 84.46926879882813 34.24606323242188 84.91346740722656 34.41609573364258 85.09290313720703 L 38.41471862792969 98.62705230712891 L 39.20878982543945 108.2606811523438 L 39.21105194091797 108.2880401611328 L 39.21628189086914 108.3149871826172 C 40.05767059326172 112.6445617675781 37.21950149536133 116.852180480957 32.88951873779297 117.6945037841797 C 32.36191177368164 117.7970275878906 31.83782005310059 117.8490371704102 31.33189010620117 117.8490524291992 C 29.61717987060547 117.8491134643555 28.06665992736816 117.2543029785156 26.84794044494629 116.1289291381836 C 25.64194297790527 115.0153045654297 24.80858421325684 113.4347534179688 24.43649673461914 111.5562286376953 L 24.2166919708252 105.2837142944336 L 24.04486083984375 90.81575775146484 L 24.04203987121582 90.57833099365234 L 23.85624122619629 90.43045806884766 C 23.8544807434082 90.42906188964844 23.67736053466797 90.28803253173828 23.36699104309082 90.03379058837891 L 23.01439094543457 89.74497222900391 L 22.69425010681152 90.06939697265625 C 21.67378044128418 91.10356140136719 20.80132102966309 92.20690155029297 20.02702140808105 93.44248962402344 C 17.08572006225586 98.13481903076172 15.75116062164307 102.5677871704102 15.14955043792725 105.4603118896484 C 14.50740528106689 108.5477447509766 14.53737449645996 110.5465698242188 14.54080677032471 110.7006912231445 L 14.54440021514893 114.0107421875 L 14.54443073272705 114.0404281616211 L 14.54798030853271 114.0699005126953 C 14.68175029754639 115.1823043823242 14.35132026672363 116.1953582763672 13.56585025787354 117.080940246582 C 12.30382061004639 118.5038375854492 9.942470550537109 119.4232482910156 7.550040721893311 119.4232482910156 Z"/>
      <path class="cls-3" d="M 7.550040721893311 118.9232482910156 C 9.80587100982666 118.9232482910156 12.02039051055908 118.0698699951172 13.19179058074951 116.7491683959961 C 13.87825012207031 115.975212097168 14.16751098632813 115.093864440918 14.05155086517334 114.1296005249023 L 14.04447078704834 114.0706481933594 L 14.04440021514893 114.0112915039063 L 14.04081153869629 110.7057952880859 C 14.03671360015869 110.4980697631836 14.01545333862305 108.4576034545898 14.66003036499023 105.3584899902344 C 15.26997089385986 102.4259338378906 16.62271118164063 97.93205261230469 19.60334014892578 93.17699432373047 C 20.38625144958496 91.92765808105469 21.30644035339355 90.76396179199219 22.33835029602051 89.71820831298828 L 22.9786205291748 89.06935119628906 L 23.6838207244873 89.64698791503906 C 23.99077033996582 89.89842224121094 24.16586112976074 90.03785705566406 24.16760063171387 90.03923797607422 L 24.5391902923584 90.33499145507813 L 24.54483032226563 90.80982208251953 L 24.71659088134766 105.2719268798828 L 24.93477249145508 111.4980621337891 C 25.28981590270996 113.2549514770508 26.06766891479492 114.7278671264648 27.18714141845703 115.761589050293 C 28.31187057495117 116.8001708984375 29.7451000213623 117.3490982055664 31.33189010620117 117.3490524291992 C 31.80588150024414 117.3490371704102 32.29788208007813 117.3001327514648 32.79405212402344 117.2036972045898 C 36.85345077514648 116.4140243530273 39.5142707824707 112.469352722168 38.72546005249023 108.4103775024414 L 38.71498870849609 108.3564834594727 L 38.71047973632813 108.3017578125 L 37.92063140869141 98.71939086914063 L 33.97056198120117 85.34957122802734 C 33.7672233581543 85.13433074951172 33.38835144042969 84.73090362548828 32.88167953491211 84.18096923828125 L 32.0561408996582 83.28494262695313 L 33.09593963623047 82.64994812011719 C 35.45278167724609 81.21066284179688 36.65993118286133 79.91863250732422 37.2625617980957 78.19035339355469 C 39.39461517333984 72.07585906982422 43.02458953857422 62.70426559448242 43.44729614257813 61.61515426635742 C 43.50846099853516 61.18989944458008 43.73465728759766 59.41885375976563 43.56489181518555 57.53524017333984 C 43.45598983764648 56.32696151733398 43.20864868164063 55.3143424987793 42.82976150512695 54.52550888061523 C 42.40027236938477 53.63135147094727 41.82246017456055 53.05506134033203 41.06324005126953 52.76367950439453 C 39.95151901245117 52.33694076538086 38.6414794921875 52.11138153076172 37.27473068237305 52.11138153076172 C 35.52408218383789 52.11138153076172 33.80133056640625 52.48614883422852 32.42385101318359 53.16664886474609 C 31.42032051086426 53.66241073608398 30.10306358337402 54.57234573364258 29.49977874755859 56.09827041625977 C 29.28045082092285 56.88539123535156 26.48565483093262 66.89316558837891 24.84796142578125 71.71105194091797 L 24.14702033996582 73.77309417724609 L 23.03997993469238 71.89751434326172 C 22.35140037536621 70.73088836669922 21.94441032409668 69.79380035400391 21.79574012756348 69.03266143798828 C 21.00999069213867 65.009033203125 21.02864074707031 58.22764205932617 21.03563690185547 57.2542610168457 C 20.62138748168945 55.33501052856445 19.08667755126953 54.08865737915039 17.86148071289063 53.37749099731445 C 16.18406105041504 52.40385055541992 14.06538009643555 51.84543991088867 12.04867076873779 51.84543991088867 C 11.41370010375977 51.84543991088867 10.80402088165283 51.90135955810547 10.23653030395508 52.01164245605469 C 8.384160995483398 52.37155151367188 7.17896032333374 53.2567024230957 6.552070617675781 54.7176513671875 C 5.963300704956055 56.08975982666016 5.888700485229492 57.93798065185547 6.330340385437012 60.21097183227539 L 6.333640575408936 60.22796249389648 L 6.336360454559326 60.24505996704102 C 6.343720436096191 60.29151916503906 7.085830688476563 64.96886444091797 8.179890632629395 71.71021270751953 C 8.395910263061523 73.04129028320313 9.434420585632324 75.50856018066406 13.15518093109131 79.70352935791016 L 13.83679008483887 80.47202301025391 L 13.05028057098389 81.13275909423828 C 11.4261302947998 82.49720001220703 10.07779026031494 84.08261108398438 8.928220748901367 85.97956848144531 C 6.165830612182617 90.53791809082031 4.378210544586182 95.56752777099609 3.365020513534546 98.98416900634766 C 2.261850595474243 102.7042388916016 1.811670541763306 105.3736114501953 1.807290554046631 105.39990234375 L 1.797980546951294 105.4560089111328 L 1.782360553741455 105.5107116699219 L 0.3922744989395142 110.3781814575195 C 0.8230746388435364 114.6483383178711 1.114402532577515 117.0182342529297 4.869090557098389 118.4595031738281 C 5.659600734710693 118.7628707885742 6.586580753326416 118.9232330322266 7.549790382385254 118.9232482910156 L 7.550040721893311 118.9232482910156 M 7.550044059753418 119.9232482910156 C 7.549807071685791 119.9232482910156 7.550027370452881 119.9232482910156 7.549790382385254 119.9232482910156 C 6.493160724639893 119.9232330322266 5.448720455169678 119.7530517578125 4.510800361633301 119.3931121826172 C 0.1287005543708801 117.7110137939453 -0.1736994385719299 114.7383041381836 -0.621899425983429 110.2878036499023 L 0.8208005428314209 105.2360992431641 C 0.8208005428314209 105.2360992431641 2.606400489807129 94.48200225830078 8.073000907897949 85.4613037109375 C 9.396610260009766 83.27715301513672 10.8866605758667 81.64436340332031 12.40705013275146 80.36708831787109 C 9.762870788574219 77.38590240478516 7.58603048324585 74.29343414306641 7.192800521850586 71.87039947509766 C 6.085800647735596 65.04930114746094 5.348700523376465 60.40169906616211 5.348700523376465 60.40169906616211 C 4.453200340270996 55.79280090332031 5.436900615692139 51.92549896240234 10.04580020904541 51.02999877929688 C 10.68395709991455 50.90598297119141 11.35830307006836 50.84544372558594 12.04867172241211 50.84544372558594 C 16.34331703186035 50.84544372558594 21.26424217224121 53.18735504150391 22.03650093078613 57.15719985961914 C 22.03650093078613 57.15719985961914 21.95730018615723 64.64250183105469 22.77720069885254 68.84100341796875 C 22.90966033935547 69.51917266845703 23.31500053405762 70.3961181640625 23.90116119384766 71.38921356201172 C 25.60851097106934 66.36641693115234 28.54980087280273 55.78200149536133 28.54980087280273 55.78200149536133 C 29.75419044494629 52.64440155029297 33.5867805480957 51.11138153076172 37.27473449707031 51.11138153076172 C 38.73752975463867 51.11138153076172 40.17709732055664 51.35239028930664 41.42160034179688 51.83010101318359 C 45.80459976196289 53.51219940185547 44.41950225830078 61.87409973144531 44.41950225830078 61.87409973144531 C 44.41950225830078 61.87409973144531 40.48200225830078 71.99459838867188 38.20680236816406 78.51959991455078 C 37.42053985595703 80.77452087402344 35.72751235961914 82.21460723876953 33.61713027954102 83.50338745117188 C 34.38333892822266 84.33502960205078 34.86149978637695 84.83580017089844 34.86149978637695 84.83580017089844 L 38.9088020324707 98.53471374511719 L 39.70709991455078 108.219612121582 C 40.60260009765625 112.8276138305664 37.59300231933594 117.2889022827148 32.98500061035156 118.185302734375 C 32.41687393188477 118.2957077026367 31.86469841003418 118.3490371704102 31.3319091796875 118.3490524291992 C 27.54329872131348 118.3491668701172 24.72329330444336 115.6533737182617 23.93819999694824 111.6135025024414 L 23.71680068969727 105.2955017089844 L 23.54490089416504 90.82170104980469 C 23.54490089416504 90.82170104980469 23.36760139465332 90.68061828613281 23.05014991760254 90.42059326171875 C 22.12120056152344 91.36199951171875 21.24365997314453 92.44264221191406 20.4507007598877 93.70800018310547 C 14.83290100097656 102.6702041625977 15.04080009460449 110.6946029663086 15.04080009460449 110.6946029663086 L 15.04440021514893 114.0102005004883 C 15.4794340133667 117.6276779174805 11.43095779418945 119.9232482910156 7.550044059753418 119.9232482910156 Z"/>
    </g>
    <g id="ch20-2" class="cls-1" transform="matrix(0.998, 0.07, -0.07, 0.998, 424.219, 329.234)">
      <path class="cls-2" d="M 7.947858810424805 75.50236511230469 L 7.947699069976807 75.50236511230469 C 7.28062915802002 75.50234985351563 6.638749122619629 75.44334411621094 6.039868831634521 75.32698059082031 C 1.828109502792358 74.50849151611328 1.850545883178711 72.05193328857422 1.894453287124634 69.20330810546875 C 1.990909337997437 68.52494049072266 3.602839946746826 57.20417022705078 4.669528961181641 50.63676071166992 C 5.026548862457275 48.43692016601563 6.995748996734619 45.3808708190918 10.52244853973389 41.55341339111328 L 10.88989925384521 41.15463256835938 L 10.46267890930176 40.82067108154297 C 9.064656257629395 39.72784423828125 7.990225791931152 38.92500305175781 7.62727689743042 38.65560150146484 L 2.580728054046631 22.37707138061523 L 1.165881037712097 17.42289924621582 C 1.607245206832886 13.04317188262939 1.902462005615234 10.39204692840576 5.97075891494751 8.829561233520508 C 6.817429065704346 8.504561424255371 7.805998802185059 8.332761764526367 8.82952880859375 8.332761764526367 C 11.22234916687012 8.332761764526367 13.58411884307861 9.252361297607422 14.84641933441162 10.67555141448975 C 15.63197898864746 11.56125164031982 15.96245861053467 12.57441139221191 15.82867908477783 13.68690204620361 L 15.82512855529785 13.71637153625488 L 15.82509899139404 13.74606132507324 L 15.82149887084961 17.06076240539551 L 15.82147884368896 17.0784912109375 L 15.82271862030029 17.09619140625 L 16.80461883544922 31.13439178466797 L 16.82374954223633 31.40795135498047 L 17.06473922729492 31.53886222839355 C 17.07345962524414 31.54360198974609 17.95294952392578 32.02207183837891 19.31411933898926 32.82188034057617 L 19.61679840087891 32.99973297119141 L 19.88686943054199 32.77543258666992 C 20.48048973083496 32.28242111206055 20.83589935302734 31.99935150146484 20.83942985534668 31.99655151367188 L 20.96657943725586 31.89537239074707 L 21.00995826721191 31.73876190185547 L 26.53145980834961 11.80286121368408 L 26.53667831420898 11.78400135040283 L 26.54041862487793 11.7647819519043 C 26.90867805480957 9.869791984558105 27.74500846862793 8.275581359863281 28.95896911621094 7.154511451721191 C 30.17748832702637 6.029241561889648 31.72770881652832 5.434451580047607 33.4420280456543 5.434451580047607 C 33.94824981689453 5.434451580047607 34.47272872924805 5.486551761627197 35.00091934204102 5.589301586151123 C 37.09864044189453 5.99696159362793 38.91183853149414 7.197011470794678 40.10662841796875 8.968411445617676 C 41.29112243652344 10.72457790374756 41.72726058959961 12.83390998840332 41.33723068237305 14.91412734985352 L 31.42258834838867 37.30953216552734 C 31.23110008239746 37.51137924194336 30.59942626953125 38.18032073974609 29.72922897338867 39.13363265991211 L 29.36809921264648 39.52925109863281 L 29.7876091003418 39.86231231689453 C 33.38274002075195 42.71660232543945 35.54870986938477 45.14794158935547 36.22536849975586 47.08880233764648 C 38.39533233642578 53.31198501586914 42.67008209228516 63.61957931518555 43.02644729614258 64.47701263427734 C 43.13113403320313 65.18228149414063 44.11210632324219 72.46837615966797 40.3343505859375 73.91820526123047 C 39.16610717773438 74.36663055419922 37.79409790039063 74.60368347167969 36.36661911010742 74.60372161865234 C 34.5405387878418 74.60377502441406 32.73912811279297 74.210693359375 31.29421806335449 73.49687194824219 C 29.73345947265625 72.72582244873047 28.63438606262207 71.61027526855469 28.11462020874023 70.26982116699219 C 27.94304847717285 69.70950317382813 23.84346008300781 56.33293533325195 22.34293937683105 52.43353271484375 C 22.15139961242676 51.93617248535156 21.81005859375 51.37018203735352 21.29934883117676 50.70310974121094 L 20.84942817687988 50.11545181274414 L 20.47216987609863 50.75219345092773 C 19.8018684387207 51.8835334777832 19.40852928161621 52.77913284301758 19.26966857910156 53.49016189575195 C 18.46558952331543 57.60768127441406 17.50678825378418 68.83445739746094 17.44020080566406 69.62097930908203 C 17.01226997375488 71.76268768310547 15.34133243560791 73.13107299804688 14.01202869415283 73.90264892578125 C 12.26053905487061 74.91928863525391 10.0502290725708 75.50236511230469 7.947858810424805 75.50236511230469 Z"/>
      <path class="cls-3" d="M 7.947858810424805 75.00236511230469 C 9.964698791503906 75.00236511230469 12.08351898193359 74.44392395019531 13.7610387802124 73.47022247314453 C 14.99545955657959 72.75370788574219 16.54411888122559 71.49366760253906 16.94443130493164 69.5499267578125 C 17.02929878234863 68.55026245117188 17.97844123840332 57.49348068237305 18.77893829345703 53.39433288574219 C 18.92893981933594 52.62627029418945 19.34208869934082 51.67864990234375 20.0420093536377 50.49732971191406 L 20.79652976989746 49.22384262084961 L 21.69635963439941 50.39916229248047 C 22.23648834228516 51.10467147827148 22.60059928894043 51.71129989624023 22.80958938598633 52.25397109985352 C 24.31739616394043 56.17233276367188 28.29985618591309 69.16651916503906 28.58724021911621 70.10557556152344 C 29.18853759765625 71.63847351074219 30.50974655151367 72.55164337158203 31.51567840576172 73.04859161376953 C 32.8930778503418 73.72904968261719 34.61582946777344 74.10377502441406 36.36660003662109 74.10372161865234 C 37.73346710205078 74.10368347167969 39.04352951049805 73.87812042236328 40.15519714355469 73.45139312744141 C 40.91436004638672 73.16004180908203 41.49216842651367 72.58374786376953 41.92165756225586 71.68959045410156 C 42.3005485534668 70.90076446533203 42.54788970947266 69.88813781738281 42.65678787231445 68.67986297607422 C 42.82513427734375 66.81200408935547 42.60411834716797 65.05484771728516 42.54084014892578 64.61138153076172 C 42.04920196533203 63.42731094360352 37.88732528686523 53.37369918823242 35.75323867797852 47.25340270996094 C 35.30979919433594 45.98149108886719 33.86091995239258 43.73467254638672 29.47671890258789 40.25390243530273 L 28.6376895904541 39.58777236938477 L 29.35993957519531 38.79654312133789 C 30.16696166992188 37.91244125366211 30.75756454467773 37.28461456298828 31.0003719329834 37.02811050415039 L 40.85610961914063 14.76575469970703 C 41.20341110229492 12.83391571044922 40.79182815551758 10.87847328186035 39.69210052490234 9.248002052307129 C 38.5720100402832 7.587341785430908 36.87213897705078 6.462301731109619 34.90543746948242 6.080101490020752 C 34.40863800048828 5.983451366424561 33.91627883911133 5.934451580047607 33.4420280456543 5.934451580047607 C 31.85563850402832 5.934451580047607 30.4227294921875 6.483361721038818 29.29818916320801 7.521841526031494 C 28.1629581451416 8.570201873779297 27.37905883789063 10.07037162780762 27.0312385559082 11.8601713180542 L 27.02376937866211 11.89859199523926 L 27.01331901550293 11.93631172180176 L 21.49181938171387 31.87221145629883 L 21.40503883361816 32.18542098999023 L 21.1507682800293 32.38778305053711 C 21.14727973937988 32.39056015014648 20.79496955871582 32.67119216918945 20.20632934570313 33.16007232666016 L 19.66617965698242 33.60868072509766 L 19.0608081817627 33.25297164916992 C 17.70833969116211 32.45827102661133 16.83471870422363 31.9829216003418 16.8260498046875 31.97821235656738 L 16.3440990447998 31.71636199951172 L 16.30583953857422 31.16927146911621 L 15.32393932342529 17.13107109069824 L 15.32145881652832 17.0956916809082 L 15.32149887084961 17.06021118164063 L 15.32509899139404 13.74551200866699 L 15.32516860961914 13.6861515045166 L 15.33224868774414 13.62720203399658 C 15.44821929931641 12.66285133361816 15.15890884399414 11.78140163421631 14.47234916687012 11.00733184814453 C 13.30069923400879 9.686331748962402 11.08575916290283 8.832761764526367 8.82952880859375 8.832761764526367 C 7.866619110107422 8.832761764526367 6.940009117126465 8.993082046508789 6.150028705596924 9.296321868896484 C 2.395163536071777 10.73842334747314 2.103816270828247 13.10804557800293 1.672977209091187 17.37773704528809 L 3.060074329376221 22.2347412109375 L 8.056554794311523 38.35176467895508 C 8.510759353637695 38.69028472900391 9.510047912597656 39.44136810302734 10.77060890197754 40.42675018310547 L 11.62504863739014 41.09466171264648 L 10.89015865325928 41.8922233581543 C 6.581469058990479 46.56835174560547 5.397549152374268 49.27207183837891 5.163058757781982 50.71692276000977 C 4.110775947570801 57.19560241699219 2.526977300643921 68.30719757080078 2.393909692764282 69.24246215820313 C 2.374248266220093 70.52437591552734 2.361643552780151 71.84297180175781 2.827208995819092 72.81761169433594 C 3.138178825378418 73.46860504150391 3.819418907165527 74.3861083984375 6.135239124298096 74.83615875244141 C 6.702768802642822 74.94643402099609 7.312569141387939 75.00234985351563 7.947749137878418 75.00236511230469 L 7.947858810424805 75.00236511230469 M 7.947854042053223 76.00236511230469 C 7.947591781616211 76.00236511230469 7.947951316833496 76.00236511230469 7.947689056396484 76.00236511230469 C 7.257228851318359 76.00234985351563 6.582778930664063 75.94181823730469 5.944499015808105 75.81780242919922 C 1.336498975753784 74.92230224609375 1.349998950958252 72.08010101318359 1.394998908042908 69.16410064697266 C 1.394998908042908 69.16410064697266 3.068099021911621 57.37770080566406 4.175998687744141 50.55660247802734 C 4.606528759002686 47.90377044677734 7.175768852233887 44.4476203918457 10.15474891662598 41.21460342407227 C 8.416479110717773 39.85580062866211 7.198198795318604 38.96010208129883 7.198198795318604 38.96010208129883 L 2.10149884223938 22.51980209350586 L 0.6587989330291748 17.46810150146484 C 1.106998920440674 13.01850128173828 1.409398913383484 10.04580116271973 5.791499137878418 8.362801551818848 C 6.728953838348389 8.002952575683594 7.773262023925781 7.832761287689209 8.829526901245117 7.832761287689209 C 12.71073436737061 7.832761287689209 16.76018905639648 10.12862777709961 16.32509803771973 13.74660205841064 L 16.32149887084961 17.06130218505859 L 17.30339813232422 31.09950065612793 C 17.30339813232422 31.09950065612793 18.18168830871582 31.57655143737793 19.56741905212402 32.39079284667969 C 20.17293930053711 31.88789176940918 20.52809906005859 31.60530090332031 20.52809906005859 31.60530090332031 L 26.04959869384766 11.66940116882324 C 26.8345832824707 7.630089282989502 29.65421676635742 4.93445348739624 33.4420280456543 4.93445348739624 C 33.97530746459961 4.93445348739624 34.5277099609375 4.987874031066895 35.09639739990234 5.098501682281494 C 39.70439910888672 5.994001388549805 42.7140007019043 10.45530128479004 41.81760025024414 15.06420135498047 L 31.84469985961914 37.59120178222656 C 31.84469985961914 37.59120178222656 31.15245819091797 38.31611251831055 30.09850883483887 39.47072219848633 C 33.21461868286133 41.9447021484375 35.89040756225586 44.60922241210938 36.6974983215332 46.92420196533203 C 38.97269821166992 53.44920349121094 43.51139831542969 64.34100341796875 43.51139831542969 64.34100341796875 C 43.51139831542969 64.34100341796875 44.89649963378906 72.70290374755859 40.51350021362305 74.38500213623047 C 39.26926422119141 74.86260986328125 37.8291015625 75.10368347167969 36.36663055419922 75.10372161865234 C 32.67838668823242 75.10382843017578 28.84619140625 73.57096862792969 27.64169883728027 70.43311309814453 C 27.64169883728027 70.43311309814453 23.41259956359863 56.60550308227539 21.87629890441895 52.61310195922852 C 21.69681930541992 52.14705276489258 21.35881805419922 51.60330200195313 20.9023380279541 51.00706100463867 C 20.30648803710938 52.01274108886719 19.89421844482422 52.90077209472656 19.76039886474609 53.58600234985352 C 18.94049835205078 57.78450012207031 17.93609809875488 69.69060516357422 17.93609809875488 69.69060516357422 C 17.16388511657715 73.66020965576172 12.24288845062256 76.00236511230469 7.947854042053223 76.00236511230469 Z"/>
    </g>
  </g>
</svg>
