<svg xmlns="http://www.w3.org/2000/svg" width="73.856" height="126.266" viewBox="0 0 73.856 126.266">
  <defs>
    <style>
      .cls-1 {
        fill: #fff;
        stroke-linecap: round;
        stroke-linejoin: round;
      }

      .cls-2, .cls-3 {
        stroke: none;
      }

      .cls-3 {
        fill: #9a9a9a;
      }
    </style>
  </defs>
  <g id="ch21-1" class="cls-1" transform="translate(-3.009 -152.802)">
    <path class="cls-2" d="M 25.18889045715332 278.0675964355469 C 20.68145751953125 278.0675964355469 16.8023738861084 277.4635009765625 13.65937328338623 276.2721252441406 C 11.08287334442139 275.2954406738281 8.975339889526367 273.9144592285156 7.395339965820313 272.1675109863281 C 3.763594388961792 268.1519470214844 3.987050294876099 263.4080505371094 4.024392604827881 262.8830871582031 L 23.69502258300781 171.8896484375 L 23.7128734588623 171.8071136474609 L 23.71662330627441 171.7227478027344 C 23.71707344055176 171.7138671875 23.77790641784668 170.5767059326172 24.27169036865234 168.9068603515625 C 24.72418975830078 167.3766326904297 25.64475631713867 165.069091796875 27.46067428588867 162.7660827636719 C 29.50053977966309 160.1790466308594 32.24003982543945 158.1150665283203 35.60307312011719 156.6315002441406 C 39.85905838012695 154.7540130615234 45.133056640625 153.8020477294922 51.27857208251953 153.8020477294922 C 51.49595642089844 153.8020477294922 51.7083740234375 153.8031768798828 51.92795562744141 153.8055267333984 C 57.41315841674805 153.8638916015625 62.05834197998047 154.6273803710938 65.73447418212891 156.0747680664063 C 68.73388671875 157.2556915283203 71.11372375488281 158.9017791748047 72.80789184570313 160.96728515625 C 74.45722198486328 162.9781494140625 75.45229339599609 165.3505859375 75.76544189453125 168.0186920166016 C 75.99302673339844 169.9576721191406 75.75820922851563 171.3623657226563 75.73702239990234 171.4824676513672 L 56.05595779418945 262.524169921875 L 56.05080795288086 262.5480041503906 L 56.04680633544922 262.5720825195313 C 56.04133987426758 262.6033020019531 55.38887405395508 266.14208984375 51.65013885498047 269.7813110351563 C 49.44343948364258 271.9292602539063 46.60680770874023 273.6954345703125 43.21903991699219 275.0307922363281 C 38.94387435913086 276.7158813476563 33.77760696411133 277.7152709960938 27.86375617980957 278.0011901855469 C 26.95239067077637 278.0452575683594 26.05244064331055 278.0675964355469 25.18889045715332 278.0675964355469 Z"/>
    <path class="cls-3" d="M 25.18886947631836 277.0675964355469 C 26.03630447387695 277.0675964355469 26.92001533508301 277.045654296875 27.81545066833496 277.0023498535156 C 33.56637954711914 276.7243347167969 38.58684921264648 275.7631225585938 42.7374153137207 274.1454772949219 C 45.99419784545898 272.8761596679688 48.72072219848633 271.2029418945313 50.84123229980469 269.1722717285156 C 54.32834625244141 265.8329162597656 55.02495574951172 262.5824279785156 55.06158828735352 262.3998413085938 C 55.06708908081055 262.3637084960938 55.06991577148438 262.3527221679688 55.07854080200195 262.3128662109375 L 74.75516510009766 171.2917022705078 C 74.78173828125 171.1321258544922 74.98177337646484 169.8301086425781 74.76251983642578 168.0542907714844 C 74.45950317382813 165.5999755859375 73.53466796875 163.4203338623047 72.01368713378906 161.5758972167969 C 70.42578125 159.6502990722656 68.18173980712891 158.1092987060547 65.34390258789063 156.9956970214844 C 61.78537750244141 155.5993041992188 57.26803207397461 154.8624114990234 51.91728591918945 154.8054656982422 C 51.70185089111328 154.8031616210938 51.49292373657227 154.8020477294922 51.27859497070313 154.8020477294922 C 45.31010437011719 154.8020477294922 40.19755935668945 155.7141265869141 36.08294296264648 157.512939453125 C 32.87441253662109 158.9156341552734 30.26094245910645 160.8620452880859 28.31512260437012 163.2980804443359 C 25.03536033630371 167.4041137695313 24.72615814208984 171.6071929931641 24.71546936035156 171.7722320556641 C 24.71114158630371 171.8888854980469 24.69723701477051 171.9862670898438 24.67245101928711 172.1009368896484 L 5.017801284790039 263.0203552246094 C 5.0028395652771 263.3121643066406 4.977482318878174 264.3313903808594 5.240996360778809 265.6705627441406 C 5.678923606872559 267.8960266113281 6.653268814086914 269.856201171875 8.136996269226074 271.4967041015625 C 9.609668731689453 273.125 11.58692359924316 274.4170837402344 14.01381397247314 275.3370361328125 C 17.04315948486328 276.4853515625 20.8029956817627 277.0675964355469 25.18886947631836 277.0675964355469 M 25.18887519836426 279.0675964355469 C 1.389822840690613 279.0675964355469 3.033196210861206 262.7354736328125 3.033196210861206 262.7354736328125 L 22.71761512756348 171.6783447265625 C 22.71761512756348 171.6783447265625 23.55651664733887 152.8020477294922 51.27859115600586 152.8020477294922 C 51.49859619140625 152.8020477294922 51.7152099609375 152.8031921386719 51.93861389160156 152.8055725097656 C 80.31250762939453 153.1075439453125 76.71778106689453 171.6783447265625 76.71778106689453 171.6783447265625 L 57.03337860107422 262.7354736328125 C 57.03337860107422 262.7354736328125 54.55274200439453 277.7120361328125 27.91203308105469 279.0000305175781 C 26.97056770324707 279.0455627441406 26.06072998046875 279.0675964355469 25.18887519836426 279.0675964355469 Z"/>
  </g>
</svg>
