<svg xmlns="http://www.w3.org/2000/svg" width="90.582" height="62.302" viewBox="0 0 90.582 62.302">
  <defs>
    <style>
      .cls-1 {
        fill: #fff;
      }

      .cls-2, .cls-3 {
        stroke: none;
      }

      .cls-3 {
        fill: #707070;
      }
    </style>
  </defs>
  <g id="ch21" transform="translate(-376.092 -344.902)">
    <g id="ch21-1" class="cls-1" transform="matrix(-0.999, -0.035, 0.035, -0.999, 418.917, 455.452)">
      <path class="cls-2" d="M 31.34050941467285 108.5583953857422 C 29.62578010559082 108.5585250854492 28.07531929016113 107.9638824462891 26.85674095153809 106.838752746582 C 25.6508617401123 105.7253494262695 24.81757354736328 104.1449203491211 24.44549751281738 102.2664260864258 L 24.22549057006836 95.98728942871094 L 24.05213928222656 91.02023315429688 L 24.02042961120605 90.11174011230469 L 23.27013969421387 90.62499237060547 C 21.54170036315918 91.80734252929688 20.54414939880371 92.67219543457031 20.0356502532959 93.42919921875 C 17.71956062316895 96.87622833251953 17.25884056091309 102.7857513427734 17.24036026000977 103.0356216430664 L 17.23678016662598 103.0840148925781 L 17.24258041381836 103.132194519043 C 17.37632942199707 104.2446746826172 17.04587936401367 105.2578125 16.26037979125977 106.1434783935547 C 14.99822998046875 107.5665893554688 12.63661003112793 108.4862594604492 10.24390029907227 108.486442565918 C 9.220430374145508 108.4865188598633 8.231690406799316 108.3146896362305 7.384580135345459 107.9895248413086 C 3.314962863922119 106.4273529052734 3.020263433456421 103.7761077880859 2.579767942428589 99.39625549316406 L 3.996180057525635 94.43659973144531 L 4.221250057220459 93.64849090576172 L 4.113537311553955 93.66999816894531 C 4.43974494934082 92.83572387695313 5.442732810974121 90.76638793945313 8.5006103515625 85.72042846679688 C 9.678970336914063 83.77597045898438 11.06198024749756 82.15010070800781 12.72867012023926 80.74992370605469 L 13.12192058563232 80.41956329345703 L 12.78110980987549 80.03530883789063 C 9.730110168457031 76.59544372558594 8.015979766845703 73.82141876220703 7.68634033203125 71.79029846191406 C 6.592140197753906 65.04808044433594 5.849900245666504 60.36985015869141 5.842530250549316 60.32338333129883 L 5.841170310974121 60.3148307800293 L 5.83951997756958 60.30633163452148 C 5.378400325775146 57.93309020996094 5.463550090789795 55.9864501953125 6.09259033203125 54.52049255371094 C 6.780010223388672 52.91846084594727 8.142149925231934 51.90923309326172 10.14117050170898 51.52082061767578 C 10.739990234375 51.40445327758789 11.381760597229 51.34543991088867 12.04866981506348 51.34543991088867 C 14.15091991424561 51.34543991088867 16.3610897064209 51.92848205566406 18.11248016357422 52.94506072998047 C 19.43710136413574 53.71393585205078 21.10094833374023 55.07529449462891 21.53603744506836 57.20423889160156 C 21.52982902526855 57.93330383300781 21.49310493469238 64.87420654296875 22.28647041320801 68.93682861328125 C 22.42404937744141 69.64122009277344 22.81138038635254 70.52653503417969 23.4705696105957 71.64336395263672 L 24.02408981323242 72.58115386962891 L 24.37455940246582 71.55013275146484 C 26.02805328369141 66.68577575683594 28.86802291870117 56.50313186645508 29.02498054504395 55.93947601318359 C 29.54563522338867 54.60177993774414 30.64382743835449 53.48833465576172 32.20238876342773 52.7183723449707 C 33.64738845825195 52.00452041625977 35.44878005981445 51.61138153076172 37.27473068237305 51.61138153076172 C 38.70209884643555 51.61138153076172 40.07410049438477 51.84843063354492 41.2424201965332 52.29689025878906 C 45.03057861328125 53.75070190429688 44.03382110595703 61.07280731201172 43.93368911743164 61.74384689331055 C 43.62775802612305 62.53158950805664 39.90400314331055 72.13361358642578 37.73468017578125 78.35498046875 C 37.16934967041016 79.97627258300781 35.83380889892578 81.66199493408203 33.65174102783203 83.50848388671875 L 33.2522087097168 83.84656524658203 L 33.60818099975586 84.23023223876953 C 34.13093566894531 84.79367828369141 34.46176528930664 85.14112091064453 34.49681091308594 85.17787933349609 L 38.4335823059082 89.45618438720703 L 39.21688842773438 98.96993255615234 L 39.21913909912109 98.99736022949219 L 39.22439956665039 99.02438354492188 C 39.63243103027344 101.1218795776367 39.19908905029297 103.2527084350586 38.00421905517578 105.0243606567383 C 36.80936050415039 106.7959899902344 34.99615097045898 107.9961624145508 32.89862060546875 108.4037780761719 C 32.37092971801758 108.5063323974609 31.84671020507813 108.558349609375 31.34050941467285 108.5583953857422 Z"/>
      <path class="cls-3" d="M 31.34046936035156 108.0583953857422 C 31.81473922729492 108.058349609375 32.30688095092773 108.0094299316406 32.80323028564453 107.9129638671875 C 34.76964950561523 107.5308227539063 36.46950912475586 106.4056701660156 37.58969116210938 104.7447814941406 C 38.70986938476563 103.0838851928711 39.11611938476563 101.0862426757813 38.73360061645508 99.11985015869141 L 38.72309112548828 99.06581878662109 L 38.71857070922852 99.01096343994141 L 37.9493522644043 89.66836547851563 L 34.13182830810547 85.51966094970703 C 34.08168792724609 85.46705627441406 33.75960540771484 85.12857818603516 33.24164199829102 84.5703125 L 32.52970123291016 83.80296325683594 L 33.32875061035156 83.12679290771484 C 35.44071197509766 81.33964538574219 36.72747039794922 79.72492218017578 37.2625617980957 78.19035339355469 C 39.39461517333984 72.07585906982422 43.02458953857422 62.70426559448242 43.44729614257813 61.61515426635742 C 43.50846099853516 61.18989944458008 43.73465728759766 59.41885375976563 43.56489181518555 57.53524017333984 C 43.45598983764648 56.32696151733398 43.20864868164063 55.3143424987793 42.82976150512695 54.5255126953125 C 42.4002685546875 53.63135147094727 41.82246017456055 53.05506134033203 41.06324005126953 52.7636833190918 C 39.95151901245117 52.33694076538086 38.6414794921875 52.11138153076172 37.27473068237305 52.11138153076172 C 35.52407836914063 52.11138153076172 33.80133056640625 52.48615264892578 32.42385101318359 53.16665267944336 C 31.42032051086426 53.66241073608398 30.10306358337402 54.57234573364258 29.49977874755859 56.09827423095703 C 29.28045082092285 56.88539123535156 26.48565292358398 66.89316558837891 24.84795951843262 71.71105194091797 L 24.14702033996582 73.77309417724609 L 23.03997993469238 71.89751434326172 C 22.35140037536621 70.73090362548828 21.94441032409668 69.79380798339844 21.79574012756348 69.03266143798828 C 21.00999069213867 65.00904083251953 21.02864074707031 58.22764205932617 21.03563499450684 57.2542610168457 C 20.62138557434082 55.33501052856445 19.0866756439209 54.08866119384766 17.86148071289063 53.37749099731445 C 16.18406105041504 52.40385055541992 14.06538009643555 51.84543991088867 12.04866981506348 51.84543991088867 C 11.41370010375977 51.84543991088867 10.80401992797852 51.90136337280273 10.23653030395508 52.01164245605469 C 8.384160041809082 52.37155151367188 7.17896032333374 53.2567024230957 6.552070140838623 54.7176513671875 C 5.963300228118896 56.08975982666016 5.888700008392334 57.93798065185547 6.330339908599854 60.21097183227539 L 6.333640098571777 60.22796249389648 L 6.336359977722168 60.24505996704102 C 6.343719959259033 60.29152297973633 7.085830211639404 64.96886444091797 8.179889678955078 71.710205078125 C 8.395910263061523 73.04129791259766 9.434439659118652 75.50857543945313 13.15517997741699 79.70352935791016 L 13.83679008483887 80.47202301025391 L 13.05028057098389 81.13275909423828 C 11.4261302947998 82.49720001220703 10.07779026031494 84.08261108398438 8.928219795227051 85.97956848144531 C 6.498178005218506 89.989501953125 5.387264251708984 92.083984375 4.879536151885986 93.16425323486328 L 4.476960182189941 94.57391357421875 L 3.086849927902222 99.44146728515625 C 3.516833305358887 103.7111968994141 3.807731866836548 106.0809478759766 7.563760280609131 107.5227279663086 C 8.354260444641113 107.8261642456055 9.28102970123291 107.9865112304688 10.24386978149414 107.986442565918 C 12.49997997283936 107.9862747192383 14.71477031707764 107.1326446533203 15.8863000869751 105.8117218017578 C 16.57279968261719 105.0376739501953 16.86210060119629 104.1562347412109 16.74615097045898 103.1918716430664 L 16.73456954956055 103.0955352783203 L 16.74172019958496 102.9987487792969 C 16.76060104370117 102.7434844970703 17.23152923583984 96.70603942871094 19.6205997467041 93.150390625 C 20.17349052429199 92.32730865478516 21.18050956726074 91.44863128662109 22.98784065246582 90.21231079101563 L 24.4884204864502 89.18582153320313 L 24.55183029174805 91.00279235839844 L 24.72518920898438 95.96977996826172 L 24.94377326965332 102.2082672119141 C 25.29880523681641 103.9651184082031 26.07658767700195 105.4378890991211 27.19593048095703 106.4713897705078 C 28.32052040100098 107.5097427368164 29.7536792755127 108.0585098266602 31.34046936035156 108.0583953857422 M 31.34054946899414 109.0583953857422 C 27.55194091796875 109.0586853027344 24.73229026794434 106.3635787963867 23.94720077514648 102.3236999511719 L 23.72579956054688 96.00479888916016 L 23.55244064331055 91.03767395019531 C 22.1071891784668 92.02631378173828 20.98067092895508 92.91904449462891 20.4507007598877 93.70800018310547 C 18.18180084228516 97.08480072021484 17.73900032043457 103.0725021362305 17.73900032043457 103.0725021362305 C 18.17402267456055 106.6906204223633 14.12459373474121 108.9861450195313 10.24393653869629 108.986442565918 C 9.187055587768555 108.9865264892578 8.143389701843262 108.8163604736328 7.205399990081787 108.4563140869141 C 2.823300123214722 106.7742004394531 2.520000219345093 103.8006134033203 2.072700023651123 99.35099792480469 L 3.515400171279907 94.29930114746094 C 3.515400171279907 94.29930114746094 3.514017105102539 94.29957580566406 3.511697053909302 94.29957580566406 C 3.454345703125 94.29959869384766 2.818938255310059 94.13127899169922 8.072999954223633 85.4613037109375 C 9.396610260009766 83.27715301513672 10.8866605758667 81.64436340332031 12.40705013275146 80.36708831787109 C 9.762869834899902 77.38590240478516 7.586040019989014 74.29343414306641 7.192800045013428 71.87039947509766 C 6.085800170898438 65.04930114746094 5.348700046539307 60.40170288085938 5.348700046539307 60.40170288085938 C 4.453200340270996 55.79280090332031 5.43690013885498 51.92550277709961 10.04580020904541 51.03000259399414 C 10.68395614624023 50.90598678588867 11.35830307006836 50.84544372558594 12.04867172241211 50.84544372558594 C 16.34331703186035 50.84544372558594 21.26424217224121 53.18735885620117 22.03650093078613 57.15719985961914 C 22.03650093078613 57.15719985961914 21.95730018615723 64.64250183105469 22.77720069885254 68.84100341796875 C 22.90966033935547 69.5191650390625 23.31500053405762 70.3961181640625 23.90115928649902 71.38921356201172 C 25.60851097106934 66.36642456054688 28.54980087280273 55.78200149536133 28.54980087280273 55.78200149536133 C 29.75418853759766 52.64440155029297 33.5867805480957 51.11138153076172 37.27473449707031 51.11138153076172 C 38.73752975463867 51.11138153076172 40.17709732055664 51.35239028930664 41.42160034179688 51.83010101318359 C 45.80459976196289 53.51220321655273 44.41949844360352 61.87410354614258 44.41949844360352 61.87410354614258 C 44.41949844360352 61.87410354614258 40.48199844360352 71.99459838867188 38.2067985534668 78.51959991455078 C 37.54399108886719 80.42047119140625 35.95294189453125 82.21617889404297 33.9747200012207 83.89015960693359 C 34.52930068969727 84.48789978027344 34.86149978637695 84.83580017089844 34.86149978637695 84.83580017089844 L 38.91780090332031 89.24400329589844 L 39.7151985168457 98.92890167236328 C 40.61159896850586 103.5369033813477 37.60200119018555 107.9990997314453 32.99399948120117 108.8945999145508 C 32.42588043212891 109.005012512207 31.87334060668945 109.058349609375 31.34054946899414 109.0583953857422 Z"/>
    </g>
    <g id="ch21-2" class="cls-1" transform="matrix(0.998, 0.07, -0.07, 0.998, 424.219, 329.234)">
      <path class="cls-2" d="M 36.36663055419922 74.60372161865234 C 34.54055023193359 74.60377502441406 32.73913955688477 74.210693359375 31.29421806335449 73.49687194824219 C 29.73345947265625 72.725830078125 28.63438606262207 71.61028289794922 28.11462020874023 70.26981353759766 C 27.94304847717285 69.70949554443359 23.84346008300781 56.33293914794922 22.34293937683105 52.43353271484375 C 22.15139961242676 51.93617248535156 21.81005859375 51.37018203735352 21.29934883117676 50.7031135559082 L 20.84942817687988 50.11545181274414 L 20.47216987609863 50.75219345092773 C 19.8018684387207 51.8835334777832 19.40852928161621 52.77913284301758 19.26966857910156 53.49016189575195 C 18.46963882446289 57.58689117431641 14.5631685256958 66.59355163574219 14.52379894256592 66.68405151367188 L 14.50193881988525 66.73431396484375 L 14.49147891998291 66.78812408447266 C 14.07240867614746 68.94451904296875 12.39359855651855 70.32073211669922 11.05903911590576 71.09550476074219 C 9.30768871307373 72.11224365234375 7.097639083862305 72.6954345703125 4.995559215545654 72.69553375244141 C 4.32844877243042 72.69557189941406 3.686338901519775 72.63648223876953 3.087079048156738 72.51990509033203 C -1.082013130187988 71.70970153808594 -1.102375030517578 69.29383087158203 -1.060610771179199 66.48184204101563 C -0.5139375925064087 65.40664672851563 3.6131751537323 57.14051818847656 4.669528961181641 50.63676452636719 C 5.026538848876953 48.43693161010742 6.995748996734619 45.38087463378906 10.52244853973389 41.55341339111328 L 10.88989925384521 41.15463256835938 L 10.46267890930176 40.82067108154297 C 8.988783836364746 39.66852951049805 7.874626636505127 38.83876419067383 7.574592590332031 38.61653900146484 L 3.199236392974854 31.4034252166748 L 1.80126690864563 26.50835227966309 C 2.241781949996948 22.12828826904297 2.53649115562439 19.47691345214844 6.606049060821533 17.91510200500488 C 7.452989101409912 17.59000205993652 8.44174861907959 17.41816329956055 9.465449333190918 17.41816329956055 C 11.85803890228271 17.41816329956055 14.21956920623779 18.33764266967773 15.48171901702881 19.76064300537109 C 16.26734924316406 20.64639282226563 16.59785842895508 21.65969276428223 16.46407890319824 22.77241325378418 L 16.46052932739258 22.80188369750977 L 16.46049880981445 22.83156204223633 L 16.45689964294434 26.14626312255859 L 16.45687866210938 26.16400337219238 L 16.4581184387207 26.18170356750488 L 16.80461883544922 31.13440322875977 L 16.82375907897949 31.4079532623291 L 17.06473922729492 31.53886222839355 C 17.07345962524414 31.54360198974609 17.95294952392578 32.02207183837891 19.31411933898926 32.82188415527344 L 19.61679840087891 32.99973297119141 L 19.88686943054199 32.77543258666992 C 20.48048973083496 32.28242111206055 20.83589935302734 31.99935340881348 20.83942985534668 31.99655342102051 L 21.00148963928223 31.86758232116699 L 21.02489852905273 31.66177368164063 L 21.96224784851074 23.41597366333008 C 22.33241271972656 21.52896118164063 23.16729545593262 19.94146919250488 24.37738990783691 18.82411193847656 C 25.59601974487305 17.69888305664063 27.14644813537598 17.10411262512207 28.86106872558594 17.10411262512207 C 29.36700820922852 17.10411262512207 29.89120864868164 17.1561336517334 30.41911888122559 17.25872230529785 C 32.51660919189453 17.66634368896484 34.32986068725586 18.86651229858398 35.52483749389648 20.63816261291504 C 36.70733642578125 22.39129257202148 37.14424896240234 24.49639320373535 36.75823211669922 26.57272529602051 L 31.43041229248047 37.30128479003906 C 31.24884033203125 37.49259948730469 30.61167907714844 38.16690063476563 29.72922897338867 39.13363265991211 L 29.36809921264648 39.52925109863281 L 29.7876091003418 39.86231231689453 C 33.38274002075195 42.71660232543945 35.54870986938477 45.14794158935547 36.22536849975586 47.08880233764648 C 38.39533233642578 53.31198501586914 42.67008209228516 63.61957931518555 43.02644729614258 64.47701263427734 C 43.13113403320313 65.18228149414063 44.11210632324219 72.4683837890625 40.3343505859375 73.91820526123047 C 39.16611862182617 74.36664581298828 37.79410934448242 74.60368347167969 36.36663055419922 74.60372161865234 Z"/>
      <path class="cls-3" d="M 36.36660766601563 74.10372161865234 C 37.73347854614258 74.10368347167969 39.04352951049805 73.87812042236328 40.15519714355469 73.45139312744141 C 40.91436004638672 73.16004180908203 41.49216842651367 72.58375549316406 41.92165756225586 71.68959045410156 C 42.3005485534668 70.90076446533203 42.54788970947266 69.88814544677734 42.65678787231445 68.67986297607422 C 42.82513427734375 66.81200408935547 42.60411834716797 65.05484771728516 42.54084014892578 64.61138153076172 C 42.04920196533203 63.42731094360352 37.88732528686523 53.37370300292969 35.75323867797852 47.25340270996094 C 35.30979919433594 45.98149108886719 33.86091995239258 43.73467254638672 29.47671890258789 40.25390243530273 L 28.6376895904541 39.58777236938477 L 29.35993957519531 38.79654312133789 C 30.18483352661133 37.89286804199219 30.78364562988281 37.25690460205078 31.01601982116699 37.0115852355957 L 36.27889633178711 26.41379737854004 C 36.6190299987793 24.4891242980957 36.20613098144531 22.54237174987793 35.11031723022461 20.91775321960449 C 33.99002838134766 19.25684356689453 32.29010772705078 18.13167190551758 30.32373809814453 17.74954223632813 C 29.82716941833496 17.65304374694824 29.33505821228027 17.60411262512207 28.86106872558594 17.60411262512207 C 27.27436828613281 17.60411262512207 25.84122848510742 18.15301322937012 24.71658897399902 19.19146347045898 C 23.58913803100586 20.23251342773438 22.80821418762207 21.71910858154297 22.45675086975098 23.49266624450684 L 21.52169990539551 31.71825218200684 L 21.47486877441406 32.12984466552734 L 21.1507682800293 32.38778305053711 C 21.14727973937988 32.39056396484375 20.79496955871582 32.67119216918945 20.20632934570313 33.16007232666016 L 19.66617965698242 33.60868453979492 L 19.0608081817627 33.25297164916992 C 17.70833969116211 32.45827102661133 16.83471870422363 31.98292350769043 16.8260498046875 31.97821235656738 L 16.34410858154297 31.71637344360352 L 16.30583953857422 31.16929244995117 L 15.9593391418457 26.21659278869629 L 15.95685863494873 26.18120193481445 L 15.95689868927002 26.14571189880371 L 15.96049880981445 22.83101272583008 L 15.96056938171387 22.77166366577148 L 15.96764850616455 22.71272277832031 C 16.0836296081543 21.74814224243164 15.79428863525391 20.86655235290527 15.10765933990479 20.09242248535156 C 13.93614864349365 18.7716121673584 11.72143936157227 17.91816329956055 9.465449333190918 17.91816329956055 C 8.502379417419434 17.91816329956055 7.575579166412354 18.07851219177246 6.785199165344238 18.38191223144531 C 3.029259443283081 19.82335472106934 2.738351583480835 22.19321441650391 2.308348894119263 26.46313858032227 L 3.661573886871338 31.2015380859375 L 7.951250076293945 38.27340316772461 C 8.340102195739746 38.56229400634766 9.401192665100098 39.35626983642578 10.77061939239502 40.42675399780273 L 11.62504863739014 41.09466171264648 L 10.89015865325928 41.8922233581543 C 6.581469058990479 46.56835174560547 5.397549152374268 49.27207183837891 5.163058757781982 50.71692276000977 C 4.124057769775391 57.11387634277344 0.1613454073667526 65.17009735107422 -0.562312126159668 66.60454559326172 C -0.5792815089225769 67.83261871337891 -0.570950984954834 69.07898712158203 -0.1258510202169418 70.01052093505859 C 0.1852089762687683 70.66151428222656 0.8665689826011658 71.57902526855469 3.182548999786377 72.02910614013672 C 3.750438928604126 72.13957214355469 4.360418796539307 72.19557189941406 4.99553918838501 72.19553375244141 C 7.012068748474121 72.1954345703125 9.13062858581543 71.63688659667969 10.80799865722656 70.66309356689453 C 12.05293941497803 69.94035339355469 13.61740875244141 68.66484069824219 14.00065898895264 66.69273376464844 L 14.02157878875732 66.58512115478516 L 14.06529903411865 66.48461151123047 C 14.10444927215576 66.39461517333984 17.98940849304199 57.43730163574219 18.77893829345703 53.39433288574219 C 18.92893981933594 52.62627410888672 19.34208869934082 51.67865371704102 20.0420093536377 50.49733352661133 L 20.79652976989746 49.22384262084961 L 21.69635963439941 50.39916229248047 C 22.23648834228516 51.10467147827148 22.60059928894043 51.7113037109375 22.80958938598633 52.25397109985352 C 24.31739616394043 56.17233276367188 28.29985618591309 69.16651153564453 28.58724021911621 70.10556793212891 C 29.18853759765625 71.63847351074219 30.50974655151367 72.55164337158203 31.51567840576172 73.04859161376953 C 32.8930778503418 73.72904968261719 34.61583709716797 74.10377502441406 36.36660766601563 74.10372161865234 M 36.36663818359375 75.10372161865234 C 32.67839813232422 75.10383605957031 28.84618949890137 73.57097625732422 27.64169883728027 70.43310546875 C 27.64169883728027 70.43310546875 23.41259956359863 56.60550308227539 21.87629890441895 52.61310195922852 C 21.69681930541992 52.14705276489258 21.35881805419922 51.60330200195313 20.9023380279541 51.00706100463867 C 20.30648803710938 52.01274108886719 19.89421844482422 52.90077209472656 19.76039886474609 53.58600234985352 C 18.94049835205078 57.78450393676758 14.98229885101318 66.88349914550781 14.98229885101318 66.88349914550781 C 14.21092510223389 70.852783203125 9.289972305297852 73.19532012939453 4.995588302612305 73.19553375244141 C 4.304555416107178 73.19557189941406 3.630317687988281 73.13495635986328 2.991599082946777 73.01070404052734 C -1.616401076316833 72.11520385742188 -1.602900981903076 69.27300262451172 -1.558801054954529 66.35790252685547 C -1.558801054954529 66.35790252685547 3.068099021911621 57.37770462036133 4.175999164581299 50.55660247802734 C 4.606528759002686 47.90376281738281 7.175768852233887 44.44762420654297 10.15474891662598 41.21460342407227 C 8.416479110717773 39.85579299926758 7.198198795318604 38.96010208129883 7.198198795318604 38.96010208129883 L 2.736898899078369 31.60530281066895 L 1.294198989868164 26.55360221862793 C 1.741498947143555 22.10400199890137 2.043899059295654 19.13040351867676 6.426898956298828 17.44830322265625 C 7.364621162414551 17.08835220336914 8.40887451171875 16.91816520690918 9.465448379516602 16.91816520690918 C 13.34638023376465 16.91816520690918 17.39555549621582 19.21370315551758 16.96049880981445 22.83210372924805 L 16.95689964294434 26.14680290222168 L 17.30339813232422 31.09950256347656 C 17.30339813232422 31.09950256347656 18.18168830871582 31.57655334472656 19.56741905212402 32.39079284667969 C 20.17293930053711 31.88789367675781 20.52809906005859 31.60530281066895 20.52809906005859 31.60530281066895 L 21.46769905090332 23.33970260620117 C 22.25273704528809 19.29932022094727 25.07286071777344 16.60411262512207 28.8610725402832 16.60411262512207 C 29.39410781860352 16.60411262512207 29.94609260559082 16.65744018554688 30.51449966430664 16.76790237426758 C 35.12249755859375 17.66340255737305 38.13209915161133 22.12560272216797 37.23659896850586 26.73360252380371 L 31.84469985961914 37.59120178222656 C 31.84469985961914 37.59120178222656 31.15245819091797 38.31611251831055 30.09850883483887 39.47072219848633 C 33.21461868286133 41.9447021484375 35.89040756225586 44.60922241210938 36.6974983215332 46.92420196533203 C 38.97269821166992 53.44920349121094 43.51139831542969 64.34100341796875 43.51139831542969 64.34100341796875 C 43.51139831542969 64.34100341796875 44.89649963378906 72.70290374755859 40.51350021362305 74.38500213623047 C 39.26926803588867 74.86260986328125 37.82910919189453 75.10368347167969 36.36663818359375 75.10372161865234 Z"/>
    </g>
  </g>
</svg>
