<svg xmlns="http://www.w3.org/2000/svg" width="90.778" height="55.991" viewBox="0 0 90.778 55.991">
  <defs>
    <style>
      .cls-1 {
        fill: #fff;
      }

      .cls-2, .cls-3 {
        stroke: none;
      }

      .cls-3 {
        fill: #707070;
      }
    </style>
  </defs>
  <g id="ch22" transform="translate(-376.092 -349.342)">
    <g id="ch22-1" class="cls-1" transform="matrix(-0.999, -0.035, 0.035, -0.999, 418.917, 455.452)">
      <path class="cls-2" d="M 11.63301658630371 101.0109405517578 L 11.63279724121094 101.0109405517578 C 10.60877704620361 101.0108947753906 9.620057106018066 100.8390884399414 8.773246765136719 100.5140991210938 C 7.445306777954102 100.0040817260742 6.654266834259033 99.22755432128906 6.283906936645508 98.07034301757813 C 5.931366920471191 96.96878814697266 5.966086864471436 95.58379364013672 6.002856731414795 94.11746978759766 C 6.030002117156982 93.03483581542969 6.058038234710693 91.91626739501953 5.94846248626709 90.75295257568359 C 6.456683158874512 89.04725646972656 7.308324813842773 87.11109161376953 8.293256759643555 85.4246826171875 C 9.244936943054199 83.79518890380859 10.22532653808594 82.59592437744141 10.85184669494629 82.29486846923828 C 10.95911693572998 82.24336242675781 11.10594654083252 82.17462921142578 11.28668689727783 82.09000396728516 C 11.71813678741455 81.88799285888672 12.30902671813965 81.61132049560547 13.02522659301758 81.26016998291016 L 13.62141704559326 80.96787261962891 L 13.17576694488525 80.47565460205078 C 9.877306938171387 76.83248138427734 8.030397415161133 73.91030883789063 7.686336994171143 71.79029846191406 C 6.592136859893799 65.04808044433594 5.849896907806396 60.36985015869141 5.842526912689209 60.32338333129883 L 5.841166973114014 60.3148307800293 L 5.839517116546631 60.30633163452148 C 5.378396987915039 57.93309020996094 5.463546752929688 55.9864501953125 6.092586994171143 54.52049255371094 C 6.780006885528564 52.91846084594727 8.142147064208984 51.90923309326172 10.14116668701172 51.52082061767578 C 10.73998737335205 51.40445327758789 11.38175678253174 51.34543991088867 12.04866695404053 51.34543991088867 C 14.15091705322266 51.34543991088867 16.36108779907227 51.92848205566406 18.11247634887695 52.94506072998047 C 19.43709754943848 53.71393585205078 21.1009464263916 55.07529449462891 21.53603553771973 57.20423889160156 C 21.52982521057129 57.93330383300781 21.49310111999512 64.87420654296875 22.28646659851074 68.93682861328125 C 22.42405700683594 69.64122009277344 22.81137657165527 70.52653503417969 23.47056770324707 71.64336395263672 L 24.02408790588379 72.58116149902344 L 24.37455749511719 71.55013275146484 C 26.02804946899414 66.68577575683594 28.86802101135254 56.50312805175781 29.02497863769531 55.93947601318359 C 29.54563140869141 54.60177993774414 30.64382362365723 53.48833465576172 32.20238876342773 52.7183723449707 C 33.64738845825195 52.00452041625977 35.44877624511719 51.61138153076172 37.27472686767578 51.61138153076172 C 38.70209884643555 51.61138153076172 40.0740966796875 51.84843063354492 41.24241638183594 52.29689025878906 C 42.11856842041016 52.63314056396484 42.80671691894531 53.31525039672852 43.28776550292969 54.32427978515625 C 43.69239807128906 55.17303085327148 43.95426559448242 56.25041961669922 44.06608581542969 57.52653121948242 C 44.24323272705078 59.54818725585938 43.98260116577148 61.42051696777344 43.93383026123047 61.74349975585938 C 43.62872695922852 62.52910614013672 39.9042854309082 72.13282775878906 37.73468780517578 78.35498046875 C 37.10758590698242 80.15341186523438 35.71845626831055 81.75452423095703 33.48793792724609 83.24980163574219 L 33.00251770019531 83.57520294189453 L 33.39910507202148 84.00443267822266 C 33.97832107543945 84.63130187988281 34.37235260009766 85.04700469970703 34.47396469116211 85.15387725830078 L 38.97927474975586 91.54827117919922 C 39.35332870483398 93.61216735839844 38.9148063659668 95.70211791992188 37.73961639404297 97.44456481933594 C 36.54475784301758 99.21619415283203 34.7315559387207 100.4163589477539 32.63401794433594 100.8239822387695 C 32.10629653930664 100.9265441894531 31.58207702636719 100.9785537719727 31.075927734375 100.9785919189453 C 29.36118698120117 100.9787139892578 27.81066703796387 100.3840179443359 26.59198760986328 99.2587890625 C 25.38598823547363 98.14527893066406 24.55247116088867 96.56470489501953 24.18000984191895 94.68579864501953 L 24.04459762573242 90.80426788330078 L 24.03655624389648 90.57395935058594 L 23.85623741149902 90.43045806884766 C 23.85385704040527 90.42857360839844 23.61401748657227 90.23757171630859 23.20118713378906 89.89761352539063 L 22.77628707885742 89.54772186279297 L 22.46869659423828 90.00418853759766 C 20.30265617370605 93.21868133544922 18.74497604370117 95.27433013916016 18.7294864654541 95.29472351074219 L 18.60712623596191 95.45587921142578 L 18.63127708435059 95.65679931640625 C 18.76507759094238 96.76940155029297 18.4345760345459 97.78265380859375 17.64894676208496 98.66841888427734 C 16.38680648803711 100.091438293457 14.02540683746338 101.0109405517578 11.63301658630371 101.0109405517578 Z"/>
      <path class="cls-3" d="M 11.63301658630371 100.5109405517578 C 13.88880729675293 100.5109405517578 16.1033763885498 99.65747833251953 17.27487754821777 98.33663940429688 C 17.96149635314941 97.5625 18.2508373260498 96.68096160888672 18.13484764099121 95.71649932861328 L 18.08656692504883 95.31468200683594 L 18.33126640319824 94.99237060546875 C 18.34667778015137 94.97206878662109 19.8973274230957 92.92545318603516 22.05404663085938 89.72478485107422 L 22.66921615600586 88.81184387207031 L 23.51902770996094 89.51164245605469 C 23.92783737182617 89.84828186035156 24.16524696350098 90.03736877441406 24.1675968170166 90.03923797607422 L 24.52821731567383 90.32627105712891 L 24.54428672790527 90.78683471679688 L 24.67827606201172 94.62757110595703 C 25.40827751159668 98.23918151855469 27.85387420654297 100.4788208007813 31.07588768005371 100.4785919189453 C 31.55014610290527 100.4785537719727 32.04227828979492 100.4296340942383 32.53862762451172 100.3331604003906 C 34.50504684448242 99.95101928710938 36.20491790771484 98.82587432861328 37.32508850097656 97.16497802734375 C 38.40644073486328 95.56166076660156 38.82246780395508 93.6444091796875 38.50591659545898 91.74452972412109 L 34.08637237548828 85.47187042236328 C 33.95442199707031 85.33291625976563 33.57952117919922 84.93645477294922 33.03187561035156 84.34375 L 32.23868560791016 83.48529815673828 L 33.20951843261719 82.83448028564453 C 35.34670639038086 81.40177917480469 36.67246627807617 79.88268280029297 37.26256561279297 78.19035339355469 C 39.3948974609375 72.0750732421875 43.02558135986328 62.70172119140625 43.44751358032227 61.61460876464844 C 43.50855255126953 61.19355392456055 43.73273849487305 59.45029449462891 43.56799697875977 57.57018280029297 C 43.46140670776367 56.3537712097168 43.21527862548828 55.33409118652344 42.8364372253418 54.53945159912109 C 42.40638732910156 53.63742065429688 41.82639694213867 53.05657196044922 41.06323623657227 52.7636833190918 C 39.95151519775391 52.33694076538086 38.64147567749023 52.11138153076172 37.27472686767578 52.11138153076172 C 35.52407836914063 52.11138153076172 33.80132675170898 52.48615264892578 32.42384719848633 53.16665267944336 C 31.42031669616699 53.66241073608398 30.10305976867676 54.57234573364258 29.49977493286133 56.09827423095703 C 29.28044700622559 56.88539123535156 26.48565101623535 66.89316558837891 24.84795761108398 71.71105194091797 L 24.14701652526855 73.77312469482422 L 23.03997611999512 71.89749908447266 C 22.35140609741211 70.73090362548828 21.94441604614258 69.79380798339844 21.79573631286621 69.03266143798828 C 21.00998687744141 65.00904083251953 21.02863693237305 58.22764205932617 21.0356330871582 57.2542610168457 C 20.62138366699219 55.33501052856445 19.08667373657227 54.08865737915039 17.86147689819336 53.37749099731445 C 16.18405723571777 52.40385055541992 14.0653772354126 51.84543991088867 12.04866695404053 51.84543991088867 C 11.41369724273682 51.84543991088867 10.80401706695557 51.90135955810547 10.23652744293213 52.01164245605469 C 8.384157180786133 52.37155151367188 7.178956985473633 53.2567024230957 6.552066802978516 54.7176513671875 C 5.963296890258789 56.08975982666016 5.888697147369385 57.93798065185547 6.330337047576904 60.21097183227539 L 6.33363676071167 60.22796249389648 L 6.336357116699219 60.24505996704102 C 6.343717098236084 60.29152297973633 7.085826873779297 64.96886444091797 8.179886817932129 71.71021270751953 C 8.405616760253906 73.10115814208984 9.519906997680664 75.69276428222656 13.54642677307129 80.14006042480469 L 14.4377269744873 81.12451171875 L 13.24533653259277 81.70912170410156 C 12.52510738372803 82.06224060058594 11.90743732452393 82.35144805908203 11.49870681762695 82.54282379150391 C 11.3198070526123 82.62659454345703 11.17446708679199 82.69461059570313 11.06840705871582 82.74554443359375 C 10.04636383056641 83.23664855957031 7.60428524017334 87.01318359375 6.455191612243652 90.80397796630859 C 6.557093620300293 91.96087646484375 6.529463291168213 93.06259918212891 6.502696990966797 94.13001251220703 C 6.46701717376709 95.55289459228516 6.433327198028564 96.89685821533203 6.760117053985596 97.91793823242188 C 7.084997177124023 98.93305206298828 7.761187076568604 99.58979797363281 8.952397346496582 100.0472946166992 C 9.742627143859863 100.3505706787109 10.66940689086914 100.5108947753906 11.63248729705811 100.5109405517578 L 11.63301658630371 100.5109405517578 M 11.63301944732666 101.5109405517578 C 11.63278293609619 101.5109405517578 11.63272380828857 101.5109405517578 11.63248729705811 101.5109405517578 C 10.57616710662842 101.5108947753906 9.531746864318848 101.3407516479492 8.594097137451172 100.9809036254883 C 4.211997032165527 99.29790496826172 5.889596939086914 95.15430450439453 5.441397190093994 90.70470428466797 C 6.516897201538086 87.02280426025391 9.088196754455566 82.58760070800781 10.63529682159424 81.84420013427734 C 10.99263668060303 81.67259979248047 11.78255653381348 81.31258392333984 12.80511665344238 80.81123352050781 C 9.984356880187988 77.69569396972656 7.605556964874268 74.41374206542969 7.192797183990479 71.87039947509766 C 6.08579683303833 65.04930114746094 5.348697185516357 60.40170288085938 5.348697185516357 60.40170288085938 C 4.453197002410889 55.79280090332031 5.436896800994873 51.92550277709961 10.04579734802246 51.03000259399414 C 10.68395328521729 50.90598297119141 11.35830020904541 50.84544372558594 12.04866790771484 50.84544372558594 C 16.34331321716309 50.84544372558594 21.26423835754395 53.18735885620117 22.03649711608887 57.15719985961914 C 22.03649711608887 57.15719985961914 21.95729637145996 64.64250183105469 22.77719688415527 68.84100341796875 C 22.90966606140137 69.5191650390625 23.31500625610352 70.3961181640625 23.90115737915039 71.38921356201172 C 25.60850715637207 66.36642456054688 28.54979705810547 55.78200149536133 28.54979705810547 55.78200149536133 C 29.75418663024902 52.64440155029297 33.58677673339844 51.11138153076172 37.27473068237305 51.11138153076172 C 38.73752593994141 51.11138153076172 40.17709732055664 51.35239028930664 41.42159652709961 51.83010101318359 C 45.80459594726563 53.51220321655273 44.41950607299805 61.87409973144531 44.41950607299805 61.87409973144531 C 44.41950607299805 61.87409973144531 40.48200607299805 71.99459838867188 38.20680618286133 78.51959991455078 C 37.44914627075195 80.69247436523438 35.76262664794922 82.32687377929688 33.7663459777832 83.66510772705078 C 34.44482803344727 84.3994140625 34.86149597167969 84.83580017089844 34.86149597167969 84.83580017089844 L 39.45059585571289 91.34911346435547 C 40.34699630737305 95.95709991455078 37.33740615844727 100.419303894043 32.72939682006836 101.3148040771484 C 32.16127014160156 101.4252090454102 31.60875701904297 101.4785537719727 31.07596588134766 101.4785919189453 C 27.28734397888184 101.4788665771484 24.46757888793945 98.78367614746094 23.68169784545898 94.74300384521484 L 23.54489707946777 90.82170104980469 C 23.54489707946777 90.82170104980469 23.3050365447998 90.63084411621094 22.88334655761719 90.28359222412109 C 20.68280601501465 93.54927825927734 19.1276969909668 95.59709930419922 19.1276969909668 95.59709930419922 C 19.56277084350586 99.21485137939453 15.51420307159424 101.5109405517578 11.63301944732666 101.5109405517578 Z"/>
    </g>
    <g id="ch22-2" class="cls-1" transform="matrix(0.998, 0.07, -0.07, 0.998, 424.219, 329.234)">
      <path class="cls-2" d="M 4.995919704437256 72.69553375244141 L 4.995729446411133 72.69553375244141 C 4.328209400177002 72.69551086425781 3.686079740524292 72.63642120361328 3.087069749832153 72.51990509033203 C -1.08201265335083 71.70970153808594 -1.10237443447113 69.29383087158203 -1.060610175132751 66.48184204101563 C -0.5139369368553162 65.40664672851563 3.613175868988037 57.14051818847656 4.669529438018799 50.63676452636719 C 5.02653980255127 48.43693542480469 6.995749473571777 45.38087463378906 10.5224494934082 41.55341339111328 L 10.88989925384521 41.15463256835938 L 10.46267986297607 40.82067489624023 C 8.921329498291016 39.61580276489258 7.773377418518066 38.76347351074219 7.538539409637451 38.58986282348633 L 0.9989875555038452 31.13398361206055 C 1.433940768241882 26.8261833190918 1.760879278182983 24.20973968505859 5.791659832000732 22.66166496276855 C 6.638489723205566 22.33667373657227 7.627199649810791 22.16486358642578 8.650779724121094 22.16486358642578 C 11.04348945617676 22.16486358642578 13.40510940551758 23.08438491821289 14.66729927062988 24.50745391845703 C 15.45288944244385 25.39317321777344 15.78337955474854 26.40641403198242 15.64958000183105 27.51900482177734 L 15.63630962371826 27.62930488586426 L 15.67101001739502 27.73485374450684 L 16.82840919494629 31.25565338134766 L 16.8903694152832 31.44414329528809 L 17.06473922729492 31.53886413574219 C 17.07345962524414 31.54360389709473 17.95294952392578 32.02207565307617 19.31411933898926 32.82188415527344 L 19.61680030822754 32.99973297119141 L 19.88686943054199 32.77543258666992 C 20.48048973083496 32.28242492675781 20.83589935302734 31.99935340881348 20.83942985534668 31.99655342102051 L 20.95578002929688 31.90396499633789 L 21.00263977050781 31.7628345489502 L 22.53083992004395 27.15933418273926 L 22.54097938537598 27.12877464294434 L 22.547119140625 27.0971736907959 C 22.91539001464844 25.20178413391113 23.7518196105957 23.60733413696289 24.96599006652832 22.48621368408203 C 26.18461990356445 21.36098480224609 27.73505020141602 20.76621437072754 29.44966888427734 20.76621437072754 C 29.95561027526855 20.76621437072754 30.47980880737305 20.81823348999023 31.00771903991699 20.92082405090332 C 33.10520935058594 21.32844352722168 34.91846084594727 22.52861404418945 36.11344146728516 24.30026435852051 C 37.28485107421875 26.03695869445801 37.72463989257813 28.11879348754883 37.35752105712891 30.17615699768066 L 31.47102355957031 37.2585563659668 C 31.37385940551758 37.36062240600586 30.69994354248047 38.07020568847656 29.72922897338867 39.13363265991211 L 29.36809921264648 39.52925491333008 L 29.7876091003418 39.86231231689453 C 33.38272094726563 42.71657562255859 35.54869079589844 45.14791488647461 36.22536849975586 47.08880233764648 C 38.34249496459961 53.16046905517578 42.83229064941406 59.22550582885742 43.48848724365234 60.09389495849609 C 43.62960433959961 61.0936164855957 44.469970703125 68.05683135986328 40.78694152832031 69.47134399414063 C 39.61856842041016 69.91974639892578 38.24641799926758 70.15678405761719 36.81895065307617 70.15680694580078 C 34.99269104003906 70.15683746337891 33.19113922119141 69.76366424560547 31.74617958068848 69.04974365234375 C 30.17920875549316 68.27553558349609 29.07754898071289 67.15391540527344 28.56029891967773 65.80614471435547 L 28.55166053771973 65.78362274169922 L 28.54088973999023 65.76203155517578 C 28.49417877197266 65.66844177246094 23.85306930541992 56.35792541503906 22.34293937683105 52.43353271484375 C 22.15139961242676 51.93617248535156 21.81006050109863 51.37018585205078 21.29934883117676 50.7031135559082 L 20.84943008422852 50.11545562744141 L 20.47216987609863 50.75219345092773 C 19.80187034606934 51.8835334777832 19.40852928161621 52.77913284301758 19.2696704864502 53.49016571044922 C 18.46963882446289 57.58689498901367 14.56316947937012 66.59355163574219 14.52379989624023 66.68405151367188 L 14.50193977355957 66.73431396484375 L 14.49147987365723 66.78812408447266 C 14.07240009307861 68.94460296630859 12.39367961883545 70.32083129882813 11.05919933319092 71.09560394287109 C 9.307899475097656 72.11238098144531 7.097919464111328 72.69553375244141 4.995919704437256 72.69553375244141 Z"/>
      <path class="cls-3" d="M 4.995919704437256 72.19553375244141 C 7.012359619140625 72.19553375244141 9.130839347839355 71.63702392578125 10.80814933776855 70.66320037841797 C 12.05300998687744 69.94045257568359 13.61739921569824 68.66493225097656 14.00065994262695 66.69273376464844 L 14.02157974243164 66.58512115478516 L 14.06529998779297 66.48461151123047 C 14.10444927215576 66.39461517333984 17.98941040039063 57.43730545043945 18.77894020080566 53.39433288574219 C 18.92893981933594 52.62627410888672 19.34208869934082 51.67865371704102 20.0420093536377 50.49733352661133 L 20.79652976989746 49.22384262084961 L 21.69635963439941 50.39916229248047 C 22.23649024963379 51.10467529296875 22.60059928894043 51.7113037109375 22.80958938598633 52.25397491455078 C 24.31110954284668 56.156005859375 28.94166946411133 65.44539642333984 28.9882698059082 65.53877258300781 L 29.00981903076172 65.58194732666016 L 29.02710914611816 65.62699127197266 C 29.62269020080566 67.17888641357422 30.95491981506348 68.10110473632813 31.96765899658203 68.60147094726563 C 33.34510040283203 69.28203582763672 35.06798934936523 69.65682220458984 36.81893920898438 69.65680694580078 C 38.18579864501953 69.65678405761719 39.49599838256836 69.43122100830078 40.60766983032227 69.00458526611328 C 41.3667106628418 68.71306610107422 41.9444580078125 68.13660430908203 42.37395095825195 67.24224090576172 C 42.75283050537109 66.45327758789063 43.00019073486328 65.44052124023438 43.10914993286133 64.23212432861328 C 43.2642936706543 62.51163482666016 43.08918762207031 60.88508605957031 43.01116561889648 60.29246139526367 C 42.11135101318359 59.09833908081055 37.85054397583008 53.26820373535156 35.75323867797852 47.25341415405273 C 35.30978775024414 45.98147583007813 33.86090087890625 43.73464584350586 29.47671890258789 40.25390243530273 L 28.6376895904541 39.58777236938477 L 29.35993957519531 38.79654312133789 C 30.31326293945313 37.75217437744141 30.96458435058594 37.06541442871094 31.09734725952148 36.92591094970703 L 36.88701629638672 29.96001052856445 C 37.52473449707031 25.98779106140137 34.8900146484375 22.18464469909668 30.91234016418457 21.41164398193359 C 30.41576957702637 21.31514358520508 29.92366027832031 21.26621437072754 29.44966888427734 21.26621437072754 C 27.86297035217285 21.26621437072754 26.42983055114746 21.81511497497559 25.30518913269043 22.85356330871582 C 24.16976928710938 23.90197372436523 23.38576889038086 25.40236473083496 23.03793907165527 27.19253349304199 L 23.02565956115723 27.25574493408203 L 23.00536918640137 27.31686401367188 L 21.47716903686523 31.92036437988281 L 21.3834400177002 32.20261383056641 L 21.15077018737793 32.38778305053711 C 21.14727973937988 32.39056396484375 20.79496955871582 32.67119598388672 20.20632934570313 33.16007232666016 L 19.66617965698242 33.60868453979492 L 19.06081008911133 33.25297546386719 C 17.70833969116211 32.45827484130859 16.83471870422363 31.98292350769043 16.8260498046875 31.97821426391602 L 16.47732925415039 31.78875350952148 L 16.35340881347656 31.41179466247559 L 15.19600963592529 27.89099502563477 L 15.12661933898926 27.6799144744873 L 15.15314960479736 27.45930480957031 C 15.26913928985596 26.49485397338867 14.97981929779053 25.61333465576172 14.2932300567627 24.8392333984375 C 13.12167930603027 23.51835441589355 10.90688991546631 22.66486358642578 8.650779724121094 22.66486358642578 C 7.687809467315674 22.66486358642578 6.761049747467041 22.82519340515137 5.970929622650146 23.1284236907959 C 2.287463665008545 24.54310417175293 1.937092900276184 26.84993553161621 1.518373489379883 30.96788597106934 L 7.879070281982422 38.2198486328125 C 8.191781044006348 38.45154190063477 9.304478645324707 39.28066635131836 10.77061939239502 40.42675399780273 L 11.62504959106445 41.09466552734375 L 10.89015960693359 41.8922233581543 C 6.581469535827637 46.56835556030273 5.397549629211426 49.27207565307617 5.163059711456299 50.71692276000977 C 4.124058246612549 57.11387634277344 0.1613460630178452 65.17010498046875 -0.5623114705085754 66.60454559326172 C -0.5792809128761292 67.83261871337891 -0.5709503293037415 69.07898712158203 -0.1258503645658493 70.01052093505859 C 0.1852096319198608 70.66151428222656 0.8665696382522583 71.57902526855469 3.182539701461792 72.02910614013672 C 3.750179529190063 72.1395263671875 4.360189437866211 72.19551086425781 4.995589733123779 72.19553375244141 L 4.995919704437256 72.19553375244141 M 4.995919704437256 73.19553375244141 C 4.995657444000244 73.19553375244141 4.995851516723633 73.19553375244141 4.995589733123779 73.19553375244141 C 4.304869651794434 73.19551086425781 3.630039691925049 73.13489532470703 2.991599559783936 73.01070404052734 C -1.616400361061096 72.11520385742188 -1.602900385856628 69.27300262451172 -1.558800339698792 66.35790252685547 C -1.558800339698792 66.35790252685547 3.068099737167358 57.37770462036133 4.175999641418457 50.55660247802734 C 4.606529712677002 47.90376281738281 7.175769805908203 44.44762420654297 10.15474987030029 41.21460342407227 C 8.41648006439209 39.85579299926758 7.19819974899292 38.96010589599609 7.19819974899292 38.96010589599609 L 0.4796996414661407 31.30020332336426 C 0.9278996586799622 26.85060501098633 1.230299592018127 23.87790489196777 5.612399578094482 22.19490432739258 C 6.550046920776367 21.83505630493164 7.594465732574463 21.66486358642578 8.650784492492676 21.66486358642578 C 12.53219127655029 21.66486358642578 16.58109092712402 23.96072959899902 16.14599990844727 27.57870483398438 L 17.30340003967285 31.0995044708252 C 17.30340003967285 31.0995044708252 18.18169021606445 31.57655334472656 19.56741905212402 32.39079284667969 C 20.17293930053711 31.88789367675781 20.52809906005859 31.60530471801758 20.52809906005859 31.60530471801758 L 22.05629920959473 27.00180435180664 C 22.84133720397949 22.96142196655273 25.66146087646484 20.26621437072754 29.44967269897461 20.26621437072754 C 29.98270797729492 20.26621437072754 30.53469276428223 20.31954193115234 31.10309982299805 20.43000411987305 C 35.71110153198242 21.32550430297852 38.72069931030273 25.78770446777344 37.82519912719727 30.39570426940918 L 31.84469985961914 37.59120559692383 C 31.84469985961914 37.59120559692383 31.1524600982666 38.31611251831055 30.09850883483887 39.47072601318359 C 33.21461868286133 41.94469451904297 35.89039993286133 44.60922241210938 36.6974983215332 46.9242057800293 C 38.97269821166992 53.44920349121094 43.9640998840332 59.89320373535156 43.9640998840332 59.89320373535156 C 43.9640998840332 59.89320373535156 45.34830093383789 68.25510406494141 40.9661979675293 69.93810272216797 C 39.72171020507813 70.41571044921875 38.28155517578125 70.65678405761719 36.81895446777344 70.65680694580078 C 33.13037872314453 70.6568603515625 29.2979907989502 69.12380981445313 28.0935001373291 65.98529052734375 C 28.0935001373291 65.98529052734375 23.41259956359863 56.60550308227539 21.87629890441895 52.61310577392578 C 21.69681930541992 52.14705276489258 21.35881996154785 51.60330581665039 20.90233993530273 51.00706481933594 C 20.30648994445801 52.01274490356445 19.89422035217285 52.90077590942383 19.76039886474609 53.58600234985352 C 18.94050025939941 57.78450393676758 14.9822998046875 66.88350677490234 14.9822998046875 66.88350677490234 C 14.21091651916504 70.85282135009766 9.29033374786377 73.19553375244141 4.995919704437256 73.19553375244141 Z"/>
    </g>
  </g>
</svg>
