<svg xmlns="http://www.w3.org/2000/svg" width="72.14" height="101.373" viewBox="0 0 72.14 101.373">
  <defs>
    <style>
      .cls-1 {
        fill: #fff;
        stroke-linecap: round;
        stroke-linejoin: round;
      }

      .cls-2, .cls-3 {
        stroke: none;
      }

      .cls-3 {
        fill: #9a9a9a;
      }
    </style>
  </defs>
  <g id="ch22-1" class="cls-1" transform="translate(11.046 0.008)">
    <path class="cls-2" d="M 24.71267509460449 100.3643493652344 C 24.36019515991211 100.3643493652344 24.01535415649414 100.362922668457 23.65844917297363 100.3599624633789 C 4.109821796417236 100.197883605957 -4.093191623687744 95.90640258789063 -7.53233814239502 92.33483123779297 C -10.04565715789795 89.72473907470703 -10.04932117462158 87.48274993896484 -10.04613876342773 87.32231140136719 L -10.04388523101807 87.29085540771484 L -10.04516506195068 87.27593994140625 L -10.04516506195068 49.77162551879883 L 0.09850176423788071 15.07019233703613 L 0.1283684223890305 14.96804523468018 L 0.1360617578029633 14.86189842224121 C 0.1385684311389923 14.83045864105225 0.4441151022911072 11.35328578948975 3.333301782608032 7.940085411071777 C 5.028248310089111 5.93773889541626 7.275754928588867 4.339498996734619 10.01339530944824 3.189765453338623 C 13.48622131347656 1.731285452842712 17.76220893859863 0.9917787909507751 22.72259521484375 0.9917787909507751 C 23.02614212036133 0.9917787909507751 23.32379531860352 0.9944187998771667 23.63255500793457 0.9998454451560974 C 28.80607604980469 1.090925455093384 33.31538009643555 1.889752149581909 37.03520965576172 3.374152183532715 C 39.97612762451172 4.547725677490234 42.43204879760742 6.15064525604248 44.33475494384766 8.138405799865723 C 47.56752777099609 11.5156717300415 48.1041145324707 14.89967250823975 48.10915374755859 14.93345832824707 L 48.12258148193359 15.02829837799072 L 48.15323638916016 15.11516571044922 L 60.0941162109375 49.79580307006836 L 60.0941162109375 87.18361663818359 C 60.05014038085938 87.38970184326172 59.86290740966797 88.13304138183594 59.27710342407227 89.15486145019531 C 58.63616943359375 90.27287292480469 57.37367630004883 91.96200561523438 54.9990234375 93.6600341796875 C 52.29328918457031 95.59480285644531 48.73662185668945 97.13976287841797 44.42778015136719 98.25200653076172 C 38.99773025512695 99.65365600585938 32.36460876464844 100.3643493652344 24.71267509460449 100.3643493652344 Z"/>
    <path class="cls-3" d="M 22.72262954711914 1.99176025390625 C 17.9359302520752 1.99176025390625 13.81807327270508 2.693405151367188 10.48342895507813 4.077194213867188 C 7.896373748779297 5.150749206542969 5.773143768310547 6.637794494628906 4.172714233398438 8.496978759765625 C 1.502655029296875 11.59876251220703 1.149589538574219 14.77561950683594 1.133026123046875 14.94109344482422 C 1.123859405517578 15.08826446533203 1.099937438964844 15.20842742919922 1.058345794677734 15.35074615478516 L -9.045169830322266 49.91482925415039 L -9.045169830322266 87.27593231201172 C -9.045169830322266 87.33163452148438 -9.042499542236328 87.31893157958984 -9.045917510986328 87.35760498046875 C -9.039226531982422 87.65110015869141 -8.876594543457031 90.24771881103516 -5.301639556884766 92.9783935546875 C -2.982669830322266 94.74971771240234 0.2520294189453125 96.18215942382813 4.312587738037109 97.23591613769531 C 9.499046325683594 98.58187866210938 16.01071548461914 99.2965087890625 23.6667308807373 99.35999298095703 C 24.02080154418945 99.36292266845703 24.36293029785156 99.36434936523438 24.71268653869629 99.36434936523438 C 32.17169952392578 99.36434936523438 38.64355850219727 98.68405151367188 43.948486328125 97.34233093261719 C 48.12590026855469 96.28578948974609 51.57661437988281 94.82363128662109 54.20480346679688 92.9964599609375 C 56.47891616821289 91.41545104980469 57.69561767578125 89.85113525390625 58.31585693359375 88.81724548339844 C 58.83110809326172 87.95835876464844 59.03044891357422 87.31449127197266 59.0941162109375 87.06785583496094 L 59.0941162109375 49.96313858032227 L 47.20771789550781 15.44070434570313 C 47.16376495361328 15.31306457519531 47.13677215576172 15.21061706542969 47.11952209472656 15.07789611816406 C 47.09013366699219 14.90798187255859 46.51678085327148 11.81341552734375 43.5197868347168 8.733963012695313 C 41.70870208740234 6.873031616210938 39.36988830566406 5.369377136230469 36.56834411621094 4.264747619628906 C 32.98001861572266 2.849906921386719 28.62185859680176 2.087821960449219 23.61498832702637 1.999679565429688 C 23.31195831298828 1.994346618652344 23.02005958557129 1.99176025390625 22.72262954711914 1.99176025390625 M 22.72263145446777 -0.00823974609375 C 23.02902412414551 -0.00823974609375 23.33577156066895 -0.00554656982421875 23.65015983581543 -7.62939453125e-06 C 47.06347274780273 0.4121627807617188 49.09875869750977 14.78960418701172 49.09875869750977 14.78960418701172 L 61.0941162109375 49.62849044799805 L 61.0941162109375 87.27593231201172 C 61.0941162109375 87.27593231201172 59.08316040039063 101.3643493652344 24.71269416809082 101.3643493652344 C 24.36089515686035 101.3643493652344 24.0087718963623 101.3628921508789 23.65015983581543 101.3599166870117 C -11.74459838867188 101.0664596557617 -11.04516983032227 87.27593231201172 -11.04516983032227 87.27593231201172 L -11.04516983032227 49.62849044799805 L -0.861328125 14.78960418701172 C -0.861328125 14.78960418701172 0.2111663818359375 -0.00823974609375 22.72263145446777 -0.00823974609375 Z"/>
  </g>
</svg>
