<svg xmlns="http://www.w3.org/2000/svg" width="100.73" height="119.998" viewBox="0 0 100.73 119.998">
  <defs>
    <style>
      .cls-1 {
        fill: #fff;
      }

      .cls-2, .cls-3 {
        stroke: none;
      }

      .cls-3 {
        fill: #707070;
      }
    </style>
  </defs>
  <g id="ch23" transform="translate(-367.976 -310.798)">
    <g id="chy" class="cls-1" transform="matrix(0.998, 0.07, -0.07, 0.998, 427.219, 346.234)">
      <path class="cls-2" d="M 4.995920181274414 72.69553375244141 L 4.995730400085449 72.69553375244141 C 4.328210353851318 72.69551086425781 3.68608021736145 72.63642120361328 3.087070226669312 72.51990509033203 C -1.082012057304382 71.70970153808594 -1.102373838424683 69.29383087158203 -1.060609579086304 66.48184204101563 C -0.5139363408088684 65.40664672851563 3.613176345825195 57.14051818847656 4.669530391693115 50.63676452636719 C 5.026540279388428 48.43693542480469 6.995750427246094 45.38087463378906 10.52245044708252 41.55341339111328 L 10.88990020751953 41.15463256835938 L 10.46267986297607 40.82067489624023 C 8.911017417907715 39.60773849487305 7.758038997650146 38.7520866394043 7.533953666687012 38.58647155761719 L 0.4317633211612701 30.84739875793457 C 0.86639404296875 26.54345321655273 1.194969534873962 23.92914581298828 5.223680019378662 22.38269424438477 C 6.07096004486084 22.05735397338867 7.060020446777344 21.88540458679199 8.083990097045898 21.88540458679199 C 10.47628021240234 21.88540458679199 12.83748054504395 22.80476379394531 14.09945011138916 24.22757339477539 C 14.88501071929932 25.11327362060547 15.21547985076904 26.12649345397949 15.08168029785156 27.23910331726074 L 15.06497001647949 27.37804412841797 L 15.12281036376953 27.50547409057617 L 16.84811019897461 31.30617332458496 L 16.91740989685059 31.45883369445801 L 17.06474113464355 31.53886413574219 C 17.07345962524414 31.54360389709473 17.95294952392578 32.02207565307617 19.31411933898926 32.82188415527344 L 19.61680030822754 32.99973297119141 L 19.88686943054199 32.77543258666992 C 20.48048973083496 32.28242492675781 20.83589935302734 31.99935340881348 20.83942985534668 31.99655342102051 L 21.02358055114746 31.85001373291016 L 21.02800941467285 31.61469459533691 L 21.11178588867188 27.15590286254883 C 21.48420524597168 25.27922630310059 22.31726837158203 23.70027351379395 23.52256011962891 22.58732414245605 C 24.74137115478516 21.4619140625 26.29186058044434 20.8670539855957 28.00641059875488 20.8670539855957 C 28.51225090026855 20.8670539855957 29.03634071350098 20.91905403137207 29.56411933898926 21.0216236114502 C 31.6616096496582 21.42924308776855 33.47486114501953 22.62941360473633 34.66984176635742 24.40106391906738 C 35.84723281860352 26.1466236114502 36.28546905517578 28.24110794067383 35.9081916809082 30.3087158203125 L 31.4493522644043 37.28134536743164 C 31.29752349853516 37.44112777709961 30.64563369750977 38.12970352172852 29.7292308807373 39.13363265991211 L 29.36810111999512 39.52925491333008 L 29.78761100769043 39.86231231689453 C 33.38272094726563 42.71657562255859 35.54869079589844 45.14791488647461 36.22536849975586 47.08880233764648 C 38.35203170776367 53.18780136108398 41.87027359008789 59.39727783203125 42.32374572753906 60.18727874755859 C 42.44929885864258 61.05570602416992 43.35382843017578 68.16610717773438 39.62694931030273 69.59640502929688 C 38.45870971679688 70.04483032226563 37.08670043945313 70.28188323974609 35.65922164916992 70.28192138671875 C 33.83314895629883 70.28197479248047 32.03173065185547 69.88889312744141 30.58682060241699 69.17507171630859 C 29.02108764648438 68.40157318115234 27.9199047088623 67.28114318847656 27.40218925476074 65.93498229980469 C 27.32692718505859 65.73186492919922 23.85388565063477 56.36003112792969 22.34293937683105 52.43353271484375 C 22.15139961242676 51.93617248535156 21.81006050109863 51.37018203735352 21.29935073852539 50.7031135559082 L 20.84943008422852 50.11545562744141 L 20.47216987609863 50.75219345092773 C 19.80186080932617 51.88356399536133 19.40851020812988 52.7791633605957 19.2696704864502 53.49017333984375 C 18.46964073181152 57.58689498901367 14.56317043304443 66.59355163574219 14.52379989624023 66.68405151367188 L 14.50193977355957 66.73431396484375 L 14.49147987365723 66.78812408447266 C 14.07240009307861 68.94460296630859 12.39368057250977 70.32083129882813 11.05920028686523 71.09560394287109 C 9.307900428771973 72.11238098144531 7.097920417785645 72.69553375244141 4.995920181274414 72.69553375244141 Z"/>
      <path class="cls-3" d="M 4.995920181274414 72.19553375244141 C 7.012360095977783 72.19553375244141 9.130840301513672 71.63702392578125 10.80815029144287 70.66320037841797 C 12.05300998687744 69.94045257568359 13.61740016937256 68.66493225097656 14.00065994262695 66.69273376464844 L 14.02158069610596 66.58512115478516 L 14.06529998779297 66.48461151123047 C 14.10445022583008 66.39461517333984 17.98941040039063 57.43730545043945 18.77894020080566 53.39434432983398 C 18.92892074584961 52.62630462646484 19.34206962585449 51.67868423461914 20.0420093536377 50.49733352661133 L 20.79652976989746 49.22384262084961 L 21.69635963439941 50.39916229248047 C 22.23649024963379 51.10467529296875 22.60060119628906 51.7113037109375 22.80958938598633 52.25397491455078 C 24.31578063964844 56.16814804077148 27.7689208984375 65.48566436767578 27.87002563476563 65.75852203369141 C 28.46666145324707 67.30663299560547 29.79684638977051 68.22712707519531 30.80828094482422 68.72679138183594 C 32.1856803894043 69.40725708007813 33.90843200683594 69.78197479248047 35.65919876098633 69.78192138671875 C 37.02606964111328 69.78188323974609 38.33613204956055 69.55632019042969 39.44779968261719 69.12959289550781 C 40.20695877075195 68.83824157714844 40.78477096557617 68.26195526123047 41.21426010131836 67.36779022216797 C 41.5931510925293 66.57896423339844 41.84048843383789 65.56634521484375 41.94939041137695 64.35806274414063 C 42.11052703857422 62.57018280029297 41.91492080688477 60.88364791870117 41.84238433837891 60.35360336303711 C 41.21446228027344 59.2585334777832 37.85874938964844 53.29174423217773 35.75323867797852 47.25341415405273 C 35.30979156494141 45.98147583007813 33.86090087890625 43.73464584350586 29.47672080993652 40.25390243530273 L 28.6376895904541 39.58777236938477 L 29.35993957519531 38.79654312133789 C 30.23454093933105 37.83841323852539 30.85494613647461 37.1812858581543 31.05396270751953 36.97156524658203 L 35.43309020996094 30.12358474731445 C 35.75630950927734 28.21630859375 35.34101104736328 26.29026794433594 34.25532150268555 24.68065452575684 C 33.13502883911133 23.01974487304688 31.43511009216309 21.89457321166992 29.46874046325684 21.51244354248047 C 28.97231101989746 21.41596412658691 28.48031044006348 21.3670539855957 28.00641059875488 21.3670539855957 C 26.41978073120117 21.3670539855957 24.9865894317627 21.91604423522949 23.86176109313965 22.95467376708984 C 22.74384498596191 23.9869384765625 21.96658515930176 25.45698928833008 21.6108512878418 27.21024322509766 L 21.52791976928711 31.62409400939941 L 21.51902961730957 32.09469223022461 L 21.15077018737793 32.38778305053711 C 21.14727973937988 32.39056396484375 20.79496955871582 32.67119216918945 20.20632934570313 33.16007232666016 L 19.66617965698242 33.60868453979492 L 19.06081008911133 33.25297546386719 C 17.70833969116211 32.45827484130859 16.83472061157227 31.98292350769043 16.8260498046875 31.97821426391602 L 16.53141021728516 31.81813430786133 L 16.39282989501953 31.51285362243652 L 14.66753005981445 27.71215438842773 L 14.55183982849121 27.45729446411133 L 14.58524990081787 27.17940330505371 C 14.70124053955078 26.21493339538574 14.411940574646 25.33342361450195 13.72537994384766 24.55936431884766 C 12.5540599822998 23.23873329162598 10.33968067169189 22.38540458679199 8.083990097045898 22.38540458679199 C 7.120660305023193 22.38540458679199 6.193570137023926 22.54586410522461 5.402860164642334 22.84948348999023 C 1.723502397537231 24.2618350982666 1.369951486587524 26.56504821777344 0.9518332481384277 30.67462158203125 L 7.86988639831543 38.21304321289063 C 8.169506072998047 38.4349479675293 9.289803504943848 39.26919555664063 10.77062034606934 40.42675399780273 L 11.62505054473877 41.09466552734375 L 10.89016056060791 41.8922233581543 C 6.581470012664795 46.56835556030273 5.397550106048584 49.27207565307617 5.163060188293457 50.71692276000977 C 4.124059200286865 57.11387634277344 0.1613466739654541 65.17010498046875 -0.5623108148574829 66.60454559326172 C -0.5792802572250366 67.83261871337891 -0.5709496736526489 69.07898712158203 -0.1258497536182404 70.01052093505859 C 0.1852102428674698 70.66151428222656 0.8665702342987061 71.57902526855469 3.18254017829895 72.02910614013672 C 3.750180244445801 72.1395263671875 4.360190391540527 72.19551086425781 4.995590209960938 72.19553375244141 L 4.995920181274414 72.19553375244141 M 4.995920181274414 73.19553375244141 C 4.995657920837402 73.19553375244141 4.995852470397949 73.19553375244141 4.995590209960938 73.19553375244141 C 4.304870128631592 73.19551086425781 3.630040168762207 73.13489532470703 2.991600275039673 73.01070404052734 C -1.616399765014648 72.11520385742188 -1.602899789810181 69.27300262451172 -1.558799743652344 66.35790252685547 C -1.558799743652344 66.35790252685547 3.068100214004517 57.37770462036133 4.176000118255615 50.55660247802734 C 4.60653018951416 47.90376281738281 7.175770282745361 44.44762420654297 10.15474987030029 41.21460342407227 C 8.41648006439209 39.85579299926758 7.198200225830078 38.96010208129883 7.198200225830078 38.96010208129883 L -0.08819974958896637 31.02030372619629 C 0.3600002527236938 26.57070350646973 0.6624002456665039 23.59800338745117 5.044500350952148 21.91590309143066 C 5.982415199279785 21.55575942993164 7.027365684509277 21.38540077209473 8.083992958068848 21.38540077209473 C 11.96512508392334 21.38540077209473 16.01315689086914 23.68111038208008 15.57810020446777 27.29880332946777 L 17.30340003967285 31.0995044708252 C 17.30340003967285 31.0995044708252 18.18169021606445 31.57655334472656 19.56742095947266 32.39079284667969 C 20.17293930053711 31.88789367675781 20.52810096740723 31.60530471801758 20.52810096740723 31.60530471801758 L 20.61269950866699 27.10260391235352 C 21.39773941040039 23.06300926208496 24.21819686889648 20.36705017089844 28.00640869140625 20.36705017089844 C 28.53944206237793 20.36705017089844 29.09109306335449 20.42034149169922 29.65950012207031 20.53080368041992 C 34.26750183105469 21.42630386352539 37.277099609375 25.88850402832031 36.38159942626953 30.49650382995605 L 31.84469985961914 37.59120559692383 C 31.84469985961914 37.59120559692383 31.1524600982666 38.31611251831055 30.0985107421875 39.47072219848633 C 33.21461868286133 41.94469451904297 35.89039993286133 44.60922241210938 36.69750213623047 46.9242057800293 C 38.97270202636719 53.44920349121094 42.80400085449219 60.01920318603516 42.80400085449219 60.01920318603516 C 42.80400085449219 60.01920318603516 44.1890983581543 68.381103515625 39.80609893798828 70.06320190429688 C 38.56186676025391 70.54080963134766 37.1217041015625 70.78188323974609 35.65923309326172 70.78192138671875 C 31.97099113464355 70.78202819824219 28.13879203796387 69.24916839599609 26.93429946899414 66.11130523681641 C 26.93429946899414 66.11130523681641 23.41259956359863 56.60550308227539 21.87630081176758 52.61310577392578 C 21.69681930541992 52.14705276489258 21.35881996154785 51.60330581665039 20.90233993530273 51.00706481933594 C 20.30648994445801 52.01274490356445 19.89421081542969 52.90077209472656 19.76040077209473 53.58600234985352 C 18.94050025939941 57.78450393676758 14.9822998046875 66.88350677490234 14.9822998046875 66.88350677490234 C 14.21091747283936 70.85282135009766 9.290334701538086 73.19553375244141 4.995920181274414 73.19553375244141 Z"/>
    </g>
    <g id="chx" class="cls-1" transform="matrix(-0.999, -0.035, 0.035, -0.999, 413.311, 441.377)">
      <path class="cls-2" d="M 30.74670028686523 128.5619964599609 C 26.94936370849609 128.5623168945313 23.66401672363281 125.8654632568359 22.9134521484375 122.1415328979492 L 23.72151565551758 98.00694274902344 L 23.7255916595459 97.88518524169922 L 23.67320823669434 97.77519226074219 C 23.66854667663574 97.76540374755859 23.19873046875 96.77796173095703 22.4876537322998 95.19200134277344 L 22.10876083374023 94.34699249267578 L 21.61008453369141 95.12732696533203 C 18.95593070983887 99.28055572509766 17.15979194641113 102.3932647705078 17.1419620513916 102.4242172241211 L 17.10919189453125 102.4811096191406 L 17.09220695495605 102.5445251464844 L 11.58329963684082 123.1257247924805 L 11.57693099975586 123.149543762207 L 11.57293033599854 123.1738662719727 C 11.24268436431885 125.1820220947266 7.724530696868896 127.0109252929688 4.191715240478516 127.010986328125 C 3.408930778503418 127.0110015869141 2.683930635452271 126.9175567626953 2.036869287490845 126.7332382202148 C 0.5242999792098999 126.3023910522461 -0.6113461852073669 124.6554641723633 -1.338484644889832 121.8382186889648 C -2.041053056716919 119.1161575317383 -2.15416955947876 116.0405502319336 -2.156753540039063 114.3972854614258 L 4.55596399307251 94.50551605224609 C 5.196760177612305 93.71947479248047 11.01973056793213 86.56051635742188 16.22479248046875 79.61827850341797 L 16.37622261047363 79.41631317138672 L 16.30362319946289 79.17454528808594 C 16.21723747253418 78.88687896728516 16.13339233398438 78.60067749023438 16.05442237854004 78.32391357421875 C 13.68251037597656 70.00799560546875 7.817086696624756 55.6938362121582 7.389373779296875 54.65369415283203 L 2.546238422393799 20.16695785522461 L 2.54442310333252 20.15397262573242 L 2.541915416717529 20.14111137390137 C 2.080807685852051 17.76835823059082 2.165915250778198 15.82197380065918 2.79488468170166 14.35606575012207 C 3.482207536697388 12.75411224365234 4.844084739685059 11.74491214752197 6.842684745788574 11.35651206970215 C 7.441592216491699 11.24014282226563 8.083484649658203 11.18114280700684 8.750484466552734 11.18114280700684 C 10.85299205780029 11.18114280700684 13.06330013275146 11.76417350769043 14.81463813781738 12.78075790405273 C 16.14497184753418 13.5529613494873 17.81743240356445 14.92300415039063 18.24319458007813 17.06793022155762 L 21.99028396606445 51.80991363525391 L 21.99539184570313 51.85723495483398 L 22.00933074951172 51.90272903442383 C 22.02703857421875 51.96052551269531 23.80128479003906 57.76006698608398 25.68626976013184 64.52537536621094 L 25.9874382019043 65.60630035400391 L 26.58977699279785 64.65957641601563 C 27.7299919128418 62.8674201965332 28.38017654418945 61.78255844116211 28.38662338256836 61.77182006835938 L 28.45073127746582 61.66471099853516 L 28.45697593688965 61.54003524780273 L 30.51856994628906 20.41582870483398 C 31.9998722076416 18.12519836425781 34.50369644165039 16.76178932189941 37.24239349365234 16.76178932189941 C 38.73660659790039 16.76178932189941 40.19968414306641 17.18252754211426 41.47343826293945 17.97851181030273 C 43.28582382202148 19.1108512878418 44.54868316650391 20.88115882873535 45.02942276000977 22.9633731842041 C 45.5101318359375 25.04548072814941 45.15125274658203 27.19009590148926 44.01888275146484 29.00212669372559 L 43.94279098510742 29.12388038635254 L 43.94290161132813 29.26746559143066 C 43.94296264648438 29.35695838928223 43.94567108154297 38.32497406005859 43.60428619384766 47.78348159790039 C 43.03660583496094 63.51160430908203 41.99220657348633 68.44700622558594 41.21600723266602 69.81772613525391 C 39.80279159545898 72.31217193603516 38.08402252197266 74.11738586425781 35.90799331665039 76.40289306640625 C 34.63968276977539 77.73500061035156 33.2021598815918 79.24485015869141 31.60648536682129 81.12888336181641 L 31.40769958496094 81.36360168457031 L 31.52754592895508 81.64686584472656 C 34.29579925537109 88.18960571289063 37.27394104003906 94.37319946289063 37.67792510986328 95.20802307128906 L 38.59906768798828 118.9579925537109 L 38.60056304931641 118.9963302612305 L 38.60788345336914 119.0339889526367 C 39.44929885864258 123.3636474609375 36.61153030395508 127.5712814331055 32.28202438354492 128.4134979248047 C 31.77529907226563 128.5119781494141 31.25871467590332 128.5619354248047 30.74670028686523 128.5619964599609 Z"/>
      <path class="cls-3" d="M 30.74665451049805 128.0619964599609 C 31.22674560546875 128.0619354248047 31.71125411987305 128.0150604248047 32.18654632568359 127.9226989746094 C 36.2454833984375 127.1331253051758 38.90589904785156 123.1884536743164 38.11706924438477 119.1293716430664 L 38.10242462158203 119.0540313720703 L 38.09945297241211 118.9773559570313 L 37.18235397338867 95.33168792724609 C 36.63554000854492 94.19917297363281 33.75259780883789 88.18892669677734 31.06707000732422 81.84169769287109 L 30.82736206054688 81.27516174316406 L 31.22492980957031 80.80574035644531 C 32.83000946044922 78.91060638427734 34.27286911010742 77.39515686035156 35.54586791992188 76.05811309814453 C 37.69816207885742 73.79757690429688 39.39816284179688 72.01204681396484 40.78092956542969 69.57134246826172 C 41.39383697509766 68.48897552490234 42.51071548461914 64.21710968017578 43.10451507568359 47.76808166503906 C 43.44562149047852 38.31855773925781 43.44296264648438 29.35726547241211 43.44290161132813 29.26785087585449 L 43.44268417358398 28.98068046569824 L 43.59486770629883 28.73714256286621 C 44.65645217895508 27.03837394714355 44.99290084838867 25.0278205871582 44.54224014282227 23.07584953308105 C 44.09154510498047 21.12378883361816 42.90762329101563 19.464111328125 41.20845413208008 18.40252685546875 C 40.01425552368164 17.65625 38.64280700683594 17.26178932189941 37.24239349365234 17.26178932189941 C 34.7190055847168 17.26178932189941 32.40822601318359 18.496337890625 31.01111221313477 20.5770435333252 L 28.95634651184082 61.56506729125977 L 28.9438533782959 61.81441879272461 L 28.81562232971191 62.02861785888672 C 28.78920745849609 62.07275772094727 28.15554618835449 63.13002014160156 27.01162338256836 64.92797088623047 L 25.80694580078125 66.82143402099609 L 25.2046070098877 64.65957641601563 C 23.3215160369873 57.90103530883789 21.54894638061523 52.10691070556641 21.53125381469727 52.04917526245117 L 21.50337600708008 51.95815658569336 L 21.49317741394043 51.86352920532227 L 17.7485294342041 17.14419746398926 C 17.35209465026855 15.1943302154541 15.80021858215332 13.93096828460693 14.56362342834473 13.21318912506104 C 12.88626956939697 12.23955821990967 10.76745414733887 11.68114280700684 8.750484466552734 11.68114280700684 C 8.115407943725586 11.68114280700684 7.505607604980469 11.7370662689209 6.938069343566895 11.84732723236084 C 5.08611536026001 12.20723533630371 3.881176948547363 13.09232711791992 3.254376888275146 14.55320453643799 C 2.665684461593628 15.9252815246582 2.591115236282349 17.77322006225586 3.0327308177948 20.04572677612305 L 3.037730693817139 20.07146644592285 L 3.041376829147339 20.09741973876953 L 7.875759601593018 54.52182769775391 C 8.463657379150391 55.95370864868164 14.19321441650391 69.97559356689453 16.53522300720215 78.18671417236328 C 16.61357688903809 78.46129608154297 16.69676208496094 78.74526214599609 16.78249931335449 79.03074645996094 L 16.92770004272461 79.5142822265625 L 16.62483787536621 79.91822052001953 C 11.54399967193604 86.69477081298828 5.875352382659912 93.67723846435547 5.000776290893555 94.75115966796875 L -1.656535983085632 114.4787368774414 C -1.650373697280884 116.1166076660156 -1.531795620918274 119.088493347168 -0.8543462157249451 121.713249206543 C -0.3871000409126282 123.5235748291016 0.5175461173057556 125.7805709838867 2.173838376998901 126.2523727416992 C 2.776376962661743 126.4239883422852 3.45526909828186 126.5110015869141 4.191699981689453 126.510986328125 C 5.78242301940918 126.5109558105469 7.478561401367188 126.107421875 8.84523868560791 125.4038467407227 C 10.13262271881104 124.741096496582 10.94700717926025 123.8987121582031 11.07956123352051 123.0927276611328 L 11.08756160736084 123.0440826416016 L 11.10029983520508 122.9964370727539 L 16.60920715332031 102.4152374267578 L 16.64316177368164 102.2884063720703 L 16.70870018005371 102.1746368408203 C 16.72659301757813 102.1435852050781 18.52849960327148 99.02089691162109 21.18877601623535 94.85807800292969 L 22.18613052368164 93.29741668701172 L 22.94388389587402 94.98744964599609 C 23.65214538574219 96.56706237792969 24.11997604370117 97.55045318603516 24.1246223449707 97.56018829345703 L 24.22939300537109 97.78017425537109 L 24.22123908996582 98.02366638183594 L 23.41515922546387 122.0990219116211 C 24.14023017883301 125.5613632202148 27.20600700378418 128.0622863769531 30.74665451049805 128.0619964599609 M 30.74674606323242 129.0619964599609 C 26.75909996032715 129.0623321533203 23.20093154907227 126.2428970336914 22.41180801391602 122.1822052001953 L 23.22179222106934 97.99020385742188 C 23.22179222106934 97.99020385742188 22.75359153747559 97.00726318359375 22.03140830993652 95.39657592773438 C 19.35274696350098 99.58815765380859 17.5752067565918 102.6738052368164 17.5752067565918 102.6738052368164 L 12.06630039215088 123.2550048828125 C 11.66724491119385 125.6816101074219 7.721295833587646 127.5109252929688 4.19171667098999 127.510986328125 C 3.39086127281189 127.5110015869141 2.611609697341919 127.4168395996094 1.899899959564209 127.214111328125 C -1.948500037193298 126.1179122924805 -2.659500122070313 118.6074066162109 -2.656792402267456 114.315299987793 L 4.111207485198975 94.25971221923828 C 4.111207485198975 94.25971221923828 10.27873039245605 86.71532440185547 15.82474613189697 79.31834411621094 C 15.73837661743164 79.03073120117188 15.65445423126221 78.74443817138672 15.57360744476318 78.46111297607422 C 13.10309982299805 69.79949951171875 6.903007507324219 54.78569793701172 6.903007507324219 54.78569793701172 L 2.051100015640259 20.23649597167969 C 1.1556077003479 15.62849617004395 2.139299869537354 11.76120471954346 6.747300148010254 10.86569690704346 C 7.385581970214844 10.74168109893799 8.060027122497559 10.68114280700684 8.750486373901367 10.68114280700684 C 13.04569530487061 10.68114280700684 17.96651840209961 13.02305316925049 18.73800849914551 16.99289703369141 L 22.48740768432617 51.75629806518555 C 22.48740768432617 51.75629806518555 24.25922393798828 57.5407600402832 26.16791534423828 64.39117431640625 C 27.31766891479492 62.58403396606445 27.95760726928711 61.5150032043457 27.95760726928711 61.5150032043457 L 30.02580833435059 20.25900459289551 C 31.63810157775879 17.67840003967285 34.40863800048828 16.26179122924805 37.24238967895508 16.26179122924805 C 38.78081893920898 16.26179122924805 40.33772659301758 16.67918968200684 41.73840713500977 17.55449676513672 C 45.72000885009766 20.0420970916748 46.93050003051758 25.28640365600586 44.44290161132813 29.26709747314453 C 44.44290161132813 29.26709747314453 44.46989822387695 65.08620452880859 41.65110015869141 70.06409454345703 C 39.36249923706055 74.10366821289063 36.28463745117188 76.37894439697266 31.98802375793457 81.45203399658203 C 34.97920608520508 88.52168273925781 38.17350006103516 95.08409881591797 38.17350006103516 95.08409881591797 L 39.09870147705078 118.938606262207 C 39.99420928955078 123.5466079711914 36.98550033569336 128.0079193115234 32.37749862670898 128.904296875 C 31.83019256591797 129.0106658935547 31.28420829772949 129.0619354248047 30.74674606323242 129.0619964599609 Z"/>
    </g>
  </g>
</svg>
