<svg xmlns="http://www.w3.org/2000/svg" xmlns:xlink="http://www.w3.org/1999/xlink" width="400.374" height="625.591" viewBox="0 0 400.374 625.591">
  <defs>
    <style>
      .cls-1 {
        fill: #acacab;
      }

      .cls-2 {
        fill: #5893ff;
      }

      .cls-3 {
        fill: #fb7611;
      }

      .cls-4 {
        fill: none;
        stroke: #a29f9f;
        stroke-linecap: round;
        stroke-width: 5px;
      }

      .cls-5 {
        clip-path: url(#clip-path);
      }
    </style>
    <clipPath id="clip-path">
      <path id="Union_11" data-name="Union 11" class="cls-1" d="M60.8,209.9v-71.27H56.792V209.9c0,12.651-28.75,13.073-28.75,0V87.176H22.092v44.7c-4.68,8.856-21.274,5.409-22.092,0v-48.5C0,72.026,19.351,62.717,35.4,62.717H84.872c19.389,0,32.092,10.542,32.092,20.664v48.5c0,9.278-21.395,9.278-21.395,0v-44.7H90.221V209.9c0,6.483-7.07,9.647-14.279,9.647C68.613,219.543,61.14,216.273,60.8,209.9ZM29.954,27.485C29.954,12.305,42.987,0,59.064,0s29.11,12.305,29.11,27.485S75.141,54.97,59.064,54.97,29.954,42.665,29.954,27.485Z" transform="translate(1026.037 711)"/>
    </clipPath>
  </defs>
  <g id="h5-erfenvangenen-svg" transform="translate(-998.436 -113.952)">
    <g id="man-woman_icon" data-name="man-woman icon" transform="translate(1285.985 113.952)">
      <ellipse id="Ellipse_176" data-name="Ellipse 176" class="cls-2" cx="24.015" cy="24.015" rx="24.015" ry="24.015" transform="translate(33.041 0)"/>
      <path id="Path_165" data-name="Path 165" class="cls-2" d="M402.894-372.983v-74.166c0-15.478-12.253-31.6-30.956-31.6H324.214c-15.478,0-34.145,14.237-34.145,31.6v74.166c.789,8.271,16.8,13.543,21.31,0v-68.361h5.741v187.672c0,19.992,27.732,19.348,27.732,0V-362.665h3.87v108.991c.645,19.348,28.376,19.992,28.376,0V-441.345h5.159v68.361C382.257-358.8,402.894-358.8,402.894-372.983Z" transform="translate(-290.069 533.547)"/>
    </g>
    <g id="man-woman_icon-2" data-name="man-woman icon" transform="translate(998.436 113.952)">
      <ellipse id="Ellipse_175" data-name="Ellipse 175" class="cls-3" cx="23.99" cy="23.99" rx="23.99" ry="23.99" transform="translate(43.486 0)"/>
      <path id="Path_164" data-name="Path 164" class="cls-3" d="M79.187-323.215V-239.8c-.126,15.155-22.683,15.155-22.883,0v-83.411H26.778l31.741-111.46H53.351L34.9-371.194c-4.665,14.04-23.65,8.356-19.192-6.643l20.668-68.648c2.377-7.883,12.312-21.8,29.526-22.144H99.117c16.718.34,26.694,14.379,29.526,22.144L156.5-375.539c4.193,14.925-14.642,21.052-19.192,6.643l-25.637-65.78H105.76l32.479,111.46H107.975V-239.8c.236,15.155-22.233,15.08-22.145,0v-83.411Z" transform="translate(-15.033 523.253)"/>
    </g>
    <path id="ch2-1" class="cls-3" d="M12.437,87.412c-2.522-.954-2.646-6.233-2.444-9.23L12.772,66.63a46.146,46.146,0,0,0,10.766-9.239c.337-.418.661-.846.974-1.279a77.193,77.193,0,0,0-7.4-7.9L-1.133,13.16C-2.658,10.286-2.832,7.5-.08,5.906S7.307,4.518,8.832,7.392L26.421,42.83a32.239,32.239,0,0,0,1.918,6.706,45.181,45.181,0,0,0,1.908-4.606L34.221,5.2a5.542,5.542,0,0,1,7.958-1.316,6.123,6.123,0,0,1,1.26,8.311S41.122,48.23,39,51.568c-1.4,2.2-3.874,3.05-6.664,4.923a54.966,54.966,0,0,0,7.18,7.483l2.67,14.921a6.09,6.09,0,0,1-2.221,8.088,5.572,5.572,0,0,1-7.744-2.319L30.591,69.143a25.8,25.8,0,0,0-2.919-8.349,41.186,41.186,0,0,0-6.291,12.369L19.42,85.143c-.354,1.558-2.735,2.606-4.966,2.606A5.755,5.755,0,0,1,12.437,87.412Z" transform="translate(1172.94 425.379) rotate(-178)"/>
    <path id="ch2-1-2" data-name="ch2-1" class="cls-2" d="M3.354.125C.261.731-.4,3.347.2,6.464L7.191,44.375a74.046,74.046,0,0,1,5.083,10.552A47.016,47.016,0,0,1,2.76,63.76l-2,11.332c0,2.9.476,7.984,3.059,8.725s6.5-.664,6.824-2.678L11.8,69.452a41.3,41.3,0,0,1,2.6-7.378c.78,2.766,1.185,4.21,1.185,4.21L12.543,81.058a5.707,5.707,0,1,0,11.2-2.194l1.879-14.546a44.1,44.1,0,0,1-5.795-10.2c3.329-3.133,6.6-4.009,8.129-6.725,1.893-3.367,1.8-38.267,1.8-38.267A5.776,5.776,0,0,0,27.938,1.2a5.68,5.68,0,0,0-7.862,1.829L18.765,41.611s-.315,1.173-.964,2.938c-.144-1.417-.15-2.223-.15-2.223L11.4,4.269C10.884,1.584,7.581,0,4.7,0A7.019,7.019,0,0,0,3.354.125Z" transform="matrix(-0.999, -0.035, 0.035, -0.999, 1274.311, 422.377)"/>
    <g id="Group_17" data-name="Group 17" transform="translate(87 -159)">
      <path id="ch2-1-3" data-name="ch2-1" class="cls-3" d="M33.7,77.356,32.1,62.818a24.155,24.155,0,0,0-3.866-9.453c-3.3-4.9-9.318-10.148-9.318-10.148L1.071,10.379c-1.492-2.692-1.662-5.3,1.03-6.8s7.226-1.3,8.718,1.391l17.206,33.2a29.475,29.475,0,0,0,4.016,10.366,47.9,47.9,0,0,0,8.8,9.439l2.611,13.977a5.573,5.573,0,1,1-9.748,5.4ZM51.063,79.3c-2.467-.893-2.589-5.838-2.391-8.645l2.718-10.821a44.754,44.754,0,0,0,10.532-8.654,42.244,42.244,0,0,0,6.563-11.673L72.372,2.3A5.573,5.573,0,0,1,81.389,8.85S79.123,42.6,77.051,45.729s-6.567,3.337-10.877,8.394a37.641,37.641,0,0,0-6.362,11.834L57.894,77.18c-.346,1.459-2.676,2.44-4.857,2.44A5.852,5.852,0,0,1,51.063,79.3Z" transform="translate(1204.09 895.817) rotate(-178)"/>
      <path id="ch2-1-4" data-name="ch2-1" class="cls-2" d="M49.519,78.57l2.973-14.321s-.855-3.028-2.475-8.706-5.726-12.53-5.726-12.53L37.463,6.265c-.587-3.021.058-5.557,3.08-6.144s7.274,1,7.862,4.017L54.51,41.026a42.454,42.454,0,0,0,1.543,9.612c1.517,5.7,6.243,11.705,6.243,11.705l-1.835,14.1A5.573,5.573,0,1,1,49.519,78.57Zm-46.531,4C.464,81.853,0,76.929,0,74.115L1.956,63.13a44.759,44.759,0,0,0,9.9-9.367,42.253,42.253,0,0,0,5.733-12.1L18.873,4.267a5.573,5.573,0,0,1,9.453,5.906S28.418,44,26.57,47.266,20.252,51.053,16.305,56.4a37.645,37.645,0,0,0-5.521,12.249L9.653,79.976c-.262,1.591-2.848,2.791-5.163,2.791A5.517,5.517,0,0,1,2.988,82.572Z" transform="matrix(-0.999, -0.035, 0.035, -0.999, 1190.812, 898.391)"/>
    </g>
    <g id="Group_16" data-name="Group 16" transform="translate(-173.575 899.86) rotate(-41)">
      <line id="Line_52" data-name="Line 52" class="cls-4" x2="87" transform="translate(1292.461 606.33) rotate(-49)"/>
      <path id="Path_163" data-name="Path 163" class="cls-4" d="M0,0-20.667,21,0,42" transform="translate(1290.39 576.704) rotate(-49)"/>
    </g>
    <g id="Mask_Group_5" data-name="Mask Group 5" class="cls-5" transform="translate(49 -191)">
      <rect id="Rectangle_111" data-name="Rectangle 111" class="cls-3" width="59" height="229" transform="translate(1026 704)"/>
      <rect id="Rectangle_112" data-name="Rectangle 112" class="cls-2" width="59" height="229" transform="translate(1085 704)"/>
    </g>
  </g>
</svg>
