<svg xmlns="http://www.w3.org/2000/svg" xmlns:xlink="http://www.w3.org/1999/xlink" width="400.374" height="825.591" viewBox="0 0 400.374 825.591">
  <defs>
    <style>
      .cls-1 {
        fill: #acacab;
      }

      .cls-2 {
        fill: #5893ff;
      }

      .cls-3 {
        fill: #fb7611;
      }

      .cls-10, .cls-4, .cls-8 {
        fill: none;
      }

      .cls-4 {
        stroke: #a29f9f;
        stroke-width: 5px;
      }

      .cls-4, .cls-8 {
        stroke-linecap: round;
      }

      .cls-5 {
        clip-path: url(#clip-path);
      }

      .cls-6 {
        fill: rgba(255,82,82,0.76);
        stroke: #ff5252;
        stroke-width: 4px;
      }

      .cls-7 {
        fill: #fff;
      }

      .cls-8 {
        stroke: #fff;
        stroke-width: 2px;
      }

      .cls-9 {
        stroke: none;
      }
    </style>
    <clipPath id="clip-path">
      <path id="Union_11" data-name="Union 11" class="cls-1" d="M60.8,209.9v-71.27H56.792V209.9c0,12.651-28.75,13.073-28.75,0V87.176H22.092v44.7c-4.68,8.856-21.274,5.409-22.092,0v-48.5C0,72.026,19.351,62.717,35.4,62.717H84.872c19.389,0,32.092,10.542,32.092,20.664v48.5c0,9.278-21.395,9.278-21.395,0v-44.7H90.221V209.9c0,6.483-7.07,9.647-14.279,9.647C68.613,219.543,61.14,216.273,60.8,209.9ZM29.954,27.485C29.954,12.305,42.987,0,59.064,0s29.11,12.305,29.11,27.485S75.141,54.97,59.064,54.97,29.954,42.665,29.954,27.485Z" transform="translate(1026.037 711)"/>
    </clipPath>
  </defs>
  <g id="h5-erfenvangenen-svg" transform="translate(-998.436 -113.952)">
    <g id="man-woman_icon" data-name="man-woman icon" transform="translate(1285.985 113.952)">
      <ellipse id="Ellipse_176" data-name="Ellipse 176" class="cls-2" cx="24.015" cy="24.015" rx="24.015" ry="24.015" transform="translate(33.041 0)"/>
      <path id="Path_165" data-name="Path 165" class="cls-2" d="M402.894-372.983v-74.166c0-15.478-12.253-31.6-30.956-31.6H324.214c-15.478,0-34.145,14.237-34.145,31.6v74.166c.789,8.271,16.8,13.543,21.31,0v-68.361h5.741v187.672c0,19.992,27.732,19.348,27.732,0V-362.665h3.87v108.991c.645,19.348,28.376,19.992,28.376,0V-441.345h5.159v68.361C382.257-358.8,402.894-358.8,402.894-372.983Z" transform="translate(-290.069 533.547)"/>
    </g>
    <g id="man-woman_icon-2" data-name="man-woman icon" transform="translate(998.436 113.952)">
      <ellipse id="Ellipse_175" data-name="Ellipse 175" class="cls-3" cx="23.99" cy="23.99" rx="23.99" ry="23.99" transform="translate(43.486 0)"/>
      <path id="Path_164" data-name="Path 164" class="cls-3" d="M79.187-323.215V-239.8c-.126,15.155-22.683,15.155-22.883,0v-83.411H26.778l31.741-111.46H53.351L34.9-371.194c-4.665,14.04-23.65,8.356-19.192-6.643l20.668-68.648c2.377-7.883,12.312-21.8,29.526-22.144H99.117c16.718.34,26.694,14.379,29.526,22.144L156.5-375.539c4.193,14.925-14.642,21.052-19.192,6.643l-25.637-65.78H105.76l32.479,111.46H107.975V-239.8c.236,15.155-22.233,15.08-22.145,0v-83.411Z" transform="translate(-15.033 523.253)"/>
    </g>
    <path id="ch2-1" class="cls-3" d="M19.652,123.7c-3.763-1.363-3.948-8.9-3.646-13.186l4.145-16.5s9.545-5.449,16.062-13.2c.5-.6.986-1.208,1.452-1.827A112.505,112.505,0,0,0,26.628,67.707L-.594,17.623C-2.87,13.517-3.129,9.536.977,7.259S12,5.276,14.273,9.382L40.514,60.01a44.52,44.52,0,0,0,2.861,9.58,63,63,0,0,0,2.847-6.58L52.151,6.253A8.5,8.5,0,0,1,65.9,16.246s-3.457,51.478-6.617,56.246c-2.085,3.147-5.78,4.357-9.942,7.033a80.268,80.268,0,0,0,10.712,10.69l3.983,21.316a8.5,8.5,0,0,1-14.868,8.241L46.735,97.6A35.77,35.77,0,0,0,42.38,85.673c-6.356,7.668-9.385,17.671-9.385,17.671L30.069,120.46c-.528,2.226-4.081,3.722-7.409,3.722A8.93,8.93,0,0,1,19.652,123.7Z" transform="translate(1100.076 566.15) rotate(-178)"/>
    <path id="ch2-1-2" data-name="ch2-1" class="cls-2" d="M5,.185C.388,1.08-.6,4.947.3,9.555L10.713,65.6a109.121,109.121,0,0,1,7.573,15.6A69.867,69.867,0,0,1,4.112,94.26L1.127,111.012c0,4.292.709,11.8,4.557,12.9s9.677-.982,10.167-3.959l1.725-17.278a60.732,60.732,0,0,1,3.88-10.908c1.163,4.089,1.766,6.224,1.766,6.224l-4.534,21.841a8.5,8.5,0,1,0,16.687-3.244l2.8-21.5A65.086,65.086,0,0,1,29.54,80.007c4.96-4.631,9.836-5.927,12.111-9.942,2.82-4.978,2.678-56.572,2.678-56.572A8.5,8.5,0,0,0,29.911,4.483L27.957,61.515s-.469,1.734-1.436,4.343c-.215-2.094-.223-3.287-.223-3.287L16.987,6.312C16.215,2.342,11.294,0,7,0A10.536,10.536,0,0,0,5,.185Z" transform="matrix(-0.999, -0.035, 0.035, -0.999, 1363.311, 563.377)"/>
    <g id="Group_17" data-name="Group 17" transform="translate(134 -4)">
      <path id="ch2-1-3" data-name="ch2-1" class="cls-3" d="M-59.8,122.578l-2.437-22.172a36.84,36.84,0,0,0-5.9-14.417C-73.156,78.515-82.34,70.511-82.34,70.511l-27.223-50.084c-2.275-4.106-2.534-8.087,1.571-10.364s11.021-1.984,13.3,2.122l26.241,50.629a44.954,44.954,0,0,0,6.125,15.809c4.886,7.551,13.417,14.4,13.417,14.4l3.982,21.317a8.5,8.5,0,0,1-3.313,11.555,8.464,8.464,0,0,1-4.113,1.067A8.5,8.5,0,0,1-59.8,122.578Zm26.48,2.972c-3.763-1.363-3.948-8.9-3.646-13.185l4.145-16.5s9.545-5.448,16.062-13.2,10.01-17.8,10.01-17.8L-.817,8.1A8.5,8.5,0,0,1,12.936,18.1S9.479,69.574,6.319,74.343-3.7,79.432-10.27,87.144s-9.7,18.049-9.7,18.049L-22.9,122.31c-.528,2.225-4.081,3.722-7.408,3.722A8.925,8.925,0,0,1-33.316,125.55Z" transform="translate(1136.076 940.15) rotate(-178)"/>
      <path id="ch2-1-4" data-name="ch2-1" class="cls-2" d="M76.652,117.807l4.534-21.841s-1.3-4.618-3.775-13.279-8.733-19.111-8.733-19.111L58.264,7.531c-.9-4.608.089-8.475,4.7-9.371S74.056-.32,74.952,4.288l9.311,56.26a64.749,64.749,0,0,0,2.353,14.66C88.929,83.9,96.138,93.06,96.138,93.06l-2.8,21.5a8.5,8.5,0,1,1-16.687,3.244Zm-70.968,6.1c-3.848-1.1-4.559-8.607-4.557-12.9L4.111,94.26s9.141-6.1,15.1-14.287,8.744-18.458,8.744-18.458L29.912,4.484a8.5,8.5,0,0,1,14.417,9.008s.141,51.594-2.678,56.572S32.015,75.839,26,83.993s-8.42,18.681-8.42,18.681l-1.724,17.278c-.4,2.427-4.344,4.257-7.874,4.256A8.415,8.415,0,0,1,5.684,123.911Z" transform="matrix(-0.999, -0.035, 0.035, -0.999, 1228.311, 941.377)"/>
    </g>
    <g id="Group_16" data-name="Group 16" transform="translate(-169.575 1055.86) rotate(-41)">
      <line id="Line_52" data-name="Line 52" class="cls-4" x2="87" transform="translate(1292.461 606.33) rotate(-49)"/>
      <path id="Path_163" data-name="Path 163" class="cls-4" d="M0,0-20.667,21,0,42" transform="translate(1290.39 576.704) rotate(-49)"/>
    </g>
    <g id="Mask_Group_5" data-name="Mask Group 5" class="cls-5" transform="translate(92 9)">
      <rect id="Rectangle_111" data-name="Rectangle 111" class="cls-3" width="59" height="229" transform="translate(1026 704)"/>
      <rect id="Rectangle_112" data-name="Rectangle 112" class="cls-2" width="59" height="229" transform="translate(1085 704)"/>
    </g>
    <g id="Ellipse_177" data-name="Ellipse 177" class="cls-6" transform="translate(1118 502)">
      <circle class="cls-9" cx="11.5" cy="11.5" r="11.5"/>
      <circle class="cls-10" cx="11.5" cy="11.5" r="9.5"/>
    </g>
    <ellipse id="Ellipse_178" data-name="Ellipse 178" class="cls-7" cx="6.864" cy="4.696" rx="6.864" ry="4.696" transform="translate(1263.314 516.669) rotate(-21)"/>
    <path id="Path_170" data-name="Path 170" class="cls-8" d="M0,.579l1.983.529A15.4,15.4,0,0,0,6.408,2.252c3.183,0,4.774-2.039,7.261-2.238,1.788-.165,5.438,1.2,7.51,1.343,2.631.176,3.385-.778,3.385-.778" transform="translate(1275.245 516.5) rotate(-21)"/>
  </g>
</svg>
