<svg xmlns="http://www.w3.org/2000/svg" width="905.247" height="945.766" viewBox="0 0 905.247 945.766">
  <defs>
    <style>
      .cls-1, .cls-11 {
        fill: #ff5252;
      }

      .cls-2 {
        fill: #5893ff;
      }

      .cls-3 {
        fill: #4b0b67;
      }

      .cls-4 {
        fill: #fb7611;
      }

      .cls-5, .cls-6, .cls-7, .cls-9 {
        fill: none;
      }

      .cls-5 {
        stroke: #9a906a;
      }

      .cls-5, .cls-6, .cls-7 {
        stroke-width: 20px;
      }

      .cls-6 {
        stroke: #d6c992;
      }

      .cls-7 {
        stroke: #b9ae80;
      }

      .cls-8 {
        fill: rgba(255,82,82,0.55);
      }

      .cls-9 {
        stroke: #a29f9f;
        stroke-linecap: round;
        stroke-width: 5px;
      }

      .cls-10, .cls-11 {
        stroke: none;
      }
    </style>
  </defs>
  <g id="h5-replicatieRNA-svg" transform="translate(-523.895 51.765)">
    <g id="dna" transform="translate(3961.743 -4832.466) rotate(41)">
      <rect id="Rectangle_14" data-name="Rectangle 14" class="cls-1" width="83.084" height="27.927" transform="translate(1326.084 6310.472)"/>
      <path id="Path_16" data-name="Path 16" class="cls-2" d="M0,0H83.084V27.927H0Z" transform="translate(1326.084 6262.996)"/>
      <rect id="Rectangle_15" data-name="Rectangle 15" class="cls-3" width="83.084" height="27.927" transform="translate(1243 6310.472)"/>
      <rect id="Rectangle_17" data-name="Rectangle 17" class="cls-4" width="83.084" height="27.927" transform="translate(1243 6262.996)"/>
      <rect id="Rectangle_18" data-name="Rectangle 18" class="cls-4" width="83.084" height="27.927" transform="translate(1326.084 6025.774)"/>
      <rect id="Rectangle_21" data-name="Rectangle 21" class="cls-3" width="83.084" height="27.927" transform="translate(1326.084 5542.486)"/>
      <rect id="Rectangle_25" data-name="Rectangle 25" class="cls-1" width="83.084" height="27.927" transform="translate(1326.084 5501.991)"/>
      <path id="Path_17" data-name="Path 17" class="cls-1" d="M0,0H83.084V27.927H0Z" transform="translate(1326.084 5953.464)"/>
      <path id="Path_20" data-name="Path 20" class="cls-1" d="M0,0H83.084V27.927H0Z" transform="translate(1326.084 5886.471)"/>
      <path id="Path_18" data-name="Path 18" class="cls-2" d="M0,0H83.084V27.927H0Z" transform="translate(1326.084 5814.16)"/>
      <path id="Path_19" data-name="Path 19" class="cls-4" d="M0,0H83.084V27.927H0Z" transform="translate(1326.084 5741.85)"/>
      <rect id="Rectangle_19" data-name="Rectangle 19" class="cls-2" width="83.084" height="27.927" transform="translate(980.035 6035.739)"/>
      <rect id="Rectangle_22" data-name="Rectangle 22" class="cls-1" width="83.084" height="27.927" transform="translate(1243 5542.486)"/>
      <rect id="Rectangle_26" data-name="Rectangle 26" class="cls-3" width="83.084" height="27.927" transform="translate(1243 5501.991)"/>
      <rect id="Rectangle_20" data-name="Rectangle 20" class="cls-3" width="83.084" height="27.927" transform="translate(980.035 5963.429)"/>
      <rect id="Rectangle_27" data-name="Rectangle 27" class="cls-3" width="83.084" height="27.927" transform="translate(980.035 5896.436)"/>
      <rect id="Rectangle_23" data-name="Rectangle 23" class="cls-4" width="83.084" height="27.927" transform="translate(980.035 5824.125)"/>
      <rect id="Rectangle_24" data-name="Rectangle 24" class="cls-2" width="83.084" height="27.927" transform="translate(980.035 5751.815)"/>
      <path id="Path_14" data-name="Path 14" class="cls-5" d="M0-122.783V7.127L165.668,111.056V462.815L0,576.832V738.609" transform="translate(1243.349 5615.5)"/>
      <path id="Path_15" data-name="Path 15" class="cls-6" d="M430.668-122.783V7.127L0,111.056V462.815L430.668,576.832V738.609" transform="translate(978.349 5615.5)"/>
    </g>
    <g id="Group_15" data-name="Group 15" transform="translate(1019.284 486.322) rotate(-101)">
      <rect id="Rectangle_110" data-name="Rectangle 110" class="cls-3" width="83.084" height="27.927" transform="matrix(0.454, -0.891, 0.891, 0.454, 0, 88.199)"/>
      <rect id="Rectangle_109" data-name="Rectangle 109" class="cls-4" width="83.084" height="27.927" transform="matrix(0.454, -0.891, 0.891, 0.454, 55.945, 121.645)"/>
      <rect id="Rectangle_108" data-name="Rectangle 108" class="cls-2" width="83.084" height="27.927" transform="matrix(0.454, -0.891, 0.891, 0.454, 120.374, 154.473)"/>
      <path id="Path_162" data-name="Path 162" class="cls-7" d="M-23.922,293.707,0,216.78l103.058-53.96L171.531,0h0" transform="translate(9.348 170.252) rotate(-83)"/>
    </g>
    <g id="Path_161" data-name="Path 161" class="cls-8" transform="matrix(-0.899, -0.438, 0.438, -0.899, 1209.838, 641.395)">
      <path class="cls-10" d="M 171.3688812255859 145.1102752685547 C 171.3669738769531 145.1102752685547 171.3657531738281 145.1102752685547 171.3638305664063 145.1102752685547 L 158.7616119384766 145.0929565429688 L 145.6743316650391 145.0751800537109 C 83.78033447265625 145.0751800537109 10.0000171661377 137.4113311767578 10.0000171661377 100.9006881713867 C 9.999972343444824 88.29468536376953 40.51197052001953 71.10741424560547 58.74224472045898 60.8383674621582 C 61.90606307983398 59.05618667602539 64.95124816894531 57.34054946899414 67.791015625 55.69741439819336 C 76.78406524658203 50.49373245239258 84.77742767333984 43.44945907592773 92.50765228271484 36.6370964050293 C 108.0516967773438 22.9387321472168 122.7336959838867 10.0000057220459 145.6742858886719 10.0000057220459 C 193.7724761962891 10.0000057220459 219.1355590820313 38.11104965209961 241.5129699707031 62.91291427612305 L 243.7143859863281 65.35073089599609 L 245.0272064208984 66.79973602294922 C 276.9527587890625 102.0123672485352 281.0398254394531 112.3126449584961 281.3150939941406 115.106689453125 C 281.3110656738281 123.8227767944336 278.0249328613281 133.6533660888672 253.6517028808594 139.5714111328125 C 232.5854797363281 144.6864624023438 202.7092437744141 145.1102752685547 171.3688812255859 145.1102752685547 Z"/>
      <path class="cls-11" d="M 171.3719635009766 135.1101989746094 C 218.5559539794922 135.1101989746094 268.8192749023438 133.6291351318359 271.221435546875 116.3033828735352 C 269.6360168457031 112.48095703125 263.2040405273438 101.7360916137695 237.6184692382813 73.51614379882813 L 236.2983551025391 72.05914306640625 L 234.0883026123047 69.61175537109375 C 213.1070251464844 46.35725784301758 189.3263549804688 20.00003623962402 145.6743011474609 20.00003623962402 C 126.5112380981445 20.00003623962402 113.8174591064453 31.18659210205078 99.11923980712891 44.13959121704102 C 91.0230712890625 51.2744255065918 82.65123748779297 58.65220260620117 72.79929351806641 64.35286712646484 C 69.92801666259766 66.01425933837891 66.84918212890625 67.7491455078125 63.65023803710938 69.55109405517578 C 51.25696182250977 76.53220367431641 22.23412895202637 92.88064575195313 20.0000171661377 100.9007034301758 C 20.0000171661377 122.2996444702148 66.98107147216797 135.0751495361328 145.6743011474609 135.0751495361328 L 158.7767944335938 135.0929260253906 L 171.3719635009766 135.1101989746094 M 171.3643035888672 155.1102142333984 C 162.9636383056641 155.1101989746094 154.3659362792969 155.0751495361328 145.6743011474609 155.0751495361328 C 68.90673828125 155.0751495361328 1.757812424330041e-05 143.7234802246094 1.757812424330041e-05 100.9007034301758 C 1.757812424330041e-05 80.00303649902344 38.80329513549805 60.91714859008789 62.78268432617188 47.0419807434082 C 88.18357086181641 32.34414672851563 106.369514465332 3.574625588953495e-05 145.6743011474609 3.574625588953495e-05 C 199.9490203857422 3.574625588953495e-05 228.391845703125 33.50542449951172 251.1303558349609 58.64231491088867 C 260.7652282714844 69.29275512695313 291.3110046386719 102.4398727416992 291.3110046386719 114.9869232177734 C 291.3110046386719 152.9613494873047 237.1611480712891 155.1103820800781 171.3643035888672 155.1102142333984 Z"/>
    </g>
    <g id="Group_16" data-name="Group 16" transform="translate(-56 22)">
      <line id="Line_52" data-name="Line 52" class="cls-9" x2="87" transform="translate(1292.461 606.33) rotate(-49)"/>
      <path id="Path_163" data-name="Path 163" class="cls-9" d="M0,0-20.667,21,0,42" transform="translate(1290.39 576.704) rotate(-49)"/>
    </g>
  </g>
</svg>
