<svg xmlns="http://www.w3.org/2000/svg" width="614.467" height="660.691" viewBox="0 0 614.467 660.691">
  <g id="h4-DNA_EIWITp6-svg" data-name="h4-DNA+EIWITp6-svg" transform="translate(-1080.944 -159.291)">
    <g id="dna" transform="translate(1538.375 165.578) rotate(41)">
      <rect id="Rectangle_14" data-name="Rectangle 14" width="99.128" height="33.32" transform="translate(99.127 634.152)" fill="#ff5252"/>
      <path id="Path_16" data-name="Path 16" d="M0,0H99.128V33.32H0Z" transform="translate(99.127 577.508)" fill="#5893ff"/>
      <rect id="Rectangle_15" data-name="Rectangle 15" width="99.128" height="33.32" transform="translate(0 634.152)" fill="#4b0b67"/>
      <rect id="Rectangle_17" data-name="Rectangle 17" width="99.128" height="33.32" transform="translate(0 577.508)" fill="#fb7611"/>
      <rect id="Rectangle_18" data-name="Rectangle 18" width="99.128" height="33.32" transform="translate(99.127 417.571)" fill="#fb7611"/>
      <rect id="Rectangle_21" data-name="Rectangle 21" width="99.128" height="33.32" transform="translate(99.128 59.379)" fill="#4b0b67"/>
      <rect id="Rectangle_25" data-name="Rectangle 25" width="99.128" height="33.32" transform="translate(99.128 11.065)" fill="#ff5252"/>
      <path id="Path_17" data-name="Path 17" d="M0,0H99.128V33.32H0Z" transform="translate(99.127 360.927)" fill="#ff5252"/>
      <path id="Path_20" data-name="Path 20" d="M0,0H99.128V33.32H0Z" transform="translate(99.127 308.447)" fill="#5893ff"/>
      <path id="Path_18" data-name="Path 18" d="M0,0H99.128V33.32H0Z" transform="translate(99.128 251.803)" fill="#ff5252"/>
      <path id="Path_19" data-name="Path 19" d="M0,0H99.128V33.32H0Z" transform="translate(99.128 195.159)" fill="#fb7611"/>
      <rect id="Rectangle_19" data-name="Rectangle 19" width="99.128" height="33.32" transform="translate(0 417.571)" fill="#5893ff"/>
      <rect id="Rectangle_22" data-name="Rectangle 22" width="99.128" height="33.32" transform="translate(0 59.38)" fill="#ff5252"/>
      <rect id="Rectangle_26" data-name="Rectangle 26" width="99.128" height="33.32" transform="translate(0 11.065)" fill="#4b0b67"/>
      <rect id="Rectangle_20" data-name="Rectangle 20" width="99.128" height="33.32" transform="translate(0 360.927)" fill="#4b0b67"/>
      <rect id="Rectangle_27" data-name="Rectangle 27" width="99.128" height="33.32" transform="translate(0 308.448)" fill="#fb7611"/>
      <rect id="Rectangle_23" data-name="Rectangle 23" width="99.128" height="33.32" transform="translate(0 251.803)" fill="#4b0b67"/>
      <rect id="Rectangle_24" data-name="Rectangle 24" width="99.128" height="33.32" transform="translate(0 195.159)" fill="#5893ff"/>
      <path id="Path_14" data-name="Path 14" d="M0,0V103.491l197.659,82.793V466.508L0,557.339V686.215" transform="translate(0.417 0)" fill="none" stroke="#9a906a" stroke-width="20"/>
      <path id="Path_15" data-name="Path 15" d="M197.659,0V103.491L0,186.285V466.508l197.659,90.83V686.215" transform="translate(0.417 0)" fill="none" stroke="#d6c992" stroke-width="20"/>
    </g>
    <g id="Rectangle_106" data-name="Rectangle 106" transform="translate(1209.203 449.747) rotate(-49)" fill="none" stroke="#000" stroke-linecap="round" stroke-linejoin="round" stroke-width="15">
      <rect width="212.951" height="325.717" stroke="none"/>
      <rect x="7.5" y="7.5" width="197.951" height="310.717" fill="none"/>
    </g>
  </g>
</svg>
