<svg xmlns="http://www.w3.org/2000/svg" xmlns:xlink="http://www.w3.org/1999/xlink" width="1029.125" height="598" viewBox="0 0 1029.125 598">
  <defs>
    <clipPath id="clip-path">
      <rect id="Rectangle_36" data-name="Rectangle 36" width="382" height="586" transform="translate(1305 5622)" fill="#fff"/>
    </clipPath>
    <clipPath id="clip-path-2">
      <rect id="Rectangle_38" data-name="Rectangle 38" width="284" height="290" transform="translate(1176 6792)" fill="#fff" stroke="#707070" stroke-width="1"/>
    </clipPath>
    <clipPath id="clip-path-3">
      <rect id="Rectangle_52" data-name="Rectangle 52" width="391" height="295" transform="translate(1063.874 6796.01)" fill="#fff" stroke="#707070" stroke-width="1"/>
    </clipPath>
  </defs>
  <g id="h4-TwordtU-svg" transform="translate(-630.875 -203)">
    <g id="dna_streng_uitgelegd" data-name="dna streng uitgelegd" transform="translate(196 -5389)">
      <g id="border" transform="translate(830 5592)" fill="none" stroke="#000" stroke-linecap="round" stroke-linejoin="round" stroke-width="20">
        <rect width="338" height="478" stroke="none"/>
        <rect x="10" y="10" width="318" height="458" fill="none"/>
      </g>
      <g id="Mask_Group_1" data-name="Mask Group 1" transform="translate(-455 -18)" clip-path="url(#clip-path)">
        <g id="dna" transform="translate(2155.641 5857.834) rotate(90)">
          <rect id="Rectangle_27" data-name="Rectangle 27" width="232.904" height="78.287" transform="translate(-206 724.709)" fill="#4b0b67"/>
          <path id="Path_15" data-name="Path 15" d="M.166,534.641V831.808" transform="translate(-206.166 13.514)" fill="none" stroke="#d6c992" stroke-width="20"/>
          <rect id="Rectangle_23" data-name="Rectangle 23" width="232.904" height="78.287" transform="translate(-109.365 566.811) rotate(-20)" fill="#fb7611"/>
          <rect id="Rectangle_103" data-name="Rectangle 103" width="232.904" height="78.287" transform="translate(64.411 633.153) rotate(20)" fill="#fb7611"/>
        </g>
      </g>
      <g id="Mask_Group_2" data-name="Mask Group 2" transform="translate(4 -1083)" clip-path="url(#clip-path-2)">
        <g id="dna-2" data-name="dna" transform="translate(6952.635 5701.91) rotate(90)">
          <rect id="Rectangle_21" data-name="Rectangle 21" width="116.568" height="39.182" transform="translate(1235.568 5562.543)" fill="#4b0b67"/>
          <rect id="Rectangle_25" data-name="Rectangle 25" width="116.568" height="39.182" transform="translate(1235.568 5505.728)" fill="#ff5252"/>
          <rect id="Rectangle_24" data-name="Rectangle 24" width="116.568" height="39.182" transform="translate(1111 5722.211)" fill="#5893ff"/>
          <path id="Path_15-2" data-name="Path 15" d="M248.478-122.783v121.7L0,96.276V425.8L248.478,532.612V684.163" transform="translate(1111.09 5615.5)" fill="none" stroke="#d6c992" stroke-width="20"/>
        </g>
      </g>
      <g id="Mask_Group_3" data-name="Mask Group 3" transform="translate(-629 -1083)" clip-path="url(#clip-path-3)">
        <g id="dna-3" data-name="dna" transform="translate(7363.635 5742) rotate(90)">
          <rect id="Rectangle_39" data-name="Rectangle 39" width="116.568" height="39.182" transform="translate(1211.478 6238.44)" fill="#ff5252"/>
          <path id="Path_50" data-name="Path 50" d="M0,0H116.568V39.182H0Z" transform="translate(1211.478 6171.83)" fill="#5893ff"/>
          <rect id="Rectangle_45" data-name="Rectangle 45" width="116.568" height="39.182" transform="translate(1071 5983.754)" fill="#5893ff"/>
          <rect id="Rectangle_48" data-name="Rectangle 48" width="106.568" height="36.182" transform="translate(1081 5920.145)" fill="#4b0b67"/>
          <path id="Path_56" data-name="Path 56" d="M257.045-122.783v121.7L0,96.276V425.8L257.045,532.612V684.163" transform="translate(1071 5615.5)" fill="none" stroke="#d6c992" stroke-width="20"/>
        </g>
      </g>
      <text id="T" transform="translate(1132.281 5872.948) rotate(-20)" fill="#fff" font-size="40" font-family="DroidSans-Bold, Droid Sans" font-weight="700"><tspan x="0" y="0">T</tspan></text>
      <text id="U" transform="translate(971.046 6007.03) rotate(20)" fill="#fff" font-size="40" font-family="DroidSans-Bold, Droid Sans" font-weight="700"><tspan x="0" y="0">U</tspan></text>
      <text id="C" transform="translate(922 5754)" fill="#fff" font-size="40" font-family="DroidSans-Bold, Droid Sans" font-weight="700"><tspan x="0" y="0">C</tspan></text>
    </g>
    <path id="Path_151" data-name="Path 151" d="M2.189,2.624,19,43" transform="translate(1254.5 305.5)" fill="none" stroke="#707070" stroke-linecap="round" stroke-width="7"/>
    <path id="Path_152" data-name="Path 152" d="M2.1,1.714,19,43" transform="translate(1143.962 787.778) rotate(-138)" fill="none" stroke="#707070" stroke-linecap="round" stroke-width="7"/>
    <line id="Line_47" data-name="Line 47" x2="23" y2="56" transform="translate(1264.5 287.5)" fill="none" stroke="#707070" stroke-linecap="round" stroke-width="7"/>
    <line id="Line_49" data-name="Line 49" y1="56.043" x2="21.365" transform="translate(1117.5 736.457)" fill="none" stroke="#707070" stroke-linecap="round" stroke-width="7"/>
    <line id="Line_48" data-name="Line 48" x2="11" y2="28" transform="translate(1291.5 310.5)" fill="none" stroke="#707070" stroke-linecap="round" stroke-width="7"/>
    <path id="Path_153" data-name="Path 153" d="M4.46-2.164l11.055,29.81" transform="translate(1110.812 759.304) rotate(-138)" fill="none" stroke="#707070" stroke-linecap="round" stroke-width="7"/>
  </g>
</svg>
