<svg xmlns="http://www.w3.org/2000/svg" xmlns:xlink="http://www.w3.org/1999/xlink" width="1021.684" height="576" viewBox="0 0 1021.684 576">
  <defs>
    <clipPath id="clip-path">
      <rect id="Rectangle_38" data-name="Rectangle 38" width="244" height="290" transform="translate(0)" fill="#fff" stroke="#707070" stroke-width="1"/>
    </clipPath>
    <clipPath id="clip-path-2">
      <rect id="Rectangle_52" data-name="Rectangle 52" width="317.558" height="295" fill="#fff" stroke="#707070" stroke-width="1"/>
    </clipPath>
  </defs>
  <g id="h4-vormingEIWIT-svg" transform="translate(-727.316 -178)">
    <g id="h4-TwordtU-svg" transform="translate(766.874 208)">
      <g id="Group_12" data-name="Group 12" transform="translate(415.126 -52)">
        <g id="dna" transform="translate(5.32 556.166) rotate(-90)">
          <rect id="Rectangle_27" data-name="Rectangle 27" width="232.904" height="78.287" transform="translate(0 54.326)" fill="#5893ff"/>
          <rect id="Rectangle_105" data-name="Rectangle 105" width="232.904" height="78.287" transform="translate(0 178.326)" fill="#ff5252"/>
          <rect id="Rectangle_104" data-name="Rectangle 104" width="232.904" height="78.287" transform="translate(0 -80.674)" fill="#ff5252"/>
          <path id="Path_15" data-name="Path 15" d="M0,297.166V-125.051" transform="translate(0 0)" fill="none" stroke="#d6c992" stroke-width="20"/>
        </g>
      </g>
      <g id="border" transform="translate(279.126 161)" fill="none" stroke="#000" stroke-linecap="round" stroke-linejoin="round" stroke-width="20">
        <rect width="454" height="385" stroke="none"/>
        <rect x="10" y="10" width="434" height="365" fill="none"/>
      </g>
      <g id="Mask_Group_2" data-name="Mask Group 2" transform="translate(738.125 191)" clip-path="url(#clip-path)">
        <g id="dna-2" data-name="dna" transform="translate(-449.488 269.09) rotate(-90)">
          <rect id="Rectangle_21" data-name="Rectangle 21" width="116.568" height="33.673" transform="translate(124.568 599.804)" fill="#4b0b67"/>
          <rect id="Rectangle_25" data-name="Rectangle 25" width="116.568" height="33.673" transform="translate(124.568 648.631)" fill="#ff5252"/>
          <rect id="Rectangle_24" data-name="Rectangle 24" width="116.568" height="33.673" transform="translate(0 462.586)" fill="#5893ff"/>
          <path id="Path_15-2" data-name="Path 15" d="M248.478,693.486V588.9L0,505.228V222.035l248.478-91.793V0" transform="translate(0.09)" fill="none" stroke="#d6c992" stroke-width="20"/>
        </g>
      </g>
      <g id="Mask_Group_3" data-name="Mask Group 3" transform="translate(-39.558 184.99)" clip-path="url(#clip-path-2)">
        <g id="dna-3" data-name="dna" transform="translate(0.08 278.01) rotate(-90)">
          <rect id="Rectangle_39" data-name="Rectangle 39" width="116.568" height="31.823" transform="translate(140.478 17.9)" fill="#ff5252"/>
          <path id="Path_50" data-name="Path 50" d="M0,31.823H116.568V0H0Z" transform="translate(140.478 71.999)" fill="#5893ff"/>
          <rect id="Rectangle_45" data-name="Rectangle 45" width="116.568" height="31.823" transform="translate(0 224.748)" fill="#5893ff"/>
          <rect id="Rectangle_48" data-name="Rectangle 48" width="106.568" height="29.386" transform="translate(10 278.847)" fill="#4b0b67"/>
          <path id="Path_56" data-name="Path 56" d="M257.045,655.376V556.536L0,477.463V209.833l257.045-86.748V0" transform="translate(0)" fill="none" stroke="#d6c992" stroke-width="20"/>
        </g>
      </g>
      <text id="A" transform="translate(502.126 388)" fill="#fff" font-size="40" font-family="DroidSans-Bold, Droid Sans" font-weight="700"><tspan x="0" y="0">A</tspan></text>
      <text id="G" transform="translate(363.126 388)" fill="#fff" font-size="40" font-family="DroidSans-Bold, Droid Sans" font-weight="700"><tspan x="0" y="0">G</tspan></text>
      <text id="G-2" data-name="G" transform="translate(628.126 388)" fill="#fff" font-size="40" font-family="DroidSans-Bold, Droid Sans" font-weight="700"><tspan x="0" y="0">G</tspan></text>
      <text id="Glucose" transform="translate(315.126 63)" fill="#fff" font-size="100" font-family="DroidSans-Bold, Droid Sans" font-weight="700"><tspan x="0" y="0">Glucose</tspan></text>
    </g>
    <text id="GAG" transform="translate(1228 329)" fill="#b2b2b1" font-size="50" font-family="DroidSans-Bold, Droid Sans" font-weight="700" opacity="0.73"><tspan x="0" y="0">GAG</tspan></text>
  </g>
</svg>
