<svg xmlns="http://www.w3.org/2000/svg" width="490.251" height="348.87" viewBox="0 0 490.251 348.87">
  <g id="bigboy_cel" data-name="bigboy cel" transform="translate(-1163.774 -4644.535)">
    <g id="Path_12" data-name="Path 12" transform="translate(1571.262 4634.241) rotate(77)" fill="#280636">
      <path d="M 192.1711883544922 411.8350830078125 C 104.5895843505859 411.8350830078125 28.95145225524902 411.8350830078125 27.85318565368652 237.1226959228516 C 27.69478607177734 211.9241027832031 27.14332008361816 188.8681030273438 26.63951873779297 167.8245697021484 C 23.41191864013672 32.99803161621094 22.43785285949707 -7.693102836608887 125.1419219970703 -12.14350318908691 C 127.9208526611328 -12.26390266418457 130.6577911376953 -12.32370281219482 133.3215789794922 -12.32370281219482 C 238.8136596679688 -12.32370281219482 253.0053863525391 81.85263061523438 258.5000610351563 178.3132934570313 C 262.0087280273438 239.9102325439453 268.5397338867188 354.5656433105469 229.1080474853516 396.3073120117188 C 219.2377166748047 406.7558898925781 207.1555786132813 411.8350830078125 192.1711883544922 411.8350830078125 Z" stroke="none"/>
      <path d="M 133.3215179443359 -2.32373046875 C 130.7987518310547 -2.32373046875 128.2065887451172 -2.26690673828125 125.5748291015625 -2.15289306640625 C 35.51705932617188 1.749481201171875 33.29827880859375 28.13119506835938 36.63667297363281 167.5852661132813 C 37.14173889160156 188.6823425292969 37.69429016113281 211.7971038818359 37.85305786132813 237.0598754882813 C 38.88882446289063 401.8351135253906 103.1836700439453 401.8351135253906 192.1711273193359 401.8351135253906 C 204.4232788085938 401.8351135253906 213.8503570556641 397.8965759277344 221.8387451171875 389.4402465820313 C 258.3109741210938 350.8313293457031 251.6954345703125 234.6944122314453 248.5162048339844 178.8819580078125 C 243.0767517089844 83.39035034179688 230.1735229492188 -2.32373046875 133.3215179443359 -2.32373046875 M 133.321533203125 -22.32376098632813 C 255.3878021240234 -22.32376098632813 263.8116455078125 95.72317504882813 268.4838256835938 177.7445678710938 C 273.2633666992188 261.6505737304688 282.0649108886719 421.8351135253906 192.1711273193359 421.8351135253906 C 102.2774353027344 421.8351135253906 19.01174926757813 421.4586486816406 17.85342407226563 237.1855621337891 C 16.69512939453125 52.91250610351563 -5.56280517578125 -16.48919677734375 124.7089691162109 -22.13412475585938 C 127.635009765625 -22.26092529296875 130.5168151855469 -22.32376098632813 133.321533203125 -22.32376098632813 Z" stroke="none" fill="#4b0b67"/>
    </g>
    <ellipse id="Ellipse_31" data-name="Ellipse 31" cx="4.5" cy="5" rx="4.5" ry="5" transform="translate(1274 4905)" fill="#ff5252"/>
    <ellipse id="Ellipse_32" data-name="Ellipse 32" cx="4.5" cy="5" rx="4.5" ry="5" transform="translate(1294 4875)" fill="#ff5252"/>
    <ellipse id="Ellipse_33" data-name="Ellipse 33" cx="4.5" cy="5" rx="4.5" ry="5" transform="translate(1254 4855)" fill="#ff5252"/>
    <ellipse id="Ellipse_34" data-name="Ellipse 34" cx="4.5" cy="5" rx="4.5" ry="5" transform="translate(1284 4805)" fill="#ff5252"/>
    <ellipse id="Ellipse_35" data-name="Ellipse 35" cx="4.5" cy="5" rx="4.5" ry="5" transform="translate(1356 4895)" fill="#ff5252"/>
    <ellipse id="Ellipse_36" data-name="Ellipse 36" cx="4.5" cy="5" rx="4.5" ry="5" transform="translate(1567.405 4763.917) rotate(-161)" fill="#ff5252"/>
    <ellipse id="Ellipse_37" data-name="Ellipse 37" cx="4.5" cy="5" rx="4.5" ry="5" transform="translate(1538.728 4785.771) rotate(-161)" fill="#ff5252"/>
    <ellipse id="Ellipse_38" data-name="Ellipse 38" cx="4.5" cy="5" rx="4.5" ry="5" transform="translate(1570.037 4817.704) rotate(-161)" fill="#ff5252"/>
    <ellipse id="Ellipse_39" data-name="Ellipse 39" cx="4.5" cy="5" rx="4.5" ry="5" transform="translate(1525.393 4855.213) rotate(-161)" fill="#ff5252"/>
    <ellipse id="Ellipse_40" data-name="Ellipse 40" cx="4.5" cy="5" rx="4.5" ry="5" transform="translate(1461.405 4859.917) rotate(-161)" fill="#ff5252"/>
    <ellipse id="Ellipse_41" data-name="Ellipse 41" cx="4.5" cy="5" rx="4.5" ry="5" transform="translate(1391.728 4857.771) rotate(-161)" fill="#ff5252"/>
    <path id="Path_13" data-name="Path 13" d="M5.3,8.035c25.384-9.25,61.953-2.581,76.581,6.023S47.458,47.616,47.458,47.616-5.03,59.663-19.658,51.058-20.088,17.285,5.3,8.035Z" transform="translate(1365 4758)" fill="#39e7d0"/>
    <g id="KERN_DNAAAAA" data-name="KERN DNAAAAA" transform="translate(-248.573 81.385) rotate(-3)">
      <line id="Line_12" data-name="Line 12" x2="9" y2="10" transform="translate(1356.5 4788.5)" fill="none" stroke="#000" stroke-linecap="round" stroke-width="1"/>
      <line id="Line_13" data-name="Line 13" x1="10" y2="12" transform="translate(1395.198 4781.828)" fill="none" stroke="#000" stroke-linecap="round" stroke-width="1"/>
      <line id="Line_14" data-name="Line 14" x2="10" transform="translate(1376.5 4788.5)" fill="none" stroke="#000" stroke-linecap="round" stroke-width="1"/>
      <line id="Line_15" data-name="Line 15" y1="5" x2="8" transform="translate(1393.5 4774.5)" fill="none" stroke="#000" stroke-linecap="round" stroke-width="1"/>
      <line id="Line_16" data-name="Line 16" x2="4" y2="5" transform="translate(1420.543 4779.868)" fill="none" stroke="#000" stroke-linecap="round" stroke-width="1"/>
      <line id="Line_17" data-name="Line 17" x1="6" y2="5" transform="translate(1409.705 4789.663)" fill="none" stroke="#000" stroke-linecap="round" stroke-width="1"/>
      <line id="Line_18" data-name="Line 18" x1="10" y2="3" transform="translate(1386.5 4800.5)" fill="none" stroke="#000" stroke-linecap="round" stroke-width="1"/>
      <line id="Line_19" data-name="Line 19" x1="5" y1="9" transform="translate(1376.5 4765.5)" fill="none" stroke="#000" stroke-linecap="round" stroke-width="1"/>
      <line id="Line_20" data-name="Line 20" x2="8" y2="1" transform="translate(1406.5 4770.5)" fill="none" stroke="#000" stroke-linecap="round" stroke-width="1"/>
      <line id="Line_21" data-name="Line 21" x2="5" y2="2" transform="translate(1433.588 4777.131)" fill="none" stroke="#000" stroke-linecap="round" stroke-width="1"/>
      <line id="Line_22" data-name="Line 22" x1="6" y2="2" transform="translate(1361.5 4778.5)" fill="none" stroke="#000" stroke-linecap="round" stroke-width="1"/>
    </g>
  </g>
</svg>
