<svg xmlns="http://www.w3.org/2000/svg" width="555.629" height="222.483" viewBox="0 0 555.629 222.483">
  <g id="bluyeprint" transform="translate(-193.359 -2671.224)">
    <path id="Path_6" data-name="Path 6" d="M19.548,2484.236l275.3,101s-23.432-2.732-45.085,5.479-41.526,27.366-41.526,27.366-12.281,14.475-34.68,22.969-54.916,11.007-54.916,11.007S72,2650.671,42,2662.049c-22.076,8.372-40.526,23.4-50.966,33.115-5.325,4.954-15.2,11.06-15.2,11.06l-6.816-9.174-229.656-111.816s30.832-26.569,66.482-39.1,76.119-11.032,76.119-11.032,26.338-3.109,47.437-11.032,15.955-12.242,31.992-19.857,15.246-10.451,29.786-15.445A88.669,88.669,0,0,1,19.548,2484.236Z" transform="translate(454 187)" fill="#5893ff"/>
    <path id="Path_8" data-name="Path 8" d="M-10.151,2696.556H-30.937l6.526,10.151Z" transform="translate(454 187)" fill="#001541" opacity="0.2"/>
    <path id="Path_9" data-name="Path 9" d="M17.1,2504.29s-39.647,11.523-59.809,32.563c-6.672,4.125-25.676,10.191-55.934,12.007-18.154,1.21-32.782,1.353-45.386,4.841-28.822,7.978-42.925,18.384-42.925,18.384l167.432,80.121s17.7-14.707,35.672-23.181a134.037,134.037,0,0,1,36.232-10.716l-102.719-46.224s34.15-3.851,54.508-16.379,59.51-31.9,59.51-31.9Z" transform="translate(454 187)" fill="none" stroke="#fff" stroke-width="1"/>
    <path id="Path_10" data-name="Path 10" d="M294.988,2585.3a179.294,179.294,0,0,0-22.5.246c-9.539.951-12.374,2.171-12.374,2.171S3.293,2487.991-.639,2486.853s19.99-2.362,19.99-2.362Z" transform="translate(454 187)" fill="#001541" opacity="0.2"/>
    <path id="Path_7" data-name="Path 7" d="M-71.258,2524.314l258.8,110.072s-14.342,12.295-66.908,17.646c-3.741.234-22.209-.234-31.275,1.108-5.331.625-24.357,2.735-24.357,2.735l-245.272-114a282.418,282.418,0,0,1,32.287-5.491c16.328-1.672,15.866-1.025,30.012-1.454a206.761,206.761,0,0,0,33.776-6.641C-77.064,2526.282-71.258,2524.314-71.258,2524.314Z" transform="translate(454 187)" fill="#001541" opacity="0.2"/>
    <path id="Path_11" data-name="Path 11" d="M87.7,2544.743s-28.741,13.466-41.791,28.082-33.075,13.068-33.075,13.068L100,2626.087s33.408.522,44.37-13.572S178,2582.327,178,2582.327Z" transform="translate(449 185)" fill="none" stroke="#fff" stroke-width="1"/>
  </g>
</svg>
