<svg xmlns="http://www.w3.org/2000/svg" width="695.548" height="951.017" viewBox="0 0 695.548 951.017">
  <g id="confetti_dna" data-name="confetti dna" transform="translate(-1214.045 -5518.512)">
    <path id="Path_47" data-name="Path 47" d="M0,20.2H60.1V0H0Z" transform="translate(1545.645 6469.529) rotate(-138)" fill="#5893ff"/>
    <path id="Path_33" data-name="Path 33" d="M0,0H60.1V20.2H0Z" transform="translate(1562.846 6325.252) rotate(-98)" fill="#5893ff"/>
    <path id="Path_30" data-name="Path 30" d="M0,0H60.1V20.2H0Z" transform="matrix(0.799, -0.602, 0.602, 0.799, 1434.44, 6213.572)" fill="#5893ff"/>
    <path id="Path_22" data-name="Path 22" d="M0,0H60.1V20.2H0Z" transform="translate(1555.704 6088.98) rotate(98)" fill="#4b0b67"/>
    <rect id="Rectangle_35" data-name="Rectangle 35" width="60.096" height="20.2" transform="matrix(0.695, 0.719, -0.719, 0.695, 1228.576, 6356.593)" fill="#fb7611"/>
    <rect id="Rectangle_32" data-name="Rectangle 32" width="60.096" height="20.2" transform="translate(1407.401 6315.925) rotate(-138)" fill="#fb7611"/>
    <rect id="Rectangle_34" data-name="Rectangle 34" width="60.096" height="20.2" transform="translate(1563.34 6408.583) rotate(-98)" fill="#fb7611"/>
    <rect id="Rectangle_31" data-name="Rectangle 31" width="60.096" height="20.2" transform="translate(1508.912 6318.042) rotate(-138)" fill="#fb7611"/>
    <path id="Path_48" data-name="Path 48" d="M0,20.2H60.1V0H0Z" transform="translate(1440.997 6447.036) rotate(-79)" fill="#ff5252"/>
    <path id="Path_43" data-name="Path 43" d="M0,0H60.1V20.2H0Z" transform="translate(1790.106 6384.858) rotate(60)" fill="#4b0b67"/>
    <rect id="Rectangle_33" data-name="Rectangle 33" width="60.096" height="20.2" transform="matrix(0.799, -0.602, 0.602, 0.799, 1652.466, 6427.491)" fill="#fb7611"/>
    <path id="Path_49" data-name="Path 49" d="M0,20.2H60.1V0H0Z" transform="translate(1322.168 6384.015) rotate(-74)" fill="#ff5252"/>
    <path id="Path_32" data-name="Path 32" d="M0,0H60.1V20.2H0Z" transform="matrix(-0.921, -0.391, 0.391, -0.921, 1413.907, 6247.244)" fill="#ff5252"/>
    <g id="confetti_dna-2" data-name="confetti dna">
      <path id="Path_21" data-name="Path 21" d="M0,0H60.1V20.2H0Z" transform="translate(1588.559 6031.778) rotate(41)" fill="#5893ff"/>
      <path id="Path_41" data-name="Path 41" d="M0,0H60.1V20.2H0Z" transform="translate(1844.432 5810.91) rotate(-137)" fill="#5893ff"/>
      <path id="Path_46" data-name="Path 46" d="M0,0H60.1V20.2H0Z" transform="matrix(0.391, -0.921, 0.921, 0.391, 1825.307, 6025.744)" fill="#5893ff"/>
      <path id="Path_37" data-name="Path 37" d="M0,0H60.1V20.2H0Z" transform="matrix(0.105, 0.995, -0.995, 0.105, 1880.372, 5518.512)" fill="#5893ff"/>
      <path id="Path_27" data-name="Path 27" d="M0,0H60.1V20.2H0Z" transform="matrix(-0.208, 0.978, -0.978, -0.208, 1758.737, 6031.822)" fill="#5893ff"/>
      <path id="Path_40" data-name="Path 40" d="M0,0H60.1V20.2H0Z" transform="translate(1677.36 5633.927) rotate(-76)" fill="#5893ff"/>
      <path id="Path_42" data-name="Path 42" d="M0,0H60.1V20.2H0Z" transform="translate(1714.422 6366.51) rotate(-114)" fill="#5893ff"/>
      <path id="Path_38" data-name="Path 38" d="M0,0H60.1V20.2H0Z" transform="translate(1879.264 5754.889) rotate(-80)" fill="#4b0b67"/>
      <path id="Path_34" data-name="Path 34" d="M0,0H60.1V20.2H0Z" transform="translate(1625.171 6303.636) rotate(-41)" fill="#4b0b67"/>
      <path id="Path_35" data-name="Path 35" d="M0,0H60.1V20.2H0Z" transform="translate(1817.331 5537.94) rotate(141)" fill="#4b0b67"/>
      <path id="Path_28" data-name="Path 28" d="M0,0H60.1V20.2H0Z" transform="matrix(0.899, 0.438, -0.438, 0.899, 1821.941, 5894.08)" fill="#4b0b67"/>
      <rect id="Rectangle_28" data-name="Rectangle 28" width="60.096" height="20.2" transform="matrix(-0.105, 0.995, -0.995, -0.105, 1873.047, 6187.631)" fill="#fb7611"/>
      <rect id="Rectangle_30" data-name="Rectangle 30" width="60.096" height="20.2" transform="matrix(1, 0.017, -0.017, 1, 1633.994, 6001.836)" fill="#fb7611"/>
      <path id="Path_23" data-name="Path 23" d="M0,0H60.1V20.2H0Z" transform="matrix(0.951, -0.309, 0.309, 0.951, 1604.143, 6128.939)" fill="#ff5252"/>
      <path id="Path_39" data-name="Path 39" d="M0,0H60.1V20.2H0Z" transform="translate(1832.249 5713.265) rotate(164)" fill="#ff5252"/>
      <path id="Path_44" data-name="Path 44" d="M0,0H60.1V20.2H0Z" transform="translate(1885.321 6333.67) rotate(126)" fill="#ff5252"/>
      <path id="Path_31" data-name="Path 31" d="M0,0H60.1V20.2H0Z" transform="matrix(-0.921, -0.391, 0.391, -0.921, 1614.828, 6241.7)" fill="#ff5252"/>
      <path id="Path_36" data-name="Path 36" d="M0,0H60.1V20.2H0Z" transform="translate(1825.506 5600.199) rotate(25)" fill="#ff5252"/>
      <path id="Path_24" data-name="Path 24" d="M0,0H60.1V20.2H0Z" transform="translate(1695.559 5838.778) rotate(41)" fill="#5893ff"/>
      <path id="Path_25" data-name="Path 25" d="M0,0H60.1V20.2H0Z" transform="translate(1725.704 5694.98) rotate(98)" fill="#4b0b67"/>
      <path id="Path_26" data-name="Path 26" d="M0,0H60.1V20.2H0Z" transform="translate(1815.942 6080.211) rotate(90)" fill="#ff5252"/>
      <path id="Path_45" data-name="Path 45" d="M0,0H60.1V20.2H0Z" transform="matrix(-0.809, -0.588, 0.588, -0.809, 1784.214, 6281.092)" fill="#ff5252"/>
      <path id="Path_29" data-name="Path 29" d="M0,0H60.1V20.2H0Z" transform="matrix(0.951, -0.309, 0.309, 0.951, 1752.143, 5858.939)" fill="#ff5252"/>
    </g>
  </g>
</svg>
