<svg xmlns="http://www.w3.org/2000/svg" width="517.46" height="555.882" viewBox="0 0 517.46 555.882">
  <g id="dna" transform="translate(3050.06 -4954.556) rotate(41)">
    <rect id="Rectangle_14" data-name="Rectangle 14" width="83.084" height="27.927" transform="translate(1326.084 6024.233)" fill="#ff5252"/>
    <path id="Path_16" data-name="Path 16" d="M0,0H83.084V27.927H0Z" transform="translate(1326.084 5976.756)" fill="#5893ff"/>
    <rect id="Rectangle_15" data-name="Rectangle 15" width="83.084" height="27.927" transform="translate(1243 6024.233)" fill="#4b0b67"/>
    <rect id="Rectangle_17" data-name="Rectangle 17" width="83.084" height="27.927" transform="translate(1243 5976.756)" fill="#fb7611"/>
    <rect id="Rectangle_18" data-name="Rectangle 18" width="83.084" height="27.927" transform="translate(1326.084 5842.705)" fill="#fb7611"/>
    <rect id="Rectangle_21" data-name="Rectangle 21" width="83.084" height="27.927" transform="translate(1326.084 5542.486)" fill="#4b0b67"/>
    <rect id="Rectangle_25" data-name="Rectangle 25" width="83.084" height="27.927" transform="translate(1326.084 5501.991)" fill="#ff5252"/>
    <path id="Path_17" data-name="Path 17" d="M0,0H83.084V27.927H0Z" transform="translate(1326.084 5795.229)" fill="#ff5252"/>
    <path id="Path_20" data-name="Path 20" d="M0,0H83.084V27.927H0Z" transform="translate(1326.084 5751.243)" fill="#ff5252"/>
    <path id="Path_18" data-name="Path 18" d="M0,0H83.084V27.927H0Z" transform="translate(1326.084 5703.766)" fill="#5893ff"/>
    <path id="Path_19" data-name="Path 19" d="M0,0H83.084V27.927H0Z" transform="translate(1326.084 5656.29)" fill="#fb7611"/>
    <rect id="Rectangle_19" data-name="Rectangle 19" width="83.084" height="27.927" transform="translate(1243 5842.705)" fill="#5893ff"/>
    <rect id="Rectangle_22" data-name="Rectangle 22" width="83.084" height="27.927" transform="translate(1243 5542.486)" fill="#ff5252"/>
    <rect id="Rectangle_26" data-name="Rectangle 26" width="83.084" height="27.927" transform="translate(1243 5501.991)" fill="#4b0b67"/>
    <rect id="Rectangle_20" data-name="Rectangle 20" width="83.084" height="27.927" transform="translate(1243 5795.229)" fill="#4b0b67"/>
    <rect id="Rectangle_27" data-name="Rectangle 27" width="83.084" height="27.927" transform="translate(1243 5751.243)" fill="#4b0b67"/>
    <rect id="Rectangle_23" data-name="Rectangle 23" width="83.084" height="27.927" transform="translate(1243 5703.766)" fill="#fb7611"/>
    <rect id="Rectangle_24" data-name="Rectangle 24" width="83.084" height="27.927" transform="translate(1243 5656.29)" fill="#5893ff"/>
    <path id="Path_14" data-name="Path 14" d="M0-122.783v86.742L165.668,33.352v234.87L0,344.351V452.37" transform="translate(1243.349 5615.5)" fill="none" stroke="#9a906a" stroke-width="20"/>
    <path id="Path_15" data-name="Path 15" d="M165.668-122.783v86.742L0,33.352v234.87l165.668,76.13V452.37" transform="translate(1243.349 5615.5)" fill="none" stroke="#d6c992" stroke-width="20"/>
  </g>
</svg>
