<svg xmlns="http://www.w3.org/2000/svg" width="1225.2" height="827.872" viewBox="0 0 1225.2 827.872">
  <g id="elipses" transform="translate(-776.268 -235.128)">
    <!-- <animateMotion path="M 3 0 -22 0 L 3 0" begin ="0s" dur="10s" fill="freeze" repeatCount="indefinite"/> -->
    <!-- <animate attributeType="CSS" attributeName="opacity" values="0.50;0.99;0.50" dur="8s" repeatCount="indefinite"/> -->
    <g id="background-elipses" transform="translate(-107.03 -98.884)">
      <animateMotion path="M 50 0 70 -980 300 L 50 0 70 -980 300" begin ="0s" dur="95s" fill="freeze" repeatCount="indefinite"/>
      <animate attributeType="CSS" attributeName="opacity" values="0.99;0;0.99" dur="30s" repeatCount="indefinite"/>
      <g id="Ellipse_1" data-name="Ellipse 1" transform="translate(1618.03 976.884)" fill="#4b0b67" stroke="#b711fe" stroke-linejoin="round" stroke-width="5">
        <circle cx="10" cy="10" r="10" stroke="none"/>
        <circle cx="10" cy="10" r="7.5" fill="none"/>
      </g>
      <g id="_3xelipse" data-name="3xelipse" transform="translate(1700.406 909.851)">
        <circle id="Ellipse_2" data-name="Ellipse 2" cx="20" cy="20" r="20" transform="translate(-0.376 0.033)" fill="#280636"/>
        <g id="Path_1" data-name="Path 1" transform="translate(5.78 5.761)" fill="#4b0b67">
          <path d="M 13.88226318359375 25.26452255249023 C 10.84195327758789 25.26452255249023 7.983613014221191 24.08056259155273 5.833793163299561 21.93073272705078 C 3.683963298797607 19.78091239929199 2.500003099441528 16.92257308959961 2.500003099441528 13.88226318359375 C 2.500003099441528 10.84195327758789 3.683963298797607 7.983613014221191 5.833793163299561 5.833793163299561 C 7.983613014221191 3.683963298797607 10.84195327758789 2.500003099441528 13.88226318359375 2.500003099441528 C 16.92257308959961 2.500003099441528 19.78091239929199 3.683963298797607 21.93073272705078 5.833793163299561 C 24.08056259155273 7.983613014221191 25.26452255249023 10.84195327758789 25.26452255249023 13.88226318359375 C 25.26452255249023 16.92257308959961 24.08056259155273 19.78091239929199 21.93073272705078 21.93073272705078 C 19.78091239929199 24.08056259155273 16.92257308959961 25.26452255249023 13.88226318359375 25.26452255249023 Z" stroke="none"/>
          <path d="M 13.88226318359375 5.000003814697266 C 8.984573364257813 5.000003814697266 5.000003814697266 8.984573364257813 5.000003814697266 13.88226318359375 C 5.000003814697266 18.77995300292969 8.984573364257813 22.76452255249023 13.88226318359375 22.76452255249023 C 18.77995300292969 22.76452255249023 22.76452255249023 18.77995300292969 22.76452255249023 13.88226318359375 C 22.76452255249023 8.984573364257813 18.77995300292969 5.000003814697266 13.88226318359375 5.000003814697266 M 13.88226318359375 3.814697265625e-06 C 21.54922294616699 3.814697265625e-06 27.76452255249023 6.215303421020508 27.76452255249023 13.88226318359375 C 27.76452255249023 21.54922294616699 21.54922294616699 27.76452255249023 13.88226318359375 27.76452255249023 C 6.215303421020508 27.76452255249023 3.814697265625e-06 21.54922294616699 3.814697265625e-06 13.88226318359375 C 3.814697265625e-06 6.215303421020508 6.215303421020508 3.814697265625e-06 13.88226318359375 3.814697265625e-06 Z" stroke="none" fill="#b711fe"/>
        </g>
      </g>
      <g id="Ellipse_3" data-name="Ellipse 3" transform="translate(1854.03 1055.884)" fill="#39e7d0" stroke="#4b0b67" stroke-linejoin="round" stroke-width="5">
        <circle cx="10" cy="10" r="10" stroke="none"/>
        <circle cx="10" cy="10" r="7.5" fill="none"/>
      </g>
      <g id="Ellipse_4" data-name="Ellipse 4" transform="translate(1779.03 806.884)" fill="#ff5252" stroke="#b711fe" stroke-linejoin="round" stroke-width="5">
        <circle cx="10" cy="10" r="10" stroke="none"/>
        <circle cx="10" cy="10" r="7.5" fill="none"/>
      </g>
      <g id="_3xelipse-2" data-name="3xelipse" transform="translate(1930.03 1103.884)">
        <circle id="Ellipse_2-2" data-name="Ellipse 2" cx="29" cy="29" r="29" transform="translate(0 0)" fill="#280636"/>
        <g id="Path_1-2" data-name="Path 1" transform="translate(8.639 9.386)" fill="#ff5252">
          <path d="M 19.98748397827148 37.4749641418457 C 15.31640434265137 37.4749641418457 10.92491436004639 35.65594482421875 7.621963977813721 32.35300445556641 C 4.319024085998535 29.0500545501709 2.500004053115845 24.6585636138916 2.500004053115845 19.98748397827148 C 2.500004053115845 15.31640434265137 4.319024085998535 10.92491436004639 7.621963977813721 7.621963977813721 C 10.92491436004639 4.319024085998535 15.31640434265137 2.500004053115845 19.98748397827148 2.500004053115845 C 24.6585636138916 2.500004053115845 29.0500545501709 4.319024085998535 32.35300445556641 7.621963977813721 C 35.65594482421875 10.92491436004639 37.4749641418457 15.31640434265137 37.4749641418457 19.98748397827148 C 37.4749641418457 24.6585636138916 35.65594482421875 29.0500545501709 32.35300445556641 32.35300445556641 C 29.0500545501709 35.65594482421875 24.6585636138916 37.4749641418457 19.98748397827148 37.4749641418457 Z" stroke="none"/>
          <path d="M 19.98748397827148 5.000003814697266 C 15.98418426513672 5.000003814697266 12.22049331665039 6.558975219726563 9.389734268188477 9.389734268188477 C 6.558975219726563 12.22049331665039 5.000003814697266 15.98418426513672 5.000003814697266 19.98748397827148 C 5.000003814697266 23.99078369140625 6.558975219726563 27.75447463989258 9.389734268188477 30.58523368835449 C 12.22049331665039 33.41599273681641 15.98418426513672 34.9749641418457 19.98748397827148 34.9749641418457 C 23.99078369140625 34.9749641418457 27.75447463989258 33.41599273681641 30.58523368835449 30.58523368835449 C 33.41599273681641 27.75447463989258 34.9749641418457 23.99078369140625 34.9749641418457 19.98748397827148 C 34.9749641418457 15.98418426513672 33.41599273681641 12.22049331665039 30.58523368835449 9.389734268188477 C 27.75447463989258 6.558975219726563 23.99078369140625 5.000003814697266 19.98748397827148 5.000003814697266 M 19.98748397827148 3.814697265625e-06 C 31.02626419067383 3.814697265625e-06 39.9749641418457 8.948703765869141 39.9749641418457 19.98748397827148 C 39.9749641418457 31.02626419067383 31.02626419067383 39.9749641418457 19.98748397827148 39.9749641418457 C 8.948703765869141 39.9749641418457 3.814697265625e-06 31.02626419067383 3.814697265625e-06 19.98748397827148 C 3.814697265625e-06 8.948703765869141 8.948703765869141 3.814697265625e-06 19.98748397827148 3.814697265625e-06 Z" stroke="none" fill="#4b0b67"/>
        </g>
      </g>
      <g id="Ellipse_5" data-name="Ellipse 5" transform="translate(1946.03 897.884)" fill="#4b0b67" stroke="#b711fe" stroke-linejoin="round" stroke-width="5">
        <circle cx="10" cy="10" r="10" stroke="none"/>
        <circle cx="10" cy="10" r="7.5" fill="none"/>
      </g>
      <circle id="Ellipse_6" data-name="Ellipse 6" cx="5" cy="5" r="5" transform="translate(1416.03 1094.884)" fill="#001541"/>
      <circle id="Ellipse_7" data-name="Ellipse 7" cx="3.5" cy="3.5" r="3.5" transform="translate(1476.03 851.884)" fill="#001541"/>
      <circle id="Ellipse_8" data-name="Ellipse 8" cx="3.5" cy="3.5" r="3.5" transform="translate(1675.03 954.884)" fill="#001541"/>
      <circle id="Ellipse_9" data-name="Ellipse 9" cx="3.5" cy="3.5" r="3.5" transform="translate(1712.03 838.884)" fill="#001541"/>
      <circle id="Ellipse_10" data-name="Ellipse 10" cx="3.5" cy="3.5" r="3.5" transform="translate(1835.03 890.884)" fill="#001541"/>
      <circle id="Ellipse_11" data-name="Ellipse 11" cx="3.5" cy="3.5" r="3.5" transform="translate(1811.03 731.884)" fill="#001541"/>
      <circle id="Ellipse_12" data-name="Ellipse 12" cx="5" cy="5" r="5" transform="translate(1973.03 761.884)" fill="#001541"/>
      <circle id="Ellipse_13" data-name="Ellipse 13" cx="5" cy="5" r="5" transform="translate(1688.03 721.884)" fill="#001541"/>
      <circle id="Ellipse_14" data-name="Ellipse 14" cx="5" cy="5" r="5" transform="translate(1576.03 825.884)" fill="#001541"/>
      <circle id="Ellipse_15" data-name="Ellipse 15" cx="3.5" cy="3.5" r="3.5" transform="translate(1539.03 1147.884)" fill="#001541"/>
      <circle id="Ellipse_18" data-name="Ellipse 18" cx="5" cy="5" r="5" transform="translate(1226.03 865.884)" fill="#ff5252"/>
    </g>
    <g id="background-elipses-2" data-name="background-elipses" transform="matrix(0.695, -0.719, 0.719, 0.695, -601.864, 1157.051)">
      <animateMotion path="M 50 0 -590 -980 300 L 50 0 -590 -980 300" begin ="0s" dur="105s" fill="freeze" repeatCount="indefinite"/>
      <animate attributeType="CSS" attributeName="opacity" values="0;0.99;0" dur="20s" repeatCount="indefinite"/>
      <g id="Ellipse_1-2" data-name="Ellipse 1" transform="translate(1618.03 976.884)" fill="#4b0b67" stroke="#b711fe" stroke-linejoin="round" stroke-width="5">
        <circle cx="10" cy="10" r="10" stroke="none"/>
        <circle cx="10" cy="10" r="7.5" fill="none"/>
      </g>
      <g id="_3xelipse-3" data-name="3xelipse" transform="translate(1700.406 909.851)">
        <circle id="Ellipse_2-3" data-name="Ellipse 2" cx="20" cy="20" r="20" transform="translate(-0.376 0.033)" fill="#280636"/>
        <g id="Path_1-3" data-name="Path 1" transform="translate(5.78 5.761)" fill="#4b0b67">
          <path d="M 13.88226318359375 25.26452255249023 C 10.84195327758789 25.26452255249023 7.983613014221191 24.08056259155273 5.833793163299561 21.93073272705078 C 3.683963298797607 19.78091239929199 2.500003099441528 16.92257308959961 2.500003099441528 13.88226318359375 C 2.500003099441528 10.84195327758789 3.683963298797607 7.983613014221191 5.833793163299561 5.833793163299561 C 7.983613014221191 3.683963298797607 10.84195327758789 2.500003099441528 13.88226318359375 2.500003099441528 C 16.92257308959961 2.500003099441528 19.78091239929199 3.683963298797607 21.93073272705078 5.833793163299561 C 24.08056259155273 7.983613014221191 25.26452255249023 10.84195327758789 25.26452255249023 13.88226318359375 C 25.26452255249023 16.92257308959961 24.08056259155273 19.78091239929199 21.93073272705078 21.93073272705078 C 19.78091239929199 24.08056259155273 16.92257308959961 25.26452255249023 13.88226318359375 25.26452255249023 Z" stroke="none"/>
          <path d="M 13.88226318359375 5.000003814697266 C 8.984573364257813 5.000003814697266 5.000003814697266 8.984573364257813 5.000003814697266 13.88226318359375 C 5.000003814697266 18.77995300292969 8.984573364257813 22.76452255249023 13.88226318359375 22.76452255249023 C 18.77995300292969 22.76452255249023 22.76452255249023 18.77995300292969 22.76452255249023 13.88226318359375 C 22.76452255249023 8.984573364257813 18.77995300292969 5.000003814697266 13.88226318359375 5.000003814697266 M 13.88226318359375 3.814697265625e-06 C 21.54922294616699 3.814697265625e-06 27.76452255249023 6.215303421020508 27.76452255249023 13.88226318359375 C 27.76452255249023 21.54922294616699 21.54922294616699 27.76452255249023 13.88226318359375 27.76452255249023 C 6.215303421020508 27.76452255249023 3.814697265625e-06 21.54922294616699 3.814697265625e-06 13.88226318359375 C 3.814697265625e-06 6.215303421020508 6.215303421020508 3.814697265625e-06 13.88226318359375 3.814697265625e-06 Z" stroke="none" fill="#b711fe"/>
        </g>
      </g>
      <g id="Ellipse_3-2" data-name="Ellipse 3" transform="translate(1854.03 1055.884)" fill="#39e7d0" stroke="#4b0b67" stroke-linejoin="round" stroke-width="5">
        <circle cx="10" cy="10" r="10" stroke="none"/>
        <circle cx="10" cy="10" r="7.5" fill="none"/>
      </g>
      <g id="Ellipse_4-2" data-name="Ellipse 4" transform="translate(1779.03 806.884)" fill="#ff5252" stroke="#b711fe" stroke-linejoin="round" stroke-width="5">
        <circle cx="10" cy="10" r="10" stroke="none"/>
        <circle cx="10" cy="10" r="7.5" fill="none"/>
      </g>
      <g id="_3xelipse-4" data-name="3xelipse" transform="translate(1930.03 1103.884)">
        <circle id="Ellipse_2-4" data-name="Ellipse 2" cx="29" cy="29" r="29" transform="translate(0 0)" fill="#280636"/>
        <g id="Path_1-4" data-name="Path 1" transform="translate(8.639 9.386)" fill="#ff5252">
          <path d="M 19.98748397827148 37.4749641418457 C 15.31640434265137 37.4749641418457 10.92491436004639 35.65594482421875 7.621963977813721 32.35300445556641 C 4.319024085998535 29.0500545501709 2.500004053115845 24.6585636138916 2.500004053115845 19.98748397827148 C 2.500004053115845 15.31640434265137 4.319024085998535 10.92491436004639 7.621963977813721 7.621963977813721 C 10.92491436004639 4.319024085998535 15.31640434265137 2.500004053115845 19.98748397827148 2.500004053115845 C 24.6585636138916 2.500004053115845 29.0500545501709 4.319024085998535 32.35300445556641 7.621963977813721 C 35.65594482421875 10.92491436004639 37.4749641418457 15.31640434265137 37.4749641418457 19.98748397827148 C 37.4749641418457 24.6585636138916 35.65594482421875 29.0500545501709 32.35300445556641 32.35300445556641 C 29.0500545501709 35.65594482421875 24.6585636138916 37.4749641418457 19.98748397827148 37.4749641418457 Z" stroke="none"/>
          <path d="M 19.98748397827148 5.000003814697266 C 15.98418426513672 5.000003814697266 12.22049331665039 6.558975219726563 9.389734268188477 9.389734268188477 C 6.558975219726563 12.22049331665039 5.000003814697266 15.98418426513672 5.000003814697266 19.98748397827148 C 5.000003814697266 23.99078369140625 6.558975219726563 27.75447463989258 9.389734268188477 30.58523368835449 C 12.22049331665039 33.41599273681641 15.98418426513672 34.9749641418457 19.98748397827148 34.9749641418457 C 23.99078369140625 34.9749641418457 27.75447463989258 33.41599273681641 30.58523368835449 30.58523368835449 C 33.41599273681641 27.75447463989258 34.9749641418457 23.99078369140625 34.9749641418457 19.98748397827148 C 34.9749641418457 15.98418426513672 33.41599273681641 12.22049331665039 30.58523368835449 9.389734268188477 C 27.75447463989258 6.558975219726563 23.99078369140625 5.000003814697266 19.98748397827148 5.000003814697266 M 19.98748397827148 3.814697265625e-06 C 31.02626419067383 3.814697265625e-06 39.9749641418457 8.948703765869141 39.9749641418457 19.98748397827148 C 39.9749641418457 31.02626419067383 31.02626419067383 39.9749641418457 19.98748397827148 39.9749641418457 C 8.948703765869141 39.9749641418457 3.814697265625e-06 31.02626419067383 3.814697265625e-06 19.98748397827148 C 3.814697265625e-06 8.948703765869141 8.948703765869141 3.814697265625e-06 19.98748397827148 3.814697265625e-06 Z" stroke="none" fill="#4b0b67"/>
        </g>
      </g>
      <g id="Ellipse_5-2" data-name="Ellipse 5" transform="translate(1946.03 897.884)" fill="#4b0b67" stroke="#b711fe" stroke-linejoin="round" stroke-width="5">
        <circle cx="10" cy="10" r="10" stroke="none"/>
        <circle cx="10" cy="10" r="7.5" fill="none"/>
      </g>
      <circle id="Ellipse_6-2" data-name="Ellipse 6" cx="5" cy="5" r="5" transform="translate(1416.03 1094.884)" fill="#001541"/>
      <circle id="Ellipse_7-2" data-name="Ellipse 7" cx="3.5" cy="3.5" r="3.5" transform="translate(1476.03 851.884)" fill="#001541"/>
      <circle id="Ellipse_8-2" data-name="Ellipse 8" cx="3.5" cy="3.5" r="3.5" transform="translate(1675.03 954.884)" fill="#001541"/>
      <circle id="Ellipse_9-2" data-name="Ellipse 9" cx="3.5" cy="3.5" r="3.5" transform="translate(1712.03 838.884)" fill="#001541"/>
      <circle id="Ellipse_10-2" data-name="Ellipse 10" cx="3.5" cy="3.5" r="3.5" transform="translate(1835.03 890.884)" fill="#001541"/>
      <circle id="Ellipse_11-2" data-name="Ellipse 11" cx="3.5" cy="3.5" r="3.5" transform="translate(1811.03 731.884)" fill="#001541"/>
      <circle id="Ellipse_12-2" data-name="Ellipse 12" cx="5" cy="5" r="5" transform="translate(1973.03 761.884)" fill="#001541"/>
      <circle id="Ellipse_13-2" data-name="Ellipse 13" cx="5" cy="5" r="5" transform="translate(1688.03 721.884)" fill="#001541"/>
      <circle id="Ellipse_14-2" data-name="Ellipse 14" cx="5" cy="5" r="5" transform="translate(1576.03 825.884)" fill="#001541"/>
      <circle id="Ellipse_15-2" data-name="Ellipse 15" cx="3.5" cy="3.5" r="3.5" transform="translate(1539.03 1147.884)" fill="#001541"/>
      <g id="Ellipse_16" data-name="Ellipse 16" transform="translate(1327.667 1188.845)" fill="#39e7d0" stroke="#4b0b67" stroke-linejoin="round" stroke-width="5">
        <circle cx="10" cy="10" r="10" stroke="none"/>
        <circle cx="10" cy="10" r="7.5" fill="none"/>
      </g>
      <g id="Ellipse_17" data-name="Ellipse 17" transform="translate(1603.181 1157.421)" fill="#ff5252" stroke="#b711fe" stroke-linejoin="round" stroke-width="5">
        <circle cx="10" cy="10" r="10" stroke="none"/>
        <circle cx="10" cy="10" r="7.5" fill="none"/>
      </g>
      <g id="_3xelipse-5" data-name="3xelipse" transform="translate(1239.008 1007.879)">
        <circle id="Ellipse_2-5" data-name="Ellipse 2" cx="25" cy="25" r="25" transform="translate(-0.376 0.033)" fill="#280636"/>
        <g id="Path_1-5" data-name="Path 1" transform="translate(5.78 5.761)" fill="#4b0b67">
          <path d="M 18.88226318359375 35.26452255249023 C 14.50640296936035 35.26452255249023 10.39245319366455 33.56047439575195 7.298253059387207 30.46627235412598 C 4.204053401947021 27.37207412719727 2.500003099441528 23.25812339782715 2.500003099441528 18.88226318359375 C 2.500003099441528 14.50640296936035 4.204053401947021 10.39245319366455 7.298253059387207 7.298253059387207 C 10.39245319366455 4.204053401947021 14.50640296936035 2.500003099441528 18.88226318359375 2.500003099441528 C 23.25812339782715 2.500003099441528 27.37207412719727 4.204053401947021 30.46627235412598 7.298253059387207 C 33.56047439575195 10.39245319366455 35.26452255249023 14.50640296936035 35.26452255249023 18.88226318359375 C 35.26452255249023 23.25812339782715 33.56047439575195 27.37207412719727 30.46627235412598 30.46627235412598 C 27.37207412719727 33.56047439575195 23.25812339782715 35.26452255249023 18.88226318359375 35.26452255249023 Z" stroke="none"/>
          <path d="M 18.88226318359375 5.000003814697266 C 15.17417335510254 5.000003814697266 11.68803405761719 6.444013595581055 9.066022872924805 9.066022872924805 C 6.444013595581055 11.68803405761719 5.000003814697266 15.17417335510254 5.000003814697266 18.88226318359375 C 5.000003814697266 22.59035301208496 6.444013595581055 26.07649230957031 9.066022872924805 28.6985034942627 C 11.68803405761719 31.32051277160645 15.17417335510254 32.76452255249023 18.88226318359375 32.76452255249023 C 22.5903434753418 32.76452255249023 26.07648277282715 31.32051277160645 28.6985034942627 28.6985034942627 C 31.32051277160645 26.07648277282715 32.76452255249023 22.5903434753418 32.76452255249023 18.88226318359375 C 32.76452255249023 15.17417335510254 31.32051277160645 11.68803405761719 28.6985034942627 9.066022872924805 C 26.07649230957031 6.444013595581055 22.59035301208496 5.000003814697266 18.88226318359375 5.000003814697266 M 18.88226318359375 3.814697265625e-06 C 29.31064224243164 3.814697265625e-06 37.76452255249023 8.453872680664063 37.76452255249023 18.88226318359375 C 37.76452255249023 29.31064224243164 29.31064224243164 37.76452255249023 18.88226318359375 37.76452255249023 C 8.453872680664063 37.76452255249023 3.814697265625e-06 29.31064224243164 3.814697265625e-06 18.88226318359375 C 3.814697265625e-06 8.453872680664063 8.453872680664063 3.814697265625e-06 18.88226318359375 3.814697265625e-06 Z" stroke="none" fill="#b711fe"/>
        </g>
      </g>
      <circle id="Ellipse_21" data-name="Ellipse 21" cx="3.5" cy="3.5" r="3.5" transform="translate(1042.933 908.68)" fill="#001541"/>
      <circle id="Ellipse_22" data-name="Ellipse 22" cx="5" cy="5" r="5" transform="translate(1143.653 881.986)" fill="#001541"/>
      <circle id="Ellipse_23" data-name="Ellipse 23" cx="3.5" cy="3.5" r="3.5" transform="translate(1245.605 892.743) rotate(76)" fill="#001541"/>
      <circle id="Ellipse_24" data-name="Ellipse 24" cx="5" cy="5" r="5" transform="translate(1295.873 984.013) rotate(76)" fill="#001541"/>
      <circle id="Ellipse_25" data-name="Ellipse 25" cx="3.5" cy="3.5" r="3.5" transform="translate(1297.298 715.136) rotate(119)" fill="#001541"/>
      <circle id="Ellipse_26" data-name="Ellipse 26" cx="5" cy="5" r="5" transform="translate(1271.816 816.169) rotate(119)" fill="#001541"/>
      <circle id="Ellipse_27" data-name="Ellipse 27" cx="3.5" cy="3.5" r="3.5" transform="translate(1363.01 888.007) rotate(119)" fill="#001541"/>
      <circle id="Ellipse_28" data-name="Ellipse 28" cx="5" cy="5" r="5" transform="translate(1407.051 985.001) rotate(119)" fill="#001541"/>
    </g>
    <g id="background-elipses-3" data-name="background-elipses" transform="matrix(0.899, 0.438, -0.438, 0.899, 553.12, -1153.68)">
      <animateMotion path="M 50 0 -1090 -980 300 L 50 0 -1090 -980 300" begin ="0s" dur="155s" fill="freeze" repeatCount="indefinite"/>
      <animate attributeType="CSS" attributeName="opacity" values="0;0.99;0" dur="60s" repeatCount="indefinite"/>
      <g id="Ellipse_1-3" data-name="Ellipse 1" transform="translate(1618.03 976.884)" fill="#4b0b67" stroke="#b711fe" stroke-linejoin="round" stroke-width="5">
        <circle cx="10" cy="10" r="10" stroke="none"/>
        <circle cx="10" cy="10" r="7.5" fill="none"/>
      </g>
      <g id="_3xelipse-6" data-name="3xelipse" transform="translate(1700.406 909.851)">
        <circle id="Ellipse_2-6" data-name="Ellipse 2" cx="20" cy="20" r="20" transform="translate(-0.376 0.033)" fill="#280636"/>
        <g id="Path_1-6" data-name="Path 1" transform="translate(5.78 5.761)" fill="#4b0b67">
          <path d="M 13.88226318359375 25.26452255249023 C 10.84195327758789 25.26452255249023 7.983613014221191 24.08056259155273 5.833793163299561 21.93073272705078 C 3.683963298797607 19.78091239929199 2.500003099441528 16.92257308959961 2.500003099441528 13.88226318359375 C 2.500003099441528 10.84195327758789 3.683963298797607 7.983613014221191 5.833793163299561 5.833793163299561 C 7.983613014221191 3.683963298797607 10.84195327758789 2.500003099441528 13.88226318359375 2.500003099441528 C 16.92257308959961 2.500003099441528 19.78091239929199 3.683963298797607 21.93073272705078 5.833793163299561 C 24.08056259155273 7.983613014221191 25.26452255249023 10.84195327758789 25.26452255249023 13.88226318359375 C 25.26452255249023 16.92257308959961 24.08056259155273 19.78091239929199 21.93073272705078 21.93073272705078 C 19.78091239929199 24.08056259155273 16.92257308959961 25.26452255249023 13.88226318359375 25.26452255249023 Z" stroke="none"/>
          <path d="M 13.88226318359375 5.000003814697266 C 8.984573364257813 5.000003814697266 5.000003814697266 8.984573364257813 5.000003814697266 13.88226318359375 C 5.000003814697266 18.77995300292969 8.984573364257813 22.76452255249023 13.88226318359375 22.76452255249023 C 18.77995300292969 22.76452255249023 22.76452255249023 18.77995300292969 22.76452255249023 13.88226318359375 C 22.76452255249023 8.984573364257813 18.77995300292969 5.000003814697266 13.88226318359375 5.000003814697266 M 13.88226318359375 3.814697265625e-06 C 21.54922294616699 3.814697265625e-06 27.76452255249023 6.215303421020508 27.76452255249023 13.88226318359375 C 27.76452255249023 21.54922294616699 21.54922294616699 27.76452255249023 13.88226318359375 27.76452255249023 C 6.215303421020508 27.76452255249023 3.814697265625e-06 21.54922294616699 3.814697265625e-06 13.88226318359375 C 3.814697265625e-06 6.215303421020508 6.215303421020508 3.814697265625e-06 13.88226318359375 3.814697265625e-06 Z" stroke="none" fill="#b711fe"/>
        </g>
      </g>
      <g id="Ellipse_3-3" data-name="Ellipse 3" transform="translate(1854.03 1055.884)" fill="#39e7d0" stroke="#4b0b67" stroke-linejoin="round" stroke-width="5">
        <circle cx="10" cy="10" r="10" stroke="none"/>
        <circle cx="10" cy="10" r="7.5" fill="none"/>
      </g>
      <g id="Ellipse_4-3" data-name="Ellipse 4" transform="translate(1779.03 806.884)" fill="#ff5252" stroke="#b711fe" stroke-linejoin="round" stroke-width="5">
        <circle cx="10" cy="10" r="10" stroke="none"/>
        <circle cx="10" cy="10" r="7.5" fill="none"/>
      </g>
      <g id="Ellipse_5-3" data-name="Ellipse 5" transform="translate(1946.03 897.884)" fill="#4b0b67" stroke="#b711fe" stroke-linejoin="round" stroke-width="5">
        <circle cx="10" cy="10" r="10" stroke="none"/>
        <circle cx="10" cy="10" r="7.5" fill="none"/>
      </g>
      <circle id="Ellipse_6-3" data-name="Ellipse 6" cx="5" cy="5" r="5" transform="translate(1416.03 1094.884)" fill="#001541"/>
      <circle id="Ellipse_7-3" data-name="Ellipse 7" cx="3.5" cy="3.5" r="3.5" transform="translate(1476.03 851.884)" fill="#001541"/>
      <circle id="Ellipse_8-3" data-name="Ellipse 8" cx="3.5" cy="3.5" r="3.5" transform="translate(1675.03 954.884)" fill="#001541"/>
      <circle id="Ellipse_9-3" data-name="Ellipse 9" cx="3.5" cy="3.5" r="3.5" transform="translate(1712.03 838.884)" fill="#001541"/>
      <circle id="Ellipse_10-3" data-name="Ellipse 10" cx="3.5" cy="3.5" r="3.5" transform="translate(1835.03 890.884)" fill="#001541"/>
      <circle id="Ellipse_11-3" data-name="Ellipse 11" cx="3.5" cy="3.5" r="3.5" transform="translate(1811.03 731.884)" fill="#001541"/>
      <circle id="Ellipse_12-3" data-name="Ellipse 12" cx="5" cy="5" r="5" transform="translate(1973.03 761.884)" fill="#001541"/>
      <circle id="Ellipse_13-3" data-name="Ellipse 13" cx="5" cy="5" r="5" transform="translate(1688.03 721.884)" fill="#001541"/>
      <circle id="Ellipse_14-3" data-name="Ellipse 14" cx="5" cy="5" r="5" transform="translate(1576.03 825.884)" fill="#001541"/>
      <circle id="Ellipse_15-3" data-name="Ellipse 15" cx="3.5" cy="3.5" r="3.5" transform="translate(1539.03 1147.884)" fill="#001541"/>
      <circle id="Ellipse_19" data-name="Ellipse 19" cx="5" cy="5" r="5" transform="matrix(0.899, -0.438, 0.438, 0.899, 1878.443, 1465.547)" fill="#ff5252"/>
      <circle id="Ellipse_20" data-name="Ellipse 20" cx="5" cy="5" r="5" transform="matrix(0.899, -0.438, 0.438, 0.899, 1833.971, 986.567)" fill="#39e7d0"/>
    </g>
  </g>
</svg>
