<svg xmlns="http://www.w3.org/2000/svg" width="95.813" height="122.717" viewBox="0 0 95.813 122.717">
  <defs>
    <style>
      .cls-1 {
        fill: #fff;
      }

      .cls-2, .cls-3 {
        stroke: none;
      }

      .cls-3 {
        fill: #707070;
      }
    </style>
  </defs>
  <g id="ch10" transform="translate(-372.768 -327.653)">
    <g id="ch10-1" class="cls-1" transform="matrix(-0.999, -0.035, 0.035, -0.999, 418.917, 452.452)">
      <path class="cls-2" d="M 28.30789184570313 122.748664855957 C 26.59319305419922 122.7487182617188 25.04266357421875 122.1539077758789 23.82394981384277 121.0285339355469 C 22.61794471740723 119.9149169921875 21.78460121154785 118.3344573974609 21.41252136230469 116.4559326171875 L 21.19498825073242 110.2229919433594 L 24.03957939147949 90.89450836181641 L 24.08149337768555 90.60971832275391 L 23.85623550415039 90.43046569824219 C 23.85447883605957 90.42906188964844 23.67734909057617 90.28801727294922 23.36699295043945 90.03379058837891 L 23.0143928527832 89.74496459960938 L 22.69425010681152 90.06940460205078 C 21.67377853393555 91.10357666015625 20.80132102966309 92.20691680908203 20.02702140808105 93.4425048828125 C 17.07835006713867 98.14659118652344 15.91292095184326 103.0020065307617 15.45449256896973 106.2468338012695 C 14.97693252563477 109.6270980834961 15.1404447555542 111.9571762084961 15.16182899475098 112.2247314453125 L 15.16540718078613 115.5191497802734 L 15.16543579101563 115.5488739013672 L 15.16899299621582 115.5784072875977 C 15.30296421051025 116.6906661987305 14.97270679473877 117.7036743164063 14.18739318847656 118.5892944335938 C 12.92527866363525 120.0126190185547 10.56357860565186 120.9323654174805 8.170706748962402 120.9324493408203 C 7.147292613983154 120.9324798583984 6.158735752105713 120.7606811523438 5.311892509460449 120.4356231689453 C 1.242215752601624 118.8729248046875 0.9475339651107788 116.2218551635742 0.5070680975914001 111.8423309326172 L 1.922621250152588 106.881706237793 L 1.935207009315491 106.8375778198242 L 1.939564108848572 106.7918319702148 C 1.942464113235474 106.7613906860352 2.240578413009644 103.6989059448242 3.198121309280396 99.58306121826172 C 4.078878402709961 95.79729461669922 5.713749885559082 90.31917572021484 8.50062084197998 85.72043609619141 C 9.678950309753418 83.77599334716797 11.06196403503418 82.15012359619141 12.72866439819336 80.74992370605469 L 13.12192153930664 80.41954803466797 L 12.78110694885254 80.03532409667969 C 9.730107307434082 76.59546661376953 8.015978813171387 73.82143402099609 7.686349868774414 71.79030609130859 C 6.595849990844727 65.07090759277344 3.785249948501587 21.22540664672852 3.756992816925049 20.78330612182617 L 3.754949808120728 20.75130653381348 L 3.748821258544922 20.71983528137207 C 3.2877357006073 18.34671974182129 3.372849941253662 16.40019226074219 4.001792907714844 14.9343204498291 C 4.689078330993652 13.33246326446533 6.050978660583496 12.3231201171875 8.049678802490234 11.93430614471436 C 8.648392677307129 11.81794929504395 9.290163993835449 11.75894927978516 9.957077980041504 11.75894927978516 C 12.05950736999512 11.75894927978516 14.26980686187744 12.34204864501953 16.02122116088867 13.35871982574463 C 17.34853744506836 14.1292028427124 19.01632690429688 15.49463176727295 19.44699668884277 17.63113212585449 C 19.5502986907959 20.04505729675293 21.47356986999512 64.77410888671875 22.28647804260254 68.93683624267578 C 22.41597938537598 69.59992218017578 22.76620674133301 70.42157745361328 23.35714912414551 71.44877624511719 L 24.0211067199707 72.60287475585938 L 24.28093528747559 71.29701995849609 C 26.15627098083496 61.87223434448242 30.7708683013916 19.64899063110352 30.98277473449707 17.70526885986328 C 31.50924491882324 16.38391876220703 32.60153198242188 15.28369331359863 34.14564895629883 14.52079200744629 C 35.59070587158203 13.80680561065674 37.39223480224609 13.41360569000244 39.21836471557617 13.41360569000244 C 40.6457633972168 13.41360569000244 42.01792144775391 13.65064907073975 43.18646240234375 14.09910583496094 C 44.06229400634766 14.43549156188965 44.75035095214844 15.11777782440186 45.23137664794922 16.12697792053223 C 45.63599395751953 16.97584915161133 45.89787673950195 18.05334854125977 46.00975036621094 19.32954978942871 C 46.20370864868164 21.54183387756348 45.87357711791992 23.57526397705078 45.87022018432617 23.59554862976074 L 45.86846542358398 23.60613441467285 L 45.86716461181641 23.61679077148438 C 45.80842208862305 24.09943389892578 39.9663200378418 71.95489501953125 37.73468017578125 78.35498046875 C 36.93515014648438 80.64794921875 35.07282257080078 82.028564453125 33.35654830932617 83.07666015625 L 32.83663558959961 83.3941650390625 L 33.24940872192383 83.84217834472656 C 33.78599548339844 84.42459106445313 34.18556213378906 84.8492431640625 34.37599182128906 85.05055236816406 L 35.94522476196289 106.3250503540039 L 36.18340682983398 113.1366806030273 L 36.18479156494141 113.1759796142578 L 36.19229125976563 113.2145919799805 C 37.0336799621582 117.5441665649414 34.19550704956055 121.7517929077148 29.86553573608398 122.594108581543 C 29.33793640136719 122.696647644043 28.81383514404297 122.748649597168 28.30789184570313 122.748664855957 Z"/>
      <path class="cls-3" d="M 28.30788040161133 122.248649597168 C 28.78191184997559 122.2486343383789 29.27391052246094 122.1997299194336 29.77005004882813 122.1033020019531 C 33.82944869995117 121.3136215209961 36.49026489257813 117.3689422607422 35.70146560668945 113.3099746704102 L 35.68645095825195 113.2327575683594 L 35.68371200561523 113.1541442871094 L 35.44589996337891 106.3525543212891 L 33.89040756225586 85.26462554931641 C 33.67504119873047 85.03604125976563 33.32791137695313 84.66531372070313 32.88167953491211 84.18097686767578 L 32.0561408996582 83.28492736816406 L 33.09594345092773 82.64994812011719 C 35.45277404785156 81.21068572998047 36.65992736816406 79.91865539550781 37.26255798339844 78.19036102294922 C 39.47666549682617 71.84056091308594 45.31214141845703 24.03848457336426 45.37081909179688 23.55637550354004 L 45.37342071533203 23.53506851196289 L 45.37692642211914 23.5138988494873 C 45.38017272949219 23.49423789978027 45.70014190673828 21.52326774597168 45.51165008544922 19.37320709228516 C 45.40500259399414 18.15670013427734 45.15885162353516 17.13688468933105 44.7800178527832 16.34210014343262 C 44.34997177124023 15.43986892700195 43.77005004882813 14.85885334014893 43.0073127746582 14.56589984893799 C 41.89535903930664 14.13917636871338 40.58517456054688 13.91360664367676 39.21835708618164 13.91360664367676 C 37.4675407409668 13.91360664367676 35.74468231201172 14.28843784332275 34.36712646484375 14.96905326843262 C 33.37948608398438 15.45702266693115 32.08806610107422 16.34598731994629 31.47227668762207 17.82880401611328 C 31.12692642211914 21.0003604888916 26.65119743347168 61.94698715209961 24.77131080627441 71.39460754394531 L 24.25163459777832 74.00634765625 L 22.92374229431152 71.69811248779297 C 22.3049430847168 70.62246704101563 21.93597221374512 69.7506103515625 21.79574203491211 69.03266906738281 C 20.97992324829102 64.85505676269531 19.07042121887207 20.52342796325684 18.94915580749512 17.6926212310791 C 18.54296493530273 15.75950336456299 17.00055313110352 14.50534152984619 15.77020359039307 13.79114532470703 C 14.09275722503662 12.81740665435791 11.97395801544189 12.25894546508789 9.957065582275391 12.25894546508789 C 9.32209587097168 12.25894546508789 8.712419509887695 12.31485366821289 8.145157814025879 12.42509937286377 C 6.293049812316895 12.78539180755615 5.08804988861084 13.67065334320068 4.461265087127686 15.13145351409912 C 3.872588396072388 16.50348472595215 3.798034429550171 18.35160636901855 4.239649772644043 20.62446784973145 L 4.251880645751953 20.68742179870605 L 4.255972862243652 20.75140762329102 C 4.284219264984131 21.19326782226563 7.093234539031982 65.01449584960938 8.179896354675293 71.710205078125 C 8.39591121673584 73.04129791259766 9.43443489074707 75.50857543945313 13.15517330169678 79.70352935791016 L 13.83678817749023 80.47200775146484 L 13.05028057098389 81.13274383544922 C 11.42612648010254 82.49722290039063 10.07778835296631 84.08261871337891 8.928218841552734 85.97956085205078 C 6.178326606750488 90.51731109619141 4.561172962188721 95.93488311767578 3.688772916793823 99.68062591552734 C 2.73704981803894 103.7670211791992 2.440188407897949 106.8090362548828 2.437326908111572 106.8390502929688 L 2.428634405136108 106.9305267333984 L 2.403419017791748 107.0188980102539 L 1.014136910438538 111.8874588012695 C 1.444127559661865 116.1573715209961 1.734742999076843 118.5264511108398 5.49106502532959 119.9688262939453 C 6.281296253204346 120.2721633911133 7.20789623260498 120.432487487793 8.170680999755859 120.4324340820313 C 10.42695713043213 120.4323577880859 12.64180374145508 119.5786666870117 13.8132963180542 118.2575607299805 C 14.49960327148438 117.4835739135742 14.78871154785156 116.6023025512695 14.67257308959961 115.6381912231445 L 14.66546535491943 115.5791625976563 L 14.66540336608887 115.5196990966797 L 14.66184616088867 112.2443237304688 C 14.6341552734375 111.8795700073242 14.48583602905273 109.528923034668 14.95940399169922 106.176887512207 C 15.42463493347168 102.8839797973633 16.60795783996582 97.95558929443359 19.60332679748535 93.17699432373047 C 20.38624954223633 91.92766571044922 21.30643463134766 90.76397705078125 22.33835792541504 89.71820831298828 L 22.97863388061523 89.06934356689453 L 23.68383407592773 89.64698791503906 C 23.99078750610352 89.89842224121094 24.16586494445801 90.03787231445313 24.16760444641113 90.03923797607422 L 24.61804962158203 90.39777374267578 L 24.53423500061035 90.96730041503906 L 21.69624710083008 110.2509307861328 L 21.9107780456543 116.3977203369141 C 22.26585960388184 118.1544570922852 23.04375076293945 119.6275253295898 24.16314125061035 120.6611938476563 C 25.28787994384766 121.6997756958008 26.72109603881836 122.2487030029297 28.30788040161133 122.248649597168 M 28.30791091918945 123.248649597168 C 24.51929664611816 123.248779296875 21.69929695129395 120.552978515625 20.91420364379883 116.5130996704102 L 20.69369697570801 110.1950988769531 L 23.54489517211914 90.82170104980469 C 23.54489517211914 90.82170104980469 23.36760330200195 90.68062591552734 23.05015754699707 90.42059326171875 C 22.1212043762207 91.36200714111328 21.24366569519043 92.44263458251953 20.45069694519043 93.7080078125 C 14.83289623260498 102.6702041625977 15.66180324554443 112.2039031982422 15.66180324554443 112.2039031982422 L 15.66540336608887 115.5186080932617 C 16.10116767883301 119.1362991333008 12.0516185760498 121.4323043823242 8.170714378356934 121.4324417114258 C 7.114149570465088 121.4324798583984 6.070419788360596 121.2623596191406 5.132696151733398 120.9024047851563 C 0.7496960163116455 119.2194061279297 0.4472960233688354 116.246696472168 3.71492819795094e-06 111.7970962524414 L 1.441803693771362 106.744499206543 C 1.441803693771362 106.744499206543 2.606403827667236 94.48200988769531 8.073003768920898 85.46129608154297 C 9.396603584289551 83.27716064453125 10.88666534423828 81.64436340332031 12.40705013275146 80.36708068847656 C 9.76286506652832 77.38590240478516 7.586034297943115 74.29341888427734 7.192803859710693 71.87040710449219 C 6.085803508758545 65.04930114746094 3.258003711700439 20.81520652770996 3.258003711700439 20.81520652770996 C 2.362496137619019 16.206298828125 3.346203804016113 12.33989906311035 7.954203605651855 11.44349956512451 C 8.59235954284668 11.31948375701904 9.26667308807373 11.25894832611084 9.957069396972656 11.25894832611084 C 14.2518835067749 11.25894832611084 19.17341995239258 13.60098171234131 19.94489669799805 17.57160758972168 C 19.94489669799805 17.57160758972168 21.95729637145996 64.64250183105469 22.7772045135498 68.84100341796875 C 22.90115737915039 69.47560882568359 23.26415824890137 70.28445434570313 23.79054260253906 71.19945526123047 C 25.71829605102539 61.51123809814453 30.49289512634277 17.5851001739502 30.49289512634277 17.5851001739502 C 31.69729042053223 14.44685649871826 35.53007507324219 12.91360282897949 39.21835708618164 12.91360282897949 C 40.6812858581543 12.91360282897949 42.12084579467773 13.15459060668945 43.36560440063477 13.63229942321777 C 47.74769592285156 15.31529903411865 46.36349487304688 23.67720794677734 46.36349487304688 23.67720794677734 C 46.36349487304688 23.67720794677734 40.48200225830078 71.99459075927734 38.20680236816406 78.51960754394531 C 37.4205436706543 80.77451324462891 35.72751235961914 82.21462249755859 33.61712646484375 83.50339508056641 C 34.38334274291992 84.33503723144531 34.86149597167969 84.83580780029297 34.86149597167969 84.83580780029297 L 36.44460296630859 106.298095703125 L 36.68309783935547 113.1192092895508 C 37.5786018371582 117.7272033691406 34.56900405883789 122.1884994506836 29.96100425720215 123.0848999023438 C 29.39288139343262 123.1953125 28.84069633483887 123.2486343383789 28.30791091918945 123.248649597168 Z"/>
    </g>
    <g id="ch10-2" class="cls-1" transform="matrix(0.998, 0.07, -0.07, 0.998, 424.219, 329.234)">
      <path class="cls-2" d="M 8.866488456726074 117.8113555908203 L 8.86631965637207 117.8113555908203 C 8.199304580688477 117.8113403320313 7.557504177093506 117.7523422241211 6.958781242370605 117.6359939575195 C 2.732273578643799 116.8138046264648 2.769658088684082 114.3423614501953 2.81293511390686 111.4806823730469 L 2.813011884689331 111.4757766723633 L 2.812996625900269 111.4708633422852 C 2.810565948486328 110.931022644043 2.583673477172852 57.40860366821289 3.671442747116089 50.70598983764648 C 4.039181232452393 48.44217300415039 6.220057964324951 45.13299179077148 9.978288650512695 41.13626861572266 L 10.3551197052002 40.73551177978516 L 9.920304298400879 40.39852905273438 C 8.793127059936523 39.52497482299805 7.94428825378418 38.89089584350586 7.628544330596924 38.65653610229492 L 1.736151337623596 19.25858306884766 L 0.3207858204841614 14.30257797241211 C 0.7622083425521851 9.922318458557129 1.057446956634521 7.270877361297607 5.12558126449585 5.709282398223877 C 5.972488880157471 5.384205341339111 6.96124267578125 5.212359428405762 7.984935283660889 5.212359428405762 C 10.37753486633301 5.212359428405762 12.73907375335693 6.131851673126221 14.00122737884521 7.554851531982422 C 14.78685855865479 8.440589904785156 15.11736583709717 9.453897476196289 14.98356628417969 10.56660556793213 L 14.9800271987915 10.59608268737793 L 14.97999668121338 10.62575912475586 L 14.97639656066895 13.94046688079834 L 14.97636604309082 13.96728229522705 L 14.97921180725098 13.99394416809082 L 16.80621147155762 31.15243721008301 L 16.83401107788086 31.41351318359375 L 17.06472015380859 31.53885078430176 C 17.07124328613281 31.54239082336426 17.72873497009277 31.90005111694336 18.78176498413086 32.51103591918945 L 19.08150482177734 32.68494415283203 L 19.34956550598145 32.46532821655273 C 19.66225814819336 32.20914459228516 19.8404426574707 32.06726837158203 19.84221267700195 32.06586837768555 L 19.96159744262695 31.97088241577148 L 20.00762748718262 31.82540512084961 L 25.25191879272461 15.24740600585938 L 25.27250480651855 15.182297706604 L 25.27488899230957 15.11405181884766 L 25.49400901794434 8.835803031921387 C 25.86605453491211 6.957149982452393 26.69937896728516 5.376601696014404 27.90539741516113 4.26300573348999 C 29.1240119934082 3.137774705886841 30.67444229125977 2.543005466461182 32.38907241821289 2.543005466461182 C 32.89501190185547 2.543005466461182 33.41921234130859 2.595036268234253 33.94712066650391 2.697620868682861 C 36.04461288452148 3.105236291885376 37.85785675048828 4.305405616760254 39.05284118652344 6.077051639556885 C 40.24781036376953 7.848682403564453 40.68141174316406 9.979543685913086 40.27378082275391 12.07711315155029 L 40.27302551269531 12.08098983764648 L 40.27233505249023 12.08488273620605 L 39.24557113647461 17.85368537902832 L 30.42671966552734 37.37834167480469 C 30.27155303955078 37.5418701171875 29.82099914550781 38.01876831054688 29.18791961669922 38.70646667480469 L 28.81925773620605 39.1069450378418 L 29.24953460693359 39.44034576416016 C 33.16735076904297 42.47612762451172 35.51436614990234 45.04943466186523 36.22537994384766 47.08880615234375 C 38.45582580566406 53.48546600341797 43.85367202758789 103.7794189453125 43.90793609619141 104.2866973876953 L 43.90947341918945 104.3010177612305 L 43.91182708740234 104.3152236938477 C 43.92491912841797 104.3946685791016 45.17895126342773 112.2945098876953 41.22796630859375 113.811637878418 C 40.05979537963867 114.2600326538086 38.68785858154297 114.4970855712891 37.26052093505859 114.4971008300781 C 35.43441009521484 114.4971313476563 33.63296508789063 114.1039733886719 32.18804168701172 113.3900527954102 C 30.64518928527832 112.6277465820313 29.55345344543457 111.5286712646484 29.02649116516113 110.2085113525391 C 28.73659515380859 107.1718368530273 23.87243270874023 56.40825271606445 22.34295082092285 52.43352890014648 C 22.08850479125977 51.77285003662109 21.56482696533203 50.98185348510742 20.74192047119141 50.01519012451172 L 20.30461120605469 49.50148391723633 L 19.94034957885742 50.06932830810547 C 18.98636627197266 51.55643463134766 18.4407958984375 52.6983757019043 18.27247428894043 53.56037521362305 C 17.45762825012207 57.7320671081543 18.30499076843262 109.0730133056641 18.35328102111816 111.9544067382813 C 17.91815185546875 114.0822296142578 16.25485038757324 115.4429321289063 14.93048858642578 116.2116546630859 C 13.17899703979492 117.2282791137695 10.96876621246338 117.8113555908203 8.866488456726074 117.8113555908203 Z"/>
      <path class="cls-3" d="M 8.866488456726074 117.3113555908203 C 10.88322734832764 117.3113555908203 13.00198078155518 116.7529144287109 14.67948913574219 115.7792205810547 C 15.90389537811279 115.0685272216797 17.43733406066895 113.8232498168945 17.85241508483887 111.9064865112305 C 17.83051300048828 110.5836868286133 17.61912536621094 97.65068054199219 17.5012264251709 84.41091156005859 C 17.33445739746094 65.68314361572266 17.42884254455566 55.27126693725586 17.78173446655273 53.46454238891602 C 17.96238136291504 52.53946685791016 18.53081130981445 51.340576171875 19.51950454711914 49.79934310913086 L 20.24804306030273 48.66366577148438 L 21.12265777587891 49.69108200073242 C 21.98271942138672 50.7014045715332 22.53448867797852 51.53964996337891 22.80959701538086 52.25395965576172 C 23.05878067016602 52.90154266357422 23.81708908081055 54.87217330932617 26.77641105651855 82.86135864257813 C 28.15212821960449 95.87278747558594 29.37509155273438 108.6034240722656 29.5172061920166 110.0877532958984 C 30.13401222229004 111.5671920776367 31.42326736450195 112.454475402832 32.40951919555664 112.9417724609375 C 33.78693389892578 113.6223449707031 35.50970458984375 113.9971313476563 37.26050567626953 113.9971008300781 C 38.62721252441406 113.9970855712891 39.93717956542969 113.7715301513672 41.04873657226563 113.3448638916016 C 41.80794906616211 113.0533294677734 42.38581085205078 112.4768676757813 42.81533432006836 111.5825271606445 C 43.19424438476563 110.793571472168 43.44158172607422 109.7808532714844 43.55048751831055 108.5724792480469 C 43.7443962097168 106.4208831787109 43.42170333862305 104.4162063598633 43.41854858398438 104.3969268798828 L 43.41384124755859 104.3685150146484 L 43.41078186035156 104.3398818969727 C 43.35658264160156 103.8331756591797 37.9649658203125 53.59635925292969 35.75324249267578 47.2534065246582 C 35.28667449951172 45.91514587402344 33.72647476196289 43.54189682006836 28.94327354431152 39.83557510375977 L 28.08273506164551 39.16877365112305 L 28.82005882263184 38.36783599853516 C 29.3954963684082 37.74274444580078 29.81305885314941 37.29916381835938 30.00581741333008 37.09553527832031 L 38.76423645019531 17.70467376708984 L 39.78007507324219 11.99726676940918 L 39.78145980834961 11.98948287963867 L 39.78296661376953 11.98172855377197 C 40.16511917114258 10.01525211334229 39.75861358642578 8.017559051513672 38.63832092285156 6.356651782989502 C 37.51802825927734 4.695728778839111 35.81811904907227 3.570574760437012 33.85173416137695 3.188436269760132 C 33.35516738891602 3.091943979263306 32.86304092407227 3.043005466461182 32.38907241821289 3.043005466461182 C 30.80236625671387 3.043005466461182 29.36922645568848 3.591897964477539 28.24459648132324 4.630359172821045 C 27.1251049041748 5.66405725479126 26.34726905822754 7.137015819549561 25.99227905273438 8.894001007080078 L 25.77458190917969 15.13148212432861 L 25.76982688903809 15.26799011230469 L 25.72862815856934 15.39822101593018 L 20.48433494567871 31.97622108459473 L 20.39227294921875 32.26712799072266 L 20.15355110168457 32.45711135864258 C 20.15179634094238 32.45849609375 19.97565841674805 32.59875869750977 19.66644287109375 32.85209655761719 L 19.13030433654785 33.29134368896484 L 18.53082656860352 32.94351196289063 C 17.48518180847168 32.33680725097656 16.83248901367188 31.98171234130859 16.82601165771484 31.97818946838379 L 16.3646125793457 31.72748184204102 L 16.30901145935059 31.20537567138672 L 14.48201179504395 14.04688262939453 L 14.4763355255127 13.99355983734131 L 14.47639656066895 13.93991279602051 L 14.47999668121338 10.62520599365234 L 14.48005771636963 10.56585216522217 L 14.48715019226074 10.50692844390869 C 14.60311985015869 9.542344093322754 14.31378078460693 8.660743713378906 13.62716579437256 7.886620998382568 C 12.45564270019531 6.565805435180664 10.24093532562256 5.712359428405762 7.984935283660889 5.712359428405762 C 7.021858215332031 5.712359428405762 6.095073699951172 5.872713088989258 5.304765701293945 6.176082611083984 C 1.550146818161011 7.617331981658936 1.258768439292908 9.987271308898926 0.8278793096542358 14.25746250152588 L 2.215575695037842 19.1165828704834 L 8.059101104736328 38.35366058349609 C 8.447062492370605 38.64281463623047 9.228492736816406 39.22981262207031 10.22659683227539 40.00333023071289 L 11.09621238708496 40.67726898193359 L 10.3425350189209 41.47877502441406 C 5.681057929992676 46.43608093261719 4.410227298736572 49.27642059326172 4.16499662399292 50.78609848022461 C 3.083796501159668 57.44821929931641 3.310565948486328 110.9292068481445 3.312981128692627 111.468635559082 L 3.313027381896973 111.4784393310547 L 3.312888860702515 111.4882354736328 C 3.293196678161621 112.7897567749023 3.272842645645142 114.1355895996094 3.745965957641602 115.1258697509766 C 4.057042598724365 115.7769775390625 4.738458156585693 116.694694519043 7.054165840148926 117.1451721191406 C 7.621535301208496 117.2554397583008 8.231243133544922 117.3113403320313 8.866381645202637 117.3113555908203 L 8.866488456726074 117.3113555908203 M 8.866489410400391 118.3113555908203 C 8.866227149963379 118.3113555908203 8.866581916809082 118.3113632202148 8.86631965637207 118.3113555908203 C 8.175919532775879 118.3113403320313 7.501550674438477 118.2508239746094 6.863396644592285 118.1268081665039 C 2.255396604537964 117.2304077148438 2.268904209136963 114.3882064819336 2.312996625900269 111.4731140136719 C 2.312996625900269 111.4731140136719 2.07090425491333 57.44700622558594 3.177904367446899 50.62589645385742 C 3.630688905715942 47.83854293823242 6.444334983825684 44.16458892822266 9.61402702331543 40.79374313354492 C 8.16939640045166 39.67417526245117 7.198196411132813 38.96009826660156 7.198196411132813 38.96009826660156 L 1.256396651268005 19.39949798583984 L -0.1862957030534744 14.34780597686768 C 0.2619042992591858 9.898205757141113 0.5643042922019958 6.924605369567871 4.946396827697754 5.24249792098999 C 5.884120464324951 4.882548332214355 6.928366661071777 4.712364196777344 7.984941005706787 4.712364196777344 C 11.86587715148926 4.712364196777344 15.91506004333496 7.007903575897217 15.47999668121338 10.62629795074463 L 15.47639656066895 13.94100570678711 L 17.30339622497559 31.0994987487793 C 17.30339622497559 31.0994987487793 17.96001243591309 31.45617485046387 19.03268814086914 32.07855987548828 C 19.35251998901367 31.8165283203125 19.53090476989746 31.67460632324219 19.53090476989746 31.67460632324219 L 24.77519607543945 15.09660530090332 L 24.99570465087891 8.778605461120605 C 25.78073501586914 4.738215923309326 28.60085487365723 2.043012619018555 32.38906860351563 2.043012619018555 C 32.92210006713867 2.043012619018555 33.47409820556641 2.096342802047729 34.04250335693359 2.206805467605591 C 38.65050506591797 3.102297782897949 41.66010284423828 7.564497947692871 40.76459503173828 12.17249774932861 L 39.72690582275391 18.0026969909668 L 30.84750366210938 37.66140365600586 C 30.84750366210938 37.66140365600586 30.34961128234863 38.18278884887695 29.5557804107666 39.04511260986328 C 32.90027236938477 41.63663482666016 35.84388732910156 44.47579193115234 36.69750595092773 46.9242057800293 C 38.97270584106445 53.4492073059082 44.40510559082031 104.233512878418 44.40510559082031 104.233512878418 C 44.40510559082031 104.233512878418 45.79019546508789 112.5954055786133 41.40719604492188 114.2784042358398 C 40.1629638671875 114.7560119628906 38.72299575805664 114.9970779418945 37.26052474975586 114.9971008300781 C 33.57228469848633 114.9971542358398 29.73989486694336 113.4641189575195 28.53539657592773 110.3256072998047 C 28.53539657592773 110.3256072998047 23.41259574890137 56.60549926757813 21.87630462646484 52.61309814453125 C 21.63170433044434 51.97797393798828 21.09368896484375 51.19976043701172 20.36119651794434 50.33929824829102 C 19.52118110656738 51.64875793457031 18.92893600463867 52.8074836730957 18.76319694519043 53.65620422363281 C 17.94330406188965 57.85380554199219 18.85410499572754 111.9996032714844 18.85410499572754 111.9996032714844 C 18.0826587677002 115.9692077636719 13.16111850738525 118.3113555908203 8.866489410400391 118.3113555908203 Z"/>
    </g>
  </g>
</svg>
