<svg xmlns="http://www.w3.org/2000/svg" width="71.079" height="190.006" viewBox="0 0 71.079 190.006">
  <defs>
    <style>
      .cls-1 {
        fill: #fff;
        stroke-linecap: round;
        stroke-linejoin: round;
      }

      .cls-2, .cls-3 {
        stroke: none;
      }

      .cls-3 {
        fill: #9a9a9a;
      }
    </style>
  </defs>
  <g id="ch10-1" class="cls-1" transform="translate(0.743 0.632)">
    <path class="cls-2" d="M 30.72906112670898 188.3741760253906 C 30.47318649291992 188.3741760253906 30.22321128845215 188.3725280761719 29.96486282348633 188.3690948486328 C 24.19321250915527 188.29248046875 19.07533645629883 187.4022521972656 14.75338649749756 185.72314453125 C 11.32233715057373 184.3901824951172 8.381636619567871 182.5588836669922 6.012961864471436 180.2801513671875 C 2.589738845825195 176.9868927001953 1.351781368255615 173.6800231933594 1.050331711769104 172.7336578369141 C 1.802078008651733 170.6012725830078 6.310857772827148 157.6449279785156 10.76398658752441 141.2203063964844 C 15.25006198883057 124.6741485595703 20.5976619720459 101.1138229370117 20.5976619720459 82.83622741699219 C 20.5976619720459 64.44309997558594 15.19361209869385 51.42012786865234 10.6601619720459 43.73402786254883 C 6.338856220245361 36.40759658813477 2.049762487411499 32.46229553222656 0.910056471824646 31.4827709197998 C 0.7170242071151733 30.48087120056152 0.1700590401887894 27.24971199035645 0.2698369324207306 23.26212692260742 C 0.3398369252681732 20.46515083312988 0.7097869515419006 17.84775161743164 1.369436979293823 15.48260116577148 C 2.184386968612671 12.56070137023926 3.446686983108521 10.01837635040283 5.121286869049072 7.926276206970215 C 9.135586738586426 2.911176443099976 15.59116172790527 0.3683014214038849 24.30866241455078 0.3683014214038849 C 24.70358657836914 0.3683014214038849 25.09198760986328 0.3733014166355133 25.49606132507324 0.3835764229297638 C 32.8572883605957 0.5708264112472534 39.24563598632813 2.353826522827148 44.48363876342773 5.683051586151123 C 48.66316223144531 8.339526176452637 52.13513565063477 11.98787689208984 54.80313873291016 16.52682685852051 C 59.36753845214844 24.29205131530762 59.99701309204102 32.02322769165039 60.00283813476563 32.10040283203125 L 60.02058792114258 32.33535003662109 L 60.14133834838867 32.53767776489258 C 60.16373825073242 32.57540130615234 62.46478652954102 36.50004959106445 64.73668670654297 44.62472534179688 C 66.07158660888672 49.39847564697266 67.13526153564453 54.66627502441406 67.89818572998047 60.28177642822266 C 68.85221099853516 67.30374908447266 69.3359375 74.89215087890625 69.3359375 82.83622741699219 C 69.3359375 90.82949829101563 68.84641265869141 100.5167007446289 67.88095855712891 111.6286773681641 C 67.1077880859375 120.5274047851563 66.02956390380859 130.352294921875 64.67620849609375 140.8305206298828 C 62.45504379272461 158.0277099609375 60.20676803588867 171.3983459472656 60.02580642700195 172.4674835205078 C 59.87184524536133 172.9325866699219 58.53911590576172 176.6908416748047 54.58901214599609 180.3945465087891 C 52.12538528442383 182.7044830322266 49.13581085205078 184.5460510253906 45.70326232910156 185.8680725097656 C 41.38563537597656 187.531005859375 36.34758758544922 188.3741760253906 30.72906112670898 188.3741760253906 Z"/>
    <path class="cls-3" d="M 24.30866241455078 1.368301391601563 C 19.79711151123047 1.368301391601563 15.88568878173828 2.070297241210938 12.68306350708008 3.454803466796875 C 9.94476318359375 4.638580322265625 7.665237426757813 6.350799560546875 5.9078369140625 8.543899536132813 C 4.321338653564453 10.52369689941406 3.121585845947266 12.93746948242188 2.341938018798828 15.71812438964844 C 1.702835083007813 17.99748229980469 1.342487335205078 20.52616882324219 1.270885467529297 23.23397827148438 C 1.177009582519531 26.78411865234375 1.610725402832031 29.72584533691406 1.830276489257813 30.96034240722656 C 3.322761535644531 32.29029846191406 7.423656463623047 36.27847290039063 11.52148818969727 43.22599792480469 C 16.11818695068359 51.01933288574219 21.59766006469727 64.217529296875 21.59766006469727 82.83622741699219 C 21.59766006469727 97.59850311279297 18.27741241455078 117.3297729492188 11.7291374206543 141.4819793701172 C 7.455982208251953 157.2427215576172 3.129402160644531 169.8230590820313 2.108028411865234 172.7397918701172 C 2.519630432128906 173.8881988525391 3.777931213378906 176.7764587402344 6.799537658691406 179.6486968994141 C 9.077163696289063 181.813720703125 11.90533828735352 183.5555572509766 15.20548629760742 184.8258209228516 C 19.39651107788086 186.4389953613281 24.36676025390625 187.2947082519531 29.97811126708984 187.3691711425781 C 30.23166275024414 187.37255859375 30.47728729248047 187.3741760253906 30.72906112670898 187.3741760253906 C 36.18913650512695 187.3741760253906 41.07928466796875 186.5638275146484 45.26368713378906 184.9656219482422 C 48.56821060180664 183.7035064697266 51.44636154174805 181.9473724365234 53.81816101074219 179.7460479736328 C 57.50873184204102 176.3207244873047 58.83847427368164 172.8381652832031 59.05309295654297 172.2219390869141 C 59.30939865112305 170.7026977539063 61.51167678833008 157.5273742675781 63.68668746948242 140.6851043701172 C 65.03768920898438 130.2232971191406 66.11396026611328 120.4149551391602 66.88553619384766 111.5324783325195 C 67.84796142578125 100.4532241821289 68.3359375 90.79840087890625 68.3359375 82.83622741699219 C 68.3359375 74.96990203857422 67.85923767089844 67.45592498779297 66.91903686523438 60.50307464599609 C 66.16746520996094 54.94485473632813 65.11968994140625 49.73088073730469 63.80486297607422 45.00599670410156 C 61.56801223754883 36.96784973144531 59.30296325683594 33.0845947265625 59.28263854980469 33.05020141601563 C 59.12103652954102 32.78219604492188 59.02943801879883 32.49055480957031 59.00586318969727 32.17848205566406 C 59.00436019897461 32.15933227539063 58.84748840332031 30.229248046875 58.13148498535156 27.38264465332031 C 57.47671127319336 24.77940368652344 56.20533752441406 20.8489990234375 53.86701202392578 16.90823364257813 C 51.27398681640625 12.53825378417969 47.91118621826172 9.02947998046875 43.87203598022461 6.4793701171875 C 38.80368804931641 3.279525756835938 32.61256408691406 1.564926147460938 25.47063827514648 1.383255004882813 C 25.07498550415039 1.373199462890625 24.69491195678711 1.368301391601563 24.30866241455078 1.368301391601563 M 24.30866622924805 -0.6316986083984375 C 24.70802688598633 -0.6316986083984375 25.109619140625 -0.6265716552734375 25.52148818969727 -0.6161041259765625 C 58.6000862121582 0.225372314453125 60.9999885559082 32.025146484375 60.9999885559082 32.025146484375 C 60.9999885559082 32.025146484375 70.3359375 47.66658020019531 70.3359375 82.83622741699219 C 70.3359375 118.0059051513672 60.9999885559082 172.7037506103516 60.9999885559082 172.7037506103516 C 60.9999885559082 172.7037506103516 56.05902099609375 189.3741912841797 30.72905731201172 189.3741912841797 C 30.47136688232422 189.3741912841797 30.2135124206543 189.3724822998047 29.95158767700195 189.3690032958984 C 3.9432373046875 189.0238037109375 -1.1444091796875e-05 172.7037506103516 -1.1444091796875e-05 172.7037506103516 C -1.1444091796875e-05 172.7037506103516 19.59766006469727 118.0059051513672 19.59766006469727 82.83622741699219 C 19.59766006469727 47.66658020019531 -1.1444091796875e-05 32.025146484375 -1.1444091796875e-05 32.025146484375 C -1.1444091796875e-05 32.025146484375 -7.366119384765625 -0.6316986083984375 24.30866622924805 -0.6316986083984375 Z"/>
  </g>
</svg>
