<svg xmlns="http://www.w3.org/2000/svg" width="54.039" height="188.402" viewBox="0 0 54.039 188.402">
  <defs>
    <style>
      .cls-1 {
        fill: #fff;
        stroke-linecap: round;
        stroke-linejoin: round;
      }

      .cls-2, .cls-3 {
        stroke: none;
      }

      .cls-3 {
        fill: #9a9a9a;
      }
    </style>
  </defs>
  <g id="ch10-2" class="cls-1" transform="translate(0.012 0.033)">
    <path class="cls-2" d="M 26.95555114746094 187.369140625 C 20.67390823364258 187.369140625 15.37640762329102 186.6879730224609 11.2101936340332 185.3445434570313 C 7.984407901763916 184.3043518066406 5.448074340820313 182.8747863769531 3.671645879745483 181.0955200195313 C 1.059549331665039 178.4792938232422 1.000846028327942 176.0306549072266 0.9999432563781738 175.8692016601563 L 1.000431537628174 175.8549346923828 L 1.000002861022949 175.8540496826172 L 1.000002861022949 147.2059783935547 C 2.164200067520142 146.1388244628906 6.077013492584229 142.4013519287109 10.03845500946045 136.9106140136719 C 14.3342170715332 130.9564971923828 19.4549560546875 121.7607421875 19.4549560546875 111.7648849487305 C 19.4549560546875 103.7712631225586 16.30283546447754 94.43679046630859 10.08616924285889 84.02073669433594 C 6.078372001647949 77.30565643310547 2.016244173049927 72.28671264648438 1.000002861022949 71.06288909912109 L 1.000002861022949 18.79057312011719 L 1.000002861022949 18.75400161743164 L 0.9973362684249878 18.71752548217773 C 0.9964314699172974 18.70450210571289 0.8980743288993835 17.16635894775391 1.380074381828308 15.03464412689209 C 2.019360065460205 12.20719146728516 3.323074340820313 9.724453926086426 5.254955291748047 7.65533447265625 C 7.112597942352295 5.6657395362854 9.543622016906738 4.095382213592529 12.48047924041748 2.987905979156494 C 16.03655052185059 1.646906018257141 20.38205146789551 0.9669536352157593 25.39626502990723 0.9669536352157593 C 25.98921775817871 0.9669536352157593 26.60043144226074 0.9765250682830811 27.2129077911377 0.9954060316085815 C 32.95693206787109 1.172453641891479 37.86112213134766 2.062739372253418 41.78924179077148 3.641501188278198 C 44.97831344604492 4.923215389251709 47.54783630371094 6.667168140411377 49.42640686035156 8.824858665466309 C 53.50931167602539 13.51440620422363 53.01126480102539 18.63235855102539 53.00574111938477 18.68350219726563 L 53.00000381469727 18.73688316345215 L 53.00000381469727 18.79057312011719 L 53.00000381469727 71.12734985351563 C 52.24419021606445 72.28794860839844 49.0981330871582 77.24449920654297 45.9958610534668 83.9578857421875 C 42.71645355224609 91.05459594726563 38.8072395324707 101.6395721435547 38.8072395324707 111.7648849487305 C 38.8072395324707 121.9121932983398 42.72859954833984 131.5115966796875 46.01821899414063 137.7776489257813 C 49.10483932495117 143.6570129394531 52.154541015625 147.6941833496094 53.00000381469727 148.7729797363281 L 53.00000381469727 175.8540496826172 L 53.00000381469727 175.8981628417969 L 53.00223159790039 175.9219360351563 C 53.00954818725586 176.0841064453125 53.07005310058594 178.4337921142578 50.66724014282227 180.9788360595703 C 47.94631195068359 183.8607635498047 41.68757247924805 187.3086853027344 27.32264518737793 187.3683776855469 C 27.20126533508301 187.3689117431641 27.07586097717285 187.369140625 26.95555114746094 187.369140625 Z"/>
    <path class="cls-3" d="M 25.39629173278809 1.966934204101563 C 20.51469039916992 1.966934204101563 16.296142578125 2.62213134765625 12.85784149169922 3.914337158203125 C 10.06796646118164 4.96282958984375 7.764118194580078 6.442306518554688 6.010341644287109 8.311660766601563 C 4.207141876220703 10.23365783691406 2.983692169189453 12.54255676269531 2.373992919921875 15.1741943359375 C 1.920394897460938 17.13192749023438 1.990272521972656 18.56329345703125 1.995059967041016 18.64961242675781 C 1.999217987060547 18.70152282714844 1.999992370605469 18.73739624023438 1.999992370605469 18.79055786132813 L 1.999992370605469 70.70120239257813 C 3.3187255859375 72.30433654785156 7.110591888427734 77.08393096923828 10.94486618041992 83.50823974609375 C 17.25529098510742 94.08139038085938 20.4549674987793 103.5882873535156 20.4549674987793 111.7648620605469 C 20.4549674987793 119.8882141113281 17.13341903686523 128.7858123779297 10.84941864013672 137.4957122802734 C 7.151580810546875 142.6210632324219 3.484458923339844 146.2498321533203 1.999992370605469 147.6419982910156 L 1.999992370605469 175.8540344238281 C 1.999992370605469 175.8576049804688 2.000007629394531 175.8604736328125 2.000034332275391 175.8627624511719 C 2.000095367431641 175.8651123046875 2.00018310546875 175.8679046630859 2.000293731689453 175.87109375 C 2.000518798828125 175.8736572265625 2.000743865966797 175.8705291748047 2.000465393066406 175.8757629394531 C 2.010334014892578 176.1302947998047 2.176704406738281 178.4882965087891 4.932792663574219 180.9074859619141 C 7.771366119384766 183.3990936279297 13.89631652832031 186.3691558837891 26.95556640625 186.3691558837891 C 27.0745677947998 186.3691558837891 27.19859313964844 186.3688812255859 27.31851768493652 186.368408203125 C 41.23336791992188 186.3105926513672 47.26244354248047 183.0722808837891 49.86994171142578 180.3658905029297 C 51.96222305297852 178.1942291259766 52.00564956665039 176.2086791992188 52.00327682495117 175.97900390625 C 51.99772644042969 175.9239501953125 51.99999237060547 175.9197998046875 51.99999237060547 175.8540344238281 L 51.99999237060547 149.1150665283203 C 50.91215133666992 147.6992797851563 48.03345108032227 143.7676086425781 45.13281631469727 138.2424926757813 C 41.79091644287109 131.8768310546875 37.80724334716797 122.1159591674805 37.80724334716797 111.7648620605469 C 37.80724334716797 103.4900131225586 40.25686645507813 93.99326324462891 45.08809280395508 83.53838348388672 C 48.06647872924805 77.09310913085938 51.01410293579102 72.35725402832031 51.99999237060547 70.82976531982422 L 51.99999237060547 18.79055786132813 C 51.99999237060547 18.71290588378906 52.00186538696289 18.65852355957031 52.01075744628906 18.58262634277344 C 52.01868057250977 18.48786926269531 52.1087760925293 17.28424072265625 51.74911880493164 15.59768676757813 C 51.25889205932617 13.2987060546875 50.2034912109375 11.21788024902344 48.61221694946289 9.413040161132813 C 46.83081817626953 7.39251708984375 44.38741683959961 5.75390625 41.34986877441406 4.542739868164063 C 37.54234313964844 3.0245361328125 32.77559280395508 2.167343139648438 27.1821174621582 1.994918823242188 C 26.57979202270508 1.976333618164063 25.97894287109375 1.966934204101563 25.39629173278809 1.966934204101563 M 25.39630317687988 -0.0330657958984375 C 25.99783515930176 -0.0330657958984375 26.61343193054199 -0.0235595703125 27.24371719360352 -0.0041351318359375 C 55.92871856689453 0.880035400390625 53.99999237060547 18.79055786132813 53.99999237060547 18.79055786132813 L 53.99999237060547 71.42678833007813 C 53.99999237060547 71.42678833007813 39.80724334716797 92.51560974121094 39.80724334716797 111.7648620605469 C 39.80724334716797 131.0141296386719 53.99999237060547 148.423828125 53.99999237060547 148.423828125 L 53.99999237060547 175.8540344238281 C 53.99999237060547 175.8540344238281 54.87989044189453 188.2538909912109 27.32681655883789 188.3683929443359 C 27.20405197143555 188.368896484375 27.07723045349121 188.3691558837891 26.95556640625 188.3691558837891 C -0.2288551330566406 188.3691558837891 -7.62939453125e-06 175.8540344238281 -7.62939453125e-06 175.8540344238281 L -7.62939453125e-06 146.7610168457031 C -7.62939453125e-06 146.7610168457031 18.4549674987793 130.5984191894531 18.4549674987793 111.7648620605469 C 18.4549674987793 92.93131256103516 -7.62939453125e-06 71.42678833007813 -7.62939453125e-06 71.42678833007813 L -7.62939453125e-06 18.79055786132813 C -7.62939453125e-06 18.79055786132813 -1.378498077392578 -0.0330657958984375 25.39630317687988 -0.0330657958984375 Z"/>
  </g>
</svg>
