<svg xmlns="http://www.w3.org/2000/svg" width="67.508" height="176.161" viewBox="0 0 67.508 176.161">
  <defs>
    <style>
      .cls-1 {
        fill: #fff;
        stroke-linecap: round;
        stroke-linejoin: round;
      }

      .cls-2, .cls-3 {
        stroke: none;
      }

      .cls-3 {
        fill: #9a9a9a;
      }
    </style>
  </defs>
  <g id="ch11-1" class="cls-1" transform="translate(0 0.037)">
    <path class="cls-2" d="M 41.38113403320313 175.1242523193359 C 36.76897430419922 175.1242523193359 32.65422439575195 174.4334564208984 29.15120124816895 173.071044921875 C 26.37233734130859 171.9902648925781 23.96808815002441 170.4854278564453 22.00522422790527 168.5983428955078 C 18.65858840942383 165.3808441162109 17.73199653625488 162.1104125976563 17.72302055358887 162.0777435302734 L 17.65581512451172 161.8271331787109 L 17.47599792480469 161.6436767578125 C 17.43549728393555 161.6017303466797 13.31006526947021 157.2758178710938 9.238565444946289 148.5369110107422 C 6.847451686859131 143.4047241210938 4.942179203033447 137.7765197753906 3.575656175613403 131.8086090087891 C 1.866565346717834 124.3446807861328 0.9999971389770508 116.3244323730469 0.9999971389770508 107.9706344604492 C 0.9999971389770508 99.56233978271484 1.877292633056641 89.41029357910156 3.607497215270996 77.79653930664063 C 4.994019985198975 68.48988342285156 6.927792549133301 58.23290634155273 9.355155944824219 47.31054306030273 C 13.48942852020264 28.70740699768066 17.67533874511719 14.44995212554932 17.71715545654297 14.3081111907959 L 17.74215698242188 14.22327041625977 L 17.75186157226563 14.13533782958984 C 17.75536155700684 14.10590648651123 18.17336082458496 10.80670166015625 21.09117889404297 7.56583833694458 C 22.80476951599121 5.662542819976807 25.03963279724121 4.143429279327393 27.73370170593262 3.050656318664551 C 31.14847373962402 1.665542721748352 35.31474685668945 0.9632472991943359 40.11683654785156 0.9632472991943359 C 40.68392944335938 0.9632472991943359 41.26822280883789 0.9731336832046509 41.85356521606445 0.9926336407661438 C 47.04799652099609 1.165610909461975 51.58195114135742 1.977519989013672 55.32942962646484 3.405815362930298 C 58.29345321655273 4.535520076751709 60.77236175537109 6.050837993621826 62.69736099243164 7.909747123718262 C 65.48094177246094 10.59777641296387 66.2952880859375 13.25231170654297 66.47688293457031 13.98860263824463 C 65.90375518798828 15.96195220947266 62.00397872924805 29.54682159423828 58.15265655517578 46.87663269042969 C 54.31936264038086 64.12545013427734 49.74988174438477 88.72629547119141 49.74988174438477 107.9706344604492 C 49.74988174438477 127.307975769043 54.35761260986328 141.2187042236328 58.22301864624023 149.4832458496094 C 61.68623733520508 156.8878326416016 65.12693023681641 161.1552886962891 66.33866119384766 162.5395050048828 C 65.84998321533203 163.5940856933594 64.50460052490234 166.0713348388672 61.73531723022461 168.5265502929688 C 59.60235977172852 170.4175872802734 57.05022430419922 171.9295043945313 54.14983749389648 173.020263671875 C 50.50120162963867 174.3924560546875 46.28474807739258 175.1001129150391 41.61761093139648 175.1236572265625 C 41.53929138183594 175.1240386962891 41.4589729309082 175.1242523193359 41.38113403320313 175.1242523193359 Z"/>
    <path class="cls-3" d="M 41.38111877441406 174.1242523193359 C 41.4572868347168 174.1242523193359 41.53588104248047 174.1240386962891 41.61257171630859 174.1236572265625 C 46.12612152099609 174.1009216308594 50.19876480102539 173.4248962402344 53.71731185913086 172.1143951416016 C 56.49528884887695 171.0797576904297 58.93966674804688 169.6473541259766 60.98259735107422 167.8569946289063 C 63.2575569152832 165.8633117675781 64.53448486328125 163.85107421875 65.15018463134766 162.6851654052734 C 63.63318252563477 160.8626861572266 60.47275161743164 156.6537170410156 57.31721496582031 149.9069213867188 C 53.40883636474609 141.5505218505859 48.74988174438477 127.4917068481445 48.74988174438477 107.9706420898438 C 48.74988174438477 88.63556671142578 53.33230972290039 63.95740127563477 57.17647933959961 46.65970993041992 C 60.89224624633789 29.9398078918457 64.65476989746094 16.69392967224121 65.44047546386719 13.97257900238037 C 65.19689178466797 13.13191413879395 64.39163970947266 10.97697353363037 62.10507202148438 8.728853225708008 C 60.28721618652344 6.941567420959473 57.92399978637695 5.478924751281738 55.08107376098633 4.381591320037842 C 51.41621398925781 2.966996192932129 46.95462036132813 2.163043737411499 41.82028579711914 1.992091417312622 C 41.24576187133789 1.972948551177979 40.67264556884766 1.963258147239685 40.1168098449707 1.963258147239685 C 35.48543167114258 1.963258147239685 31.47481155395508 2.629115343093872 28.19633483886719 3.942353248596191 C 25.64838218688965 4.962972164154053 23.53547859191895 6.376829624176025 21.91633415222168 8.144662857055664 C 19.22480583190918 11.08334732055664 18.76814079284668 14.08847522735596 18.74507331848145 14.25282096862793 C 18.73281288146973 14.37604141235352 18.7116870880127 14.47096061706543 18.67635917663574 14.59080600738525 C 18.63466835021973 14.73232936859131 14.45833492279053 28.95713996887207 10.33133506774902 47.52749633789063 C 7.909072875976563 58.42692565917969 5.979644298553467 68.66046905517578 4.596596717834473 77.94390106201172 C 2.873620510101318 89.50904083251953 2.000001430511475 99.61149597167969 2.000001430511475 107.9706420898438 C 2.000001430511475 116.2210235595703 2.852263450622559 124.1406860351563 4.533120632171631 131.5096893310547 C 5.876334667205811 137.3984222412109 7.748929977416992 142.9517822265625 10.09895420074463 148.0155487060547 C 14.10071563720703 156.6384735107422 18.15638160705566 160.9084777832031 18.1940975189209 160.9477081298828 C 18.43536186218262 161.1966705322266 18.60163497924805 161.4805603027344 18.68822288513184 161.81591796875 C 18.73395156860352 161.9708557128906 19.65907859802246 164.9941101074219 22.78414344787598 167.9594421386719 C 24.65469169616699 169.7344055175781 26.94602584838867 171.1511688232422 29.59450149536133 172.1703338623047 C 32.96371459960938 173.4668579101563 36.9293098449707 174.1242523193359 41.38111877441406 174.1242523193359 M 41.38112640380859 176.1242523193359 C 20.45426750183105 176.1242523193359 16.75793075561523 162.3396453857422 16.75793075561523 162.3396453857422 C 16.75793075561523 162.3396453857422 1.488095222157426e-06 145.0491790771484 1.488095222157426e-06 107.9706420898438 C 1.488095222157426e-06 70.89208984375 16.75793075561523 14.02547264099121 16.75793075561523 14.02547264099121 C 16.75793075561523 14.02547264099121 18.31268310546875 -0.03674253448843956 40.11681365966797 -0.03674253448843956 C 40.69326400756836 -0.03674253448843956 41.2817268371582 -0.0269637443125248 41.88683319091797 -0.006813313812017441 C 65.37995147705078 0.7754961848258972 67.5078125 14.02547264099121 67.5078125 14.02547264099121 C 67.5078125 14.02547264099121 50.74988174438477 70.89208984375 50.74988174438477 107.9706420898438 C 50.74988174438477 145.0491790771484 67.5078125 162.3396453857422 67.5078125 162.3396453857422 C 67.5078125 162.3396453857422 62.76057434082031 176.01708984375 41.62264251708984 176.1236419677734 C 41.54265594482422 176.1240386962891 41.46061706542969 176.1242523193359 41.38112640380859 176.1242523193359 Z"/>
  </g>
</svg>
