<svg xmlns="http://www.w3.org/2000/svg" width="90.249" height="95.695" viewBox="0 0 90.249 95.695">
  <defs>
    <style>
      .cls-1 {
        fill: #fff;
      }

      .cls-2, .cls-3 {
        stroke: none;
      }

      .cls-3 {
        fill: #707070;
      }
    </style>
  </defs>
  <g id="ch11" transform="translate(-376.82 -357.599)">
    <g id="ch11-1" class="cls-1" transform="matrix(-0.999, -0.035, 0.035, -0.999, 418.917, 452.452)">
      <path class="cls-2" d="M 7.304963111877441 92.94064331054688 L 7.304725646972656 92.94064331054688 C 6.280675888061523 92.94058990478516 5.29196310043335 92.76879119873047 4.445150852203369 92.44380187988281 C 2.993650674819946 91.88632965087891 2.173100709915161 91.28200531005859 1.78471314907074 90.48436737060547 C 1.412700653076172 89.72037506103516 1.40712571144104 88.73640441894531 1.400063157081604 87.49065399169922 C 1.395476937294006 86.68099212646484 1.39027988910675 85.7652587890625 1.287457942962646 84.71189880371094 L 2.30120062828064 77.66924285888672 C 2.305488109588623 77.63741302490234 2.674425601959229 74.92892456054688 3.701588153839111 71.16249084472656 C 4.647075653076172 67.69554138183594 6.35990047454834 62.5962028503418 9.150413513183594 57.99143981933594 C 9.843250274658203 56.84814071655273 10.6283130645752 55.78963851928711 11.48376274108887 54.8453254699707 L 11.71292591094971 54.59237670898438 L 11.56082534790039 54.28682708740234 C 11.04470062255859 53.24997711181641 10.71556282043457 52.30865097045898 10.58253860473633 51.4890022277832 C 9.491711616516113 44.77298736572266 0.7014660835266113 9.463860511779785 0.4901502132415771 8.615616798400879 C 0.03178410604596138 6.248573780059814 0.1177264526486397 4.306594848632813 0.7455756664276123 2.843264579772949 C 1.432913184165955 1.24131453037262 2.794788122177124 0.2321145683526993 4.793388366699219 -0.156285434961319 C 5.392675876617432 -0.2728354334831238 6.034900665283203 -0.3319354355335236 6.70227575302124 -0.3319354355335236 C 8.804512977600098 -0.3319354355335236 11.01463794708252 0.2511895596981049 12.76595020294189 1.267914533615112 C 14.0833215713501 2.03270959854126 15.73627758026123 3.383716344833374 16.18205642700195 5.493063449859619 C 16.11824607849121 5.930317878723145 15.85547733306885 7.875795841217041 15.77792549133301 10.74362659454346 C 15.69806289672852 13.69685173034668 15.81173801422119 18.21428871154785 16.80682563781738 22.96432685852051 C 18.35275077819824 30.34320259094238 21.3934497833252 38.3305778503418 23.40553855895996 43.61598968505859 C 23.54836273193359 43.99115371704102 23.68546295166016 44.35128784179688 23.81585121154785 44.69505310058594 L 24.23785018920898 45.80761337280273 L 24.7371883392334 44.7275505065918 C 24.78833770751953 44.61691284179688 24.84002494812012 44.50876617431641 24.89202499389648 44.39992523193359 C 25.63686370849609 42.84082794189453 26.40706253051758 41.2286376953125 26.7257137298584 31.82292747497559 C 26.90615081787109 26.51456451416016 26.37790107727051 19.71162796020508 25.91183853149414 13.70952701568604 C 25.66782569885254 10.56709003448486 25.43735122680664 7.598939418792725 25.35246276855469 5.328876972198486 C 25.24208831787109 2.377689599990845 25.41839981079102 1.386239528656006 25.58573722839355 1.074202060699463 C 25.73776245117188 0.7905270457267761 26.44445037841797 0.1310145556926727 29.71678733825684 0.1310145556926727 C 32.91666793823242 0.1310145556926727 36.53520202636719 0.75946044921875 36.90446853637695 0.8817915320396423 C 36.98383712768555 0.9160885810852051 37.06723403930664 0.940351128578186 37.16306304931641 0.9682270884513855 C 37.50379943847656 1.067339539527893 38.01871490478516 1.217114567756653 38.59361267089844 1.919327020645142 C 39.3593864440918 2.854676961898804 39.95192718505859 4.436576843261719 40.35478973388672 6.621077060699463 C 41.41557693481445 12.37311458587646 41.89775085449219 26.23101425170898 41.38665008544922 36.27700042724609 C 40.94926452636719 44.88725280761719 40.09847640991211 46.72756576538086 39.19773864746094 48.67594146728516 C 38.93088912963867 49.25313949584961 38.65496444702148 49.85000228881836 38.38446426391602 50.62602615356445 C 37.34322738647461 53.61216354370117 34.53702545166016 55.12301635742188 31.28770065307617 56.87242889404297 L 30.97992515563965 57.03821563720703 L 30.45965003967285 57.31870269775391 L 30.82251358032227 57.7852783203125 L 31.09402656555176 58.13427734375 C 33.03759002685547 60.63191604614258 35.04731369018555 63.21460342407227 36.22357559204102 65.42794036865234 C 38.83776092529297 70.34772491455078 39.62632369995117 73.99798583984375 39.70560073852539 74.38770294189453 L 39.94179916381836 81.16860198974609 L 39.94317626953125 81.20795440673828 L 39.95068740844727 81.24658966064453 C 40.35833740234375 83.34429168701172 39.92485046386719 85.47515106201172 38.73006439208984 87.24666595458984 C 37.53518676757813 89.01831817626953 35.72182464599609 90.21849060058594 33.62403869628906 90.62607574462891 C 33.0963134765625 90.7286376953125 32.57223892211914 90.7806396484375 32.06632614135742 90.78065490722656 C 30.35177612304688 90.78070068359375 28.80137634277344 90.18590545654297 27.58272552490234 89.06053924560547 C 26.37685203552246 87.94697570800781 25.54338455200195 86.36651611328125 25.17091178894043 84.48786163330078 L 24.95180130004883 78.20966339111328 L 24.64940071105957 69.54536437988281 L 24.64177513122559 69.32696533203125 L 24.47628784179688 69.1842041015625 C 24.46223831176758 69.17207336425781 23.04927635192871 67.95075225830078 21.15023803710938 66.10504150390625 L 20.69992637634277 65.66737365722656 L 20.3742504119873 66.20427703857422 C 17.58146286010742 70.80846405029297 16.07876396179199 75.44303894042969 15.30992603302002 78.52021789550781 C 14.47565078735352 81.85931396484375 14.30425071716309 84.08217620849609 14.29736328125 84.17516326904297 L 14.29597568511963 84.19387817382813 L 14.29600048065186 84.21263885498047 L 14.29960060119629 87.52733612060547 L 14.29963779449463 87.55702972412109 L 14.3031759262085 87.58650207519531 C 14.43697547912598 88.69911193847656 14.10647583007813 89.71237945556641 13.32083797454834 90.59813690185547 C 12.05870056152344 92.02114868164063 9.697325706481934 92.94064331054688 7.304963111877441 92.94064331054688 Z"/>
      <path class="cls-3" d="M 7.304963111877441 92.44064331054688 C 9.560738563537598 92.44064331054688 11.77527523040771 91.58718872070313 12.94677543640137 90.26636505126953 C 13.63340091705322 89.49221801757813 13.92273807525635 88.61066436767578 13.80675029754639 87.64620208740234 L 13.79966354370117 87.58724975585938 L 13.79960060119629 87.52789306640625 L 13.79600048065186 84.21318817138672 L 13.79596328735352 84.17566680908203 L 13.79873847961426 84.13822937011719 C 13.80575084686279 84.04350280761719 13.98030090332031 81.77919006347656 14.82483863830566 78.39901733398438 C 15.60203838348389 75.28835296630859 17.12152481079102 70.60263061523438 19.94675064086914 65.94496154785156 L 20.59808731079102 64.87115478515625 L 21.49871253967285 65.74649047851563 C 23.38542556762695 67.5802001953125 24.78894996643066 68.7935791015625 24.80290031433105 68.80561828613281 L 25.13385009765625 69.09116363525391 L 25.14908790588379 69.52792358398438 L 25.45148849487305 78.19223022460938 L 25.66917419433594 84.42961883544922 C 26.02462959289551 86.1865234375 26.80263328552246 87.65958404541016 27.92193794250488 88.69319915771484 C 29.04658889770508 89.73176574707031 30.47970008850098 90.28070068359375 32.06632614135742 90.28065490722656 C 32.54031372070313 90.2806396484375 33.03229904174805 90.23172760009766 33.5286750793457 90.13526153564453 C 35.49533843994141 89.75314331054688 37.19535064697266 88.62799072265625 38.31553649902344 86.96708679199219 C 39.43564987182617 85.30628967285156 39.8420524597168 83.30857849121094 39.45986175537109 81.34196472167969 L 39.44485092163086 81.26468658447266 L 39.44210052490234 81.18601226806641 L 39.20737457275391 74.44738006591797 C 39.09719848632813 73.9234619140625 38.29397201538086 70.38992309570313 35.78205108642578 65.66259002685547 C 34.62611389160156 63.48748779296875 32.62991333007813 60.92217636108398 30.69942474365234 58.44134140014648 L 30.42781257629395 58.09222793579102 L 29.70210075378418 57.15907669067383 L 30.74265098571777 56.59810256958008 L 31.0506763458252 56.43217849731445 C 34.33831405639648 54.66213989257813 36.93508911132813 53.26405334472656 37.91232681274414 50.46145248413086 C 38.19086456298828 49.6623649597168 38.47200012207031 49.05422592163086 38.74388885498047 48.46611404418945 C 39.62374877929688 46.56291580200195 40.45481491088867 44.76526641845703 40.88728713989258 36.25159072875977 C 41.39681243896484 26.23677635192871 40.918212890625 12.43311500549316 39.86308670043945 6.711764335632324 C 39.48116302490234 4.64078950881958 38.90840148925781 3.093127012252808 38.20672607421875 2.236064672470093 C 37.7301025390625 1.653889536857605 37.32165145874023 1.535077095031738 37.02341461181641 1.44832706451416 C 36.93080520629883 1.421394824981689 36.83549118041992 1.39366602897644 36.73820495605469 1.354185342788696 C 36.25540924072266 1.220189571380615 32.75763320922852 0.6310145854949951 29.71678733825684 0.6310145854949951 C 26.48098754882813 0.6310145854949951 26.0301628112793 1.303439617156982 26.0265007019043 1.310277104377747 C 25.95536231994629 1.446914553642273 25.73261260986328 2.140602111816406 25.85284996032715 5.32992696762085 C 25.93795013427734 7.587214469909668 26.16740036010742 10.54226493835449 26.41033744812012 13.67081451416016 C 26.87741279602051 19.68596458435059 27.40680122375488 26.50367736816406 27.22542572021484 31.83986473083496 C 26.90323829650879 41.34994125366211 26.11015129089355 43.01002883911133 25.34317588806152 44.61546325683594 C 25.29208755493164 44.7224006652832 25.24130058288574 44.82866287231445 25.19103813171387 44.9373779296875 L 24.19235038757324 47.09751510620117 L 23.34835052490234 44.87237548828125 C 23.21802520751953 44.52880096435547 23.08100128173828 44.16883850097656 22.93825149536133 43.79387664794922 C 20.92058753967285 38.49380111694336 17.87145042419434 30.48427772521973 16.31745147705078 23.06683921813965 C 15.31242561340332 18.26936531066895 15.19751358032227 13.7100772857666 15.27810096740723 10.7301025390625 C 15.35175800323486 8.006309509277344 15.5920238494873 6.098952293395996 15.67425632476807 5.512321949005127 C 15.23976230621338 3.629957914352417 13.72606468200684 2.403454303741455 12.51491355895996 1.700327038764954 C 10.8375883102417 0.7265520691871643 8.718963623046875 0.1680645644664764 6.70227575302124 0.1680645644664764 C 6.066850662231445 0.1680645644664764 5.456750869750977 0.2240645587444305 4.888762950897217 0.3345395624637604 C 3.036813259124756 0.6944395899772644 1.831875681877136 1.57953953742981 1.205075621604919 3.040414571762085 C 0.6185674667358398 4.407368659973145 0.5423640012741089 6.246675491333008 0.9785277247428894 8.507576942443848 C 1.428593277931213 10.31355857849121 9.979867935180664 44.65976333618164 11.07608795166016 51.40890121459961 C 11.20105075836182 52.17890167236328 11.51473808288574 53.07220077514648 12.00843811035156 54.06402587890625 L 12.31262588500977 54.67512893676758 L 11.85432529449463 55.18102645874023 C 11.02022552490234 56.10173797607422 10.25437545776367 57.13449096679688 9.57801342010498 58.25056457519531 C 6.820825576782227 62.80035018920898 5.125363349914551 67.84580230712891 4.188563346862793 71.27722930908203 C 3.16808819770813 75.01515197753906 2.801038265228271 77.70407867431641 2.797475576400757 77.73051452636719 L 2.796813249588013 77.73550415039063 L 2.796100616455078 77.740478515625 L 1.790900707244873 84.72378540039063 C 1.890358328819275 85.77421569824219 1.895490884780884 86.68268585205078 1.900063157081604 87.48781585693359 C 1.906763195991516 88.67001342773438 1.912050724029541 89.60377502441406 2.234250783920288 90.26548004150391 C 2.455538272857666 90.71995544433594 2.927213191986084 91.32521820068359 4.624300479888916 91.97698974609375 C 5.414525508880615 92.28026580810547 6.341300487518311 92.44058990478516 7.304388046264648 92.44064331054688 L 7.304963111877441 92.44064331054688 M 7.304958820343018 93.44064331054688 C 7.304721832275391 93.44064331054688 7.304625034332275 93.44064331054688 7.304388046264648 93.44064331054688 C 6.248063087463379 93.44058990478516 5.20365047454834 93.27045440673828 4.266000747680664 92.91059875488281 C -0.1160993203520775 91.22760009765625 1.23210072517395 89.15039825439453 0.7839006781578064 84.7008056640625 L 1.806300640106201 77.59799957275391 C 1.806300640106201 77.59799957275391 3.256200790405273 66.75299835205078 8.722800254821777 57.73230361938477 C 9.474187850952148 56.49240112304688 10.27940082550049 55.4300537109375 11.11321353912354 54.50963973999023 C 10.59890079498291 53.47641372680664 10.23737525939941 52.48335266113281 10.0890007019043 51.5691032409668 C 8.981101036071777 44.74800109863281 0.001800677506253123 8.723702430725098 0.001800677506253123 8.723702430725098 C -0.8936993479728699 4.115702152252197 0.09000067412853241 0.2484020590782166 4.698000907897949 -0.6470979452133179 C 5.336563110351563 -0.7712939977645874 6.011490821838379 -0.8319318294525146 6.702270030975342 -0.8319318294525146 C 10.99727439880371 -0.8319318294525146 15.91739654541016 1.510539531707764 16.68959999084473 5.480102062225342 C 16.68959999084473 5.480102062225342 15.38910102844238 13.75830173492432 17.29619979858398 22.86180114746094 C 18.94540023803711 30.73358917236328 22.35112571716309 39.42355346679688 24.28334999084473 44.51772689819336 C 25.03021240234375 42.90229034423828 25.88728904724121 41.80396270751953 26.22599983215332 31.80600166320801 C 26.59860038757324 20.84400177001953 23.90760040283203 3.145502090454102 25.14510154724121 0.8379020690917969 C 25.63750648498535 -0.08096893131732941 27.55579566955566 -0.3689793348312378 29.71678924560547 -0.3689793348312378 C 32.98279190063477 -0.3689793348312378 36.80353927612305 0.2886869609355927 37.09709930419922 0.4203020632266998 C 37.58580017089844 0.6390020847320557 39.75569915771484 0.6156020760536194 40.84650039672852 6.530402183532715 C 41.93730163574219 12.4452018737793 42.39540100097656 26.28990173339844 41.88600158691406 36.30240249633789 C 41.31629943847656 47.51730346679688 40.03020095825195 47.42370223999023 38.85660171508789 50.79060363769531 C 37.71747589111328 54.05749130249023 34.67547607421875 55.61391448974609 31.21720123291016 57.47832870483398 C 33.27933883666992 60.12992858886719 35.41367721557617 62.83852767944336 36.66510009765625 65.19329833984375 C 39.49380111694336 70.51679992675781 40.20389938354492 74.33010101318359 40.20389938354492 74.33010101318359 L 40.44150161743164 81.15119934082031 C 41.33700180053711 85.75920104980469 38.32830047607422 90.22140502929688 33.71940231323242 91.11690521240234 C 33.15127563476563 91.22731018066406 32.59911346435547 91.2806396484375 32.06634521484375 91.28065490722656 C 28.27789306640625 91.28076934814453 25.45848274230957 88.58497619628906 24.67259979248047 84.54510498046875 L 24.45210075378418 78.22710418701172 L 24.14970016479492 69.56280517578125 C 24.14970016479492 69.56280517578125 22.73526382446289 68.34280395507813 20.80175018310547 66.46359252929688 C 15.45812606811523 75.27310180664063 14.79600048065186 84.21210479736328 14.79600048065186 84.21210479736328 L 14.79960060119629 87.52680206298828 C 15.23466205596924 91.14455413818359 11.18614196777344 93.44064331054688 7.304958820343018 93.44064331054688 Z"/>
    </g>
    <g id="ch11-2" class="cls-1" transform="matrix(-0.999, -0.035, 0.035, -0.999, 460.917, 452.452)">
      <path class="cls-2" d="M 3.577179670333862 91.41290283203125 L 3.576803207397461 91.41290283203125 C 2.552320718765259 91.41281890869141 1.56336784362793 91.24086761474609 0.7165678143501282 90.91564178466797 C -0.7355380654335022 90.35835266113281 -1.556290984153748 89.75419616699219 -1.944773316383362 88.95668029785156 C -2.316855669021606 88.19279479980469 -2.322443962097168 87.20879364013672 -2.32952618598938 85.96299743652344 C -2.33415412902832 85.14940643310547 -2.339386463165283 84.22868347167969 -2.443694114685059 83.16885375976563 C -2.39411997795105 82.58653259277344 -1.76021683216095 75.93111419677734 1.59089720249176 70.62726593017578 C 4.940062046051025 65.32783508300781 5.556567668914795 64.55999755859375 8.519050598144531 60.87030410766602 C 8.72795581817627 60.61010360717773 8.94841480255127 60.33553695678711 9.182190895080566 60.04397201538086 C 9.962591171264648 59.07090377807617 11.1429557800293 58.02764511108398 12.89681529998779 56.76084518432617 L 13.28065013885498 56.48359680175781 L 13.02470874786377 56.08524322509766 C 11.63167381286621 53.91706848144531 10.79820346832275 52.03425598144531 10.547438621521 50.48910140991211 C 10.36890888214111 49.38993835449219 10.72694396972656 47.11708068847656 11.14152050018311 44.48533630371094 C 11.89509677886963 39.70151519775391 12.92716789245605 33.14984512329102 11.82907390594482 27.48091506958008 C 10.8904504776001 22.63778495788574 8.518096923828125 18.43281936645508 6.69322681427002 15.7581148147583 C 4.976230621337891 13.24151420593262 3.443353176116943 11.60397052764893 3.024254322052002 11.17145729064941 C 2.594915628433228 8.865306854248047 2.689267158508301 6.968870162963867 3.305179595947266 5.533361434936523 C 3.992508888244629 3.931408643722534 5.354391574859619 2.922220230102539 7.352991580963135 2.533808469772339 C 7.951791286468506 2.417443752288818 8.593579292297363 2.358443737030029 9.26050853729248 2.358443737030029 C 11.3629093170166 2.358443737030029 13.57320308685303 2.941479206085205 15.32466220855713 3.958067417144775 C 16.65936851501465 4.732761383056641 18.3383674621582 6.108926296234131 18.75747299194336 8.265584945678711 L 18.77172088623047 8.338879585266113 L 18.80681419372559 8.404902458190918 C 18.8176383972168 8.425291061401367 19.90405082702637 10.48150253295898 21.13459205627441 13.80967903137207 C 22.26849746704102 16.87649154663086 23.76053237915039 21.6823616027832 24.42918014526367 27.16136169433594 C 25.1930980682373 33.42509078979492 25.10664939880371 39.18403244018555 25.0494384765625 42.99484252929688 L 25.04562759399414 43.24980926513672 L 26.02007293701172 43.41487884521484 C 27.57172012329102 38.74387741088867 28.30973243713379 33.9989013671875 28.21359062194824 29.31173706054688 C 28.0986270904541 23.71464347839355 26.85590934753418 18.7468090057373 25.85735511779785 14.75509071350098 C 25.07818031311035 11.64025592803955 24.40525054931641 8.950197219848633 24.56161499023438 7.051137924194336 C 24.79981422424316 4.158738136291504 27.89560317993164 3.726855516433716 29.71975517272949 3.726855516433716 C 31.40265083312988 3.726855516433716 33.33015441894531 4.096455574035645 35.00802612304688 4.740867614746094 C 39.04077911376953 6.288537979125977 39.43017959594727 13.059326171875 39.43365097045898 13.12753772735596 L 39.43643951416016 13.18250274658203 L 39.45112228393555 13.23556137084961 C 39.4848518371582 13.35745525360107 42.82419204711914 25.53147888183594 42.82329559326172 34.75165557861328 C 42.82257843017578 41.9288330078125 40.68191909790039 47.12540817260742 39.26540374755859 50.56409072875977 C 38.9400634765625 51.35386657714844 38.65909576416016 52.03594970703125 38.45376968383789 52.62490081787109 C 37.8043098449707 54.48820877075195 36.31888580322266 56.53303146362305 34.03875732421875 58.70261001586914 L 33.74323654174805 58.98379516601563 L 33.95936965942383 59.32975006103516 C 34.98602676391602 60.97314834594727 35.70128631591797 62.60514831542969 36.14603805541992 64.31900024414063 C 38.00518798828125 71.48050689697266 39.1068229675293 73.62754821777344 39.4490966796875 74.17483520507813 L 39.68170928955078 80.85271453857422 L 39.68307495117188 80.89204406738281 L 39.69057846069336 80.93069458007813 C 40.09823989868164 83.02838134765625 39.66475677490234 85.15925598144531 38.46996688842773 86.93076324462891 C 37.27508544921875 88.70242309570313 35.46173095703125 89.902587890625 33.36393356323242 90.31018829345703 C 32.83620452880859 90.41275024414063 32.31200408935547 90.46475982666016 31.80588531494141 90.46479797363281 C 30.09127426147461 90.46491241455078 28.54093170166016 89.87023162841797 27.32246208190918 88.74501800537109 C 26.1166820526123 87.63154602050781 25.28326797485352 86.05092620849609 24.91080284118652 84.17195892333984 L 24.69169807434082 77.89377593994141 L 24.69050979614258 77.85977172851563 L 24.68473243713379 77.82627105712891 L 22.92073249816895 67.59416198730469 L 22.89163780212402 67.42539978027344 L 22.76516723632813 67.30989074707031 C 22.76376724243164 67.30860900878906 22.68807411193848 67.23944091796875 22.54950904846191 67.10970306396484 L 22.2940502166748 66.87051391601563 L 21.98184967041016 67.02864074707031 C 21.61502647399902 67.21443176269531 21.27160263061523 67.38093566894531 20.96112060546875 67.52352905273438 C 19.09433174133301 68.380859375 16.91126251220703 70.99295806884766 14.47259140014648 75.28729248046875 C 12.58237934112549 78.61580657958984 11.18832111358643 81.85243225097656 10.97746181488037 82.52088928222656 C 10.52836799621582 83.94068145751953 10.56908512115479 85.92726898193359 10.57103824615479 86.01113891601563 L 10.5715913772583 86.03525543212891 L 10.57447338104248 86.05919647216797 C 10.70826148986816 87.17165374755859 10.37776756286621 88.18480682373047 9.592179298400879 89.07054138183594 C 8.330108642578125 90.49346923828125 5.969085693359375 91.41290283203125 3.577179670333862 91.41290283203125 Z"/>
      <path class="cls-3" d="M 3.577200174331665 90.91290283203125 C 5.832499980926514 90.91290283203125 8.046700477600098 90.05950164794922 9.218125343322754 88.73876190185547 C 9.90470027923584 87.96466064453125 10.19402503967285 87.08321380615234 10.07805061340332 86.118896484375 L 10.07229995727539 86.07101440429688 L 10.07117557525635 86.02278900146484 C 10.06913757324219 85.93550872802734 10.0268497467041 83.86826324462891 10.50062561035156 82.37047576904297 C 10.72306251525879 81.66529083251953 12.10187530517578 78.44940948486328 14.03781223297119 75.04037475585938 C 16.52931213378906 70.65303802490234 18.78843688964844 67.97112274169922 20.7524242401123 67.06917572021484 C 21.05713844299316 66.92922210693359 21.39476203918457 66.76551055908203 21.75593757629395 66.58258819580078 L 22.3803882598877 66.26631164550781 L 22.89131355285645 66.74475860595703 C 23.02562522888184 66.87055206298828 23.09958839416504 66.93816375732422 23.10225105285645 66.94058990478516 L 23.35526275634766 67.17158508300781 L 23.4134635925293 67.50920867919922 L 25.17746353149414 77.74131011962891 L 25.18902587890625 77.80833435058594 L 25.19138717651367 77.87632751464844 L 25.40907859802246 84.11381530761719 C 26.13909339904785 87.72542572021484 28.58434867858887 89.96502685546875 31.80583763122559 89.96479034423828 C 32.28007507324219 89.96475219726563 32.77218627929688 89.91582489013672 33.26857376098633 89.81935882568359 C 35.23523712158203 89.43724060058594 36.93524932861328 88.31208801269531 38.05543899536133 86.65118408203125 C 39.1755485534668 84.99038696289063 39.58195114135742 82.99267578125 39.19976425170898 81.02606201171875 L 39.18474960327148 80.94878387451172 L 39.18199920654297 80.87010955810547 L 38.95384216308594 74.32012939453125 C 38.49787902832031 73.53266906738281 37.40397644042969 71.15447998046875 35.66206359863281 64.44457244873047 C 35.23028945922852 62.78070068359375 34.53462600708008 61.19427490234375 33.53531265258789 59.59465026855469 L 33.10306167602539 58.90273666381836 L 33.69408798217773 58.34037399291992 C 35.91604995727539 56.22616195678711 37.35858917236328 54.24784851074219 37.98163604736328 52.46030044555664 C 38.19151306152344 51.8582878112793 38.47493743896484 51.17027282714844 38.8031005859375 50.37362289428711 C 40.20461273193359 46.97137451171875 42.32258605957031 41.82983779907227 42.32329940795898 34.7515983581543 C 42.32417678833008 25.6015739440918 39.00277328491211 13.49017429351807 38.9692268371582 13.36889934539795 L 38.93986129760742 13.26278686523438 L 38.93428802490234 13.15288734436035 C 38.93344879150391 13.13632488250732 38.84336090087891 11.47493743896484 38.25128936767578 9.623537063598633 C 37.7353630065918 8.010224342346191 36.72283935546875 5.934512138366699 34.82876205444336 5.207612037658691 C 33.20591354370117 4.58433723449707 31.34375 4.22686243057251 29.71976280212402 4.22686243057251 C 28.34354972839355 4.22686243057251 27.19212532043457 4.477274894714355 26.38997459411621 4.951012134552002 C 25.57394981384277 5.432962417602539 25.13888740539551 6.133337020874023 25.0599250793457 7.092162132263184 C 24.91033744812012 8.908937454223633 25.573974609375 11.56190013885498 26.3424129486084 14.63374996185303 C 27.3470630645752 18.64984893798828 28.59736251831055 23.64801216125488 28.71348762512207 29.30150032043457 C 28.81078720092773 34.04581069946289 28.06423759460449 38.84727478027344 26.49457550048828 43.57251358032227 L 24.54567527770996 43.24236297607422 L 24.54948806762695 42.98771286010742 C 24.60650062561035 39.19042587280273 24.69266319274902 33.45193862915039 23.93286323547363 27.22193717956543 C 23.27106285095215 21.79908752441406 21.79463768005371 17.03968811035156 20.67259979248047 14.00194931030273 C 19.45297431945801 10.70002460479736 18.37596321105957 8.659662246704102 18.36541175842285 8.639787673950195 L 18.29518699645996 8.50776195526123 L 18.26666259765625 8.3609619140625 C 17.88336181640625 6.388624668121338 16.3187370300293 5.113174915313721 15.07366275787354 4.390499591827393 C 13.39617538452148 3.416849613189697 11.27737522125244 2.858437299728394 9.260512351989746 2.858437299728394 C 8.62556266784668 2.858437299728394 8.015862464904785 2.914349794387817 7.448362827301025 3.024637222290039 C 5.596412658691406 3.384537220001221 4.391475200653076 4.269637107849121 3.764675140380859 5.730512142181396 C 3.201127052307129 7.043953895568848 3.108700275421143 8.793422698974609 3.48924732208252 10.93402481079102 C 4.033105850219727 11.50592041015625 5.492533683776855 13.11109638214111 7.106250286102295 15.47632503509521 C 8.957674980163574 18.18993759155273 11.36507511138916 22.45887565612793 12.31995010375977 27.38583755493164 C 13.43473815917969 33.14093780517578 12.394775390625 39.74271392822266 11.63542556762695 44.56312561035156 C 11.22753810882568 47.15247344970703 10.87526226043701 49.38872528076172 11.04098796844482 50.40900039672852 C 11.28069972991943 51.88605117797852 12.08965015411377 53.70487594604492 13.44536304473877 55.81497573852539 L 13.95725059509277 56.61167526245117 L 13.18958759307861 57.16616058349609 C 11.47318744659424 58.40591049194336 10.32375049591064 59.41977310180664 9.572287559509277 60.35675048828125 C 9.338462829589844 60.64836120605469 9.117975234985352 60.92298889160156 8.909025192260742 61.18322372436523 C 5.961137771606445 64.854736328125 5.347675323486328 65.61878967285156 2.013587713241577 70.89434051513672 C -1.206993699073792 75.99160003662109 -1.871147751808167 82.3843994140625 -1.941576361656189 83.16634368896484 C -1.839374780654907 84.22934722900391 -1.834153056144714 85.1474609375 -1.829537272453308 85.96015167236328 C -1.82281231880188 87.14236450195313 -1.817512273788452 88.07614898681641 -1.495262265205383 88.73772430419922 C -1.273924827575684 89.19211578369141 -0.8021498322486877 89.79723358154297 0.895837664604187 90.44889068603516 C 1.686037659645081 90.75237274169922 2.613000154495239 90.91283416748047 3.576437711715698 90.91290283203125 L 3.577200174331665 90.91290283203125 M 3.577198266983032 91.91290283203125 C 3.576724529266357 91.91290283203125 3.576911449432373 91.91290283203125 3.576437711715698 91.91290283203125 C 2.519862651824951 91.91282653808594 1.475025177001953 91.74254608154297 0.537300169467926 91.38240051269531 C -3.845699787139893 89.70030212402344 -2.497499704360962 87.62310028076172 -2.94569993019104 83.17350006103516 C -2.94569993019104 83.17350006103516 -2.433599710464478 76.06079864501953 1.168200135231018 70.36019897460938 C 4.770900249481201 64.65959930419922 5.260499954223633 64.13580322265625 8.792099952697754 59.731201171875 C 9.703900337219238 58.59429931640625 11.06313800811768 57.46851348876953 12.6040506362915 56.35551071166992 C 11.31777477264404 54.35350036621094 10.34193801879883 52.34399795532227 10.05389976501465 50.56919860839844 C 9.531000137329102 47.34989929199219 13.04370021820068 36.38069915771484 11.33820056915283 27.57600021362305 C 9.552599906921387 18.36269950866699 2.561400175094604 11.41379928588867 2.561400175094604 11.41379928588867 C 1.665900230407715 6.805799961090088 2.649600267410278 2.938499689102173 7.2576003074646 2.042999744415283 C 7.895756244659424 1.918982982635498 8.570119857788086 1.858443379402161 9.260516166687012 1.858443379402161 C 13.55533123016357 1.858443379402161 18.47681617736816 4.200356006622314 19.24830055236816 8.170199394226074 C 19.24830055236816 8.170199394226074 23.61779975891113 16.38539886474609 24.92550086975098 27.10079956054688 C 25.71061325073242 33.53836059570313 25.60318756103516 39.39039993286133 25.54556274414063 43.25726318359375 C 26.62622451782227 40.00410079956055 27.83316230773926 35.14678573608398 27.71369934082031 29.32200050354004 C 27.50850105285645 19.33199882507324 23.69700050354004 11.45879936218262 24.06330108642578 7.0100998878479 C 24.28917503356934 4.267416477203369 26.80033111572266 3.226858377456665 29.71975708007813 3.226858377456665 C 31.53475379943848 3.226858377456665 33.50736999511719 3.628901720046997 35.18730163574219 4.274099826812744 C 39.5703010559082 5.956199645996094 39.93299865722656 13.10219955444336 39.93299865722656 13.10219955444336 C 39.93299865722656 13.10219955444336 43.32419967651367 25.3538990020752 43.32329940795898 34.75170135498047 C 43.3223991394043 43.70130157470703 39.99959945678711 49.70970153808594 38.92589950561523 52.78950119018555 C 38.18463897705078 54.91617584228516 36.48412704467773 57.06598663330078 34.3834114074707 59.06482315063477 C 35.33174896240234 60.58285140991211 36.13206100463867 62.27455139160156 36.63000106811523 64.19339752197266 C 38.81340026855469 72.60389709472656 39.94380187988281 74.01419830322266 39.94380187988281 74.01419830322266 L 40.18140029907227 80.83529663085938 C 41.07690048217773 85.44329833984375 38.06819915771484 89.90550231933594 33.45930099487305 90.80100250244141 C 32.89117431640625 90.91140747070313 32.33867645263672 90.96475219726563 31.80591011047363 90.96479034423828 C 28.01745796203613 90.96505737304688 25.1983814239502 88.26986694335938 24.41250038146973 84.22920227050781 L 24.1919994354248 77.91120147705078 L 22.42799949645996 67.67910003662109 C 22.42799949645996 67.67910003662109 22.3505744934082 67.60841369628906 22.2077751159668 67.47468566894531 C 21.82708740234375 67.66750335693359 21.47883796691895 67.83597564697266 21.1697998046875 67.97791290283203 C 16.9955997467041 69.8948974609375 11.88269996643066 81.31320190429688 11.45429992675781 82.67130279541016 C 11.02500057220459 84.02850341796875 11.07089996337891 85.99949645996094 11.07089996337891 85.99949645996094 C 11.50590991973877 89.61676025390625 7.457690238952637 91.91290283203125 3.577198266983032 91.91290283203125 Z"/>
    </g>
  </g>
</svg>
