<svg xmlns="http://www.w3.org/2000/svg" width="54.077" height="175.133" viewBox="0 0 54.077 175.133">
  <defs>
    <style>
      .cls-1 {
        fill: #fff;
        stroke-linecap: round;
        stroke-linejoin: round;
      }

      .cls-2, .cls-3 {
        stroke: none;
      }

      .cls-3 {
        fill: #9a9a9a;
      }
    </style>
  </defs>
  <g id="ch11-2" class="cls-1" transform="translate(0.023 0.009)">
    <path class="cls-2" d="M 26.61106109619141 174.1243133544922 C 21.39621925354004 174.1241912841797 16.79812812805176 173.4758605957031 12.9444694519043 172.197265625 C 9.893174171447754 171.1849060058594 7.301492691040039 169.7776489257813 5.241446971893311 168.0146026611328 C 2.106651067733765 165.3317565917969 1.163794279098511 162.6155395507813 0.9999924898147583 162.0725250244141 L 0.9999924898147583 109.1017837524414 C 2.056576728820801 107.9226913452148 6.0349440574646 103.3552551269531 10.06899261474609 97.07155609130859 C 16.29706001281738 87.37028503417969 19.45494651794434 78.67078399658203 19.45494651794434 71.21475982666016 C 19.45494651794434 61.88703536987305 14.32281112670898 53.31596755981445 10.01749229431152 47.76824188232422 C 6.083337783813477 42.69881439208984 2.197540044784546 39.23612213134766 0.9999924898147583 38.21338272094727 L 0.9999924898147583 15.76362705230713 L 0.9999924898147583 15.70694541931152 L 0.9935833811759949 15.65060424804688 C 0.9929697513580322 15.64451313018799 0.8899697661399841 14.61276340484619 1.21233344078064 13.12901306152344 C 1.640583395957947 11.15787696838379 2.578174352645874 9.358217239379883 3.999083280563354 7.780035972595215 C 5.77274227142334 5.810013294219971 8.271651268005371 4.240854263305664 11.42640113830566 3.116126775741577 C 15.3812427520752 1.706172227859497 20.38422012329102 0.9912631511688232 26.29637908935547 0.9912631511688232 C 26.63487815856934 0.9912631511688232 26.98126602172852 0.9936267733573914 27.32590103149414 0.9982858896255493 C 33.66756057739258 1.084149479866028 38.96855926513672 1.89921772480011 43.08163070678711 3.420876741409302 C 46.32549285888672 4.620967864990234 48.8332633972168 6.259058475494385 50.53533172607422 8.289649963378906 C 53.57392501831055 11.91476345062256 53.01906204223633 15.56583118438721 53.01308441162109 15.60228633880615 L 52.99999237060547 15.68242263793945 L 52.99999237060547 15.76362705230713 L 52.99999237060547 36.7649040222168 C 52.12240219116211 37.80845642089844 49.09556579589844 41.54816818237305 46.03285598754883 46.97174072265625 C 42.7365608215332 52.80896759033203 38.80724334716797 61.75323867797852 38.80724334716797 71.21475982666016 C 38.80724334716797 80.65312957763672 42.72312927246094 90.51244354248047 46.00812911987305 97.12135314941406 C 49.12931060791016 103.4006576538086 52.20887756347656 107.9095916748047 52.99999237060547 109.0352249145508 L 52.99999237060547 162.0630340576172 C 52.82221221923828 162.6113128662109 51.82383346557617 165.2999725341797 48.62028884887695 167.9666900634766 C 46.50746917724609 169.7254943847656 43.8615608215332 171.1334838867188 40.75610733032227 172.151611328125 C 36.83660507202148 173.4365997314453 32.17360687255859 174.10009765625 26.89662933349609 174.1236419677734 C 26.80065155029297 174.1240844726563 26.70635604858398 174.1243133544922 26.61106109619141 174.1243133544922 Z"/>
    <path class="cls-3" d="M 26.6110897064209 173.1242828369141 L 26.61106491088867 173.1242828369141 C 26.70494079589844 173.1242828369141 26.79778671264648 173.1240692138672 26.89216041564941 173.1236724853516 C 32.00839996337891 173.1008148193359 36.52637481689453 172.4676513671875 40.32051849365234 171.2417449951172 C 43.29692459106445 170.2800750732422 45.83194732666016 168.9543609619141 47.85518646240234 167.3014831542969 C 50.73013687133789 164.9528045654297 51.74947738647461 162.5862579345703 51.99999618530273 161.8959197998047 L 51.99999618530273 109.3492889404297 C 50.97563552856445 107.8696594238281 48.05874633789063 103.493522644043 45.1126594543457 97.56647491455078 C 40.26515960693359 87.81404876708984 37.80725479125977 78.94805145263672 37.80725479125977 71.21476745605469 C 37.80725479125977 61.53600311279297 41.80685043334961 52.42166900634766 45.16211318969727 46.48002624511719 C 48.02973937988281 41.40188980102539 50.87657928466797 37.76776123046875 51.99999618530273 36.40367889404297 L 51.99999618530273 15.76362133026123 C 51.99999618530273 15.64560317993164 52.00400161743164 15.5649299621582 52.02439117431641 15.45085430145264 C 52.0364990234375 15.35403347015381 52.12869262695313 14.52504253387451 51.90749359130859 13.35116863250732 C 51.59949493408203 11.71683597564697 50.85542297363281 10.20100212097168 49.6959228515625 8.84578800201416 C 48.09092330932617 6.969907283782959 45.71635055541992 5.448311805725098 42.63813781738281 4.323240280151367 C 38.64577865600586 2.864073753356934 33.48944854736328 2.081811904907227 27.31244659423828 1.9981689453125 C 26.97166061401367 1.993573784828186 26.62982749938965 1.991240382194519 26.29644775390625 1.991240382194519 C 20.52199554443359 1.991240382194519 15.64725685119629 2.681192874908447 11.80763721466064 4.041930675506592 C 8.812089920043945 5.10352611541748 6.447613716125488 6.572359561920166 4.779828071594238 8.407621383666992 C 3.480375528335571 9.837574005126953 2.616065979003906 11.46524047851563 2.210899353027344 13.24540710449219 C 1.918058037757874 14.53201866149902 1.980523228645325 15.44939994812012 1.988303542137146 15.54625225067139 C 1.99863874912262 15.62761306762695 1.99999463558197 15.67940235137939 1.99999463558197 15.76362133026123 L 1.99999463558197 37.75645446777344 C 3.519855260848999 39.08590698242188 7.14840841293335 42.44015884399414 10.8074951171875 47.15514373779297 C 17.11892318725586 55.28786087036133 20.45494651794434 63.60752487182617 20.45494651794434 71.21476745605469 C 20.45494651794434 78.86545562744141 17.24373245239258 87.74669647216797 10.91049480438232 97.61180877685547 C 7.115638256072998 103.5229339599609 3.362152338027954 107.9385528564453 1.99999463558197 109.4818649291992 L 1.99999463558197 161.9252014160156 C 2.210605382919312 162.5604400634766 3.108765602111816 164.831298828125 5.779851913452148 167.1582946777344 C 7.732994556427002 168.8598175048828 10.21144676208496 170.22314453125 13.14637565612793 171.2103881835938 C 16.92149543762207 172.4802398681641 21.45168495178223 173.1241760253906 26.6110897064209 173.1242828369141 M 26.61105346679688 175.1242980957031 C 3.039294242858887 175.1237945556641 -5.359468104870757e-06 162.2086944580078 -5.359468104870757e-06 162.2086944580078 L -5.359468104870757e-06 108.7160720825195 C -5.359468104870757e-06 108.7160720825195 18.45494651794434 88.72386169433594 18.45494651794434 71.21476745605469 C 18.45494651794434 53.70566940307617 -5.359468104870757e-06 38.67971801757813 -5.359468104870757e-06 38.67971801757813 L -5.359468104870757e-06 15.76362133026123 C -5.359468104870757e-06 15.76362133026123 -1.79403018951416 -0.008762930519878864 26.29643440246582 -0.008762930519878864 C 26.63830375671387 -0.008762930519878864 26.98867034912109 -0.006389126647263765 27.33944702148438 -0.001640534843318164 C 56.5126838684082 0.3933118581771851 53.99999618530273 15.76362133026123 53.99999618530273 15.76362133026123 L 53.99999618530273 37.13383483886719 C 53.99999618530273 37.13383483886719 39.80725479125977 53.31919097900391 39.80725479125977 71.21476745605469 C 39.80725479125977 89.11033630371094 53.99999618530273 108.7160720825195 53.99999618530273 108.7160720825195 L 53.99999618530273 162.2086944580078 C 53.99999618530273 162.2086944580078 50.7392578125 175.0172119140625 26.90109062194824 175.1236419677734 C 26.80360794067383 175.1240844726563 26.70784187316895 175.1242980957031 26.61105346679688 175.1242980957031 Z"/>
  </g>
</svg>
