<svg xmlns="http://www.w3.org/2000/svg" width="70.487" height="177.767" viewBox="0 0 70.487 177.767">
  <defs>
    <style>
      .cls-1 {
        fill: #fff;
        stroke-linecap: round;
        stroke-linejoin: round;
      }

      .cls-2, .cls-3 {
        stroke: none;
      }

      .cls-3 {
        fill: #a1a1a1;
      }
    </style>
  </defs>
  <g id="ch12-2" class="cls-1" transform="translate(-15.653 1.53)">
    <path class="cls-2" d="M 66.65301513671875 175.23681640625 C 62.31292343139648 175.23681640625 58.13742446899414 174.4812164306641 54.24253845214844 172.9909973144531 C 51.12237930297852 171.7971954345703 48.17094802856445 170.1309051513672 45.47026443481445 168.0384063720703 C 41.01019668579102 164.5827331542969 38.69911956787109 161.0755157470703 38.52421188354492 160.8046569824219 C 38.23235702514648 160.2860260009766 32.87154388427734 150.69287109375 27.58046913146973 136.9501953125 C 24.40469741821289 128.70166015625 21.87496948242188 120.5939712524414 20.06158256530762 112.8523559570313 C 17.7998104095459 103.1966552734375 16.65301513671875 94.08953857421875 16.65301513671875 85.78399658203125 C 16.65301513671875 77.47597503662109 17.80062866210938 68.57428741455078 20.06399154663086 59.32622146606445 C 21.87783241271973 51.91481399536133 24.40785598754883 44.26717758178711 27.58378791809082 36.59572219848633 C 32.99174118041992 23.53288078308105 38.45710754394531 14.8440408706665 38.51169586181641 14.75781345367432 L 38.56833267211914 14.66829109191895 L 38.6049690246582 14.56892681121826 C 38.61842346191406 14.53288173675537 40.06403732299805 10.74049472808838 44.11692428588867 7.007813453674316 C 46.48944473266602 4.822722434997559 49.28271865844727 3.081517934799194 52.41915130615234 1.83254063129425 C 56.35617446899414 0.2647451758384705 60.85383224487305 -0.530186653137207 65.78719329833984 -0.530186653137207 C 66.0670166015625 -0.530186653137207 66.35226440429688 -0.5276184678077698 66.63504028320313 -0.5225275158882141 C 70.99440002441406 -0.4441411793231964 74.66146850585938 0.1903360933065414 77.53440093994141 1.363313317298889 C 79.86994934082031 2.316858768463135 81.69985198974609 3.634745121002197 82.97328948974609 5.280381679534912 C 84.24924468994141 6.929244995117188 84.96967315673828 8.884267807006836 85.11460876464844 11.09113121032715 C 85.20538330078125 12.47335910797119 85.03005981445313 13.53270053863525 84.96336364746094 13.87186527252197 C 84.33880615234375 15.02522277832031 79.80818939208984 23.54001235961914 75.34169769287109 35.87269973754883 C 70.92176818847656 48.07678985595703 65.65301513671875 66.64256286621094 65.65301513671875 85.78399658203125 C 65.65301513671875 104.9158782958984 70.91773986816406 124.55517578125 75.33428955078125 137.6615447998047 C 79.72184753417969 150.681884765625 84.16895294189453 160.0220336914063 84.90846252441406 161.5461883544922 C 84.89537048339844 161.9733428955078 84.82561492919922 163.0454711914063 84.46855926513672 164.3972015380859 C 83.85499572753906 166.7200927734375 82.72735595703125 168.7317657470703 81.11696624755859 170.3763580322266 C 77.95890045166016 173.6015167236328 73.09251403808594 175.23681640625 66.65301513671875 175.23681640625 Z"/>
    <path class="cls-3" d="M 65.78665924072266 0.4698028564453125 L 65.78665924072266 0.46978759765625 C 65.78645324707031 0.46978759765625 65.78628540039063 0.4698028564453125 65.78608703613281 0.4698028564453125 C 61.00899124145508 0.4698028564453125 56.65889739990234 1.231918334960938 52.85665893554688 2.734970092773438 C 49.84132385253906 3.92694091796875 47.1549186706543 5.588241577148438 44.87208557128906 7.672744750976563 C 41.01522827148438 11.19451904296875 39.59464263916016 14.78251647949219 39.54185485839844 14.91868591308594 C 39.49276733398438 15.05424499511719 39.43415069580078 15.1700439453125 39.35696411132813 15.29216003417969 C 39.30253601074219 15.37825012207031 33.85147094726563 24.05308532714844 28.47605895996094 37.05482482910156 C 25.32742309570313 44.67056274414063 22.82001495361328 52.25998687744141 21.02349090576172 59.61231994628906 C 18.78701782226563 68.76512908935547 17.65301513671875 77.57053375244141 17.65301513671875 85.78398895263672 C 17.65301513671875 94.00710296630859 18.78937530517578 103.0307693481445 21.03054046630859 112.6043243408203 C 22.83144378662109 120.2972259521484 25.34494018554688 128.3565368652344 28.50118255615234 136.5583953857422 C 33.69960784912109 150.0670776367188 38.96808624267578 159.5516815185547 39.38033294677734 160.286865234375 C 39.61811828613281 160.6500854492188 41.87263488769531 164.0014953613281 46.14584732055664 167.2966766357422 C 48.76558685302734 169.3168182373047 51.62591934204102 170.9245300292969 54.64741897583008 172.0751800537109 C 58.41399002075195 173.5095367431641 62.45325469970703 174.23681640625 66.65301513671875 174.23681640625 C 72.79780578613281 174.23681640625 77.41629791259766 172.7102203369141 80.38018035888672 169.6994171142578 C 81.86122894287109 168.1949157714844 82.90465545654297 166.3505554199219 83.48146820068359 164.2175750732422 C 83.77463531494141 163.1334533691406 83.86811828613281 162.2398071289063 83.89774322509766 161.7551574707031 C 82.88536834716797 159.6595306396484 78.66438293457031 150.6753234863281 74.38663482666016 137.9808654785156 C 69.94620513916016 124.8036346435547 64.65301513671875 105.0513916015625 64.65301513671875 85.78398895263672 C 64.65301513671875 66.49751281738281 69.95425415039063 47.81156158447266 74.40144348144531 35.53215026855469 C 78.7958984375 23.39837646484375 83.13517761230469 15.15106201171875 84.00875854492188 13.53366088867188 C 84.07694244384766 13.13310241699219 84.19468688964844 12.22508239746094 84.11151123046875 11.08074951171875 C 83.96730041503906 9.096725463867188 83.31256103515625 7.343765258789063 82.16551208496094 5.870574951171875 C 80.99813842773438 4.37127685546875 79.30593872070313 3.163482666015625 77.13594055175781 2.280776977539063 C 74.38087463378906 1.1600341796875 70.841796875 0.5532684326171875 66.61701965332031 0.477294921875 C 66.34151458740234 0.47235107421875 66.06227111816406 0.469818115234375 65.78665924072266 0.4698028564453125 M 65.78719329833984 -1.530197143554688 C 66.07272338867188 -1.530181884765625 66.362060546875 -1.527603149414063 66.65301513671875 -1.522369384765625 C 89.68201446533203 -1.108291625976563 85.91082763671875 14.22305297851563 85.91082763671875 14.22305297851563 C 85.91082763671875 14.22305297851563 66.65301513671875 49.00981903076172 66.65301513671875 85.78398895263672 C 66.65301513671875 122.5581817626953 85.91082763671875 161.3197784423828 85.91082763671875 161.3197784423828 C 85.91082763671875 161.3197784423828 86.29887390136719 176.23681640625 66.65301513671875 176.23681640625 C 47.00715637207031 176.23681640625 37.66667938232422 161.3197784423828 37.66667938232422 161.3197784423828 C 37.66667938232422 161.3197784423828 15.65301513671875 122.5581817626953 15.65301513671875 85.78398895263672 C 15.65301513671875 49.00981903076172 37.66667938232422 14.22305297851563 37.66667938232422 14.22305297851563 C 37.66667938232422 14.22305297851563 43.47332382202148 -1.530715942382813 65.78719329833984 -1.530197143554688 Z"/>
  </g>
</svg>
