<svg xmlns="http://www.w3.org/2000/svg" width="89.96" height="92.465" viewBox="0 0 89.96 92.465">
  <defs>
    <style>
      .cls-1 {
        fill: #fff;
      }

      .cls-2, .cls-3 {
        stroke: none;
      }

      .cls-3 {
        fill: #707070;
      }
    </style>
  </defs>
  <g id="ch12" transform="translate(-374.554 -361.113)">
    <g id="ch12-1" class="cls-1" transform="matrix(-0.999, -0.035, 0.035, -0.999, 418.917, 452.452)">
      <path class="cls-2" d="M 35.82830047607422 89.34515380859375 C 34.11359405517578 89.34521484375 32.56306457519531 88.75039672851563 31.34434509277344 87.62503814697266 C 30.15220260620117 86.52420806884766 29.32421875 84.96723937988281 28.94593048095703 83.11708831787109 C 29.04798126220703 82.63245391845703 29.34772491455078 80.74643707275391 28.73091125488281 77.42218780517578 C 28.02028656005859 73.59142303466797 24.68043899536133 69.42409515380859 24.53860473632813 69.24856567382813 L 24.51034545898438 69.21358489990234 L 24.47628784179688 69.1842041015625 C 24.46222877502441 69.17208099365234 23.04911041259766 67.95063781738281 21.14952278137207 66.10435485839844 L 20.70072174072266 65.66812896728516 L 20.37439346313477 66.20218658447266 C 17.60048675537109 70.74174499511719 16.4061450958252 74.35984802246094 15.89267539978027 76.59568023681641 C 15.41348361968994 78.68223571777344 15.41613864898682 79.98802947998047 15.43077945709229 80.37021636962891 L 13.52033424377441 85.67251586914063 C 13.11476993560791 85.90606689453125 12.79327487945557 86.13792419433594 12.50561618804932 86.34537506103516 C 11.81663990020752 86.84226226806641 11.36147499084473 87.17051696777344 10.25778102874756 87.17051696777344 C 9.682475090026855 87.17051696777344 8.963310241699219 87.07950592041016 8.059192657470703 86.89229583740234 C 5.931581020355225 86.45114135742188 4.742392539978027 85.94947052001953 3.954686880111694 85.16074371337891 C 3.107698917388916 84.31265258789063 2.63460898399353 82.99800109863281 2.421523332595825 80.89947509765625 L 2.307504653930664 77.62403106689453 C 2.357340097427368 77.27336120605469 2.742575645446777 74.67903137207031 3.701592683792114 71.16249084472656 C 4.647075176239014 67.69552612304688 6.359898567199707 62.59619903564453 9.150416374206543 57.99143600463867 C 9.843286514282227 56.84809494018555 10.62833404541016 55.78958892822266 11.48376941680908 54.84532928466797 L 11.71292209625244 54.59237670898438 L 11.56082820892334 54.28682327270508 C 11.04471015930176 53.2499885559082 10.71556949615479 52.30867004394531 10.58254528045654 51.4890022277832 C 9.491715431213379 44.77299118041992 0.7014509439468384 9.46379280090332 0.490137904882431 8.615540504455566 C 0.03177837654948235 6.248494148254395 0.1177295818924904 4.306593894958496 0.7455810308456421 2.84325909614563 C 1.432910442352295 1.241317987442017 2.794792890548706 0.2321180105209351 4.793392658233643 -0.1562702208757401 C 5.39268684387207 -0.2728349268436432 6.03489875793457 -0.3319290578365326 6.702275276184082 -0.3319290578365326 C 8.804510116577148 -0.3319290578365326 11.01463985443115 0.2511886060237885 12.76595783233643 1.267917990684509 C 14.08332347869873 2.03271746635437 15.73627758026123 3.383706569671631 16.18206024169922 5.493046760559082 C 16.11824989318848 5.93030309677124 15.85547351837158 7.875798225402832 15.77792263031006 10.74362373352051 C 15.69806289672852 13.6968469619751 15.81173419952393 18.21429443359375 16.80682754516602 22.96431732177734 C 18.35278129577637 30.34333038330078 21.39336967468262 38.33038711547852 23.40539360046387 43.6155891418457 L 23.65296936035156 44.26617813110352 L 24.61233329772949 43.99944686889648 C 24.52783966064453 43.53251647949219 24.33105087280273 43.05813980102539 24.08192253112793 42.45755386352539 C 23.33495712280273 40.6568603515625 22.08476829528809 37.64304733276367 22.32112312316895 30.68267059326172 C 22.50125122070313 25.3705883026123 23.00014495849609 18.59603500366211 23.6556510925293 12.56072998046875 C 24.32831001281738 6.367541313171387 25.04983901977539 2.073506355285645 25.58573341369629 1.074188590049744 C 25.73775672912598 0.7905179858207703 26.4444522857666 0.1310238987207413 29.71678161621094 0.1310238987207413 C 32.91667556762695 0.1310238987207413 36.53522872924805 0.7594731450080872 36.90448379516602 0.8818027377128601 C 36.98386001586914 0.9161003232002258 37.06723403930664 0.9403539299964905 37.16306304931641 0.9682238698005676 C 37.50379180908203 1.067341566085815 38.01871109008789 1.21711802482605 38.59360504150391 1.919317960739136 C 39.35938262939453 2.854671001434326 39.95192337036133 4.436564922332764 40.35479354858398 6.621082782745361 C 40.93297958374023 9.756294250488281 39.78262710571289 15.17976474761963 38.56472396850586 20.92167091369629 C 37.51225280761719 25.88364791870117 36.42394638061523 31.01455307006836 36.19094467163086 35.59479904174805 C 35.96413421630859 40.05939865112305 35.94824981689453 42.62261199951172 35.937744140625 44.31874084472656 C 35.92199325561523 46.86190795898438 35.91914749145508 47.32015228271484 35.23895645141602 49.27151870727539 C 34.22765350341797 52.17301177978516 32.25233459472656 53.98582458496094 29.96540451049805 55.890625 L 29.59592247009277 56.1983757019043 L 29.88902854919434 56.5795783996582 C 30.28498077392578 57.09455490112305 30.69616889953613 57.62296676635742 31.09381675720215 58.13397598266602 C 33.0374641418457 60.63174057006836 35.04729843139648 63.21455383300781 36.22357940673828 65.42794036865234 C 38.98435592651367 70.62361145019531 39.70539093017578 74.38426208496094 39.71234512329102 74.42163848876953 L 39.7335205078125 74.53535461425781 L 39.80248641967773 74.62821197509766 L 43.73329162597656 79.92116546630859 C 44.50579452514648 84.21171569824219 41.67917633056641 88.35543060302734 37.38593292236328 89.19059753417969 C 36.85832214355469 89.29314422607422 36.334228515625 89.34513854980469 35.82830047607422 89.34515380859375 Z"/>
      <path class="cls-3" d="M 35.82828903198242 88.84516143798828 C 36.30223846435547 88.84514617919922 36.79425048828125 88.79623413085938 37.29045104980469 88.69980621337891 C 41.27750396728516 87.92420959472656 43.91542053222656 84.10525512695313 43.26079559326172 80.12355804443359 L 39.40107727050781 74.92632293701172 L 39.26367568969727 74.74043273925781 L 39.22101593017578 74.51433563232422 C 39.21405029296875 74.47743225097656 38.49356460571289 70.76554870605469 35.78205108642578 65.66258239746094 C 34.62609100341797 63.48743438720703 32.62977600097656 60.92198181152344 30.69918823242188 58.44100952148438 C 30.30110168457031 57.929443359375 29.88947677612305 57.40045928955078 29.49263954162598 56.88434600830078 L 28.90643882751465 56.12192153930664 L 29.64541435241699 55.50642013549805 C 31.95338821411133 53.5840950012207 33.79600143432617 51.89224624633789 34.76682662963867 49.1069450378418 C 35.419677734375 47.2340202331543 35.42207717895508 46.84523391723633 35.43775177001953 44.31567001342773 C 35.44828796386719 42.61510848999023 35.46421432495117 40.04518127441406 35.69158935546875 35.56940841674805 C 35.92661285400391 30.94956970214844 37.01910018920898 25.79895782470703 38.07561492919922 20.81792068481445 C 39.28293991088867 15.12586975097656 40.42330169677734 9.749507904052734 39.86309051513672 6.711757659912109 C 39.48116302490234 4.640795230865479 38.90840148925781 3.093132734298706 38.20673751831055 2.236082792282104 C 37.7301139831543 1.653895258903503 37.32165145874023 1.535082697868347 37.02341461181641 1.448320269584656 C 36.9307861328125 1.421386003494263 36.83547592163086 1.393659591674805 36.73818969726563 1.354174375534058 C 36.25539779663086 1.220178961753845 32.75765991210938 0.6310202479362488 29.71680068969727 0.6310202479362488 C 26.48098945617676 0.6310202479362488 26.03016471862793 1.303432703018188 26.02637672424316 1.310495257377625 C 25.65276336669922 2.007182836532593 24.93788909912109 5.385757923126221 24.1527271270752 12.61472034454346 C 23.49847602844238 18.63845825195313 23.00056457519531 25.3991584777832 22.82082748413086 30.69964599609375 C 22.58816337585449 37.55160903930664 23.81233978271484 40.50271987915039 24.54375076293945 42.26595687866211 C 24.80440139770508 42.89428329467773 25.01026344299316 43.39058303833008 25.10433959960938 43.91041946411133 L 23.18560218811035 44.44388198852539 L 22.93810081481934 43.79348373413086 C 20.92050170898438 38.49362182617188 17.87148857116699 30.48440742492676 16.31745147705078 23.06684494018555 C 15.31242656707764 18.26937103271484 15.19751453399658 13.7100830078125 15.27810192108154 10.73010730743408 C 15.35175895690918 8.006304740905762 15.59202480316162 6.098945617675781 15.67425727844238 5.512314796447754 C 15.2397632598877 3.62995171546936 13.72606563568115 2.403460025787354 12.51491451263428 1.700332760810852 C 10.83758926391602 0.726557731628418 8.718963623046875 0.1680702269077301 6.702276706695557 0.1680702269077301 C 6.066851615905762 0.1680702269077301 5.456751823425293 0.2240702211856842 4.888763904571533 0.334545224905014 C 3.036814212799072 0.6944451928138733 1.83186411857605 1.579545259475708 1.205076575279236 3.040407657623291 C 0.6185684204101563 4.407374382019043 0.5423776507377625 6.246682643890381 0.9785290360450745 8.507583618164063 C 1.428594589233398 10.31355381011963 9.97986888885498 44.65975570678711 11.07608890533447 51.40890884399414 C 11.20105171203613 52.17890930175781 11.51473903656006 53.07220840454102 12.00843906402588 54.06400680541992 L 12.31262683868408 54.67512130737305 L 11.85432624816895 55.1810188293457 C 11.02025127410889 56.1016960144043 10.25440120697021 57.13444519042969 9.578014373779297 58.25055694580078 C 6.820826530456543 62.80034637451172 5.125364303588867 67.84579467773438 4.188564300537109 71.2772216796875 C 3.265814065933228 74.65718841552734 2.877336025238037 77.17942047119141 2.808759212493896 77.65104675292969 L 2.920651435852051 80.86557769775391 C 3.121993541717529 82.83200073242188 3.550491571426392 84.04845428466797 4.308464050292969 84.80741882324219 C 5.021064281463623 85.52094268798828 6.137164115905762 85.98314666748047 8.160576820373535 86.40267944335938 C 9.030939102172852 86.58290863037109 9.716938972473145 86.67051696777344 10.25778865814209 86.67051696777344 C 11.19997692108154 86.67051696777344 11.53856372833252 86.42633056640625 12.21313953399658 85.93984222412109 C 12.47287273406982 85.75253295898438 12.75922966003418 85.5460205078125 13.11103820800781 85.33344268798828 L 14.92810153961182 80.29029846191406 C 14.9025821685791 79.12891387939453 15.09459114074707 73.88372802734375 19.94773864746094 65.94148254394531 L 20.60040092468262 64.87336730957031 L 21.49801445007324 65.74579620361328 C 23.38525199890137 67.58009338378906 24.78893852233887 68.79357147216797 24.80290222167969 68.80561828613281 L 24.87102699279785 68.86439514160156 L 24.92751502990723 68.93431854248047 C 25.07260131835938 69.11386871337891 28.48906326293945 73.37709808349609 29.22251319885254 77.33097076416016 C 29.81265449523926 80.51142120361328 29.57840728759766 82.44588470458984 29.45569801330566 83.11194610595703 C 29.82130241394043 84.81680297851563 30.5892219543457 86.24720764160156 31.68353843688965 87.25769805908203 C 32.80827713012695 88.29627227783203 34.24150085449219 88.84520721435547 35.82828903198242 88.84516143798828 M 35.82831573486328 89.84516143798828 C 32.03970336914063 89.84526824951172 29.21968841552734 87.14948272705078 28.43460083007813 83.10961151123047 C 28.43460083007813 83.10961151123047 28.93500137329102 81.26280975341797 28.23930168151855 77.51340484619141 C 27.54360198974609 73.76309204101563 24.14970207214355 69.56280517578125 24.14970207214355 69.56280517578125 C 24.14970207214355 69.56280517578125 22.7351016998291 68.34269714355469 20.80103874206543 66.46289825439453 C 15.49906444549561 75.13967132568359 15.93540191650391 80.44470977783203 15.93540191650391 80.44470977783203 L 13.9275016784668 86.01750946044922 C 12.44026851654053 86.82723999023438 12.08760738372803 87.67052459716797 10.25779056549072 87.67052459716797 C 9.671446800231934 87.67052459716797 8.933430671691895 87.58393859863281 7.957801818847656 87.38190460205078 C 3.938401699066162 86.54850769042969 2.370601654052734 85.3839111328125 1.922401547431946 80.93341064453125 L 1.806301593780518 77.59799194335938 C 1.806301593780518 77.59799194335938 3.256201505661011 66.75299835205078 8.722801208496094 57.73229598999023 C 9.474188804626465 56.49239349365234 10.27938938140869 55.43004608154297 11.11321449279785 54.5096321105957 C 10.59890174865723 53.47642135620117 10.23737621307373 52.48335647583008 10.08900165557861 51.56909561157227 C 8.981101989746094 44.74799346923828 0.001801596023142338 8.723708152770996 0.001801596023142338 8.723708152770996 C -0.8936983942985535 4.115694999694824 0.09000159800052643 0.2484077215194702 4.698001384735107 -0.6470922827720642 C 5.336563587188721 -0.7712883353233337 6.011492252349854 -0.831926167011261 6.702271461486816 -0.831926167011261 C 10.99727630615234 -0.831926167011261 15.91739749908447 1.510543465614319 16.68960189819336 5.480095386505127 C 16.68960189819336 5.480095386505127 15.3891019821167 13.75830745697021 17.29620170593262 22.86180686950684 C 18.90002632141113 30.51699447631836 22.16477584838867 38.94530868530273 24.12031364440918 44.08848190307617 C 23.8056640625 42.34959411621094 21.5063648223877 39.94358444213867 21.82140159606934 30.66570854187012 C 22.19310188293457 19.7046070098877 23.90760231018066 3.1455078125 25.14510154724121 0.8378952145576477 C 25.63750839233398 -0.08097080141305923 27.5558032989502 -0.3689807653427124 29.716796875 -0.3689807653427124 C 32.9827995300293 -0.3689807653427124 36.80353927612305 0.2886801064014435 37.09710311889648 0.4202952086925507 C 37.58580017089844 0.6390077471733093 39.75570297241211 0.615607738494873 40.84650039672852 6.530395030975342 C 41.93730163574219 12.4452075958252 37.19970321655273 25.6067943572998 36.69029998779297 35.62020874023438 C 36.12060165405273 46.83420944213867 36.88470077514648 46.06920623779297 35.71110153198242 49.43609619140625 C 34.66417694091797 52.43973159790039 32.67502593994141 54.28446960449219 30.28540229797363 56.27480697631836 C 32.61031341552734 59.29856872558594 35.22352600097656 62.48073196411133 36.66510009765625 65.19329833984375 C 39.49380111694336 70.51680755615234 40.20390319824219 74.33010864257813 40.20390319824219 74.33010864257813 L 44.2035026550293 79.7156982421875 C 45.09900283813477 84.32370758056641 42.08940124511719 88.78501129150391 37.48140335083008 89.68140411376953 C 36.91327667236328 89.79180908203125 36.36110305786133 89.84514617919922 35.82831573486328 89.84516143798828 Z"/>
    </g>
    <g id="ch12-2" class="cls-1" transform="matrix(-0.999, -0.035, 0.035, -0.999, 460.917, 452.452)">
      <path class="cls-2" d="M 33.75470352172852 89.27855682373047 C 32.03998565673828 89.27861022949219 30.48945617675781 88.68379974365234 29.27073669433594 87.55843353271484 C 28.05658531188965 86.43728637695313 27.22013664245605 84.8428955078125 26.85181999206543 82.94761657714844 L 26.84185600280762 82.89640045166016 L 26.82154846191406 82.84834289550781 L 24.67494583129883 77.76953125 L 22.92072486877441 67.59415435791016 L 22.89163208007813 67.42539978027344 L 22.76518440246582 67.30990600585938 C 22.76379585266113 67.30863952636719 22.68810272216797 67.23946380615234 22.54951477050781 67.10969543457031 L 22.29404258728027 66.87049865722656 L 21.98184394836426 67.02863311767578 C 21.61505508422852 67.21442413330078 21.27164268493652 67.38092803955078 20.96112632751465 67.52352905273438 C 16.67806625366211 69.49051666259766 13.95391368865967 75.74077606201172 13.45884323120117 77.30689239501953 C 13.13884449005127 78.32136535644531 10.94376945495605 80.92819213867188 10.07386112213135 81.90560913085938 C 7.843849182128906 83.46768951416016 6.083611011505127 84.22723388671875 4.693772792816162 84.22734069824219 C 3.773949384689331 84.2274169921875 3.151537656784058 83.89842224121094 2.549619913101196 83.58026885986328 C 2.459631681442261 83.53270721435547 2.371525764465332 83.48615264892578 2.284620046615601 83.44181060791016 C 1.119200587272644 82.84724426269531 0.4867537915706635 82.33251953125 0.04347375780344009 78.00409698486328 C 1.172474384307861 73.95572662353516 3.064044952392578 67.42444610595703 3.413937568664551 66.85202789306641 C 3.594702243804932 66.57589721679688 4.004996299743652 66.11575317382813 4.626067161560059 65.41925048828125 C 5.598690509796143 64.32850646972656 7.068513870239258 62.68014144897461 9.182196617126465 60.04397964477539 C 9.962619781494141 59.07088470458984 11.14297294616699 58.02763748168945 12.89682006835938 56.76084899902344 L 13.28065490722656 56.48360061645508 L 13.02471446990967 56.08524703979492 C 11.63169097900391 53.91709518432617 10.79821968078613 52.03428268432617 10.54744338989258 50.48910903930664 C 10.36723136901855 49.37958908081055 10.43017292022705 47.26762390136719 10.50985527038574 44.59378814697266 C 10.65253734588623 39.8058967590332 10.84796142578125 33.24864959716797 9.744667053222656 27.55291938781738 C 8.811549186706543 22.73820114135742 7.022196292877197 18.53281402587891 5.685431480407715 15.85274314880371 C 4.401277542114258 13.27817153930664 3.302441835403442 11.61421966552734 3.032810211181641 11.21707820892334 C 2.593657493591309 8.890230178833008 2.68519115447998 6.978347301483154 3.305172920227051 5.53335428237915 C 3.992502212524414 3.931401491165161 5.354384422302246 2.922213315963745 7.352984428405762 2.533825159072876 C 7.951784610748291 2.4174485206604 8.593572616577148 2.358448505401611 9.260514259338379 2.358448505401611 C 11.36291408538818 2.358448505401611 13.57320785522461 2.941483974456787 15.32466697692871 3.958072185516357 C 16.65936088562012 4.732754707336426 18.3383617401123 6.108919143676758 18.75749015808105 8.265589714050293 L 18.77172660827637 8.338884353637695 L 18.80680847167969 8.4049072265625 C 18.8176441192627 8.425295829772949 19.90404319763184 10.48150730133057 21.13459587097168 13.80968379974365 C 22.26850318908691 16.87649536132813 23.76052665710449 21.68236541748047 24.42918395996094 27.1613655090332 C 25.19311332702637 33.42529678344727 25.10664367675781 39.18432998657227 25.04943084716797 42.99521255493164 L 25.04561996459961 43.24981307983398 L 26.02006721496582 43.41488265991211 C 27.57171440124512 38.743896484375 28.30972671508789 33.99890899658203 28.21359634399414 29.31175422668457 C 28.09352493286133 23.46597862243652 25.02312660217285 16.87766075134277 22.55603218078613 11.58386039733887 C 20.77806663513184 7.768789768218994 19.24257278442383 4.473989963531494 19.38751411437988 2.71403694152832 C 19.62570190429688 -0.178763136267662 22.72157287597656 -0.61069256067276 24.54579734802246 -0.61069256067276 C 26.22844314575195 -0.61069256067276 28.15592575073242 -0.2412572652101517 29.83402061462402 0.402883917093277 C 33.91897201538086 1.970606565475464 36.85556793212891 9.278586387634277 36.94034957885742 9.49217414855957 C 37.00099945068359 9.657357215881348 38.45358657836914 13.62720489501953 39.88702011108398 18.65308380126953 C 41.80831527709961 25.38948440551758 42.82366561889648 30.95628356933594 42.82330322265625 34.75165939331055 C 42.82258605957031 41.92881393432617 40.68193817138672 47.1253776550293 39.26541900634766 50.56406021118164 C 38.94007873535156 51.35384750366211 38.65910339355469 52.03594207763672 38.45377349853516 52.62489700317383 C 37.80431365966797 54.48820114135742 36.31888961791992 56.53302383422852 34.03874969482422 58.70260238647461 L 33.74323272705078 58.98379135131836 L 33.9593620300293 59.32974243164063 C 34.98603057861328 60.97314453125 35.70129013061523 62.60514450073242 36.14601898193359 64.31899261474609 C 38.11165237426758 71.89064025878906 39.23051834106445 73.85702514648438 39.50043869018555 74.25377655029297 L 41.64737319946289 79.78774261474609 C 42.46137619018555 84.10207366943359 39.62781524658203 88.28466033935547 35.31235122680664 89.12400054931641 C 34.78472518920898 89.22653961181641 34.2606315612793 89.27854156494141 33.75470352172852 89.27855682373047 Z"/>
      <path class="cls-3" d="M 33.75468826293945 88.77855682373047 C 34.22866058349609 88.77854919433594 34.72066116333008 88.72963714599609 35.21688842773438 88.63318634033203 C 39.24804306030273 87.84915161132813 41.90007019042969 83.9541015625 41.16429138183594 79.92494964599609 L 39.05317306518555 74.48329925537109 C 38.67293548583984 73.89358520507813 37.54680633544922 71.70468902587891 35.66206359863281 64.44458770751953 C 35.23028564453125 62.78069686889648 34.53461074829102 61.19427108764648 33.53531265258789 59.59465789794922 L 33.10306167602539 58.90275955200195 L 33.69408798217773 58.34038543701172 C 35.91607284545898 56.22613525390625 37.35860061645508 54.24782180786133 37.98163604736328 52.46029663085938 C 38.19151306152344 51.85828399658203 38.47493743896484 51.17027282714844 38.8031005859375 50.37362289428711 C 40.20461273193359 46.97137069702148 42.32258605957031 41.829833984375 42.32329940795898 34.75159454345703 C 42.32416534423828 25.73774147033691 36.64897155761719 10.15035152435303 36.47309112548828 9.670256614685059 C 36.41877365112305 9.533537864685059 35.69858551025391 7.742767333984375 34.5001106262207 5.776309013366699 C 32.91427612304688 3.174258947372437 31.23883628845215 1.477583885192871 29.65483665466309 0.8696839213371277 C 28.03173637390137 0.246633917093277 26.1695499420166 -0.1106910854578018 24.54577445983887 -0.1106910854578018 C 23.16951179504395 -0.1106910854578018 22.01807403564453 0.1397214233875275 21.21595001220703 0.6134713888168335 C 20.39988708496094 1.09545886516571 19.96479988098145 1.795983910560608 19.88582420349121 2.755071401596069 C 19.75176239013672 4.38292121887207 21.33404922485352 7.778109073638916 23.00922393798828 11.37264633178711 C 25.49617385864258 16.70902061462402 28.59124946594238 23.35032081604004 28.71348762512207 29.3014965057373 C 28.81078720092773 34.04582214355469 28.06423759460449 38.84728240966797 26.49457359313965 43.572509765625 L 24.54567527770996 43.24235916137695 L 24.54948616027832 42.98770904541016 C 24.60649871826172 39.19042205810547 24.69266128540039 33.45193481445313 23.932861328125 27.22193336486816 C 23.27106094360352 21.7990837097168 21.79463768005371 17.0396842956543 20.67259979248047 14.00194644927979 C 19.45297431945801 10.70002174377441 18.37596130371094 8.659659385681152 18.36541175842285 8.63978385925293 L 18.29518699645996 8.507759094238281 L 18.26666259765625 8.360959053039551 C 17.88336181640625 6.38862133026123 16.3187370300293 5.113171577453613 15.07366180419922 4.390496253967285 C 13.39617443084717 3.416846513748169 11.27737426757813 2.858433961868286 9.26051139831543 2.858433961868286 C 8.625561714172363 2.858433961868286 8.015861511230469 2.91434645652771 7.448361873626709 3.024633884429932 C 5.59641170501709 3.384533882141113 4.39147424697876 4.269633769989014 3.764674425125122 5.730508804321289 C 3.193257331848145 7.062302589416504 3.106188058853149 8.842256546020508 3.505441665649414 11.02380180358887 C 3.859402656555176 11.55274391174316 4.916256427764893 13.19040584564209 6.132861614227295 15.62957096099854 C 7.483524322509766 18.33749580383301 9.29168701171875 22.58770942687988 10.2355489730835 27.45783424377441 C 11.34938716888428 33.20805740356445 11.1530122756958 39.79737091064453 11.00963687896729 44.60869598388672 C 10.93386173248291 47.15103530883789 10.86843681335449 49.34667205810547 11.04098701477051 50.40900802612305 C 11.28069972991943 51.88605880737305 12.08964920043945 53.70488357543945 13.44536209106445 55.81497192382813 L 13.95724964141846 56.61167144775391 L 13.1895866394043 57.16616058349609 C 11.47318649291992 58.40591049194336 10.32374954223633 59.41977310180664 9.572286605834961 60.35674667358398 C 7.450374126434326 63.00319671630859 5.975286960601807 64.65743255615234 4.999199390411377 65.75208282470703 C 4.428687572479248 66.39187622070313 4.012752532958984 66.85832214355469 3.843366622924805 67.10926055908203 C 3.473081588745117 67.83966064453125 1.718013167381287 73.86475372314453 0.5505741834640503 78.04707336425781 C 0.7529457807540894 79.98686981201172 0.9968510866165161 81.17719268798828 1.337099313735962 81.89217376708984 C 1.608624339103699 82.46272277832031 1.918949365615845 82.69394683837891 2.511861801147461 82.99643707275391 C 2.600861787796021 83.04183197021484 2.691086769104004 83.08948516845703 2.78322434425354 83.13819885253906 C 3.35647439956665 83.44119262695313 3.897911787033081 83.72740936279297 4.693737030029297 83.72734832763672 C 5.950105667114258 83.72724914550781 7.647377014160156 82.98779296875 9.73932933807373 81.52939605712891 C 10.96523571014404 80.14851379394531 12.73655319213867 77.93464660644531 12.98209953308105 77.15621185302734 C 13.21796226501465 76.41008758544922 14.00631141662598 74.45475769042969 15.3018741607666 72.39493560791016 C 16.9583740234375 69.76124572753906 18.79221153259277 67.96939849853516 20.7524242401123 67.06916809082031 C 21.05738639831543 66.92910766601563 21.39501190185547 66.76539611816406 21.75591278076172 66.58259582519531 L 22.38037490844727 66.26629638671875 L 22.89131164550781 66.74475860595703 C 23.02562522888184 66.87054443359375 23.09958648681641 66.93815612792969 23.10224914550781 66.94058227539063 L 23.35526275634766 67.17158508300781 L 23.41346168518066 67.50920867919922 L 25.15791130065918 77.62792205810547 L 27.2820987701416 82.6536865234375 L 27.32272529602051 82.74979400634766 L 27.34263610839844 82.85223388671875 C 27.69051170349121 84.64229583740234 28.47453689575195 86.14266204833984 29.60994911193848 87.19109344482422 C 30.73467445373535 88.22966766357422 32.16790008544922 88.77861022949219 33.75468826293945 88.77855682373047 M 33.75471115112305 89.77855682373047 C 29.96609878540039 89.77867126464844 27.14609909057617 87.0828857421875 26.36100006103516 83.04299926757813 L 24.1919994354248 77.91120910644531 L 22.42799949645996 67.67910003662109 C 22.42799949645996 67.67910003662109 22.3505744934082 67.60840606689453 22.2077751159668 67.47468566894531 C 21.82708740234375 67.66751098632813 21.47883605957031 67.83596801757813 21.1697998046875 67.9779052734375 C 16.9955997467041 69.89491271972656 14.36489963531494 76.09951019287109 13.9355993270874 77.45761108398438 C 13.50719928741455 78.81571197509766 10.4084997177124 82.28159332275391 10.4084997177124 82.28159332275391 C 7.726612567901611 84.16815948486328 5.96493673324585 84.72724151611328 4.693810939788818 84.72734069824219 C 3.502346515655518 84.72743988037109 2.741915941238403 84.23642730712891 2.057399272918701 83.88719940185547 C 0.64259934425354 83.1654052734375 -0.01620065048336983 82.41030883789063 -0.4635006487369537 77.960693359375 C -0.4635006487369537 77.960693359375 2.493899345397949 67.34609985351563 2.994299411773682 66.5802001953125 C 3.495599269866943 65.81429290771484 5.260499477386475 64.13581085205078 8.792098999023438 59.73119735717773 C 9.703899383544922 58.59429550170898 11.06313705444336 57.46850967407227 12.60404968261719 56.35551071166992 C 11.31777477264404 54.35350799560547 10.34193706512451 52.34399795532227 10.05389976501465 50.56921005249023 C 9.530999183654785 47.34989547729492 10.95929908752441 36.45269775390625 9.253799438476563 27.64799690246582 C 7.468199253082275 18.43469619750977 2.561399459838867 11.41379642486572 2.561399459838867 11.41379642486572 C 1.665899395942688 6.805809020996094 2.649599313735962 2.938496351242065 7.257599353790283 2.042996406555176 C 7.895755767822266 1.91897976398468 8.570119857788086 1.858440160751343 9.260515213012695 1.858440160751343 C 13.55533027648926 1.858440160751343 18.47681617736816 4.200352668762207 19.24829864501953 8.170196533203125 C 19.24829864501953 8.170196533203125 23.61779975891113 16.38539695739746 24.92549896240234 27.10079574584961 C 25.71061134338379 33.53836059570313 25.60318756103516 39.39039611816406 25.54556274414063 43.25725936889648 C 26.62622451782227 40.00410842895508 27.83316230773926 35.14678573608398 27.71369934082031 29.32199668884277 C 27.50849914550781 19.33199691772461 18.52289962768555 7.120796203613281 18.88920021057129 2.672996520996094 C 19.11507415771484 -0.07024186849594116 21.6263542175293 -1.110695242881775 24.54578018188477 -1.110695242881775 C 26.36077690124512 -1.110695242881775 28.3332691192627 -0.7087516784667969 30.01319885253906 -0.06390358507633209 C 34.39619827270508 1.618196368217468 37.40760040283203 9.314096450805664 37.40760040283203 9.314096450805664 C 37.40760040283203 9.314096450805664 43.32419967651367 25.35389709472656 43.32329940795898 34.7516975402832 C 43.3223991394043 43.70129776000977 39.99959945678711 49.70969772338867 38.92589950561523 52.78949737548828 C 38.18465042114258 54.91618347167969 36.48412322998047 57.06598281860352 34.3834114074707 59.06483459472656 C 35.33174896240234 60.58284759521484 36.13206100463867 62.2745475769043 36.63000106811523 64.19340515136719 C 38.81340026855469 72.60391235351563 39.94379806518555 74.01419830322266 39.94379806518555 74.01419830322266 L 42.12989807128906 79.64910888671875 C 43.02539825439453 84.25711059570313 40.01670074462891 88.71839904785156 35.40779876708984 89.61479949951172 C 34.83967590332031 89.72521209716797 34.28749847412109 89.77854919433594 33.75471115112305 89.77855682373047 Z"/>
    </g>
  </g>
</svg>
