<svg xmlns="http://www.w3.org/2000/svg" width="91.339" height="86.565" viewBox="0 0 91.339 86.565">
  <defs>
    <style>
      .cls-1 {
        fill: #fff;
      }

      .cls-2, .cls-3 {
        stroke: none;
      }

      .cls-3 {
        fill: #707070;
      }
    </style>
  </defs>
  <g id="ch13" transform="translate(-371.779 -372.803)">
    <g id="ch13-1" class="cls-1" transform="matrix(-0.999, -0.035, 0.035, -0.999, 418.917, 452.452)">
      <path class="cls-2" d="M 28.48880386352539 75.59405517578125 C 26.77409362792969 75.59410858154297 25.22356033325195 74.99929809570313 24.00483894348145 73.87393188476563 C 22.7988452911377 72.76031494140625 21.96547698974609 71.17972564697266 21.59339904785156 69.30120086669922 L 21.4827938079834 66.14878845214844 L 21.42559432983398 64.51834106445313 L 20.55939292907715 65.90085601806641 C 18.61479377746582 69.00460052490234 17.21394920349121 71.26947784423828 16.39578247070313 72.63255310058594 C 15.98734569549561 73.31301879882813 15.7783842086792 73.67304992675781 15.67157077789307 73.88241577148438 C 15.26607990264893 74.11589813232422 14.944411277771 74.34779357910156 14.65700435638428 74.55500030517578 C 13.96780490875244 75.05184173583984 13.51249408721924 75.38007354736328 12.40967178344727 75.38013458251953 C 11.83438205718994 75.38016510009766 11.11497116088867 75.28900146484375 10.2103157043457 75.10141754150391 C 8.08211612701416 74.66024017333984 6.892726898193359 74.15859985351563 6.10499382019043 73.36993408203125 C 5.258059024810791 72.52200317382813 4.785170555114746 71.20746612548828 4.572510242462158 69.10940551757813 C 4.559171199798584 68.73630523681641 4.538751125335693 68.41616821289063 4.520715713500977 68.13323211669922 C 4.449860095977783 67.02207946777344 4.417527198791504 66.51494598388672 4.95427131652832 65.30424499511719 C 5.532726764678955 63.99948501586914 6.734315872192383 61.97836303710938 9.150415420532227 57.99143218994141 C 9.83134937286377 56.8677978515625 10.60149383544922 55.82582092285156 11.43946075439453 54.89444351196289 L 11.66262722015381 54.64640808105469 L 11.51922702789307 54.34513092041016 C 11.04281616210938 53.34420776367188 10.72767162322998 52.38326644897461 10.58254909515381 51.48899841308594 C 9.490144729614258 44.76329803466797 -0.1764364093542099 3.403840780258179 -0.3713152706623077 2.570430994033813 C -0.8304144144058228 0.2019744962453842 -0.7445998787879944 -1.741414427757263 -0.1161841452121735 -3.205590963363647 C 0.5713602900505066 -4.807557582855225 1.933404803276062 -5.816768646240234 3.932093620300293 -6.205179691314697 C 4.530893802642822 -6.321557521820068 5.172671318054199 -6.380557537078857 5.839571475982666 -6.380557537078857 C 7.941815853118896 -6.380557537078857 10.15199375152588 -5.797524452209473 11.90338230133057 -4.780935287475586 C 13.22711086273193 -4.012593269348145 14.88956928253174 -2.652734041213989 15.32602024078369 -0.5262698531150818 C 15.29888820648193 0.4824147820472717 14.97083759307861 14.20028018951416 16.80682754516602 22.96431922912598 C 18.3527717590332 30.34325408935547 21.3933277130127 38.33027648925781 23.40532684326172 43.61545181274414 L 23.6529598236084 44.26618576049805 L 24.61232757568359 43.99945449829102 C 24.5278263092041 43.53252029418945 24.3310489654541 43.05813217163086 24.08191680908203 42.45754241943359 C 23.3349494934082 40.65685272216797 22.08477210998535 37.64303207397461 22.32111549377441 30.68266487121582 C 22.51752662658691 24.8906421661377 24.77644920349121 16.65373039245605 26.63685989379883 10.76373100280762 C 28.77762603759766 3.986164569854736 30.99851608276367 -1.612379789352417 31.58873748779297 -2.71300196647644 C 31.74076080322266 -2.996679782867432 32.44746017456055 -3.656179904937744 35.71979522705078 -3.656179904937744 C 38.919677734375 -3.656179904937744 42.53823089599609 -3.027732849121094 42.90749359130859 -2.905404567718506 C 42.9869270324707 -2.871074676513672 43.07038116455078 -2.846823215484619 43.1662712097168 -2.818946599960327 C 43.50699234008789 -2.719902038574219 44.02189254760742 -2.570224285125732 44.59672546386719 -1.868102073669434 C 45.3624382019043 -0.9328354001045227 45.95494842529297 0.6491312980651855 46.35779190063477 2.833864688873291 C 46.8712272644043 5.620220184326172 44.49207305908203 11.29217529296875 41.97322845458984 17.29716491699219 C 39.38534927368164 23.46670913696289 36.45219421386719 30.45940971374512 36.19094848632813 35.59479904174805 C 35.96413803100586 40.05942153930664 35.94826126098633 42.62263107299805 35.93774795532227 44.31875228881836 C 35.92199325561523 46.86190795898438 35.91914749145508 47.32016372680664 35.23896026611328 49.27151870727539 C 34.24197006225586 52.13191986083984 32.30197143554688 53.92897415161133 30.2326602935791 55.66712188720703 L 29.8665599822998 55.97463226318359 L 30.15739440917969 56.35411834716797 C 30.92912673950195 57.36111068725586 31.58567047119141 58.38028717041016 32.16455078125 59.46988677978516 C 33.07651519775391 61.18561935424805 33.42375946044922 61.92879867553711 33.61031723022461 62.32805252075195 C 33.8531379699707 62.84775161743164 33.87406158447266 62.88048553466797 34.35650634765625 63.49542999267578 C 34.70470428466797 63.93926620483398 35.28273010253906 64.67604064941406 36.39381790161133 66.170166015625 C 36.76537704467773 68.23201751708984 36.3262825012207 70.31945037841797 35.15224838256836 72.06004333496094 C 33.95726013183594 73.83169555664063 32.14401626586914 75.03187561035156 30.04651641845703 75.43948364257813 C 29.5187931060791 75.54204559326172 28.99469375610352 75.59403991699219 28.48880386352539 75.59405517578125 Z M 16.31106185913086 74.65866851806641 L 15.73038387298584 73.95102691650391 L 15.81565284729004 73.80633544921875 C 15.88878917694092 73.76433563232422 15.97445678710938 73.74101257324219 16.06238174438477 73.74101257324219 L 16.56024932861328 74.23529052734375 L 16.31106185913086 74.65866851806641 Z"/>
      <path class="cls-3" d="M 28.48879432678223 75.09405517578125 C 28.96274948120117 75.09403991699219 29.45475959777832 75.04512786865234 29.95113754272461 74.94867706298828 C 31.91751670837402 74.5665283203125 33.61742782592773 73.44137573242188 34.73772811889648 71.78045654296875 C 35.81671524047852 70.18077087402344 36.23356628417969 68.26856994628906 35.92140579223633 66.37284851074219 C 34.86053085327148 64.94792938232422 34.30231857299805 64.23640441894531 33.96312713623047 63.80405426025391 C 33.46889495849609 63.17408752441406 33.4250373840332 63.11268615722656 33.15731430053711 62.53970718383789 C 32.97267150878906 62.1445198059082 32.62897109985352 61.40894317626953 31.72299385070801 59.70447540283203 C 31.1572151184082 58.63951873779297 30.51528167724609 57.64309692382813 29.76053810119629 56.65826416015625 L 29.17887115478516 55.89928817749023 L 29.91107177734375 55.28425216674805 C 31.92489433288574 53.59272003173828 33.81162643432617 51.84744262695313 34.76682662963867 49.10695266723633 C 35.41967010498047 47.2340087890625 35.42208099365234 46.84521865844727 35.43775939941406 44.31566619873047 C 35.44829177856445 42.61509704589844 35.46421432495117 40.0451774597168 35.69159317016602 35.56938552856445 C 35.95728302001953 30.34666442871094 38.78120422363281 23.61438751220703 41.51213836669922 17.1037654876709 C 42.80698394775391 14.01684284210205 44.03000640869141 11.10111999511719 44.86593627929688 8.588030815124512 C 45.75091552734375 5.927497863769531 46.07806015014648 4.074909210205078 45.86608123779297 2.924531221389771 C 45.48417282104492 0.8533424139022827 44.91146087646484 -0.6943909525871277 44.2098503112793 -1.551368713378906 C 43.73332595825195 -2.133413076400757 43.32491683959961 -2.252135276794434 43.02671432495117 -2.338813066482544 C 42.93397903442383 -2.365771293640137 42.83855819702148 -2.393506050109863 42.74114990234375 -2.433037281036377 C 42.25835037231445 -2.567031383514404 38.76065063476563 -3.156179904937744 35.71979522705078 -3.156179904937744 C 32.48400497436523 -3.156179904937744 32.03316116333008 -2.483757495880127 32.02938079833984 -2.476701974868774 C 31.44684982299805 -1.390446543693542 29.24517059326172 4.165997982025146 27.11363792419434 10.91433143615723 C 25.26263809204102 16.7745532989502 23.01532745361328 24.96412086486816 22.82082748413086 30.69963073730469 C 22.58815956115723 37.55162048339844 23.81233787536621 40.50273132324219 24.54376029968262 42.26596450805664 C 24.80439376831055 42.8942985534668 25.0102710723877 43.39058685302734 25.10433769226074 43.91043090820313 L 23.18560409545898 44.44388580322266 L 22.93804931640625 43.79334259033203 C 20.92045974731445 38.49350738525391 17.8714714050293 30.48433113098145 16.31744956970215 23.06684303283691 C 14.47792911529541 14.28594303131104 14.78344631195068 1.008295774459839 14.82446670532227 -0.481296569108963 C 14.40716743469238 -2.395083665847778 12.87553024291992 -3.638538599014282 11.65238285064697 -4.348502159118652 C 9.974971771240234 -5.322146415710449 7.856282711029053 -5.880557537078857 5.839571475982666 -5.880557537078857 C 5.20457124710083 -5.880557537078857 4.594904899597168 -5.824646472930908 4.027471542358398 -5.71436882019043 C 2.175404787063599 -5.354446411132813 0.9702936410903931 -4.469313144683838 0.3432825207710266 -3.0083909034729 C -0.2440692037343979 -1.639898180961609 -0.3199387788772583 0.2018222510814667 0.1176986321806908 2.465768337249756 C 0.5789274573326111 4.437723636627197 9.979011535644531 44.65439224243164 11.07609367370605 51.40890884399414 C 11.21363830566406 52.25645446777344 11.51462650299072 53.17205429077148 11.97070503234863 54.13025283813477 L 12.25748252868652 54.7327880859375 L 11.81116008758545 55.22886276245117 C 10.9940938949585 56.13700866699219 10.24276065826416 57.15365219116211 9.57802677154541 58.25056457519531 C 7.083127021789551 62.36750793457031 5.952804565429688 64.28560638427734 5.411371231079102 65.50689697265625 C 4.924315929412842 66.60549926757813 4.950282573699951 67.0128173828125 5.019693851470947 68.10140991210938 C 5.037682056427002 68.38348388671875 5.057997226715088 68.70210266113281 5.071600914001465 69.07501983642578 C 5.272499561309814 71.04135894775391 5.700773239135742 72.25771331787109 6.458749294281006 73.01658630371094 C 7.171371459960938 73.73005676269531 8.287671089172363 74.19223022460938 10.31182670593262 74.61183166503906 C 11.18270492553711 74.79239654541016 11.86890506744385 74.88016510009766 12.40964889526367 74.88013458251953 C 13.35104942321777 74.88008880615234 13.68977165222168 74.63589477539063 14.36460494995117 74.14939880371094 C 14.63220310211182 73.95648956298828 14.92845153808594 73.74291229248047 15.2956018447876 73.52330017089844 C 15.42955589294434 73.27642822265625 15.63921356201172 72.92147064208984 15.96708297729492 72.37522888183594 C 16.7868824005127 71.00942993164063 18.18940544128418 68.7418212890625 20.13569450378418 65.63538360595703 L 21.86808204650879 62.87035369873047 L 21.98249435424805 66.13125610351563 L 22.0916748046875 69.24309539794922 C 22.44672584533691 70.99996948242188 23.22457695007324 72.47286987304688 24.34404945373535 73.50658416748047 C 25.46878242492676 74.545166015625 26.90200424194336 75.09410858154297 28.48878288269043 75.09405517578125 L 28.48879432678223 75.09405517578125 M 28.48881530761719 76.09405517578125 C 24.70020484924316 76.09417724609375 21.88019371032715 73.39837646484375 21.0951042175293 69.35850524902344 L 20.98310470581055 66.16632080078125 C 16.45751571655273 73.38951873779297 16.06000518798828 74.18219757080078 16.06024932861328 74.23751068115234 C 14.588791847229 75.04393768310547 14.23048782348633 75.88003540039063 12.40969944000244 75.88013458251953 C 11.82314395904541 75.88016510009766 11.08509254455566 75.79343414306641 10.10880470275879 75.59101104736328 C 6.088504791259766 74.75759887695313 4.520704746246338 73.59300994873047 4.073404788970947 69.14339447021484 C 3.956404685974121 65.80709838867188 3.256204843521118 66.75299835205078 8.722805023193359 57.7322998046875 C 9.460515975952148 56.51496505737305 10.25016021728516 55.46875381469727 11.0677604675293 54.56002044677734 C 10.59564876556396 53.56811904907227 10.25028228759766 52.56287384033203 10.08900451660156 51.56909942626953 C 8.981104850769043 44.74799728393555 -0.8603952527046204 2.674798011779785 -0.8603952527046204 2.674798011779785 C -1.755895256996155 -1.933202028274536 -0.7712952494621277 -5.800501823425293 3.836704730987549 -6.696002006530762 C 4.474861145019531 -6.820018768310547 5.149207592010498 -6.880558490753174 5.83957576751709 -6.880558490753174 C 10.13422107696533 -6.880558490753174 15.05514621734619 -4.53864574432373 15.82740497589111 -0.5688020586967468 C 15.82740497589111 -0.5688020586967468 15.38910484313965 13.75829792022705 17.29620552062988 22.86179733276367 C 18.90002632141113 30.51699829101563 22.1647834777832 38.94530868530273 24.12031555175781 44.08848571777344 C 23.80566024780273 42.3495979309082 21.50636100769043 39.94358825683594 21.8214054107666 30.66569709777832 C 22.19310569763184 19.70459747314453 29.91060447692871 -0.6417020559310913 31.14810562133789 -2.949301958084106 C 31.64051055908203 -3.868173122406006 33.55879974365234 -4.156183242797852 35.71979522705078 -4.156183242797852 C 38.98579406738281 -4.156183242797852 42.80654525756836 -3.498517274856567 43.10010528564453 -3.366902112960815 C 43.58880615234375 -3.148201942443848 45.75870513916016 -3.172502040863037 46.84950637817383 2.743197917938232 C 47.93940353393555 8.657998085021973 37.19970321655273 25.60679817199707 36.69030380249023 35.62019729614258 C 36.12060546875 46.83419799804688 36.88470458984375 46.06919860839844 35.71110534667969 49.43609619140625 C 34.70360565185547 52.32662963867188 32.82411575317383 54.14337539672852 30.55424880981445 56.04997634887695 C 31.23778343200684 56.94187545776367 31.93483734130859 57.97179794311523 32.60610580444336 59.23529815673828 C 35.43570327758789 64.55879974365234 32.86350631713867 60.57901000976563 36.86400604248047 65.964599609375 C 37.75950622558594 70.57260131835938 34.74990463256836 75.03480529785156 30.14190483093262 75.93030548095703 C 29.57377052307129 76.04071044921875 29.02160453796387 76.09403991699219 28.48881530761719 76.09405517578125 Z M 16.0623836517334 74.24101257324219 C 16.06109619140625 74.24101257324219 16.06026077270508 74.23999786376953 16.06024932861328 74.23751068115234 C 16.06631660461426 74.23417663574219 16.0723819732666 74.2308349609375 16.07850456237793 74.22750091552734 C 16.07850456237793 74.22750091552734 16.06723785400391 74.24101257324219 16.06240463256836 74.24101257324219 C 16.06239700317383 74.24101257324219 16.06239128112793 74.24101257324219 16.0623836517334 74.24101257324219 Z"/>
    </g>
    <g id="ch13-2" class="cls-1" transform="matrix(-0.999, -0.035, 0.035, -0.999, 460.917, 452.452)">
      <path class="cls-2" d="M 29.95399284362793 77.68385314941406 C 28.23929405212402 77.68391418457031 26.68871688842773 77.08908843994141 25.4698600769043 75.96371459960938 C 24.26375770568848 74.85010528564453 23.43017959594727 73.26966094970703 23.05771636962891 71.39105987548828 L 22.92770576477051 67.66167449951172 L 22.92038345336914 67.45162200927734 L 22.76515960693359 67.30987548828125 C 22.76375007629395 67.30858612060547 22.68806076049805 67.23943328857422 22.54951667785645 67.10971069335938 L 22.29405975341797 66.87051391601563 L 21.98184967041016 67.02864074707031 C 21.61502647399902 67.21443176269531 21.27160453796387 67.38094329833984 20.96111679077148 67.52354431152344 C 17.00993728637695 69.33811950683594 16.10737228393555 69.95467376708984 15.97390174865723 70.05352020263672 C 13.723952293396 71.63515472412109 11.9505090713501 72.40394592285156 10.55199337005615 72.404052734375 C 9.632060050964355 72.40412139892578 9.009627342224121 72.07511901855469 8.407705307006836 71.7569580078125 C 8.317727088928223 71.70939636230469 8.229626655578613 71.662841796875 8.142738342285156 71.61850738525391 C 6.971284866333008 71.0208740234375 6.338585376739502 70.50379180908203 5.89399242401123 66.10523223876953 C 5.895527839660645 65.97262573242188 5.978018283843994 64.04020690917969 9.182193756103516 60.04397964477539 C 9.962627410888672 59.07086563110352 11.14299392700195 58.02761077880859 12.89681625366211 56.76083374023438 L 13.28064918518066 56.48360061645508 L 13.0247049331665 56.08524322509766 C 11.63168239593506 53.91706848144531 10.79820442199707 52.03424453735352 10.54744911193848 50.48910140991211 C 10.36723804473877 49.37960052490234 10.43017196655273 47.26763153076172 10.50986003875732 44.59379959106445 C 10.65254974365234 39.80590057373047 10.84796047210693 33.2486457824707 9.744682312011719 27.55291175842285 C 8.814215660095215 22.75193405151367 6.559905052185059 16.81893348693848 4.832615852355957 12.68715572357178 C 3.102767944335938 8.549262046813965 1.540833115577698 5.339834213256836 1.306310057640076 4.861602306365967 C 0.8593546152114868 2.518472909927368 0.9487544298171997 0.5942445397377014 1.572215914726257 -0.8583888411521912 C 2.25976037979126 -2.460355520248413 3.62180495262146 -3.469566583633423 5.62049388885498 -3.857977628707886 C 6.219293594360352 -3.974355459213257 6.861082553863525 -4.033355712890625 7.528016090393066 -4.033355712890625 C 9.630415916442871 -4.033355712890625 11.84071636199951 -3.450311183929443 13.59217166900635 -2.433733224868774 C 14.92687129974365 -1.65904438495636 16.60587120056152 -0.2828777432441711 17.02498245239258 1.873788952827454 L 17.03473854064941 1.92395555973053 L 17.0544376373291 1.971122264862061 C 17.11519432067871 2.116577863693237 23.14501571655273 16.63877868652344 24.4291820526123 27.16136741638184 C 25.193115234375 33.42521286010742 25.10664939880371 39.18421173095703 25.0494270324707 42.99506759643555 L 25.04561614990234 43.24980926513672 L 26.02005958557129 43.41487884521484 C 27.57171630859375 38.74386596679688 28.30972671508789 33.9988899230957 28.21360397338867 29.31174468994141 C 28.09467124938965 23.52188873291016 26.36530494689941 19.1748104095459 24.97573852539063 15.68187808990479 C 23.94581604003906 13.09298896789551 23.13231658935547 11.04813385009766 23.28001594543457 9.25433349609375 C 23.51822662353516 6.36193323135376 26.61400413513184 5.930055618286133 28.43815994262695 5.930055618286133 C 30.12104988098145 5.930055618286133 32.04856109619141 6.299644470214844 33.72643661499023 6.944055557250977 C 37.70394515991211 8.470850944519043 40.5879020690918 15.42610549926758 40.81967163085938 15.99961376190186 C 40.96322250366211 16.69051361083984 42.82416534423828 25.82853698730469 42.82330322265625 34.75165557861328 C 42.82258224487305 41.92881011962891 40.68192672729492 47.12538909912109 39.26541519165039 50.56406784057617 C 38.94007110595703 51.35385513305664 38.65910339355469 52.03594589233398 38.45376968383789 52.62490081787109 C 37.67568206787109 54.85724258422852 35.71909332275391 57.32662200927734 32.63837051391602 59.96444320678711 L 32.29499435424805 60.25845718383789 L 32.55302810668945 60.62964630126953 C 34.16555023193359 62.94929885864258 35.4259033203125 64.64749908447266 35.43844985961914 64.66437530517578 L 35.5240478515625 64.77960205078125 L 35.65773773193359 64.83186340332031 C 35.67100524902344 64.83735656738281 37.36831665039063 65.56028747558594 38.80703735351563 68.53321075439453 C 39.24963760375977 69.44752502441406 39.11944961547852 70.69821166992188 38.44048309326172 72.05492401123047 C 37.82225036621094 73.29025268554688 36.80129241943359 74.5205078125 35.56567001342773 75.51906585693359 C 34.28142547607422 76.55690765380859 32.84170532226563 77.27082061767578 31.51171684265137 77.52928161621094 C 30.98400497436523 77.63184356689453 30.45990562438965 77.68384552001953 29.95399284362793 77.68385314941406 Z"/>
      <path class="cls-3" d="M 29.95398330688477 77.18385314941406 C 30.4279613494873 77.18384552001953 30.91997146606445 77.13493347167969 31.41633796691895 77.03846740722656 C 32.66757202148438 76.79530334472656 34.02954864501953 76.11759948730469 35.25139236450195 75.13018035888672 C 36.4326286315918 74.17557525634766 37.40640640258789 73.00395202636719 37.99335098266602 71.83115386962891 C 38.60129547119141 70.61637878417969 38.73044967651367 69.52252197265625 38.35697174072266 68.75101470947266 C 37.06783676147461 66.08718872070313 35.58742523193359 65.35067749023438 35.46813583374023 65.29489898681641 L 35.218994140625 65.20741271972656 L 35.03708267211914 64.96255493164063 C 35.02449417114258 64.94561004638672 33.75944900512695 63.2410888671875 32.14247131347656 60.91503524780273 L 31.62641525268555 60.17267608642578 L 32.31318283081055 59.58464431762695 C 35.32587051391602 57.00506591796875 37.23301696777344 54.60811233520508 37.98163986206055 52.46030044555664 C 38.1915283203125 51.8582878112793 38.47493743896484 51.1702766418457 38.80310440063477 50.37362289428711 C 40.20461654663086 46.97136688232422 42.32259368896484 41.8298454284668 42.32330322265625 34.7515983581543 C 42.32413864135742 26.03057098388672 40.53458404541016 17.09418296813965 40.33914947509766 16.14498329162598 C 40.19057464599609 15.78062343597412 39.49312210083008 14.12298583984375 38.39232635498047 12.3171329498291 C 36.80632781982422 9.715322494506836 35.13095855712891 8.018766403198242 33.54717254638672 7.41082239151001 C 31.92429351806641 6.787533283233643 30.06212615966797 6.430055618286133 28.43815994262695 6.430055618286133 C 27.06194877624512 6.430055618286133 25.91053771972656 6.680466651916504 25.10838317871094 7.154211044311523 C 24.29236030578613 7.636166572570801 23.8572940826416 8.336544036865234 23.77832794189453 9.295355796813965 C 23.64026069641113 10.97227764129639 24.43461608886719 12.96905517578125 25.44031524658203 15.49705600738525 C 26.84479331970215 19.02745628356934 28.59270477294922 23.42114448547363 28.71349334716797 29.30150032043457 C 28.81079292297363 34.0457878112793 28.06423759460449 38.84724426269531 26.49457168579102 43.5724983215332 L 24.5456714630127 43.24235534667969 L 24.54948234558105 42.98755645751953 C 24.60649299621582 39.19029998779297 24.69266128540039 33.45184326171875 23.93287086486816 27.22194480895996 C 22.65727233886719 16.76961135864258 16.65356063842773 2.308666706085205 16.59305953979492 2.163822174072266 L 16.55366134643555 2.069477796554565 L 16.53417205810547 1.96916675567627 C 16.15087127685547 -0.003177737118676305 14.58623790740967 -1.278633236885071 13.34117126464844 -2.001299858093262 C 11.66369342803955 -2.974944353103638 9.544882774353027 -3.533355474472046 7.528016090393066 -3.533355474472046 C 6.892993927001953 -3.533355474472046 6.283304691314697 -3.477444410324097 5.715871334075928 -3.367166519165039 C 3.863804817199707 -3.007244348526001 2.658693790435791 -2.122111082077026 2.031682729721069 -0.6611888408660889 C 1.453928351402283 0.684942364692688 1.371092081069946 2.489042043685913 1.78507125377655 4.702406883239746 C 2.103117227554321 5.353365421295166 3.62089729309082 8.492324829101563 5.293927192687988 12.49431133270264 C 7.819460391998291 18.5355224609375 9.482060432434082 23.56994438171387 10.23556041717529 27.45783424377441 C 11.34939384460449 33.20805740356445 11.15302753448486 39.79737854003906 11.0096378326416 44.60869979858398 C 10.93387126922607 47.15103149414063 10.86843776702881 49.3466682434082 11.04099369049072 50.40900039672852 C 11.28069400787354 51.88603210449219 12.08964920043945 53.70485687255859 13.44537162780762 55.81497955322266 L 13.95724964141846 56.61167907714844 L 13.18958282470703 57.16616821289063 C 11.47321605682373 58.40587615966797 10.32377147674561 59.41974258422852 9.572293281555176 60.35675430297852 C 6.609771251678467 64.05159759521484 6.408042430877686 65.88730621337891 6.394835948944092 66.08831787109375 C 6.600372314453125 68.108642578125 6.847725868225098 69.33755493164063 7.195615768432617 70.06890106201172 C 7.467082500457764 70.63957977294922 7.777293682098389 70.87076568603516 8.36997127532959 71.17313385009766 C 8.45896053314209 71.21853637695313 8.549193382263184 71.26618957519531 8.641338348388672 71.31490325927734 C 9.214582443237305 71.61791229248047 9.756038665771484 71.90411376953125 10.5519495010376 71.904052734375 C 11.82552623748779 71.90395355224609 13.55207061767578 71.14435577392578 15.68364715576172 69.64637756347656 C 15.89437294006348 69.4927978515625 16.89444732666016 68.84095764160156 20.75243759155273 67.06917572021484 C 21.05714988708496 66.92922210693359 21.39477157592773 66.76551055908203 21.75592613220215 66.58258819580078 L 22.38035011291504 66.26633453369141 L 22.89127159118652 66.74473571777344 C 23.02563858032227 66.87055206298828 23.0996265411377 66.93820190429688 23.10227203369141 66.94061279296875 L 23.41275024414063 67.22409057617188 L 23.42739295959473 67.64425659179688 L 23.55598258972168 71.33283233642578 C 23.91142272949219 73.08966827392578 24.68952560424805 74.56269073486328 25.80904960632324 75.59635925292969 C 26.93391609191895 76.63495635986328 28.3672046661377 77.18389892578125 29.95397186279297 77.18385314941406 L 29.95398330688477 77.18385314941406 M 29.95400428771973 78.18385314941406 C 26.16538238525391 78.18396759033203 23.34528350830078 75.48817443847656 22.55940437316895 71.44830322265625 L 22.42800521850586 67.67910003662109 C 22.42800521850586 67.67910003662109 22.35058212280273 67.60841369628906 22.20777130126953 67.47468566894531 C 21.82709312438965 67.66750335693359 21.47883796691895 67.83597564697266 21.1698055267334 67.97791290283203 C 16.99560546875 69.89491271972656 16.26750564575195 70.45831298828125 16.26750564575195 70.45831298828125 C 13.58515357971191 72.34487915039063 11.82326316833496 72.90395355224609 10.55202865600586 72.904052734375 C 9.360462188720703 72.90414428710938 8.600021362304688 72.41313171386719 7.915504932403564 72.06390380859375 C 6.500704765319824 71.34210205078125 5.842804908752441 70.58699798583984 5.394604682922363 66.13651275634766 C 5.394604682922363 66.13651275634766 5.260504722595215 64.13580322265625 8.792104721069336 59.731201171875 C 9.70390510559082 58.59429931640625 11.0631275177002 57.46850967407227 12.60404968261719 56.35551071166992 C 11.31778240203857 54.35350036621094 10.34193801879883 52.34400177001953 10.05390453338623 50.56919860839844 C 9.531004905700684 47.34989929199219 10.95930480957031 36.45270156860352 9.253805160522461 27.64800071716309 C 7.468204975128174 18.43470001220703 0.8280048370361328 5.021999835968018 0.8280048370361328 5.021999835968018 C -0.06749513745307922 0.4140000343322754 0.9171048402786255 -3.453299999237061 5.525104999542236 -4.348800182342529 C 6.163260936737061 -4.472816467285156 6.837625026702881 -4.533356189727783 7.528020858764648 -4.533356189727783 C 11.82283592224121 -4.533356189727783 16.74432182312012 -2.191443681716919 17.51580429077148 1.778400063514709 C 17.51580429077148 1.778400063514709 23.61780548095703 16.38540077209473 24.92550468444824 27.10079956054688 C 25.71061515808105 33.53835678100586 25.60318183898926 39.39039993286133 25.54556083679199 43.25725555419922 C 26.62621688842773 40.00410079956055 27.83316040039063 35.14678955078125 27.71370506286621 29.32200050354004 C 27.50850486755371 19.33200073242188 22.4154052734375 13.66199970245361 22.78170394897461 9.213299751281738 C 23.0075798034668 6.470616817474365 25.51873588562012 5.430058479309082 28.43816184997559 5.430058479309082 C 30.25315856933594 5.430058479309082 32.22577667236328 5.832102298736572 33.90570449829102 6.47730016708374 C 38.28780364990234 8.15939998626709 41.30010604858398 15.85439968109131 41.30010604858398 15.85439968109131 C 41.30010604858398 15.85439968109131 43.32420349121094 25.35390090942383 43.32330322265625 34.75170135498047 C 43.32240295410156 43.70130157470703 39.99960327148438 49.70970153808594 38.9259033203125 52.78950119018555 C 38.02361679077148 55.37815475463867 35.69992828369141 58.00127792358398 32.96356964111328 60.34424591064453 C 34.59025955200195 62.68427658081055 35.83980560302734 64.36620330810547 35.83980560302734 64.36620330810547 C 35.83980560302734 64.36620330810547 37.69740295410156 65.09249877929688 39.25710296630859 68.31539916992188 C 40.81680297851563 71.53739929199219 36.21510314941406 77.12460327148438 31.60710525512695 78.02010345458984 C 31.03897094726563 78.13050842285156 30.4868049621582 78.18384552001953 29.95400428771973 78.18385314941406 Z"/>
    </g>
  </g>
</svg>
