<svg xmlns="http://www.w3.org/2000/svg" width="71.15" height="145.949" viewBox="0 0 71.15 145.949">
  <defs>
    <style>
      .cls-1 {
        fill: #fff;
        stroke-linecap: round;
        stroke-linejoin: round;
      }

      .cls-2, .cls-3 {
        stroke: none;
      }

      .cls-3 {
        fill: #9a9a9a;
      }
    </style>
  </defs>
  <g id="ch13-2" class="cls-1" transform="translate(-4.542 -93.215)">
    <path class="cls-2" d="M 52.88249206542969 238.1646118164063 C 52.88082122802734 238.1646118164063 52.87917709350586 238.1646118164063 52.87750625610352 238.1646118164063 C 47.38142395019531 238.1645812988281 42.34294509887695 237.2528533935547 37.90200424194336 235.4548034667969 C 34.36532592773438 234.0228576660156 31.1946849822998 232.0275115966797 28.47818565368652 229.524169921875 C 23.98993492126465 225.3881072998047 22.25881958007813 221.2542877197266 22.15567970275879 221.0010070800781 C 21.9688835144043 220.4740753173828 17.87948608398438 208.88720703125 13.84286594390869 193.6849975585938 C 11.43040561676025 184.5993957519531 9.508625984191895 176.0195922851563 8.130926132202148 168.1838989257813 C 6.41286563873291 158.4124145507813 5.541745662689209 149.7834930419922 5.541745662689209 142.5367889404297 C 5.541745662689209 135.3343353271484 6.403045654296875 128.2974548339844 8.101725578308105 121.6215972900391 C 9.46082592010498 116.2802963256836 11.35620594024658 111.1558151245117 13.73522567749023 106.3905181884766 C 16.92795181274414 99.99530029296875 20.15496635437012 95.95880126953125 21.40242576599121 94.51112365722656 L 63.33032608032227 120.8607406616211 C 62.10541534423828 121.7151260375977 61.02549743652344 122.9718322753906 60.12014389038086 124.5966567993164 C 57.33242416381836 129.5997772216797 56.46666717529297 137.5198822021484 57.5468864440918 148.136962890625 C 58.87244415283203 161.1654205322266 63.44556427001953 180.463623046875 67.04850769042969 194.3585968017578 C 70.79710388183594 208.8152923583984 74.30117034912109 220.5817718505859 74.59814453125 221.5753173828125 C 74.63644409179688 221.8436584472656 74.79985809326172 223.1728973388672 74.57158660888672 224.9459381103516 C 74.23482513427734 227.5615386962891 73.24910736083984 229.8630981445313 71.64182281494141 231.7866821289063 C 70.09886932373047 233.6332702636719 67.98316192626953 235.1023406982422 65.35348510742188 236.1530609130859 C 62.15354537963867 237.4316558837891 58.15220642089844 238.1073150634766 53.46060562133789 238.1612548828125 C 53.26804733276367 238.1634826660156 53.07355880737305 238.1646118164063 52.88249206542969 238.1646118164063 Z"/>
    <path class="cls-3" d="M 21.60849761962891 95.82171630859375 C 20.14191436767578 97.6160888671875 17.35250854492188 101.3663330078125 14.59024810791016 106.9167785644531 C 12.25292205810547 111.6133575439453 10.39092254638672 116.6634368896484 9.05596923828125 121.9267425537109 C 7.387641906738281 128.5043792724609 6.541748046875 135.4386138916016 6.541748046875 142.5367889404297 C 6.541748046875 149.7232208251953 7.4072265625 158.2906341552734 9.114128112792969 168.0010986328125 C 10.48614501953125 175.8064727783203 12.40078735351563 184.3556976318359 14.80484771728516 193.4113006591797 C 18.79106903076172 208.4265441894531 22.83012390136719 219.9091644287109 23.09096145629883 220.6463623046875 C 23.22846603393555 220.9797668457031 24.8878288269043 224.8557434082031 29.15586471557617 228.7888946533203 C 31.78360748291016 231.2104339599609 34.85248565673828 233.141357421875 38.27730560302734 234.5279998779297 C 42.59844589233398 236.2775268554688 47.51064682006836 237.1646118164063 52.87748718261719 237.1646118164063 C 53.06754302978516 237.1646118164063 53.25984573364258 237.1635131835938 53.44910430908203 237.1613464355469 C 58.00662612915039 237.1089172363281 61.87996673583984 236.4600524902344 64.96152496337891 235.2327880859375 C 67.43446350097656 234.2479248046875 69.41744995117188 232.8804168701172 70.85536193847656 231.1682739257813 C 72.33298492431641 229.4088439941406 73.24618530273438 227.2984313964844 73.56956481933594 224.8957214355469 C 73.78033447265625 223.3296356201172 73.66096496582031 222.1292114257813 73.61753082275391 221.786376953125 C 73.19623565673828 220.3743286132813 69.75525665283203 208.7814636230469 66.08050537109375 194.6095733642578 C 60.82720565795898 174.349853515625 57.62134552001953 158.7482757568359 56.55202484130859 148.2381744384766 C 55.45066833496094 137.4133758544922 56.35724639892578 129.2954559326172 59.24660491943359 124.1099090576172 C 60.01642608642578 122.7283172607422 60.84563827514648 121.7140655517578 61.62743377685547 120.9716339111328 L 21.60849761962891 95.82171630859375 M 21.22008514404297 93.2154541015625 L 65.3609619140625 120.955810546875 C 65.3609619140625 120.955810546875 55.98800659179688 122.93603515625 58.541748046875 148.0357360839844 C 61.09548568725586 173.1354522705078 75.575927734375 221.3546447753906 75.575927734375 221.3546447753906 C 75.575927734375 221.3546447753906 78.616943359375 238.8720092773438 53.47210693359375 239.1611938476563 C 53.27259063720703 239.1634826660156 53.07474517822266 239.1646270751953 52.87749481201172 239.1646270751953 C 28.21545791625977 239.1646270751953 21.22008514404297 221.3546447753906 21.22008514404297 221.3546447753906 C 21.22008514404297 221.3546447753906 4.541748046875 174.5715789794922 4.541748046875 142.5367889404297 C 4.541748046875 110.5019836425781 21.22008514404297 93.2154541015625 21.22008514404297 93.2154541015625 Z"/>
  </g>
</svg>
