<svg xmlns="http://www.w3.org/2000/svg" width="69.931" height="159.679" viewBox="0 0 69.931 159.679">
  <defs>
    <style>
      .cls-1 {
        fill: #fff;
        stroke-linecap: round;
        stroke-linejoin: round;
      }

      .cls-2, .cls-3 {
        stroke: none;
      }

      .cls-3 {
        fill: #9a9a9a;
      }
    </style>
  </defs>
  <g id="ch14-1" class="cls-1" transform="translate(38.295 0.467)">
    <path class="cls-2" d="M -15.34030246734619 158.2112579345703 C -28.99319839477539 158.2105560302734 -34.15196990966797 154.9513397216797 -36.07546997070313 152.2173461914063 C -37.95951843261719 149.5394134521484 -37.11912536621094 146.8867340087891 -37.06169128417969 146.7155151367188 C -36.87628173828125 146.240234375 -33.52177429199219 137.5794525146484 -30.21524047851563 125.1502990722656 C -27.08940696716309 113.4003677368164 -23.36328125 95.76773834228516 -23.36328125 78.49269866943359 C -23.36328125 61.21159362792969 -27.09148979187012 44.34144973754883 -30.21905136108398 33.23219680786133 C -33.33773422241211 22.15450859069824 -36.50058364868164 14.43168640136719 -37.01000213623047 13.2125186920166 C -37.0164794921875 12.93016719818115 -37.0038948059082 12.22648811340332 -36.78386306762695 11.3000316619873 C -36.40180206298828 9.691365242004395 -35.60723876953125 8.202864646911621 -34.4222412109375 6.875885963439941 C -32.89086532592773 5.1610107421875 -30.73553085327148 3.767240047454834 -28.01607322692871 2.733302354812622 C -24.58817672729492 1.430031657218933 -20.2531566619873 0.6970732808113098 -15.13140678405762 0.5547816157341003 C -14.60476016998291 0.5401566624641418 -14.07423973083496 0.5327399969100952 -13.55461502075195 0.5327399969100952 C -8.462010383605957 0.5327399969100952 -3.679198026657104 1.239594101905823 0.6609686613082886 2.63367748260498 C 4.126156330108643 3.746719121932983 7.32044792175293 5.298490047454834 10.15507316589355 7.245906829833984 C 14.63714504241943 10.32510662078857 16.80545425415039 13.44549179077148 17.11338233947754 13.90901374816895 C 17.47086143493652 14.75872898101807 20.68814277648926 22.51554679870605 23.86505126953125 33.80713653564453 C 25.83234405517578 40.79936599731445 27.3995304107666 47.75922012329102 28.52311515808105 54.49338531494141 C 29.92559432983398 62.89917755126953 30.63671875 70.97371673583984 30.63671875 78.49269866943359 C 30.63671875 86.01973724365234 29.92413520812988 94.25144958496094 28.51876068115234 102.9591369628906 C 27.39296913146973 109.9345321655273 25.82284355163574 117.2277221679688 23.85196876525879 124.6361389160156 C 20.5895938873291 136.8993225097656 17.29181861877441 145.432373046875 17.08003807067871 145.9759674072266 C 16.97332572937012 146.1963348388672 15.49205303192139 149.1286315917969 11.01861476898193 152.0348052978516 C 8.283156394958496 153.8118896484375 4.982051849365234 155.2316131591797 1.207051992416382 156.2545471191406 C -3.537135601043701 157.5401153564453 -9.044219017028809 158.1983795166016 -15.1612606048584 158.2110748291016 L -15.34030246734619 158.2112579345703 Z"/>
    <path class="cls-3" d="M -13.55695629119873 1.532745361328125 C -14.06580352783203 1.532745361328125 -14.58617401123047 1.540023803710938 -15.10363006591797 1.554412841796875 C -20.0863037109375 1.692825317382813 -24.29336929321289 2.397216796875 -27.60793495178223 3.648040771484375 C -30.17495536804199 4.616790771484375 -32.20212936401367 5.91070556640625 -33.63315200805664 7.493850708007813 C -35.77361297607422 9.86187744140625 -36.00032043457031 12.22705078125 -36.01221466064453 13.00569152832031 C -35.30817031860352 14.69831848144531 -32.30106353759766 22.14668273925781 -29.25647735595703 32.96119689941406 C -26.11182594299316 44.13108825683594 -22.36328125 61.09745788574219 -22.36328125 78.49269866943359 C -22.36328125 95.87580871582031 -26.10769653320313 113.5998077392578 -29.24886894226074 125.4073944091797 C -32.54603576660156 137.8014221191406 -35.79600524902344 146.2238006591797 -36.11753845214844 147.0470123291016 C -36.20040130615234 147.317138671875 -36.79991149902344 149.5080871582031 -35.21182632446289 151.7066955566406 C -34.12556457519531 153.2105407714844 -32.24830627441406 154.4360198974609 -29.63219451904297 155.3491363525391 C -26.09202194213867 156.5847625732422 -21.28356552124023 157.2112579345703 -15.34034729003906 157.2112579345703 L -15.16332626342773 157.2110748291016 C -9.196391105651855 157.1986999511719 -3.825108528137207 156.5652008056641 0.801304817199707 155.3281707763672 C 4.462869644165039 154.3491363525391 7.664522171020508 152.9928894042969 10.31728363037109 151.2970886230469 C 14.52686882019043 148.6061096191406 15.99875259399414 145.8960418701172 16.16461563110352 145.5708160400391 C 16.48375511169434 144.7478332519531 19.69881248474121 136.3580627441406 22.88558578491211 124.3790435791016 C 24.8479118347168 117.0027160644531 26.4110221862793 109.7424163818359 27.53152084350586 102.7997894287109 C 28.92843627929688 94.14463043212891 29.63671875 85.96654510498047 29.63671875 78.49269866943359 C 29.63671875 71.034912109375 28.93134689331055 63.02272033691406 27.54021835327148 54.67871856689453 C 26.42411041259766 47.98445892333984 24.86687088012695 41.06446075439453 22.91169738769531 34.11091613769531 C 19.83683967590332 23.17521667480469 16.72287559509277 15.56869506835938 16.22910690307617 14.38621520996094 C 15.81479644775391 13.78114318847656 13.70067596435547 10.87471008300781 9.498935699462891 8.008895874023438 C 6.746999740600586 6.13189697265625 3.646239280700684 4.636062622070313 0.2827825546264648 3.562911987304688 C -3.938912868499756 2.215957641601563 -8.594521522521973 1.53289794921875 -13.55613040924072 1.532745361328125 C -13.55615234375 1.532745361328125 -13.55695629119873 1.532745361328125 -13.55695629119873 1.532745361328125 M -13.55463027954102 -0.467254638671875 C 9.355207443237305 -0.4665069580078125 18 13.43821716308594 18 13.43821716308594 C 18 13.43821716308594 31.63671875 45.25995635986328 31.63671875 78.49269866943359 C 31.63671875 111.7254333496094 18 146.3691711425781 18 146.3691711425781 C 18 146.3691711425781 12.31489181518555 159.1540832519531 -15.1591739654541 159.2110748291016 C -15.22121810913086 159.2111968994141 -15.27862930297852 159.2112579345703 -15.34034729003906 159.2112579345703 C -42.60786437988281 159.2112579345703 -38 146.3691711425781 -38 146.3691711425781 C -38 146.3691711425781 -24.36328125 111.7254333496094 -24.36328125 78.49269866943359 C -24.36328125 45.25995635986328 -38 13.43821716308594 -38 13.43821716308594 C -38 13.43821716308594 -39.27252197265625 0.2250213623046875 -15.1591739654541 -0.44482421875 C -14.61609363555908 -0.4599151611328125 -14.08249378204346 -0.4672698974609375 -13.55463027954102 -0.467254638671875 Z"/>
  </g>
</svg>
