<svg xmlns="http://www.w3.org/2000/svg" width="103.196" height="81.97" viewBox="0 0 103.196 81.97">
  <defs>
    <style>
      .cls-1 {
        fill: #fff;
      }

      .cls-2, .cls-3 {
        stroke: none;
      }

      .cls-3 {
        fill: #707070;
      }
    </style>
  </defs>
  <g id="ch14" transform="translate(-369.116 -374.669)">
    <g id="ch14-1" class="cls-1" transform="matrix(-0.999, -0.035, 0.035, -0.999, 418.917, 452.452)">
      <path class="cls-2" d="M 28.48880195617676 75.59405517578125 C 26.77408981323242 75.5941162109375 25.22355651855469 74.99929809570313 24.00483512878418 73.87393188476563 C 22.79884147644043 72.76030731201172 21.96547317504883 71.17971801757813 21.5933952331543 69.30120086669922 L 21.48280143737793 66.14878845214844 L 21.42560195922852 64.51833343505859 L 20.55940246582031 65.90085601806641 C 18.61480140686035 69.00457763671875 17.21395683288574 71.26945495605469 16.39579010009766 72.63256072998047 C 15.98734855651855 73.31301879882813 15.77839088439941 73.67303466796875 15.67157649993896 73.88240051269531 C 15.26608562469482 74.11589050292969 14.94440841674805 74.34779357910156 14.65700149536133 74.55499267578125 C 13.96781253814697 75.05184936523438 13.51250171661377 75.38008117675781 12.40969085693359 75.38013458251953 C 11.83439064025879 75.38015747070313 11.11496829986572 75.28899383544922 10.21031284332275 75.10140991210938 C 8.082112312316895 74.66024780273438 6.89272403717041 74.15859985351563 6.104990482330322 73.36993408203125 C 5.258056163787842 72.52200317382813 4.785167694091797 71.20747375488281 4.572507381439209 69.10940551757813 C 4.559167861938477 68.73630523681641 4.538747787475586 68.41616821289063 4.520712852478027 68.13323211669922 C 4.449857234954834 67.02207946777344 4.417523860931396 66.51494598388672 4.954268455505371 65.30424499511719 C 5.532723903656006 63.99948883056641 6.734312534332275 61.97836685180664 9.150412559509277 57.99143600463867 C 9.831335067749023 56.86781311035156 10.60147953033447 55.82582473754883 11.43945693969727 54.89443588256836 L 11.66262340545654 54.64638900756836 L 11.51922416687012 54.34512329101563 C 11.04281234741211 53.34419250488281 10.72766780853271 52.38325881958008 10.58254623413086 51.4890022277832 C 10.36825752258301 50.16916656494141 9.214579582214355 48.55900192260742 7.61783504486084 46.33043670654297 C 5.467957019805908 43.32987976074219 2.523601531982422 39.22047805786133 0.552057147026062 33.77333450317383 C -3.647542715072632 22.17064666748047 -5.400454044342041 6.205690860748291 -5.417675971984863 6.045779705047607 L -5.419942855834961 6.024713039398193 L -5.423975944519043 6.003912925720215 C -5.885065078735352 3.631324052810669 -5.799809455871582 1.6849684715271 -5.170587062835693 0.2189128845930099 C -4.48304271697998 -1.383053779602051 -3.120998382568359 -2.392264842987061 -1.122309446334839 -2.780675888061523 C -0.5235095024108887 -2.897053718566895 0.1182793900370598 -2.956053733825684 0.7852126955986023 -2.956053733825684 C 2.887612819671631 -2.956053733825684 5.097912788391113 -2.373009443283081 6.849368095397949 -1.356431603431702 C 8.176329612731934 -0.5862345695495605 9.843593597412109 0.7784104943275452 10.27474689483643 2.91357946395874 C 10.30742168426514 3.812671184539795 10.88317680358887 18.96800804138184 12.72982406616211 27.78292465209961 C 14.30819034576416 35.31724548339844 19.27700233459473 41.18462371826172 22.56496810913086 45.06719207763672 C 22.84589004516602 45.3989143371582 23.11123466491699 45.71224594116211 23.35891342163086 46.008544921875 L 23.80324554443359 46.54010009765625 L 24.16774559020996 45.95092391967773 C 24.30003547668457 45.73709106445313 24.41221237182617 45.51147842407227 24.50114631652832 45.28038024902344 C 24.65461349487305 44.8818359375 24.87434577941895 44.52841186523438 25.1287784576416 44.11917877197266 C 26.1011905670166 42.55514526367188 27.57070159912109 40.19154739379883 27.87141227722168 31.3144359588623 C 28.24206733703613 20.41061210632324 33.17355728149414 0.1175462231040001 34.34543609619141 -2.067698240280151 C 34.49745559692383 -2.351376056671143 35.20415878295898 -3.010875940322876 38.47649002075195 -3.010875940322876 C 41.67617797851563 -3.010875940322876 45.29447174072266 -2.382510185241699 45.66411209106445 -2.260127305984497 C 45.74328994750977 -2.225850105285645 45.82675933837891 -2.201555967330933 45.92270278930664 -2.17363166809082 C 46.26340103149414 -2.074453830718994 46.77826690673828 -1.92458713054657 47.35324478149414 -1.222287058830261 C 48.11911392211914 -0.2868204414844513 48.71168899536133 1.294979572296143 49.1144905090332 3.479179620742798 C 49.65402221679688 6.407168388366699 47.81492233276367 12.3847131729126 45.86784744262695 18.71323585510254 C 43.96222305297852 24.90701293945313 41.99171447753906 31.3116569519043 41.74214553833008 36.22574615478516 C 41.36800003051758 43.59091186523438 39.17175674438477 45.30674743652344 37.40704727172852 46.68544769287109 C 36.51187896728516 47.38479232788086 35.66636657714844 48.04535675048828 35.23895645141602 49.27152252197266 C 34.24197006225586 52.13192367553711 32.30196762084961 53.92897796630859 30.23265647888184 55.6671257019043 L 29.86654663085938 55.97463607788086 L 30.15739059448242 56.35412216186523 C 30.92906761169434 57.36101150512695 31.58562469482422 58.38019180297852 32.16454696655273 59.46989059448242 C 33.07651138305664 61.18562316894531 33.42375564575195 61.92879104614258 33.61030197143555 62.32804489135742 C 33.85313415527344 62.84774780273438 33.87405776977539 62.88047790527344 34.35649108886719 63.49542236328125 C 34.70468902587891 63.93924713134766 35.28271865844727 64.67603302001953 36.39381408691406 66.17017364501953 C 36.76537322998047 68.23202514648438 36.32627868652344 70.3194580078125 35.15224456787109 72.06004333496094 C 33.95725631713867 73.83168792724609 32.14401245117188 75.03186798095703 30.04651260375977 75.43947601318359 C 29.51881217956543 75.54204559326172 28.99472427368164 75.59404754638672 28.48880195617676 75.59405517578125 Z M 16.31076049804688 74.65879058837891 L 15.73036670684814 73.95104217529297 L 15.81563758850098 73.80634307861328 C 15.8887825012207 73.76433563232422 15.97445583343506 73.74102020263672 16.06239128112793 73.74101257324219 L 16.56024551391602 74.23529052734375 L 16.31076049804688 74.65879058837891 Z"/>
      <path class="cls-3" d="M 28.48879051208496 75.09405517578125 C 28.9627685546875 75.09404754638672 29.45476913452148 75.04513549804688 29.95113563537598 74.94866943359375 C 31.91751289367676 74.56652069091797 33.61742401123047 73.44136810302734 34.73772430419922 71.78044891357422 C 35.81671142578125 70.18077850341797 36.23356246948242 68.26856994628906 35.92140197753906 66.37285614013672 C 34.86051559448242 64.94791412353516 34.30230331420898 64.23639678955078 33.96311187744141 63.80404663085938 C 33.46889114379883 63.17407989501953 33.42503356933594 63.11267852783203 33.15731430053711 62.53970336914063 C 32.9726676940918 62.14452362060547 32.62896728515625 61.408935546875 31.72299003601074 59.7044792175293 C 31.15716743469238 58.63943481445313 30.51523399353027 57.64301300048828 29.76053428649902 56.65827941894531 L 29.17885780334473 55.8992919921875 L 29.91106796264648 55.28425598144531 C 31.92489051818848 53.59272384643555 33.81162261962891 51.84744644165039 34.76682281494141 49.10695648193359 C 35.24263381958008 47.74190139770508 36.18647003173828 47.00452423095703 37.09922409057617 46.29143524169922 C 37.97521209716797 45.6070556640625 38.88101196289063 44.89939117431641 39.63740158081055 43.50276947021484 C 40.55402374267578 41.8102912902832 41.07915878295898 39.42165756225586 41.24279022216797 36.20037841796875 C 41.49551391601563 31.22412490844727 43.47532272338867 24.78922462463379 45.38994598388672 18.56620216369629 C 47.31850051879883 12.29791259765625 49.14009094238281 6.377257347106934 48.62277984619141 3.569857358932495 C 48.24091339111328 1.49919068813324 47.66813659667969 -0.04837600141763687 46.96636962890625 -0.9055426716804504 C 46.4896354675293 -1.487853765487671 46.08119201660156 -1.60674262046814 45.782958984375 -1.693553805351257 C 45.690185546875 -1.720559239387512 45.59471130371094 -1.748347759246826 45.49763870239258 -1.787790536880493 C 45.01381301879883 -1.921928763389587 41.51678085327148 -2.510875940322876 38.47649002075195 -2.510875940322876 C 35.24069976806641 -2.510875940322876 34.78985595703125 -1.838453769683838 34.78607940673828 -1.831398248672485 C 34.24958038330078 -0.8309870958328247 32.71759033203125 4.748346328735352 31.29209136962891 11.45945739746094 C 30.293701171875 16.15976905822754 28.58663558959961 24.99164581298828 28.37112426757813 31.33135795593262 C 28.06589126586914 40.34204483032227 26.61372375488281 42.677734375 25.55340194702148 44.3831787109375 C 25.30243492126465 44.78683471679688 25.10421180725098 45.10565567016602 24.9677791595459 45.45994567871094 C 24.86769104003906 45.72003555297852 24.74157905578613 45.97373580932617 24.59294700622559 46.2139778137207 L 23.86394691467285 47.392333984375 L 22.97527885437012 46.3292121887207 C 22.72863578796387 46.03414535522461 22.46380233764648 45.72141265869141 22.18340110778809 45.39032363891602 C 18.86284637451172 41.46926879882813 13.8447790145874 35.54372406005859 12.24044609069824 27.88544654846191 C 10.38862800598145 19.04583358764648 9.825804710388184 4.350893497467041 9.77651309967041 2.973164319992065 C 9.369163513183594 1.042494058609009 7.827932357788086 -0.210329607129097 6.598368167877197 -0.923998236656189 C 4.920890331268311 -1.897642612457275 2.802079439163208 -2.456053733825684 0.7852126955986023 -2.456053733825684 C 0.1501905024051666 -2.456053733825684 -0.4594983756542206 -2.400142669677734 -1.026931762695313 -2.289864778518677 C -2.878998279571533 -1.929942727088928 -4.084109306335449 -1.044809341430664 -4.71112060546875 0.4161128997802734 C -5.30005407333374 1.788290619850159 -5.374753952026367 3.636212825775146 -4.933165073394775 5.908535003662109 L -4.925076007843018 5.950135231018066 L -4.92054271697998 5.992257118225098 C -4.903398513793945 6.151568412780762 -3.157109498977661 22.0565242767334 1.022201657295227 33.60316848754883 C 2.97025728225708 38.98538970947266 5.891368389129639 43.06235885620117 8.024279594421387 46.03922271728516 C 9.66066837310791 48.32312393188477 10.84300136566162 49.9732780456543 11.07609081268311 51.40891265869141 C 11.2136344909668 52.25644683837891 11.51462364196777 53.17203521728516 11.97070121765137 54.13024520874023 L 12.25747966766357 54.73278045654297 L 11.8111572265625 55.22885894775391 C 10.99409008026123 56.13701248168945 10.24274635314941 57.15366744995117 9.578023910522461 58.25056838989258 C 7.083123683929443 62.36751174926758 5.952801704406738 64.28561401367188 5.411368370056152 65.50690460205078 C 4.924312591552734 66.60549926757813 4.950279235839844 67.01282501220703 5.01969051361084 68.10140991210938 C 5.037679195404053 68.38349151611328 5.05799388885498 68.70210266113281 5.071597576141357 69.07501983642578 C 5.272496223449707 71.04136657714844 5.700770378112793 72.25770568847656 6.458745956420898 73.01659393310547 C 7.171379566192627 73.73005676269531 8.287679672241211 74.19222259521484 10.31183528900146 74.61182403564453 C 11.18264579772949 74.79238891601563 11.86885738372803 74.88015747070313 12.40966796875 74.88013458251953 C 13.3510570526123 74.88008880615234 13.68976783752441 74.63590240478516 14.36460113525391 74.14939880371094 C 14.63220024108887 73.95648956298828 14.92845153808594 73.74291229248047 15.29559898376465 73.52329254150391 C 15.4295539855957 73.27642822265625 15.63921070098877 72.92147064208984 15.96707916259766 72.37523651123047 C 16.78689002990723 71.00941467285156 18.18941307067871 68.74179840087891 20.13570213317871 65.63539123535156 L 21.86810111999512 62.87034606933594 L 21.98250198364258 66.13127136230469 L 22.09167098999023 69.24308776855469 C 22.44672203063965 70.99996948242188 23.22457313537598 72.47286224365234 24.34404563903809 73.506591796875 C 25.46877861022949 74.545166015625 26.90200233459473 75.09410095214844 28.48877906799316 75.09405517578125 L 28.48879051208496 75.09405517578125 M 28.48881340026855 76.09405517578125 C 24.7002010345459 76.09416961669922 21.88018989562988 73.39837646484375 21.09510231018066 69.35850524902344 L 20.98311233520508 66.16632080078125 C 16.45751190185547 73.3895263671875 16.06000137329102 74.18220520019531 16.06024551391602 74.23750305175781 C 14.58878803253174 75.04393768310547 14.23049926757813 75.88004302978516 12.40970993041992 75.88013458251953 C 11.82315444946289 75.88015747070313 11.08508968353271 75.79343414306641 10.10880184173584 75.59100341796875 C 6.088501453399658 74.75759887695313 4.52070140838623 73.59300231933594 4.07340145111084 69.14340209960938 C 3.956401586532593 65.80709838867188 3.256201505661011 66.75299835205078 8.722801208496094 57.73230361938477 C 9.460513114929199 56.51496887207031 10.25015735626221 55.46875762939453 11.06775760650635 54.56001281738281 C 10.59564590454102 53.56811141967773 10.25027942657471 52.5628776550293 10.08900165557861 51.5691032409668 C 9.613801956176758 48.64230346679688 3.471301555633545 43.30800247192383 0.08190160989761353 33.94350051879883 C -4.186798572540283 22.14990234375 -5.914798259735107 6.099301815032959 -5.914798259735107 6.099301815032959 C -6.810298442840576 1.491301774978638 -5.825698375701904 -2.375998258590698 -1.217698335647583 -3.271498203277588 C -0.5795421600341797 -3.395514965057373 0.09482170641422272 -3.456054449081421 0.7852174043655396 -3.456054449081421 C 5.080032348632813 -3.456054449081421 10.00151824951172 -1.114141941070557 10.7730016708374 2.855701684951782 C 10.7730016708374 2.855701684951782 11.31210136413574 18.57690238952637 13.21920204162598 27.68040084838867 C 14.90876865386963 35.74553680419922 20.67907905578613 42.02302551269531 23.74253463745117 45.68787002563477 C 23.85717964172363 45.50255584716797 23.95489120483398 45.30767822265625 24.03450202941895 45.10080337524414 C 24.82920074462891 43.03710174560547 26.99460220336914 42.42960357666016 27.37170219421387 31.2975025177002 C 27.74430084228516 20.33640098571777 32.66730117797852 0.003601776203140616 33.90480041503906 -2.303998231887817 C 34.39720916748047 -3.222869157791138 36.31549835205078 -3.510879516601563 38.47649002075195 -3.510879516601563 C 41.74249267578125 -3.510879516601563 45.56324005126953 -2.853213310241699 45.8568000793457 -2.721598148345947 C 46.34460067749023 -2.502898216247559 48.51539993286133 -2.52629828453064 49.606201171875 3.388501882553101 C 50.69610214233398 9.303301811218262 42.75 26.23860168457031 42.24150085449219 36.25110244750977 C 41.67180252075195 47.46600341796875 36.88470077514648 46.0692024230957 35.71110153198242 49.43610000610352 C 34.7036018371582 52.32663345336914 32.82411193847656 54.14337921142578 30.55424690246582 56.04998016357422 C 31.23779106140137 56.94186782836914 31.93483543395996 57.9718017578125 32.60610198974609 59.23530197143555 C 35.43570327758789 64.55879974365234 32.86350250244141 60.57900238037109 36.8640022277832 65.964599609375 C 37.75950241088867 70.57260131835938 34.74990081787109 75.03480529785156 30.14190101623535 75.93030548095703 C 29.57378005981445 76.04071044921875 29.0216007232666 76.09404754638672 28.48881340026855 76.09405517578125 Z M 16.06239128112793 74.24101257324219 C 16.06109237670898 74.24101257324219 16.06025695800781 74.23999786376953 16.06024551391602 74.23750305175781 C 16.06632423400879 74.23416900634766 16.07238960266113 74.23082733154297 16.07850074768066 74.22750091552734 C 16.07850074768066 74.22750091552734 16.06723403930664 74.24101257324219 16.06241226196289 74.24101257324219 C 16.06240653991699 74.24101257324219 16.06239891052246 74.24101257324219 16.06239128112793 74.24101257324219 Z"/>
    </g>
    <g id="ch14-2" class="cls-1" transform="matrix(-0.999, -0.035, 0.035, -0.999, 466.917, 454.452)">
      <path class="cls-2" d="M 29.95399284362793 77.68385314941406 C 28.23929405212402 77.68391418457031 26.6887149810791 77.08908843994141 25.4698600769043 75.96371459960938 C 24.26375770568848 74.85010528564453 23.43017959594727 73.26966094970703 23.05771636962891 71.39106750488281 L 22.92770385742188 67.66168212890625 L 22.92038345336914 67.45162200927734 L 22.76515960693359 67.30987548828125 C 22.76375007629395 67.30859375 22.68806076049805 67.23943328857422 22.54951667785645 67.10971069335938 L 22.29405975341797 66.87051391601563 L 21.98184967041016 67.02864837646484 C 21.61494827270508 67.2144775390625 21.27152633666992 67.3809814453125 20.96113777160645 67.52352142333984 C 17.00993728637695 69.33811187744141 16.10737228393555 69.95465850830078 15.97390174865723 70.05351257324219 C 13.723952293396 71.63514709472656 11.9504976272583 72.40393829345703 10.55198287963867 72.40404510498047 C 9.632049560546875 72.40412139892578 9.009627342224121 72.07512664794922 8.40770435333252 71.7569580078125 C 8.317727088928223 71.70940399169922 8.229626655578613 71.66284942626953 8.142738342285156 71.61851501464844 C 6.971284866333008 71.0208740234375 6.338585376739502 70.50377655029297 5.89399242401123 66.10521697998047 C 5.895527839660645 65.97261810302734 5.978018283843994 64.04020690917969 9.182193756103516 60.04397964477539 C 9.962627410888672 59.07086944580078 11.14299392700195 58.02761077880859 12.89681625366211 56.76083374023438 L 13.28064918518066 56.48360061645508 L 13.0247049331665 56.08524703979492 C 11.63168239593506 53.91706848144531 10.79820442199707 52.03424453735352 10.54744911193848 50.48910140991211 C 10.33190441131592 49.16209030151367 9.502238273620605 46.76742172241211 8.451848983764648 43.73565673828125 C 6.865982532501221 39.15837860107422 4.892338275909424 33.46179962158203 3.873982429504395 28.20451164245605 C 2.149040460586548 19.3041877746582 -1.648589372634888 8.027770042419434 -1.8843594789505 7.33169412612915 C -2.338298320770264 4.973850727081299 -2.251032829284668 3.038757085800171 -1.624917507171631 1.579690098762512 C -0.9374730587005615 -0.02227650955319405 0.4246714115142822 -1.031476497650146 2.42367148399353 -1.419876456260681 C 3.022871494293213 -1.53644323348999 3.664971351623535 -1.595532059669495 4.332249164581299 -1.595532059669495 C 6.434237957000732 -1.595532059669495 8.644171714782715 -1.012409806251526 10.39541625976563 0.004301267676055431 C 11.72987174987793 0.7790568470954895 13.40865993499756 2.155290126800537 13.82820510864258 4.311978816986084 L 13.83150482177734 4.328956604003906 L 13.83597183227539 4.345667839050293 C 13.87017154693604 4.47353458404541 17.27016067504883 17.25546836853027 18.5584831237793 27.81296730041504 C 19.42507171630859 34.91861343383789 22.2235050201416 40.98533630371094 23.89551544189453 44.61006927490234 C 24.05284881591797 44.95115661621094 24.20041656494141 45.27106857299805 24.335693359375 45.56869125366211 L 24.82981491088867 46.65576934814453 L 25.25768280029297 45.54094696044922 C 27.32924842834473 40.14339065551758 28.32376098632813 34.68310165405273 28.21360397338867 29.31174659729004 C 28.09820556640625 23.69368934631348 26.34969329833984 17.00972366333008 24.94474983215332 11.63906764984131 C 23.82800483703613 7.370112419128418 22.86354827880859 3.68331241607666 23.01901626586914 1.795134544372559 C 23.25779342651367 -1.097654342651367 26.35361671447754 -1.529598712921143 28.17774963378906 -1.529598712921143 C 29.86032676696777 -1.529598712921143 31.78799438476563 -1.160154342651367 33.46646118164063 -0.5159987211227417 C 37.40376281738281 0.9961706399917603 40.27544021606445 7.84217357635498 40.55270004272461 8.523524284362793 C 40.70317459106445 9.655364036560059 42.82416534423828 25.77835845947266 42.82330322265625 34.75165557861328 C 42.82258224487305 41.92881393432617 40.68192672729492 47.12538909912109 39.26541519165039 50.56406784057617 C 38.94007110595703 51.35385513305664 38.65910339355469 52.03594589233398 38.45376968383789 52.62490081787109 C 37.67568206787109 54.85724639892578 35.71909332275391 57.32662200927734 32.63837051391602 59.96444702148438 L 32.29499435424805 60.25845718383789 L 32.55302810668945 60.62964630126953 C 34.16555023193359 62.94930267333984 35.4259033203125 64.64749908447266 35.43844985961914 64.66437530517578 L 35.44169235229492 64.66875457763672 L 35.44504928588867 64.67306518554688 C 35.45521545410156 64.68621063232422 36.51259231567383 66.06603240966797 38.02501678466797 69.18856048583984 C 38.51097106933594 70.19273376464844 38.40991592407227 71.48253631591797 37.74037170410156 72.82021331787109 C 36.58010482788086 75.13833618164063 34.07700347900391 77.03075408935547 31.51171493530273 77.52928161621094 C 30.98407173156738 77.6318359375 30.45997047424316 77.683837890625 29.95398330688477 77.68385314941406 L 29.95399284362793 77.68385314941406 Z"/>
      <path class="cls-3" d="M 29.95397186279297 77.18385314941406 L 29.95396041870117 77.18385314941406 C 30.42801666259766 77.183837890625 30.9200267791748 77.13492584228516 31.41633796691895 77.03846740722656 C 32.63328170776367 76.80197143554688 33.84761428833008 76.23371124267578 34.92802810668945 75.39512634277344 C 35.94502639770508 74.60576629638672 36.78501510620117 73.61183166503906 37.29325103759766 72.59642028808594 C 37.89176177978516 71.40065765380859 37.99177169799805 70.26769256591797 37.57501602172852 69.40650939941406 C 36.09261703491211 66.34597778320313 35.05922698974609 64.99154663085938 35.0502815246582 64.97992706298828 L 35.04359436035156 64.9713134765625 L 35.03708267211914 64.96255493164063 C 35.02449417114258 64.94561004638672 33.75944900512695 63.2410888671875 32.14247131347656 60.91503524780273 L 31.62641525268555 60.17267990112305 L 32.31318283081055 59.58464431762695 C 35.32587051391602 57.00506973266602 37.23301696777344 54.60811233520508 37.98163986206055 52.46030044555664 C 38.1915283203125 51.85829162597656 38.47493743896484 51.17028045654297 38.80310440063477 50.37362289428711 C 40.20461654663086 46.97136688232422 42.32259368896484 41.8298454284668 42.32330322265625 34.75160217285156 C 42.32414245605469 25.9486083984375 40.27190399169922 10.21268463134766 40.06547546386719 8.652886390686035 C 39.88985061645508 8.226425170898438 39.19128799438477 6.590461254119873 38.11613845825195 4.831468105316162 C 36.53491592407227 2.244490146636963 34.86504745483398 0.5567567944526672 33.28730392456055 -0.04918762296438217 C 31.66381645202637 -0.6722542643547058 29.80144882202148 -1.029598712921143 28.17774963378906 -1.029598712921143 C 26.80149269104004 -1.029598712921143 25.65004920959473 -0.7791765332221985 24.8478832244873 -0.3054209649562836 C 24.03171539306641 0.176612377166748 23.59648323059082 0.8771901726722717 23.51732635498047 1.836156845092773 C 23.36886024475098 3.639312267303467 24.32331657409668 7.287857055664063 25.42847061157227 11.51252365112305 C 26.8400821685791 16.90865707397461 28.59688186645508 23.62432289123535 28.71349334716797 29.30150032043457 C 28.82499313354492 34.73783493041992 27.81933784484863 40.26185607910156 25.7244815826416 45.72010040283203 L 24.86876106262207 47.94973373413086 L 23.88051605224609 45.77558898925781 C 23.7455940246582 45.47875595092773 23.59840393066406 45.15969085693359 23.44148254394531 44.81949996948242 C 21.75720405578613 41.16815567016602 18.9382266998291 35.05690002441406 18.06217193603516 27.87353515625 C 16.77827072143555 17.35227966308594 13.38704872131348 4.602367877960205 13.35294914245605 4.474812507629395 L 13.34400463104248 4.441390037536621 L 13.33740520477295 4.407456874847412 C 12.95370483398438 2.435001373291016 11.38923835754395 1.159445762634277 10.14437103271484 0.436712384223938 C 8.467126846313477 -0.5370543003082275 6.348682403564453 -1.095532059669495 4.332249164581299 -1.095532059669495 C 3.696915864944458 -1.095532059669495 3.086949110031128 -1.039532065391541 2.519037961959839 -0.9290542602539063 C 0.6666713953018188 -0.5691431760787964 -0.5385285615921021 0.3159679472446442 -1.16543972492218 1.776867985725403 C -1.748517513275146 3.135637044906616 -1.827271461486816 4.961398124694824 -1.399757504463196 7.203901290893555 C -1.073365330696106 8.16988468170166 2.656717300415039 19.29583549499512 4.364860534667969 28.10943412780762 C 5.376438140869141 33.33176803588867 7.343626976013184 39.00967788696289 8.924293518066406 43.57196807861328 C 9.982593536376953 46.62655639648438 10.81850433349609 49.03925704956055 11.04099369049072 50.40900039672852 C 11.28069400787354 51.88603591918945 12.08964920043945 53.70485687255859 13.44537162780762 55.81497955322266 L 13.95724964141846 56.61167907714844 L 13.18958282470703 57.16616821289063 C 11.47321605682373 58.40587997436523 10.32377147674561 59.41974639892578 9.572293281555176 60.35675811767578 C 6.609770774841309 64.05160522460938 6.408042430877686 65.88729858398438 6.394835948944092 66.08831024169922 C 6.600372314453125 68.108642578125 6.847725868225098 69.33756256103516 7.195615768432617 70.06890106201172 C 7.467082500457764 70.63957977294922 7.777293682098389 70.87076568603516 8.36997127532959 71.17313385009766 C 8.45896053314209 71.21853637695313 8.549193382263184 71.26618957519531 8.641348838806152 71.31490325927734 C 9.214582443237305 71.61791229248047 9.756027221679688 71.90411376953125 10.5519380569458 71.90404510498047 C 11.82552528381348 71.90394592285156 13.55207061767578 71.14434814453125 15.68364715576172 69.64636993408203 C 15.89437294006348 69.49279022216797 16.89444923400879 68.84095001220703 20.75246047973633 67.06914520263672 C 21.05708312988281 66.92926025390625 21.39469337463379 66.76555633544922 21.75592613220215 66.58258819580078 L 22.38035011291504 66.26633453369141 L 22.89127159118652 66.74473571777344 C 23.02563858032227 66.87055969238281 23.0996265411377 66.93820190429688 23.10227203369141 66.94061279296875 L 23.41274833679199 67.22409057617188 L 23.42739295959473 67.64425659179688 L 23.55598258972168 71.33283233642578 C 23.91142272949219 73.08966827392578 24.68952560424805 74.56269073486328 25.80904960632324 75.59635925292969 C 26.93391609191895 76.63495635986328 28.3672046661377 77.18389892578125 29.95397186279297 77.18385314941406 M 29.95400428771973 78.18385314941406 C 26.16538238525391 78.18396759033203 23.34528160095215 75.48818206787109 22.55940437316895 71.44830322265625 L 22.42800521850586 67.67910003662109 C 22.42800521850586 67.67910003662109 22.35058212280273 67.60841369628906 22.20777130126953 67.47469329833984 C 21.82709312438965 67.66750335693359 21.47883796691895 67.83597564697266 21.1698055267334 67.97789764404297 C 16.99560546875 69.8948974609375 16.26750564575195 70.45829772949219 16.26750564575195 70.45829772949219 C 13.58515357971191 72.34486389160156 11.8232536315918 72.90394592285156 10.5520191192627 72.90404510498047 C 9.360452651977539 72.90414428710938 8.600021362304688 72.41313171386719 7.915504932403564 72.06390380859375 C 6.500704765319824 71.34210205078125 5.842804908752441 70.58699798583984 5.394604682922363 66.13649749755859 C 5.394604682922363 66.13649749755859 5.260504722595215 64.13580322265625 8.792104721069336 59.731201171875 C 9.70390510559082 58.59430313110352 11.06312656402588 57.46851348876953 12.60404872894287 56.35551071166992 C 11.31778240203857 54.35350036621094 10.34193801879883 52.34400177001953 10.05390453338623 50.5692024230957 C 9.531004905700684 47.34990310668945 5.088604927062988 37.10430145263672 3.383104801177979 28.29960060119629 C 1.597504734992981 19.08630180358887 -2.368795156478882 7.460101127624512 -2.368795156478882 7.460101127624512 C -3.264295339584351 2.85210132598877 -2.280595302581787 -1.015198707580566 2.328304767608643 -1.910698771476746 C 2.966742277145386 -2.034894704818726 3.641562461853027 -2.095532655715942 4.332249641418457 -2.095532655715942 C 8.626678466796875 -2.095532655715942 13.54680061340332 0.2469387650489807 14.31900501251221 4.216501235961914 C 14.31900501251221 4.216501235961914 17.74710464477539 17.03610038757324 19.0548038482666 27.75240135192871 C 19.99286079406738 35.444091796875 23.2191276550293 41.90391159057617 24.7908821105957 45.36178970336914 C 25.95032691955566 42.34080123901367 27.86262702941895 36.58330154418945 27.71370506286621 29.32200050354004 C 27.50850486755371 19.33200073242188 22.15440559387207 6.20280122756958 22.52070426940918 1.754101276397705 C 22.74713516235352 -0.9891369938850403 25.2582893371582 -2.029595851898193 28.17774391174316 -2.029595851898193 C 29.99275970458984 -2.029595851898193 31.96533012390137 -1.627651691436768 33.64560317993164 -0.9827987551689148 C 38.02770614624023 0.7002012729644775 41.04000473022461 8.395201683044434 41.04000473022461 8.395201683044434 C 41.04000473022461 8.395201683044434 43.32420349121094 25.35390090942383 43.32330322265625 34.75170135498047 C 43.32240295410156 43.70130157470703 39.99960327148438 49.70970153808594 38.9259033203125 52.78950119018555 C 38.02361679077148 55.37815856933594 35.69992828369141 58.00127792358398 32.96356964111328 60.34424591064453 C 34.59025955200195 62.68428039550781 35.83980560302734 64.36620330810547 35.83980560302734 64.36620330810547 C 35.83980560302734 64.36620330810547 36.91440582275391 65.74860382080078 38.47500610351563 68.97060394287109 C 40.03470611572266 72.19350433349609 36.21510314941406 77.12460327148438 31.60710525512695 78.02010345458984 C 31.03898239135742 78.13051605224609 30.4868049621582 78.183837890625 29.95400428771973 78.18385314941406 Z"/>
    </g>
  </g>
</svg>
