<svg xmlns="http://www.w3.org/2000/svg" width="72.515" height="159.679" viewBox="0 0 72.515 159.679">
  <defs>
    <style>
      .cls-1 {
        fill: #fff;
        stroke-linecap: round;
        stroke-linejoin: round;
      }

      .cls-2, .cls-3 {
        stroke: none;
      }

      .cls-3 {
        fill: #9a9a9a;
      }
    </style>
  </defs>
  <g id="ch14-2" class="cls-1" transform="translate(38.295 0.467)">
    <path class="cls-2" d="M -15.34031009674072 158.2112579345703 C -28.99320602416992 158.2105560302734 -34.1519775390625 154.9513397216797 -36.07547760009766 152.2173461914063 C -37.88085556030273 149.6512298583984 -37.1845703125 147.1083221435547 -37.07273864746094 146.7497863769531 C -36.67947006225586 145.9476928710938 -32.78161239624023 137.8961486816406 -28.93997573852539 126.2504501342773 C -25.21710205078125 114.9647598266602 -20.77928924560547 97.88038635253906 -20.77928924560547 80.58061218261719 C -20.77928924560547 63.28421783447266 -25.21576881408691 45.83434295654297 -28.93749809265137 34.24147033691406 C -32.64046096801758 22.70707702636719 -36.39484405517578 14.51095676422119 -37.01041793823242 13.19265747070313 C -37.01581573486328 12.89815711975098 -36.99892044067383 12.20552158355713 -36.78387069702148 11.3000316619873 C -36.40180969238281 9.691365242004395 -35.60724639892578 8.202864646911621 -34.42224884033203 6.875885963439941 C -32.89087295532227 5.1610107421875 -30.73553848266602 3.767240047454834 -28.01608085632324 2.733302354812622 C -24.58818435668945 1.430031657218933 -20.25316429138184 0.6970732808113098 -15.13141441345215 0.5547816157341003 C -14.60476875305176 0.5401566624641418 -14.07424736022949 0.5327399969100952 -13.55462265014648 0.5327399969100952 C -8.43358039855957 0.5327399969100952 -3.626455783843994 1.247448325157166 0.7332525253295898 2.656990051269531 C 4.207627296447754 3.780281543731689 7.407814979553223 5.345073223114014 10.24493980407715 7.307865142822266 C 14.75044631958008 10.42488861083984 16.86514663696289 13.5292501449585 17.12369728088379 13.92425632476807 C 17.47663116455078 14.67284679412842 21.34716033935547 22.97510719299316 25.16848182678223 34.88476181030273 C 27.50827407836914 42.17707443237305 29.37212753295898 49.37530136108398 30.70831489562988 56.27951049804688 C 32.37541961669922 64.89373779296875 33.22071075439453 73.06982421875 33.22071075439453 80.58061218261719 C 33.22071075439453 88.08978271484375 32.37575149536133 96.19309234619141 30.70929336547852 104.6654663085938 C 29.37373161315918 111.4555282592773 27.5107307434082 118.4954071044922 25.1720027923584 125.5895767211914 C 21.18548202514648 137.6821746826172 17.1452522277832 145.8423004150391 17.10489845275879 145.9233093261719 L 17.09300231933594 145.9472198486328 L 17.08627319335938 145.9628601074219 C 17.07441902160645 145.9887390136719 15.65035629272461 149.0257873535156 11.0186071395874 152.0348052978516 C 8.283148765563965 153.8118896484375 4.982044219970703 155.2316131591797 1.207044243812561 156.2545471191406 C -3.537143230438232 157.5401153564453 -9.04422664642334 158.1983795166016 -15.16126823425293 158.2110748291016 L -15.34031009674072 158.2112579345703 Z"/>
    <path class="cls-3" d="M -13.55696392059326 1.532745361328125 C -14.06581115722656 1.532745361328125 -14.586181640625 1.540023803710938 -15.1036376953125 1.554412841796875 C -20.08631134033203 1.692825317382813 -24.29337692260742 2.397216796875 -27.60794258117676 3.648040771484375 C -30.17496490478516 4.616790771484375 -32.2021369934082 5.91070556640625 -33.63315963745117 7.493850708007813 C -35.73958587646484 9.824234008789063 -35.99263381958008 12.15184020996094 -36.01148223876953 12.96734619140625 C -35.16256332397461 14.79359436035156 -31.59695434570313 22.68608093261719 -27.98537635803223 33.93580627441406 C -24.24179077148438 45.59669494628906 -19.77928924560547 63.15478515625 -19.77928924560547 80.58061218261719 C -19.77928924560547 98.01319885253906 -24.24448585510254 115.2084197998047 -27.99031257629395 126.563720703125 C -31.7948169708252 138.0968170166016 -35.55009841918945 145.9154510498047 -36.13639068603516 147.1120758056641 C -36.26197814941406 147.5684661865234 -36.70883178710938 149.6342010498047 -35.21183395385742 151.7066955566406 C -34.12557220458984 153.2105407714844 -32.24831390380859 154.4360198974609 -29.6322021484375 155.3491363525391 C -26.0920295715332 156.5847625732422 -21.28357315063477 157.2112579345703 -15.34035491943359 157.2112579345703 L -15.16333389282227 157.2110748291016 C -9.196398735046387 157.1986999511719 -3.825116157531738 156.5652008056641 0.8012971878051758 155.3281707763672 C 4.462862014770508 154.3491363525391 7.664514541625977 152.9928894042969 10.31727600097656 151.2970886230469 C 14.66121101379395 148.5202178955078 16.08989715576172 145.7230529785156 16.17653274536133 145.5470581054688 C 16.18939971923828 145.5169219970703 16.19252014160156 145.5121459960938 16.20970916748047 145.4776153564453 C 16.24983978271484 145.3969879150391 20.26931953430176 137.2749176025391 24.23357772827148 125.2422180175781 C 26.55655670166016 118.1913299560547 28.40660095214844 111.1961517333984 29.73231887817383 104.4510040283203 C 31.38349151611328 96.04994201660156 32.22071075439453 88.01876068115234 32.22071075439453 80.58061218261719 C 32.22071075439453 73.13922119140625 31.38283920288086 65.03372192382813 29.73033905029297 56.48928833007813 C 28.40340423583984 49.62813568115234 26.55164337158203 42.47284698486328 24.22651290893555 35.22219848632813 C 20.51180458068848 23.63824462890625 16.7487678527832 15.48062133789063 16.25101280212402 14.41839599609375 C 15.89505004882813 13.89254760742188 13.7812385559082 10.92967224121094 9.498928070068359 8.008895874023438 C 6.746992111206055 6.13189697265625 3.646231651306152 4.636062622070313 0.2827749252319336 3.562911987304688 C -3.938920497894287 2.215957641601563 -8.594529151916504 1.53289794921875 -13.55613803863525 1.532745361328125 C -13.55615997314453 1.532745361328125 -13.55696392059326 1.532745361328125 -13.55696392059326 1.532745361328125 M -13.55463886260986 -0.467254638671875 C 9.355199813842773 -0.4665069580078125 17.99999237060547 13.43821716308594 17.99999237060547 13.43821716308594 C 17.99999237060547 13.43821716308594 34.22071075439453 47.34786987304688 34.22071075439453 80.58061218261719 C 34.22071075439453 113.8133544921875 17.99999237060547 146.3691711425781 17.99999237060547 146.3691711425781 C 17.99999237060547 146.3691711425781 12.31488418579102 159.1540832519531 -15.15918159484863 159.2110748291016 C -15.22122573852539 159.2111968994141 -15.27863693237305 159.2112579345703 -15.34035491943359 159.2112579345703 C -42.60787200927734 159.2112579345703 -38.00000762939453 146.3691711425781 -38.00000762939453 146.3691711425781 C -38.00000762939453 146.3691711425781 -21.77928924560547 113.8133544921875 -21.77928924560547 80.58061218261719 C -21.77928924560547 47.34786987304688 -38.00000762939453 13.43821716308594 -38.00000762939453 13.43821716308594 C -38.00000762939453 13.43821716308594 -39.27252960205078 0.2250213623046875 -15.15918159484863 -0.44482421875 C -14.61610126495361 -0.4599151611328125 -14.0825023651123 -0.4672698974609375 -13.55463886260986 -0.467254638671875 Z"/>
  </g>
</svg>
