<svg xmlns="http://www.w3.org/2000/svg" width="69.443" height="159.461" viewBox="0 0 69.443 159.461">
  <defs>
    <style>
      .cls-1 {
        fill: #fff;
        stroke-linecap: round;
        stroke-linejoin: round;
      }

      .cls-2, .cls-3 {
        stroke: none;
      }

      .cls-3 {
        fill: #a1a1a1;
      }
    </style>
  </defs>
  <g id="ch15-1" class="cls-1" transform="translate(38.707 1.624)">
    <path class="cls-2" d="M -12.36955642700195 156.8371124267578 C -12.37069416046143 156.8371124267578 -12.37182426452637 156.8371124267578 -12.37296199798584 156.8371124267578 C -17.7678165435791 156.8369445800781 -22.38367080688477 156.1177673339844 -26.09233665466309 154.6995544433594 C -29.13612937927246 153.5355682373047 -31.59871292114258 151.8895568847656 -33.41164779663086 149.8072052001953 C -37.4611701965332 145.1558685302734 -37.10543823242188 139.6810455322266 -37.02197265625 138.8328704833984 C -36.58664321899414 137.7579498291016 -33.60650253295898 130.2696990966797 -30.66800308227539 119.6415328979492 C -27.74637794494629 109.0744247436523 -24.26366996765137 93.13657379150391 -24.26366996765137 77.21811676025391 C -24.26366996765137 61.29886627197266 -27.74664878845215 45.45149230957031 -30.66850280761719 34.96040725708008 C -33.76977157592773 23.82511520385742 -36.91761779785156 16.18758773803711 -37.07186126708984 15.81587886810303 C -37.10527038574219 15.72758769989014 -37.57812118530273 14.45001029968262 -37.68508529663086 12.67367839813232 C -37.82950210571289 10.27567863464355 -37.27318954467773 8.133761405944824 -36.0316276550293 6.307428359985352 C -34.67554473876953 4.312678337097168 -32.49606704711914 2.720678567886353 -29.55371284484863 1.575678586959839 C -25.88352394104004 0.1474285423755646 -21.00908660888672 -0.5922381281852722 -15.06577491760254 -0.6228006482124329 C -14.93971157073975 -0.6234464645385742 -14.81514930725098 -0.6237589716911316 -14.69004535675049 -0.6237589716911316 C -8.069315910339355 -0.6237589716911316 -2.274128675460815 0.2911785542964935 2.534517049789429 2.095616102218628 C 6.338058948516846 3.522907733917236 9.533662796020508 5.506511688232422 12.03262138366699 7.991365909576416 C 16.23745536804199 12.17251205444336 17.00785064697266 16.32028198242188 17.0151424407959 16.3617000579834 L 17.03447532653809 16.47144889831543 L 17.07749557495117 16.57430267333984 C 17.10918426513672 16.65005302429199 20.28232955932617 24.27869987487793 23.41343307495117 35.52795028686523 C 25.25051689147949 42.12809371948242 26.71397590637207 48.66509628295898 27.76314163208008 54.95732498168945 C 29.07245445251465 62.80976104736328 29.73633003234863 70.29938507080078 29.73633003234863 77.21811676025391 C 29.73633003234863 84.14280700683594 29.07132911682129 91.65676116943359 27.75978851318359 99.55130004882813 C 26.70912170410156 105.8757019042969 25.24372482299805 112.4557189941406 23.40432929992676 119.1085739135742 C 20.27285003662109 130.4346923828125 17.10764122009277 138.1241607666016 17.0760383605957 138.2004852294922 L 16.99714279174805 138.3910522460938 L 17.00010108947754 138.5972900390625 C 17.00016212463379 138.6056213378906 17.0047664642334 139.7284851074219 16.58293342590332 141.3844909667969 C 16.19645500183105 142.9017181396484 15.36105918884277 145.1943054199219 13.57612133026123 147.5000305175781 C 11.56549644470215 150.0972442626953 8.776309013366699 152.1914978027344 5.286016941070557 153.7245788574219 C 0.8617463111877441 155.6679077148438 -4.704503536224365 156.7117767333984 -11.25808715820313 156.8271942138672 C -11.63123416900635 156.8337860107422 -12.00517654418945 156.8371124267578 -12.36955642700195 156.8371124267578 Z"/>
    <path class="cls-3" d="M -14.69010543823242 0.376220703125 L -14.69009780883789 0.376220703125 C -14.81352424621582 0.376220703125 -14.93637371063232 0.376556396484375 -15.06064891815186 0.3771820068359375 C -20.87060546875 0.4070587158203125 -25.61830139160156 1.121307373046875 -29.17190933227539 2.500137329101563 C -31.92234420776367 3.567337036132813 -33.94771575927734 5.031097412109375 -35.19175720214844 6.850753784179688 C -36.30216979980469 8.474960327148438 -36.80658340454102 10.38960266113281 -36.69099426269531 12.54145812988281 C -36.60509490966797 14.14065551757813 -36.19213104248047 15.31051635742188 -36.14149475097656 15.44868469238281 C -35.8809814453125 16.07493591308594 -32.81416320800781 23.52911376953125 -29.70516967773438 34.69211578369141 C -26.76658248901367 45.24324798583984 -23.263671875 61.18592071533203 -23.263671875 77.21811676025391 C -23.263671875 93.24872589111328 -26.76604080200195 109.28125 -29.70414924621582 119.9080352783203 C -32.58647155761719 130.3329467773438 -35.43218994140625 137.5675964355469 -36.038330078125 139.0689544677734 C -36.07452774047852 139.5482635498047 -36.12255096435547 140.7698669433594 -35.85584259033203 142.3270721435547 C -35.40625762939453 144.9522399902344 -34.31558227539063 147.2647857666016 -32.61412811279297 149.2004852294922 C -30.90497398376465 151.1449890136719 -28.57486724853516 152.6869659423828 -25.68856048583984 153.7836456298828 C -22.10240936279297 155.1462097167969 -17.62240982055664 155.8370971679688 -12.37304019927979 155.8370971679688 C -12.01217079162598 155.8370971679688 -11.64297485351563 155.8338165283203 -11.27569198608398 155.8273315429688 C -4.898778915405273 155.7150268554688 0.5088510513305664 154.7122955322266 4.797025680541992 152.8469390869141 C 8.129959106445313 151.3971405029297 10.79265594482422 149.4242248535156 12.71113395690918 146.9830474853516 C 14.07424163818359 145.24853515625 15.04156875610352 143.3178558349609 15.5861988067627 141.2446594238281 C 15.98233604431152 139.7367706298828 15.99935722351074 138.6927490234375 16.00006103515625 138.6058654785156 C 15.9936695098877 138.3284454345703 16.0457706451416 138.0750427246094 16.1519603729248 137.8182983398438 C 16.18350410461426 137.7420349121094 19.34187316894531 130.0625 22.45717620849609 118.7816619873047 C 24.28311157226563 112.1697692871094 25.73737335205078 105.6319427490234 26.77956771850586 99.34980773925781 C 28.07798004150391 91.52320098876953 28.736328125 84.07701110839844 28.736328125 77.21811676025391 C 28.736328125 70.36000823974609 28.0781135559082 62.93220520019531 26.77998352050781 55.14107513427734 C 25.7380485534668 48.88764190673828 24.28413391113281 42.38944244384766 22.45865631103516 35.82698822021484 C 19.34411239624023 24.63041687011719 16.18648147583008 17.03556823730469 16.15506935119629 16.96046447753906 C 16.09785079956055 16.82374572753906 16.05600357055664 16.68109130859375 16.03030776977539 16.53511047363281 C 16.02356910705566 16.49684143066406 15.24661254882813 12.59759521484375 11.3275032043457 8.700637817382813 C 8.929719924926758 6.31640625 5.853134155273438 4.409210205078125 2.183177947998047 3.032028198242188 C -2.512779235839844 1.269851684570313 -8.189757347106934 0.376312255859375 -14.69010543823242 0.376220703125 M -14.69009113311768 -1.623779296875 C 14.86391448974609 -1.62335205078125 18.00000381469727 16.18830871582031 18.00000381469727 16.18830871582031 C 18.00000381469727 16.18830871582031 30.736328125 46.61944580078125 30.736328125 77.21811676025391 C 30.736328125 107.8167877197266 18.00000381469727 138.5829925537109 18.00000381469727 138.5829925537109 C 18.00000381469727 138.5829925537109 18.2675666809082 157.3073577880859 -11.24047470092773 157.8270263671875 C -11.62409400939941 157.8337860107422 -12.00024795532227 157.8370971679688 -12.3730411529541 157.8370971679688 C -40.67552947998047 157.8370971679688 -37.99999618530273 138.5829925537109 -37.99999618530273 138.5829925537109 C -37.99999618530273 138.5829925537109 -25.263671875 107.8167877197266 -25.263671875 77.21811676025391 C -25.263671875 46.61944580078125 -37.99999618530273 16.18830871582031 -37.99999618530273 16.18830871582031 C -37.99999618530273 16.18830871582031 -44.97984313964844 -1.46905517578125 -15.07093143463135 -1.622802734375 C -14.94314670562744 -1.623458862304688 -14.81690120697021 -1.623779296875 -14.69009113311768 -1.623779296875 Z"/>
  </g>
</svg>
