<svg xmlns="http://www.w3.org/2000/svg" width="95.516" height="89.649" viewBox="0 0 95.516 89.649">
  <defs>
    <style>
      .cls-1 {
        fill: #fff;
      }

      .cls-2, .cls-3 {
        stroke: none;
      }

      .cls-3 {
        fill: #707070;
      }
    </style>
  </defs>
  <g id="ch15" transform="translate(-375.242 -372.803)">
    <g id="ch15-1" class="cls-1" transform="matrix(-0.999, -0.035, 0.035, -0.999, 418.917, 452.452)">
      <path class="cls-2" d="M 28.48880195617676 75.59405517578125 C 26.77408981323242 75.59410858154297 25.22355651855469 74.99929809570313 24.00483512878418 73.87393188476563 C 22.79884147644043 72.76031494140625 21.96547317504883 71.17972564697266 21.5933952331543 69.30120849609375 L 21.48280143737793 66.14878845214844 L 21.42560195922852 64.51833343505859 L 20.55940246582031 65.90085601806641 C 18.61478996276855 69.00460052490234 17.21394538879395 71.26946258544922 16.39579010009766 72.63255310058594 C 15.98734855651855 73.31301879882813 15.7783842086792 73.67304992675781 15.67156982421875 73.88240814208984 C 15.26607894897461 74.11589813232422 14.94440841674805 74.34779357910156 14.65700149536133 74.55500030517578 C 13.96780204772949 75.05184173583984 13.51249027252197 75.38007354736328 12.40966796875 75.38013458251953 C 11.83437919616699 75.38016510009766 11.11496829986572 75.28900146484375 10.21031284332275 75.10141754150391 C 8.082112312316895 74.66024017333984 6.89272403717041 74.15859985351563 6.104990482330322 73.36993408203125 C 5.258056163787842 72.52200317382813 4.785167694091797 71.20746612548828 4.572507381439209 69.10940551757813 C 4.559167861938477 68.73630523681641 4.538747787475586 68.41616821289063 4.520712852478027 68.13323211669922 C 4.449857234954834 67.02207946777344 4.417523860931396 66.51494598388672 4.954268455505371 65.30424499511719 C 5.532723903656006 63.99948883056641 6.734312534332275 61.97836685180664 9.150412559509277 57.99143218994141 C 9.83134651184082 56.8677978515625 10.60149097442627 55.82582092285156 11.43945693969727 54.89444351196289 L 11.66262340545654 54.64640808105469 L 11.51922416687012 54.34513092041016 C 11.04281234741211 53.34420776367188 10.72766780853271 52.38326644897461 10.58254623413086 51.48899841308594 C 10.3626127243042 50.13460922241211 9.602190971374512 48.9655647277832 8.639468193054199 47.48550796508789 C 6.981479167938232 44.93657684326172 4.710779190063477 41.44569778442383 3.056035041809082 34.20559692382813 C 0.5384016036987305 23.18808746337891 -3.133142709732056 -0.1561793088912964 -3.169942855834961 -0.3907015323638916 L -3.171354055404663 -0.3997126519680023 L -3.17309832572937 -0.4086793065071106 C -3.634620666503906 -2.781146049499512 -3.549620628356934 -4.727479457855225 -2.920464992523193 -6.193612575531006 C -2.233031749725342 -7.795557022094727 -0.8710428476333618 -8.804757118225098 1.127690553665161 -9.193179130554199 C 1.726490497589111 -9.30955696105957 2.368279457092285 -9.368556976318359 3.035212755203247 -9.368556976318359 C 5.137612819671631 -9.368556976318359 7.347912788391113 -8.785512924194336 9.099368095397949 -7.768934726715088 C 10.42600345611572 -6.998927116394043 12.09276294708252 -5.634819030761719 12.52441692352295 -3.500552892684937 C 12.55997943878174 -2.278470277786255 13.34538650512695 23.96583366394043 15.20482349395752 32.84181976318359 C 16.79151344299316 40.41584396362305 20.80985641479492 44.12203216552734 23.21073532104492 46.33639907836914 L 23.61750221252441 46.71156692504883 L 23.95012474060059 46.2694206237793 C 24.18221282958984 45.96016693115234 24.36760139465332 45.62739944458008 24.50114631652832 45.28037643432617 C 24.65924644470215 44.86979675292969 24.93941307067871 44.45577621459961 25.29411315917969 43.93161010742188 C 26.54620170593262 42.0813102722168 28.64180183410645 38.98446655273438 28.93971252441406 30.2110652923584 C 29.1508903503418 23.98369789123535 27.13513565063477 15.32971000671387 25.51544570922852 8.376120567321777 C 24.88555717468262 5.671931743621826 24.34157943725586 3.336509466171265 24.01117897033691 1.503765106201172 C 23.57147979736328 -0.9353237748146057 23.68288993835449 -1.629679322242737 23.7884349822998 -1.826501488685608 C 23.94052314758301 -2.110090494155884 24.64753532409668 -2.769679307937622 27.91993522644043 -2.769679307937622 C 31.11948776245117 -2.769679307937622 34.73838043212891 -2.14125657081604 35.10815811157227 -2.018862247467041 C 35.18707275390625 -1.984691858291626 35.27055358886719 -1.960384726524353 35.36650085449219 -1.932446002960205 C 35.70708084106445 -1.833290457725525 36.22175598144531 -1.683457136154175 36.79654693603516 -0.9811904430389404 C 37.56220245361328 -0.04573486745357513 38.15466690063477 1.536098480224609 38.55749130249023 3.720376253128052 C 38.74413681030273 4.732431888580322 39.00568008422852 6.023965358734131 39.30852508544922 7.519431591033936 C 40.77482223510742 14.76004314422607 43.22895812988281 26.87863159179688 42.80954742431641 35.12229919433594 C 42.64212417602539 38.41788864135742 42.00453567504883 40.97187805175781 40.86036682128906 42.93022155761719 C 39.88444519042969 44.6005973815918 38.6939811706543 45.57517623901367 37.64364624023438 46.43503189086914 C 36.58046722412109 47.30539703369141 35.66228103637695 48.05706405639648 35.23895645141602 49.27152252197266 C 34.24197006225586 52.13191986083984 32.30196762084961 53.92897796630859 30.23265647888184 55.66712188720703 L 29.86654663085938 55.97463226318359 L 30.15739059448242 56.35412216186523 C 30.92909049987793 57.36105346679688 31.58564567565918 58.38022994995117 32.16454696655273 59.46988677978516 C 33.07651138305664 61.18561935424805 33.42375564575195 61.92878723144531 33.61030197143555 62.32804107666016 C 33.85313415527344 62.84774398803711 33.87405776977539 62.88047790527344 34.35649108886719 63.49542236328125 C 34.70468902587891 63.93924331665039 35.28271865844727 64.67603302001953 36.39381408691406 66.17017364501953 C 36.76537322998047 68.23202514648438 36.32627868652344 70.3194580078125 35.15224456787109 72.06004333496094 C 33.95725631713867 73.83169555664063 32.14401245117188 75.03187561035156 30.04651260375977 75.43948364257813 C 29.51880073547363 75.54204559326172 28.99470138549805 75.59403991699219 28.48880195617676 75.59405517578125 Z M 16.31136512756348 74.65845489501953 L 15.73039245605469 73.95100402832031 L 15.81564712524414 73.80633544921875 C 15.88878726959229 73.76433563232422 15.97446537017822 73.74101257324219 16.06239128112793 73.74101257324219 L 16.56024551391602 74.23529052734375 L 16.31136512756348 74.65845489501953 Z"/>
      <path class="cls-3" d="M 28.48879051208496 75.09406280517578 L 28.48876571655273 75.09406280517578 C 28.96277809143066 75.09403991699219 29.45479011535645 75.04512023925781 29.95113182067871 74.94866943359375 C 31.91750717163086 74.5665283203125 33.61742401123047 73.44136810302734 34.73772048950195 71.78044891357422 C 35.81671524047852 70.18077087402344 36.23357391357422 68.26859283447266 35.92140579223633 66.37287139892578 C 34.86050796508789 64.94791412353516 34.30228805541992 64.23637390136719 33.96309661865234 63.80402374267578 C 33.4688835144043 63.174072265625 33.4250373840332 63.1126708984375 33.15730667114258 62.53969573974609 C 32.97266006469727 62.14450836181641 32.62896728515625 61.40892028808594 31.72300148010254 59.70448303222656 C 31.15717887878418 58.63946151733398 30.51524925231934 57.64303588867188 29.76054191589355 56.65827178955078 L 29.17885971069336 55.89929580688477 L 29.91107177734375 55.28425979614258 C 31.92489624023438 53.59272003173828 33.81162643432617 51.8474235534668 34.76682662963867 49.10695266723633 C 35.23653030395508 47.75943756103516 36.25191879272461 46.92818832397461 37.32691955566406 46.04814147949219 C 39.38482666015625 44.36343765258789 41.94594192504883 42.26677703857422 42.31019973754883 35.09689331054688 C 42.72640228271484 26.91614151000977 40.28009414672852 14.83621311187744 38.81848526000977 7.618695259094238 C 38.51516723632813 6.120930671691895 38.25321197509766 4.827413082122803 38.06578826904297 3.811071634292603 C 37.68389511108398 1.740306973457336 37.11121368408203 0.1926834285259247 36.40962600708008 -0.6644930243492126 C 35.93307113647461 -1.246728301048279 35.52482604980469 -1.365587115287781 35.22674179077148 -1.452375411987305 C 35.1339111328125 -1.479407072067261 35.03837966918945 -1.507222414016724 34.94161987304688 -1.546546697616577 C 34.45767974853516 -1.680698394775391 30.96018981933594 -2.269681215286255 27.91994285583496 -2.269681215286255 C 24.86547660827637 -2.269681215286255 24.29209899902344 -1.670331478118896 24.23431968688965 -1.597386479377747 C 24.18598556518555 -1.446139216423035 24.09278678894043 -0.809675931930542 24.53397750854492 1.583589315414429 C 24.86532020568848 3.38098931312561 25.39225959777832 5.643248081207275 26.00241279602051 8.26271915435791 C 27.6287784576416 15.2449779510498 29.6528377532959 23.93462371826172 29.43942451477051 30.22804832458496 C 29.13662528991699 39.14541244506836 26.9904842376709 42.31691741943359 25.70820236206055 44.21183776855469 C 25.37137794494629 44.70959091186523 25.10533142089844 45.10275268554688 24.9677906036377 45.45991897583008 C 24.81770706176758 45.8499641418457 24.60987281799316 46.22328186035156 24.35005950927734 46.56951904296875 L 23.68526077270508 47.45426177978516 L 22.87171936035156 46.70390701293945 C 20.42686080932617 44.44897842407227 16.33493041992188 40.67490768432617 14.7154483795166 32.94433212280273 C 12.84673881530762 24.02415657043457 12.0828104019165 -1.458352446556091 12.02585411071777 -3.442446231842041 C 11.61746597290039 -5.371285915374756 10.07725048065186 -6.623229026794434 8.848366737365723 -7.336493015289307 C 7.170884132385254 -8.310139656066895 5.052072048187256 -8.868552207946777 3.035213470458984 -8.868552207946777 C 2.400225162506104 -8.868552207946777 1.790519237518311 -8.812634468078613 1.223060488700867 -8.702363967895508 C -0.6290218830108643 -8.342433929443359 -1.834092497825623 -7.457328319549561 -2.460986614227295 -5.996446132659912 C -3.049845457077026 -4.624210834503174 -3.124304294586182 -2.776328325271606 -2.682304382324219 -0.5041518807411194 L -2.678821802139282 -0.4862224459648132 L -2.675986528396606 -0.468187153339386 C -2.639221906661987 -0.233845978975296 1.029789805412292 23.0939884185791 3.543460369110107 34.09418869018555 C 5.178401470184326 41.24761199951172 7.421072006225586 44.69541168212891 9.058601379394531 47.21289443969727 C 10.05344867706299 48.74232864379883 10.83923721313477 49.95037841796875 11.07608413696289 51.40889358520508 C 11.21363735198975 52.25647354125977 11.5146369934082 53.17205810546875 11.97070789337158 54.1302375793457 L 12.25749588012695 54.7327766418457 L 11.81116676330566 55.22885894775391 C 10.99406051635742 56.13704681396484 10.24271965026855 57.15370559692383 9.578024864196777 58.25057601928711 C 7.083130836486816 62.36751937866211 5.952801704406738 64.28562164306641 5.41136646270752 65.50689697265625 C 4.924307346343994 66.60549163818359 4.950284004211426 67.01280975341797 5.01969575881958 68.10140991210938 C 5.037680149078369 68.38348388671875 5.057994365692139 68.70211029052734 5.071597099304199 69.07501983642578 C 5.272491931915283 71.04135894775391 5.700765609741211 72.25771331787109 6.458742618560791 73.01658630371094 C 7.171366214752197 73.73005676269531 8.28767204284668 74.19222259521484 10.31182479858398 74.61182403564453 C 11.18267250061035 74.79238891601563 11.86888408660889 74.88015747070313 12.40966033935547 74.880126953125 C 13.35104846954346 74.88008117675781 13.68976593017578 74.63589477539063 14.36460208892822 74.14939880371094 C 14.63219738006592 73.95648193359375 14.92844772338867 73.74291229248047 15.29560089111328 73.52330017089844 C 15.42955684661865 73.27642059326172 15.63920783996582 72.92147827148438 15.96708393096924 72.37523651123047 C 16.78688430786133 71.00942230224609 18.18940162658691 68.74181365966797 20.13569641113281 65.63539123535156 L 21.86809539794922 62.87034225463867 L 21.98249626159668 66.13125610351563 L 22.09166526794434 69.24308013916016 C 22.44670867919922 70.99995422363281 23.22456359863281 72.47286987304688 24.34404945373535 73.506591796875 C 25.46877861022949 74.545166015625 26.90200233459473 75.09410858154297 28.48879051208496 75.09406280517578 M 28.48881340026855 76.09406280517578 C 24.7002010345459 76.09416198730469 21.88018989562988 73.39837646484375 21.09509658813477 69.35850524902344 L 20.98310661315918 66.16632080078125 C 16.4575080871582 73.38951873779297 16.06000137329102 74.18219757080078 16.06024932861328 74.23751068115234 C 14.58878803253174 75.04393005371094 14.23049259185791 75.88004302978516 12.40970420837402 75.88013458251953 C 11.82314968109131 75.88015747070313 11.08508777618408 75.79342651367188 10.10880184173584 75.59100341796875 C 6.08849573135376 74.75759887695313 4.520695686340332 73.59300231933594 4.07340145111084 69.14340209960938 C 3.956401586532593 65.80709838867188 3.256201505661011 66.75299835205078 8.722801208496094 57.73230743408203 C 9.460507392883301 56.51496505737305 10.25016593933105 55.46875381469727 11.0677661895752 54.56001281738281 C 10.59564876556396 53.56811904907227 10.25028419494629 52.56287002563477 10.08900165557861 51.56909561157227 C 9.537295341491699 48.17160034179688 5.218201637268066 45.90990829467773 2.568601608276367 34.31700134277344 C 0.0180016178637743 23.15520095825195 -3.663904190063477 -0.3131989240646362 -3.663904190063477 -0.3131989240646362 C -4.560292720794678 -4.921198844909668 -3.575704336166382 -8.788504600524902 1.032295703887939 -9.683999061584473 C 1.670451998710632 -9.808016777038574 2.344822883605957 -9.868556976318359 3.035218477249146 -9.868556976318359 C 7.330033779144287 -9.868556976318359 12.25151348114014 -7.526642799377441 13.0230016708374 -3.556798934936523 C 13.0230016708374 -3.556798934936523 13.78709602355957 23.63580131530762 15.69420146942139 32.73929595947266 C 17.24818992614746 40.15726089477539 21.10541343688965 43.71442413330078 23.55021286010742 45.96930694580078 C 23.75044822692871 45.70247268676758 23.91354370117188 45.41514205932617 24.03449630737305 45.10079956054688 C 24.82920074462891 43.03710556030273 28.06200218200684 41.32620239257813 28.44000244140625 30.19410705566406 C 28.81169509887695 19.23300170898438 22.11029624938965 0.2448010742664337 23.34780120849609 -2.062798976898193 C 23.84056282043457 -2.981669902801514 25.75893402099609 -3.269681930541992 27.91994285583496 -3.269681930541992 C 31.18596839904785 -3.269681930541992 35.00659942626953 -2.612017631530762 35.30070877075195 -2.480398893356323 C 35.78850936889648 -2.261693000793457 37.95840072631836 -2.285093069076538 39.04920196533203 3.629706859588623 C 40.1400032043457 9.544507026672363 43.81830596923828 25.13520050048828 43.30890655517578 35.147705078125 C 42.73920059204102 46.3617057800293 36.88469696044922 46.0692024230957 35.71110916137695 49.43609619140625 C 34.7036018371582 52.32663726806641 32.8241081237793 54.14337921142578 30.55424880981445 56.04997634887695 C 31.23778915405273 56.94187164306641 31.93483734130859 57.9718017578125 32.60610580444336 59.23530578613281 C 35.43569564819336 64.55879974365234 32.86350631713867 60.57900238037109 36.8640022277832 65.964599609375 C 37.75950622558594 70.57260131835938 34.74989700317383 75.03479766845703 30.14189529418945 75.93030548095703 C 29.57377815246582 76.04071044921875 29.0216007232666 76.09403991699219 28.48881340026855 76.09406280517578 Z M 16.06239128112793 74.24101257324219 C 16.06109809875488 74.24101257324219 16.06026077270508 74.23999786376953 16.06024932861328 74.23751068115234 C 16.06631851196289 74.23416900634766 16.07238960266113 74.23082733154297 16.07849502563477 74.22750854492188 C 16.07849502563477 74.22750854492188 16.06723785400391 74.24101257324219 16.06241416931152 74.24101257324219 C 16.06240653991699 74.24101257324219 16.06239891052246 74.24101257324219 16.06239128112793 74.24101257324219 Z"/>
    </g>
    <g id="ch15-2" class="cls-1" transform="matrix(-0.999, -0.035, 0.035, -0.999, 462.917, 452.452)">
      <path class="cls-2" d="M 29.95400047302246 77.68385314941406 C 28.23929977416992 77.68391418457031 26.68871116638184 77.08908843994141 25.46986770629883 75.96371459960938 C 24.26375198364258 74.85010528564453 23.43017387390137 73.2696533203125 23.05771255493164 71.39105987548828 L 22.92770004272461 67.66167449951172 L 22.92037773132324 67.45162200927734 L 22.76515579223633 67.30987548828125 C 22.76374435424805 67.30858612060547 22.68805503845215 67.23943328857422 22.54951095581055 67.10971069335938 L 22.2940559387207 66.87051391601563 L 21.98184394836426 67.02864837646484 C 21.61491203308105 67.21449279785156 21.2714900970459 67.38099670410156 20.96112251281738 67.52354431152344 C 17.00993156433105 69.33811950683594 16.10736846923828 69.95467376708984 15.97389698028564 70.05352020263672 C 13.72394752502441 71.63515472412109 11.95050430297852 72.40394592285156 10.55198955535889 72.404052734375 C 9.63205623626709 72.40412139892578 9.009622573852539 72.07511901855469 8.407700538635254 71.7569580078125 C 8.317722320556641 71.70940399169922 8.229622840881348 71.662841796875 8.142733573913574 71.61851501464844 C 6.971280574798584 71.0208740234375 6.338581085205078 70.50379180908203 5.893988132476807 66.10523223876953 C 5.895523548126221 65.97262573242188 5.97801399230957 64.04020690917969 9.182188987731934 60.04397964477539 C 9.96262264251709 59.07087707519531 11.14297771453857 58.02762222290039 12.89682292938232 56.76083374023438 L 13.28065586090088 56.48360061645508 L 13.02471160888672 56.08524322509766 C 11.63167762756348 53.91706848144531 10.79821109771729 52.03425598144531 10.54744434356689 50.48910140991211 C 10.30255603790283 48.9814338684082 9.617199897766113 45.91926574707031 8.74951171875 42.04243469238281 C 7.783933639526367 37.72819900512695 6.582233428955078 32.35900115966797 5.668567180633545 27.64466667175293 C 4.921122550964355 23.78801155090332 3.003811359405518 18.29195594787598 -0.03011081181466579 11.30916690826416 C -2.133402109146118 6.46829080581665 -4.07055139541626 2.561094760894775 -4.337899208068848 2.025002956390381 C -4.784504890441895 -0.3175050914287567 -4.695176601409912 -2.241289615631104 -4.072122097015381 -3.693444013595581 C -3.384788513183594 -5.295388221740723 -2.022910833358765 -6.304577350616455 -0.02431081235408783 -6.692977428436279 C 0.5744891762733459 -6.80935525894165 1.216278076171875 -6.868355274200439 1.883211374282837 -6.868355274200439 C 3.985611438751221 -6.868355274200439 6.195911407470703 -6.285310745239258 7.947367191314697 -5.268733024597168 C 9.28206729888916 -4.494043827056885 10.96106719970703 -3.117877244949341 11.38017845153809 -0.9612106084823608 L 11.39073371887207 -0.9068995118141174 L 11.41292285919189 -0.8561995029449463 C 11.43205547332764 -0.8124550580978394 13.3500337600708 3.582833766937256 15.4021110534668 9.226311683654785 C 18.11104393005371 16.67621231079102 19.82306671142578 22.90979957580566 20.35307884216309 27.2531681060791 C 21.24862289428711 34.59625625610352 23.19774436950684 41.02210235595703 24.36231231689453 44.86141204833984 L 24.44895553588867 45.14716720581055 L 24.87678909301758 46.55881118774414 L 25.39553451538086 45.177978515625 C 27.37339973449707 39.91306686401367 28.321533203125 34.57489013671875 28.21360015869141 29.31174468994141 C 28.09563446044922 23.56911087036133 25.65521049499512 16.61241149902344 23.69429969787598 11.02261161804199 C 22.21465492248535 6.804733753204346 20.93678855895996 3.162045001983643 21.08671188354492 1.341533780097961 C 21.32489967346191 -1.551266193389893 24.42076683044434 -1.98319947719574 26.2449893951416 -1.98319947719574 C 27.92763328552246 -1.98319947719574 29.85512161254883 -1.613755106925964 31.53322219848633 -0.9696106314659119 C 35.52785110473633 0.5634503960609436 38.41835403442383 7.570528984069824 38.62906646728516 8.093482971191406 C 38.83827972412109 8.965784072875977 42.82416915893555 25.71828842163086 42.82329940795898 34.75165557861328 C 42.82257843017578 41.92881011962891 40.68192291259766 47.12538909912109 39.26541137695313 50.56406784057617 C 38.94006729125977 51.35385513305664 38.65909957885742 52.03594589233398 38.45376586914063 52.62490081787109 C 37.67568969726563 54.85724639892578 35.71911239624023 57.32661056518555 32.63837814331055 59.96444320678711 L 32.29500198364258 60.25845718383789 L 32.55303192138672 60.62964630126953 C 34.16555404663086 62.94929885864258 35.42589950561523 64.64749908447266 35.43844604492188 64.66437530517578 L 35.52404403686523 64.77960205078125 L 35.65773391723633 64.83186340332031 C 35.67100143432617 64.83735656738281 37.36831283569336 65.56028747558594 38.80703353881836 68.53321075439453 C 39.2496337890625 69.44752502441406 39.11944580078125 70.69821166992188 38.44047927856445 72.05492401123047 C 37.82224655151367 73.29025268554688 36.80128860473633 74.5205078125 35.56566619873047 75.51906585693359 C 34.28142166137695 76.55691528320313 32.84170150756836 77.27082061767578 31.51171112060547 77.52928161621094 C 30.98406791687012 77.6318359375 30.4599666595459 77.68383026123047 29.95398902893066 77.68385314941406 L 29.95400047302246 77.68385314941406 Z"/>
      <path class="cls-3" d="M 29.95398902893066 77.18385314941406 C 30.42796516418457 77.183837890625 30.91997718811035 77.13493347167969 31.41634178161621 77.03847503662109 C 32.66756439208984 76.79531097412109 34.0295524597168 76.11760711669922 35.25138854980469 75.13018035888672 C 36.43263626098633 74.17558288574219 37.40641021728516 73.00395965576172 37.99334335327148 71.83114624023438 C 38.60128402709961 70.61637115478516 38.73043441772461 69.52253723144531 38.35696411132813 68.75101470947266 C 37.06757736206055 66.08668518066406 35.58686828613281 65.35039520263672 35.46807098388672 65.29488372802734 L 35.21899032592773 65.20741271972656 L 35.03708267211914 64.96257019042969 C 35.02449417114258 64.94561767578125 33.75944900512695 63.2411003112793 32.14248275756836 60.9150276184082 L 31.62642288208008 60.17266464233398 L 32.31317520141602 59.58464050292969 C 35.32588195800781 57.00505065917969 37.23302459716797 54.60809707641602 37.98163604736328 52.46029663085938 C 38.19150543212891 51.8582878112793 38.47492980957031 51.1702880859375 38.80309295654297 50.37363815307617 C 40.2046012878418 46.97138214111328 42.32258987426758 41.82985305786133 42.32329559326172 34.75160598754883 C 42.32415008544922 25.87749862670898 38.43976593017578 9.452151298522949 38.15143203735352 8.245912551879883 C 38.01572036743164 7.91168212890625 37.31462860107422 6.233822822570801 36.19931793212891 4.403816223144531 C 34.61348342895508 1.801757335662842 32.93803405761719 0.1050867736339569 31.35403633117676 -0.5028191208839417 C 29.73093032836914 -1.12585437297821 27.86875343322754 -1.483195543289185 26.2449893951416 -1.483195543289185 C 24.86871719360352 -1.483195543289185 23.71728324890137 -1.232783794403076 22.91516494750977 -0.7590308785438538 C 22.09909439086914 -0.277030885219574 21.66399955749512 0.4234867691993713 21.58502388000488 1.382569074630737 C 21.4438362121582 3.096980810165405 22.76615333557129 6.866369247436523 24.16610527038574 10.85708713531494 C 26.1388111114502 16.4804859161377 28.59389495849609 23.47898101806641 28.7134952545166 29.30149841308594 C 28.82274055480957 34.62839126586914 27.86389350891113 40.02917098999023 25.86358833312988 45.35381698608398 L 24.82612991333008 48.11547470092773 L 23.970458984375 45.29219436645508 L 23.8838939666748 45.00672149658203 C 22.71461296081543 41.15186309814453 20.75757598876953 34.69999313354492 19.85676574707031 27.31373405456543 C 18.58202362060547 16.86747550964355 11.0309534072876 -0.4817720651626587 10.95483589172363 -0.6557955741882324 L 10.91047096252441 -0.7572073340415955 L 10.88936519622803 -0.8658308982849121 C 10.50607109069824 -2.83817195892334 8.941435813903809 -4.113630771636963 7.696376800537109 -4.836289882659912 C 6.018894195556641 -5.8099365234375 3.900082588195801 -6.368348598480225 1.88322377204895 -6.368348598480225 C 1.248235583305359 -6.368348598480225 0.6385297179222107 -6.312430858612061 0.07107088714838028 -6.202160358428955 C -1.780882000923157 -5.842266082763672 -2.985823154449463 -4.957160472869873 -3.61262321472168 -3.496289730072021 C -4.18986701965332 -2.150933504104614 -4.27276611328125 -0.3478905260562897 -3.859449625015259 1.864139676094055 C -3.495825052261353 2.595325469970703 -1.611101984977722 6.415708065032959 0.4284708797931671 11.10992240905762 C 3.476894378662109 18.12607574462891 5.405070781707764 23.65716934204102 6.159435749053955 27.54953384399414 C 7.071741580963135 32.25682830810547 8.272564888000488 37.62215805053711 9.237459182739258 41.93327331542969 C 10.10694122314453 45.81815719604492 10.7937183380127 48.88667678833008 11.04098892211914 50.40901565551758 C 11.28069400787354 51.88603973388672 12.08963584899902 53.70486450195313 13.4453649520874 55.81496810913086 L 13.95724773406982 56.61167526245117 L 13.18957710266113 57.16615676879883 C 11.47321224212646 58.40588760375977 10.32376480102539 59.41974639892578 9.572294235229492 60.35675811767578 C 6.609959125518799 64.05136108398438 6.408064842224121 65.88710784912109 6.394829273223877 66.08831787109375 C 6.600375652313232 68.108642578125 6.847718238830566 69.33755493164063 7.195611953735352 70.06890106201172 C 7.467082500457764 70.63957977294922 7.777294635772705 70.87076568603516 8.369953155517578 71.17313385009766 C 8.458965301513672 71.21854400634766 8.549212455749512 71.26620483398438 8.641376495361328 71.31491851806641 C 9.214612007141113 71.617919921875 9.756058692932129 71.90411376953125 10.55194187164307 71.904052734375 C 11.8254566192627 71.90394592285156 13.55186653137207 71.14443969726563 15.68325996398926 69.64665222167969 C 15.89311027526855 69.49361419677734 16.8919620513916 68.84209442138672 20.7524471282959 67.06916809082031 C 21.05734062194824 66.92914581298828 21.39494132995605 66.76544189453125 21.75589370727539 66.58260345458984 L 22.38030624389648 66.26631164550781 L 22.8912467956543 66.74472045898438 C 23.02565956115723 66.87056732177734 23.09964752197266 66.93821716308594 23.1022834777832 66.94062805175781 L 23.41274070739746 67.22409820556641 L 23.42738914489746 67.64426422119141 L 23.55597686767578 71.33283996582031 C 23.91140937805176 73.08966827392578 24.68952751159668 74.56269073486328 25.80904769897461 75.59635925292969 C 26.93391799926758 76.63495635986328 28.36721229553223 77.18389892578125 29.95397758483887 77.18385314941406 L 29.95398902893066 77.18385314941406 M 29.95401191711426 78.18385314941406 C 26.1653881072998 78.18396759033203 23.34528350830078 75.48818206787109 22.55940055847168 71.44831085205078 L 22.42799949645996 67.67910003662109 C 22.42799949645996 67.67910003662109 22.35057640075684 67.60840606689453 22.20776557922363 67.47468566894531 C 21.82709503173828 67.66751098632813 21.47883605957031 67.83598327636719 21.1697998046875 67.97791290283203 C 16.9955997467041 69.89491271972656 16.26749420166016 70.45831298828125 16.26749420166016 70.45831298828125 C 13.58514881134033 72.34487152099609 11.8232536315918 72.90394592285156 10.55202102661133 72.904052734375 C 9.360455513000488 72.90414428710938 8.600022315979004 72.41313934326172 7.915506362915039 72.06391143798828 C 6.500706195831299 71.34210205078125 5.842800140380859 70.58700561523438 5.394600391387939 66.13651275634766 C 5.394600391387939 66.13651275634766 5.260506153106689 64.13580322265625 8.792106628417969 59.73120498657227 C 9.703906059265137 58.59429931640625 11.06312942504883 57.46850967407227 12.60404777526855 56.35551071166992 C 11.31777667999268 54.35351181030273 10.34192943572998 52.3440055847168 10.05390644073486 50.56920623779297 C 9.531000137329102 47.34989929199219 6.884106159210205 36.54449844360352 5.177706241607666 27.73980522155762 C 3.392106294631958 18.52649879455566 -4.815905570983887 2.187004327774048 -4.815905570983887 2.187004327774048 C -5.711399555206299 -2.420995473861694 -4.727694034576416 -6.288301467895508 -0.1196938157081604 -7.18379545211792 C 0.5184624195098877 -7.307813167572021 1.192833304405212 -7.368353843688965 1.88322901725769 -7.368353843688965 C 6.178043842315674 -7.368353843688965 11.09952163696289 -5.026439189910889 11.87100028991699 -1.05659556388855 C 11.87100028991699 -1.05659556388855 19.54170608520508 16.47629928588867 20.84939956665039 27.19260406494141 C 21.76291847229004 34.68300628662109 23.81374168395996 41.327392578125 24.92747116088867 45.00214385986328 C 26.0939884185791 41.89696884155273 27.85691833496094 36.30498123168945 27.71370697021484 29.3220043182373 C 27.50850677490234 19.33200454711914 20.22210693359375 5.748298645019531 20.58839988708496 1.300498485565186 C 20.81427764892578 -1.442736148834229 23.32556343078613 -2.483195543289185 26.24498748779297 -2.483195543289185 C 28.05998420715332 -2.483195543289185 30.03247261047363 -2.081250667572021 31.71240043640137 -1.436395525932312 C 36.09540176391602 0.2456985414028168 39.1068000793457 7.941604614257813 39.1068000793457 7.941604614257813 C 39.1068000793457 7.941604614257813 43.32419967651367 25.3538990020752 43.32329559326172 34.7516975402832 C 43.3223991394043 43.70129776000977 39.99959945678711 49.70969772338867 38.92589569091797 52.78949737548828 C 38.02362442016602 55.37815856933594 35.69992828369141 58.00127410888672 32.96357727050781 60.34423828125 C 34.59025955200195 62.68428802490234 35.83980178833008 64.36620330810547 35.83980178833008 64.36620330810547 C 35.83980178833008 64.36620330810547 37.6973991394043 65.09249877929688 39.25709533691406 68.31540679931641 C 40.81679916381836 71.53740692138672 36.21509552001953 77.12460327148438 31.60710525512695 78.02011108398438 C 31.03897666931152 78.13050842285156 30.48680114746094 78.183837890625 29.95401191711426 78.18385314941406 Z"/>
    </g>
  </g>
</svg>
