<svg xmlns="http://www.w3.org/2000/svg" width="54.437" height="160.286" viewBox="0 0 54.437 160.286">
  <defs>
    <style>
      .cls-1 {
        fill: #fff;
        stroke-linecap: round;
        stroke-linejoin: round;
      }

      .cls-2, .cls-3 {
        stroke: none;
      }

      .cls-3 {
        fill: #9a9a9a;
      }
    </style>
  </defs>
  <g id="ch16-1" class="cls-1" transform="translate(0.265 0.001)">
    <path class="cls-2" d="M 26.5921516418457 159.2844848632813 L 26.49106788635254 159.284423828125 C 20.44367218017578 159.2762145996094 15.34596347808838 158.5303039550781 11.3395881652832 157.0674285888672 C 8.138900756835938 155.8987426757813 5.62233829498291 154.2695770263672 3.859817743301392 152.2251586914063 C 0.3960467875003815 148.2073822021484 0.9829634428024292 143.910888671875 0.9892967939376831 143.8679504394531 L 1.000005125999451 143.7953796386719 L 1.000005125999451 143.7220153808594 L 1.000005125999451 107.4329528808594 C 1.987122416496277 106.2122421264648 5.983567237854004 101.1678161621094 9.929150581359863 94.74705505371094 C 16.05050468444824 84.78557586669922 19.154296875 76.41292572021484 19.154296875 69.8616943359375 C 19.154296875 63.29811477661133 15.90217208862305 56.87475967407227 9.749526023864746 51.28602981567383 C 6.042579174041748 47.91885375976563 2.375959634780884 45.82137298583984 1.000005125999451 45.0892219543457 L 1.000005125999451 20.39484405517578 L 1.000005125999451 20.27753067016602 L 0.9728593230247498 20.16340637207031 C 0.9697343111038208 20.15001106262207 0.612859308719635 18.58582305908203 0.7807134389877319 16.39351081848145 C 1.002484321594238 13.49728107452393 1.98744261264801 10.92365646362305 3.708213567733765 8.744155883789063 C 5.490442752838135 6.486823081970215 8.058775901794434 4.693323135375977 11.34185886383057 3.413447856903076 C 15.37090110778809 1.842802047729492 20.51583862304688 1.030677080154419 26.63375473022461 0.9996770620346069 C 26.75298500061035 0.9990729093551636 26.87317085266113 0.9987812638282776 26.9913387298584 0.9987812638282776 C 33.00325393676758 0.9987812638282776 38.09167098999023 1.782864570617676 42.11525344848633 3.329260349273682 C 45.40252685546875 4.592656135559082 48.00746536254883 6.375531196594238 49.85767364501953 8.628364562988281 C 54.2016716003418 13.91759395599365 53.03140258789063 20.13825988769531 53.01906585693359 20.20046806335449 L 53.00000381469727 20.29671859741211 L 53.00000381469727 20.39484405517578 L 53.00000381469727 45.12453460693359 C 51.76421737670898 45.86935424804688 48.52529525756836 47.96994018554688 45.25475692749023 51.32861328125 C 39.81675338745117 56.91313552856445 36.94237899780273 63.32178115844727 36.94237899780273 69.8616943359375 C 36.94237899780273 76.39402770996094 39.68450546264648 84.75119781494141 45.09259033203125 94.7010498046875 C 48.59548568725586 101.1457290649414 52.14413070678711 106.2042083740234 53.00000381469727 107.4000244140625 L 53.00000381469727 143.7220153808594 L 53.00000381469727 143.7645111083984 L 53.00360870361328 143.8068389892578 C 53.004150390625 143.8140716552734 53.08421325683594 144.9257202148438 52.69875335693359 146.5195922851563 C 52.18610763549805 148.639404296875 51.13571166992188 150.5681762695313 49.57673263549805 152.2523498535156 C 47.68098449707031 154.3003082275391 45.06192016601563 155.929443359375 41.79227447509766 157.094482421875 C 37.71400451660156 158.5476837158203 32.59994125366211 159.2844848632813 26.5921516418457 159.2844848632813 Z"/>
    <path class="cls-3" d="M 26.99132347106934 1.998764038085938 C 26.87480163574219 1.998764038085938 26.75632286071777 1.999069213867188 26.63882255554199 1.999664306640625 C 20.65560531616211 2.029983520507813 15.63880157470703 2.816146850585938 11.72780227661133 4.336318969726563 C 8.613517761230469 5.546798706054688 6.185756683349609 7.230270385742188 4.511955261230469 9.339981079101563 C 2.921432495117188 11.34471130371094 2.003669738769531 13.71684265136719 1.784107208251953 16.39047241210938 C 1.619312286376953 18.39715576171875 1.927848815917969 19.85003662109375 1.946872711181641 19.93675231933594 C 1.984939575195313 20.09213256835938 1.999996185302734 20.2344970703125 1.999996185302734 20.39483642578125 L 1.999996185302734 44.49578857421875 C 3.692756652832031 45.43758392333984 7.046382904052734 47.47971343994141 10.4218864440918 50.54581451416016 C 16.78888702392578 56.32924652099609 20.15430068969727 63.00857543945313 20.15430068969727 69.86170196533203 C 20.15430068969727 76.60053253173828 17.00071334838867 85.14931488037109 10.7811279296875 95.27061462402344 C 7.008083343505859 101.4106063842773 3.281490325927734 106.1905975341797 1.999996185302734 107.7872161865234 L 1.999996185302734 143.7219848632813 C 1.999996185302734 143.8274841308594 1.996234893798828 143.9032897949219 1.979854583740234 144.0060119628906 C 1.968681335449219 144.1014556884766 1.863437652587891 145.0941162109375 2.128562927246094 146.4842071533203 C 2.492172241210938 148.3908386230469 3.350650787353516 150.1270294189453 4.680107116699219 151.6445465087891 C 6.341148376464844 153.5405578613281 8.72308349609375 155.0584716796875 11.75973510742188 156.1561126708984 C 15.64453887939453 157.5603637695313 20.60134506225586 158.2764282226563 26.4921703338623 158.284423828125 L 26.59212684631348 158.2844848632813 C 32.46310424804688 158.2844848632813 37.44930267333984 157.5724945068359 41.41219329833984 156.1682739257813 C 44.52669143676758 155.0646820068359 47.01380157470703 153.5325164794922 48.80447387695313 151.6143188476563 C 50.24214935302734 150.0742492675781 51.21741104125977 148.3132629394531 51.70314788818359 146.3803100585938 C 52.05543518066406 144.9783935546875 52.01161193847656 143.978759765625 52.00638961791992 143.8833465576172 C 52.00039672851563 143.8216552734375 51.99999618530273 143.7864532470703 51.99999618530273 143.7219848632813 L 51.99999618530273 107.7215576171875 C 50.88557815551758 106.1534118652344 47.57015228271484 101.3533401489258 44.21397399902344 95.17861938476563 C 38.72534561157227 85.08055114746094 35.94239044189453 76.56270599365234 35.94239044189453 69.86170196533203 C 35.94239044189453 63.05587768554688 38.91480255126953 56.406005859375 44.53829956054688 50.63096618652344 C 47.5162467956543 47.57276916503906 50.48126602172852 45.52494812011719 51.99999618530273 44.56729888916016 L 51.99999618530273 20.39483642578125 C 51.99999618530273 20.25999450683594 52.0101318359375 20.14271545410156 52.0371208190918 20.01107788085938 C 52.05253982543945 19.92550659179688 52.31032562255859 18.44052124023438 52.06936645507813 16.394287109375 C 51.74777984619141 13.66326904296875 50.73041152954102 11.2479248046875 49.04551696777344 9.21533203125 C 47.30054092407227 7.110244750976563 44.83290863037109 5.438095092773438 41.7111701965332 4.245315551757813 C 37.8096923828125 2.754623413085938 32.85721588134766 1.998764038085938 26.99132347106934 1.998764038085938 M 26.99133110046387 -0.0012359619140625 C 58.04153060913086 -0.0012359619140625 53.99999618530273 20.39483642578125 53.99999618530273 20.39483642578125 L 53.99999618530273 45.69914245605469 C 53.99999618530273 45.69914245605469 37.94239044189453 54.51725006103516 37.94239044189453 69.86170196533203 C 37.94239044189453 85.20616149902344 53.99999618530273 107.0769653320313 53.99999618530273 107.0769653320313 L 53.99999618530273 143.7219848632813 C 53.99999618530273 143.7219848632813 55.41016387939453 160.2844848632813 26.59213638305664 160.2844848632813 C 26.55691528320313 160.2844848632813 26.52502632141113 160.2844696044922 26.48971366882324 160.284423828125 C -2.437568664550781 160.2451324462891 -3.814697265625e-06 143.7219848632813 -3.814697265625e-06 143.7219848632813 L -3.814697265625e-06 107.0769653320313 C -3.814697265625e-06 107.0769653320313 18.15430068969727 85.20616149902344 18.15430068969727 69.86170196533203 C 18.15430068969727 54.51725006103516 -3.814697265625e-06 45.69914245605469 -3.814697265625e-06 45.69914245605469 L -3.814697265625e-06 20.39483642578125 C -3.814697265625e-06 20.39483642578125 -4.813896179199219 0.159027099609375 26.62869262695313 -0.0003204345703125 C 26.74959564208984 -0.0009307861328125 26.87147521972656 -0.0012359619140625 26.99133110046387 -0.0012359619140625 Z"/>
  </g>
</svg>
