<svg xmlns="http://www.w3.org/2000/svg" width="67.36" height="130.859" viewBox="0 0 67.36 130.859">
  <defs>
    <style>
      .cls-1 {
        fill: #fff;
        stroke-linecap: round;
        stroke-linejoin: round;
      }

      .cls-2, .cls-3 {
        stroke: none;
      }

      .cls-3 {
        fill: #9a9a9a;
      }
    </style>
  </defs>
  <g id="ch16-2" class="cls-1" transform="translate(-2.938 -93.215)">
    <path class="cls-2" d="M 25.5417423248291 223.0743865966797 C 20.31268692016602 223.0743865966797 15.93274116516113 222.4299621582031 12.5235595703125 221.1590423583984 C 9.793341636657715 220.1412200927734 7.673595905303955 218.7176361083984 6.223214149475098 216.9278259277344 C 4.962268829345703 215.3717803955078 4.213850498199463 213.5666351318359 3.998741626739502 211.5625305175781 C 3.861718893051147 210.2858581542969 3.995896816253662 209.3252563476563 4.043802261352539 209.0436096191406 C 4.555163383483887 207.8651733398438 9.258246421813965 196.9736785888672 14.20803260803223 183.7206115722656 C 21.22688674926758 164.9276733398438 25.37405014038086 150.5929412841797 26.53432273864746 141.1146392822266 C 27.62039566040039 132.2427520751953 26.31603240966797 125.6113815307617 22.6574878692627 121.4047088623047 C 20.78989601135254 119.2573165893555 18.66753578186035 118.1764526367188 17.0149040222168 117.6323928833008 L 57.99543380737305 94.54697418212891 C 59.02440643310547 96.18646240234375 61.49955368041992 100.4250793457031 63.85317611694336 106.6941070556641 C 65.64650726318359 111.4707489013672 67.019775390625 116.4751281738281 67.934814453125 121.5682220458984 C 69.07779693603516 127.9300537109375 69.505126953125 134.4499969482422 69.20492553710938 140.9469604492188 C 68.9031982421875 147.4765319824219 67.81657409667969 155.0785217285156 65.97523498535156 163.5417785644531 C 64.49858093261719 170.328857421875 62.53656005859375 177.6786956787109 60.14366912841797 185.3870849609375 C 56.06525039672852 198.5252685546875 52.09706878662109 208.2730712890625 52.05746841430664 208.3699951171875 L 52.00366973876953 208.5016784667969 L 51.98870468139648 208.6431427001953 C 51.98503112792969 208.6753082275391 51.54097747802734 212.2781982421875 48.12386703491211 215.8235778808594 C 46.10941314697266 217.9136505126953 43.46572494506836 219.5822906494141 40.26623153686523 220.7831573486328 C 36.21554183959961 222.3035125732422 31.26150512695313 223.0743865966797 25.5417423248291 223.0743865966797 Z"/>
    <path class="cls-3" d="M 57.64530944824219 95.89195251464844 L 19.27947235107422 117.5044403076172 C 20.63155746459961 118.1957244873047 22.08507919311523 119.2227172851563 23.41203308105469 120.7484588623047 C 27.2644157409668 125.1780242919922 28.64886856079102 132.0710754394531 27.52692413330078 141.2361450195313 C 26.35708618164063 150.7924194335938 22.19115829467773 165.2039794921875 15.14481353759766 184.0704956054688 C 10.32234573364258 196.9826507568359 5.731910705566406 207.6611633300781 5.011955261230469 209.3244323730469 C 4.964187622070313 209.6584320068359 4.879371643066406 210.4818420410156 5.002471923828125 211.540283203125 C 5.210525512695313 213.3294525146484 5.890647888183594 214.9401092529297 7.023956298828125 216.3275299072266 C 8.365158081054688 217.9694519042969 10.34328842163086 219.2835693359375 12.90337753295898 220.2333679199219 C 16.19608688354492 221.4549865722656 20.44824981689453 222.0743713378906 25.54174041748047 222.0743713378906 C 31.09161376953125 222.0743713378906 35.89250564575195 221.3379821777344 39.81106948852539 219.8856353759766 C 42.86485290527344 218.7537994384766 45.38690567016602 217.1871032714844 47.30712127685547 215.2291107177734 C 50.47646331787109 211.9974060058594 50.97089004516602 208.7048645019531 50.99503326416016 208.5294799804688 C 51.01332855224609 208.3347930908203 51.05745697021484 208.1736450195313 51.13175964355469 207.9917602539063 C 51.17124938964844 207.8950805664063 55.12847137451172 198.1727447509766 59.19430541992188 185.0723876953125 C 61.57732391357422 177.3941040039063 63.53077697753906 170.0751037597656 65.00039672851563 163.3186798095703 C 66.82845306396484 154.9142913818359 67.90697479248047 147.3718414306641 68.20597839355469 140.9008178710938 C 68.50199890136719 134.4947814941406 68.08250427246094 128.0659942626953 66.95917510986328 121.7930145263672 C 66.05921173095703 116.7674255371094 64.7078857421875 111.8287506103516 62.94272232055664 107.1141967773438 C 60.93210220336914 101.7440948486328 58.83028793334961 97.88096618652344 57.64530944824219 95.89195251464844 M 58.32165145874023 93.2154541015625 C 58.32165145874023 93.2154541015625 71.53849029541016 112.1099243164063 70.20384979248047 140.9931335449219 C 68.86923217773438 169.8763275146484 52.98316192626953 208.7482757568359 52.98316192626953 208.7482757568359 C 52.98316192626953 208.7482757568359 51.36296081542969 224.0743713378906 25.54174041748047 224.0743713378906 C -0.27947998046875 224.0743713378906 3.081779479980469 208.7482757568359 3.081779479980469 208.7482757568359 C 3.081779479980469 208.7482757568359 22.76699447631836 163.659912109375 25.54174041748047 140.9931335449219 C 28.31650543212891 118.3263397216797 14.18077850341797 118.0811614990234 14.18077850341797 118.0811614990234 L 58.32165145874023 93.2154541015625 Z"/>
  </g>
</svg>
