<svg xmlns="http://www.w3.org/2000/svg" width="91.208" height="96.913" viewBox="0 0 91.208 96.913">
  <defs>
    <style>
      .cls-1 {
        fill: #fff;
      }

      .cls-2, .cls-3 {
        stroke: none;
      }

      .cls-3 {
        fill: #707070;
      }
    </style>
  </defs>
  <g id="ch16" transform="translate(-375.861 -357.567)">
    <g id="ch16-1" class="cls-1" transform="matrix(-0.999, -0.035, 0.035, -0.999, 418.917, 452.452)">
      <path class="cls-2" d="M 7.304914474487305 92.94064331054688 L 7.304689407348633 92.94064331054688 C 6.2806396484375 92.94058227539063 5.291926860809326 92.76878356933594 4.445151805877686 92.44380187988281 C 2.993651866912842 91.88632965087891 2.173101902008057 91.28200531005859 1.784714460372925 90.48436737060547 C 1.412701964378357 89.72038269042969 1.407126903533936 88.73640441894531 1.400064468383789 87.49065399169922 C 1.395478129386902 86.68099975585938 1.390281200408936 85.7652587890625 1.287459135055542 84.71189880371094 L 2.301201820373535 77.66924285888672 C 2.305489301681519 77.63742065429688 2.674427032470703 74.92893218994141 3.701589345932007 71.16249084472656 C 4.647077083587646 67.69554138183594 6.359901905059814 62.59620666503906 9.15041446685791 57.9914436340332 C 10.29265213012695 56.1065788269043 11.62505149841309 54.52366638183594 13.22375202178955 53.15227890014648 L 13.53312683105469 52.88690567016602 L 13.33553981781006 52.53039169311523 C 12.31477737426758 50.68866729736328 11.69345188140869 49.11558151245117 11.4888391494751 47.85480499267578 C 11.21963977813721 46.19667816162109 9.998601913452148 43.65457916259766 8.452713966369629 40.43614196777344 C 6.5462646484375 36.46706771850586 4.173626899719238 31.52742958068848 2.621864318847656 26.22682952880859 C 0.2825144231319427 18.23825454711914 -1.783535599708557 7.627792358398438 -1.80413556098938 7.521554946899414 C -2.265260696411133 5.148717403411865 -2.180010557174683 3.202367305755615 -1.550785541534424 1.73631739616394 C -0.8632355928421021 0.1343548893928528 0.4988019168376923 -0.8748576045036316 2.497489452362061 -1.263282656669617 C 3.096289396286011 -1.379645109176636 3.738064527511597 -1.438657641410828 4.404976844787598 -1.438657641410828 C 6.507214546203613 -1.438657641410828 8.717389106750488 -0.8556076288223267 10.46877670288086 0.1609673798084259 C 11.78778648376465 0.9265764951705933 13.44313812255859 2.279614686965942 13.88672637939453 4.3930344581604 C 13.82660102844238 4.897853374481201 13.51343536376953 7.658865928649902 13.39748954772949 11.3032922744751 C 13.27930164337158 15.01848030090332 13.34733963012695 20.44441795349121 14.34262657165527 25.19543075561523 C 15.90870189666748 32.67047882080078 20.10841369628906 39.69712829589844 22.8874397277832 44.34681701660156 C 23.12342643737793 44.74165344238281 23.34768867492676 45.11686706542969 23.55740165710449 45.47096633911133 L 24.06019020080566 46.31988143920898 L 24.44747734069824 45.41242980957031 C 24.46612739562988 45.36874389648438 24.48397636413574 45.32498168945313 24.50115203857422 45.28034210205078 C 24.66615104675293 44.85187911987305 24.93233871459961 44.56535339355469 25.26935195922852 44.20260620117188 C 26.40593910217285 42.97917938232422 27.96255111694336 41.30364227294922 28.2512149810791 32.78232955932617 C 28.47972679138184 26.04360580444336 24.40108871459961 16.97675514221191 21.42298889160156 10.35641765594482 C 20.44682693481445 8.186405181884766 19.60379028320313 6.312317371368408 19.0584774017334 4.852405071258545 C 18.31205177307129 2.854079961776733 18.42511367797852 2.379779815673828 18.4775390625 2.282004833221436 C 18.62951469421387 1.998404860496521 19.33600234985352 1.339079856872559 22.60730171203613 1.339079856872559 C 25.80582046508789 1.339079856872559 29.42767333984375 1.967641592025757 29.79691505432129 2.089850664138794 C 29.93991279602051 2.150843381881714 30.10126876831055 2.166437864303589 30.34220123291016 2.189717292785645 C 31.39913940429688 2.291842460632324 33.87430191040039 2.531017303466797 34.73607635498047 7.207817554473877 C 35.11676406860352 9.272079467773438 36.20216369628906 12.12215518951416 37.45893859863281 15.42225456237793 C 39.84751510620117 21.69429206848145 42.82017517089844 29.50005531311035 42.49005126953125 35.98900604248047 C 42.08056259155273 44.04939270019531 40.75471496582031 46.26510620117188 39.58493804931641 48.21997833251953 C 39.13926315307617 48.96476745605469 38.71831512451172 49.66825485229492 38.38446426391602 50.62602996826172 C 37.37778854370117 53.51304244995117 34.48081588745117 54.60145568847656 31.12638854980469 55.86172866821289 C 30.87633895874023 55.95566558837891 30.62392616271973 56.05050659179688 30.36971473693848 56.14702987670898 L 29.73921394348145 56.38642883300781 L 30.15151405334473 56.92014312744141 C 30.46291351318359 57.3232307434082 30.77842712402344 57.72869110107422 31.09462738037109 58.13504409790039 C 33.03788757324219 60.63230514526367 35.04730224609375 63.21459197998047 36.22357559204102 65.42795562744141 C 38.83776473999023 70.34772491455078 39.62632751464844 73.99799346923828 39.70560073852539 74.38771057128906 L 39.94180297851563 81.16860198974609 L 39.94317626953125 81.20795440673828 L 39.95069122314453 81.24658966064453 C 40.35834121704102 83.34429168701172 39.92485046386719 85.47515869140625 38.73006439208984 87.24666595458984 C 37.53519058227539 89.01831817626953 35.72182846069336 90.21849060058594 33.62403869628906 90.62608337402344 C 33.0963134765625 90.72864532470703 32.57223892211914 90.7806396484375 32.06632614135742 90.78065490722656 C 30.35177612304688 90.78070831298828 28.80137634277344 90.18590545654297 27.58272743225098 89.06053924560547 C 26.37685203552246 87.94698333740234 25.54338645935059 86.36651611328125 25.17091369628906 84.48786163330078 L 24.95180130004883 78.20967102050781 L 24.56660270690918 67.17655181884766 L 24.55992698669434 66.98532104492188 L 24.42726516723633 66.84738922119141 C 24.41272735595703 66.83228302001953 22.95105171203613 65.30977630615234 21.03485107421875 63.07966613769531 L 20.61538887023926 62.59149169921875 L 20.24610137939453 63.11862945556641 C 20.08629035949707 63.34675598144531 19.92931365966797 63.58359146118164 19.77953910827637 63.82256698608398 C 16.83407783508301 68.52227783203125 15.50027656555176 73.81582641601563 14.90002727508545 77.42899322509766 C 14.25721740722656 81.29833221435547 14.29306125640869 84.04646301269531 14.29600620269775 84.21687316894531 L 14.29960155487061 87.52734375 L 14.29963970184326 87.55702972412109 L 14.30317687988281 87.58650207519531 C 14.43697738647461 88.69910430908203 14.10647678375244 89.71236419677734 13.32083988189697 90.59812927246094 C 12.05870151519775 92.02115631103516 9.697301864624023 92.94064331054688 7.304914474487305 92.94064331054688 Z"/>
      <path class="cls-3" d="M 7.304925441741943 92.44064331054688 C 9.560711860656738 92.44064331054688 11.77525901794434 91.58718872070313 12.94677829742432 90.26634979248047 C 13.6334056854248 89.49221801757813 13.92273902893066 88.61065673828125 13.80675220489502 87.64620208740234 L 13.79967212677002 87.58725738525391 L 13.79960536956787 87.52788543701172 L 13.79601383209229 84.22142028808594 C 13.7925443649292 84.00714111328125 13.76193332672119 81.2286376953125 14.40679168701172 77.3470458984375 C 15.01452541351318 73.68882751464844 16.3664722442627 68.32685852050781 19.35588455200195 63.55702972412109 C 19.51024436950684 63.31073760986328 19.67197799682617 63.06672286987305 19.83659172058105 62.83176422119141 L 20.57516479492188 61.77748489379883 L 21.41407203674316 62.75381469726563 C 23.31973838806152 64.97165679931641 24.77317810058594 66.48576354980469 24.78764533996582 66.50080108642578 L 25.05293846130371 66.77667236328125 L 25.06628608703613 67.15911102294922 L 25.45148468017578 78.19223022460938 L 25.6691780090332 84.42962646484375 C 26.02462387084961 86.1865234375 26.80263900756836 87.65958404541016 27.92195129394531 88.69320678710938 C 29.04660606384277 89.73176574707031 30.47971153259277 90.28069305419922 32.06633758544922 90.28065490722656 C 32.54028701782227 90.2806396484375 33.03227233886719 90.23173522949219 33.52867126464844 90.13526916503906 C 35.49533843994141 89.75315093994141 37.19535064697266 88.62799072265625 38.3155403137207 86.96708679199219 C 39.4356575012207 85.30628204345703 39.84204483032227 83.30857849121094 39.45985794067383 81.34197998046875 L 39.44484710693359 81.26469421386719 L 39.44209671020508 81.18601989746094 L 39.20737075805664 74.44732666015625 C 39.09719848632813 73.92340850830078 38.29397583007813 70.38993072509766 35.78205871582031 65.66257476806641 C 34.6261100769043 63.48748397827148 32.63023376464844 60.92258834838867 30.70005798339844 58.4421501159668 C 30.38348579406738 58.03530883789063 30.06760597229004 57.62937545776367 29.75584602355957 57.22581481933594 L 28.93123245239258 56.15839004516602 L 30.19223213195801 55.67958831787109 C 30.4470043182373 55.58285522460938 30.69996452331543 55.48781585693359 30.95056533813477 55.39366912841797 C 34.32076644897461 54.12745666503906 36.98276519775391 53.12732315063477 37.91232681274414 50.46145629882813 C 38.26300430297852 49.45539093017578 38.71692657470703 48.69683074951172 39.15589904785156 47.96323013305664 C 40.29567337036133 46.0584716796875 41.5875244140625 43.89957809448242 41.99069976806641 35.96358871459961 C 42.31548690795898 29.57969665527344 39.36357879638672 21.82844352722168 36.99167251586914 15.60020351409912 C 35.72621917724609 12.27728366851807 34.6333122253418 9.407509803771973 34.24436569213867 7.298416614532471 C 33.45091247558594 2.992443323135376 31.31876564025879 2.786403179168701 30.29411125183105 2.687389850616455 C 30.0400276184082 2.662835597991943 29.83522415161133 2.643046379089355 29.63197135925293 2.562603235244751 C 29.15323066711426 2.429292678833008 25.64933204650879 1.839069843292236 22.60729789733887 1.839069843292236 C 19.75188064575195 1.839069843292236 19.0659122467041 2.362854242324829 18.94171142578125 2.490533590316772 C 18.93095016479492 2.654566049575806 18.97032165527344 3.237095832824707 19.63232612609863 4.955283164978027 C 20.17389869689941 6.360896587371826 20.96405792236328 8.117416381835938 21.87897872924805 10.15128326416016 C 24.8771915435791 16.81633567810059 28.98337936401367 25.94442939758301 28.75092506408691 32.79925537109375 C 28.45595169067383 41.50716400146484 26.82588577270508 43.26176452636719 25.63567161560059 44.54291152954102 C 25.31195259094238 44.89134979248047 25.09809875488281 45.12155151367188 24.96780586242676 45.45988464355469 C 24.94847106933594 45.51013565063477 24.92839241027832 45.55939102172852 24.90740585327148 45.60856246948242 L 24.1329517364502 47.42389678955078 L 23.12720489501953 45.72574996948242 C 22.91781806945801 45.37223052978516 22.69392585754395 44.99763107299805 22.45832443237305 44.60343170166016 C 19.66213798522949 39.92508316040039 15.43652534484863 32.85509490966797 13.85324478149414 25.29793739318848 C 12.84781837463379 20.49851036071777 12.77868556976318 15.02987003326416 12.8977518081665 11.28738975524902 C 13.01037120819092 7.747247219085693 13.29978179931641 5.101132392883301 13.3801965713501 4.417241096496582 C 12.94938087463379 2.528043985366821 11.43166255950928 1.297985196113586 10.21777820587158 0.5933898687362671 C 8.540365219116211 -0.3802501261234283 6.421671867370605 -0.9386634230613708 4.404965400695801 -0.9386634230613708 C 3.770031929016113 -0.9386634230613708 3.160351991653442 -0.8827434778213501 2.592871904373169 -0.7724634408950806 C 0.7408052682876587 -0.4125434458255768 -0.4643014073371887 0.4725898802280426 -1.091328024864197 1.933509826660156 C -1.680248141288757 3.305696487426758 -1.754954695701599 5.153603076934814 -1.313274741172791 7.426389694213867 C -1.292714715003967 7.532402992248535 0.769178569316864 18.12101745605469 3.101725339889526 26.08633613586426 C 4.642018795013428 31.34774971008301 7.004858493804932 36.26699066162109 8.90341854095459 40.21966934204102 C 10.46677875518799 43.47445678710938 11.70160484313965 46.04528427124023 11.98237895965576 47.77469635009766 C 12.17773818969727 48.97837829589844 12.78013896942139 50.49688339233398 13.77285861968994 52.28802871704102 L 14.16804504394531 53.00102996826172 L 13.54929828643799 53.53179168701172 C 11.99140548706055 54.86819076538086 10.69237899780273 56.41170883178711 9.578018188476563 58.25056457519531 C 6.820831775665283 62.80035018920898 5.125365257263184 67.84580230712891 4.188565254211426 71.27722930908203 C 3.168085336685181 75.01515197753906 2.801031827926636 77.70407104492188 2.7974853515625 77.73052215576172 L 2.796818494796753 77.73549652099609 L 2.796098470687866 77.74048614501953 L 1.790897130966187 84.72380065917969 C 1.890348672866821 85.77423095703125 1.895489454269409 86.68267059326172 1.900058627128601 87.48781585693359 C 1.906751871109009 88.67000579833984 1.912045240402222 89.60377502441406 2.234245300292969 90.26547241210938 C 2.455538511276245 90.71994781494141 2.927218675613403 91.32521820068359 4.624311923980713 91.97700500488281 C 5.414511680603027 92.2802734375 6.341285228729248 92.44058990478516 7.304378509521484 92.44064331054688 L 7.304925441741943 92.44064331054688 M 7.304919719696045 93.44064331054688 C 7.304682731628418 93.44064331054688 7.304615497589111 93.44064331054688 7.304378509521484 93.44064331054688 C 6.248058795928955 93.44058990478516 5.2036452293396 93.27045440673828 4.266005039215088 92.91060638427734 C -0.1161014139652252 91.22760009765625 1.232098579406738 89.15040588378906 0.7838985919952393 84.7008056640625 L 1.806298613548279 77.59799957275391 C 1.806298613548279 77.59799957275391 3.256205320358276 66.75300598144531 8.722805023193359 57.73229598999023 C 10.00036525726318 55.62413787841797 11.43291187286377 54.02975082397461 12.89821815490723 52.77278900146484 C 11.92940521240234 51.0247917175293 11.22624492645264 49.35791015625 10.99529838562012 47.93489837646484 C 10.41389846801758 44.35380172729492 4.949098587036133 35.95589828491211 2.142005205154419 26.36729621887207 C -0.231301411986351 18.26280403137207 -2.294994831085205 7.616696357727051 -2.294994831085205 7.616696357727051 C -3.19050145149231 3.008696556091309 -2.205901384353638 -0.8585968017578125 2.402098655700684 -1.754103422164917 C 3.040254831314087 -1.878119230270386 3.714593648910522 -1.938657641410828 4.404962062835693 -1.938657641410828 C 8.69960880279541 -1.938657641410828 13.62054634094238 0.4032528102397919 14.3928050994873 4.373096466064453 C 14.3928050994873 4.373096466064453 12.92489814758301 15.98940277099609 14.83200550079346 25.09289741516113 C 16.51641845703125 33.13277816772461 21.37708473205566 40.80844497680664 23.98761940002441 45.21616363525391 C 24.00389862060547 45.17800140380859 24.01949882507324 45.13978958129883 24.03449821472168 45.10080337524414 C 24.82920455932617 43.0370979309082 27.37440490722656 43.89749526977539 27.75149917602539 32.76540374755859 C 28.12320518493652 21.80429649353027 16.79940605163574 4.353310108184814 18.03689765930176 2.045696496963501 C 18.52915382385254 1.127107262611389 20.44711112976074 0.8390728235244751 22.6072940826416 0.8390728235244751 C 25.87373352050781 0.8390728235244751 29.69527816772461 1.496996521949768 29.98889923095703 1.628096580505371 C 30.47760581970215 1.846803188323975 34.13789749145508 1.20240318775177 35.22780609130859 7.117203235626221 C 36.318603515625 13.03200340270996 43.49880599975586 26.00189590454102 42.98940658569336 36.014404296875 C 42.41969680786133 47.2284049987793 40.03020477294922 47.42369842529297 38.85660552978516 50.79060363769531 C 37.69469833374023 54.1227912902832 34.31991195678711 55.18199157714844 30.54720497131348 56.61447143554688 C 32.80419158935547 59.53605651855469 35.27724456787109 62.58180236816406 36.66510009765625 65.19329833984375 C 39.49380493164063 70.51679992675781 40.20389938354492 74.33009338378906 40.20389938354492 74.33009338378906 L 40.44149780273438 81.15120697021484 C 41.33700561523438 85.75920104980469 38.32830047607422 90.22140502929688 33.71940612792969 91.11691284179688 C 33.15127944946289 91.22731781005859 32.59912872314453 91.28064727783203 32.06636047363281 91.28066253662109 C 28.27791023254395 91.28076934814453 25.45848655700684 88.58497619628906 24.67260551452637 84.54511260986328 L 24.45209884643555 78.22711181640625 L 24.06689834594727 67.19400024414063 C 24.06689834594727 67.19400024414063 22.60465812683105 65.67385864257813 20.65560531616211 63.40552139282227 C 20.5013256072998 63.62575149536133 20.35064506530762 63.85287094116211 20.20320510864258 64.08811187744141 C 14.58629894256592 73.05029296875 14.79600524902344 84.21211242675781 14.79600524902344 84.21211242675781 L 14.79960536956787 87.52680206298828 C 15.23465824127197 91.14455413818359 11.18611621856689 93.44064331054688 7.304919719696045 93.44064331054688 Z"/>
    </g>
    <g id="ch16-2" class="cls-1" transform="matrix(-0.999, -0.035, 0.035, -0.999, 460.917, 452.452)">
      <path class="cls-2" d="M 3.577179670333862 91.41290283203125 L 3.576803207397461 91.41290283203125 C 2.552320718765259 91.41281890869141 1.56336784362793 91.24086761474609 0.7165678143501282 90.91564178466797 C -0.7355380654335022 90.35835266113281 -1.556290984153748 89.75419616699219 -1.944773316383362 88.95668029785156 C -2.316855669021606 88.19279479980469 -2.322443962097168 87.20880126953125 -2.32952618598938 85.96299743652344 C -2.33415412902832 85.14940643310547 -2.339386463165283 84.22869110107422 -2.443694114685059 83.16885375976563 C -2.39411997795105 82.58653259277344 -1.76021683216095 75.93111419677734 1.59089720249176 70.62726593017578 C 4.940097332000732 65.32778930664063 5.556614875793457 64.55992889404297 8.519144058227539 60.87017440795898 C 8.728026390075684 60.61002349853516 8.948450088500977 60.33549118041992 9.182190895080566 60.04397583007813 C 10.39207363128662 58.5354118347168 12.4869556427002 57.01776504516602 14.17683887481689 55.86413955688477 L 14.60876750946045 55.56928253173828 L 14.29481506347656 55.15102386474609 C 12.91952610015869 53.31886672973633 11.62324905395508 51.67122650146484 10.44174289703369 50.25358581542969 C 10.33048152923584 50.11337661743164 10.20920085906982 49.96121597290039 10.07884979248047 49.79765701293945 C 8.622720718383789 47.97072601318359 6.185591220855713 44.91300964355469 3.858108997344971 41.2019157409668 C 1.039873719215393 36.70832824707031 -0.7373968958854675 32.63271713256836 -1.424326300621033 29.0882682800293 C -1.819102764129639 27.05031585693359 -1.781079173088074 24.69678688049316 -1.311302781105042 22.09311676025391 C -0.9322086572647095 19.99198722839355 -0.2730439305305481 17.72666931152344 0.6478619575500488 15.36008071899414 C 2.222214937210083 11.31425762176514 4.038379669189453 8.341916084289551 4.056544303894043 8.312363624572754 L 4.07590913772583 8.280869483947754 L 4.090461730957031 8.246798515319824 C 4.091732501983643 8.244022369384766 4.362967967987061 7.645174980163574 5.15070915222168 6.953221797943115 C 5.882932662963867 6.310045719146729 7.224132537841797 5.452327728271484 9.455390930175781 5.018727779388428 C 9.774497032165527 4.956645488739014 10.08643817901611 4.925174713134766 10.3826379776001 4.925174713134766 C 11.44633293151855 4.925174713134766 12.36593246459961 5.32823371887207 13.1158971786499 6.123151302337646 C 14.50283813476563 7.593210220336914 15.0278148651123 10.09524536132813 14.92864990234375 11.79783344268799 C 14.8806266784668 12.61792755126953 14.55733299255371 13.47555160522461 14.14803886413574 14.56135177612305 C 13.17114448547363 17.15288162231445 11.69486236572266 21.06923294067383 12.62837982177734 28.71926879882813 C 13.48727416992188 35.75659942626953 19.16890907287598 41.3560791015625 22.56356811523438 44.70165634155273 C 23.19599151611328 45.3249397277832 23.74216842651367 45.86322021484375 24.18053245544434 46.33185577392578 L 24.71996688842773 46.90857315063477 L 25.01059150695801 46.17431640625 C 25.84509658813477 44.06596374511719 28.38460350036621 37.64997482299805 28.21359062194824 29.31175231933594 C 28.09212112426758 23.39789199829102 25.02459144592285 18.06145668029785 22.55978012084961 13.77355098724365 C 20.85320281982422 10.80469226837158 19.37934494018555 8.240692138671875 19.52072143554688 6.523739814758301 C 19.75889778137207 3.630939722061157 22.85476875305176 3.19899845123291 24.67897987365723 3.19899845123291 C 26.36162757873535 3.19899845123291 28.28912162780762 3.568445444107056 29.96722602844238 4.212586879730225 C 33.99264907836914 5.758288860321045 36.80783081054688 10.7809419631958 37.0121955871582 11.1539192199707 C 37.14498901367188 11.48388385772705 38.54109954833984 14.97992515563965 39.91921615600586 19.47711563110352 C 41.81945037841797 25.67813873291016 42.82366180419922 30.95998764038086 42.82329559326172 34.75165557861328 C 42.82257843017578 41.9288330078125 40.68191909790039 47.12541198730469 39.26540374755859 50.56409072875977 C 38.9400634765625 51.3538703918457 38.65909576416016 52.03594970703125 38.45376968383789 52.62490463256836 C 37.80429840087891 54.48822021484375 36.31888580322266 56.53303527832031 34.03875732421875 58.70259857177734 L 33.74323654174805 58.9837760925293 L 33.95935440063477 59.32973861694336 C 34.98602676391602 60.97315216064453 35.70129776000977 62.60515213012695 36.14603805541992 64.31900024414063 C 38.00518798828125 71.48051452636719 39.1068229675293 73.62754821777344 39.4490966796875 74.17483520507813 L 39.68170928955078 80.85271453857422 L 39.68307495117188 80.89204406738281 L 39.69057846069336 80.93069458007813 C 40.09823989868164 83.02838897705078 39.66475677490234 85.15925598144531 38.46996688842773 86.93076324462891 C 37.27508544921875 88.70242309570313 35.46173095703125 89.902587890625 33.36393356323242 90.31017303466797 C 32.8361930847168 90.41274261474609 32.31199264526367 90.46475219726563 31.80586242675781 90.46479034423828 C 30.09126281738281 90.46491241455078 28.54092025756836 89.87022399902344 27.32245063781738 88.74502563476563 C 26.1166820526123 87.63153839111328 25.28326797485352 86.05091857910156 24.91080284118652 84.17195129394531 L 24.69169807434082 77.89376068115234 L 24.69050979614258 77.85976409912109 L 24.68473243713379 77.82625579833984 L 22.92073249816895 67.59416198730469 L 22.90339088439941 67.49353790283203 L 22.84798049926758 67.40777587890625 C 22.84798049926758 67.40777587890625 22.79425048828125 67.32460784912109 22.69222640991211 67.16819000244141 L 22.44688606262207 66.79206085205078 L 22.04666137695313 66.99574279785156 C 21.65560340881348 67.19474792480469 21.29036712646484 67.37232971191406 20.96113204956055 67.52352905273438 C 19.09433174133301 68.380859375 16.91126251220703 70.99296569824219 14.47259140014648 75.28727722167969 C 12.58236789703369 78.61580657958984 11.18830871582031 81.85244750976563 10.97746181488037 82.52088928222656 C 10.52836799621582 83.94068145751953 10.56908512115479 85.92726898193359 10.57103824615479 86.01113891601563 L 10.5715913772583 86.03525543212891 L 10.57447338104248 86.05919647216797 C 10.70826148986816 87.17165374755859 10.37776756286621 88.18480682373047 9.592179298400879 89.07054138183594 C 8.330108642578125 90.49346923828125 5.969085693359375 91.41290283203125 3.577179670333862 91.41290283203125 Z"/>
      <path class="cls-3" d="M 3.577200174331665 90.91289520263672 C 5.832499980926514 90.91289520263672 8.046700477600098 90.05950164794922 9.218125343322754 88.73876190185547 C 9.90470027923584 87.96466064453125 10.19402503967285 87.08322143554688 10.07805061340332 86.11891174316406 L 10.07229995727539 86.07102203369141 L 10.07117557525635 86.02279663085938 C 10.06913757324219 85.93552398681641 10.0268497467041 83.8682861328125 10.50062561035156 82.37047576904297 C 10.72306251525879 81.665283203125 12.10187530517578 78.44940948486328 14.03781223297119 75.04037475585938 C 16.52930068969727 70.65303802490234 18.78843688964844 67.97113800048828 20.75243759155273 67.06917572021484 C 21.07576179504395 66.92067718505859 21.43490028381348 66.74604797363281 21.81987571716309 66.55012512207031 L 22.62037467956543 66.14273834228516 L 23.11103820800781 66.89505767822266 C 23.21378707885742 67.0526123046875 23.26791191101074 67.13637542724609 23.26791191101074 67.13637542724609 L 23.37876319885254 67.30793762207031 L 23.4134635925293 67.50920867919922 L 25.17746353149414 77.74131011962891 L 25.18902587890625 77.80833435058594 L 25.19138717651367 77.87631988525391 L 25.4090747833252 84.11373901367188 C 26.13907814025879 87.72534942626953 28.58434867858887 89.96501922607422 31.80582427978516 89.96478271484375 C 32.28006362915039 89.96475219726563 32.77218627929688 89.91582489013672 33.26857376098633 89.81935882568359 C 35.23523712158203 89.43723297119141 36.93524932861328 88.31208801269531 38.05543899536133 86.65118408203125 C 39.1755485534668 84.99038696289063 39.58195114135742 82.99268341064453 39.19976425170898 81.02607727050781 L 39.18474960327148 80.94879913330078 L 39.18199920654297 80.87012481689453 L 38.95384216308594 74.32012939453125 C 38.49787902832031 73.53267669677734 37.40397644042969 71.15450286865234 35.66206359863281 64.44458770751953 C 35.23028945922852 62.78069686889648 34.53462600708008 61.19427490234375 33.53531265258789 59.59465026855469 L 33.10306167602539 58.90273666381836 L 33.69408798217773 58.34037399291992 C 35.91604995727539 56.22616195678711 37.35858917236328 54.24783706665039 37.98163604736328 52.46029663085938 C 38.19151306152344 51.8582878112793 38.47493743896484 51.17027282714844 38.8031005859375 50.37362289428711 C 40.20461273193359 46.97137451171875 42.32258605957031 41.82983779907227 42.32329940795898 34.7515983581543 C 42.32415008544922 25.93540191650391 36.93816375732422 12.31440353393555 36.55930709838867 11.36794281005859 C 36.28246307373047 10.86759281158447 33.58269500732422 6.136466026306152 29.78803825378418 4.679386138916016 C 28.16491317749023 4.056335926055908 26.30273818969727 3.69899845123291 24.67898750305176 3.69899845123291 C 23.30272483825684 3.69899845123291 22.15128707885742 3.949410915374756 21.34916305541992 4.423173427581787 C 20.5330867767334 4.905160903930664 20.09799957275391 5.605686187744141 20.0190258026123 6.564761161804199 C 19.89043807983398 8.126510620117188 21.32832527160645 10.62794876098633 22.9932746887207 13.52437305450439 C 25.48648834228516 17.86169815063477 28.58938789367676 23.2596607208252 28.71348762512207 29.30149841308594 C 28.88656234741211 37.74036026000977 26.31917572021484 44.22681045532227 25.47550010681152 46.35832214355469 L 24.89425086975098 47.82683563232422 L 23.81537437438965 46.67341232299805 C 23.38396263122559 46.21220016479492 22.84113693237305 45.67722320556641 22.21260070800781 45.05777359008789 C 18.77147483825684 41.66641235351563 13.01208782196045 35.99029922485352 12.1320629119873 28.77982330322266 C 11.18365001678467 21.00783538818359 12.68602561950684 17.02229881286621 13.68017482757568 14.38498592376709 C 14.07447528839111 13.33896064758301 14.38592529296875 12.51274871826172 14.42948722839355 11.76876068115234 C 14.52261257171631 10.16987323760986 14.03746223449707 7.828548431396484 12.75221252441406 6.46626091003418 C 12.09127521514893 5.765710830688477 11.31618785858154 5.425173282623291 10.3826379776001 5.425173282623291 C 10.11838722229004 5.425173282623291 9.83857536315918 5.453548431396484 9.550763130187988 5.509535789489746 C 7.466825008392334 5.914523601531982 6.214450359344482 6.698773384094238 5.530800342559814 7.285360813140869 C 4.846446990966797 7.872562885284424 4.580080032348633 8.384276390075684 4.547919273376465 8.44929027557373 L 4.528850078582764 8.498723030090332 L 4.48256254196167 8.574098587036133 C 4.464575290679932 8.603398323059082 2.664950132369995 11.55068588256836 1.107387661933899 15.55794811248779 C -0.3063373267650604 19.19514846801758 -1.807987332344055 24.47851181030273 -0.9334623217582703 28.99313545227051 C -0.258312314748764 32.47682189941406 1.496325135231018 36.49505996704102 4.281675338745117 40.93621063232422 C 6.594162464141846 44.62339782714844 9.020275115966797 47.66731262207031 10.46982479095459 49.48598480224609 C 10.59898662567139 49.64803314208984 10.7192497253418 49.79891967773438 10.82969760894775 49.93810272216797 C 12.01547622680664 51.36105346679688 13.31576442718506 53.01384353637695 14.69468784332275 54.85086059570313 L 15.32260036468506 55.68736267089844 L 14.45874977111816 56.27708435058594 C 12.79750061035156 57.41115951538086 10.74078750610352 58.89976119995117 9.572287559509277 60.35674667358398 C 9.338462829589844 60.64836120605469 9.117975234985352 60.9229850769043 8.909025192260742 61.18322372436523 C 5.961137771606445 64.854736328125 5.347675323486328 65.61878967285156 2.013587713241577 70.89433288574219 C -1.206993699073792 75.99160003662109 -1.871147751808167 82.3843994140625 -1.941576361656189 83.16634368896484 C -1.839374780654907 84.22934722900391 -1.834153056144714 85.1474609375 -1.829537272453308 85.96015167236328 C -1.82281231880188 87.14236450195313 -1.817512273788452 88.07614898681641 -1.495262265205383 88.73772430419922 C -1.273924827575684 89.19210815429688 -0.8021498322486877 89.79723358154297 0.895837664604187 90.44888305664063 C 1.686037659645081 90.75237274169922 2.613000154495239 90.91283416748047 3.576437711715698 90.91289520263672 L 3.577200174331665 90.91289520263672 M 3.577198266983032 91.91289520263672 C 3.576724529266357 91.91289520263672 3.576911449432373 91.91289520263672 3.576437711715698 91.91289520263672 C 2.519862651824951 91.91282653808594 1.475025177001953 91.74254608154297 0.537300169467926 91.38240051269531 C -3.845699787139893 89.70030212402344 -2.497499704360962 87.62310028076172 -2.94569993019104 83.17350006103516 C -2.94569993019104 83.17350006103516 -2.433599710464478 76.06079864501953 1.168200135231018 70.36019897460938 C 4.770900249481201 64.65959930419922 5.260499954223633 64.13579559326172 8.792099952697754 59.73119735717773 C 9.951637268066406 58.28539657592773 11.83448791503906 56.85778427124023 13.89493751525879 55.45118713378906 C 12.63366222381592 53.77091217041016 11.32883739471436 52.09872436523438 10.05389976501465 50.56919860839844 C 7.526700019836426 47.38409805297852 -0.2087998241186142 37.98809814453125 -1.915199875831604 29.18339920043945 C -3.699899911880493 19.9700984954834 3.630600214004517 8.050498008728027 3.630600214004517 8.050498008728027 C 3.630600214004517 8.050498008728027 4.752000331878662 5.423398494720459 9.360000610351563 4.52789831161499 C 9.718593597412109 4.458140850067139 10.0595006942749 4.425173282623291 10.38263702392578 4.425173282623291 C 14.2118673324585 4.425173282623291 15.58964252471924 9.048185348510742 15.42780017852783 11.8268985748291 C 15.25139999389648 14.83919811248779 11.81700038909912 17.94239807128906 13.12470054626465 28.65869903564453 C 14.11604976654053 36.78128433227539 21.67135047912598 42.91737365722656 24.54568862915039 45.99029922485352 C 25.65426254272461 43.18951034545898 27.87371253967285 37.12387466430664 27.71369934082031 29.32199859619141 C 27.50850105285645 19.33199882507324 18.65609931945801 10.93139839172363 19.02239990234375 6.482698440551758 C 19.2482738494873 3.739460229873657 21.75955963134766 2.699001312255859 24.67898368835449 2.699001312255859 C 26.49398040771484 2.699001312255859 28.46647071838379 3.100945472717285 30.14640045166016 3.745798587799072 C 34.52939987182617 5.428798675537109 37.4651985168457 10.94039821624756 37.4651985168457 10.94039821624756 C 37.4651985168457 10.94039821624756 43.32419967651367 25.3538990020752 43.32329940795898 34.7516975402832 C 43.3223991394043 43.70129776000977 39.99959945678711 49.70969772338867 38.92589950561523 52.78949737548828 C 38.18463897705078 54.91618728637695 36.48412704467773 57.06598663330078 34.3834114074707 59.06482315063477 C 35.33174896240234 60.58284759521484 36.13206100463867 62.2745475769043 36.63000106811523 64.19341278076172 C 38.81340026855469 72.60391235351563 39.94380187988281 74.01419830322266 39.94380187988281 74.01419830322266 L 40.18140029907227 80.83531188964844 C 41.07690048217773 85.44329833984375 38.06819915771484 89.90549468994141 33.45930099487305 90.80099487304688 C 32.89117431640625 90.91140747070313 32.33867263793945 90.96475219726563 31.80590438842773 90.96479034423828 C 28.01745414733887 90.96506500244141 25.1983814239502 88.26987457275391 24.41250038146973 84.22920227050781 L 24.1919994354248 77.91120147705078 L 22.42799949645996 67.67910003662109 C 22.42799949645996 67.67910003662109 22.37467575073242 67.59657287597656 22.2734375 67.44134521484375 C 21.8668384552002 67.64827728271484 21.49667549133301 67.82778930664063 21.1697998046875 67.97791290283203 C 16.9955997467041 69.89491271972656 11.88269996643066 81.31320190429688 11.45429992675781 82.67129516601563 C 11.02500057220459 84.02851104736328 11.07089996337891 85.99951171875 11.07089996337891 85.99951171875 C 11.50590991973877 89.61676025390625 7.457690238952637 91.91289520263672 3.577198266983032 91.91289520263672 Z"/>
    </g>
  </g>
</svg>
