<svg xmlns="http://www.w3.org/2000/svg" width="54.252" height="188.21" viewBox="0 0 54.252 188.21">
  <defs>
    <style>
      .cls-1 {
        fill: #fff;
        stroke-linecap: round;
        stroke-linejoin: round;
      }

      .cls-2, .cls-3 {
        stroke: none;
      }

      .cls-3 {
        fill: #9a9a9a;
      }
    </style>
  </defs>
  <g id="ch9-1" class="cls-1" transform="translate(0.224 0.012)">
    <path class="cls-2" d="M 28.52555084228516 187.1986236572266 C 23.23059844970703 187.1986236572266 18.48288536071777 186.4958801269531 14.4142894744873 185.1098785400391 C 11.18290901184082 184.0090942382813 8.370242118835449 182.4768371582031 6.054385185241699 180.5557098388672 C 2.573080778121948 177.6677551269531 1.263587355613708 174.7428131103516 1.000004053115845 174.0835418701172 L 1.000004053115845 147.8255310058594 C 2.161988019943237 146.7560882568359 6.076364040374756 143.002197265625 10.03959941864014 137.4858551025391 C 14.33483695983887 131.5073852539063 19.4549560546875 122.2741928100586 19.4549560546875 112.2382888793945 C 19.4549560546875 104.2124557495117 16.30317115783691 94.83992767333984 10.08712291717529 84.38107299804688 C 6.077784538269043 77.63515472412109 2.014048099517822 72.59382629394531 1.000004053115845 71.36759185791016 L 1.000004053115845 20.56861877441406 L 1.000004053115845 20.46554756164551 L 0.9789801836013794 20.36464309692383 C 0.9758373498916626 20.34923934936523 0.6303849816322327 18.62007141113281 0.8495754599571228 16.23747634887695 C 1.139003992080688 13.09133338928223 2.224242210388184 10.34630966186523 4.075075626373291 8.078643798828125 C 5.796741962432861 5.969262599945068 8.183956146240234 4.304595947265625 11.17038536071777 3.130905389785767 C 14.78788471221924 1.709214806556702 19.33269500732422 0.9883576631546021 24.67852783203125 0.9883576631546021 C 25.04917144775391 0.9883576631546021 25.41336059570313 0.9916433691978455 25.79190826416016 0.9984290599822998 C 31.64421844482422 1.103357672691345 36.67295455932617 1.966381430625916 40.73843383789063 3.56354808807373 C 44.07355117797852 4.873786449432373 46.79207611083984 6.689714908599854 48.81852722167969 8.960833549499512 C 50.79481506347656 11.17576217651367 52.10019302368164 13.77852439880371 52.69841003417969 16.69680976867676 C 53.14874267578125 18.89366722106934 53.00631332397461 20.45502471923828 53.00483703613281 20.47054862976074 L 53.00024032592773 20.51828575134277 L 53.00000381469727 20.56861877441406 L 53.00000381469727 71.43195343017578 C 52.24620056152344 72.59420776367188 49.09881210327148 77.57282257080078 45.99519348144531 84.31740570068359 C 42.7160758972168 91.443359375 38.80724334716797 102.0718078613281 38.80724334716797 112.2382888793945 C 38.80724334716797 122.4267349243164 42.72817230224609 132.0653991699219 46.01741027832031 138.3571472167969 C 49.10534286499023 144.2637939453125 52.15636444091797 148.3188171386719 53.00000381469727 149.3996887207031 L 53.00000381469727 174.21337890625 C 52.95985412597656 174.5440368652344 52.51657867431641 177.595947265625 49.59767150878906 180.6117553710938 C 47.77878952026367 182.4910430908203 45.36407470703125 183.9960021972656 42.42062377929688 185.0847930908203 C 38.68674087524414 186.4659729003906 34.09286117553711 187.177001953125 28.76652717590332 187.1981506347656 C 28.68693351745605 187.1984710693359 28.6047191619873 187.1986236572266 28.52555084228516 187.1986236572266 Z"/>
    <path class="cls-3" d="M 24.67851257324219 1.988327026367188 C 19.46731185913086 1.988327026367188 15.05158615112305 2.68353271484375 11.55398559570313 4.054580688476563 C 8.730136871337891 5.16156005859375 6.479938507080078 6.721527099609375 4.865936279296875 8.691177368164063 C 3.148712158203125 10.78678894042969 2.134811401367188 13.33152770996094 1.852363586425781 16.2547607421875 C 1.639438629150391 18.45849609375 1.942100524902344 20.078125 1.958755493164063 20.16445922851563 C 1.988182067871094 20.30184936523438 1.999988555908203 20.42779541015625 1.999988555908203 20.568603515625 L 1.999988555908203 71.00703430175781 C 3.316181182861328 72.61359405517578 7.110240936279297 77.41501617431641 10.94673919677734 83.87015533447266 C 17.25593566894531 94.48573303222656 20.4549617767334 104.0301284790039 20.4549617767334 112.23828125 C 20.4549617767334 120.3926315307617 17.13421249389648 129.3248596191406 10.85173797607422 138.0693359375 C 7.151657104492188 143.2193908691406 3.482330322265625 146.8646087646484 1.999988555908203 148.2603607177734 L 1.999988555908203 173.8836822509766 C 2.355991363525391 174.7028350830078 3.661487579345703 177.3057403564453 6.800662994384766 179.8749084472656 C 9.026138305664063 181.6962585449219 11.72996139526367 183.1505126953125 14.83706283569336 184.1972503662109 C 18.77898788452148 185.5252532958984 23.38446235656738 186.1986083984375 28.52553749084473 186.1986083984375 C 28.60336303710938 186.1986083984375 28.68423652648926 186.1984558105469 28.76258659362793 186.1981506347656 C 33.91763687133789 186.1776885986328 38.35858917236328 185.5013275146484 41.96206283569336 184.1879119873047 C 44.75908660888672 183.1684112548828 47.05221176147461 181.76611328125 48.77773666381836 180.0199584960938 C 51.46608734130859 177.2995147705078 51.93646621704102 174.6196899414063 51.9999885559082 174.1516876220703 L 51.9999885559082 149.7406616210938 C 50.91419982910156 148.3218841552734 48.0336799621582 144.3723449707031 45.13121032714844 138.8204345703125 C 41.79006195068359 132.4293823242188 37.8072624206543 122.6297302246094 37.8072624206543 112.23828125 C 37.8072624206543 103.9309310913086 40.25643920898438 94.39633178710938 45.08676147460938 83.89938354492188 C 48.06677627563477 77.42335510253906 51.01615905761719 72.66584014892578 51.9999885559082 71.13536071777344 L 51.9999885559082 20.568603515625 C 51.9999885559082 20.49662780761719 52.00192642211914 20.44317626953125 52.00957870483398 20.37242126464844 C 52.01739120483398 20.27680969238281 52.12520217895508 18.82508850097656 51.70098876953125 16.81210327148438 C 51.1271858215332 14.08915710449219 49.89726257324219 11.66148376464844 48.04538726806641 9.596435546875 C 46.12141418457031 7.451034545898438 43.53038787841797 5.73065185546875 40.34431457519531 4.483139038085938 C 36.39513778686523 2.93682861328125 31.49296188354492 2.100784301757813 25.77398681640625 1.998260498046875 C 25.4012622833252 1.9915771484375 25.04293823242188 1.988327026367188 24.67851257324219 1.988327026367188 M 24.67850685119629 -0.01165771484375 C 25.05097579956055 -0.01165771484375 25.42629051208496 -0.00830078125 25.80983734130859 -0.0014190673828125 C 56.02148818969727 0.5402069091796875 53.9999885559082 20.568603515625 53.9999885559082 20.568603515625 L 53.9999885559082 71.73033142089844 C 53.9999885559082 71.73033142089844 39.8072624206543 92.907958984375 39.8072624206543 112.23828125 C 39.8072624206543 131.568603515625 53.9999885559082 149.0516510009766 53.9999885559082 149.0516510009766 L 53.9999885559082 174.2653045654297 C 53.9999885559082 174.2653045654297 52.87116241455078 188.1024780273438 28.77051162719727 188.1981353759766 C 28.68960762023926 188.1984558105469 28.60600090026855 188.1986236572266 28.52553558349609 188.1986236572266 C 4.635643005371094 188.1986236572266 -1.1444091796875e-05 174.2653045654297 -1.1444091796875e-05 174.2653045654297 L -1.1444091796875e-05 147.3818054199219 C -1.1444091796875e-05 147.3818054199219 18.45496368408203 131.1511535644531 18.45496368408203 112.23828125 C 18.45496368408203 93.32540893554688 -1.1444091796875e-05 71.73033142089844 -1.1444091796875e-05 71.73033142089844 L -1.1444091796875e-05 20.568603515625 C -1.1444091796875e-05 20.568603515625 -4.288105010986328 -0.01165771484375 24.67850685119629 -0.01165771484375 Z"/>
  </g>
</svg>
