<svg xmlns="http://www.w3.org/2000/svg" width="85.645" height="105.205" viewBox="0 0 85.645 105.205">
  <defs>
    <style>
      .cls-1 {
        fill: #fff;
      }

      .cls-2, .cls-3 {
        stroke: none;
      }

      .cls-3 {
        fill: #707070;
      }
    </style>
  </defs>
  <g id="ch9" transform="translate(-377.325 -349.832)">
    <g id="ch9-1" class="cls-1" transform="matrix(-0.999, -0.035, 0.035, -0.999, 418.917, 452.452)">
      <path class="cls-2" d="M 32.4139518737793 100.7319946289063 C 30.6991138458252 100.7321319580078 29.14858055114746 100.1374740600586 27.92999267578125 99.01235961914063 C 26.72421073913574 97.89904022216797 25.89077568054199 96.31867218017578 25.51830863952637 94.44001770019531 L 25.29919242858887 88.16097259521484 L 24.64939308166504 69.54537200927734 L 24.64176559448242 69.32695770263672 L 24.47627258300781 69.18419647216797 C 24.46224594116211 69.17208862304688 23.05093955993652 67.95224761962891 21.15297889709473 66.10771942138672 L 20.69657897949219 65.66415405273438 L 20.37365913391113 66.21258544921875 C 17.58421897888184 70.94985961914063 16.30679321289063 77.32205963134766 15.72636604309082 81.83347320556641 C 15.09959316253662 86.70500946044922 15.12727355957031 90.52286529541016 15.1276330947876 90.56085205078125 L 15.13120651245117 93.87235260009766 L 15.13123321533203 93.90203857421875 L 15.13477993011475 93.93150329589844 C 15.26852607727051 95.04364013671875 14.93815326690674 96.05648803710938 14.15284633636475 96.94194030761719 C 12.89071273803711 98.36505126953125 10.52904605865479 99.28469085693359 8.13620662689209 99.28485107421875 C 7.112659931182861 99.28491973876953 6.123899936676025 99.11307525634766 5.276793003082275 98.78791809082031 C 3.824899911880493 98.23059844970703 3.004233121871948 97.6263427734375 2.615833282470703 96.82867431640625 C 2.243806600570679 96.06462097167969 2.238273143768311 95.08035278320313 2.231286525726318 93.83422088623047 C 2.226683378219604 93.01348114013672 2.221465826034546 92.08372497558594 2.114625930786133 91.01210021972656 L 1.908507823944092 85.11479949951172 C 1.95295238494873 84.68994140625 2.429406881332397 80.26122283935547 3.507379770278931 74.88654327392578 C 4.994606494903564 67.47138214111328 6.945940017700195 61.62915802001953 9.150420188903809 57.99143600463867 C 9.843273162841797 56.84811782836914 10.6283130645752 55.78962326049805 11.48376655578613 54.84532928466797 L 11.71291351318359 54.59238433837891 L 11.56081962585449 54.28682327270508 C 11.04469966888428 53.24996948242188 10.71556663513184 52.30865097045898 10.58255290985107 51.48900985717773 C 9.491650581359863 44.77257537841797 0.7003833055496216 9.459495544433594 0.4901189804077148 8.615422248840332 C 0.03185324370861053 6.248578548431396 0.1177714988589287 4.306512355804443 0.7455798387527466 2.843263149261475 C 1.432913184165955 1.241316437721252 2.794793128967285 0.2321297526359558 4.793393135070801 -0.1562835872173309 C 5.392686367034912 -0.272843599319458 6.034899711608887 -0.3319369256496429 6.702273368835449 -0.3319369256496429 C 8.804512977600098 -0.3319369256496429 11.01463317871094 0.251196414232254 12.76595306396484 1.267916440963745 C 14.10043334960938 2.042649745941162 15.77925968170166 3.41886305809021 16.19880676269531 5.575582981109619 L 16.19951248168945 5.579249858856201 L 16.20028686523438 5.582902908325195 C 16.25339317321777 5.835662841796875 21.53866004943848 30.99599647521973 23.99516677856445 42.84259796142578 L 24.98087310791016 42.80329132080078 C 25.58355331420898 37.99718475341797 26.03039360046387 27.53200912475586 26.29912567138672 19.59913063049316 C 26.49319267272949 13.87600994110107 25.57379341125488 9.054636001586914 24.76832580566406 6.017809867858887 C 24.09673690795898 3.485706806182861 23.4036979675293 1.764521479606628 23.10016250610352 1.064302325248718 C 24.00931739807129 0.3004534840583801 27.0821590423584 -2.076670169830322 30.10595321655273 -2.076670169830322 C 30.74616622924805 -2.076670169830322 31.35324668884277 -1.968243598937988 31.91031265258789 -1.754416942596436 C 35.96560668945313 -0.1972400546073914 38.86133575439453 6.784507751464844 38.98775100708008 7.09409761428833 C 39.03855514526367 7.242236614227295 39.6321907043457 9.002847671508789 40.16143417358398 11.86050319671631 C 40.66905975341797 14.60147666931152 41.21967315673828 18.94192886352539 40.96004486083984 24.05414390563965 C 40.21371459960938 38.74482345581055 39.32310104370117 47.93323516845703 38.38447189331055 50.62602233886719 C 37.42688751220703 53.37223815917969 34.99259185791016 54.86750411987305 31.90974044799805 56.5368766784668 L 31.37125968933105 56.82846450805664 L 31.76463317871094 57.29775619506836 C 33.21628570556641 59.02955627441406 35.25348663330078 61.74520874023438 36.1811408996582 65.31893157958984 C 38.27600860595703 73.39169311523438 39.95017242431641 83.69486236572266 40.05269241333008 84.33091735839844 L 40.28920745849609 91.11991882324219 L 40.29058074951172 91.15928649902344 L 40.29809951782227 91.19798278808594 C 40.70612716674805 93.29547882080078 40.27279281616211 95.42631530761719 39.07791137695313 97.19795989990234 C 37.88306045532227 98.96958160400391 36.06984710693359 100.1697540283203 33.97231292724609 100.5773849487305 C 33.44449996948242 100.6799392700195 32.92019271850586 100.7319564819336 32.4139518737793 100.7319946289063 Z"/>
      <path class="cls-3" d="M 32.4139289855957 100.2319869995117 L 32.41391372680664 100.2319869995117 C 32.88831329345703 100.2319488525391 33.38054275512695 100.1830215454102 33.87693023681641 100.0865783691406 C 35.84335708618164 99.70442199707031 37.543212890625 98.57927703857422 38.66338729858398 96.91838836669922 C 39.78357315063477 95.25747680664063 40.18982696533203 93.25984954833984 39.80730056762695 91.29346466064453 L 39.79225540161133 91.21608734130859 L 39.78950119018555 91.13732147216797 L 39.5540771484375 84.37959289550781 C 39.41236114501953 83.50341033935547 37.75798797607422 73.38613128662109 35.69717025756836 65.44454956054688 C 34.79494094848633 61.96871948242188 32.8020133972168 59.31367492675781 31.38145637512207 57.61894607543945 L 30.59471321105957 56.68036270141602 L 31.67165756225586 56.09719085693359 C 34.75782775878906 54.42601776123047 37.01197052001953 53.04354858398438 37.91231536865234 50.46146011352539 C 38.55609893798828 48.61453247070313 39.52080154418945 42.52949142456055 40.46068572998047 24.02878952026367 C 40.71728515625 18.97638893127441 40.17472839355469 14.68600368499756 39.67440032958984 11.97651863098145 C 39.16188430786133 9.20097541809082 38.58776092529297 7.471068859100342 38.51928329467773 7.269490242004395 C 38.43424987792969 7.062356472015381 37.716796875 5.345752239227295 36.55105590820313 3.48194694519043 C 34.97925567626953 0.9689183235168457 33.31252670288086 -0.6803816556930542 31.73112869262695 -1.287610292434692 C 31.23147201538086 -1.479410290718079 30.68468475341797 -1.576667428016663 30.10594177246094 -1.576667428016663 C 27.50216865539551 -1.576667428016663 24.81969833374023 0.3236975967884064 23.70592498779297 1.214066863059998 C 24.06064033508301 2.074114322662354 24.66572570800781 3.680640459060669 25.25161361694336 5.889632701873779 C 26.06571388244629 8.959018707275391 26.99497032165527 13.83198928833008 26.798828125 19.61606025695801 C 26.52974319458008 27.5593318939209 26.08198547363281 38.04080581665039 25.47698593139648 42.86550521850586 L 23.50558471679688 42.94411849975586 C 21.04921340942383 31.0981616973877 15.76405715942383 5.938446998596191 15.71095657348633 5.685689926147461 L 15.70942878723145 5.678389549255371 L 15.70800018310547 5.671061038970947 C 15.32429981231689 3.69858980178833 13.75979995727539 2.423046827316284 12.51491451263428 1.700332641601563 C 10.83758544921875 0.7265611886978149 8.71895694732666 0.1680754572153091 6.702271461486816 0.1680754572153091 C 6.066813945770264 0.1680754572153091 5.456714153289795 0.2240754663944244 4.888771057128906 0.3345325887203217 C 3.036814212799072 0.694446861743927 1.831871271133423 1.579532623291016 1.205071210861206 3.040418386459351 C 0.6185630559921265 4.40736722946167 0.5423386693000793 6.246554374694824 0.9784935712814331 8.507443428039551 C 1.428552150726318 10.31340980529785 9.979873657226563 44.65977096557617 11.07608509063721 51.40891647338867 C 11.20104312896729 52.17890548706055 11.51472854614258 53.07220458984375 12.0084285736084 54.06400299072266 L 12.31262874603271 54.67511749267578 L 11.85432815551758 55.1810188293457 C 11.02022838592529 56.10173416137695 10.25437164306641 57.13449096679688 9.578014373779297 58.25057601928711 C 7.404228210449219 61.837646484375 5.475214004516602 67.62100219726563 3.999514102935791 74.97538757324219 C 2.948408842086792 80.2137451171875 2.470944881439209 84.55183410644531 2.409417390823364 85.13234710693359 L 2.613757371902466 90.97859954833984 C 2.721373319625854 92.06668090820313 2.726632118225098 93.00373840332031 2.731271266937256 93.8314208984375 C 2.737914085388184 95.01397705078125 2.743156909942627 95.94803619384766 3.06537127494812 96.60978698730469 C 3.286657094955444 97.06426239013672 3.758371353149414 97.66948699951172 5.455971240997314 98.32112121582031 C 6.246442794799805 98.62455749511719 7.173242568969727 98.78491973876953 8.136157035827637 98.78484344482422 C 10.39241409301758 98.78470611572266 12.60727119445801 97.93109130859375 13.77878570556641 96.61017608642578 C 14.46508598327637 95.83633422851563 14.75428581237793 94.95519256591797 14.63835716247559 93.99120330810547 L 14.63127136230469 93.93225860595703 L 14.63119983673096 93.87288665771484 L 14.62760448455811 90.56113433837891 C 14.62580299377441 90.35008239746094 14.60426902770996 86.63661193847656 15.23044300079346 81.76967620849609 C 16.0833854675293 75.14024353027344 17.66885757446289 69.82071685791016 19.94280052185059 65.95887756347656 L 20.58865737915039 64.86203002929688 L 21.50145721435547 65.7491455078125 C 23.38707160949707 67.58170318603516 24.78894233703613 68.7935791015625 24.80288505554199 68.80560302734375 L 25.13384246826172 69.09114837646484 L 25.14908599853516 69.52791595458984 L 25.79888534545898 88.14353179931641 L 26.01657295227051 94.3818359375 C 26.74661254882813 97.99292755126953 29.19210433959961 100.2322311401367 32.4139289855957 100.2319869995117 M 32.41400146484375 101.2319869995117 C 28.62494277954102 101.2322769165039 25.80588531494141 98.53717803955078 25.02000045776367 94.49730682373047 L 24.79949951171875 88.17840576171875 L 24.14970016479492 69.56280517578125 C 24.14970016479492 69.56280517578125 22.73692893981934 68.34430694580078 20.80451393127441 66.46627807617188 C 15.48775672912598 75.49571990966797 15.62759971618652 90.55620574951172 15.62759971618652 90.55620574951172 L 15.63119983673096 93.87180328369141 C 16.06622314453125 97.48921966552734 12.01688861846924 99.78459167480469 8.136231422424316 99.78485107421875 C 7.079349517822266 99.78491973876953 6.035589694976807 99.61476135253906 5.097599983215332 99.25470733642578 C 0.7154998183250427 97.57260131835938 2.06279993057251 95.49540710449219 1.61549985408783 91.04580688476563 L 1.407599806785583 85.09770202636719 C 1.407599806785583 85.09770202636719 3.256199836730957 66.75300598144531 8.722800254821777 57.73230361938477 C 9.474185943603516 56.49240493774414 10.27939987182617 55.43004608154297 11.11321449279785 54.5096321105957 C 10.59889984130859 53.47641754150391 10.23737144470215 52.48336029052734 10.08899974822998 51.5691032409668 C 8.981100082397461 44.74800491333008 0.001799838268198073 8.72370433807373 0.001799838268198073 8.72370433807373 C -0.8937001824378967 4.11570405960083 0.08999983966350555 0.2484040260314941 4.697999954223633 -0.6470959782600403 C 5.336562156677246 -0.7712920308113098 6.011489868164063 -0.8319298624992371 6.702269077301025 -0.8319298624992371 C 10.99727439880371 -0.8319298624992371 15.91739559173584 1.510541558265686 16.68959999084473 5.480103969573975 C 16.68959999084473 5.480103969573975 21.99970054626465 30.75679016113281 24.48475646972656 42.74107360839844 C 25.05660057067871 38.18083190917969 25.49732780456543 28.49930381774902 25.79940032958984 19.58220481872559 C 26.17110061645508 8.62110424041748 22.49189949035645 0.9306040406227112 22.49189949035645 0.9306040406227112 C 22.49189949035645 0.9306040406227112 26.27627182006836 -2.576663494110107 30.10594177246094 -2.576663494110107 C 30.77253150939941 -2.576663494110107 31.43983459472656 -2.470574617385864 32.08950042724609 -2.221195936203003 C 36.47249984741211 -0.5381959676742554 39.45600128173828 6.918303966522217 39.45600128173828 6.918303966522217 C 39.45600128173828 6.918303966522217 41.96789932250977 14.06700420379639 41.45940017700195 24.07950401306152 C 40.88969802856445 35.29350280761719 40.03020095825195 47.42370223999023 38.85660171508789 50.79060363769531 C 37.82078552246094 53.76117706298828 35.21255874633789 55.31698989868164 32.1478271484375 56.97654724121094 C 34.02677154541016 59.21811676025391 35.80075836181641 61.86344528198242 36.66510009765625 65.19330596923828 C 38.84759902954102 73.60380554199219 40.55130004882813 84.28230285644531 40.55130004882813 84.28230285644531 L 40.78889846801758 91.10250091552734 C 41.68529891967773 95.71050262451172 38.67570114135742 100.1727066040039 34.06769943237305 101.0682067871094 C 33.49946975708008 101.1786193847656 32.94684219360352 101.2319488525391 32.41400146484375 101.2319869995117 Z"/>
    </g>
    <g id="ch9-2" class="cls-1" transform="matrix(-0.999, -0.035, 0.035, -0.999, 460.917, 452.452)">
      <path class="cls-2" d="M 30.57293701171875 95.41206359863281 C 28.85810089111328 95.412109375 27.3075122833252 94.81729888916016 26.08878707885742 93.69193267822266 C 24.88288879394531 92.57839965820313 24.04939651489258 90.99793243408203 23.67691040039063 89.11925506591797 L 23.45779991149902 82.84107208251953 L 22.92770004272461 67.66164398193359 L 22.92036247253418 67.45164489746094 L 22.76518821716309 67.30991363525391 C 22.76283836364746 67.30774688720703 22.52458763122559 67.08993530273438 22.12277603149414 66.70549774169922 L 21.70406341552734 66.30490875244141 L 21.36911201477051 66.77777099609375 C 21.15476226806641 67.08038330078125 20.94516372680664 67.39483642578125 20.74613761901855 67.71237182617188 C 16.16387557983398 75.02371215820313 15.63955020904541 79.40351104736328 15.38757514953613 81.50833892822266 C 15.33125019073486 81.97887420654297 15.28674983978271 82.35053253173828 15.21738815307617 82.57029724121094 C 14.76918792724609 83.99115753173828 14.8090124130249 85.97746276855469 14.81092548370361 86.06132507324219 L 14.81148815155029 86.08554840087891 L 14.81437492370605 86.10961151123047 C 14.94815063476563 87.22196197509766 14.61768817901611 88.23503875732422 13.83217525482178 89.12068176269531 C 12.57002544403076 90.54373168945313 10.20866298675537 91.46327209472656 7.816337585449219 91.46329498291016 C 6.792462825775146 91.46332550048828 5.803537845611572 91.29137420654297 4.956462860107422 90.96603393554688 C 3.504500389099121 90.40868377685547 2.683837890625 89.80445098876953 2.295437812805176 89.00677490234375 C 1.923400282859802 88.24271392822266 1.917875289916992 87.25844573974609 1.910887837409973 86.01232147216797 C 1.906302571296692 85.19449615478516 1.901096701622009 84.26844024658203 1.795357823371887 83.20163726806641 C 1.800374388694763 82.77153015136719 1.885019898414612 77.17011260986328 2.870800256729126 73.36748504638672 C 2.940587759017944 73.09853363037109 3.005262851715088 72.84537506103516 3.066800355911255 72.60452270507813 C 3.923975229263306 69.24974822998047 4.154350280761719 68.34808349609375 9.219699859619141 59.99034881591797 C 10.15796279907227 58.44233703613281 11.21596240997314 57.10918426513672 12.45413780212402 55.91473388671875 L 12.74002552032471 55.63894653320313 L 12.53602504730225 55.29811096191406 C 11.43613815307617 53.46039962768555 10.76707553863525 51.84241104125977 10.54743766784668 50.48909759521484 C 9.453587532043457 43.74899673461914 4.076675415039063 7.84513521194458 4.022487640380859 7.483260154724121 L 4.020887851715088 7.472560405731201 L 4.018825531005859 7.461935043334961 C 3.557725429534912 5.088810443878174 3.642837762832642 3.142285346984863 4.271775245666504 1.67641019821167 C 4.959062576293945 0.0745602548122406 6.320975303649902 -0.9347897171974182 8.319675445556641 -1.323602199554443 C 8.918499946594238 -1.439952254295349 9.56038761138916 -1.498964786529541 10.22740077972412 -1.498964786529541 C 12.32988739013672 -1.498964786529541 14.54025077819824 -0.91591477394104 16.29171371459961 0.1006602570414543 C 17.60748863220215 0.8643657565116882 19.25798225402832 2.212772607803345 19.70644950866699 4.317248344421387 C 19.60102653503418 4.892805099487305 19.06015586853027 7.941905498504639 18.65767478942871 12.02512264251709 C 18.24596214294434 16.2018985748291 17.89814949035645 22.35218620300293 18.57918739318848 27.93267250061035 C 19.44617462158203 35.03636169433594 22.2332878112793 41.04268646240234 23.89852523803711 44.63134765625 L 24.07046318054199 45.00209808349609 L 24.82438850402832 46.62990951538086 L 25.02115058898926 44.84679794311523 C 26.02722549438477 35.72903823852539 25.7870044708252 5.689878463745117 25.77013969421387 3.736957788467407 C 26.3006706237793 2.427821397781372 27.38831520080566 1.337637066841125 28.92150115966797 0.5800352692604065 C 30.36628723144531 -0.1338897496461868 32.16746139526367 -0.5270772576332092 33.99322509765625 -0.5270772576332092 C 35.42093658447266 -0.5270772576332092 36.79326248168945 -0.2898522317409515 37.96183776855469 0.1589602530002594 C 38.83783721923828 0.4952227473258972 39.52586364746094 1.177322745323181 40.00687408447266 2.186360359191895 C 40.4114875793457 3.035122871398926 40.67336273193359 4.112522602081299 40.78525161743164 5.388660430908203 C 40.97919845581055 7.60083532333374 40.64907455444336 9.634260177612305 40.64571380615234 9.654535293579102 L 40.63892364501953 9.695509910583496 L 40.63899993896484 9.737048149108887 C 40.63962554931641 10.10148525238037 40.67517471313477 46.2541618347168 38.45377349853516 52.62487411499023 C 37.66042709350586 54.90099716186523 35.902587890625 56.29388427734375 33.50730133056641 57.68503570556641 L 33.03848648071289 57.95730972290039 L 33.34772491455078 58.4025993347168 C 34.70465087890625 60.35651016235352 35.61997604370117 62.29178619384766 36.14602661132813 64.31900024414063 C 38.28502655029297 72.55843353271484 38.21096420288086 78.89047241210938 38.2099609375 78.95347595214844 L 38.20976257324219 78.96613311767578 L 38.21020126342773 78.97889709472656 L 38.44779968261719 85.79999542236328 L 38.44917678833008 85.83934783935547 L 38.45668792724609 85.87798309326172 C 38.86433792114258 87.97563171386719 38.43087387084961 90.10651397705078 37.23617553710938 91.87808227539063 C 36.04141235351563 93.64971923828125 34.22832489013672 94.84988403320313 32.13091278076172 95.25748443603516 C 31.60309982299805 95.36003875732422 31.07891273498535 95.41204833984375 30.57293701171875 95.41206359863281 Z"/>
      <path class="cls-3" d="M 30.57292366027832 94.91205596923828 C 31.04698944091797 94.91204071044922 31.53909683227539 94.86312103271484 32.03553771972656 94.76665496826172 C 34.00181579589844 94.38455200195313 35.7015495300293 93.2593994140625 36.82162857055664 91.59851837158203 C 37.94166946411133 89.93765258789063 38.34804534912109 87.93994903564453 37.96585845947266 85.97337341308594 L 37.95084381103516 85.89609527587891 L 37.94809722900391 85.81741333007813 L 37.71049880981445 78.99632263183594 L 37.70962905883789 78.97077178955078 L 37.71001815795898 78.94567108154297 C 37.71099090576172 78.88323974609375 37.78164291381836 72.6092529296875 35.66205596923828 64.44457244873047 C 35.15106964111328 62.47544097900391 34.25971221923828 60.59238815307617 32.93704223632813 58.68781661987305 L 32.31855010986328 57.79721450805664 L 33.25617599487305 57.25267028808594 C 35.55538940429688 55.91732025146484 37.23886871337891 54.59133529663086 37.98165512084961 52.46024322509766 C 38.60693740844727 50.66701507568359 39.44486999511719 45.10535049438477 39.88589859008789 28.79321479797363 C 40.15140533447266 18.97322845458984 40.13916397094727 9.829121589660645 40.13900375366211 9.737895011901855 L 40.13898849487305 9.654842376708984 L 40.15230941772461 9.573615074157715 C 40.15559005737305 9.553615570068359 40.47806930541992 7.548922061920166 40.2840576171875 5.397401809692383 C 40.17509841918945 4.189082145690918 39.92773818969727 3.176428556442261 39.54887008666992 2.387575149536133 C 39.11941528320313 1.493415236473083 38.54170989990234 0.917121946811676 37.78256225585938 0.6257219314575195 C 36.67061614990234 0.198668584227562 35.36028289794922 -0.02706474624574184 33.99322891235352 -0.02706474624574184 C 32.24279022216797 -0.02706474624574184 30.52028274536133 0.3477352559566498 29.14300346374512 1.028295278549194 C 28.16743659973145 1.510362029075623 26.89530944824219 2.384029388427734 26.27107238769531 3.834827184677124 C 26.29706382751465 6.784093379974365 26.52446174621582 35.78170776367188 25.51813697814941 44.90164184570313 L 25.1246166229248 48.46785354614258 L 23.61676406860352 45.21222686767578 L 23.44501686096191 44.84186935424805 C 21.76733779907227 41.2264404296875 18.95943069458008 35.17529678344727 18.08285713195801 27.99322891235352 C 17.39631080627441 22.36750793457031 17.74591064453125 16.17789459228516 18.16008377075195 11.97608184814453 C 18.54984283447266 8.022006988525391 19.05509376525879 5.10451602935791 19.19624137878418 4.326910018920898 C 18.75625038146973 2.454715013504028 17.24816131591797 1.233928799629211 16.04072380065918 0.5331085920333862 C 14.36323070526123 -0.4405447542667389 12.24436378479004 -0.9989580512046814 10.22740364074707 -0.9989580512046814 C 9.592350006103516 -0.9989580512046814 8.982550621032715 -0.9430381059646606 8.41515064239502 -0.8327980637550354 C 6.563056945800781 -0.472504734992981 5.358043670654297 0.4127485752105713 4.731270313262939 1.873561978340149 C 4.142590522766113 3.245588541030884 4.06803035736084 5.093708515167236 4.5096435546875 7.366575241088867 L 4.513776779174805 7.387828350067139 L 4.516976833343506 7.409228801727295 C 4.571163654327393 7.771081924438477 9.947616577148438 43.67190933227539 11.04097652435303 50.40901565551758 C 11.2504301071167 51.69958877563477 11.89777660369873 53.25812149047852 12.96505737304688 55.04132080078125 L 13.37305736541748 55.72300338745117 L 12.80129718780518 56.27457427978516 C 11.59456348419189 57.4387092590332 10.56287002563477 58.73892211914063 9.647296905517578 60.24950790405273 C 4.62041711807251 68.54376220703125 4.393937110900879 69.43019104003906 3.551256895065308 72.728271484375 C 3.489563703536987 72.96968078613281 3.424723625183105 73.22345733642578 3.354803562164307 73.49295043945313 C 2.400569438934326 77.17387390136719 2.303379774093628 82.59614562988281 2.295658349990845 83.18009948730469 C 2.401057720184326 84.25825500488281 2.406270265579224 85.187744140625 2.410883665084839 86.009521484375 C 2.417510271072388 87.19208526611328 2.422750234603882 88.12613677978516 2.744976997375488 88.78789520263672 C 2.966270208358765 89.24236297607422 3.437977075576782 89.84758758544922 5.13572359085083 90.49928283691406 C 5.926190376281738 90.80287170410156 6.853123664855957 90.96332550048828 7.816323757171631 90.96331024169922 C 10.07205677032471 90.96327209472656 12.28659057617188 90.10976409912109 13.45810985565186 88.78890991210938 C 14.14461708068848 88.01488494873047 14.43391036987305 87.13352203369141 14.31795024871826 86.1693115234375 L 14.31217670440674 86.12118530273438 L 14.31107044219971 86.07273864746094 C 14.3090705871582 85.98549652099609 14.26772403717041 83.91885375976563 14.74057674407959 82.41979217529297 C 14.79587078094482 82.24465179443359 14.84000396728516 81.87589263916016 14.89112377166748 81.44890594482422 C 15.14741706848145 79.30799102783203 15.68073654174805 74.85309600830078 20.32246971130371 67.44683837890625 C 20.52643013000488 67.12142944335938 20.74129676818848 66.79907989501953 20.96109771728516 66.48876190185547 L 21.63099098205566 65.54299926757813 L 22.46842956542969 66.34421539306641 C 22.86507034301758 66.72369384765625 23.10011100769043 66.93862915039063 23.10235023498535 66.94068145751953 L 23.41272354125977 67.22413635253906 L 23.42739105224609 67.64418792724609 L 23.95748329162598 82.82363128662109 L 24.17517852783203 89.06104278564453 C 24.90529441833496 92.67253112792969 27.3509407043457 94.91216278076172 30.57292366027832 94.91205596923828 M 30.57295036315918 95.91205596923828 C 26.78389739990234 95.91217803955078 23.9644832611084 93.21637725830078 23.17860412597656 89.17649841308594 L 22.95809745788574 82.85850524902344 L 22.42800331115723 67.67909240722656 C 22.42800331115723 67.67909240722656 22.18885612487793 67.460693359375 21.77712440490723 67.0667724609375 C 21.56964302062988 67.35969543457031 21.36729621887207 67.66280364990234 21.16980361938477 67.9779052734375 C 15.55289745330811 76.94010925292969 16.12260437011719 81.36360168457031 15.69420337677002 82.72080230712891 C 15.26580333709717 84.07891082763672 15.31080341339111 86.04991149902344 15.31080341339111 86.04991149902344 C 15.74582195281982 89.66732025146484 11.69699478149414 91.96324920654297 7.816340923309326 91.96330261230469 C 6.759459972381592 91.96332550048828 5.715191841125488 91.79304504394531 4.777203559875488 91.43280029296875 C 0.3950969874858856 89.75070953369141 1.742403626441956 87.67349243164063 1.29509699344635 83.22389221191406 C 1.29509699344635 83.22389221191406 1.338297009468079 77.28659820556641 2.38680362701416 73.24200439453125 C 3.436203718185425 69.19740295410156 3.325496912002563 68.75099945068359 8.792097091674805 59.731201171875 C 9.818257331848145 58.03817367553711 10.94423007965088 56.67660140991211 12.1070032119751 55.55488204956055 C 11.06960391998291 53.82160186767578 10.30355072021484 52.10753631591797 10.0538969039917 50.5692024230957 C 8.946896553039551 43.74809646606445 3.528003692626953 7.557308673858643 3.528003692626953 7.557308673858643 C 2.632497072219849 2.948401927947998 3.616203546524048 -0.9179980754852295 8.224204063415527 -1.814398050308228 C 8.862483978271484 -1.93841564655304 9.536945343017578 -1.998956441879272 10.2274055480957 -1.998956441879272 C 14.52262306213379 -1.998956441879272 19.44354438781738 0.3429581820964813 20.2158031463623 4.312801837921143 C 20.2158031463623 4.312801837921143 17.76780319213867 17.15669441223145 19.07549667358398 27.87209510803223 C 19.96321678161621 35.14554977416992 22.88485717773438 41.25252151489258 24.5241641998291 44.79196166992188 C 25.56768417358398 35.3349609375 25.26929664611816 3.644095182418823 25.26929664611816 3.644095182418823 C 26.47358894348145 0.5061293244361877 30.30557441711426 -1.027066946029663 33.99323654174805 -1.027066946029663 C 35.45635223388672 -1.027066946029663 36.89633178710938 -0.7858670353889465 38.14109802246094 -0.3077980875968933 C 42.5232048034668 1.374295234680176 41.13900375366211 9.736202239990234 41.13900375366211 9.736202239990234 C 41.13900375366211 9.736202239990234 41.20109558105469 46.26449584960938 38.92589569091797 52.78949356079102 C 38.06929779052734 55.24712371826172 36.13600540161133 56.73653411865234 33.75840377807617 58.11740112304688 C 34.97708511352539 59.87224197387695 36.02589797973633 61.86542892456055 36.6300048828125 64.19340515136719 C 38.81340408325195 72.60391235351563 38.70989608764648 78.96150970458984 38.70989608764648 78.96150970458984 L 38.9474983215332 85.78260040283203 C 39.84300231933594 90.39060211181641 36.83429718017578 94.85279846191406 32.22629547119141 95.74829864501953 C 31.6580696105957 95.85871124267578 31.10580444335938 95.91204071044922 30.57295036315918 95.91205596923828 Z"/>
    </g>
  </g>
</svg>
