<svg xmlns="http://www.w3.org/2000/svg" width="1293.385" height="1659.235" viewBox="0 0 1293.385 1659.235">
  <defs>
    <style>
      .cls-1 {
        fill: #ff5252;
      }

      .cls-2 {
        fill: #5893ff;
      }

      .cls-3 {
        fill: #4b0b67;
      }

      .cls-4 {
        fill: #fb7611;
      }

      .cls-5, .cls-6 {
        fill: none;
        stroke-width: 20px;
      }

      .cls-5 {
        stroke: #9a906a;
      }

      .cls-6 {
        stroke: #d6c992;
      }
    </style>
  </defs>
  <g id="h2-dna-strengen-svg" transform="translate(-843.831 229.051)">
    <g id="dna" transform="translate(4029.516 -4199.553) rotate(41)">
      <rect id="Rectangle_14" data-name="Rectangle 14" class="cls-1" width="63.391" height="21.308" transform="translate(1306.391 5898.251)"/>
      <path id="Path_16" data-name="Path 16" class="cls-2" d="M0,0H63.391V21.308H0Z" transform="translate(1306.391 5862.028)"/>
      <rect id="Rectangle_15" data-name="Rectangle 15" class="cls-3" width="63.391" height="21.308" transform="translate(1243 5898.251)"/>
      <rect id="Rectangle_17" data-name="Rectangle 17" class="cls-4" width="63.391" height="21.308" transform="translate(1243 5862.028)"/>
      <rect id="Rectangle_18" data-name="Rectangle 18" class="cls-4" width="63.391" height="21.308" transform="translate(1306.391 5759.75)"/>
      <rect id="Rectangle_21" data-name="Rectangle 21" class="cls-3" width="63.391" height="21.308" transform="translate(1306.391 5530.689)"/>
      <rect id="Rectangle_25" data-name="Rectangle 25" class="cls-1" width="63.391" height="21.308" transform="translate(1306.391 5499.792)"/>
      <path id="Path_17" data-name="Path 17" class="cls-1" d="M0,0H63.391V21.308H0Z" transform="translate(1306.391 5723.526)"/>
      <path id="Path_20" data-name="Path 20" class="cls-1" d="M0,0H63.391V21.308H0Z" transform="translate(1306.391 5689.966)"/>
      <path id="Path_18" data-name="Path 18" class="cls-2" d="M0,0H63.391V21.308H0Z" transform="translate(1306.391 5653.743)"/>
      <path id="Path_19" data-name="Path 19" class="cls-4" d="M0,0H63.391V21.308H0Z" transform="translate(1306.391 5617.519)"/>
      <rect id="Rectangle_19" data-name="Rectangle 19" class="cls-2" width="63.391" height="21.308" transform="translate(1243 5759.75)"/>
      <rect id="Rectangle_22" data-name="Rectangle 22" class="cls-1" width="63.391" height="21.308" transform="translate(1243 5530.689)"/>
      <rect id="Rectangle_26" data-name="Rectangle 26" class="cls-3" width="63.391" height="21.308" transform="translate(1243 5499.792)"/>
      <rect id="Rectangle_20" data-name="Rectangle 20" class="cls-3" width="63.391" height="21.308" transform="translate(1243 5723.526)"/>
      <rect id="Rectangle_27" data-name="Rectangle 27" class="cls-3" width="63.391" height="21.308" transform="translate(1243 5689.966)"/>
      <rect id="Rectangle_23" data-name="Rectangle 23" class="cls-4" width="63.391" height="21.308" transform="translate(1243 5653.743)"/>
      <rect id="Rectangle_24" data-name="Rectangle 24" class="cls-2" width="63.391" height="21.308" transform="translate(1243 5617.519)"/>
      <path id="Path_14" data-name="Path 14" class="cls-5" d="M0-122.783V-56.6L126.4-3.656v179.2L0,233.63v82.415" transform="translate(1243.266 5615.5)"/>
      <path id="Path_15" data-name="Path 15" class="cls-6" d="M126.4-122.783V-56.6L0-3.656v179.2L126.4,233.63v82.415" transform="translate(1243.266 5615.5)"/>
    </g>
    <g id="dna-2" data-name="dna" transform="translate(3804.516 -4198.553) rotate(41)">
      <rect id="Rectangle_14-2" data-name="Rectangle 14" class="cls-1" width="63.391" height="21.308" transform="translate(1306.391 5898.251)"/>
      <path id="Path_16-2" data-name="Path 16" class="cls-2" d="M0,0H63.391V21.308H0Z" transform="translate(1306.391 5862.028)"/>
      <rect id="Rectangle_15-2" data-name="Rectangle 15" class="cls-3" width="63.391" height="21.308" transform="translate(1243 5898.251)"/>
      <rect id="Rectangle_17-2" data-name="Rectangle 17" class="cls-4" width="63.391" height="21.308" transform="translate(1243 5862.028)"/>
      <rect id="Rectangle_18-2" data-name="Rectangle 18" class="cls-4" width="63.391" height="21.308" transform="translate(1306.391 5759.75)"/>
      <rect id="Rectangle_21-2" data-name="Rectangle 21" class="cls-3" width="63.391" height="21.308" transform="translate(1306.391 5530.689)"/>
      <rect id="Rectangle_25-2" data-name="Rectangle 25" class="cls-1" width="63.391" height="21.308" transform="translate(1306.391 5499.792)"/>
      <path id="Path_17-2" data-name="Path 17" class="cls-1" d="M0,0H63.391V21.308H0Z" transform="translate(1306.391 5723.526)"/>
      <path id="Path_20-2" data-name="Path 20" class="cls-1" d="M0,0H63.391V21.308H0Z" transform="translate(1306.391 5689.966)"/>
      <path id="Path_18-2" data-name="Path 18" class="cls-2" d="M0,0H63.391V21.308H0Z" transform="translate(1306.391 5653.743)"/>
      <path id="Path_19-2" data-name="Path 19" class="cls-4" d="M0,0H63.391V21.308H0Z" transform="translate(1306.391 5617.519)"/>
      <rect id="Rectangle_19-2" data-name="Rectangle 19" class="cls-2" width="63.391" height="21.308" transform="translate(1243 5759.75)"/>
      <rect id="Rectangle_22-2" data-name="Rectangle 22" class="cls-1" width="63.391" height="21.308" transform="translate(1243 5530.689)"/>
      <rect id="Rectangle_26-2" data-name="Rectangle 26" class="cls-3" width="63.391" height="21.308" transform="translate(1243 5499.792)"/>
      <rect id="Rectangle_20-2" data-name="Rectangle 20" class="cls-3" width="63.391" height="21.308" transform="translate(1243 5723.526)"/>
      <rect id="Rectangle_27-2" data-name="Rectangle 27" class="cls-3" width="63.391" height="21.308" transform="translate(1243 5689.966)"/>
      <rect id="Rectangle_23-2" data-name="Rectangle 23" class="cls-4" width="63.391" height="21.308" transform="translate(1243 5653.743)"/>
      <rect id="Rectangle_24-2" data-name="Rectangle 24" class="cls-2" width="63.391" height="21.308" transform="translate(1243 5617.519)"/>
      <path id="Path_14-2" data-name="Path 14" class="cls-5" d="M0-122.783V-56.6L126.4-3.656v179.2L0,233.63v82.415" transform="translate(1243.266 5615.5)"/>
      <path id="Path_15-2" data-name="Path 15" class="cls-6" d="M126.4-122.783V-56.6L0-3.656v179.2L126.4,233.63v82.415" transform="translate(1243.266 5615.5)"/>
    </g>
    <g id="dna-3" data-name="dna" transform="translate(1382.073 1009.334) rotate(41)">
      <rect id="Rectangle_14-3" data-name="Rectangle 14" class="cls-1" width="63.391" height="21.308" transform="translate(63.391 405.534)"/>
      <path id="Path_16-3" data-name="Path 16" class="cls-2" d="M0,0H63.391V21.308H0Z" transform="translate(63.391 369.311)"/>
      <rect id="Rectangle_15-3" data-name="Rectangle 15" class="cls-3" width="63.391" height="21.308" transform="translate(0 405.534)"/>
      <rect id="Rectangle_17-3" data-name="Rectangle 17" class="cls-4" width="63.391" height="21.308" transform="translate(0 369.311)"/>
      <rect id="Rectangle_18-3" data-name="Rectangle 18" class="cls-4" width="63.391" height="21.308" transform="translate(63.391 267.033)"/>
      <rect id="Rectangle_21-3" data-name="Rectangle 21" class="cls-3" width="63.391" height="21.308" transform="translate(63.391 37.973)"/>
      <rect id="Rectangle_25-3" data-name="Rectangle 25" class="cls-1" width="63.391" height="21.308" transform="translate(63.391 7.076)"/>
      <path id="Path_17-3" data-name="Path 17" class="cls-1" d="M0,0H63.391V21.308H0Z" transform="translate(63.391 230.809)"/>
      <path id="Path_20-3" data-name="Path 20" class="cls-1" d="M0,0H63.391V21.308H0Z" transform="translate(63.391 197.249)"/>
      <path id="Path_18-3" data-name="Path 18" class="cls-2" d="M0,0H63.391V21.308H0Z" transform="translate(63.391 161.026)"/>
      <path id="Path_19-3" data-name="Path 19" class="cls-4" d="M0,0H63.391V21.308H0Z" transform="translate(63.391 124.802)"/>
      <rect id="Rectangle_19-3" data-name="Rectangle 19" class="cls-2" width="63.391" height="21.308" transform="translate(0 267.033)"/>
      <rect id="Rectangle_22-3" data-name="Rectangle 22" class="cls-1" width="63.391" height="21.308" transform="translate(0 37.973)"/>
      <rect id="Rectangle_26-3" data-name="Rectangle 26" class="cls-3" width="63.391" height="21.308" transform="translate(0 7.076)"/>
      <rect id="Rectangle_20-3" data-name="Rectangle 20" class="cls-3" width="63.391" height="21.308" transform="translate(0 230.809)"/>
      <rect id="Rectangle_27-3" data-name="Rectangle 27" class="cls-3" width="63.391" height="21.308" transform="translate(0 197.249)"/>
      <rect id="Rectangle_23-3" data-name="Rectangle 23" class="cls-4" width="63.391" height="21.308" transform="translate(0 161.026)"/>
      <rect id="Rectangle_24-3" data-name="Rectangle 24" class="cls-2" width="63.391" height="21.308" transform="translate(0 124.802)"/>
      <path id="Path_14-3" data-name="Path 14" class="cls-5" d="M0,0V66.182l126.4,52.946v179.2L0,356.412v82.415" transform="translate(0.266 0)"/>
      <path id="Path_15-3" data-name="Path 15" class="cls-6" d="M126.4,0V66.182L0,119.127v179.2l126.4,58.085v82.415" transform="translate(0.266 0)"/>
    </g>
    <g id="dna-4" data-name="dna" transform="translate(4315.517 -4527.553) rotate(41)">
      <rect id="Rectangle_14-4" data-name="Rectangle 14" class="cls-1" width="63.391" height="21.308" transform="translate(1306.391 5898.251)"/>
      <path id="Path_16-4" data-name="Path 16" class="cls-2" d="M0,0H63.391V21.308H0Z" transform="translate(1306.391 5862.028)"/>
      <rect id="Rectangle_15-4" data-name="Rectangle 15" class="cls-3" width="63.391" height="21.308" transform="translate(1243 5898.251)"/>
      <rect id="Rectangle_17-4" data-name="Rectangle 17" class="cls-4" width="63.391" height="21.308" transform="translate(1243 5862.028)"/>
      <rect id="Rectangle_18-4" data-name="Rectangle 18" class="cls-4" width="63.391" height="21.308" transform="translate(1306.391 5759.75)"/>
      <rect id="Rectangle_21-4" data-name="Rectangle 21" class="cls-3" width="63.391" height="21.308" transform="translate(1306.391 5530.689)"/>
      <rect id="Rectangle_25-4" data-name="Rectangle 25" class="cls-1" width="63.391" height="21.308" transform="translate(1306.391 5499.792)"/>
      <path id="Path_17-4" data-name="Path 17" class="cls-1" d="M0,0H63.391V21.308H0Z" transform="translate(1306.391 5723.526)"/>
      <path id="Path_20-4" data-name="Path 20" class="cls-1" d="M0,0H63.391V21.308H0Z" transform="translate(1306.391 5689.966)"/>
      <path id="Path_18-4" data-name="Path 18" class="cls-2" d="M0,0H63.391V21.308H0Z" transform="translate(1306.391 5653.743)"/>
      <path id="Path_19-4" data-name="Path 19" class="cls-4" d="M0,0H63.391V21.308H0Z" transform="translate(1306.391 5617.519)"/>
      <rect id="Rectangle_19-4" data-name="Rectangle 19" class="cls-2" width="63.391" height="21.308" transform="translate(1243 5759.75)"/>
      <rect id="Rectangle_22-4" data-name="Rectangle 22" class="cls-1" width="63.391" height="21.308" transform="translate(1243 5530.689)"/>
      <rect id="Rectangle_26-4" data-name="Rectangle 26" class="cls-3" width="63.391" height="21.308" transform="translate(1243 5499.792)"/>
      <rect id="Rectangle_20-4" data-name="Rectangle 20" class="cls-3" width="63.391" height="21.308" transform="translate(1243 5723.526)"/>
      <rect id="Rectangle_27-4" data-name="Rectangle 27" class="cls-3" width="63.391" height="21.308" transform="translate(1243 5689.966)"/>
      <rect id="Rectangle_23-4" data-name="Rectangle 23" class="cls-4" width="63.391" height="21.308" transform="translate(1243 5653.743)"/>
      <rect id="Rectangle_24-4" data-name="Rectangle 24" class="cls-2" width="63.391" height="21.308" transform="translate(1243 5617.519)"/>
      <path id="Path_14-4" data-name="Path 14" class="cls-5" d="M0-122.783V-56.6L126.4-3.656v179.2L0,233.63v82.415" transform="translate(1243.266 5615.5)"/>
      <path id="Path_15-4" data-name="Path 15" class="cls-6" d="M126.4-122.783V-56.6L0-3.656v179.2L126.4,233.63v82.415" transform="translate(1243.266 5615.5)"/>
    </g>
    <g id="dna-5" data-name="dna" transform="translate(4090.517 -4526.553) rotate(41)">
      <rect id="Rectangle_14-5" data-name="Rectangle 14" class="cls-1" width="63.391" height="21.308" transform="translate(1306.391 5898.251)"/>
      <path id="Path_16-5" data-name="Path 16" class="cls-2" d="M0,0H63.391V21.308H0Z" transform="translate(1306.391 5862.028)"/>
      <rect id="Rectangle_15-5" data-name="Rectangle 15" class="cls-3" width="63.391" height="21.308" transform="translate(1243 5898.251)"/>
      <rect id="Rectangle_17-5" data-name="Rectangle 17" class="cls-4" width="63.391" height="21.308" transform="translate(1243 5862.028)"/>
      <rect id="Rectangle_18-5" data-name="Rectangle 18" class="cls-4" width="63.391" height="21.308" transform="translate(1306.391 5759.75)"/>
      <rect id="Rectangle_21-5" data-name="Rectangle 21" class="cls-3" width="63.391" height="21.308" transform="translate(1306.391 5530.689)"/>
      <rect id="Rectangle_25-5" data-name="Rectangle 25" class="cls-1" width="63.391" height="21.308" transform="translate(1306.391 5499.792)"/>
      <path id="Path_17-5" data-name="Path 17" class="cls-1" d="M0,0H63.391V21.308H0Z" transform="translate(1306.391 5723.526)"/>
      <path id="Path_20-5" data-name="Path 20" class="cls-1" d="M0,0H63.391V21.308H0Z" transform="translate(1306.391 5689.966)"/>
      <path id="Path_18-5" data-name="Path 18" class="cls-2" d="M0,0H63.391V21.308H0Z" transform="translate(1306.391 5653.743)"/>
      <path id="Path_19-5" data-name="Path 19" class="cls-4" d="M0,0H63.391V21.308H0Z" transform="translate(1306.391 5617.519)"/>
      <rect id="Rectangle_19-5" data-name="Rectangle 19" class="cls-2" width="63.391" height="21.308" transform="translate(1243 5759.75)"/>
      <rect id="Rectangle_22-5" data-name="Rectangle 22" class="cls-1" width="63.391" height="21.308" transform="translate(1243 5530.689)"/>
      <rect id="Rectangle_26-5" data-name="Rectangle 26" class="cls-3" width="63.391" height="21.308" transform="translate(1243 5499.792)"/>
      <rect id="Rectangle_20-5" data-name="Rectangle 20" class="cls-3" width="63.391" height="21.308" transform="translate(1243 5723.526)"/>
      <rect id="Rectangle_27-5" data-name="Rectangle 27" class="cls-3" width="63.391" height="21.308" transform="translate(1243 5689.966)"/>
      <rect id="Rectangle_23-5" data-name="Rectangle 23" class="cls-4" width="63.391" height="21.308" transform="translate(1243 5653.743)"/>
      <rect id="Rectangle_24-5" data-name="Rectangle 24" class="cls-2" width="63.391" height="21.308" transform="translate(1243 5617.519)"/>
      <path id="Path_14-5" data-name="Path 14" class="cls-5" d="M0-122.783V-56.6L126.4-3.656v179.2L0,233.63v82.415" transform="translate(1243.266 5615.5)"/>
      <path id="Path_15-5" data-name="Path 15" class="cls-6" d="M126.4-122.783V-56.6L0-3.656v179.2L126.4,233.63v82.415" transform="translate(1243.266 5615.5)"/>
    </g>
    <g id="dna-6" data-name="dna" transform="translate(1668.073 681.334) rotate(41)">
      <rect id="Rectangle_14-6" data-name="Rectangle 14" class="cls-1" width="63.391" height="21.308" transform="translate(63.391 405.534)"/>
      <path id="Path_16-6" data-name="Path 16" class="cls-2" d="M0,0H63.391V21.308H0Z" transform="translate(63.391 369.311)"/>
      <rect id="Rectangle_15-6" data-name="Rectangle 15" class="cls-3" width="63.391" height="21.308" transform="translate(0 405.534)"/>
      <rect id="Rectangle_17-6" data-name="Rectangle 17" class="cls-4" width="63.391" height="21.308" transform="translate(0 369.311)"/>
      <rect id="Rectangle_18-6" data-name="Rectangle 18" class="cls-4" width="63.391" height="21.308" transform="translate(63.391 267.033)"/>
      <rect id="Rectangle_21-6" data-name="Rectangle 21" class="cls-3" width="63.391" height="21.308" transform="translate(63.391 37.973)"/>
      <rect id="Rectangle_25-6" data-name="Rectangle 25" class="cls-1" width="63.391" height="21.308" transform="translate(63.391 7.076)"/>
      <path id="Path_17-6" data-name="Path 17" class="cls-1" d="M0,0H63.391V21.308H0Z" transform="translate(63.391 230.809)"/>
      <path id="Path_20-6" data-name="Path 20" class="cls-1" d="M0,0H63.391V21.308H0Z" transform="translate(63.391 197.249)"/>
      <path id="Path_18-6" data-name="Path 18" class="cls-2" d="M0,0H63.391V21.308H0Z" transform="translate(63.391 161.026)"/>
      <path id="Path_19-6" data-name="Path 19" class="cls-4" d="M0,0H63.391V21.308H0Z" transform="translate(63.391 124.802)"/>
      <rect id="Rectangle_19-6" data-name="Rectangle 19" class="cls-2" width="63.391" height="21.308" transform="translate(0 267.033)"/>
      <rect id="Rectangle_22-6" data-name="Rectangle 22" class="cls-1" width="63.391" height="21.308" transform="translate(0 37.973)"/>
      <rect id="Rectangle_26-6" data-name="Rectangle 26" class="cls-3" width="63.391" height="21.308" transform="translate(0 7.076)"/>
      <rect id="Rectangle_20-6" data-name="Rectangle 20" class="cls-3" width="63.391" height="21.308" transform="translate(0 230.809)"/>
      <rect id="Rectangle_27-6" data-name="Rectangle 27" class="cls-3" width="63.391" height="21.308" transform="translate(0 197.249)"/>
      <rect id="Rectangle_23-6" data-name="Rectangle 23" class="cls-4" width="63.391" height="21.308" transform="translate(0 161.026)"/>
      <rect id="Rectangle_24-6" data-name="Rectangle 24" class="cls-2" width="63.391" height="21.308" transform="translate(0 124.802)"/>
      <path id="Path_14-6" data-name="Path 14" class="cls-5" d="M0,0V66.182l126.4,52.946v179.2L0,356.412v82.415" transform="translate(0.266 0)"/>
      <path id="Path_15-6" data-name="Path 15" class="cls-6" d="M126.4,0V66.182L0,119.127v179.2l126.4,58.085v82.415" transform="translate(0.266 0)"/>
    </g>
    <g id="dna-7" data-name="dna" transform="translate(1748.073 869.334) rotate(41)">
      <rect id="Rectangle_14-7" data-name="Rectangle 14" class="cls-1" width="63.391" height="21.308" transform="translate(63.391 405.534)"/>
      <path id="Path_16-7" data-name="Path 16" class="cls-2" d="M0,0H63.391V21.308H0Z" transform="translate(63.391 369.311)"/>
      <rect id="Rectangle_15-7" data-name="Rectangle 15" class="cls-3" width="63.391" height="21.308" transform="translate(0 405.534)"/>
      <rect id="Rectangle_17-7" data-name="Rectangle 17" class="cls-4" width="63.391" height="21.308" transform="translate(0 369.311)"/>
      <rect id="Rectangle_18-7" data-name="Rectangle 18" class="cls-4" width="63.391" height="21.308" transform="translate(63.391 267.033)"/>
      <rect id="Rectangle_21-7" data-name="Rectangle 21" class="cls-3" width="63.391" height="21.308" transform="translate(63.391 37.973)"/>
      <rect id="Rectangle_25-7" data-name="Rectangle 25" class="cls-1" width="63.391" height="21.308" transform="translate(63.391 7.076)"/>
      <path id="Path_17-7" data-name="Path 17" class="cls-1" d="M0,0H63.391V21.308H0Z" transform="translate(63.391 230.809)"/>
      <path id="Path_20-7" data-name="Path 20" class="cls-1" d="M0,0H63.391V21.308H0Z" transform="translate(63.391 197.249)"/>
      <path id="Path_18-7" data-name="Path 18" class="cls-2" d="M0,0H63.391V21.308H0Z" transform="translate(63.391 161.026)"/>
      <path id="Path_19-7" data-name="Path 19" class="cls-4" d="M0,0H63.391V21.308H0Z" transform="translate(63.391 124.802)"/>
      <rect id="Rectangle_19-7" data-name="Rectangle 19" class="cls-2" width="63.391" height="21.308" transform="translate(0 267.033)"/>
      <rect id="Rectangle_22-7" data-name="Rectangle 22" class="cls-1" width="63.391" height="21.308" transform="translate(0 37.973)"/>
      <rect id="Rectangle_26-7" data-name="Rectangle 26" class="cls-3" width="63.391" height="21.308" transform="translate(0 7.076)"/>
      <rect id="Rectangle_20-7" data-name="Rectangle 20" class="cls-3" width="63.391" height="21.308" transform="translate(0 230.809)"/>
      <rect id="Rectangle_27-7" data-name="Rectangle 27" class="cls-3" width="63.391" height="21.308" transform="translate(0 197.249)"/>
      <rect id="Rectangle_23-7" data-name="Rectangle 23" class="cls-4" width="63.391" height="21.308" transform="translate(0 161.026)"/>
      <rect id="Rectangle_24-7" data-name="Rectangle 24" class="cls-2" width="63.391" height="21.308" transform="translate(0 124.802)"/>
      <path id="Path_14-7" data-name="Path 14" class="cls-5" d="M0,0V66.182l126.4,52.946v179.2L0,356.412v82.415" transform="translate(0.266 0)"/>
      <path id="Path_15-7" data-name="Path 15" class="cls-6" d="M126.4,0V66.182L0,119.127v179.2l126.4,58.085v82.415" transform="translate(0.266 0)"/>
    </g>
    <g id="dna-8" data-name="dna" transform="translate(4601.517 -4856.553) rotate(41)">
      <rect id="Rectangle_14-8" data-name="Rectangle 14" class="cls-1" width="63.391" height="21.308" transform="translate(1306.391 5898.251)"/>
      <path id="Path_16-8" data-name="Path 16" class="cls-2" d="M0,0H63.391V21.308H0Z" transform="translate(1306.391 5862.028)"/>
      <rect id="Rectangle_15-8" data-name="Rectangle 15" class="cls-3" width="63.391" height="21.308" transform="translate(1243 5898.251)"/>
      <rect id="Rectangle_17-8" data-name="Rectangle 17" class="cls-4" width="63.391" height="21.308" transform="translate(1243 5862.028)"/>
      <rect id="Rectangle_18-8" data-name="Rectangle 18" class="cls-4" width="63.391" height="21.308" transform="translate(1306.391 5759.75)"/>
      <rect id="Rectangle_21-8" data-name="Rectangle 21" class="cls-3" width="63.391" height="21.308" transform="translate(1306.391 5530.689)"/>
      <rect id="Rectangle_25-8" data-name="Rectangle 25" class="cls-1" width="63.391" height="21.308" transform="translate(1306.391 5499.792)"/>
      <path id="Path_17-8" data-name="Path 17" class="cls-1" d="M0,0H63.391V21.308H0Z" transform="translate(1306.391 5723.526)"/>
      <path id="Path_20-8" data-name="Path 20" class="cls-1" d="M0,0H63.391V21.308H0Z" transform="translate(1306.391 5689.966)"/>
      <path id="Path_18-8" data-name="Path 18" class="cls-2" d="M0,0H63.391V21.308H0Z" transform="translate(1306.391 5653.743)"/>
      <path id="Path_19-8" data-name="Path 19" class="cls-4" d="M0,0H63.391V21.308H0Z" transform="translate(1306.391 5617.519)"/>
      <rect id="Rectangle_19-8" data-name="Rectangle 19" class="cls-2" width="63.391" height="21.308" transform="translate(1243 5759.75)"/>
      <rect id="Rectangle_22-8" data-name="Rectangle 22" class="cls-1" width="63.391" height="21.308" transform="translate(1243 5530.689)"/>
      <rect id="Rectangle_26-8" data-name="Rectangle 26" class="cls-3" width="63.391" height="21.308" transform="translate(1243 5499.792)"/>
      <rect id="Rectangle_20-8" data-name="Rectangle 20" class="cls-3" width="63.391" height="21.308" transform="translate(1243 5723.526)"/>
      <rect id="Rectangle_27-8" data-name="Rectangle 27" class="cls-3" width="63.391" height="21.308" transform="translate(1243 5689.966)"/>
      <rect id="Rectangle_23-8" data-name="Rectangle 23" class="cls-4" width="63.391" height="21.308" transform="translate(1243 5653.743)"/>
      <rect id="Rectangle_24-8" data-name="Rectangle 24" class="cls-2" width="63.391" height="21.308" transform="translate(1243 5617.519)"/>
      <path id="Path_14-8" data-name="Path 14" class="cls-5" d="M0-122.783V-56.6L126.4-3.656v179.2L0,233.63v82.415" transform="translate(1243.266 5615.5)"/>
      <path id="Path_15-8" data-name="Path 15" class="cls-6" d="M126.4-122.783V-56.6L0-3.656v179.2L126.4,233.63v82.415" transform="translate(1243.266 5615.5)"/>
    </g>
    <g id="dna-9" data-name="dna" transform="translate(4376.517 -4855.553) rotate(41)">
      <rect id="Rectangle_14-9" data-name="Rectangle 14" class="cls-1" width="63.391" height="21.308" transform="translate(1306.391 5898.251)"/>
      <path id="Path_16-9" data-name="Path 16" class="cls-2" d="M0,0H63.391V21.308H0Z" transform="translate(1306.391 5862.028)"/>
      <rect id="Rectangle_15-9" data-name="Rectangle 15" class="cls-3" width="63.391" height="21.308" transform="translate(1243 5898.251)"/>
      <rect id="Rectangle_17-9" data-name="Rectangle 17" class="cls-4" width="63.391" height="21.308" transform="translate(1243 5862.028)"/>
      <rect id="Rectangle_18-9" data-name="Rectangle 18" class="cls-4" width="63.391" height="21.308" transform="translate(1306.391 5759.75)"/>
      <rect id="Rectangle_21-9" data-name="Rectangle 21" class="cls-3" width="63.391" height="21.308" transform="translate(1306.391 5530.689)"/>
      <rect id="Rectangle_25-9" data-name="Rectangle 25" class="cls-1" width="63.391" height="21.308" transform="translate(1306.391 5499.792)"/>
      <path id="Path_17-9" data-name="Path 17" class="cls-1" d="M0,0H63.391V21.308H0Z" transform="translate(1306.391 5723.526)"/>
      <path id="Path_20-9" data-name="Path 20" class="cls-1" d="M0,0H63.391V21.308H0Z" transform="translate(1306.391 5689.966)"/>
      <path id="Path_18-9" data-name="Path 18" class="cls-2" d="M0,0H63.391V21.308H0Z" transform="translate(1306.391 5653.743)"/>
      <path id="Path_19-9" data-name="Path 19" class="cls-4" d="M0,0H63.391V21.308H0Z" transform="translate(1306.391 5617.519)"/>
      <rect id="Rectangle_19-9" data-name="Rectangle 19" class="cls-2" width="63.391" height="21.308" transform="translate(1243 5759.75)"/>
      <rect id="Rectangle_22-9" data-name="Rectangle 22" class="cls-1" width="63.391" height="21.308" transform="translate(1243 5530.689)"/>
      <rect id="Rectangle_26-9" data-name="Rectangle 26" class="cls-3" width="63.391" height="21.308" transform="translate(1243 5499.792)"/>
      <rect id="Rectangle_20-9" data-name="Rectangle 20" class="cls-3" width="63.391" height="21.308" transform="translate(1243 5723.526)"/>
      <rect id="Rectangle_27-9" data-name="Rectangle 27" class="cls-3" width="63.391" height="21.308" transform="translate(1243 5689.966)"/>
      <rect id="Rectangle_23-9" data-name="Rectangle 23" class="cls-4" width="63.391" height="21.308" transform="translate(1243 5653.743)"/>
      <rect id="Rectangle_24-9" data-name="Rectangle 24" class="cls-2" width="63.391" height="21.308" transform="translate(1243 5617.519)"/>
      <path id="Path_14-9" data-name="Path 14" class="cls-5" d="M0-122.783V-56.6L126.4-3.656v179.2L0,233.63v82.415" transform="translate(1243.266 5615.5)"/>
      <path id="Path_15-9" data-name="Path 15" class="cls-6" d="M126.4-122.783V-56.6L0-3.656v179.2L126.4,233.63v82.415" transform="translate(1243.266 5615.5)"/>
    </g>
    <g id="dna-10" data-name="dna" transform="translate(1954.072 352.334) rotate(41)">
      <rect id="Rectangle_14-10" data-name="Rectangle 14" class="cls-1" width="63.391" height="21.308" transform="translate(63.391 405.534)"/>
      <path id="Path_16-10" data-name="Path 16" class="cls-2" d="M0,0H63.391V21.308H0Z" transform="translate(63.391 369.311)"/>
      <rect id="Rectangle_15-10" data-name="Rectangle 15" class="cls-3" width="63.391" height="21.308" transform="translate(0 405.534)"/>
      <rect id="Rectangle_17-10" data-name="Rectangle 17" class="cls-4" width="63.391" height="21.308" transform="translate(0 369.311)"/>
      <rect id="Rectangle_18-10" data-name="Rectangle 18" class="cls-4" width="63.391" height="21.308" transform="translate(63.391 267.033)"/>
      <rect id="Rectangle_21-10" data-name="Rectangle 21" class="cls-3" width="63.391" height="21.308" transform="translate(63.391 37.973)"/>
      <rect id="Rectangle_25-10" data-name="Rectangle 25" class="cls-1" width="63.391" height="21.308" transform="translate(63.391 7.076)"/>
      <path id="Path_17-10" data-name="Path 17" class="cls-1" d="M0,0H63.391V21.308H0Z" transform="translate(63.391 230.809)"/>
      <path id="Path_20-10" data-name="Path 20" class="cls-1" d="M0,0H63.391V21.308H0Z" transform="translate(63.391 197.249)"/>
      <path id="Path_18-10" data-name="Path 18" class="cls-2" d="M0,0H63.391V21.308H0Z" transform="translate(63.391 161.026)"/>
      <path id="Path_19-10" data-name="Path 19" class="cls-4" d="M0,0H63.391V21.308H0Z" transform="translate(63.391 124.802)"/>
      <rect id="Rectangle_19-10" data-name="Rectangle 19" class="cls-2" width="63.391" height="21.308" transform="translate(0 267.033)"/>
      <rect id="Rectangle_22-10" data-name="Rectangle 22" class="cls-1" width="63.391" height="21.308" transform="translate(0 37.973)"/>
      <rect id="Rectangle_26-10" data-name="Rectangle 26" class="cls-3" width="63.391" height="21.308" transform="translate(0 7.076)"/>
      <rect id="Rectangle_20-10" data-name="Rectangle 20" class="cls-3" width="63.391" height="21.308" transform="translate(0 230.809)"/>
      <rect id="Rectangle_27-10" data-name="Rectangle 27" class="cls-3" width="63.391" height="21.308" transform="translate(0 197.249)"/>
      <rect id="Rectangle_23-10" data-name="Rectangle 23" class="cls-4" width="63.391" height="21.308" transform="translate(0 161.026)"/>
      <rect id="Rectangle_24-10" data-name="Rectangle 24" class="cls-2" width="63.391" height="21.308" transform="translate(0 124.802)"/>
      <path id="Path_14-10" data-name="Path 14" class="cls-5" d="M0,0V66.182l126.4,52.946v179.2L0,356.412v82.415" transform="translate(0.266 0)"/>
      <path id="Path_15-10" data-name="Path 15" class="cls-6" d="M126.4,0V66.182L0,119.127v179.2l126.4,58.085v82.415" transform="translate(0.266 0)"/>
    </g>
    <g id="dna-11" data-name="dna" transform="translate(2034.072 540.334) rotate(41)">
      <rect id="Rectangle_14-11" data-name="Rectangle 14" class="cls-1" width="63.391" height="21.308" transform="translate(63.391 405.534)"/>
      <path id="Path_16-11" data-name="Path 16" class="cls-2" d="M0,0H63.391V21.308H0Z" transform="translate(63.391 369.311)"/>
      <rect id="Rectangle_15-11" data-name="Rectangle 15" class="cls-3" width="63.391" height="21.308" transform="translate(0 405.534)"/>
      <rect id="Rectangle_17-11" data-name="Rectangle 17" class="cls-4" width="63.391" height="21.308" transform="translate(0 369.311)"/>
      <rect id="Rectangle_18-11" data-name="Rectangle 18" class="cls-4" width="63.391" height="21.308" transform="translate(63.391 267.033)"/>
      <rect id="Rectangle_21-11" data-name="Rectangle 21" class="cls-3" width="63.391" height="21.308" transform="translate(63.391 37.973)"/>
      <rect id="Rectangle_25-11" data-name="Rectangle 25" class="cls-1" width="63.391" height="21.308" transform="translate(63.391 7.076)"/>
      <path id="Path_17-11" data-name="Path 17" class="cls-1" d="M0,0H63.391V21.308H0Z" transform="translate(63.391 230.809)"/>
      <path id="Path_20-11" data-name="Path 20" class="cls-1" d="M0,0H63.391V21.308H0Z" transform="translate(63.391 197.249)"/>
      <path id="Path_18-11" data-name="Path 18" class="cls-2" d="M0,0H63.391V21.308H0Z" transform="translate(63.391 161.026)"/>
      <path id="Path_19-11" data-name="Path 19" class="cls-4" d="M0,0H63.391V21.308H0Z" transform="translate(63.391 124.802)"/>
      <rect id="Rectangle_19-11" data-name="Rectangle 19" class="cls-2" width="63.391" height="21.308" transform="translate(0 267.033)"/>
      <rect id="Rectangle_22-11" data-name="Rectangle 22" class="cls-1" width="63.391" height="21.308" transform="translate(0 37.973)"/>
      <rect id="Rectangle_26-11" data-name="Rectangle 26" class="cls-3" width="63.391" height="21.308" transform="translate(0 7.076)"/>
      <rect id="Rectangle_20-11" data-name="Rectangle 20" class="cls-3" width="63.391" height="21.308" transform="translate(0 230.809)"/>
      <rect id="Rectangle_27-11" data-name="Rectangle 27" class="cls-3" width="63.391" height="21.308" transform="translate(0 197.249)"/>
      <rect id="Rectangle_23-11" data-name="Rectangle 23" class="cls-4" width="63.391" height="21.308" transform="translate(0 161.026)"/>
      <rect id="Rectangle_24-11" data-name="Rectangle 24" class="cls-2" width="63.391" height="21.308" transform="translate(0 124.802)"/>
      <path id="Path_14-11" data-name="Path 14" class="cls-5" d="M0,0V66.182l126.4,52.946v179.2L0,356.412v82.415" transform="translate(0.266 0)"/>
      <path id="Path_15-11" data-name="Path 15" class="cls-6" d="M126.4,0V66.182L0,119.127v179.2l126.4,58.085v82.415" transform="translate(0.266 0)"/>
    </g>
    <g id="dna-12" data-name="dna" transform="translate(1979.072 872.334) rotate(41)">
      <rect id="Rectangle_14-12" data-name="Rectangle 14" class="cls-1" width="63.391" height="21.308" transform="translate(63.391 405.534)"/>
      <path id="Path_16-12" data-name="Path 16" class="cls-2" d="M0,0H63.391V21.308H0Z" transform="translate(63.391 369.311)"/>
      <rect id="Rectangle_15-12" data-name="Rectangle 15" class="cls-3" width="63.391" height="21.308" transform="translate(0 405.534)"/>
      <rect id="Rectangle_17-12" data-name="Rectangle 17" class="cls-4" width="63.391" height="21.308" transform="translate(0 369.311)"/>
      <rect id="Rectangle_18-12" data-name="Rectangle 18" class="cls-4" width="63.391" height="21.308" transform="translate(63.391 267.033)"/>
      <rect id="Rectangle_21-12" data-name="Rectangle 21" class="cls-3" width="63.391" height="21.308" transform="translate(63.391 37.973)"/>
      <rect id="Rectangle_25-12" data-name="Rectangle 25" class="cls-1" width="63.391" height="21.308" transform="translate(63.391 7.076)"/>
      <path id="Path_17-12" data-name="Path 17" class="cls-1" d="M0,0H63.391V21.308H0Z" transform="translate(63.391 230.809)"/>
      <path id="Path_20-12" data-name="Path 20" class="cls-1" d="M0,0H63.391V21.308H0Z" transform="translate(63.391 197.249)"/>
      <path id="Path_18-12" data-name="Path 18" class="cls-2" d="M0,0H63.391V21.308H0Z" transform="translate(63.391 161.026)"/>
      <path id="Path_19-12" data-name="Path 19" class="cls-4" d="M0,0H63.391V21.308H0Z" transform="translate(63.391 124.802)"/>
      <rect id="Rectangle_19-12" data-name="Rectangle 19" class="cls-2" width="63.391" height="21.308" transform="translate(0 267.033)"/>
      <rect id="Rectangle_22-12" data-name="Rectangle 22" class="cls-1" width="63.391" height="21.308" transform="translate(0 37.973)"/>
      <rect id="Rectangle_26-12" data-name="Rectangle 26" class="cls-3" width="63.391" height="21.308" transform="translate(0 7.076)"/>
      <rect id="Rectangle_20-12" data-name="Rectangle 20" class="cls-3" width="63.391" height="21.308" transform="translate(0 230.809)"/>
      <rect id="Rectangle_27-12" data-name="Rectangle 27" class="cls-3" width="63.391" height="21.308" transform="translate(0 197.249)"/>
      <rect id="Rectangle_23-12" data-name="Rectangle 23" class="cls-4" width="63.391" height="21.308" transform="translate(0 161.026)"/>
      <rect id="Rectangle_24-12" data-name="Rectangle 24" class="cls-2" width="63.391" height="21.308" transform="translate(0 124.802)"/>
      <path id="Path_14-12" data-name="Path 14" class="cls-5" d="M0,0V66.182l126.4,52.946v179.2L0,356.412v82.415" transform="translate(0.266 0)"/>
      <path id="Path_15-12" data-name="Path 15" class="cls-6" d="M126.4,0V66.182L0,119.127v179.2l126.4,58.085v82.415" transform="translate(0.266 0)"/>
    </g>
    <g id="dna-13" data-name="dna" transform="translate(1996.072 -222.666) rotate(41)">
      <rect id="Rectangle_14-13" data-name="Rectangle 14" class="cls-1" width="63.391" height="21.308" transform="translate(63.391 405.534)"/>
      <path id="Path_16-13" data-name="Path 16" class="cls-2" d="M0,0H63.391V21.308H0Z" transform="translate(63.391 369.311)"/>
      <rect id="Rectangle_15-13" data-name="Rectangle 15" class="cls-3" width="63.391" height="21.308" transform="translate(0 405.534)"/>
      <rect id="Rectangle_17-13" data-name="Rectangle 17" class="cls-4" width="63.391" height="21.308" transform="translate(0 369.311)"/>
      <rect id="Rectangle_18-13" data-name="Rectangle 18" class="cls-4" width="63.391" height="21.308" transform="translate(63.391 267.033)"/>
      <rect id="Rectangle_21-13" data-name="Rectangle 21" class="cls-3" width="63.391" height="21.308" transform="translate(63.391 37.973)"/>
      <rect id="Rectangle_25-13" data-name="Rectangle 25" class="cls-1" width="63.391" height="21.308" transform="translate(63.391 7.076)"/>
      <path id="Path_17-13" data-name="Path 17" class="cls-1" d="M0,0H63.391V21.308H0Z" transform="translate(63.391 230.809)"/>
      <path id="Path_20-13" data-name="Path 20" class="cls-1" d="M0,0H63.391V21.308H0Z" transform="translate(63.391 197.249)"/>
      <path id="Path_18-13" data-name="Path 18" class="cls-2" d="M0,0H63.391V21.308H0Z" transform="translate(63.391 161.026)"/>
      <path id="Path_19-13" data-name="Path 19" class="cls-4" d="M0,0H63.391V21.308H0Z" transform="translate(63.391 124.802)"/>
      <rect id="Rectangle_19-13" data-name="Rectangle 19" class="cls-2" width="63.391" height="21.308" transform="translate(0 267.033)"/>
      <rect id="Rectangle_22-13" data-name="Rectangle 22" class="cls-1" width="63.391" height="21.308" transform="translate(0 37.973)"/>
      <rect id="Rectangle_26-13" data-name="Rectangle 26" class="cls-3" width="63.391" height="21.308" transform="translate(0 7.076)"/>
      <rect id="Rectangle_20-13" data-name="Rectangle 20" class="cls-3" width="63.391" height="21.308" transform="translate(0 230.809)"/>
      <rect id="Rectangle_27-13" data-name="Rectangle 27" class="cls-3" width="63.391" height="21.308" transform="translate(0 197.249)"/>
      <rect id="Rectangle_23-13" data-name="Rectangle 23" class="cls-4" width="63.391" height="21.308" transform="translate(0 161.026)"/>
      <rect id="Rectangle_24-13" data-name="Rectangle 24" class="cls-2" width="63.391" height="21.308" transform="translate(0 124.802)"/>
      <path id="Path_14-13" data-name="Path 14" class="cls-5" d="M0,0V66.182l126.4,52.946v179.2L0,356.412v82.415" transform="translate(0.266 0)"/>
      <path id="Path_15-13" data-name="Path 15" class="cls-6" d="M126.4,0V66.182L0,119.127v179.2l126.4,58.085v82.415" transform="translate(0.266 0)"/>
    </g>
  </g>
</svg>
