<svg xmlns="http://www.w3.org/2000/svg" width="77.76" height="233" viewBox="0 0 77.76 233">
  <defs>
    <style>
      .cls-1 {
        fill: #fff;
      }

      .cls-2, .cls-3 {
        stroke: none;
      }

      .cls-3 {
        fill: #707070;
      }
    </style>
  </defs>
  <g id="Path_70" data-name="Path 70" class="cls-1" transform="translate(-1.974)">
    <path class="cls-2" d="M 24.6886043548584 232.5 C 16.84392738342285 232.5 8.315192222595215 231.8033599853516 4.537603378295898 226.6363830566406 C 3.306485891342163 224.9524383544922 2.619338989257813 222.82861328125 2.495250701904297 220.3239135742188 C 2.358522176742554 217.5636138916016 2.897589921951294 214.2467193603516 4.097767353057861 210.4640960693359 C 4.538701057434082 209.6476593017578 11.0142765045166 197.5552520751953 17.45130920410156 180.1489715576172 C 23.57704544067383 163.5845642089844 30.92333984375 138.6747589111328 31.13375091552734 114.0718841552734 C 31.3442211151123 89.46623229980469 24.41713333129883 65.21979522705078 18.56895637512207 49.21238327026367 C 12.57046318054199 32.79347991943359 6.447857856750488 21.44415283203125 5.760360717773438 20.18792152404785 C 5.774433135986328 11.92567729949951 7.154717922210693 6.962416648864746 10.23027992248535 4.104029178619385 C 11.68278026580811 2.754117727279663 13.58486843109131 1.821852922439575 16.04528045654297 1.253970623016357 C 18.27401542663574 0.7395882606506348 21.02048683166504 0.5 24.6886043548584 0.5 C 38.02239608764648 0.5 45.21404647827148 6.283146858215332 49.51145553588867 20.46120643615723 L 49.53183746337891 20.52847099304199 L 49.56998443603516 20.5875301361084 C 49.64419174194336 20.70238304138184 57.07566070556641 32.27361679077148 64.41010284423828 49.51202774047852 C 68.71551513671875 59.63117599487305 72.14560699462891 69.69438171386719 74.6051025390625 79.42214965820313 C 77.67686462402344 91.57164764404297 79.23439788818359 103.2280578613281 79.23439788818359 114.0676193237305 C 79.23439788818359 124.9118499755859 77.67560577392578 136.7505950927734 74.60128021240234 149.2549743652344 C 72.13990020751953 159.266357421875 68.70733642578125 169.7233276367188 64.39889526367188 180.3354187011719 C 57.06239700317383 198.406005859375 49.63574981689453 210.8093872070313 49.56160354614258 210.9325256347656 L 49.53136825561523 210.9827423095703 L 49.51357269287109 211.0385589599609 C 46.96625137329102 219.0276489257813 44.01351547241211 224.2888793945313 40.22113418579102 227.5959777832031 C 36.38442611694336 230.9417114257813 31.44883918762207 232.5 24.6886043548584 232.5 Z"/>
    <path class="cls-3" d="M 24.68860244750977 1 C 17.31304550170898 1 13.22280883789063 2.005416870117188 10.57066345214844 4.470260620117188 C 9.104629516601563 5.832763671875 8.051750183105469 7.70367431640625 7.351806640625 10.18988037109375 C 6.632240295410156 12.74591064453125 6.274917602539063 15.97712707519531 6.260696411132813 20.06106567382813 C 7.200241088867188 21.78915405273438 13.18080902099609 33.00700378417969 19.03860473632813 49.04078674316406 C 24.90095520019531 65.08705139160156 31.8448371887207 89.39555358886719 31.63375091552734 114.0761795043945 C 31.42269134521484 138.7511749267578 24.05981063842773 163.7206420898438 17.92028045654297 180.3224182128906 C 11.56605529785156 197.5047302246094 5.16998291015625 209.5267791748047 4.560226440429688 210.659912109375 C 3.388130187988281 214.3667449951172 2.861404418945313 217.6094512939453 2.994636535644531 220.2991790771484 C 3.113777160644531 222.7046813964844 3.768722534179688 224.7375335693359 4.94122314453125 226.3412933349609 C 8.586776733398438 231.3277130126953 16.96942901611328 232 24.68860244750977 232 C 31.32098770141602 232 36.15213394165039 230.4808502197266 39.89251708984375 227.2191162109375 C 43.61304473876953 223.9746704101563 46.51883697509766 218.784912109375 49.03722381591797 210.8866119384766 L 49.07280731201172 210.7749938964844 L 49.13322067260742 210.6746826171875 C 49.20730972290039 210.5515594482422 56.62739562988281 198.1554718017578 63.9493408203125 180.1134948730469 C 68.24530792236328 169.5278472900391 71.66748809814453 159.0983581542969 74.12086486816406 149.1146850585938 C 77.18215942382813 136.6571197509766 78.73436737060547 124.8655853271484 78.73436737060547 114.0676193237305 C 78.73436737060547 103.2728881835938 77.1829833984375 91.66168212890625 74.12330627441406 79.55653381347656 C 71.67145538330078 69.85609436035156 68.2513427734375 59.81985473632813 63.95801544189453 49.7265625 C 56.64015960693359 32.52296447753906 49.22404479980469 20.97343444824219 49.14998626708984 20.85879516601563 L 49.07372283935547 20.74067687988281 L 49.032958984375 20.606201171875 C 47.94692993164063 17.02320861816406 46.70704650878906 14.07121276855469 45.24242782592773 11.58155822753906 C 43.77357482910156 9.084762573242188 42.11207580566406 7.110061645507813 40.16295623779297 5.544647216796875 C 38.2215461730957 3.98541259765625 36.0316047668457 2.862472534179688 33.46798706054688 2.111679077148438 C 30.91374969482422 1.3636474609375 28.04201507568359 1 24.68860244750977 1 M 24.68860244750977 0 C 38.24736785888672 0 45.63086700439453 5.934555053710938 49.98995590209961 20.31614685058594 C 49.98995590209961 20.31614685058594 79.73436737060547 66.34906005859375 79.73436737060547 114.0676193237305 C 79.73436737060547 161.7862091064453 49.98995590209961 211.1904144287109 49.98995590209961 211.1904144287109 C 44.99242782592773 226.8639984130859 38.24736785888672 233 24.68860244750977 233 C 11.12983703613281 233 -2.919425964355469 230.858154296875 3.635574340820313 210.2675933837891 C 3.635574340820313 210.2675933837891 30.22760391235352 161.5554809570313 30.63378143310547 114.0676193237305 C 31.03995513916016 66.57975769042969 5.26025390625 20.31614685058594 5.26025390625 20.31614685058594 C 5.26025390625 3.195327758789063 11.12983703613281 0 24.68860244750977 0 Z"/>
  </g>
</svg>
