<svg xmlns="http://www.w3.org/2000/svg" width="109.087" height="130.418" viewBox="0 0 109.087 130.418">
  <defs>
    <style>
      .cls-1 {
        fill: #fff;
      }

      .cls-2, .cls-3 {
        stroke: none;
      }

      .cls-3 {
        fill: #707070;
      }
    </style>
  </defs>
  <g id="ch2" transform="translate(-232.647 -316.959)">
    <g id="ch2-1" class="cls-1" transform="translate(300.076 449.15) rotate(-178)">
      <path class="cls-2" d="M 41.57460403442383 129.4132690429688 C 39.79635238647461 129.4132995605469 38.04225158691406 128.8046417236328 36.63540267944336 127.6994400024414 C 35.21306991577148 126.5820693969727 34.23769378662109 125.0651626586914 33.81005477905273 123.307373046875 L 37.56201934814453 101.4226913452148 L 37.56265258789063 101.4189605712891 L 37.56323623657227 101.4152069091797 C 37.58290481567383 101.2890090942383 38.03948593139648 98.27194213867188 37.55513763427734 93.73015594482422 L 37.38132095336914 92.10025787353516 L 36.61581802368164 93.54967498779297 C 33.88766860961914 98.71529388427734 32.52976989746094 103.1542434692383 32.5163688659668 103.1984786987305 L 32.50732040405273 103.2283782958984 L 32.50205230712891 103.2591552734375 L 29.57899856567383 120.3587188720703 C 29.3622989654541 121.2440338134766 28.51810073852539 122.0763778686523 27.19975280761719 122.7039947509766 C 25.89431953430176 123.3254623413086 24.23980331420898 123.6819076538086 22.66041946411133 123.6819610595703 C 21.61958694458008 123.6819915771484 20.63796997070313 123.5258255004883 19.82168579101563 123.2303619384766 C 18.34270286560059 122.6948089599609 17.3246021270752 120.9724578857422 16.79573631286621 118.1111907958984 C 16.28074836730957 115.325065612793 16.38814926147461 112.2231216430664 16.50128746032715 110.5936279296875 L 20.58476257324219 94.33683776855469 C 21.81683731079102 93.60858917236328 28.9139461517334 89.29460144042969 34.67411804199219 83.27262878417969 L 34.89623641967773 83.0404052734375 L 34.77727127075195 82.74190521240234 C 31.84487533569336 75.38388061523438 26.99155235290527 67.71172332763672 26.45001983642578 66.86465454101563 L 14.10600280761719 11.30445861816406 C 13.56153678894043 8.945008277893066 13.57875347137451 6.996708869934082 14.1563196182251 5.509708881378174 C 14.78741931915283 3.884842157363892 16.11331939697266 2.828792095184326 18.09715270996094 2.37089204788208 C 18.81285285949707 2.205558776855469 19.58793640136719 2.121742010116577 20.40097045898438 2.121742010116577 C 22.45360374450684 2.121742010116577 24.59965324401855 2.664758682250977 26.28885269165039 3.611558675765991 C 27.57744407653809 4.333819389343262 29.21330642700195 5.628238201141357 29.69286727905273 7.695039749145508 L 40.9442024230957 63.5078125 C 40.86865615844727 64.13902282714844 40.4521484375 68.04200744628906 41.01792144775391 73.14442443847656 L 41.18743515014648 74.67325592041016 L 41.94923782348633 73.33695983886719 C 45.02626800537109 67.93947601318359 46.67908477783203 63.22099304199219 46.69541931152344 63.17395782470703 L 46.71438598632813 63.11934280395508 L 46.72040176391602 63.06184387207031 L 52.63365173339844 6.44066047668457 C 53.38697052001953 5.437557220458984 54.33494567871094 4.647128582000732 55.45307159423828 4.090208530426025 C 56.55800247192383 3.539842128753662 57.7961540222168 3.248942136764526 59.03368759155273 3.248942136764526 C 60.72916793823242 3.248942136764526 62.35293579101563 3.77755880355835 63.72940444946289 4.777625560760498 C 65.4578857421875 6.033308506011963 66.59390258789063 7.887241840362549 66.92819976806641 9.997908592224121 C 67.26251983642578 12.10870838165283 66.75492095947266 14.22324180603027 65.49888610839844 15.9520092010498 L 65.4141845703125 16.0686092376709 L 65.40451812744141 16.2124080657959 C 65.39588928222656 16.3410587310791 64.52622222900391 29.23107528686523 63.2819709777832 42.53625869750977 C 62.55158615112305 50.34652709960938 61.83707046508789 56.76845932006836 61.15826797485352 61.62372589111328 C 60.11277008056641 69.10194396972656 59.33671951293945 71.51154327392578 58.86981964111328 72.21611022949219 C 57.47441864013672 74.32210540771484 55.25018692016602 75.55986022949219 52.67473602294922 76.99305725097656 C 49.97085189819336 78.49772644042969 46.90618515014648 80.20315551757813 43.80131912231445 83.35111236572266 L 43.57180404663086 83.58380889892578 L 43.69285202026367 83.88740539550781 C 46.39945220947266 90.67563629150391 50.66756820678711 96.99104309082031 51.39516448974609 98.04602813720703 L 49.36583709716797 119.4521255493164 L 49.35818481445313 119.5327911376953 L 49.37640380859375 119.6117401123047 C 50.36840438842773 123.9103622436523 47.67925262451172 128.2145080566406 43.38185119628906 129.2064208984375 C 42.78710174560547 129.3436584472656 42.17903518676758 129.4132537841797 41.5745849609375 129.4132690429688 L 41.57460403442383 129.4132690429688 Z"/>
      <path class="cls-3" d="M 41.5745849609375 128.9132690429688 L 41.57456970214844 128.9132690429688 C 42.14125442504883 128.9132537841797 42.71148681640625 128.8479766845703 43.26940155029297 128.7192230224609 C 47.29816818237305 127.7893218994141 49.8192024230957 123.7541580200195 48.88922119140625 119.7241744995117 L 48.85276794433594 119.5662612915039 L 48.86806869506836 119.4049224853516 L 50.88013458251953 98.18092346191406 C 49.90236282348633 96.75745391845703 45.8812255859375 90.72589874267578 43.22842025756836 84.07259368896484 L 42.98632049560547 83.46539306640625 L 43.44533538818359 83.00000762939453 C 46.60048675537109 79.80107879638672 49.69838714599609 78.07714080810547 52.43160247802734 76.55615997314453 C 55.05375289916992 75.09697723388672 57.12487030029297 73.94442749023438 58.45303726196289 71.93989562988281 C 58.81183624267578 71.39846038818359 59.57608795166016 69.32936096191406 60.66298675537109 61.55521011352539 C 61.34072113037109 56.70775985717773 62.0543212890625 50.29379272460938 62.78396987915039 42.49149322509766 C 64.02765655517578 29.19269180297852 64.89701843261719 16.30750846862793 64.90565490722656 16.17890930175781 L 64.92497253417969 15.89130878448486 L 65.09438323974609 15.65812587738037 C 66.27190399169922 14.03740882873535 66.74778747558594 12.05500888824463 66.43435668945313 10.0761251449585 C 66.12095642089844 8.097375869750977 65.05595397949219 6.359325408935547 63.43552017211914 5.182125568389893 C 62.14501953125 4.24452543258667 60.62288665771484 3.748942136764526 59.03368759155273 3.748942136764526 C 57.87310409545898 3.748942136764526 56.7120361328125 4.021708965301514 55.67600250244141 4.537758827209473 C 54.66879272460938 5.039444446563721 53.80879211425781 5.743442535400391 53.11631393432617 6.632566452026367 L 47.21768569946289 63.11377716064453 L 47.20568466186523 63.22879028320313 L 47.1677360534668 63.3380241394043 C 47.10041809082031 63.53182601928711 45.48342132568359 68.14714050292969 42.38362121582031 73.5845947265625 L 40.86000442504883 76.25719451904297 L 40.52095413208008 73.19952392578125 C 39.97025680541992 68.23302459716797 40.34165573120117 64.37959289550781 40.43839645385742 63.52896118164063 L 29.20402526855469 7.800343036651611 C 28.76334571838379 5.915766716003418 27.24341583251953 4.719779968261719 26.04438591003418 4.047725200653076 C 24.42757034301758 3.141492128372192 22.37063598632813 2.621742010116577 20.40097045898438 2.621742010116577 C 19.62573623657227 2.621742010116577 18.88851928710938 2.701241970062256 18.20960235595703 2.858092069625854 C 16.37131881713867 3.282392024993896 15.19791984558105 4.208958625793457 14.62240314483643 5.690742015838623 C 14.08181953430176 7.082525253295898 14.07168674468994 8.93209171295166 14.59228610992432 11.18804168701172 L 14.59321975708008 11.19202518463135 L 14.59410285949707 11.19602584838867 L 26.91901206970215 66.67021179199219 C 27.65796089172363 67.8316650390625 32.36639785766602 75.34192657470703 35.24175262451172 82.55679321289063 L 35.47967147827148 83.15380859375 L 35.03543472290039 83.61822509765625 C 31.71498680114746 87.08960723876953 27.9840030670166 89.96390533447266 25.43878555297852 91.76387786865234 C 23.34729194641113 93.24296569824219 21.71920394897461 94.24375915527344 21.01874923706055 94.66146850585938 L 16.99706649780273 110.672248840332 C 16.88672637939453 112.2891387939453 16.78697967529297 115.3129119873047 17.28740310668945 118.0203094482422 C 17.62725257873535 119.8589401245117 18.37233543395996 122.1737594604492 19.99185371398926 122.7602081298828 C 20.75421905517578 123.0361557006836 21.67698669433594 123.1819915771484 22.66040229797363 123.1819610595703 C 25.69859313964844 123.1818618774414 28.68902969360352 121.8177337646484 29.08931922912598 120.2559127807617 L 32.00920486450195 103.1749114990234 L 32.01971817016602 103.1133270263672 L 32.03783798217773 103.0535430908203 C 32.09310150146484 102.8710403442383 33.42315292358398 98.52419281005859 36.17370223999023 93.31617736816406 L 37.70468521118164 90.41734313964844 L 38.05231857299805 93.6771240234375 C 38.54353713989258 98.28339385986328 38.07735443115234 101.3633575439453 38.05727005004883 101.4922256469727 L 38.05610275268555 101.4997100830078 L 38.0548210144043 101.507194519043 L 34.32063674926758 123.2881317138672 C 34.73370742797852 124.8939208984375 35.63789367675781 126.2799682617188 36.94428634643555 127.3062591552734 C 38.26345443725586 128.3425750732422 39.90785217285156 128.9132995605469 41.5745849609375 128.9132690429688 M 41.57460403442383 129.9132690429688 C 37.70526885986328 129.9133148193359 34.20725250244141 127.2547912597656 33.30000305175781 123.3234100341797 L 37.0692024230957 101.3382110595703 C 37.0692024230957 101.3382110595703 37.54092025756836 98.31195831298828 37.05795288085938 93.78317260742188 C 34.32070159912109 98.96601104736328 32.99490356445313 103.3434066772461 32.99490356445313 103.3434066772461 L 30.06900215148926 120.4596099853516 C 29.54153823852539 122.6854705810547 25.98777961730957 124.1818618774414 22.66044044494629 124.1819534301758 C 21.59918403625488 124.1819839477539 20.56123542785645 124.0298004150391 19.65150260925293 123.7005081176758 C 15.88860321044922 122.3379058837891 15.70320320129395 114.7959060668945 16.0056037902832 110.5146102905273 L 20.15100288391113 94.01129150390625 C 20.15100288391113 94.01129150390625 27.99143600463867 89.53569030761719 34.31280136108398 82.92700958251953 C 31.20191955566406 75.12112426757813 25.98120307922363 67.05989074707031 25.98120307922363 67.05989074707031 L 13.6179027557373 11.41290855407715 C 12.5622034072876 6.838208675384521 13.41090297698975 2.939408779144287 17.98470306396484 1.883708715438843 C 18.74625778198242 1.707780718803406 19.56352996826172 1.621746063232422 20.40097427368164 1.621746063232422 C 24.59311294555664 1.621746063232422 29.30158042907715 3.775814056396484 30.18150329589844 7.588808536529541 L 41.45040130615234 63.48870849609375 C 41.45040130615234 63.48870849609375 40.90895462036133 67.62480926513672 41.51486968994141 73.08932495117188 C 44.60467147827148 67.66944122314453 46.22310256958008 63.00991058349609 46.22310256958008 63.00991058349609 L 52.1505012512207 6.253208637237549 C 53.81365585327148 3.964069843292236 56.40535354614258 2.748944759368896 59.03367614746094 2.748944759368896 C 60.76610946655273 2.748944759368896 62.51444244384766 3.276860237121582 64.02330017089844 4.373108863830566 C 67.82040405273438 7.131608963012695 68.66280364990234 12.44790840148926 65.90340423583984 16.24590873718262 C 65.90340423583984 16.24590873718262 62.44650268554688 67.72409057617188 59.28660202026367 72.4923095703125 C 56.36006927490234 76.90919494628906 50.26387023925781 77.51092529296875 44.15730285644531 83.70222473144531 C 47.12130355834961 91.13602447509766 51.91020202636719 97.9110107421875 51.91020202636719 97.9110107421875 L 49.86360168457031 119.4993057250977 C 50.91930389404297 124.0740051269531 48.0681037902832 128.6379089355469 43.49430465698242 129.693603515625 C 42.85098648071289 129.8420562744141 42.20777130126953 129.9132537841797 41.57460403442383 129.9132690429688 Z"/>
    </g>
    <g id="ch2-1-2" data-name="ch2-1" class="cls-1" transform="matrix(-0.999, -0.035, 0.035, -0.999, 337.311, 447.377)">
      <path class="cls-2" d="M 27.02224731445313 126.2112579345703 C 23.23922157287598 126.2112579345703 19.96437644958496 123.5348358154297 19.19754028320313 119.8331909179688 L 23.7110481262207 98.09190368652344 L 23.73591423034668 97.97212219238281 L 23.70266532897949 97.85438537597656 C 23.69663238525391 97.83302307128906 23.08621406555176 95.67193603515625 21.93661499023438 91.62925720214844 L 21.56983184814453 90.33943939208984 L 21.00261497497559 91.55451965332031 C 18.28884887695313 97.36795806884766 17.09991455078125 102.5114364624023 17.08823204040527 102.5627059936523 L 17.081298828125 102.5931396484375 L 17.07818222045898 102.6241912841797 L 15.35451126098633 119.8859024047852 C 15.00914859771729 121.8884353637695 11.50048542022705 123.7083740234375 7.977175712585449 123.7083740234375 C 7.976960182189941 123.7083740234375 7.976763725280762 123.7083740234375 7.976548194885254 123.7083740234375 C 7.193248271942139 123.7083358764648 6.468014717102051 123.6147918701172 5.820981502532959 123.4303207397461 C 4.308631420135498 122.9994583129883 3.173081398010254 121.3525238037109 2.445814847946167 118.535270690918 C 1.737543702125549 115.7916412353516 1.628064751625061 112.6899032592773 1.62714684009552 111.0565795898438 L 4.566946029663086 94.55454254150391 C 5.129341602325439 94.16758728027344 6.969103813171387 92.87382507324219 9.29193115234375 90.95056915283203 C 11.8670482635498 88.81845855712891 15.58601474761963 85.44966888427734 18.67946434020996 81.50890350341797 L 18.85213088989258 81.28895568847656 L 18.75509834289551 81.02668762207031 C 16.0614070892334 73.74539184570313 11.68764209747314 66.26654815673828 11.18850708007813 65.42232513427734 L 0.7916647791862488 9.464038848876953 C 0.3293481171131134 7.087439060211182 0.4143481254577637 5.141105651855469 1.043514728546143 3.674972295761108 C 1.730948090553284 2.073022365570068 3.092964887619019 1.063822388648987 5.091714859008789 0.6753890514373779 C 5.690481662750244 0.5590390563011169 6.33226490020752 0.5000390410423279 6.999231338500977 0.5000223517417908 C 9.101481437683105 0.4999890327453613 11.31166458129883 1.083022356033325 13.06309795379639 2.099605798721313 C 14.39636325836182 2.873501777648926 16.07333374023438 4.247819900512695 16.49507522583008 6.400730609893799 L 25.79911231994629 62.61564636230469 C 25.80244636535645 62.84526824951172 25.82849311828613 64.00302886962891 26.02438163757324 65.90955352783203 L 26.99066543579102 66.03203582763672 C 27.95358085632324 63.43098831176758 28.42056465148926 61.71742248535156 28.43996429443359 61.64575576782227 L 28.45508193969727 61.5899543762207 L 28.4570484161377 61.53218841552734 L 30.40631294250488 4.636329650878906 C 31.88796043395996 2.348487615585327 34.39065551757813 0.9866223335266113 37.12773132324219 0.9866223335266113 C 38.62206649780273 0.9866223335266113 40.08523178100586 1.407372355461121 41.35904693603516 2.203372478485107 C 43.17144775390625 3.335705757141113 44.4343147277832 5.106022357940674 44.91506576538086 7.188222408294678 C 45.39578247070313 9.270339012145996 45.03689956665039 11.41493892669678 43.90451431274414 13.22697257995605 L 43.82813262939453 13.34920597076416 L 43.82853317260742 13.4933385848999 C 43.82888031005859 13.62227249145508 43.86043167114258 26.54163932800293 43.54724884033203 39.90142059326172 C 43.3634147644043 47.74372100830078 43.09856414794922 54.19998931884766 42.76006317138672 59.09090423583984 C 42.23869705200195 66.62409210205078 41.63259887695313 69.08216857910156 41.21595001220703 69.81772613525391 C 39.97101593017578 72.01510620117188 37.83888244628906 73.40462493896484 35.37009811401367 75.01357269287109 C 33.48341369628906 76.24314117431641 31.34501457214355 77.63675689697266 29.19858169555664 79.64105224609375 L 28.95536422729492 79.86817169189453 L 29.07098197937012 80.18022155761719 C 31.70023345947266 87.27660369873047 36.77565765380859 94.08026885986328 37.65076446533203 95.22527313232422 L 34.87848281860352 116.5233383178711 L 34.86801528930664 116.6037521362305 L 34.88349914550781 116.6833572387695 C 35.2915153503418 118.7807693481445 34.85818099975586 120.9114761352539 33.66331481933594 122.682975769043 C 32.46849822998047 124.4544067382813 30.65524864196777 125.6547088623047 28.55756568908691 126.0627746582031 C 28.05059814453125 126.1612854003906 27.53401565551758 126.2112579345703 27.02224731445313 126.2112579345703 Z"/>
      <path class="cls-3" d="M 6.999233245849609 1.000015258789063 C 6.364231109619141 1.000030517578125 5.754531860351563 1.055946350097656 5.187099456787109 1.16619873046875 C 3.334980010986328 1.526130676269531 2.129898071289063 2.411262512207031 1.502998352050781 3.872146606445313 C 0.9141159057617188 5.244384765625 0.8396644592285156 7.092247009277344 1.281681060791016 9.364418029785156 L 1.282482147216797 9.368545532226563 L 1.283248901367188 9.372695922851563 L 11.66399002075195 65.24433898925781 C 12.3443603515625 66.40084838867188 16.58494186401367 73.71946716308594 19.22404861450195 80.85319519042969 L 19.41808128356934 81.37771606445313 L 19.0727653503418 81.817626953125 C 15.95193099975586 85.79326629638672 12.20476531982422 89.18796539306641 9.610813140869141 91.33567810058594 C 7.447544097900391 93.12682342529297 5.734905242919922 94.35272979736328 5.022552490234375 94.847900390625 L 2.127197265625 111.1004638671875 C 2.130035400390625 112.7209930419922 2.241672515869141 115.7441635131836 2.929931640625 118.4102783203125 C 3.397281646728516 120.2206344604492 4.301963806152344 122.4776611328125 5.958065032958984 122.9495010375977 C 6.560630798339844 123.1212844848633 7.239730834960938 123.208381652832 7.976512908935547 123.208381652832 C 9.567115783691406 123.208381652832 11.26309967041016 122.804817199707 12.62961578369141 122.1011505126953 C 13.90227890014648 121.4458160400391 14.7126579284668 120.6148300170898 14.85890579223633 119.8170623779297 L 16.58066558837891 102.5744934082031 L 16.58686447143555 102.5123977661133 L 16.60074806213379 102.451545715332 C 16.64896392822266 102.2400512695313 17.81328201293945 97.20463562011719 20.54954719543457 91.34303283691406 L 21.68398094177246 88.91286468505859 L 22.41754722595215 91.49251556396484 C 23.56728172302246 95.53561401367188 24.17781448364258 97.69711303710938 24.18384742736816 97.71848297119141 L 24.2503490447998 97.95394897460938 L 24.20059776306152 98.19352722167969 L 19.70852470397949 119.8315734863281 C 20.46508598327637 123.2501449584961 23.51006317138672 125.7112503051758 27.02224731445313 125.7112503051758 C 27.50206565856934 125.7112503051758 27.98656463623047 125.6643829345703 28.46208190917969 125.5719680786133 C 30.4286994934082 125.1893997192383 32.12864685058594 124.0641174316406 33.24879837036133 122.4033813476563 C 34.36896514892578 120.7426147460938 34.77521514892578 118.7451171875 34.3927001953125 116.7788162231445 L 34.36173248291016 116.6196136474609 L 34.38266372680664 116.4587783813477 L 37.12827301025391 95.36553192138672 C 36.63031387329102 94.70912170410156 35.47097015380859 93.13944244384766 34.09346389770508 90.99586486816406 C 32.4252815246582 88.39999389648438 30.11846542358398 84.44654846191406 28.60213088989258 80.35392761230469 L 28.37089729309082 79.72982788085938 L 28.85733222961426 79.27559661865234 C 31.03556442260742 77.24161529541016 33.1933479309082 75.83536529541016 35.09709930419922 74.59466552734375 C 37.61064910888672 72.95656585693359 39.59599685668945 71.66268157958984 40.78087997436523 69.57129669189453 C 41.10108184814453 69.00602722167969 41.71918106079102 66.88839721679688 42.26121520996094 59.05712890625 C 42.59918212890625 54.17406463623047 42.86368179321289 47.72581481933594 43.04734802246094 39.89151763916016 C 43.36039733886719 26.53814697265625 43.32889938354492 13.62361145019531 43.32853317260742 13.49471282958984 L 43.3277473449707 13.20646667480469 L 43.48049926757813 12.96201324462891 C 44.54209899902344 11.26324462890625 44.87854766845703 9.252700805664063 44.42788314819336 7.300712585449219 C 43.97718048095703 5.348648071289063 42.79324722290039 3.688980102539063 41.09406280517578 2.62738037109375 C 39.89981460571289 1.881080627441406 38.52828216552734 1.486618041992188 37.12773132324219 1.486618041992188 C 34.60712432861328 1.486618041992188 32.29879760742188 2.718002319335938 30.90120697021484 4.794204711914063 L 28.95676422119141 61.54930114746094 L 28.95279884338379 61.66484832763672 L 28.92258071899414 61.77642822265625 C 28.90293121337891 61.8489990234375 28.43023109436035 63.58366394042969 27.45956420898438 66.20564270019531 L 25.52699851989746 65.96067810058594 C 25.33863067626953 64.12731170654297 25.3055305480957 62.97127532958984 25.2998104095459 62.6610107421875 L 16.00295448303223 6.489486694335938 C 15.61478996276855 4.524581909179688 14.0543212890625 3.253082275390625 12.81209945678711 2.532051086425781 C 11.13464736938477 1.558380126953125 9.015949249267578 0.9999847412109375 6.999233245849609 1.000015258789063 M 6.999214172363281 1.52587890625e-05 C 11.29391479492188 -5.340576171875e-05 16.21488189697266 2.341934204101563 16.98714828491211 6.311767578125 L 26.29863166809082 62.57166290283203 C 26.29863166809082 62.57166290283203 26.30656433105469 63.7640495300293 26.52176475524902 65.85845947265625 C 27.4879322052002 63.24863052368164 27.95734786987305 61.51506805419922 27.95734786987305 61.51506805419922 L 29.91128158569336 4.482963562011719 C 31.52374839782715 1.902687072753906 34.29366302490234 0.4866104125976563 37.12772750854492 0.4866104125976563 C 38.66591644287109 0.4866104125976563 40.22356033325195 0.9041976928710938 41.62401580810547 1.779350280761719 C 45.60564804077148 4.2669677734375 46.81616592407227 9.511260986328125 44.32853317260742 13.49196624755859 C 44.32853317260742 13.49196624755859 44.4707145690918 65.08626556396484 41.65098190307617 70.06416320800781 C 39.37613296508789 74.07941436767578 34.49967956542969 75.37507629394531 29.53983116149902 80.00650024414063 C 32.41488265991211 87.76628112792969 38.17333221435547 95.08416748046875 38.17333221435547 95.08416748046875 L 35.37429809570313 116.5878677368164 C 36.27071380615234 121.1958618164063 33.26108169555664 125.6571655273438 28.65303230285645 126.5535659790039 C 28.10543251037598 126.6599807739258 27.55999183654785 126.7112426757813 27.02225112915039 126.7112426757813 C 23.03490447998047 126.7112426757813 19.47631454467773 123.8918685913086 18.68723106384277 119.8314666748047 L 23.22148132324219 97.99026489257813 C 23.22148132324219 97.99026489257813 22.61846542358398 95.85503387451172 21.45568084716797 91.76603698730469 C 18.73308181762695 97.59836578369141 17.57571411132813 102.6738662719727 17.57571411132813 102.6738662719727 L 15.85039901733398 119.9520645141602 C 15.45134353637695 122.3786849975586 11.50612258911133 124.2083892822266 7.976509094238281 124.2083892822266 C 7.175647735595703 124.2083892822266 6.395614624023438 124.1140747070313 5.68389892578125 123.9111785888672 C 1.836349487304688 122.8149795532227 1.124446868896484 115.3044815063477 1.127147674560547 111.0123672485352 L 4.111579895019531 94.25978088378906 C 4.111579895019531 94.25978088378906 12.35068130493164 88.76141357421875 18.28616523742676 81.20016479492188 C 15.42389869689941 73.46321105957031 10.71316528320313 65.60108184814453 10.71316528320313 65.60108184814453 L 0.3000831604003906 9.555366516113281 C -0.5963363647460938 4.947380065917969 0.3882827758789063 1.080078125 4.996330261230469 0.1845626831054688 C 5.634498596191406 0.0605621337890625 6.308849334716797 3.0517578125e-05 6.999214172363281 1.52587890625e-05 Z"/>
    </g>
  </g>
</svg>
