<svg xmlns="http://www.w3.org/2000/svg" width="59.936" height="233" viewBox="0 0 59.936 233">
  <defs>
    <style>
      .cls-1 {
        fill: #fff;
      }

      .cls-2, .cls-3 {
        stroke: none;
      }

      .cls-3 {
        fill: #707070;
      }
    </style>
  </defs>
  <g id="ch3-1" class="cls-1">
    <path class="cls-2" d="M 26.3998908996582 232.5 C 22.91377258300781 232.5 19.5312442779541 231.6979064941406 16.34627342224121 230.1160583496094 C 13.26350879669189 228.5849456787109 10.49345016479492 226.3913269042969 8.113008499145508 223.5961151123047 C 5.727596759796143 220.7950592041016 3.854273319244385 217.5318603515625 2.545067548751831 213.8971405029297 C 1.203058838844299 210.1714477539063 0.5152941942214966 206.2152557373047 0.5002619624137878 202.1365509033203 C 1.021569132804871 201.2448883056641 4.209404468536377 195.5921325683594 7.348185062408447 185.5834655761719 C 10.49318504333496 175.5549468994141 14.24218559265137 158.9517669677734 14.24218559265137 136.80517578125 C 14.24218559265137 114.6884689331055 10.50212669372559 87.06755828857422 7.364596843719482 67.79100036621094 C 4.064767837524414 47.51717376708984 0.7225465774536133 31.97519874572754 0.5000485181808472 30.94662284851074 C 0.5059857368469238 26.83855247497559 1.193948149681091 22.85385131835938 2.545067548751831 19.10285377502441 C 3.854273319244385 15.46814727783203 5.727596759796143 12.20494079589844 8.113008499145508 9.403882026672363 C 10.49345016479492 6.608676433563232 13.26350879669189 4.415058612823486 16.34627342224121 2.883941173553467 C 19.5312442779541 1.302088260650635 22.91377258300781 0.5 26.3998908996582 0.5 C 29.88600921630859 0.5 33.26853942871094 1.302088260650635 36.45351028442383 2.883941173553467 C 39.53627395629883 4.415058612823486 42.30636215209961 6.608676433563232 44.68677520751953 9.403882026672363 C 47.07218551635742 12.20494079589844 48.94553756713867 15.46814727783203 50.25474548339844 19.10285377502441 C 51.61174392700195 22.87017631530762 52.2998046875 26.87297058105469 52.2998046875 31 L 52.2998046875 31.02870559692383 L 52.30309677124023 31.05723571777344 C 52.32091903686523 31.21199989318848 54.10686111450195 46.76943969726563 55.86977386474609 67.34714508056641 C 57.4964485168457 86.33467864990234 59.43553924560547 113.6001739501953 59.43553924560547 135.6648864746094 C 59.43553924560547 145.3949737548828 59.06153869628906 154.929443359375 58.32392120361328 164.00341796875 C 57.73383331298828 171.2625885009766 56.91103744506836 178.2449951171875 55.87839126586914 184.7566986083984 C 54.12015533447266 195.8438568115234 52.33900833129883 201.7964172363281 52.32121276855469 201.8552703857422 L 52.29983139038086 201.926025390625 L 52.2998046875 202 C 52.2998046875 206.1270294189453 51.61174392700195 210.1298217773438 50.25474548339844 213.8971405029297 C 48.94553756713867 217.5318603515625 47.07218551635742 220.7950592041016 44.68677520751953 223.5961151123047 C 42.30636215209961 226.3913269042969 39.53627395629883 228.5849456787109 36.45351028442383 230.1160583496094 C 33.26853942871094 231.6979064941406 29.88600921630859 232.5 26.3998908996582 232.5 Z"/>
    <path class="cls-3" d="M 26.3998908996582 1 C 22.99162673950195 1 19.6839485168457 1.784530639648438 16.56868362426758 3.331771850585938 C 13.54683303833008 4.832595825195313 10.83000946044922 6.984619140625 8.493686676025391 9.728057861328125 C 6.147392272949219 12.48316955566406 4.304244995117188 15.69432067871094 3.015480041503906 19.27229309082031 C 1.689769744873047 22.95271301269531 1.011898040771484 26.86233520507813 1.000164031982422 30.89378356933594 C 1.307949066162109 32.32023620605469 4.603946685791016 47.71751403808594 7.858097076416016 67.71067810058594 C 10.99859619140625 87.00541687011719 14.74218368530273 114.6550598144531 14.74218368530273 136.80517578125 C 14.74218368530273 159.0150299072266 10.98074340820313 175.6712036132813 7.825271606445313 185.7330932617188 C 4.751625061035156 195.5340270996094 1.707256317138672 201.0560150146484 1.001022338867188 202.2721862792969 C 1.030632019042969 206.2449645996094 1.707973480224609 210.0978240966797 3.015480041503906 213.7277069091797 C 4.304244995117188 217.3056793212891 6.147392272949219 220.5168304443359 8.493686676025391 223.2719421386719 C 10.83000946044922 226.015380859375 13.54683303833008 228.1674194335938 16.56868362426758 229.6682281494141 C 19.6839485168457 231.2154693603516 22.99162673950195 232 26.3998908996582 232 C 29.80815505981445 232 33.11582946777344 231.2154693603516 36.23109436035156 229.6682281494141 C 39.25295257568359 228.1674194335938 41.96977233886719 226.015380859375 44.30612564086914 223.2719421386719 C 46.65242004394531 220.5168304443359 48.49556732177734 217.3056793212891 49.78433227539063 213.7277069091797 C 51.1217155456543 210.0148773193359 51.7998046875 206.0691223144531 51.7998046875 202 L 51.79986190795898 201.85205078125 L 51.84259796142578 201.7106170654297 C 51.86033248901367 201.6519165039063 53.63612747192383 195.7125854492188 55.38909530639648 184.6497955322266 C 56.41862487792969 178.1524047851563 57.23894882202148 171.185302734375 57.82727432250977 163.9419708251953 C 58.56265640258789 154.8877563476563 58.93553924560547 145.3739929199219 58.93553924560547 135.6648864746094 C 58.93553924560547 113.618766784668 56.99759674072266 86.36993408203125 55.37189102172852 67.39311218261719 C 53.60959625244141 46.82205200195313 51.82421493530273 31.26918029785156 51.80638885498047 31.114501953125 L 51.7998046875 31.05743408203125 L 51.7998046875 31 C 51.7998046875 26.93087768554688 51.1217155456543 22.98512268066406 49.78433227539063 19.27229309082031 C 48.49556732177734 15.69432067871094 46.65242004394531 12.48316955566406 44.30612564086914 9.728057861328125 C 41.96977233886719 6.984619140625 39.25295257568359 4.832595825195313 36.23109436035156 3.331771850585938 C 33.11582946777344 1.784530639648438 29.80815505981445 1 26.3998908996582 1 M 26.3998908996582 0 C 40.98015594482422 0 52.7998046875 13.87918090820313 52.7998046875 31 C 52.7998046875 31 59.93553924560547 92.91488647460938 59.93553924560547 135.6648864746094 C 59.93553924560547 178.4148559570313 52.7998046875 202 52.7998046875 202 C 52.7998046875 219.1208190917969 40.98015594482422 233 26.3998908996582 233 C 11.81962585449219 233 7.62939453125e-06 219.1208190917969 7.62939453125e-06 202 C 7.62939453125e-06 202 13.74218368530273 179.55517578125 13.74218368530273 136.80517578125 C 13.74218368530273 94.05517578125 7.62939453125e-06 31 7.62939453125e-06 31 C 7.62939453125e-06 13.87918090820313 11.81962585449219 0 26.3998908996582 0 Z"/>
  </g>
</svg>
