<svg xmlns="http://www.w3.org/2000/svg" width="65.103" height="233" viewBox="0 0 65.103 233">
  <defs>
    <style>
      .cls-1 {
        fill: #fff;
      }

      .cls-2, .cls-3 {
        stroke: none;
      }

      .cls-3 {
        fill: #707070;
      }
    </style>
  </defs>
  <g id="ch3-2" class="cls-1" transform="translate(-1.439)">
    <path class="cls-2" d="M 40.14207458496094 232.5 C 36.65595626831055 232.5 33.27342987060547 231.6979064941406 30.08845710754395 230.1160583496094 C 27.00569343566895 228.5849456787109 24.23563385009766 226.3913269042969 21.85519409179688 223.5961151123047 C 19.46978187561035 220.7950592041016 17.59645843505859 217.5318603515625 16.28725242614746 213.8971405029297 C 14.93025207519531 210.1298217773438 14.2421932220459 206.1270294189453 14.2421932220459 202 L 14.2421932220459 201.8719482421875 L 14.18063449859619 201.7596740722656 C 14.15010547637939 201.7038879394531 11.08542823791504 196.0449066162109 8.060193061828613 185.2558288574219 C 6.283369541168213 178.9190521240234 4.867605209350586 172.0787353515625 3.85228157043457 164.9249114990234 C 2.583016872406006 155.9820861816406 1.939457893371582 146.521240234375 1.939457893371582 136.80517578125 C 1.939457893371582 127.0708236694336 2.585340261459351 115.4579086303711 3.859163761138916 102.2890625 C 4.878693103790283 91.74893951416016 6.30042839050293 80.19514465332031 8.084840774536133 67.94867706298828 C 11.12363433837891 47.09335327148438 14.20219326019287 31.25332260131836 14.23292827606201 31.09573554992676 L 14.2421932220459 31.0483226776123 L 14.2421932220459 31 C 14.2421932220459 26.87297058105469 14.93025207519531 22.87017631530762 16.28725242614746 19.10285377502441 C 17.59645843505859 15.46814727783203 19.46978187561035 12.20494079589844 21.85519409179688 9.403882026672363 C 24.23563385009766 6.608676433563232 27.00569343566895 4.415058612823486 30.08845710754395 2.883941173553467 C 33.27342987060547 1.302088260650635 36.65595626831055 0.5 40.14207458496094 0.5 C 43.62819290161133 0.5 47.01072311401367 1.302088260650635 50.19572448730469 2.883941173553467 C 53.27848815917969 4.415058612823486 56.04854583740234 6.608676433563232 58.42898559570313 9.403882026672363 C 60.81439971923828 12.20494079589844 62.68772125244141 15.46814727783203 63.99692916870117 19.10285377502441 C 65.34804534912109 22.85385131835938 66.0360107421875 26.83855247497559 66.04194641113281 30.94662284851074 C 65.81945037841797 31.97519874572754 62.47722625732422 47.51717376708984 59.17739868164063 67.79100036621094 C 56.03987121582031 87.06755828857422 52.29981231689453 114.6884689331055 52.29981231689453 136.80517578125 C 52.29981231689453 158.9517669677734 56.04880905151367 175.5549468994141 59.19380950927734 185.5834655761719 C 62.33259201049805 195.5921325683594 65.52042388916016 201.2448883056641 66.04173278808594 202.1365509033203 C 66.02670288085938 206.2152557373047 65.33893585205078 210.1714477539063 63.99692916870117 213.8971405029297 C 62.68772125244141 217.5318603515625 60.81439971923828 220.7950592041016 58.42898559570313 223.5961151123047 C 56.04854583740234 226.3913269042969 53.27848815917969 228.5849456787109 50.19572448730469 230.1160583496094 C 47.01072311401367 231.6979064941406 43.62819290161133 232.5 40.14207458496094 232.5 Z"/>
    <path class="cls-3" d="M 40.14207458496094 1 C 36.73381042480469 1 33.4261360168457 1.784530639648438 30.31087112426758 3.331771850585938 C 27.28901672363281 4.832595825195313 24.57219314575195 6.984619140625 22.23587036132813 9.728057861328125 C 19.88957595825195 12.48316955566406 18.04642868041992 15.69432067871094 16.75766372680664 19.27229309082031 C 15.42028045654297 22.98512268066406 14.74219512939453 26.93087768554688 14.74219512939453 31 L 14.74219512939453 31.09664916992188 L 14.72369384765625 31.19149780273438 C 14.69295883178711 31.34896850585938 11.61592864990234 47.18156433105469 8.578842163085938 68.0260009765625 C 6.795780181884766 80.26376342773438 5.375194549560547 91.80870056152344 4.356544494628906 102.3401489257813 C 3.084457397460938 115.4918518066406 2.439460754394531 127.0875625610352 2.439460754394531 136.80517578125 C 2.439460754394531 146.4862670898438 3.079841613769531 155.9127655029297 4.342811584472656 164.8228759765625 C 5.353076934814453 171.9501495361328 6.761722564697266 178.7649688720703 8.529605865478516 185.0779724121094 C 11.53963470458984 195.8265380859375 14.58889770507813 201.464111328125 14.61910629272461 201.5193481445313 L 14.74219512939453 201.7439117431641 L 14.74219512939453 202 C 14.74219512939453 206.0691223144531 15.42028045654297 210.0148773193359 16.75766372680664 213.7277069091797 C 18.04642868041992 217.3056793212891 19.88957595825195 220.5168304443359 22.23587036132813 223.2719421386719 C 24.57219314575195 226.015380859375 27.28901672363281 228.1674194335938 30.31087112426758 229.6682281494141 C 33.4261360168457 231.2154693603516 36.73381042480469 232 40.14207458496094 232 C 43.55033874511719 232 46.85801696777344 231.2154693603516 49.97328186035156 229.6682281494141 C 52.99513244628906 228.1674194335938 55.71195983886719 226.015380859375 58.04830932617188 223.2719421386719 C 60.39460372924805 220.5168304443359 62.23775100708008 217.3056793212891 63.52651596069336 213.7277069091797 C 64.83402252197266 210.0978240966797 65.51136016845703 206.2449645996094 65.54096984863281 202.2721862792969 C 64.83473968505859 201.0560150146484 61.79037094116211 195.5340270996094 58.71672058105469 185.7330932617188 C 55.56125259399414 175.6712036132813 51.79981231689453 159.0150299072266 51.79981231689453 136.80517578125 C 51.79981231689453 114.6550598144531 55.54339981079102 87.00541687011719 58.68389892578125 67.71067810058594 C 61.93804931640625 47.71751403808594 65.23404693603516 32.32023620605469 65.54183197021484 30.89378356933594 C 65.53009796142578 26.86233520507813 64.85222625732422 22.95271301269531 63.52651596069336 19.27229309082031 C 62.23775100708008 15.69432067871094 60.39460372924805 12.48316955566406 58.04830932617188 9.728057861328125 C 55.71195983886719 6.984619140625 52.99513244628906 4.832595825195313 49.97328186035156 3.331771850585938 C 46.85801696777344 1.784530639648438 43.55033874511719 1 40.14207458496094 1 M 40.14207458496094 0 C 54.72233963012695 0 66.54198455810547 13.87918090820313 66.54198455810547 31 C 66.54198455810547 31 52.79981231689453 94.05517578125 52.79981231689453 136.80517578125 C 52.79981231689453 179.55517578125 66.54198455810547 202 66.54198455810547 202 C 66.54198455810547 219.1208190917969 54.72233963012695 233 40.14207458496094 233 C 25.56180953979492 233 13.74219512939453 219.1208190917969 13.74219512939453 202 C 13.74219512939453 202 1.439460754394531 179.55517578125 1.439460754394531 136.80517578125 C 1.439460754394531 94.05517578125 13.74219512939453 31 13.74219512939453 31 C 13.74219512939453 13.87918090820313 25.56180953979492 0 40.14207458496094 0 Z"/>
  </g>
</svg>
