<svg xmlns="http://www.w3.org/2000/svg" width="99.701" height="123.097" viewBox="0 0 99.701 123.097">
  <defs>
    <style>
      .cls-1 {
        fill: #fff;
      }

      .cls-2, .cls-3 {
        stroke: none;
      }

      .cls-3 {
        fill: #707070;
      }
    </style>
  </defs>
  <g id="ch3" transform="translate(-376.492 -331.087)">
    <g id="ch3-1" class="cls-1" transform="matrix(0.999, -0.035, 0.035, 0.999, 372.717, 325.743)">
      <path class="cls-2" d="M 15.18753051757813 126.4561386108398 L 15.18734550476074 126.4561386108398 C 14.51977634429932 126.4561233520508 13.87766933441162 126.3970336914063 13.27868461608887 126.2805099487305 C 11.27986907958984 125.8920593261719 9.917868614196777 124.8828582763672 9.230438232421875 123.2809219360352 C 8.601284027099609 121.8147811889648 8.516283988952637 119.8684616088867 8.97780704498291 117.4959869384766 L 8.992130279541016 117.4223861694336 L 8.984222412109375 117.3478164672852 C 8.947284698486328 116.9991683959961 5.302145957946777 82.40619659423828 6.385838031768799 75.72869110107422 C 6.7698073387146 73.36307525634766 9.123146057128906 69.87212371826172 13.19145393371582 65.63323211669922 L 13.58026885986328 65.22811126708984 L 13.1329460144043 64.88869476318359 C 12.64436626434326 64.51798248291016 12.28610992431641 64.25099182128906 12.11161518096924 64.12158203125 L 3.979675531387329 42.74297332763672 L 4.782038688659668 23.6390266418457 C 5.227226734161377 19.21062278747559 5.500387668609619 16.53631782531738 9.594961166381836 14.9649076461792 C 10.44189929962158 14.63980007171631 11.43062305450439 14.46796894073486 12.45425319671631 14.46796894073486 C 14.84646892547607 14.46796894073486 17.20766830444336 15.38733863830566 18.46968460083008 16.81018447875977 C 19.25534629821777 17.69598388671875 19.58588409423828 18.70938491821289 19.45206832885742 19.82221603393555 L 17.19989967346191 37.30230712890625 L 17.1889762878418 37.38710784912109 L 17.20685386657715 37.47070693969727 L 21.31265449523926 56.6803092956543 L 21.36074638366699 56.90530776977539 L 21.56293106079102 57.01515197753906 C 21.56437683105469 57.01593780517578 21.68630027770996 57.08219909667969 21.91003799438477 57.20692443847656 L 22.20445442199707 57.37102890014648 L 22.46702194213867 57.15966033935547 C 22.52439117431641 57.11349105834961 22.55480766296387 57.08929061889648 22.55554580688477 57.08870697021484 L 22.73577690124512 56.94541549682617 L 22.74408340454102 56.71530914306641 L 23.45138359069824 37.08729934692383 L 24.5024299621582 15.58036231994629 C 25.24496078491211 11.84611892700195 28.53532981872559 9.139830589294434 32.33972930908203 9.139830589294434 C 32.85148620605469 9.139830589294434 33.36806869506836 9.189784049987793 33.87511444091797 9.288322448730469 C 35.97265243530273 9.695953369140625 37.78585433959961 10.89610767364502 38.98071670532227 12.66773796081543 C 40.17559051513672 14.43938446044922 40.60892868041992 16.57021522521973 40.20090103149414 18.66772270202637 L 40.19795989990234 18.68281555175781 L 40.19596099853516 18.69806098937988 L 37.41055679321289 39.89401626586914 L 33.09746551513672 62.44613647460938 C 32.96844863891602 62.58237075805664 32.72234344482422 62.8433723449707 32.38985443115234 63.20110702514648 L 32.00817489624023 63.61175537109375 L 32.45962142944336 63.94413757324219 C 37.08779144287109 67.35179901123047 39.9454231262207 70.33256530761719 40.72357559204102 72.56423187255859 C 42.95094680786133 78.95203399658203 45.36803817749023 113.652587890625 45.39219284057617 114.0023574829102 L 45.39383697509766 114.0260925292969 L 45.3977165222168 114.0495681762695 C 45.41080856323242 114.1289978027344 46.66400909423828 122.0288467407227 42.71391677856445 123.5451202392578 C 41.54570007324219 123.993537902832 40.17375946044922 124.230583190918 38.74642181396484 124.230598449707 C 36.92031478881836 124.2306289672852 35.11886978149414 123.8374786376953 33.67394638061523 123.1235504150391 C 32.1346321105957 122.3629913330078 31.04440116882324 121.2673034667969 30.51606369018555 119.9511795043945 C 30.38004875183105 117.5148773193359 28.36739921569824 81.87612915039063 26.84114646911621 77.90982818603516 C 26.47734642028809 76.9649658203125 25.55117607116699 75.73403167724609 24.00968360900879 74.14659881591797 L 23.5843620300293 73.70860290527344 L 23.23877716064453 74.21190643310547 C 21.92294502258301 76.12835693359375 21.18605422973633 77.557861328125 20.98597717285156 78.58213806152344 C 20.17143249511719 82.75324249267578 24.37875747680664 118.2008438110352 24.66791915893555 120.6238098144531 C 24.22490119934082 122.737190246582 22.56972694396973 124.090461730957 21.25080680847168 124.8562164306641 C 19.4995002746582 125.8729858398438 17.28952980041504 126.4561386108398 15.18753051757813 126.4561386108398 Z"/>
      <path class="cls-3" d="M 15.18753051757813 125.9561386108398 C 17.20397758483887 125.9561386108398 19.32245445251465 125.3976287841797 20.9997615814209 124.4237976074219 C 22.213623046875 123.7190628051758 23.73130989074707 122.4885559082031 24.16149520874023 120.5992279052734 C 24.00699615478516 119.2989196777344 22.96562576293945 110.4867706298828 22.02309989929199 101.3379669189453 C 19.95428466796875 81.25649261474609 20.3614387512207 79.17149353027344 20.49525451660156 78.48628997802734 C 20.70868492126465 77.39356994628906 21.47128486633301 75.90283203125 22.82659149169922 73.92889404296875 L 23.51774597167969 72.92227935791016 L 24.36839294433594 73.79827880859375 C 25.95777702331543 75.43502807617188 26.91923904418945 76.72113800048828 27.30779266357422 77.73026275634766 C 27.55848503112793 78.38176727294922 28.3214225769043 80.36440277099609 29.77143859863281 100.4995727539063 C 30.43202781677246 109.6728515625 30.93684768676758 118.5315704345703 31.01052093505859 119.8389282226563 C 31.63020896911621 121.3077011108398 32.91312789916992 122.1899337768555 33.89542388916016 122.6752777099609 C 35.2728385925293 123.355842590332 36.99560928344727 123.7306289672852 38.74640655517578 123.730598449707 C 40.11311340332031 123.730583190918 41.4230842590332 123.5050277709961 42.53472900390625 123.0783233642578 C 43.29371643066406 122.7869873046875 43.87142181396484 122.210693359375 44.30086898803711 121.316520690918 C 44.67974472045898 120.5276794433594 44.92710113525391 119.5150146484375 45.03605270385742 118.3067092895508 C 45.23006820678711 116.1551818847656 44.9075927734375 114.1504898071289 44.90443801879883 114.131217956543 L 44.89666748046875 114.0842742919922 L 44.89337539672852 114.0367965698242 C 44.86927032470703 113.6877059936523 42.45700836181641 79.0540771484375 40.2514533996582 72.72884368896484 C 39.73208618164063 71.23935699462891 37.9072380065918 68.5760498046875 32.16317749023438 64.34678649902344 L 31.26028442382813 63.68198394775391 L 32.02360916137695 62.8607063293457 C 32.28712463378906 62.57719421386719 32.49431610107422 62.3565788269043 32.63379287719727 62.20875549316406 L 36.91672897338867 39.81430053710938 L 39.70022201538086 18.63290786743164 L 39.7042236328125 18.60243034362793 L 39.71009826660156 18.57224655151367 C 40.09262466430664 16.60586166381836 39.68637847900391 14.60823059082031 38.56619262695313 12.94732284545898 C 37.44600677490234 11.28643035888672 35.74614715576172 10.16129207611084 33.77973175048828 9.779138565063477 C 33.30403900146484 9.686707496643066 32.81956100463867 9.639830589294434 32.33972930908203 9.639830589294434 C 28.78565788269043 9.639830589294434 25.71006774902344 12.15989398956299 25.0000171661377 15.64217948913574 L 23.9509162902832 37.10930633544922 L 23.24376106262207 56.73332214355469 L 23.22711563110352 57.19350814819336 L 22.86671447753906 57.48007583618164 C 22.86528396606445 57.48121643066406 22.83571434020996 57.50473785400391 22.78054618835449 57.54915237426758 L 22.25543785095215 57.97187805175781 L 21.66660690307617 57.64364624023438 C 21.44720649719238 57.52136993408203 21.32706832885742 57.45604705810547 21.32422256469727 57.45449066162109 L 20.91986846923828 57.23478317260742 L 20.82369995117188 56.78481674194336 L 16.71789932250977 37.57521438598633 L 16.68216133117676 37.40800094604492 L 16.70400810241699 37.2384147644043 L 18.95613861083984 19.75848388671875 C 19.07082366943359 18.79536247253418 18.78132057189941 17.91506767272949 18.09562301635742 17.14196968078613 C 16.92423820495605 15.82132339477539 14.70986938476563 14.96796894073486 12.45425319671631 14.96796894073486 C 11.49123859405518 14.96796894073486 10.56448459625244 15.12832260131836 9.774099349975586 15.43172264099121 C 5.970951557159424 16.89127731323242 5.720552444458008 19.30221748352051 5.281003952026367 23.67438888549805 L 4.483555316925049 42.66132736206055 L 12.52699279785156 63.80726623535156 C 12.72283554077148 63.95305252075195 13.03307914733887 64.18527984619141 13.43517684936523 64.49038696289063 L 14.3298225402832 65.16921234130859 L 13.55219173431396 65.97946166992188 C 8.50151538848877 71.24190521240234 7.135746002197266 74.22933959960938 6.879392147064209 75.80879974365234 C 5.806330680847168 82.42070770263672 9.444561004638672 116.947151184082 9.481438636779785 117.2951202392578 L 9.497238159179688 117.4442596435547 L 9.468606948852539 117.5914611816406 C 9.026592254638672 119.8636322021484 9.101053237915039 121.7115097045898 9.689914703369141 123.083740234375 C 10.31682300567627 124.5446319580078 11.52188396453857 125.4297409057617 13.37416172027588 125.7897109985352 C 13.9417610168457 125.9001235961914 14.55176162719727 125.9561233520508 15.1871919631958 125.9561386108398 L 15.18753051757813 125.9561386108398 M 15.18753051757813 126.9561386108398 C 15.18726825714111 126.9561386108398 15.18745422363281 126.9561386108398 15.1871919631958 126.9561386108398 C 14.49646854400635 126.9561233520508 13.8216381072998 126.8955078125 13.18320751190186 126.7713088989258 C 8.575207710266113 125.8758010864258 7.590607643127441 122.0085067749023 8.487007141113281 117.400505065918 C 8.487007141113281 117.400505065918 4.785299777984619 82.46971130371094 5.892299652099609 75.64859771728516 C 6.368499755859375 72.71470642089844 9.461007118225098 68.79801177978516 12.83071517944336 65.28701782226563 C 12.12268447875977 64.74978637695313 11.69640731811523 64.4364013671875 11.69640731811523 64.4364013671875 L 3.475807428359985 42.82470703125 L 4.28309965133667 23.6033992767334 C 4.730407238006592 19.15379905700684 5.032807350158691 16.18020057678223 9.415807723999023 14.49810791015625 C 10.35352802276611 14.13815498352051 11.39774799346924 13.96796607971191 12.45425605773926 13.96796607971191 C 16.3349494934082 13.96796607971191 20.3835620880127 16.26350021362305 19.94849967956543 19.88190841674805 L 17.6958065032959 37.3661994934082 L 21.80160713195801 56.57579803466797 C 21.80160713195801 56.57579803466797 21.92531585693359 56.64300155639648 22.15348434448242 56.77018356323242 C 22.21313095092773 56.72216796875 22.24440765380859 56.69730758666992 22.24440765380859 56.69730758666992 L 22.95180702209473 37.06650924682617 L 24.00480651855469 15.51959991455078 C 24.79388427734375 11.45919322967529 28.3524227142334 8.639824867248535 32.33972549438477 8.639824867248535 C 32.87746047973633 8.639824867248535 33.42290496826172 8.691089630126953 33.97050094604492 8.797507286071777 C 38.57849884033203 9.692999839782715 41.58810043334961 14.15520000457764 40.69169998168945 18.7632007598877 L 37.9044075012207 39.97350692749023 L 33.56100845336914 62.68410873413086 C 33.56100845336914 62.68410873413086 33.26111602783203 62.99813842773438 32.75608444213867 63.54150772094727 C 36.61288452148438 66.38121795654297 40.23292922973633 69.63850402832031 41.19570159912109 72.39959716796875 C 43.47090148925781 78.92459869384766 45.89100646972656 113.9679107666016 45.89100646972656 113.9679107666016 C 45.89100646972656 113.9679107666016 47.27520751953125 122.3298034667969 42.89310073852539 124.0119094848633 C 41.64886856079102 124.4895095825195 40.20890045166016 124.730583190918 38.74642944335938 124.7306060791016 C 35.05818939208984 124.7306594848633 31.22579765319824 123.1976165771484 30.02129936218262 120.0591049194336 C 30.02129936218262 120.0591049194336 27.91080665588379 82.08180236816406 26.3745002746582 78.08940124511719 C 26.00971603393555 77.14198303222656 24.99197578430176 75.87589263916016 23.65097618103027 74.49492645263672 C 22.51028442382813 76.15628051757813 21.67817687988281 77.64653778076172 21.47669982910156 78.67800140380859 C 20.65680694580078 82.87651062011719 25.17390060424805 120.6441040039063 25.17390060424805 120.6441040039063 C 24.40251541137695 124.6134185791016 19.4819450378418 126.9561386108398 15.18753051757813 126.9561386108398 Z"/>
    </g>
    <g id="ch3-2" class="cls-1" transform="translate(417.518 337.019) rotate(-8)">
      <path class="cls-2" d="M 28.86432647705078 117.8162612915039 C 25.05987930297852 117.8162612915039 21.76946449279785 115.1099700927734 21.02691841125488 111.3757247924805 L 19.97587203979492 89.86880493164063 L 19.2685718536377 70.24082946777344 L 19.26028060913086 70.01090240478516 L 19.08026504516602 69.86761474609375 C 19.07961845397949 69.86708831787109 19.04909515380859 69.84279632568359 18.9914493560791 69.79639434814453 L 18.72889518737793 69.58512115478516 L 18.43452644348145 69.74919891357422 C 18.21084976196289 69.87388610839844 18.08894157409668 69.94011688232422 18.08746528625488 69.94091796875 L 17.88523292541504 70.05075073242188 L 17.83712577819824 70.27579498291016 L 13.7312650680542 89.48541259765625 L 13.71338748931885 89.56901550292969 L 13.72431087493896 89.65380859375 L 15.9770336151123 107.1381072998047 C 16.11032676696777 108.2467498779297 15.77978801727295 109.2601470947266 14.99409580230713 110.1459503173828 C 13.73211097717285 111.5687255859375 11.37084865570068 112.4881362915039 8.97878360748291 112.4881362915039 C 8.978636741638184 112.4881362915039 8.97874927520752 112.4881362915039 8.978603363037109 112.4881362915039 C 7.954895496368408 112.4881210327148 6.966156959533691 112.316291809082 6.119279861450195 111.9912109375 C 2.024583578109741 110.4197845458984 1.751437783241272 107.7454833984375 1.306264996528625 103.3170776367188 L 0.5038865804672241 84.21316528320313 L 8.635947227478027 62.83454132080078 C 8.810451507568359 62.70512771606445 9.168720245361328 62.43814468383789 9.657310485839844 62.06742858886719 L 10.10464954376221 61.72801208496094 L 9.715818405151367 61.32287216186523 C 5.647449016571045 57.08401107788086 3.294080018997192 53.59305953979492 2.910110712051392 51.2274284362793 C 1.826372265815735 44.54973602294922 5.471587657928467 9.956981658935547 5.508541584014893 9.608335494995117 L 5.516448974609375 9.53376579284668 L 5.502126216888428 9.460165977478027 C 5.040603160858154 7.08768892288208 5.125603199005127 5.141366004943848 5.754756927490234 3.67524266242981 C 6.442203044891357 2.073288917541504 7.804218292236328 1.064104318618774 9.802988052368164 0.6756735444068909 C 10.40207958221436 0.5591350793838501 11.04420280456543 0.5000427961349487 11.71163368225098 0.5000273585319519 C 13.81377220153809 0.4999658465385437 16.02386474609375 1.083073496818542 17.77521896362305 2.099812030792236 C 19.09418487548828 2.865549087524414 20.74944877624512 4.218822956085205 21.19248390197754 6.332338333129883 C 20.90330696105957 8.755291938781738 16.6959056854248 44.20288848876953 17.51046371459961 48.37396621704102 C 17.71054077148438 49.39827346801758 18.44744873046875 50.82778167724609 19.7633113861084 52.74421310424805 L 20.10887908935547 53.24752044677734 L 20.53420257568359 52.80952072143555 C 22.07571029663086 51.22208786010742 23.00189590454102 49.99114990234375 23.36566543579102 49.04638290405273 C 24.89197731018066 45.07999038696289 26.90468978881836 9.441274642944336 27.04070472717285 7.004972457885742 C 27.56904411315918 5.688866138458252 28.65928840637207 4.593170642852783 30.19861793518066 3.832612037658691 C 31.64355659484863 3.118704319000244 33.44501876831055 2.725535154342651 35.27118682861328 2.725535154342651 C 36.69847869873047 2.725535154342651 38.07044982910156 2.962581157684326 39.23874282836914 3.411027431488037 C 40.11468124389648 3.747258186340332 40.80271148681641 4.429365634918213 41.28374099731445 5.438412189483643 C 41.6883430480957 6.287165641784668 41.95023345947266 7.364565849304199 42.06211090087891 8.640688896179199 C 42.25606536865234 10.85287380218506 41.92594146728516 12.8862886428833 41.92257308959961 12.90656566619873 L 41.91869354248047 12.93004322052002 L 41.91704940795898 12.95378112792969 C 41.89289474487305 13.30355072021484 39.47568130493164 48.00428771972656 37.24834060668945 54.39187240600586 C 36.47017288208008 56.62353515625 33.61249542236328 59.60432052612305 28.98427963256836 63.01198196411133 L 28.53281784057617 63.34436416625977 L 28.91449546813965 63.75501251220703 C 29.24698638916016 64.11274719238281 29.49309158325195 64.37374877929688 29.62210655212402 64.50998687744141 L 33.93525314331055 87.06207275390625 L 36.72069549560547 108.2580413818359 L 36.72269439697266 108.2732772827148 L 36.72563552856445 108.2883682250977 C 37.13366317749023 110.385871887207 36.70032501220703 112.5167007446289 35.50543212890625 114.2883529663086 C 34.3105583190918 116.0599670410156 32.49731063842773 117.2601318359375 30.39974212646484 117.6677627563477 C 29.8926944732666 117.7663040161133 29.3761100769043 117.8162612915039 28.86432647705078 117.8162612915039 Z"/>
      <path class="cls-3" d="M 11.71163558959961 1.000030517578125 C 11.076171875 1.000045776367188 10.46617126464844 1.056045532226563 9.898372650146484 1.166488647460938 C 8.046234130859375 1.52642822265625 6.841156005859375 2.411537170410156 6.2142333984375 3.872413635253906 C 5.625373840332031 5.244644165039063 5.550910949707031 7.092521667480469 5.992927551269531 9.364692687988281 L 6.021556854248047 9.511886596679688 L 6.005756378173828 9.661026000976563 C 5.968879699707031 10.00901031494141 2.330589294433594 44.53543090820313 3.403648376464844 51.14731597900391 C 3.660018920898438 52.72679901123047 5.025802612304688 55.71422576904297 10.07654190063477 60.97665786743164 L 10.85420227050781 61.78690338134766 L 9.959526062011719 62.46575164794922 C 9.557430267333984 62.77084350585938 9.247173309326172 63.00307846069336 9.051319122314453 63.14886856079102 L 1.007766723632813 84.29481506347656 L 1.805233001708984 103.28173828125 C 2.244766235351563 107.6539001464844 2.495147705078125 110.064826965332 6.298435211181641 111.5244140625 C 7.088771820068359 111.8277816772461 8.015541076660156 111.9881362915039 8.978572845458984 111.9881362915039 C 11.23424911499023 111.9881362915039 13.44868087768555 111.1347808837891 14.62006378173828 109.8141021728516 C 15.30576133728027 109.0410232543945 15.59526443481445 108.1607284545898 15.4805793762207 107.197624206543 L 13.22841835021973 89.71768951416016 L 13.20657157897949 89.54810333251953 L 13.24231147766113 89.38088989257813 L 17.34817314147949 70.17128753662109 L 17.44441795349121 69.72120666503906 L 17.84881782531738 69.50153350830078 C 17.85171127319336 69.49996948242188 17.9718189239502 69.4346923828125 18.19109535217285 69.31246948242188 L 18.77981758117676 68.98429870605469 L 19.3049259185791 69.40687561035156 C 19.36040306091309 69.45152282714844 19.39009475708008 69.47516632080078 19.39143371582031 69.47622680664063 L 19.75166511535645 69.76283264160156 L 19.76824951171875 70.22279357910156 L 20.47540473937988 89.84679412841797 L 21.52450561523438 111.3139114379883 C 22.23455619812012 114.7961959838867 25.31020927429199 117.3162612915039 28.86432647705078 117.3162612915039 C 29.34417343139648 117.3162612915039 29.82866477966309 117.2693786621094 30.30435562133789 117.1769485473633 C 32.27082061767578 116.7947998046875 33.97071075439453 115.6696548461914 35.09091186523438 114.0087661743164 C 36.21110916137695 112.3478546142578 36.61735534667969 110.350227355957 36.23483276367188 108.3838424682617 L 36.22895812988281 108.3536605834961 L 36.22495651245117 108.3231811523438 L 33.44143295288086 87.14180755615234 L 29.1584358215332 64.74736022949219 C 29.01895904541016 64.59954833984375 28.81176567077637 64.37892150878906 28.54824829101563 64.09541320800781 L 27.78491020202637 63.27412033081055 L 28.68781852722168 62.60933685302734 C 34.43197250366211 58.38005828857422 36.2568359375 55.71675109863281 36.77621841430664 54.22724151611328 C 38.98168182373047 47.90242767333984 41.39412689208984 13.26842498779297 41.41823577880859 12.91933441162109 L 41.42158889770508 12.87185668945313 L 41.42917251586914 12.82563018798828 C 41.43244934082031 12.80564117431641 41.75494003295898 10.80094909667969 41.56090927124023 8.649429321289063 C 41.45195770263672 7.441116333007813 41.2046012878418 6.428474426269531 40.82572555541992 5.639610290527344 C 40.39626312255859 4.745445251464844 39.81855773925781 4.169151306152344 39.0595703125 3.877815246582031 C 37.9478645324707 3.451087951660156 36.63786315917969 3.225532531738281 35.27120208740234 3.225532531738281 C 33.52035522460938 3.225532531738281 31.79754257202148 3.600334167480469 30.42011070251465 4.280891418457031 C 29.43778419494629 4.7662353515625 28.15485000610352 5.648468017578125 27.53516006469727 7.117240905761719 C 27.46148681640625 8.424598693847656 26.9566535949707 17.28329467773438 26.29603385925293 26.45656585693359 C 24.84598731994629 46.59172058105469 24.08306503295898 48.57434844970703 23.83227920532227 49.22604370117188 C 23.44378852844238 50.23497772216797 22.4823112487793 51.52108764648438 20.89291000366211 53.15784454345703 L 20.04226493835449 54.03384399414063 L 19.35111045837402 53.02722930908203 C 17.99577140808105 51.05329132080078 17.2331714630127 49.56255340576172 17.01972579956055 48.46979522705078 C 16.88592529296875 47.78464508056641 16.47875595092773 45.69964599609375 18.5476188659668 25.6181640625 C 19.49017333984375 16.46937561035156 20.53155899047852 7.6572265625 20.68605995178223 6.356918334960938 C 20.25585746765137 4.467475891113281 18.73809432983398 3.236968994140625 17.52417182922363 2.5322265625 C 15.8468189239502 1.558441162109375 13.72821807861328 0.999969482421875 11.71165084838867 1.000030517578125 L 11.71163558959961 1.000030517578125 M 11.71162033081055 3.0517578125e-05 C 16.00628089904785 -9.918212890625e-05 20.92703437805176 2.342491149902344 21.69846534729004 6.312042236328125 C 21.69846534729004 6.312042236328125 17.1812801361084 44.07962799072266 18.00118827819824 48.27813720703125 C 18.20266532897949 49.30959320068359 19.03478813171387 50.79984283447266 20.17549514770508 52.46119689941406 C 21.51651000976563 51.08023071289063 22.53426551818848 49.81413269042969 22.8990650177002 48.86672210693359 C 24.43538856506348 44.87432098388672 26.54594230651855 6.897041320800781 26.54594230651855 6.897041320800781 C 27.75045013427734 3.758529663085938 31.58290672302246 2.225532531738281 35.27120208740234 2.225532531738281 C 36.73369598388672 2.225532531738281 38.17367172241211 2.466621398925781 39.41792678833008 2.944229125976563 C 43.80007934570313 4.626335144042969 42.41586303710938 12.98822784423828 42.41586303710938 12.98822784423828 C 42.41586303710938 12.98822784423828 39.99571228027344 48.03151702880859 37.72046661376953 54.55650329589844 C 36.7576789855957 57.31759643554688 33.1375732421875 60.57490539550781 29.28072738647461 63.41461181640625 C 29.78575706481934 63.95798110961914 30.08564949035645 64.27201080322266 30.08564949035645 64.27201080322266 L 34.42911148071289 86.98259735107422 L 37.21643447875977 108.1928863525391 C 38.11285018920898 112.8008880615234 35.10320281982422 117.2630920410156 30.49512481689453 118.1585845947266 C 29.94752502441406 118.2649993896484 29.40207290649414 118.3162612915039 28.86433029174805 118.3162612915039 C 24.87697410583496 118.3162612915039 21.31838417053223 115.4968948364258 20.52929496765137 111.4364929199219 L 19.47629547119141 89.88959503173828 L 18.76889610290527 70.25881195068359 C 18.76889610290527 70.25881195068359 18.73761749267578 70.23393249511719 18.6779727935791 70.18593597412109 C 18.44980239868164 70.31311798095703 18.32608032226563 70.38030242919922 18.32608032226563 70.38030242919922 L 14.22021865844727 89.58990478515625 L 16.47294235229492 107.0741958618164 C 16.90800476074219 110.6925888061523 12.85932540893555 112.9881362915039 8.978569030761719 112.9881362915039 C 7.922046661376953 112.9881362915039 6.877815246582031 112.8179473876953 5.940078735351563 112.4580001831055 C 1.557018280029297 110.7759017944336 1.254619598388672 107.8023071289063 0.8073272705078125 103.3527069091797 L 1.9073486328125e-05 84.13142395019531 L 8.220741271972656 62.51971817016602 C 8.220741271972656 62.51971817016602 8.64703369140625 62.20633697509766 9.355079650878906 61.66910552978516 C 5.985309600830078 58.15810394287109 2.892772674560547 54.24142456054688 2.416572570800781 51.30753326416016 C 1.309555053710938 44.48642730712891 5.011325836181641 9.555641174316406 5.011325836181641 9.555641174316406 C 4.114910125732422 4.947639465332031 5.099525451660156 1.080352783203125 9.707603454589844 0.1848602294921875 C 10.34605026245117 0.06066131591796875 11.02089691162109 4.57763671875e-05 11.71162033081055 3.0517578125e-05 Z"/>
    </g>
  </g>
</svg>
