<svg xmlns="http://www.w3.org/2000/svg" width="68.574" height="232" viewBox="0 0 68.574 232">
  <defs>
    <style>
      .cls-1 {
        fill: #fff;
        stroke-linecap: round;
        stroke-linejoin: round;
      }

      .cls-2, .cls-3 {
        stroke: none;
      }

      .cls-3 {
        fill: #9a9a9a;
      }
    </style>
  </defs>
  <g id="ch4-2" class="cls-1" transform="translate(7.401 4.524)">
    <path class="cls-2" d="M 30.65128707885742 226.4762420654297 C 20.5659122467041 226.4762420654297 12.88791179656982 223.75244140625 7.830630779266357 218.3804931640625 C 6.206849575042725 216.6556854248047 4.853161811828613 214.6484375 3.807162046432495 212.4145660400391 C 2.965255737304688 210.6165313720703 2.319036960601807 208.6674346923828 1.886412024497986 206.6214294433594 C 1.144818186759949 203.1141510009766 1.291286945343018 200.5065307617188 1.292849540710449 200.4805908203125 L 1.294661998748779 200.4504699707031 L 1.294724464416504 200.4192199707031 L 1.294724464416504 68.98728179931641 L 1.294724464416504 68.91709136962891 L 1.28491199016571 68.84758758544922 C 1.243661999702454 68.55524444580078 -2.872650623321533 39.42387390136719 -5.755306720733643 23.0109977722168 C -6.412369251251221 19.2699031829834 -6.568181991577148 15.88771629333496 -6.218431949615479 12.95843505859375 C -5.930931568145752 10.5506534576416 -5.300713062286377 8.430747032165527 -4.345212936401367 6.657591342926025 C -2.533400535583496 3.295184850692749 -0.05730676278471947 2.122091293334961 0.658411979675293 1.842653632164001 C 0.8371619582176208 1.772841215133667 1.097943186759949 1.655216217041016 1.492724537849426 1.47712242603302 C 4.234505653381348 0.240247443318367 12.57809925079346 -3.523752450942993 21.4444751739502 -3.523752450942993 C 31.65594291687012 -3.523752450942993 39.01847457885742 1.45187246799469 43.32753753662109 11.2649040222168 C 45.97019195556641 17.28296661376953 48.50053787231445 24.06837272644043 50.84828567504883 31.43265342712402 C 52.72866058349609 37.33087158203125 54.49653625488281 43.61068344116211 56.10275650024414 50.09768676757813 C 58.68140029907227 60.51193237304688 60.01514053344727 68.14800262451172 60.17159271240234 69.06095886230469 L 57.32350540161133 200.3975219726563 L 57.32150650024414 200.4888153076172 L 57.33609771728516 200.5789337158203 C 57.3400993347168 200.6040649414063 57.74850463867188 203.2313995361328 57.34753799438477 206.7569274902344 C 57.11403656005859 208.810302734375 56.65531921386719 210.7639007568359 55.98416137695313 212.5634918212891 C 55.152099609375 214.7945251464844 53.98825454711914 216.7956237792969 52.52497482299805 218.5111236572266 C 48.0167236328125 223.7964019775391 40.6573486328125 226.4762420654297 30.65128707885742 226.4762420654297 Z"/>
    <path class="cls-3" d="M 21.44447898864746 -2.523757934570313 C 12.79325866699219 -2.523757934570313 4.597259521484375 1.173629760742188 1.903976440429688 2.388626098632813 C 1.495040893554688 2.573089599609375 1.224884033203125 2.694961547851563 1.022132873535156 2.774124145507813 C 0.3866958618164063 3.022216796875 -1.814834594726563 4.069686889648438 -3.464897155761719 7.131927490234375 C -4.360584259033203 8.794158935546875 -4.952926635742188 10.79437255859375 -5.225490570068359 13.07699584960938 C -5.563648223876953 15.90914916992188 -5.410552978515625 19.19325256347656 -4.770397186279297 22.83802795410156 C -1.884834289550781 39.26730346679688 2.233852386474609 68.41537475585938 2.275104522705078 68.70790100097656 C 2.288166046142578 68.80043029785156 2.294727325439453 68.89381408691406 2.294727325439453 68.98727416992188 L 2.294727325439453 200.4192199707031 C 2.294727325439453 200.4608764648438 2.293697357177734 200.4981842041016 2.291103363037109 200.5397796630859 C 2.289634704589844 200.5649108886719 2.1533203125 203.0926818847656 2.879604339599609 206.4841918945313 C 3.300258636474609 208.4485931396484 3.924728393554688 210.3175964355469 4.735698699951172 212.0392456054688 C 5.736789703369141 214.1645660400391 7.028415679931641 216.0731506347656 8.574760437011719 217.7119903564453 C 13.43585205078125 222.8639678955078 20.86347961425781 225.4762420654297 30.65129089355469 225.4762420654297 C 40.34191513061523 225.4762420654297 47.44119644165039 222.9193115234375 51.75194549560547 217.8764343261719 C 53.13510513305664 216.2583465576172 54.23810195922852 214.3684692382813 55.03025817871094 212.2593078613281 C 55.67488479614258 210.54296875 56.1176643371582 208.6759948730469 56.34629058837891 206.7103729248047 C 56.74235153198242 203.3052215576172 56.35223007202148 200.7598724365234 56.34891510009766 200.7386474609375 C 56.32950973510742 200.6187438964844 56.32107162475586 200.497314453125 56.32369613647461 200.3758392333984 L 59.16969680786133 69.13554382324219 C 58.95486831665039 67.89346313476563 57.62787628173828 60.4150390625 55.12725830078125 50.31861877441406 C 53.52650833129883 43.85546875 51.76507186889648 37.59959411621094 49.89185333251953 31.72480773925781 C 47.55575942993164 24.3983154296875 45.03913497924805 17.64987182617188 42.41194915771484 11.66693115234375 C 41.22572708129883 8.965560913085938 39.78598022460938 6.618240356445313 38.13266754150391 4.690216064453125 C 36.63413238525391 2.94268798828125 34.92060089111328 1.494338989257813 33.03966522216797 0.38543701171875 C 29.76532173156738 -1.544967651367188 25.86413383483887 -2.523757934570313 21.44447898864746 -2.523757934570313 M 21.44447135925293 -4.52374267578125 C 29.95287704467773 -4.52374267578125 38.96560287475586 -1.155776977539063 44.2431640625 10.86280822753906 C 55.89647674560547 37.40090942382813 61.17338562011719 68.98727416992188 61.17338562011719 68.98727416992188 L 58.32322692871094 200.4192199707031 C 58.32322692871094 200.4192199707031 62.70101165771484 227.4762420654297 30.65129089355469 227.4762420654297 C -1.398460388183594 227.4762420654297 0.2947273254394531 200.4192199707031 0.2947273254394531 200.4192199707031 L 0.2947273254394531 68.98727416992188 C 0.2947273254394531 68.98727416992188 -3.8271484375 39.77012634277344 -6.740242004394531 23.18399047851563 C -9.653335571289063 6.597869873046875 -2.132991790771484 1.858963012695313 0.2947273254394531 0.9110870361328125 C 1.622997283935547 0.3925018310546875 11.16558456420898 -4.52374267578125 21.44447135925293 -4.52374267578125 Z"/>
  </g>
</svg>
