<svg xmlns="http://www.w3.org/2000/svg" width="94.735" height="128.395" viewBox="0 0 94.735 128.395">
  <defs>
    <style>
      .cls-1 {
        fill: #fff;
      }

      .cls-2, .cls-3 {
        stroke: none;
      }

      .cls-3 {
        fill: #707070;
      }
    </style>
  </defs>
  <g id="ch4" transform="translate(-377.732 -324.057)">
    <g id="ch4-1" class="cls-1" transform="matrix(0.999, -0.035, 0.035, 0.999, 372.717, 325.743)">
      <path class="cls-2" d="M 15.18755149841309 126.4561309814453 L 15.18735122680664 126.4561309814453 C 14.51980113983154 126.4561080932617 13.87768459320068 126.3970260620117 13.27866840362549 126.2805099487305 C 11.27986812591553 125.8920745849609 9.917867660522461 124.8828582763672 9.230434417724609 123.2809295654297 C 8.601284980773926 121.8147964477539 8.516284942626953 119.8684616088867 8.977801322937012 117.4959945678711 L 8.984850883483887 117.4597625732422 L 8.986501693725586 117.4228973388672 C 9.011351585388184 116.8682479858398 11.48451805114746 61.88024520874023 12.57513427734375 55.16646194458008 C 12.90478515625 53.13524627685547 14.61886787414551 50.36117935180664 17.66978454589844 46.92126083374023 L 18.01058387756348 46.53702926635742 L 17.61733436584473 46.20666122436523 C 15.95071792602539 44.80654525756836 14.56775093078613 43.18070983886719 13.38941764831543 41.23625946044922 C 10.60255146026611 36.63751220703125 8.967667579650879 31.15916061401367 8.086917877197266 27.37317848205566 C 7.129384517669678 23.25712776184082 6.83125114440918 20.19442749023438 6.828351497650146 20.16396141052246 L 6.824001312255859 20.11826133728027 L 6.8114013671875 20.07407760620117 L 5.395869255065918 15.11441326141357 C 5.836330413818359 10.73390769958496 6.130691051483154 8.083060264587402 10.20065116882324 6.521094799041748 C 11.04761791229248 6.19599437713623 12.03635120391846 6.024144649505615 13.06001758575439 6.024144649505615 C 15.45240116119385 6.024144649505615 17.81368446350098 6.943528175354004 19.07566833496094 8.366361618041992 C 19.86113548278809 9.251944541931152 20.19156837463379 10.26504421234131 20.05778503417969 11.3775110244751 L 20.05423545837402 11.40697765350342 L 20.05420112609863 11.43666172027588 L 20.05062294006348 14.73193836212158 C 20.02926063537598 14.99922466278076 19.86570167541504 17.32914733886719 20.34330177307129 20.70952796936035 C 20.80171775817871 23.95424461364746 21.96713447570801 28.80962753295898 24.91583442687988 33.51422882080078 C 25.69013404846191 34.74967956542969 26.56248474121094 35.85282897949219 27.5827522277832 36.88669586181641 L 27.90290069580078 37.21112823486328 L 28.25550079345703 36.92227935791016 C 28.56618499755859 36.66776275634766 28.74328422546387 36.52672958374023 28.74503517150879 36.52534484863281 L 28.97026824951172 36.34609603881836 L 28.92836761474609 36.06129455566406 L 26.08378219604492 16.73283576965332 L 26.30131340026855 10.49988079071045 C 26.67334747314453 8.621623039245605 27.50655174255371 7.041351318359375 28.7123851776123 5.927811145782471 C 29.93090057373047 4.802527904510498 31.48111724853516 4.207744598388672 33.1954345703125 4.207744598388672 C 33.70165252685547 4.207744598388672 34.22613525390625 4.259844779968262 34.75431823730469 4.362594604492188 C 36.85203552246094 4.770261287689209 38.66525268554688 5.970311164855957 39.86003494262695 7.741711139678955 C 41.05488586425781 9.513228416442871 41.48821640014648 11.64419460296631 41.0802001953125 13.74206161499023 L 41.07943344116211 13.74601173400879 L 41.07871627807617 13.74996089935303 L 40.04191970825195 19.58016204833984 L 40.03573608398438 19.61496162414551 L 40.03450012207031 19.65026092529297 L 39.25720977783203 41.91415786743164 C 39.06391525268555 42.11854553222656 38.66786956787109 42.53957366943359 38.13828277587891 43.11434555053711 L 37.72550201416016 43.56234359741211 L 38.24539947509766 43.87985992431641 C 39.96163558959961 44.92801284790039 41.82391738891602 46.30867767333984 42.62348556518555 48.60172653198242 C 44.84420013427734 54.97297668457031 44.85831832885742 109.7121276855469 44.85820007324219 110.2643127441406 L 44.85818481445313 110.3054580688477 L 44.86491775512695 110.346061706543 C 44.87800216674805 110.4255142211914 46.13120269775391 118.3253479003906 42.18111801147461 119.8416290283203 C 41.0126838684082 120.2900466918945 39.64046859741211 120.5270919799805 38.21285247802734 120.5271301269531 C 36.38663482666016 120.5271759033203 34.58511734008789 120.1340942382813 33.14015197753906 119.420280456543 C 31.60653305053711 118.6626510620117 30.51861190795898 117.5722351074219 29.98810386657715 116.262809753418 C 30.00069999694824 113.7854537963867 30.22512817382813 66.21523284912109 29.08795166015625 55.85779571533203 L 28.91805076599121 54.31032943725586 L 28.15510177612305 55.66731262207031 C 27.61855125427246 56.62161254882813 27.29805183410645 57.39112854003906 27.17526817321777 58.01986312866211 C 26.36119651794434 62.18766784667969 24.75935745239258 117.6596755981445 24.67530059814453 120.5879745483398 C 24.24355316162109 122.7218322753906 22.57713890075684 124.0861587524414 21.25081825256348 124.8562088012695 C 19.4995174407959 125.8729782104492 17.28955078125 126.4561309814453 15.18755149841309 126.4561309814453 Z"/>
      <path class="cls-3" d="M 15.18755149841309 125.9561309814453 C 17.2039852142334 125.9561309814453 19.32246780395508 125.3976135253906 20.9997673034668 124.4237976074219 C 22.2285099029541 123.7103958129883 23.76855087280273 122.4585342407227 24.17678070068359 120.5296401977539 C 24.27436447143555 117.1332168579102 25.86648559570313 62.11216354370117 26.68453407287598 57.92402648925781 C 26.81771850585938 57.24212646484375 27.15616798400879 56.42379379272461 27.71926879882813 55.42227935791016 L 29.24516868591309 52.70829391479492 L 29.58496856689453 55.80322647094727 C 30.72447967529297 66.18191528320313 30.50914573669434 112.2516784667969 30.4886474609375 116.1640319824219 C 31.11273193359375 117.6157684326172 32.38558578491211 118.4898376464844 33.36161804199219 118.9719924926758 C 34.73905181884766 119.652458190918 36.46191787719727 120.0271759033203 38.21285247802734 120.0271301269531 C 39.57981872558594 120.0270919799805 40.89008331298828 119.8015289306641 42.00193405151367 119.3748245239258 C 42.76091766357422 119.08349609375 43.33861923217773 118.507209777832 43.76806640625 117.6130294799805 C 44.14693450927734 116.8241806030273 44.39428329467773 115.8115310668945 44.50325012207031 114.6032104492188 C 44.69726943969727 112.4516983032227 44.37478637695313 110.4469909667969 44.37163543701172 110.4277267456055 L 44.35818481445313 110.3465118408203 L 44.35820007324219 110.2641983032227 C 44.35823440551758 110.1260452270508 44.35790252685547 96.28101348876953 44.07995223999023 81.81684112548828 C 43.61738586425781 57.74639511108398 42.77583312988281 50.55797958374023 42.15135192871094 48.7663459777832 C 41.54870223999023 47.03799438476563 40.34156799316406 45.74591064453125 37.98478317260742 44.30657958984375 L 36.94501876831055 43.67154312133789 L 37.77056884765625 42.77554321289063 C 38.20650482177734 42.30241012573242 38.54780578613281 41.93775939941406 38.76411056518555 41.70809173583984 L 39.53481674194336 19.63282775878906 L 39.53726959228516 19.56219482421875 L 39.54965209960938 19.49262809753418 L 40.58645248413086 13.66242790222168 L 40.58785247802734 13.6544942855835 L 40.58940124511719 13.6465950012207 C 40.97191619873047 11.67984485626221 40.56566619873047 9.68207836151123 39.44550323486328 8.021294593811035 C 38.32540130615234 6.360628128051758 36.62553405761719 5.235594749450684 34.65883636474609 4.853394508361816 C 34.16206741333008 4.756744384765625 33.66970062255859 4.707744598388672 33.1954345703125 4.707744598388672 C 31.60905075073242 4.707744598388672 30.17613410949707 5.256661415100098 29.05160140991211 6.295144557952881 C 27.932373046875 7.328713893890381 27.15459442138672 8.801609039306641 26.79957389831543 10.55809020996094 L 26.58505249023438 16.70479774475098 L 29.42305183410645 35.98849487304688 L 29.5068187713623 36.55805969238281 L 29.0564022064209 36.91656112670898 C 29.05466842651367 36.91794586181641 28.87960052490234 37.0573616027832 28.57235145568848 37.30906295776367 L 27.86716842651367 37.88676071166992 L 27.22685050964355 37.23789596557617 C 26.18063545227051 36.17771148681641 25.28610229492188 35.04654312133789 24.49218559265137 33.77977752685547 C 21.49675178527832 29.0006275177002 20.31343460083008 24.0722770690918 19.84821891784668 20.77947807312012 C 19.37470245361328 17.42797660827637 19.52292060852051 15.07770347595215 19.55064392089844 14.71251201629639 L 19.55420112609863 11.43612766265869 L 19.55426788330078 11.3767614364624 L 19.56135177612305 11.31781101226807 C 19.67731857299805 10.35347747802734 19.38805198669434 9.472094535827637 18.70158386230469 8.698144912719727 C 17.53023529052734 7.377494812011719 15.3157844543457 6.524144649505615 13.06001758575439 6.524144649505615 C 12.09698486328125 6.524144649505615 11.17020130157471 6.684494495391846 10.37980175018311 6.987894535064697 C 6.623487949371338 8.429494857788086 6.332897663116455 10.79882335662842 5.902932167053223 15.06919956207275 L 7.292201519012451 19.93684387207031 L 7.317384719848633 20.02524375915527 L 7.326101303100586 20.11652755737305 C 7.32898473739624 20.14677810668945 7.625851154327393 23.18901062011719 8.577584266662598 27.27564430236816 C 9.449968338012695 31.02157783508301 11.06711769104004 36.43939590454102 13.81701755523682 40.97712707519531 C 14.96656799316406 42.87407684326172 16.31486892700195 44.45944595336914 17.93895149230957 45.82382965087891 L 18.72543525695801 46.48454284667969 L 18.04385185241699 47.25302886962891 C 14.32321834564209 51.44806289672852 13.28471755981445 53.91537857055664 13.06866836547852 55.24664306640625 C 11.98266792297363 61.9319953918457 9.510834693908691 116.8909149169922 9.486001014709473 117.4452743530273 L 9.482701301574707 117.5190124511719 L 9.468601226806641 117.5914611816406 C 9.026584625244141 119.8636474609375 9.101051330566406 121.7115097045898 9.68991756439209 123.0837478637695 C 10.31681823730469 124.5446243286133 11.52188491821289 125.4297409057617 13.37413501739502 125.7897109985352 C 13.94176769256592 125.9001312255859 14.55178451538086 125.9561080932617 15.18718433380127 125.9561309814453 L 15.18755149841309 125.9561309814453 M 15.18755149841309 126.9561309814453 C 15.18728923797607 126.9561309814453 15.18744659423828 126.9561309814453 15.18718433380127 126.9561309814453 C 14.49646759033203 126.9561080932617 13.82163429260254 126.8954925537109 13.18320178985596 126.7713088989258 C 8.575201034545898 125.8758087158203 7.590601444244385 122.0085144042969 8.487001419067383 117.4005126953125 C 8.487001419067383 117.4005126953125 10.97370147705078 61.906494140625 12.0816011428833 55.08629608154297 C 12.47483444213867 52.66327667236328 14.65153503417969 49.5708122253418 17.29571723937988 46.58949279785156 C 15.77533435821533 45.31222915649414 14.28540134429932 43.67954635620117 12.96180152893066 41.49539566040039 C 7.495201110839844 32.47469329833984 6.330601215362549 20.21129417419434 6.330601215362549 20.21129417419434 L 4.888801574707031 15.15959453582764 C 5.336101531982422 10.7090950012207 5.638501167297363 7.73639440536499 10.0215015411377 6.054294586181641 C 10.95922374725342 5.694343090057373 12.00351715087891 5.524148464202881 13.06002521514893 5.524148464202881 C 16.94071960449219 5.524148464202881 20.9892578125 7.819505214691162 20.55420112609863 11.43721103668213 L 20.55060195922852 14.75279426574707 C 20.55060195922852 14.75279426574707 19.72170066833496 24.28559494018555 25.33950042724609 33.24869537353516 C 26.13246726989746 34.5139274597168 27.00968551635742 35.59414291381836 27.93863487243652 36.53549575805664 C 28.25641822814941 36.27516174316406 28.43370056152344 36.13409423828125 28.43370056152344 36.13409423828125 L 25.58250045776367 16.76069450378418 L 25.80300140380859 10.44269466400146 C 26.58798408508301 6.403396606445313 29.40762519836426 3.707747220993042 33.19543838500977 3.707747220993042 C 33.72871780395508 3.707747220993042 34.28111267089844 3.761167049407959 34.84980010986328 3.871794700622559 C 39.45780181884766 4.767294406890869 42.46739959716797 9.228594779968262 41.57100296020508 13.83751106262207 L 40.53420257568359 19.66771125793457 L 39.75030136108398 42.12089538574219 C 39.75030136108398 42.12089538574219 39.272216796875 42.62154388427734 38.50600051879883 43.45314407348633 C 40.61638641357422 44.74201202392578 42.30933380126953 46.18219375610352 43.09560012817383 48.43709564208984 C 45.36989974975586 54.96209335327148 45.35820007324219 110.2644119262695 45.35820007324219 110.2644119262695 C 45.35820007324219 110.2644119262695 46.74240112304688 118.6263122558594 42.36030197143555 120.3084106445313 C 41.11581039428711 120.786018371582 39.67546844482422 121.0270919799805 38.21286773681641 121.0271301269531 C 34.5242919921875 121.0272369384766 30.69209289550781 119.4943771362305 29.48760223388672 116.3565139770508 C 29.48760223388672 116.3565139770508 29.76301765441895 66.58773040771484 28.59093475341797 55.91236114501953 C 28.11230087280273 56.7636604309082 27.78290176391602 57.51709365844727 27.66600227355957 58.11569595336914 C 26.84610176086426 62.31329345703125 25.17390060424805 120.6441116333008 25.17390060424805 120.6441116333008 C 24.40251541137695 124.6134185791016 19.48196601867676 126.9561309814453 15.18755149841309 126.9561309814453 Z"/>
    </g>
    <g id="ch4-2" class="cls-1" transform="translate(472.467 445.788) rotate(171)">
      <path class="cls-2" d="M 28.30790138244629 122.748649597168 C 26.59318542480469 122.7487030029297 25.04266738891602 122.1539001464844 23.82395172119141 121.0285339355469 C 22.6179370880127 119.9149169921875 21.78459739685059 118.3344421386719 21.41251373291016 116.4559173583984 L 21.19340133666992 110.1776733398438 L 21.19315147399902 110.1708068847656 L 21.19273376464844 110.163932800293 L 20.02993392944336 91.54203796386719 L 20.01608467102051 91.32030487060547 L 19.84223365783691 91.18195343017578 C 19.84046745300293 91.18054962158203 19.66215133666992 91.03855133056641 19.34976768493652 90.78266906738281 L 19.08170127868652 90.56307220458984 L 18.78198432922363 90.73698425292969 C 17.72831726074219 91.34835052490234 17.07033538818359 91.70630645751953 17.06381797790527 91.70985412597656 L 16.82623481750488 91.83893585205078 L 16.80416870117188 92.10843658447266 L 15.16346740722656 112.1631393432617 L 15.16178417205811 112.1837539672852 L 15.1618013381958 112.2044525146484 L 15.16540145874023 115.5191497802734 L 15.16543483734131 115.5488891601563 L 15.16898441314697 115.5783996582031 C 15.30296802520752 116.6906509399414 14.97270107269287 117.7036666870117 14.18738460540771 118.5892868041992 C 12.92526817321777 120.0126190185547 10.56358432769775 120.9323501586914 8.170701026916504 120.9324340820313 C 7.147284507751465 120.932487487793 6.158734321594238 120.7606887817383 5.31188440322876 120.4356231689453 C 1.241957426071167 118.8728256225586 0.9475635886192322 116.2222595214844 0.5070690512657166 111.8422546386719 L 1.922601222991943 106.881706237793 L 1.924467921257019 106.8752059936523 L 1.926134586334229 106.86865234375 L 7.638423442840576 84.58483123779297 C 7.961661815643311 84.34481811523438 8.804534912109375 83.71487426757813 9.920584678649902 82.84992218017578 L 10.35538482666016 82.51295471191406 L 9.978550910949707 82.11220550537109 C 6.220151424407959 78.11531829833984 4.0391845703125 74.80590057373047 3.671434640884399 72.54173278808594 C 2.584617853164673 65.84590148925781 4.227084636688232 7.441553115844727 4.243801116943359 6.852386474609375 L 4.244101047515869 6.841519832611084 L 4.243951320648193 6.830636501312256 C 4.200651168823242 3.96850323677063 4.163251399993896 1.496686577796936 8.389784812927246 0.6753199100494385 C 8.988584518432617 0.5589532256126404 9.63038444519043 0.4999532401561737 10.29731750488281 0.4999532401561737 C 12.39971828460693 0.4999532401561737 14.61000156402588 1.08298659324646 16.3614673614502 2.099569797515869 C 17.6846809387207 2.867602825164795 19.34625434875488 4.226589679718018 19.78314590454102 6.351390838623047 C 19.65823173522949 9.50810432434082 17.45665168762207 65.51160430908203 18.27246856689453 69.6883544921875 C 18.4408016204834 70.55032348632813 18.98636817932129 71.69225311279297 19.94035148620605 73.17936706542969 L 20.30463409423828 73.74720001220703 L 20.74193382263184 73.23348999023438 C 21.56483459472656 72.26679992675781 22.0885181427002 71.47579956054688 22.3429012298584 70.81529998779297 C 22.48041725158691 70.45791625976563 22.89875030517578 69.37077331542969 23.53226852416992 59.02265167236328 C 23.86628532409668 53.56687164306641 24.21881866455078 46.25466918945313 24.58010101318359 37.28913497924805 C 25.1706428527832 22.63448715209961 25.59325981140137 8.252155303955078 25.6297664642334 6.998410701751709 C 26.15898323059082 5.685354232788086 27.24807357788086 4.591951847076416 28.78470039367676 3.832636594772339 C 30.22948455810547 3.118703126907349 32.03066635131836 2.725536584854126 33.8564338684082 2.725536584854126 C 35.28415298461914 2.725536584854126 36.65646743774414 2.962753295898438 37.82503509521484 3.411569833755493 C 41.77605056762695 4.92786979675293 40.52201843261719 12.82765293121338 40.5088996887207 12.90726947784424 L 40.50368499755859 12.93881988525391 L 40.50251770019531 12.9709529876709 C 40.48225021362305 13.53830337524414 38.449951171875 69.78006744384766 36.22538375854492 76.15988922119141 C 35.51436614990234 78.19896697998047 33.16725158691406 80.77215576171875 29.24921798706055 83.8079833984375 L 28.81893539428711 84.14137268066406 L 29.18760108947754 84.54185485839844 C 29.7761173248291 85.18116760253906 30.20676422119141 85.63817596435547 30.3892936706543 85.83090209960938 L 35.15580368041992 107.3856811523438 L 36.19081878662109 113.2067337036133 L 36.1915168762207 113.2106704711914 L 36.19228363037109 113.2145843505859 C 37.03366851806641 117.5441513061523 34.19549942016602 121.7517852783203 29.86551856994629 122.5941009521484 C 29.33796691894531 122.6966400146484 28.81388473510742 122.7486343383789 28.30790138244629 122.748649597168 Z"/>
      <path class="cls-3" d="M 28.30788421630859 122.248649597168 C 28.78193473815918 122.2486343383789 29.27393531799316 122.1997222900391 29.77005195617676 122.1033020019531 C 33.82945251464844 121.3136215209961 36.49026870727539 117.3689498901367 35.70146942138672 113.3099670410156 L 35.69993591308594 113.302116394043 L 35.69855117797852 113.2942733764648 L 34.66544342041016 107.4839401245117 L 29.93095779418945 86.073974609375 C 29.71545791625977 85.84567260742188 29.32958030700684 85.43433380126953 28.81973457336426 84.88048553466797 L 28.08241844177246 84.07953643798828 L 28.94298362731934 83.41273498535156 C 33.72643280029297 79.70635223388672 35.28668594360352 77.33332061767578 35.75325012207031 75.99525451660156 C 36.38055038452148 74.19623565673828 37.40175247192383 66.86569976806641 38.70431900024414 42.15950393676758 C 39.48661804199219 27.32123565673828 39.99776840209961 13.09506988525391 40.00283432006836 12.95310306549072 L 40.00523376464844 12.88883686065674 L 40.01551818847656 12.82610321044922 C 40.01880264282227 12.80611991882324 40.34149932861328 10.80143642425537 40.1475830078125 8.649936676025391 C 40.0386848449707 7.441653251647949 39.79135131835938 6.429036617279053 39.41246795654297 5.640219688415527 C 38.98296737670898 4.746053218841553 38.40516662597656 4.169753074645996 37.64576721191406 3.878319978713989 C 36.53381729125977 3.451269865036011 35.2234992980957 3.225536584854126 33.8564338684082 3.225536584854126 C 32.10598373413086 3.225536584854126 30.38346862792969 3.60033655166626 29.00620079040527 4.280903339385986 C 28.0267448425293 4.764884471893311 26.74839210510254 5.643517971038818 26.12686729431152 7.104749202728271 C 26.07588386535645 8.848365783691406 25.65841674804688 22.94816207885742 25.0797004699707 37.30926895141602 C 23.82903480529785 68.34548950195313 23.06173515319824 70.33948516845703 22.80948448181152 70.99500274658203 C 22.53450202941895 71.70902252197266 21.98273468017578 72.54725646972656 21.12266731262207 73.55758666992188 L 20.24805068969727 74.58502197265625 L 19.51950073242188 73.44933319091797 C 18.53081703186035 71.90811920166016 17.9623851776123 70.70923614501953 17.78175163269043 69.78420257568359 C 17.64966773986816 69.10797119140625 17.24770164489746 67.05008697509766 18.21718406677246 36.346435546875 C 18.67172431945801 21.95114326477051 19.22384262084961 7.848058700561523 19.28107261657715 6.394095897674561 C 18.86259269714355 4.48327112197876 17.33258438110352 3.241349220275879 16.1104679107666 2.532003164291382 C 14.43300151824951 1.558369874954224 12.31418418884277 0.9999532103538513 10.29731750488281 0.9999532103538513 C 9.662284851074219 0.9999532103538513 9.052600860595703 1.055869936943054 8.485167503356934 1.166136622428894 C 6.169451236724854 1.616169929504395 5.488068103790283 2.533903121948242 5.176984310150146 3.185069799423218 C 4.703834533691406 4.17548656463623 4.724201202392578 5.52143669128418 4.743884563446045 6.823070049285889 L 4.744217872619629 6.844820022583008 L 4.743601322174072 6.866569995880127 C 4.726901054382324 7.455253124237061 3.085684537887573 65.81210327148438 4.164968013763428 72.46158599853516 C 4.410217761993408 73.97158813476563 5.681101322174072 76.81218719482422 10.34280109405518 81.76968383789063 L 11.09648418426514 82.57118988037109 L 10.22688484191895 83.24514007568359 C 9.245080947875977 84.00602722167969 8.473175048828125 84.58627319335938 8.078856468200684 84.88031768798828 L 2.410484552383423 106.9928207397461 L 2.40711784362793 107.0059051513672 L 2.403417825698853 107.0189056396484 L 1.014134168624878 111.8874664306641 C 1.444132328033447 116.1573715209961 1.73475444316864 118.5264663696289 5.491067886352539 119.9688186645508 C 6.281317710876465 120.2721710205078 7.2079176902771 120.432487487793 8.170684814453125 120.4324340820313 C 10.42695140838623 120.4323501586914 12.64180088043213 119.5786666870117 13.8132848739624 118.257568359375 C 14.49960136413574 117.4835891723633 14.78870105743408 116.6023025512695 14.67258453369141 115.63818359375 L 14.66546821594238 115.5791549682617 L 14.66540145874023 115.5196838378906 L 14.6618013381958 112.2049865722656 L 14.66175079345703 112.1636047363281 L 14.66513442993164 112.1223678588867 L 16.30583381652832 92.06767272949219 L 16.34996795654297 91.52870178222656 L 16.8250846862793 91.27052307128906 C 16.83156776428223 91.26700592041016 17.48475074768066 90.91162109375 18.53105163574219 90.30451965332031 L 19.13048362731934 89.95668792724609 L 19.66661834716797 90.39586639404297 C 19.9755687713623 90.64895629882813 20.15185165405273 90.78935241699219 20.15358543395996 90.79073333740234 L 20.50126838684082 91.06745147705078 L 20.52895164489746 91.51088714599609 L 21.69175148010254 110.1327896118164 L 21.69261741638184 110.146484375 L 21.69308471679688 110.1602172851563 L 21.91077423095703 116.397705078125 C 22.26583099365234 118.1545867919922 23.04367446899414 119.6274719238281 24.16315078735352 120.6611862182617 C 25.28788375854492 121.6997680664063 26.72110176086426 122.2487030029297 28.30788421630859 122.248649597168 M 28.30791854858398 123.248649597168 C 24.51930046081543 123.2487716674805 21.69930076599121 120.5529861450195 20.9142017364502 116.5130996704102 L 20.69370079040527 110.1951065063477 L 19.5309009552002 91.57320404052734 C 19.5309009552002 91.57320404052734 19.35240173339844 91.43116760253906 19.03291702270508 91.16945648193359 C 17.9596004486084 91.792236328125 17.3025016784668 92.14920043945313 17.3025016784668 92.14920043945313 L 15.6618013381958 112.2039031982422 L 15.66540145874023 115.5186004638672 C 16.10116577148438 119.1362991333008 12.05162048339844 121.4323043823242 8.170720100402832 121.4324417114258 C 7.114156246185303 121.4324798583984 6.070423603057861 121.2623519897461 5.132701396942139 120.9024047851563 C 0.749701201915741 119.2194061279297 0.4473012089729309 116.2467041015625 1.199340772473079e-06 111.7971038818359 L 1.441801190376282 106.7445068359375 L 7.198201179504395 84.28860473632813 C 7.198201179504395 84.28860473632813 8.169134140014648 83.57473754882813 9.614300727844238 82.45471954345703 C 6.444617748260498 79.08392333984375 3.630684614181519 75.40963745117188 3.177901268005371 72.62190246582031 C 2.070901155471802 65.80170440673828 3.744001150131226 6.838203430175781 3.744001150131226 6.838203430175781 C 3.699901103973389 3.923103332519531 3.686401128768921 1.080003261566162 8.294401168823242 0.1845032274723053 C 8.932557106018066 0.06048654019832611 9.606921195983887 -5.30171710124705e-05 10.2973165512085 -5.30171710124705e-05 C 14.59213161468506 -5.30171710124705e-05 19.51361846923828 2.341859579086304 20.28510093688965 6.311703205108643 C 20.28510093688965 6.311703205108643 17.94330024719238 65.39490509033203 18.7632007598877 69.59250640869141 C 18.92893409729004 70.44122314453125 19.52118492126465 71.59993743896484 20.3612003326416 72.90938568115234 C 21.09368515014648 72.04891967773438 21.63170051574707 71.27072143554688 21.87630081176758 70.63560485839844 C 23.41260147094727 66.64320373535156 25.13250160217285 6.896703243255615 25.13250160217285 6.896703243255615 C 26.33678817749023 3.758727788925171 30.16876792907715 2.225533485412598 33.85643005371094 2.225533485412598 C 35.31954956054688 2.225533485412598 36.7595329284668 2.466734170913696 38.00430297851563 2.944803237915039 C 42.38730239868164 4.626903057098389 41.00220108032227 12.98880290985107 41.00220108032227 12.98880290985107 C 41.00220108032227 12.98880290985107 38.97270202636719 69.79949951171875 36.69750213623047 76.32450103759766 C 35.8438835144043 78.77256774902344 32.90011596679688 81.61167144775391 29.55546760559082 84.20321655273438 C 30.34970092773438 85.06600189208984 30.84750175476074 85.58730316162109 30.84750175476074 85.58730316162109 L 35.64630126953125 107.2881011962891 L 36.68310165405273 113.1192016601563 C 37.5786018371582 117.7272033691406 34.56900024414063 122.1884994506836 29.96100044250488 123.0848999023438 C 29.39286804199219 123.1953201293945 28.84070205688477 123.2486343383789 28.30791854858398 123.248649597168 Z"/>
    </g>
  </g>
</svg>
