<svg xmlns="http://www.w3.org/2000/svg" width="68.967" height="221.247" viewBox="0 0 68.967 221.247">
  <defs>
    <style>
      .cls-1 {
        fill: #fff;
        stroke-linecap: round;
        stroke-linejoin: round;
      }

      .cls-2, .cls-3 {
        stroke: none;
      }

      .cls-3 {
        fill: #9a9a9a;
      }
    </style>
  </defs>
  <g id="ch5-2" class="cls-1" transform="translate(24.064 0.029)">
    <path class="cls-2" d="M 26.22868156433105 220.2176666259766 C 21.45559883117676 220.2176666259766 16.83357048034668 219.0608062744141 12.49104309082031 216.7791900634766 C 8.997820854187012 214.9438323974609 5.672237873077393 212.3797149658203 2.606737852096558 209.1580505371094 C -2.414130449295044 203.8814086914063 -5.075319766998291 198.5648498535156 -5.311373710632324 198.0826263427734 C -5.604443550109863 197.2981872558594 -9.923188209533691 185.6483154296875 -14.18695640563965 169.3481140136719 C -16.76584625244141 159.4891357421875 -18.82034492492676 149.8831024169922 -20.2933464050293 140.7968292236328 C -22.13212394714355 129.4544372558594 -23.06445693969727 118.897331237793 -23.06445693969727 109.4187774658203 C -23.06445693969727 99.94183349609375 -22.13228988647461 89.95771789550781 -20.29387283325195 79.74374389648438 C -18.82201194763184 71.56641387939453 -16.76942825317383 63.22518920898438 -14.1931791305542 54.95174789428711 C -9.808595657348633 40.87107849121094 -5.377845287322998 31.77646827697754 -5.333595275878906 31.68624687194824 L -5.28306770324707 31.58316230773926 L -5.257178783416748 31.4713306427002 C -5.239400863647461 31.39466285705566 -3.414706707000732 23.68299674987793 1.348904490470886 16.09424591064453 C 4.120543479919434 11.6788854598999 7.331515789031982 8.167607307434082 10.89265441894531 5.657913208007813 C 15.30559921264648 2.547913074493408 20.28779411315918 0.9709963798522949 25.7007942199707 0.9709963798522949 C 26.10848808288574 0.9709963798522949 26.52468299865723 0.979996383190155 26.93779373168945 0.9977186322212219 C 30.32243156433105 1.142996430397034 33.24401473999023 1.822190880775452 35.62137603759766 3.016440868377686 C 37.7088508605957 4.065079689025879 39.4259033203125 5.537551879882813 40.72482299804688 7.392940998077393 C 42.1087646484375 9.36980152130127 43.05307006835938 11.82310771942139 43.53148651123047 14.68477439880371 C 43.9205436706543 17.01177406311035 44.00395965576172 19.60921859741211 43.77948760986328 22.40494155883789 C 43.43620300292969 26.68027305603027 42.47269821166992 30.10051727294922 42.26222610473633 30.80943870544434 C 41.46306991577148 31.99116516113281 35.52494049072266 40.93729400634766 29.67193222045898 54.25202560424805 C 23.89104270935059 67.40266418457031 16.9999885559082 87.64855194091797 16.9999885559082 109.4187774658203 C 16.9999885559082 131.1631011962891 23.87876510620117 154.3499755859375 29.64934921264648 169.9723358154297 C 35.53719711303711 185.9122161865234 41.50467681884766 197.4454956054688 42.22099304199219 198.8120422363281 C 42.32472610473633 199.3747100830078 42.71184539794922 201.7062530517578 42.59918212890625 204.611328125 C 42.52423858642578 206.5433807373047 42.24601745605469 208.3483276367188 41.77218246459961 209.97607421875 C 41.1898193359375 211.976806640625 40.30837631225586 213.7131042480469 39.15229415893555 215.1367950439453 C 36.42121124267578 218.5001373291016 32.08698654174805 220.2095794677734 26.27007102966309 220.2176361083984 L 26.22868156433105 220.2176666259766 Z"/>
    <path class="cls-3" d="M 25.7007942199707 1.970962524414063 C 20.50749969482422 1.970962524414063 15.72685432434082 3.481002807617188 11.49167823791504 6.459121704101563 C 8.042383193969727 8.8846435546875 4.924236297607422 12.29026794433594 2.223854064941406 16.58137512207031 C -2.463058471679688 24.02923583984375 -4.265556335449219 31.62229919433594 -4.282909393310547 31.69667053222656 C -4.317234039306641 31.84503173828125 -4.368556976318359 31.9893798828125 -4.435558319091797 32.12611389160156 C -4.479705810546875 32.21626281738281 -8.901321411132813 41.30181884765625 -13.26326370239258 55.32893371582031 C -15.82111740112305 63.55447387695313 -17.85855865478516 71.8458251953125 -19.31900024414063 79.97264099121094 C -21.14076232910156 90.11003112792969 -22.06446838378906 100.0171432495117 -22.06446838378906 109.4187622070313 C -22.06446838378906 118.8397369384766 -21.13729476928711 129.3379974365234 -19.30864715576172 140.6219787597656 C -17.84176254272461 149.6737976074219 -15.79523468017578 159.2452392578125 -13.2259407043457 169.0704345703125 C -9.038829803466797 185.0823059082031 -4.797431945800781 196.5968322753906 -4.391590118408203 197.6870269775391 C -4.071121215820313 198.3349609375 -1.484283447265625 203.4079284667969 3.331207275390625 208.4687042236328 C 6.321382522583008 211.6112060546875 9.559677124023438 214.1094055175781 12.95614814758301 215.8939666748047 C 17.15376663208008 218.0994110107422 21.61926651000977 219.2176818847656 26.22864723205566 219.2176818847656 L 26.2686767578125 219.2176513671875 C 29.23976516723633 219.2135314941406 31.81673622131348 218.7475891113281 33.92803192138672 217.8327331542969 C 35.71358871459961 217.0590515136719 37.20820617675781 215.9422607421875 38.37035369873047 214.5133819580078 C 42.72683715820313 209.1569519042969 41.52982330322266 200.6954040527344 41.26306533813477 199.137939453125 C 40.27349853515625 197.2382659912109 34.45123672485352 185.8582458496094 28.71129417419434 170.3188171386719 C 22.91247177124023 154.6199340820313 16 131.3108825683594 16 109.4187622070313 C 16 87.47491455078125 22.93703079223633 67.08796691894531 28.75650024414063 53.84957885742188 C 34.53525161743164 40.70370483398438 40.24272155761719 32.01268005371094 41.34725570678711 30.37615966796875 C 41.61203765869141 29.45878601074219 42.4656982421875 26.2728271484375 42.78267669677734 22.32487487792969 C 43.00061798095703 19.61085510253906 42.92070770263672 17.0958251953125 42.5451774597168 14.84967041015625 C 42.09152984619141 12.1361083984375 41.20344161987305 9.820266723632813 39.90561676025391 7.966445922851563 C 38.70276641845703 6.248260498046875 37.11029434204102 4.883468627929688 35.17247009277344 3.9100341796875 C 32.92232513427734 2.779678344726563 30.13732528686523 2.135940551757813 26.89494132995605 1.99676513671875 C 26.49582481384277 1.979644775390625 26.09403038024902 1.970962524414063 25.7007942199707 1.970962524414063 M 25.70079231262207 -0.029022216796875 C 26.12240409851074 -0.029022216796875 26.54883575439453 -0.0199127197265625 26.98067665100098 -0.0013885498046875 C 52.70896911621094 1.10296630859375 43.17479705810547 31.24591064453125 43.17479705810547 31.24591064453125 C 43.17479705810547 31.24591064453125 18 67.61099243164063 18 109.4187622070313 C 18 151.2265625 43.17479705810547 198.47705078125 43.17479705810547 198.47705078125 C 43.17479705810547 198.47705078125 47.94141387939453 221.1876220703125 26.27144241333008 221.2176513671875 C 26.25821685791016 221.2176666259766 26.24187850952148 221.2176818847656 26.22866058349609 221.2176818847656 C 4.585165023803711 221.2176818847656 -6.231441497802734 198.47705078125 -6.231441497802734 198.47705078125 C -6.231441497802734 198.47705078125 -24.06446838378906 151.2265625 -24.06446838378906 109.4187622070313 C -24.06446838378906 67.61099243164063 -6.231441497802734 31.24591064453125 -6.231441497802734 31.24591064453125 C -6.231441497802734 31.24591064453125 1.003532409667969 -0.029022216796875 25.70079231262207 -0.029022216796875 Z"/>
  </g>
</svg>
