<svg xmlns="http://www.w3.org/2000/svg" width="68.742" height="221.247" viewBox="0 0 68.742 221.247">
  <defs>
    <style>
      .cls-1 {
        fill: #fff;
        stroke-linecap: round;
        stroke-linejoin: round;
      }

      .cls-2, .cls-3 {
        stroke: none;
      }

      .cls-3 {
        fill: #9a9a9a;
      }
    </style>
  </defs>
  <g id="ch5-1" class="cls-1" transform="translate(23.84 0.029)">
    <path class="cls-2" d="M 26.22868156433105 220.2176666259766 C 21.45559883117676 220.2176666259766 16.83357048034668 219.0608062744141 12.491042137146 216.7791900634766 C 8.997819900512695 214.9438323974609 5.672236919403076 212.3797149658203 2.606736898422241 209.1580505371094 C -2.40773606300354 203.8881225585938 -5.068546295166016 198.5783843994141 -5.310469150543213 198.08447265625 C -5.606595039367676 197.2815704345703 -9.867259979248047 185.6375579833984 -14.07376289367676 169.3512725830078 C -16.62026214599609 159.4919738769531 -18.64895820617676 149.8855590820313 -20.10348510742188 140.7989196777344 C -21.9192066192627 129.4558258056641 -22.83984565734863 118.8980255126953 -22.83984565734863 109.4187774658203 C -22.83984565734863 99.94913482666016 -21.92090225219727 89.97296905517578 -20.10854148864746 79.76741027832031 C -18.65717887878418 71.59466552734375 -16.63295745849609 63.25771713256836 -14.09206867218018 54.98816299438477 C -9.762513160705566 40.89730072021484 -5.375179767608643 31.77219009399414 -5.331374168395996 31.68166351318359 L -5.28251314163208 31.58069038391113 L -5.257179737091064 31.4713306427002 C -5.239401817321777 31.39466285705566 -3.41470742225647 23.68299674987793 1.348903656005859 16.09424591064453 C 4.120542526245117 11.6788854598999 7.331514835357666 8.167607307434082 10.892653465271 5.657913208007813 C 15.30559825897217 2.547913074493408 20.28779220581055 0.9709963798522949 25.70079231262207 0.9709963798522949 C 26.10848617553711 0.9709963798522949 26.52468109130859 0.979996383190155 26.93779182434082 0.9977186322212219 C 30.32243156433105 1.142996430397034 33.24401473999023 1.822190880775452 35.62137603759766 3.016440868377686 C 37.70884704589844 4.065079689025879 39.4259033203125 5.537551879882813 40.72481918334961 7.392940998077393 C 42.1087646484375 9.36980152130127 43.05307006835938 11.82310771942139 43.53148651123047 14.68477439880371 C 43.9205436706543 17.01177406311035 44.00395965576172 19.60921859741211 43.77948760986328 22.40494155883789 C 43.43512344360352 26.6937141418457 42.46662139892578 30.12205505371094 42.26025009155273 30.81608581542969 C 41.49826049804688 31.97710418701172 35.72946929931641 40.92924880981445 30.04351425170898 54.26216125488281 C 24.43618202209473 67.41082763671875 17.7519588470459 87.65332794189453 17.7519588470459 109.4187774658203 C 17.7519588470459 131.1589660644531 24.42445945739746 154.3426971435547 30.02198791503906 169.9631958007813 C 35.74066162109375 185.9216766357422 41.53670883178711 197.4629516601563 42.21988296508789 198.8060302734375 C 42.32191848754883 199.3578186035156 42.71225357055664 201.6956939697266 42.59918212890625 204.611328125 C 42.52423858642578 206.5433807373047 42.24601364135742 208.3483276367188 41.77218246459961 209.97607421875 C 41.1898193359375 211.976806640625 40.30837631225586 213.7131042480469 39.15229415893555 215.1367950439453 C 36.42120742797852 218.5001373291016 32.08698654174805 220.2095794677734 26.27007102966309 220.2176361083984 L 26.22868156433105 220.2176666259766 Z"/>
    <path class="cls-3" d="M 25.7008056640625 1.970962524414063 C 20.50751113891602 1.970962524414063 15.7268648147583 3.481002807617188 11.4916877746582 6.459152221679688 C 8.042364120483398 8.8846435546875 4.924217224121094 12.29026794433594 2.223834991455078 16.58137512207031 C -2.463077545166016 24.02923583984375 -4.265575408935547 31.62229919433594 -4.282928466796875 31.69667053222656 C -4.316547393798828 31.84205627441406 -4.366340637207031 31.98323059082031 -4.431369781494141 32.11752319335938 C -4.474723815917969 32.20706176757813 -8.816635131835938 41.23320007324219 -13.12395858764648 55.24220275878906 C -15.65596008300781 63.4771728515625 -17.6731071472168 71.77882385253906 -19.11940002441406 79.91654968261719 C -20.9245491027832 90.0736083984375 -21.83983993530273 99.99958801269531 -21.83983993530273 109.4187622070313 C -21.83983993530273 118.8411178588867 -20.92422485351563 129.3407897949219 -19.11840057373047 140.6261138916016 C -17.66987228393555 149.6787109375 -15.64896011352539 159.2508850097656 -13.11181259155273 169.0767974853516 C -8.982757568359375 185.0680236816406 -4.800235748291016 196.5738067626953 -4.389892578125 197.6905059814453 C -4.062042236328125 198.3527984619141 -1.475847244262695 203.4168090820313 3.331188201904297 208.4687042236328 C 6.321365356445313 211.6112060546875 9.559688568115234 214.1094055175781 12.95615863800049 215.8939666748047 C 17.15377616882324 218.0994110107422 21.61927604675293 219.2176818847656 26.22865867614746 219.2176818847656 L 26.2686882019043 219.2176513671875 C 29.23974609375 219.2135314941406 31.81674575805664 218.7475891113281 33.92803955078125 217.8327331542969 C 35.71360015869141 217.0590515136719 37.20821762084961 215.9422607421875 38.37033462524414 214.5133819580078 C 42.73793029785156 209.1432952880859 41.52368545532227 200.6522216796875 41.26105117797852 199.1261444091797 C 40.31638717651367 197.2575073242188 34.6584358215332 185.865966796875 29.08059883117676 170.3005218505859 C 23.45633506774902 154.6054077148438 16.751953125 131.3025817871094 16.751953125 109.4187622070313 C 16.751953125 87.48443603515625 23.4797477722168 67.10426330566406 29.12368774414063 53.869873046875 C 34.74065017700195 40.69869995117188 40.28829956054688 31.99993896484375 41.34344482421875 30.38938903808594 C 41.60375213623047 29.48966979980469 42.46417236328125 26.29194641113281 42.78268814086914 22.32487487792969 C 43.00062942504883 19.61085510253906 42.92071533203125 17.0958251953125 42.54518890380859 14.84967041015625 C 42.0915412902832 12.1361083984375 41.20345306396484 9.820266723632813 39.9056282043457 7.966445922851563 C 38.70277404785156 6.248260498046875 37.11030578613281 4.883468627929688 35.17248153686523 3.9100341796875 C 32.92233657836914 2.779678344726563 30.1373348236084 2.135940551757813 26.89495277404785 1.99676513671875 C 26.49583435058594 1.979644775390625 26.09403991699219 1.970962524414063 25.7008056640625 1.970962524414063 M 25.70080184936523 -0.029022216796875 C 26.12241363525391 -0.029022216796875 26.54884719848633 -0.0199127197265625 26.98068809509277 -0.0013885498046875 C 52.708984375 1.10296630859375 43.1748046875 31.24591064453125 43.1748046875 31.24591064453125 C 43.1748046875 31.24591064453125 18.751953125 67.61099243164063 18.751953125 109.4187622070313 C 18.751953125 151.2265625 43.1748046875 198.47705078125 43.1748046875 198.47705078125 C 43.1748046875 198.47705078125 47.94139099121094 221.1876220703125 26.27145195007324 221.2176513671875 C 26.25822639465332 221.2176666259766 26.24188804626465 221.2176818847656 26.22867012023926 221.2176818847656 C 4.585176467895508 221.2176818847656 -6.231460571289063 198.47705078125 -6.231460571289063 198.47705078125 C -6.231460571289063 198.47705078125 -23.83983993530273 151.2265625 -23.83983993530273 109.4187622070313 C -23.83983993530273 67.61099243164063 -6.231460571289063 31.24591064453125 -6.231460571289063 31.24591064453125 C -6.231460571289063 31.24591064453125 1.003515243530273 -0.029022216796875 25.70080184936523 -0.029022216796875 Z"/>
  </g>
</svg>
