<svg xmlns="http://www.w3.org/2000/svg" width="87.596" height="127.217" viewBox="0 0 87.596 127.217">
  <defs>
    <style>
      .cls-1 {
        fill: #fff;
      }

      .cls-2, .cls-3 {
        stroke: none;
      }

      .cls-3 {
        fill: #707070;
      }
    </style>
  </defs>
  <g id="ch5" transform="translate(-377.733 -327.84)">
    <g id="ch5-1" class="cls-1" transform="matrix(-0.999, -0.035, 0.035, -0.999, 418.917, 452.452)">
      <path class="cls-2" d="M 28.30790138244629 122.748649597168 C 26.59318542480469 122.7487030029297 25.04266738891602 122.1539001464844 23.82395172119141 121.0285339355469 C 22.6179370880127 119.9149169921875 21.78459739685059 118.3344421386719 21.41251373291016 116.4559173583984 L 21.19498252868652 110.2229614257813 L 24.0395679473877 90.89450073242188 L 24.08148384094238 90.60971832275391 L 23.85623359680176 90.43047332763672 C 23.85448455810547 90.42906951904297 23.6773681640625 90.28804016113281 23.36698532104492 90.03378295898438 L 23.01438522338867 89.74495697021484 L 22.69425201416016 90.06940460205078 C 21.67378425598145 91.10355377197266 20.80131721496582 92.20690155029297 20.02701759338379 93.4425048828125 C 17.07833480834961 98.14658355712891 15.91291809082031 103.0020065307617 15.4544849395752 106.2468338012695 C 14.97690105438232 109.627311706543 15.14046001434326 111.9574432373047 15.16182327270508 112.2247543334961 L 15.16540145874023 115.5191497802734 L 15.16543483734131 115.5488891601563 L 15.16898441314697 115.5783996582031 C 15.30296802520752 116.6906509399414 14.97270107269287 117.7036666870117 14.18738460540771 118.5892868041992 C 12.92526817321777 120.0126190185547 10.56358432769775 120.9323501586914 8.170701026916504 120.9324340820313 C 7.147284507751465 120.932487487793 6.158734321594238 120.7606887817383 5.31188440322876 120.4356231689453 C 1.241957426071167 118.8728256225586 0.9475635886192322 116.2222595214844 0.5070690512657166 111.8422546386719 L 1.922601222991943 106.881706237793 L 1.935201168060303 106.8375701904297 L 1.9395512342453 106.7918395996094 C 1.942451238632202 106.7613830566406 2.2405846118927 103.6989059448242 3.198117971420288 99.58306884765625 C 4.07886791229248 95.79730224609375 5.713751316070557 90.31918334960938 8.500617980957031 85.72043609619141 C 9.678934097290039 83.77601623535156 11.06195163726807 82.15015411376953 12.72866821289063 80.74992370605469 L 13.12191772460938 80.4195556640625 L 12.78111743927002 80.03530120849609 C 9.730101585388184 76.59545135498047 8.015984535217285 73.82143402099609 7.686351299285889 71.79030609130859 C 6.596601009368896 65.07555389404297 4.122567653656006 10.08757019042969 4.097701072692871 9.532919883728027 L 4.096051216125488 9.496053695678711 L 4.089001178741455 9.459819793701172 C 3.627484560012817 7.087353229522705 3.71248459815979 5.141019821166992 4.341634750366211 3.674886465072632 C 5.029067993164063 2.072953224182129 6.391067981719971 1.06373655796051 8.389784812927246 0.6753199100494385 C 8.988584518432617 0.5589532256126404 9.63038444519043 0.4999532401561737 10.29731750488281 0.4999532401561737 C 12.39971828460693 0.4999532401561737 14.61000156402588 1.08298659324646 16.3614673614502 2.099569797515869 C 17.68802070617676 2.86954140663147 19.35471534729004 4.233799457550049 19.78650093078613 6.367839813232422 C 19.87055778503418 9.296135902404785 21.47239685058594 64.76813507080078 22.28646850585938 68.93683624267578 C 22.4094352722168 69.56638336181641 22.7307014465332 70.33717346191406 23.26863479614258 71.29326629638672 L 24.02715110778809 72.64140319824219 L 24.20121765136719 71.10435485839844 C 25.41260528564453 60.40768814086914 25.62252426147461 9.525834083557129 25.63215446472168 6.992499351501465 C 26.16225051879883 5.682059764862061 27.25036811828613 4.590817451477051 28.78470039367676 3.832636594772339 C 30.22948455810547 3.118703126907349 32.03066635131836 2.725536584854126 33.8564338684082 2.725536584854126 C 35.28415298461914 2.725536584854126 36.65646743774414 2.962753295898438 37.82503509521484 3.411569833755493 C 41.77605056762695 4.92786979675293 40.52201843261719 12.82765293121338 40.5088996887207 12.90726947784424 L 40.50258636474609 12.9454870223999 L 40.50221633911133 12.98440361022949 C 40.49701690673828 13.57363700866699 39.95701599121094 71.98160552978516 37.73468399047852 78.35498809814453 C 36.93513488769531 80.64797210693359 35.07281875610352 82.02857208251953 33.35655212402344 83.07666778564453 L 32.83663558959961 83.39414978027344 L 33.24941635131836 83.84217071533203 C 33.7859992980957 84.42458343505859 34.18555450439453 84.84922027587891 34.3759765625 85.05052947998047 L 35.94524002075195 106.3252334594727 L 36.18340301513672 113.1366729736328 L 36.18478393554688 113.1759872436523 L 36.19228363037109 113.2145843505859 C 37.03366851806641 117.5441513061523 34.19549942016602 121.7517852783203 29.86551856994629 122.5941009521484 C 29.33796691894531 122.6966400146484 28.81388473510742 122.7486343383789 28.30790138244629 122.748649597168 Z"/>
      <path class="cls-3" d="M 28.30788421630859 122.248649597168 C 28.78193473815918 122.2486343383789 29.27393531799316 122.1997222900391 29.77005195617676 122.1033020019531 C 33.82945251464844 121.3136215209961 36.49026870727539 117.3689498901367 35.70146942138672 113.3099670410156 L 35.68646621704102 113.2327499389648 L 35.68371963500977 113.1541519165039 L 35.44589233398438 106.3523406982422 L 33.89042282104492 85.26463317871094 C 33.67505645751953 85.03604888916016 33.32791900634766 84.66531372070313 32.88168334960938 84.18096923828125 L 32.05615234375 83.28493499755859 L 33.09595108032227 82.64993286132813 C 35.45276641845703 81.21068572998047 36.65991973876953 79.91865539550781 37.26255035400391 78.19035339355469 C 37.88785171508789 76.39707183837891 38.77631759643555 68.88532257080078 39.45798492431641 43.28318786621094 C 39.86750030517578 27.90283584594727 40.00093460083008 13.12743663787842 40.00223541259766 12.9799861907959 L 40.00303268432617 12.90217018127441 L 40.01551818847656 12.82610321044922 C 40.01880264282227 12.80611991882324 40.34149932861328 10.80143642425537 40.1475830078125 8.649936676025391 C 40.0386848449707 7.441653251647949 39.79135131835938 6.429036617279053 39.41246795654297 5.640219688415527 C 38.98296737670898 4.746053218841553 38.40516662597656 4.169753074645996 37.64576721191406 3.878319978713989 C 36.53381729125977 3.451269865036011 35.2234992980957 3.225536584854126 33.8564338684082 3.225536584854126 C 32.10598373413086 3.225536584854126 30.38346862792969 3.60033655166626 29.00620079040527 4.280903339385986 C 28.02934074401855 4.763601779937744 26.75515937805176 5.638875961303711 26.13181686401367 7.093156337738037 C 26.11700820922852 11.1405086517334 25.91205406188965 60.44086456298828 24.69805145263672 71.16062164306641 L 24.34991836547852 74.23471832275391 L 22.83288383483887 71.53843688964844 C 22.26835060119629 70.53508758544922 21.92910194396973 69.7154541015625 21.79573440551758 69.03266906738281 C 20.97768592834473 64.8436279296875 19.38556289672852 9.822595596313477 19.2879810333252 6.426177024841309 C 18.87971305847168 4.497125625610352 17.33942413330078 3.24531888961792 16.1104679107666 2.532003164291382 C 14.43300151824951 1.558369874954224 12.31418418884277 0.9999532103538513 10.29731750488281 0.9999532103538513 C 9.662284851074219 0.9999532103538513 9.052600860595703 1.055869936943054 8.485167503356934 1.166136622428894 C 6.633084297180176 1.52606987953186 5.428018093109131 2.411186456680298 4.801117897033691 3.872069835662842 C 4.21225118637085 5.244303226470947 4.137784481048584 7.092169761657715 4.579801082611084 9.364353179931641 L 4.59390115737915 9.436786651611328 L 4.597201347351074 9.510519981384277 C 4.622051239013672 10.06488609313965 7.094751358032227 65.02381896972656 8.179884910583496 71.710205078125 C 8.395917892456055 73.04130554199219 9.43443489074707 75.50858306884766 13.15518474578857 79.70353698730469 L 13.83678436279297 80.47200012207031 L 13.05028438568115 81.13275146484375 C 11.426100730896 82.49725341796875 10.07775115966797 84.08265686035156 8.928217887878418 85.97956848144531 C 6.178318023681641 90.51731872558594 4.56116771697998 95.93488311767578 3.688784599304199 99.68061828613281 C 2.737034559249878 103.7670211791992 2.440184593200684 106.8090362548828 2.437317848205566 106.8390502929688 L 2.428634643554688 106.930534362793 L 2.403417825698853 107.0189056396484 L 1.014134168624878 111.8874664306641 C 1.444132328033447 116.1573715209961 1.73475444316864 118.5264663696289 5.491067886352539 119.9688186645508 C 6.281317710876465 120.2721710205078 7.2079176902771 120.432487487793 8.170684814453125 120.4324340820313 C 10.42695140838623 120.4323501586914 12.64180088043213 119.5786666870117 13.8132848739624 118.257568359375 C 14.49960136413574 117.4835891723633 14.78870105743408 116.6023025512695 14.67258453369141 115.63818359375 L 14.66546821594238 115.5791549682617 L 14.66540145874023 115.5196838378906 L 14.66184329986572 112.2441635131836 C 14.63411998748779 111.8789520263672 14.48589992523193 109.5284805297852 14.95940113067627 106.176887512207 C 15.42463493347168 102.8839721679688 16.60796737670898 97.95558929443359 19.60333442687988 93.17698669433594 C 20.38625144958496 91.92767333984375 21.30643463134766 90.76395416259766 22.33835029602051 89.71820068359375 L 22.97863388061523 89.0693359375 L 23.68383407592773 89.64698791503906 C 23.99078369140625 89.89842224121094 24.16586875915527 90.03787231445313 24.16760063171387 90.03925323486328 L 24.61806869506836 90.39778900146484 L 24.53425025939941 90.96730041503906 L 21.69625282287598 110.2509994506836 L 21.91077423095703 116.397705078125 C 22.26583099365234 118.1545867919922 23.04367446899414 119.6274719238281 24.16315078735352 120.6611862182617 C 25.28788375854492 121.6997680664063 26.72110176086426 122.2487030029297 28.30788421630859 122.248649597168 M 28.30791854858398 123.248649597168 C 24.51930046081543 123.2487716674805 21.69930076599121 120.5529861450195 20.9142017364502 116.5130996704102 L 20.69370079040527 110.1951065063477 L 23.54490089416504 90.82170104980469 C 23.54490089416504 90.82170104980469 23.36760139465332 90.68061828613281 23.05015182495117 90.42058563232422 C 22.12120056152344 91.36199951171875 21.24366760253906 92.44263458251953 20.4507007598877 93.70800018310547 C 14.83290100097656 102.6702041625977 15.6618013381958 112.2039031982422 15.6618013381958 112.2039031982422 L 15.66540145874023 115.5186004638672 C 16.10116577148438 119.1362991333008 12.05162048339844 121.4323043823242 8.170720100402832 121.4324417114258 C 7.114156246185303 121.4324798583984 6.070423603057861 121.2623519897461 5.132701396942139 120.9024047851563 C 0.749701201915741 119.2194061279297 0.4473012089729309 116.2467041015625 1.199340772473079e-06 111.7971038818359 L 1.441801190376282 106.7445068359375 C 1.441801190376282 106.7445068359375 2.606401205062866 94.48200225830078 8.073000907897949 85.4613037109375 C 9.396600723266602 83.27715301513672 10.88666820526123 81.64437103271484 12.40705108642578 80.36708831787109 C 9.76286792755127 77.38590240478516 7.586034297943115 74.29341888427734 7.192800998687744 71.87039947509766 C 6.085801124572754 65.04930114746094 3.598201274871826 9.555303573608398 3.598201274871826 9.555303573608398 C 2.701801300048828 4.947303295135498 3.686401128768921 1.080003261566162 8.294401168823242 0.1845032274723053 C 8.932557106018066 0.06048654019832611 9.606921195983887 -5.30171710124705e-05 10.2973165512085 -5.30171710124705e-05 C 14.59213161468506 -5.30171710124705e-05 19.51361846923828 2.341859579086304 20.28510093688965 6.311703205108643 C 20.28510093688965 6.311703205108643 21.95730209350586 64.64250183105469 22.77720069885254 68.84100341796875 C 22.89430046081543 69.44052124023438 23.22445106506348 70.19505310058594 23.70440101623535 71.04808807373047 C 24.95175170898438 60.03383636474609 25.13250160217285 6.896703243255615 25.13250160217285 6.896703243255615 C 26.33678817749023 3.758727788925171 30.16876792907715 2.225533485412598 33.85643005371094 2.225533485412598 C 35.31954956054688 2.225533485412598 36.7595329284668 2.466734170913696 38.00430297851563 2.944803237915039 C 42.38730239868164 4.626903057098389 41.00220108032227 12.98880290985107 41.00220108032227 12.98880290985107 C 41.00220108032227 12.98880290985107 40.48200225830078 71.99460601806641 38.20680236816406 78.51959991455078 C 37.42053604125977 80.77452087402344 35.72751617431641 82.21462249755859 33.61713409423828 83.50338745117188 C 34.38335037231445 84.33503723144531 34.86149978637695 84.83580017089844 34.86149978637695 84.83580017089844 L 36.44460296630859 106.2981033325195 L 36.68310165405273 113.1192016601563 C 37.5786018371582 117.7272033691406 34.56900024414063 122.1884994506836 29.96100044250488 123.0848999023438 C 29.39286804199219 123.1953201293945 28.84070205688477 123.2486343383789 28.30791854858398 123.248649597168 Z"/>
    </g>
    <g id="ch5-2" class="cls-1" transform="matrix(0.998, 0.07, -0.07, 0.998, 424.219, 329.234)">
      <path class="cls-2" d="M 10.29741764068604 122.7485656738281 C 9.630467414855957 122.7485656738281 8.988683700561523 122.689567565918 8.389867782592773 122.5731964111328 C 4.163333892822266 121.7518310546875 4.20073413848877 119.2800140380859 4.244034290313721 116.4178848266602 L 4.244184017181396 116.4069976806641 L 4.243884086608887 116.3961334228516 C 4.22716760635376 115.8069610595703 2.584684133529663 57.40261459350586 3.671484231948853 50.7067985534668 C 4.039234161376953 48.44268035888672 6.220201015472412 45.13326644897461 9.978584289550781 41.13639831542969 L 10.35541725158691 40.73564910888672 L 9.92061710357666 40.398681640625 C 8.804580688476563 39.53372573852539 7.961697578430176 38.90377807617188 7.638455390930176 38.66376876831055 L 1.926150798797607 16.37998199462891 L 1.924484133720398 16.37343215942383 L 1.922617435455322 16.3669319152832 L 0.5070853233337402 11.4063835144043 C 0.9475798606872559 7.026371479034424 1.241973996162415 4.375807762145996 5.31195068359375 2.812998294830322 C 6.158634185791016 2.487998247146606 7.147183895111084 2.316198110580444 8.170701026916504 2.316198110580444 C 10.56346702575684 2.316198110580444 12.92511749267578 3.23589825630188 14.18730068206787 4.659231662750244 C 14.97268390655518 5.54489803314209 15.3029842376709 6.557948112487793 15.16900062561035 7.670248031616211 L 15.16545104980469 7.69978141784668 L 15.16541767120361 7.729498386383057 L 15.16181755065918 11.04419803619385 L 15.16180038452148 11.06489849090576 L 15.16348457336426 11.08551502227783 L 16.80418395996094 31.14018058776855 L 16.82623481750488 31.40966415405273 L 17.06383323669434 31.53876495361328 C 17.07035064697266 31.54231452941895 17.72833442687988 31.90026473999023 18.78201675415039 32.51163101196289 L 19.08173370361328 32.685546875 L 19.34980010986328 32.46595001220703 C 19.66218376159668 32.21006393432617 19.84049987792969 32.06806564331055 19.8422679901123 32.06666564941406 L 20.01609992980957 31.92831420898438 L 20.02996826171875 31.70658111572266 L 21.19275093078613 13.08471488952637 L 21.19316673278809 13.07784843444824 L 21.19341659545898 13.07098197937012 L 21.41251373291016 6.792749881744385 C 21.78459739685059 4.914212226867676 22.61795234680176 3.333754301071167 23.82395172119141 2.220131397247314 C 25.04259300231934 1.094816923141479 26.59309196472168 0.4999981820583344 28.30768394470215 0.4999981820583344 C 28.30778884887695 0.4999981820583344 28.30779647827148 0.4999981820583344 28.30790138244629 0.4999981820583344 C 28.81383323669434 0.5000148415565491 29.33793449401855 0.5520148277282715 29.8656005859375 0.6545814871788025 C 34.19549942016602 1.496881484985352 37.03366851806641 5.704514980316162 36.19229888916016 10.03408145904541 L 36.19153594970703 10.03799819946289 L 36.19083404541016 10.04193115234375 L 35.15581893920898 15.86297130584717 L 30.38932609558105 37.41772079467773 C 30.20676040649414 37.61047744750977 29.77609062194824 38.0675048828125 29.1876335144043 38.70676422119141 L 28.81898498535156 39.10724639892578 L 29.2492504119873 39.44063186645508 C 33.16730117797852 42.47648239135742 35.5144157409668 45.0496826171875 36.22541809082031 47.08872985839844 C 38.45003509521484 53.4686164855957 40.48233413696289 109.7102508544922 40.50260162353516 110.2775955200195 L 40.50374984741211 110.3097305297852 L 40.50900268554688 110.3414611816406 C 40.52210235595703 110.4208984375 41.7761344909668 118.3206634521484 37.82523345947266 119.8369445800781 C 36.65655899047852 120.2857971191406 35.28436279296875 120.5230178833008 33.85700225830078 120.5230178833008 C 33.85682678222656 120.5230178833008 33.85672378540039 120.5230178833008 33.85655212402344 120.5230178833008 C 32.03073501586914 120.5229339599609 30.22955131530762 120.1297302246094 28.7847843170166 119.4158477783203 C 27.2481575012207 118.6565475463867 26.1590518951416 117.5631637573242 25.62985038757324 116.2501220703125 C 25.59333992004395 114.9963836669922 25.17070960998535 100.6140670776367 24.58016777038574 85.95943450927734 C 24.21886825561523 76.99391174316406 23.86633491516113 69.68170166015625 23.53231811523438 64.22592926025391 C 22.89878463745117 53.87781524658203 22.4804515838623 52.79067993164063 22.34298324584961 52.43342971801758 C 22.08853340148926 51.77276611328125 21.56486701965332 50.98176574707031 20.74196815490723 50.01509857177734 L 20.30465126037598 49.50138092041016 L 19.94038391113281 50.06923294067383 C 18.98641777038574 51.55631637573242 18.44085121154785 52.69824981689453 18.27250099182129 53.56026458740234 C 17.45670127868652 57.73699951171875 19.6583137512207 113.7404327392578 19.78322792053223 116.8971405029297 C 19.34633827209473 119.0219421386719 17.68476486206055 120.3809356689453 16.36155128479004 121.1489639282227 C 14.61010074615479 122.1655349731445 12.39980125427246 122.7485656738281 10.29741764068604 122.7485656738281 Z"/>
      <path class="cls-3" d="M 28.30766677856445 1 C 26.72105026245117 1 25.28788375854492 1.548980712890625 24.16315078735352 2.587600708007813 C 23.04365730285645 3.621360778808594 22.26579856872559 5.094184875488281 21.91077423095703 6.850944519042969 L 21.69309997558594 13.08843231201172 L 21.69263458251953 13.10214996337891 L 21.6917667388916 13.11586761474609 L 20.52896690368652 31.73773193359375 L 20.50123405456543 32.18118286132813 L 20.15365028381348 32.45784759521484 C 20.15190124511719 32.45925140380859 19.97561836242676 32.59964752197266 19.66665077209473 32.85274505615234 L 19.13053321838379 33.29193115234375 L 18.53108406066895 32.94411468505859 C 17.48476791381836 32.33699798583984 16.83158493041992 31.98161315917969 16.82509994506836 31.97809600830078 L 16.34993362426758 31.71987915039063 L 16.30585098266602 31.18094635009766 L 14.66515159606934 11.12628173828125 L 14.66176795959473 11.08504486083984 L 14.66181755065918 11.04366302490234 L 14.6654167175293 7.728965759277344 L 14.66548347473145 7.66949462890625 L 14.6726016998291 7.610466003417969 C 14.78871726989746 6.64630126953125 14.49958419799805 5.764984130859375 13.81319999694824 4.990966796875 C 12.64166831970215 3.669845581054688 10.42685127258301 2.816200256347656 8.170700073242188 2.816200256347656 C 7.207801818847656 2.816200256347656 6.281200408935547 2.976516723632813 5.491168975830078 3.27978515625 C 1.734771728515625 4.72216796875 1.444149017333984 7.09124755859375 1.014148712158203 11.36115264892578 L 2.403434753417969 16.22972869873047 L 2.407135009765625 16.24272918701172 L 2.410499572753906 16.25581359863281 L 8.078887939453125 38.36827850341797 C 8.473217010498047 38.66233062744141 9.245124816894531 39.24257659912109 10.2269172668457 40.00347900390625 L 11.09651756286621 40.67742919921875 L 10.34283447265625 41.47891235351563 C 5.68115234375 46.43636322021484 4.410266876220703 49.27698516845703 4.165035247802734 50.78691864013672 C 3.085750579833984 57.43636322021484 4.726985931396484 115.7932662963867 4.743682861328125 116.381950378418 L 4.744300842285156 116.4037017822266 L 4.743968963623047 116.4254455566406 C 4.724285125732422 117.7270812988281 4.70391845703125 119.0730285644531 5.177066802978516 120.0634460449219 C 5.488151550292969 120.7146148681641 6.169532775878906 121.6323471069336 8.485252380371094 122.0823822021484 C 9.052684783935547 122.1926498413086 9.662384033203125 122.2485656738281 10.29741668701172 122.2485656738281 C 12.31428337097168 122.2485656738281 14.43308448791504 121.6901473999023 16.11054992675781 120.7165145874023 C 17.33266830444336 120.0071868896484 18.86267471313477 118.765251159668 19.28115653991699 116.8544387817383 C 19.22392463684082 115.4004745483398 18.67180633544922 101.2973937988281 18.21725082397461 86.90211486816406 C 17.24775123596191 56.19850158691406 17.64970016479492 54.14063262939453 17.78176689147949 53.46443176269531 C 17.96243476867676 52.53934478759766 18.5308666229248 51.34044647216797 19.51953506469727 49.79924774169922 L 20.24808502197266 48.66355133056641 L 21.12270164489746 49.69100189208984 C 21.98274993896484 50.70131683349609 22.53451728820801 51.53956604003906 22.80961799621582 52.25386810302734 C 23.061767578125 52.90911865234375 23.82906723022461 54.90309906005859 25.07976722717285 85.93930053710938 C 25.65848159790039 100.3003768920898 26.07596397399902 114.4001846313477 26.12694931030273 116.1437835693359 C 26.74847412109375 117.6050186157227 28.02682685852051 118.4836502075195 29.00628280639648 118.9676284790039 C 30.3835506439209 119.6482009887695 32.10604858398438 120.0229949951172 33.85649871826172 120.0229949951172 C 35.22356796264648 120.0229949951172 36.53388214111328 119.7972640991211 37.64606857299805 119.3701324462891 C 38.40523529052734 119.0787811279297 38.98305130004883 118.5024795532227 39.41253280639648 117.6083145141602 C 39.79143524169922 116.8194961547852 40.03876876831055 115.806884765625 40.14766693115234 114.5986022949219 C 40.34158325195313 112.4471130371094 40.01888275146484 110.4424514770508 40.0157356262207 110.4231643676758 L 40.00521850585938 110.3597106933594 L 40.0029182434082 110.2954483032227 C 39.99785232543945 110.1535186767578 39.48678588867188 95.92961120605469 38.70450210571289 81.09144592285156 C 37.4018669128418 56.38344573974609 36.38061904907227 49.05244445800781 35.7532844543457 47.25336456298828 C 35.28673553466797 45.91531372070313 33.72648620605469 43.54229736328125 28.94300079345703 39.83588409423828 L 28.08246612548828 39.16908264160156 L 28.81976699829102 38.36813354492188 C 29.32965087890625 37.81423187255859 29.71550178527832 37.40292358398438 29.93099212646484 37.17463684082031 L 34.66547393798828 15.76462554931641 L 35.69855117797852 9.954399108886719 L 35.69993591308594 9.946533203125 L 35.70146942138672 9.938682556152344 C 36.49026870727539 5.879714965820313 33.82945251464844 1.935050964355469 29.77025032043457 1.145378112792969 C 29.27388381958008 1.048934936523438 28.78186798095703 1.000015258789063 28.30805206298828 1 L 28.30780029296875 1 L 28.30766677856445 1 M 28.30791854858398 0 C 28.84070205688477 1.52587890625e-05 29.39288330078125 0.0533447265625 29.96100044250488 0.1637496948242188 C 34.56900024414063 1.060165405273438 37.5786018371582 5.521446228027344 36.68310165405273 10.12944793701172 L 35.64631652832031 15.96053314208984 L 30.8475341796875 37.66131591796875 C 30.8475341796875 37.66131591796875 30.34971618652344 38.1826171875 29.55550003051758 39.04539489746094 C 32.9001350402832 41.63694763183594 35.84391784667969 44.47602844238281 36.69753265380859 46.92411804199219 C 38.97275161743164 53.4490966796875 41.00228500366211 110.2597503662109 41.00228500366211 110.2597503662109 C 41.00228500366211 110.2597503662109 42.38738250732422 118.6216278076172 38.00436782836914 120.3037338256836 C 36.75960540771484 120.7817993164063 35.31962585449219 121.0230026245117 33.85650634765625 121.0230026245117 C 30.16884994506836 121.0230026245117 26.33687019348145 119.4898071289063 25.13258361816406 116.3518295288086 C 25.13258361816406 116.3518295288086 23.41263389587402 56.60538482666016 21.87633323669434 52.61299896240234 C 21.63173484802246 51.97788238525391 21.09373474121094 51.19968414306641 20.36123466491699 50.33919525146484 C 19.52121734619141 51.64866638183594 18.92898368835449 52.80736541748047 18.76323318481445 53.65609741210938 C 17.94334983825684 57.85368347167969 20.28518486022949 116.9368286132813 20.28518486022949 116.9368286132813 C 19.51370048522949 120.9066772460938 14.59222412109375 123.2485733032227 10.29740905761719 123.2485733032227 C 9.607013702392578 123.2485733032227 8.932640075683594 123.1880340576172 8.294483184814453 123.0640182495117 C 3.686485290527344 122.1685180664063 3.699985504150391 119.3254165649414 3.744083404541016 116.4103164672852 C 3.744083404541016 116.4103164672852 2.070949554443359 57.44686126708984 3.177951812744141 50.62670135498047 C 3.630733489990234 47.83896636962891 6.444652557373047 44.16466522216797 9.614334106445313 40.79388427734375 C 8.169185638427734 39.67386627197266 7.198234558105469 38.95999908447266 7.198234558105469 38.95999908447266 L 1.441818237304688 16.50413513183594 L 1.9073486328125e-05 11.45151519775391 C 0.4473190307617188 7.001930236816406 0.7497177124023438 4.029228210449219 5.132701873779297 2.346229553222656 C 6.070423126220703 1.986282348632813 7.1141357421875 1.816200256347656 8.170700073242188 1.816200256347656 C 12.05159950256348 1.816200256347656 16.10116958618164 4.112358093261719 15.6654167175293 7.730049133300781 L 15.66181755065918 11.04474639892578 L 17.30251693725586 31.09941864013672 C 17.30251693725586 31.09941864013672 17.95961761474609 31.45638275146484 19.03295135498047 32.07916259765625 C 19.3524341583252 31.81745147705078 19.53091812133789 31.6754150390625 19.53091812133789 31.6754150390625 L 20.69371795654297 13.05355072021484 L 20.9142017364502 6.735549926757813 C 21.69930076599121 2.6956787109375 24.51930046081543 -0.0001220703125 28.30791854858398 0 Z"/>
    </g>
  </g>
</svg>
