<svg xmlns="http://www.w3.org/2000/svg" width="72.522" height="210.502" viewBox="0 0 72.522 210.502">
  <defs>
    <style>
      .cls-1 {
        fill: #fff;
        stroke-linecap: round;
        stroke-linejoin: round;
      }

      .cls-2, .cls-3 {
        stroke: none;
      }

      .cls-3 {
        fill: #9a9a9a;
      }
    </style>
  </defs>
  <g id="ch6-2" class="cls-1" transform="translate(38.026 2.794)">
    <path class="cls-2" d="M 12.04900169372559 206.7077484130859 C 7.096279621124268 206.7077484130859 2.568362951278687 205.8849792480469 -1.408970236778259 204.2623138427734 C -4.573997974395752 202.9710235595703 -7.402303695678711 201.1718902587891 -9.815386772155762 198.9148864746094 C -13.90810871124268 195.0868377685547 -15.38322067260742 191.26708984375 -15.39763736724854 191.2289428710938 L -15.40949821472168 191.1975860595703 L -15.42347049713135 191.1670379638672 C -15.47538661956787 191.0533905029297 -20.67580413818359 179.6125030517578 -25.90938758850098 163.0116424560547 C -28.98080444335938 153.2692260742188 -31.46255302429199 143.6819763183594 -33.28569412231445 134.5162200927734 C -35.56155395507813 123.0744781494141 -36.81127548217773 112.2633056640625 -37.00019073486328 102.3830871582031 C -37.18910980224609 92.50022888183594 -36.34822082519531 81.89456176757813 -34.50083160400391 70.86067199707031 C -33.02144241333008 62.02483749389648 -30.89722061157227 52.89744567871094 -28.18710899353027 43.73200225830078 C -23.5734977722168 28.12905883789063 -18.80633163452148 17.71453094482422 -18.75872039794922 17.61116981506348 L -18.69435882568359 17.47142028808594 L -18.67497062683105 17.31880950927734 C -18.66891479492188 17.27239227294922 -18.00608062744141 12.45975303649902 -14.34499835968018 7.732419490814209 C -12.20874786376953 4.974058628082275 -9.476581573486328 2.775947570800781 -6.224414825439453 1.199169754981995 C -2.128136873245239 -0.7868858575820923 2.819057464599609 -1.793885827064514 8.479751586914063 -1.793885827064514 C 9.612224578857422 -1.793885827064514 10.79050159454346 -1.753246903419495 11.98191833496094 -1.673135876655579 C 17.58877944946289 -1.296080231666565 22.19139099121094 -0.2788302600383759 25.66189002990723 1.350364208221436 C 28.47100257873535 2.669086456298828 30.55636215209961 4.397753238677979 31.8600025177002 6.488336563110352 C 34.908447265625 11.37686443328857 32.76353073120117 16.76022529602051 32.74153137207031 16.81403160095215 L 32.73614120483398 16.82716941833496 L 32.73114013671875 16.8404483795166 C 32.69175338745117 16.94503021240234 28.7486400604248 27.48058700561523 24.86269569396973 43.20858764648438 C 21.27577972412109 57.7263069152832 17.00000190734863 79.78053283691406 17.00000190734863 102.4021987915039 C 17.00000190734863 125.0180892944336 21.27402877807617 148.1473388671875 24.85947418212891 163.5679473876953 C 28.4995174407959 179.2232513427734 32.1883544921875 190.3282623291016 32.66890335083008 191.7531890869141 C 32.66689300537109 192.1312561035156 32.62611389160156 193.3043212890625 32.24005889892578 194.8191375732422 C 31.61694717407227 197.2640380859375 30.43625259399414 199.400390625 28.7307243347168 201.1688079833984 C 27.13880729675293 202.8194732666016 25.09447479248047 204.1213073730469 22.6545295715332 205.0381927490234 C 19.70644569396973 206.1460266113281 16.13822364807129 206.7077484130859 12.04900169372559 206.7077484130859 Z"/>
    <path class="cls-3" d="M 8.479696273803711 -0.793853759765625 C 2.998529672622681 -0.793853759765625 -1.782275915145874 0.1699676513671875 -5.729942321777344 2.070831298828125 C -8.838109016418457 3.5675048828125 -11.45105361938477 5.6531982421875 -13.49622058868408 8.269973754882813 C -16.98932266235352 12.73939514160156 -17.66417121887207 17.31228637695313 -17.68341827392578 17.44869995117188 C -17.7085075378418 17.65415954589844 -17.76374626159668 17.84133911132813 -17.85044288635254 18.02952575683594 C -17.89774894714355 18.13224792480469 -22.63477516174316 28.48106384277344 -27.22813606262207 44.01556396484375 C -29.92680358886719 53.14225769042969 -32.0418586730957 62.22981262207031 -33.51455307006836 71.02580261230469 C -35.35177612304688 81.99897766113281 -36.18813705444336 92.54267120361328 -36.00035858154297 102.3639755249023 C -35.81269073486328 112.1800842285156 -34.57055282592773 122.9260025024414 -32.3084716796875 134.3032531738281 C -30.4938850402832 143.4296722412109 -28.02313613891602 152.9776458740234 -24.9648323059082 162.6819458007813 C -19.74944305419922 179.2308349609375 -14.56566429138184 190.6381988525391 -14.51396942138672 190.7513122558594 C -14.49535942077637 190.7920074462891 -14.47813606262207 190.8333435058594 -14.46230316162109 190.8752288818359 C -14.44869232177734 190.9111938476563 -13.05699825286865 194.513671875 -9.132303237915039 198.1845550537109 C -6.808553695678711 200.3580017089844 -4.082970142364502 202.0913391113281 -1.031220197677612 203.3363952636719 C 2.82558536529541 204.909912109375 7.226418495178223 205.7077484130859 12.04900169372559 205.7077484130859 C 16.00658416748047 205.7077484130859 19.4484748840332 205.1705322265625 22.27911376953125 204.1109771728516 C 24.57680702209473 203.2509155273438 26.49705696105957 202.0359802246094 27.98653030395508 200.4998626708984 C 29.56369590759277 198.8733062744141 30.66189002990723 196.9055786132813 31.25061225891113 194.6513671875 C 31.58326721191406 193.3776245117188 31.65265274047852 192.3595733642578 31.6660041809082 191.9079437255859 C 31.00025749206543 189.9187622070313 27.41788291931152 178.9868621826172 23.88547325134277 163.7944183349609 C 20.28814125061035 148.3228454589844 16.00000190734863 125.1128921508789 16.00000190734863 102.4021987915039 C 16.00000190734863 79.67994689941406 20.29164123535156 57.54035949707031 23.89189147949219 42.96871948242188 C 27.79183578491211 27.18411254882813 31.75569725036621 16.59323120117188 31.79528045654297 16.48808288574219 C 31.80344200134277 16.46635437011719 31.80597305297852 16.4593505859375 31.81402015686035 16.44004821777344 C 31.84408187866211 16.36280822753906 32.33317565917969 15.080810546875 32.46380615234375 13.28453063964844 C 32.63525390625 10.92753601074219 32.13852691650391 8.806060791015625 30.98741912841797 6.979080200195313 C 29.78055763244629 5.063552856445313 27.83419609069824 3.468917846679688 25.20239067077637 2.239395141601563 C 21.84883499145508 0.672698974609375 17.37822341918945 -0.3079681396484375 11.91480731964111 -0.67535400390625 C 10.74569606781006 -0.753997802734375 9.589946746826172 -0.793853759765625 8.479696273803711 -0.793853759765625 M 8.479707717895508 -2.793853759765625 C 9.624355316162109 -2.793853759765625 10.81031608581543 -2.754165649414063 12.04900169372559 -2.670852661132813 C 41.00000381469727 -0.723968505859375 33.66699981689453 17.19281005859375 33.66699981689453 17.19281005859375 C 33.66699981689453 17.19281005859375 18.00000190734863 58.80471801757813 18.00000190734863 102.4021987915039 C 18.00000190734863 145.9996337890625 33.66699981689453 191.5826721191406 33.66699981689453 191.5826721191406 C 33.66699981689453 191.5826721191406 34.33300018310547 207.7077484130859 12.04900169372559 207.7077484130859 C -10.23497009277344 207.7077484130859 -16.33299827575684 191.5826721191406 -16.33299827575684 191.5826721191406 C -16.33299827575684 191.5826721191406 -37.16649627685547 145.9996337890625 -37.99999618530273 102.4021987915039 C -38.83349990844727 58.80471801757813 -19.6669979095459 17.19281005859375 -19.6669979095459 17.19281005859375 C -19.6669979095459 17.19281005859375 -17.12872695922852 -2.793853759765625 8.479707717895508 -2.793853759765625 Z"/>
  </g>
</svg>
