<svg xmlns="http://www.w3.org/2000/svg" width="84.313" height="111.011" viewBox="0 0 84.313 111.011">
  <defs>
    <style>
      .cls-1 {
        fill: #fff;
      }

      .cls-2, .cls-3 {
        stroke: none;
      }

      .cls-3 {
        fill: #707070;
      }
    </style>
  </defs>
  <g id="ch6" transform="translate(-377.698 -342.378)">
    <g id="ch6-1" class="cls-1" transform="matrix(-0.999, -0.035, 0.035, -0.999, 418.917, 452.452)">
      <path class="cls-2" d="M 31.01933670043945 108.1965560913086 C 29.30450820922852 108.1966171264648 27.75390815734863 107.6017990112305 26.53517913818359 106.4764404296875 C 25.32927322387695 105.3629150390625 24.49578094482422 103.7824478149414 24.12330627441406 101.9037780761719 L 23.90474700927734 95.64142608642578 L 24.64949417114258 69.57708740234375 L 24.65628051757813 69.33946990966797 L 24.47626495361328 69.18418884277344 C 24.46615219116211 69.17546081542969 23.44685173034668 68.29470062255859 21.98185157775879 66.90385437011719 L 21.55782318115234 66.50128936767578 L 21.22593688964844 66.98267364501953 C 21.06200790405273 67.220458984375 20.90056610107422 67.46597290039063 20.74613761901855 67.71235656738281 C 18.37503623962402 71.49561309814453 16.76740837097168 77.63927459716797 15.96789455413818 85.97267150878906 C 15.38321876525879 92.06666564941406 15.4705982208252 97.15997314453125 15.47409915924072 97.34671020507813 L 15.47769451141357 100.6565551757813 L 15.47772312164307 100.6862258911133 L 15.48126602172852 100.7156982421875 C 15.61502265930176 101.8281860351563 15.28456592559814 102.8413314819336 14.49907970428467 103.7269973754883 C 13.23692321777344 105.1501007080078 10.87532234191895 106.0697555541992 8.482623100280762 106.0699462890625 C 7.459136962890625 106.0700149536133 6.470394134521484 105.8981857299805 5.623280048370361 105.5730133056641 C 4.171394348144531 105.0157012939453 3.350722789764404 104.4114456176758 2.96232271194458 103.6137847900391 C 2.590294122695923 102.8497161865234 2.584765672683716 101.8654403686523 2.57778000831604 100.6193313598633 C 2.573174953460693 99.79862976074219 2.567957639694214 98.86897277832031 2.461134910583496 97.79742431640625 L 2.254719257354736 91.89138793945313 C 2.284713983535767 91.46634674072266 2.69318699836731 85.83934783935547 3.718379974365234 79.25859832763672 C 5.11639404296875 70.28479766845703 7.0187087059021 63.62194442749023 9.219694137573242 59.9903564453125 C 10.07785129547119 58.57450103759766 11.07652282714844 57.2913703918457 12.18797969818115 56.17660140991211 L 12.4622802734375 55.90147018432617 L 12.26346588134766 55.56769943237305 C 11.33410835266113 54.00749969482422 10.76855087280273 52.63522720336914 10.5825366973877 51.48899841308594 C 9.487793922424316 44.74887084960938 4.111779689788818 8.844157218933105 4.057594299316406 8.482271194458008 L 4.055994033813477 8.471556663513184 L 4.053922653198242 8.460914611816406 C 3.592808485031128 6.088157176971436 3.67792272567749 4.141785621643066 4.306879997253418 2.675857067108154 C 4.994208335876465 1.073914170265198 6.356080055236816 0.06471416354179382 8.354680061340332 -0.3236858248710632 C 8.953866004943848 -0.4402429759502411 9.595979690551758 -0.4993287026882172 10.26327991485596 -0.4993287026882172 C 12.36542320251465 -0.4993287026882172 14.57547950744629 0.08378558605909348 16.3267936706543 1.10051417350769 C 17.65764236450195 1.87312912940979 19.33081817626953 3.243791341781616 19.75567054748535 5.390194416046143 C 19.85065269470215 6.194947719573975 22.68974876403809 30.23347282409668 24.25969505310059 42.19968414306641 L 25.25439453125 42.16717147827148 C 25.94170761108398 31.62671852111816 25.65623092651367 8.694431304931641 25.6337776184082 6.988461494445801 C 26.16444778442383 5.679769515991211 27.25189781188965 4.590053558349609 28.78469467163086 3.832628488540649 C 30.2294807434082 3.118714094161987 32.03066635131836 2.725528478622437 33.85642242431641 2.725528478622437 C 35.28413772583008 2.725528478622437 36.65646743774414 2.962757110595703 37.82502365112305 3.411556959152222 C 41.77605056762695 4.927871227264404 40.52202224731445 12.82765674591064 40.50889587402344 12.90727138519287 L 40.50199508666992 12.94915676116943 L 40.50222396850586 12.99178600311279 C 40.50419235229492 13.32368564605713 40.6747932434082 46.25524139404297 38.45376586914063 52.62487030029297 C 37.63040924072266 54.98714447021484 35.76716613769531 56.41724395751953 33.02775192260742 57.95901489257813 L 32.53220748901367 58.23789978027344 L 32.8721923828125 58.69369888305664 C 34.51232147216797 60.89251327514648 35.59468078613281 63.05964279174805 36.18113708496094 65.31893157958984 C 38.32362365722656 73.57521057128906 38.65329360961914 91.57366943359375 38.65636444091797 91.7545166015625 L 38.65643692016602 91.75895690917969 L 38.65659332275391 91.76339721679688 L 38.89420700073242 98.58450317382813 L 38.89558029174805 98.62388610839844 L 38.90310668945313 98.66257476806641 C 39.31112289428711 100.7600021362305 38.87779235839844 102.8907165527344 37.68293762207031 104.6622161865234 C 36.48812103271484 106.4336547851563 34.67488098144531 107.6339569091797 32.57722091674805 108.0420150756836 C 32.04952239990234 108.1445465087891 31.52533721923828 108.1965408325195 31.01933670043945 108.1965560913086 Z"/>
      <path class="cls-3" d="M 31.01932334899902 107.6965560913086 C 31.49339485168457 107.6965408325195 31.98549461364746 107.6476287841797 32.48173522949219 107.5512161254883 C 34.44833755493164 107.1686553955078 36.14826583862305 106.0433578491211 37.26840972900391 104.3826293945313 C 38.38856506347656 102.7218551635742 38.79480743408203 100.7243423461914 38.41230773925781 98.758056640625 L 38.39726638793945 98.68068695068359 L 38.39450836181641 98.60191345214844 L 38.15689468383789 91.78081512451172 L 38.15659332275391 91.77191162109375 L 38.15643692016602 91.76303100585938 C 38.15336608886719 91.58277130126953 37.82460784912109 73.64279937744141 35.69716644287109 65.44454193115234 C 35.12728118896484 63.24907302856445 34.07212448120117 61.13862991333008 32.47140884399414 58.99264144897461 L 31.79145050048828 58.08105850219727 L 32.78250885009766 57.52328491210938 C 35.42024993896484 56.03874206542969 37.21006393432617 54.67395782470703 37.98165130615234 52.46025848388672 C 38.60680770874023 50.6673583984375 39.43278121948242 45.38844299316406 39.81746673583984 30.42135620117188 C 40.04915237426758 21.4066276550293 40.00272369384766 13.07784271240234 40.00222396850586 12.99477100372314 L 40.00183868408203 12.90951442718506 L 40.01553726196289 12.82610034942627 C 40.0188102722168 12.80611419677734 40.34150695800781 10.80144309997559 40.1475944519043 8.649942398071289 C 40.03869247436523 7.441657066345215 39.79136657714844 6.429042816162109 39.4124641418457 5.640213966369629 C 38.98297882080078 4.746042728424072 38.40516662597656 4.169756889343262 37.64576721191406 3.878314256668091 C 36.53382110595703 3.451256990432739 35.22348022460938 3.225528478622437 33.85642242431641 3.225528478622437 C 32.10597991943359 3.225528478622437 30.38346481323242 3.60032844543457 29.00619506835938 4.280900001525879 C 28.0310001373291 4.762780666351318 26.75955772399902 5.635779857635498 26.13507461547852 7.085587024688721 C 26.1655216217041 9.456110954284668 26.43032455444336 31.81759262084961 25.75333786010742 42.19971466064453 L 23.76395225524902 42.26472854614258 C 22.20444679260254 30.3781566619873 19.39332580566406 6.585528373718262 19.26145935058594 5.468642711639404 C 18.86657905578613 3.516216039657593 17.31328010559082 2.251378059387207 16.07575225830078 1.532928466796875 C 14.3984375 0.5591570138931274 12.27986526489258 0.0006713038892485201 10.26327991485596 0.0006713038892485201 C 9.627923011779785 0.0006713038892485201 9.017922401428223 0.05667130276560783 8.450065612792969 0.1671284437179565 C 6.598108291625977 0.5270284414291382 5.393165588378906 1.412128448486328 4.766379833221436 2.872999906539917 C 4.177680015563965 4.245071411132813 4.103108406066895 6.093028545379639 4.544736862182617 8.365528106689453 L 4.548880100250244 8.386814117431641 L 4.552093982696533 8.408243179321289 C 4.606265544891357 8.770099639892578 9.981808662414551 44.6717414855957 11.07608032226563 51.40890121459961 C 11.25197982788086 52.49277114868164 11.79599380493164 53.80590057373047 12.69302272796631 55.31181335449219 L 13.09066581726074 55.9793701171875 L 12.54205131530762 56.52962875366211 C 11.45873737335205 57.61618423461914 10.48479461669922 58.86774444580078 9.647294044494629 60.2495002746582 C 7.480479717254639 63.82471466064453 5.601551532745361 70.42188262939453 4.213636875152588 79.32781219482422 C 3.207800626754761 85.78196716308594 2.796949148178101 91.31825256347656 2.755335330963135 91.90055084228516 L 2.960251808166504 97.76369476318359 C 3.067867755889893 98.85177612304688 3.073126554489136 99.78883361816406 3.077765703201294 100.6165161132813 C 3.084408521652222 101.799072265625 3.089651346206665 102.7331314086914 3.411865711212158 103.3948822021484 C 3.633151292800903 103.8493576049805 4.104865550994873 104.4545822143555 5.802465438842773 105.1062164306641 C 6.592936992645264 105.4096603393555 7.519708633422852 105.5700149536133 8.482580184936523 105.5699462890625 C 10.738694190979 105.5697708129883 12.9534797668457 104.7161560058594 14.12500858306885 103.3952255249023 C 14.81150817871094 102.6211853027344 15.10079383850098 101.73974609375 14.98485088348389 100.7753829956055 L 14.9777660369873 100.7164535522461 L 14.97769451141357 100.657096862793 L 14.9741039276123 97.35106658935547 C 14.96922206878662 97.08101654052734 14.88785171508789 91.9945068359375 15.47017955780029 85.9249267578125 C 16.27719497680664 77.51345825195313 17.90972328186035 71.29653930664063 20.32247924804688 67.44681549072266 C 20.48076629638672 67.19427490234375 20.64623641967773 66.942626953125 20.81429481506348 66.69886779785156 L 21.47803688049316 65.73609924316406 L 22.32610893249512 66.54124450683594 C 23.78090858459473 67.92241668701172 24.79282188415527 68.79692840576172 24.80287933349609 68.80560302734375 L 25.16286468505859 69.11618804931641 L 25.1492805480957 69.59135437011719 L 24.40498733520508 95.63983917236328 L 24.62156677246094 101.8455505371094 C 25.3516788482666 105.4570236206055 27.79732704162598 107.6966552734375 31.01932334899902 107.6965560913086 M 31.01935195922852 108.6965560913086 C 27.23029327392578 108.6966705322266 24.41087913513184 106.0008850097656 23.6249942779541 101.9610137939453 L 23.40449333190918 95.64301300048828 L 24.14969444274902 69.56279754638672 C 24.14969444274902 69.56279754638672 23.1298656463623 68.68321228027344 21.63759422302246 67.26647186279297 C 21.47862243652344 67.49705505371094 21.32272338867188 67.73391723632813 21.1697940826416 67.97789764404297 C 15.55289459228516 76.94010162353516 15.97409439086914 97.34130096435547 15.97409439086914 97.34130096435547 L 15.97769451141357 100.6560134887695 C 16.41271781921387 104.2741317749023 12.36330986022949 106.5696487426758 8.48265266418457 106.569938659668 C 7.425771236419678 106.5700149536133 6.382083892822266 106.3998565673828 5.444094181060791 106.0398025512695 C 1.061994194984436 104.3576965332031 2.409294128417969 102.2805023193359 1.961994171142578 97.83090209960938 L 1.754108428955078 91.88279724121094 C 1.754108428955078 91.88279724121094 3.325508594512939 68.75099945068359 8.792094230651855 59.731201171875 C 9.737494468688965 58.17141342163086 10.76829433441162 56.89235687255859 11.83389377593994 55.82357025146484 C 10.93786525726318 54.31932830810547 10.29939460754395 52.86554336547852 10.08899402618408 51.56909942626953 C 8.981094360351563 44.74800109863281 3.563108444213867 8.556300163269043 3.563108444213867 8.556300163269043 C 2.667608499526978 3.948299884796143 3.651294231414795 0.08099987357854843 8.259294509887695 -0.8145001530647278 C 8.897731781005859 -0.9386961460113525 9.572568893432617 -0.9993339776992798 10.26328372955322 -0.9993339776992798 C 14.55788326263428 -0.9993339776992798 19.47856521606445 1.343137383460999 20.2499942779541 5.312699794769287 C 20.2499942779541 5.312699794769287 23.14873695373535 29.8882007598877 24.75545120239258 42.1346435546875 C 25.4728946685791 31.13209915161133 25.13249397277832 6.896699905395508 25.13249397277832 6.896699905395508 C 26.3367805480957 3.758724451065063 30.16876029968262 2.225529909133911 33.85642242431641 2.225529909133911 C 35.31954193115234 2.225529909133911 36.75952529907227 2.466730833053589 38.00429534912109 2.944799900054932 C 42.38731002807617 4.626899719238281 41.0022087097168 12.98880004882813 41.0022087097168 12.98880004882813 C 41.0022087097168 12.98880004882813 41.20109558105469 46.26449966430664 38.92589569091797 52.78950119018555 C 38.01168060302734 55.41239929199219 35.87119293212891 56.93244171142578 33.27297973632813 58.39474105834961 C 34.70967864990234 60.32084274291992 35.97639465332031 62.54010009765625 36.66509246826172 65.19329833984375 C 38.84760665893555 73.60379791259766 39.15629577636719 91.74600219726563 39.15629577636719 91.74600219726563 L 39.3939094543457 98.56710052490234 C 40.29030990600586 103.1751022338867 37.28070831298828 107.6364135742188 32.67269515991211 108.5328140258789 C 32.10446548461914 108.6432113647461 31.55220794677734 108.6965408325195 31.01935195922852 108.6965560913086 Z"/>
    </g>
    <g id="ch6-2" class="cls-1" transform="matrix(-0.999, -0.035, 0.035, -0.999, 460.917, 452.452)">
      <path class="cls-2" d="M 31.01934432983398 108.1965637207031 C 29.30451583862305 108.1966247558594 27.75391578674316 107.601806640625 26.53518676757813 106.476432800293 C 25.32928085327148 105.362907409668 24.49578666687012 103.7824401855469 24.12331199645996 101.9037704467773 L 23.90475463867188 95.64142608642578 L 24.64949989318848 69.57709503173828 L 24.65628623962402 69.3394775390625 L 24.47627258300781 69.18419647216797 C 24.46615791320801 69.17546081542969 23.44685745239258 68.29470825195313 21.98185729980469 66.90386199951172 L 21.5578441619873 66.50130462646484 L 21.2259578704834 66.982666015625 C 21.06205749511719 67.22037506103516 20.9006290435791 67.46588134765625 20.74612998962402 67.71237945556641 C 17.79004287719727 72.42904663085938 16.77322959899902 78.88859558105469 16.44077301025391 83.47689056396484 C 16.09643173217773 88.22917938232422 16.39442443847656 92.01850891113281 16.42182350158691 92.34785461425781 L 16.42540168762207 95.64174652099609 L 16.42542839050293 95.67142486572266 L 16.4289722442627 95.70088958740234 C 16.56272888183594 96.81337738037109 16.23227310180664 97.82652282714844 15.44678688049316 98.71219635009766 C 14.18462944030762 100.1352920532227 11.8230152130127 101.0549621582031 9.430315017700195 101.0551528930664 C 8.406843185424805 101.0552215576172 7.418100833892822 100.8833923339844 6.570986270904541 100.558219909668 C 5.118957996368408 100.0009613037109 4.298214912414551 99.39680480957031 3.909729242324829 98.59928131103516 C 3.537643671035767 97.83540344238281 3.532058000564575 96.85139465332031 3.524972200393677 95.60560607910156 C 3.520310163497925 94.78456115722656 3.515029191970825 93.85455322265625 3.407933473587036 92.78241729736328 L 3.202120304107666 86.86842346191406 C 3.213757991790771 86.5604248046875 3.392194509506226 82.13900756835938 4.193200588226318 76.74436187744141 C 5.281700611114502 69.41353607177734 7.019843578338623 63.62009429931641 9.219700813293457 59.99036407470703 C 10.07787227630615 58.574462890625 11.0765438079834 57.29133605957031 12.18795776367188 56.17660903930664 L 12.46227264404297 55.9014778137207 L 12.26345825195313 55.56770706176758 C 11.3341007232666 54.00752258300781 10.7685718536377 52.63525009155273 10.58254337310791 51.48899459838867 C 9.487800598144531 44.74887847900391 4.111772060394287 8.84416389465332 4.057586669921875 8.482278823852539 L 4.055986404418945 8.471564292907715 L 4.053915023803711 8.460921287536621 C 3.592800855636597 6.088164329528809 3.677915096282959 4.141792774200439 4.306886672973633 2.675864458084106 C 4.99421501159668 1.07392156124115 6.356086254119873 0.06472150236368179 8.354686737060547 -0.3236784934997559 C 8.953871726989746 -0.4402356445789337 9.595986366271973 -0.4993213415145874 10.26328659057617 -0.4993213415145874 C 12.36542892456055 -0.4993213415145874 14.5754861831665 0.08379293233156204 16.32680130004883 1.100521564483643 C 17.65764999389648 1.873136520385742 19.33082580566406 3.243802309036255 19.75567817687988 5.390205383300781 C 19.85083198547363 6.196334838867188 22.68464851379395 30.19009590148926 24.25537300109863 42.16669464111328 L 25.25004386901855 42.13463592529297 C 25.98972511291504 30.93673896789551 25.78561592102051 5.524880886077881 25.77013969421387 3.736964702606201 C 26.3006649017334 2.427836894989014 27.3883228302002 1.337649822235107 28.92150115966797 0.5800358057022095 C 30.36628723144531 -0.1338784992694855 32.16747283935547 -0.5270642042160034 33.99322891235352 -0.5270642042160034 C 35.42094421386719 -0.5270642042160034 36.79327392578125 -0.2898356318473816 37.96183013916016 0.1589643657207489 C 41.91200256347656 1.675250053405762 40.6588020324707 9.575107574462891 40.64568710327148 9.654735565185547 L 40.63895797729492 9.695521354675293 L 40.63899993896484 9.73705005645752 C 40.63961410522461 10.1014928817749 40.6751708984375 46.25416564941406 38.45377349853516 52.6248779296875 C 37.63041687011719 54.98713684082031 35.76718521118164 56.417236328125 33.02775955200195 57.95902252197266 L 32.53223037719727 58.23790740966797 L 32.87220001220703 58.69370651245117 C 34.51231384277344 60.89250564575195 35.59467315673828 63.05963516235352 36.18114471435547 65.31892395019531 C 38.32361602783203 73.57521820068359 38.65328598022461 91.57367706298828 38.6563720703125 91.75452423095703 L 38.65644454956055 91.75896453857422 L 38.65660095214844 91.76340484619141 L 38.89419937133789 98.58451080322266 L 38.89557266235352 98.62389373779297 L 38.90309906005859 98.66258239746094 C 39.31111526489258 100.760009765625 38.87778472900391 102.8907089233398 37.68292999267578 104.662223815918 C 36.48812866210938 106.4336471557617 34.67488479614258 107.6339492797852 32.57722854614258 108.0420074462891 C 32.04954528808594 108.1445388793945 31.52535820007324 108.196533203125 31.01932907104492 108.1965637207031 L 31.01934432983398 108.1965637207031 Z"/>
      <path class="cls-3" d="M 31.01932334899902 107.6965484619141 C 31.49341583251953 107.696533203125 31.98550796508789 107.6476287841797 32.48173904418945 107.5512161254883 C 34.44833755493164 107.1686401367188 36.14827728271484 106.0433654785156 37.26841735839844 104.3826293945313 C 38.38856887817383 102.7218551635742 38.79481506347656 100.7243499755859 38.41230773925781 98.758056640625 L 38.39726257324219 98.68068695068359 L 38.39450836181641 98.60192108154297 L 38.15689468383789 91.78081512451172 L 38.15658569335938 91.77191925048828 L 38.15643310546875 91.76301574707031 C 38.15336990356445 91.58277893066406 37.82515335083008 73.64495086669922 35.69717025756836 65.44454956054688 C 35.12727737426758 63.24907302856445 34.07212448120117 61.13862991333008 32.47141647338867 58.99264526367188 L 31.79146194458008 58.08107376098633 L 32.78252410888672 57.52328872680664 C 35.42024612426758 56.03873443603516 37.21006393432617 54.67396545410156 37.98164749145508 52.46025848388672 C 38.60693740844727 50.66701126098633 39.44487762451172 45.10536575317383 39.88589477539063 28.793212890625 C 40.15140151977539 18.97322845458984 40.13915634155273 9.829105377197266 40.13899993896484 9.737889289855957 L 40.13898468017578 9.654843330383301 L 40.15230941772461 9.573613166809082 C 40.15558624267578 9.55361270904541 40.47807693481445 7.548920631408691 40.2840461730957 5.397397518157959 C 40.17509460449219 4.189074039459229 39.92773818969727 3.176428079605103 39.54887771606445 2.387582063674927 C 39.11941528320313 1.493412733078003 38.54170989990234 0.9171203970909119 37.78258514404297 0.6257203817367554 C 36.67063140869141 0.1986588686704636 35.36029434204102 -0.02706420980393887 33.99324798583984 -0.02706420980393887 C 32.24280166625977 -0.02706420980393887 30.52027702331543 0.3477357923984528 29.14300155639648 1.028305053710938 C 28.16737365722656 1.510396480560303 26.89517974853516 2.384049415588379 26.27098655700684 3.835025310516357 C 26.29183769226074 6.324718475341797 26.47809028625488 31.1296272277832 25.74895477294922 42.16758346557617 L 23.75961685180664 42.23170471191406 C 22.19925117492676 30.33412742614746 19.39310646057129 6.583652019500732 19.26148414611816 5.46874475479126 C 18.86672973632813 3.516106128692627 17.31335258483887 2.251408815383911 16.07575416564941 1.532920360565186 C 14.3984317779541 0.5591511726379395 12.27986240386963 0.0006742525729350746 10.26327800750732 0.0006742525729350746 C 9.627908706665039 0.0006742525729350746 9.017923355102539 0.05667425319552422 8.45006275177002 0.1671357899904251 C 6.598108291625977 0.5270434617996216 5.39316987991333 1.41213583946228 4.766369819641113 2.873012781143188 C 4.177677631378174 4.245089530944824 4.103108406066895 6.09302806854248 4.544739246368408 8.365535736083984 L 4.548877716064453 8.386813163757324 L 4.552093029022217 8.408258438110352 C 4.60626220703125 8.770105361938477 9.981816291809082 44.67173767089844 11.07609272003174 51.40890502929688 C 11.25198554992676 52.4927978515625 11.79600048065186 53.8059196472168 12.69301605224609 55.31182861328125 L 13.09066200256348 55.9793815612793 L 12.54204654693604 56.52964401245117 C 11.45875453948975 57.61616516113281 10.48480033874512 58.86772155761719 9.647293090820313 60.24950408935547 C 7.482723712921143 63.82099914550781 5.76832389831543 69.54640960693359 4.68941593170166 76.80677032470703 C 3.903497219085693 82.09556579589844 3.718913316726685 86.44689178466797 3.702454328536987 86.86924743652344 L 3.90707540512085 92.74898529052734 C 4.014941215515137 93.83750152587891 4.020263671875 94.77480316162109 4.024970054626465 95.60275268554688 C 4.031692981719971 96.78496551513672 4.036985397338867 97.71875 4.359246730804443 98.38031768798828 C 4.580585479736328 98.83470153808594 5.05235481262207 99.43982696533203 6.75016975402832 100.0914154052734 C 7.540647029876709 100.3948593139648 8.467415809631348 100.5552139282227 9.430277824401855 100.5551376342773 C 11.68640041351318 100.5549697875977 13.90120029449463 99.70133209228516 15.07272338867188 98.38040924072266 C 15.75921630859375 97.60638427734375 16.04850769042969 96.72493743896484 15.93255424499512 95.76059722900391 L 15.92546272277832 95.70166015625 L 15.92540073394775 95.64230346679688 L 15.92184638977051 92.36985778808594 C 15.88243103027344 91.89987182617188 15.59716987609863 88.20082092285156 15.94207763671875 83.44076538085938 C 16.43160057067871 76.68461608886719 17.90538597106934 71.30348968505859 20.32246208190918 67.44684600830078 C 20.48075485229492 67.19427490234375 20.6462459564209 66.94261169433594 20.81432342529297 66.69884490966797 L 21.47809219360352 65.73613739013672 L 22.32612419128418 66.541259765625 C 23.78090858459473 67.92240905761719 24.79283142089844 68.79695129394531 24.80287742614746 68.80561065673828 L 25.16286277770996 69.11619567871094 L 25.14927673339844 69.59136962890625 L 24.40499877929688 95.63983917236328 L 24.62157249450684 101.8455429077148 C 25.35168075561523 105.4570083618164 27.79733085632324 107.6966552734375 31.01932334899902 107.6965484619141 M 31.01935386657715 108.6965484619141 C 27.23029327392578 108.6966705322266 24.4108772277832 106.0008773803711 23.625 101.9610137939453 L 23.40450859069824 95.64301300048828 L 24.14969253540039 69.56281280517578 C 24.14969253540039 69.56281280517578 23.12986183166504 68.68321228027344 21.63759994506836 67.26647186279297 C 21.47861671447754 67.49705505371094 21.32272338867188 67.73390197753906 21.1697998046875 67.9779052734375 C 15.55289268493652 76.94010162353516 16.92180061340332 92.32650756835938 16.92180061340332 92.32650756835938 L 16.92540168762207 95.64121246337891 C 17.36042976379395 99.25932312011719 13.31101512908936 101.5548477172852 9.430357933044434 101.5551376342773 C 8.373476028442383 101.5552139282227 7.329788684844971 101.3850555419922 6.391800880432129 101.0249938964844 C 2.008800745010376 99.34290313720703 3.357000827789307 97.26570129394531 2.908800840377808 92.81610870361328 L 2.70180082321167 86.86801147460938 C 2.70180082321167 86.86801147460938 3.32550835609436 68.75099945068359 8.792093276977539 59.73119735717773 C 9.737493515014648 58.17141342163086 10.7682933807373 56.89235305786133 11.83389282226563 55.82358169555664 C 10.93786239624023 54.3193359375 10.29940032958984 52.86553573608398 10.0890007019043 51.5691032409668 C 8.981093406677246 44.74799728393555 3.563108444213867 8.556304931640625 3.563108444213867 8.556304931640625 C 2.667600631713867 3.948305130004883 3.651308536529541 0.08099733293056488 8.259292602539063 -0.8144949674606323 C 8.897730827331543 -0.9386910200119019 9.572567939758301 -0.9993288516998291 10.26328277587891 -0.9993288516998291 C 14.55788230895996 -0.9993288516998291 19.47856521606445 1.343142509460449 20.25 5.312705039978027 C 20.25 5.312705039978027 23.14350891113281 29.84384346008301 24.75112342834473 42.1016731262207 C 25.5217399597168 30.43576622009277 25.2692928314209 3.644104957580566 25.2692928314209 3.644104957580566 C 26.47358512878418 0.5061295628547668 30.30557441711426 -1.027071118354797 33.99324035644531 -1.027071118354797 C 35.45636367797852 -1.027071118354797 36.89633560180664 -0.7858716249465942 38.14110946655273 -0.307802677154541 C 42.52320098876953 1.374305009841919 41.13899993896484 9.736197471618652 41.13899993896484 9.736197471618652 C 41.13899993896484 9.736197471618652 41.20109176635742 46.26450347900391 38.9258918762207 52.78950500488281 C 38.01167678833008 55.41239547729492 35.87120056152344 56.93244171142578 33.27298355102539 58.39475250244141 C 34.70967864990234 60.32084274291992 35.97638702392578 62.54008865356445 36.66509246826172 65.19330596923828 C 38.84759902954102 73.60381317138672 39.15629196166992 91.74599456787109 39.15629196166992 91.74599456787109 L 39.3939094543457 98.56710815429688 C 40.29030990600586 103.1751022338867 37.28070831298828 107.6364135742188 32.67269134521484 108.5328140258789 C 32.10446166992188 108.6432113647461 31.55220031738281 108.696533203125 31.01935386657715 108.6965484619141 Z"/>
    </g>
  </g>
</svg>
