<svg xmlns="http://www.w3.org/2000/svg" width="77.209" height="185.802" viewBox="0 0 77.209 185.802">
  <defs>
    <style>
      .cls-1 {
        fill: #fff;
        stroke-linecap: round;
        stroke-linejoin: round;
      }

      .cls-2, .cls-3 {
        stroke: none;
      }

      .cls-3 {
        fill: #9a9a9a;
      }
    </style>
  </defs>
  <g id="ch7-1" class="cls-1" transform="translate(-2.333 -93.215)">
    <path class="cls-2" d="M 26.69394874572754 278.0174560546875 C 21.99228286743164 278.0174560546875 17.84252166748047 277.1161804199219 14.35997295379639 275.3386535644531 C 11.58973503112793 273.9246826171875 9.225163459777832 271.9515686035156 7.331949234008789 269.4739990234375 C 4.491228103637695 265.7565307617188 3.557751655578613 261.9787292480469 3.361923694610596 261.0517883300781 C 4.10761833190918 258.5753784179688 10.48284912109375 237.2937622070313 16.35768699645996 214.2153167724609 C 20.01309204101563 199.8555603027344 22.76333045959473 187.616455078125 24.53202056884766 177.8379821777344 C 26.76049613952637 165.5175323486328 27.42978286743164 157.0277252197266 26.52130699157715 152.6043853759766 C 24.49175834655762 142.7225952148438 21.4493293762207 136.5246429443359 19.25444984436035 133.0652618408203 C 17.82353401184082 130.8099975585938 16.55137825012207 129.3780670166016 15.73000049591064 128.5693664550781 L 58.28128814697266 94.52838897705078 C 58.8482551574707 95.06553649902344 59.78399276733398 96.00312042236328 60.94209289550781 97.35302734375 C 62.72609329223633 99.43247985839844 65.41794586181641 102.9440078735352 68.11100006103516 107.8638381958008 C 71.13796997070313 113.3937454223633 73.54997253417969 119.5403137207031 75.28002166748047 126.1328887939453 C 77.44435119628906 134.3803405761719 78.54175567626953 143.3543395996094 78.54175567626953 152.8055725097656 C 78.54175567626953 162.3172607421875 77.43111419677734 173.9016265869141 75.24066162109375 187.2368927001953 C 73.48523712158203 197.9236907958984 71.03688049316406 209.7481689453125 67.96356964111328 222.3817901611328 C 62.89276885986328 243.2265930175781 57.75705337524414 259.4755554199219 57.38986968994141 260.6305236816406 C 57.15325164794922 261.115234375 55.13637161254883 265.0879211425781 50.77611541748047 269.0735168457031 C 48.068115234375 271.5488586425781 44.99580764770508 273.5475158691406 41.6445198059082 275.0140686035156 C 37.45347213745117 276.8480529785156 32.80540084838867 277.8528137207031 27.82940101623535 278.0004272460938 C 27.44906806945801 278.01171875 27.06704521179199 278.0174560546875 26.69394874572754 278.0174560546875 Z"/>
    <path class="cls-3" d="M 58.21472930908203 95.86227416992188 L 17.20843505859375 128.6672515869141 C 18.00891494750977 129.5543518066406 19.0099983215332 130.8134307861328 20.09882736206055 132.5295257568359 C 23.3565788269043 137.6640472412109 25.84697723388672 144.3505249023438 27.5008544921875 152.4031982421875 C 29.16712951660156 160.5162200927734 25.74407958984375 181.3958282470703 17.32677459716797 214.4620056152344 C 11.61125946044922 236.9145355224609 5.422164916992188 257.6691589355469 4.394798278808594 261.0894775390625 C 4.666328430175781 262.2468566894531 5.626609802246094 265.6240234375 8.178680419921875 268.934814453125 C 9.983001708984375 271.2756042480469 12.23242950439453 273.1390380859375 14.86442565917969 274.4733276367188 C 18.19445419311523 276.1614685058594 22.17447662353516 277.0174560546875 26.69395446777344 277.0174560546875 C 27.05695343017578 277.0174560546875 27.42902755737305 277.0118713378906 27.79977798461914 277.0008850097656 C 32.62625122070313 276.8576965332031 37.1317024230957 275.8887329101563 41.19097900390625 274.1209106445313 C 44.43500137329102 272.7081604003906 47.41100311279297 270.7815856933594 50.03632736206055 268.394775390625 C 54.1650390625 264.6411743164063 56.14205169677734 260.8907470703125 56.45944595336914 260.2563781738281 C 56.97276306152344 258.6375122070313 62.00926208496094 242.6255798339844 66.98838043212891 222.1598052978516 C 70.05662536621094 209.5483551025391 72.50065612792969 197.7467498779297 74.25257873535156 187.0827484130859 C 76.43510437011719 173.7975311279297 77.54175567626953 162.2650299072266 77.54175567626953 152.8055725097656 C 77.54175567626953 143.4705505371094 76.46237945556641 134.6087799072266 74.33362579345703 126.4663696289063 C 72.63345336914063 119.9632720947266 70.263427734375 113.9002380371094 67.28932952880859 108.4456176757813 C 64.64345550537109 103.5929565429688 61.99840545654297 100.1286315917969 60.24540328979492 98.076904296875 C 59.44328308105469 97.13809204101563 58.74960327148438 96.4012451171875 58.21472930908203 95.86227416992188 M 58.3216552734375 93.2154541015625 C 58.3216552734375 93.2154541015625 79.54175567626953 110.8594360351563 79.54175567626953 152.8055725097656 C 79.54175567626953 194.7516937255859 58.3216552734375 261 58.3216552734375 261 C 58.3216552734375 261 50.33300018310547 278.333251953125 27.85907745361328 279 C 27.46540069580078 279.0116882324219 27.0757942199707 279.0174560546875 26.69394683837891 279.0174560546875 C 5.277252197265625 279.0174560546875 2.333000183105469 261 2.333000183105469 261 C 2.333000183105469 261 29.41162872314453 171.6477813720703 25.54175186157227 152.8055725097656 C 21.67187881469727 133.96337890625 14.18077850341797 128.5281066894531 14.18077850341797 128.5281066894531 L 58.3216552734375 93.2154541015625 Z"/>
  </g>
</svg>
