<svg xmlns="http://www.w3.org/2000/svg" width="90.441" height="112.685" viewBox="0 0 90.441 112.685">
  <defs>
    <style>
      .cls-1 {
        fill: #fff;
      }

      .cls-2, .cls-3 {
        stroke: none;
      }

      .cls-3 {
        fill: #707070;
      }
    </style>
  </defs>
  <g id="ch7" transform="translate(-373.721 -345.945)">
    <g id="ch6-1" class="cls-1" transform="matrix(-0.999, -0.035, 0.035, -0.999, 419.917, 452.452)">
      <path class="cls-2" d="M 6.618887424468994 104.4652404785156 L 6.618758678436279 104.4652404785156 C 5.594987392425537 104.465217590332 4.60623025894165 104.2933731079102 3.759387493133545 103.9683151245117 C 2.307501792907715 103.411003112793 1.486830353736877 102.806755065918 1.098430275917053 102.0090866088867 C 0.7264017462730408 101.2450256347656 0.7208731770515442 100.2607574462891 0.7138874530792236 99.01462554931641 C 0.7092826366424561 98.19393157958984 0.7040650844573975 97.26427459716797 0.5972423553466797 96.19272613525391 L 0.391613095998764 90.30959320068359 C 0.4805305600166321 89.76309204101563 1.334406137466431 84.59322357177734 2.779315948486328 78.49554443359375 C 4.784787654876709 70.03230285644531 7.01183032989502 63.63330078125 9.219701766967773 59.9903564453125 C 10.07787322998047 58.57448577880859 11.07654476165771 57.29134368896484 12.18797302246094 56.17660140991211 L 12.46227359771729 55.90147018432617 L 12.26345920562744 55.56769943237305 C 11.33410167694092 54.00751495361328 10.76857280731201 52.63525772094727 10.58254432678223 51.48899841308594 C 9.488387107849121 44.75249862670898 4.266944408416748 5.975300312042236 4.214330196380615 5.584400177001953 L 4.212387561798096 5.569942951202393 L 4.209601879119873 5.555628776550293 C 3.748087406158447 3.183157205581665 3.833073139190674 1.236814498901367 4.462230205535889 -0.2293141037225723 C 5.149672985076904 -1.831256985664368 6.511658668518066 -2.840456962585449 8.510387420654297 -3.228885650634766 C 9.109187126159668 -3.345257043838501 9.750972747802734 -3.40425705909729 10.4179162979126 -3.40425705909729 C 12.5203161239624 -3.40425705909729 14.73060131072998 -2.821214199066162 16.48205947875977 -1.804628372192383 C 17.81245613098145 -1.032448649406433 19.48494529724121 0.3374921381473541 19.91081237792969 2.482141494750977 C 20.00625991821289 3.381222248077393 22.76957321166992 29.3919506072998 24.29543113708496 42.03337097167969 L 25.29037284851074 42.01164245605469 C 26.21246910095215 29.97387504577637 26.53099632263184 1.450418710708618 26.56304740905762 -1.637814402580261 C 27.71927452087402 -2.369904041290283 33.16027450561523 -5.677942752838135 37.04971694946289 -5.677942752838135 C 37.69892883300781 -5.677942752838135 38.2738151550293 -5.583628177642822 38.75841522216797 -5.397614002227783 C 42.70934295654297 -3.881328344345093 41.45531463623047 4.018457412719727 41.44218826293945 4.098071575164795 L 41.43624496459961 4.134142875671387 L 41.43557357788086 4.170871734619141 C 41.42824554443359 4.590928554534912 40.67680358886719 46.24951553344727 38.45377349853516 52.62487030029297 C 37.63041687011719 54.98712921142578 35.76718902587891 56.41722869873047 33.02775955200195 57.95901489257813 L 32.53223037719727 58.23789978027344 L 32.87220001220703 58.69369888305664 C 34.5123176574707 60.89248657226563 35.59467315673828 63.05962753295898 36.18114471435547 65.31893157958984 C 38.25151824951172 73.29735565185547 44.48237991333008 85.55165863037109 45.11709594726563 86.78931427001953 L 45.35080337524414 93.49771118164063 L 45.3521728515625 93.53708648681641 L 45.35970306396484 93.57577514648438 C 45.76773071289063 95.67327117919922 45.33440017700195 97.80411529541016 44.1395149230957 99.57575988769531 C 42.94466018676758 101.3473892211914 41.1314582824707 102.5475540161133 39.03391647338867 102.9551849365234 C 38.50620269775391 103.0577392578125 37.98198699951172 103.1097564697266 37.47584533691406 103.1097869873047 C 35.76108932495117 103.1099166870117 34.21062850952148 102.5152130126953 32.99207305908203 101.3899993896484 C 31.78618049621582 100.2764663696289 30.9528923034668 98.69588470458984 30.58081245422363 96.81703186035156 L 30.36080169677734 90.53870391845703 L 30.35877227783203 90.48082733154297 L 30.34355926513672 90.42495727539063 L 24.63215827941895 69.43154144287109 L 24.59204483032227 69.28404235839844 L 24.47627258300781 69.18418884277344 C 24.46615982055664 69.17546081542969 23.44685935974121 68.29470062255859 21.98185920715332 66.90385437011719 L 21.5578441619873 66.50129699707031 L 21.22595977783203 66.98265838623047 C 21.06215858459473 67.22023010253906 20.90073013305664 67.46572875976563 20.74614524841309 67.71235656738281 C 18.38288688659668 71.48313140869141 16.46367263793945 77.34267425537109 15.04180145263672 85.12824249267578 C 13.98654460906982 90.90641784667969 13.61530208587646 95.65108489990234 13.61167335510254 95.69834136962891 L 13.61018753051758 95.71771240234375 L 13.61020183563232 95.73714447021484 L 13.61380195617676 99.05184173583984 L 13.61383056640625 99.08151245117188 L 13.6173734664917 99.11098480224609 C 13.75115871429443 100.2236251831055 13.42063045501709 101.2369155883789 12.63498783111572 102.122673034668 C 11.37278747558594 103.5457305908203 9.011330604553223 104.4652404785156 6.618887424468994 104.4652404785156 Z"/>
      <path class="cls-3" d="M 6.61890172958374 103.9652481079102 C 8.874732971191406 103.9652481079102 11.08936309814453 103.1117706298828 12.2609167098999 101.7909088134766 C 12.94756317138672 101.0167694091797 13.23691749572754 100.1352005004883 13.12094783782959 99.17067718505859 L 13.11385536193848 99.11175537109375 L 13.11379432678223 99.05239868164063 L 13.11019420623779 95.73769378662109 L 13.11014747619629 95.69881439208984 L 13.11313247680664 95.66007995605469 C 13.11677837371826 95.61255645751953 13.49005603790283 90.84191131591797 14.5499324798584 85.03841400146484 C 15.98324012756348 77.19021606445313 17.92539405822754 71.27155303955078 20.32248687744141 67.44681549072266 C 20.48093223571777 67.19401550292969 20.64640998840332 66.94235229492188 20.81431770324707 66.69884490966797 L 21.47807121276855 65.73615264892578 L 22.32610130310059 66.54124450683594 C 23.7809009552002 67.92241668701172 24.79282569885254 68.79692077636719 24.80288696289063 68.80560302734375 L 25.03437805175781 69.00534057617188 L 25.1146240234375 69.30029296875 L 30.82602500915527 90.29369354248047 L 30.85642433166504 90.40543365478516 L 30.86048698425293 90.52118682861328 L 31.07906913757324 96.75876617431641 C 31.43410301208496 98.51594543457031 32.21191787719727 99.98903656005859 33.33127212524414 101.0226745605469 C 34.45582580566406 102.0610961914063 35.88897705078125 102.6099090576172 37.47578048706055 102.6098022460938 C 37.95005416870117 102.6097564697266 38.44219589233398 102.5608291625977 38.93853378295898 102.4643707275391 C 40.90494918823242 102.0822143554688 42.60480880737305 100.9570770263672 43.72499465942383 99.29618835449219 C 44.84518051147461 97.63527679443359 45.25142669677734 95.63764953613281 44.86890029907227 93.6712646484375 L 44.85385513305664 93.59389495849609 L 44.85110092163086 93.51512145996094 L 44.62130355834961 86.9188232421875 C 43.72644805908203 85.17463684082031 37.76061630249023 73.39620208740234 35.69717788696289 65.44454193115234 C 35.12728500366211 63.24906158447266 34.0721321105957 61.13862991333008 32.47140884399414 58.99264526367188 L 31.79144096374512 58.08106231689453 L 32.78251647949219 57.52327728271484 C 35.42025375366211 56.03873825073242 37.2100715637207 54.67396926879883 37.98165512084961 52.46026229858398 C 38.60805511474609 50.66381454467773 39.51607131958008 44.61493682861328 40.28461074829102 25.9998779296875 C 40.746826171875 14.80426216125488 40.9338264465332 4.267277240753174 40.9356575012207 4.162154197692871 L 40.93703842163086 4.088692665100098 L 40.94882583618164 4.016907691955566 C 40.95210266113281 3.996907949447632 41.27481079101563 1.992230892181396 41.08088684082031 -0.1592613607645035 C 40.97199249267578 -1.367538332939148 40.72465515136719 -2.380153656005859 40.34576416015625 -3.168984413146973 C 39.9162712097168 -4.063153743743896 39.33845520019531 -4.639445781707764 38.5792236328125 -4.93081521987915 C 38.15205383300781 -5.094799995422363 37.63745498657227 -5.177938461303711 37.04971694946289 -5.177938461303711 C 33.50398635864258 -5.177938461303711 28.55139923095703 -2.283736228942871 27.06012725830078 -1.35927677154541 C 27.014892578125 2.851464748382568 26.68950653076172 30.2929630279541 25.78890228271484 42.04984664916992 L 23.79902458190918 42.09329223632813 C 22.28368377685547 29.53902626037598 19.54861259460449 3.806360483169556 19.41606903076172 2.558041572570801 C 19.01941108703613 0.6086418032646179 17.46762084960938 -0.654462993144989 16.23107147216797 -1.3721843957901 C 14.55359363555908 -2.345830678939819 12.43477821350098 -2.904246091842651 10.41791725158691 -2.904246091842651 C 9.782901763916016 -2.904246091842651 9.173209190368652 -2.84833836555481 8.60576343536377 -2.738061428070068 C 6.753686428070068 -2.378138303756714 5.548624992370605 -1.493015170097351 4.921717166900635 -0.03213828429579735 C 4.332855701446533 1.340107917785645 4.258394241333008 3.187984704971313 4.700394153594971 5.460154056549072 L 4.705963134765625 5.488800048828125 L 4.709855556488037 5.517707824707031 C 4.762455463409424 5.908554077148438 9.982994079589844 44.67897033691406 11.07608604431152 51.40889358520508 C 11.25197887420654 52.49280166625977 11.79599380493164 53.80592346191406 12.69300937652588 55.31183242797852 L 13.09065532684326 55.97938537597656 L 12.54203987121582 56.52964782714844 C 11.45876312255859 57.61613845825195 10.48482513427734 58.86769104003906 9.64730167388916 60.24950790405273 C 7.466732501983643 63.84741592407227 5.26060962677002 70.19430541992188 3.267455577850342 78.60406494140625 C 1.860652327537537 84.53973388671875 1.015214204788208 89.59566497802734 0.89301598072052 90.34150695800781 L 1.096359252929688 96.15901947021484 C 1.203974485397339 97.24707794189453 1.209240555763245 98.18412017822266 1.213871002197266 99.01181793212891 C 1.220501780509949 100.1943664550781 1.2257479429245 101.1284332275391 1.547978639602661 101.7901992797852 C 1.769255638122559 102.2446594238281 2.240963220596313 102.8498916625977 3.938547849655151 103.5015258789063 C 4.728824615478516 103.8048629760742 5.655640125274658 103.965217590332 6.618747711181641 103.9652481079102 L 6.61890172958374 103.9652481079102 M 6.618904113769531 104.9652481079102 C 6.618667125701904 104.9652481079102 6.618984699249268 104.9652481079102 6.618747711181641 104.9652481079102 C 5.562178611755371 104.965217590332 4.517917156219482 104.7950439453125 3.580193996429443 104.4351043701172 C -0.8018982410430908 102.7530136108398 0.5453940629959106 100.6757965087891 0.09810175746679306 96.22620391845703 L -0.1098059341311455 90.27810668945313 C -0.1098059341311455 90.27810668945313 3.325501680374146 68.75099945068359 8.792101860046387 59.731201171875 C 9.737502098083496 58.17141723632813 10.76828670501709 56.89235305786133 11.83388614654541 55.82358551025391 C 10.93785572052002 54.31933975219727 10.29939365386963 52.86553955078125 10.08899402618408 51.569091796875 C 8.981101989746094 44.74800109863281 3.718794107437134 5.651107788085938 3.718794107437134 5.651107788085938 C 2.822409391403198 1.043107867240906 3.80700945854187 -2.824199914932251 8.414994239807129 -3.719692230224609 C 9.053150177001953 -3.843709945678711 9.727523803710938 -3.904250860214233 10.41791915893555 -3.904250860214233 C 14.71273422241211 -3.904250860214233 19.63421249389648 -1.562335848808289 20.40570259094238 2.40750789642334 C 20.40570259094238 2.40750789642334 23.22937774658203 29.02896881103516 24.79182434082031 41.97346115112305 C 25.77240943908691 29.17241477966309 26.06579399108887 -1.912492156028748 26.06579399108887 -1.912492156028748 C 26.06579399108887 -1.912492156028748 32.49332427978516 -6.17794132232666 37.04972076416016 -6.17794132232666 C 37.730224609375 -6.17794132232666 38.36816787719727 -6.082977294921875 38.93759536743164 -5.864399909973145 C 43.32061004638672 -4.182291984558105 41.93550109863281 4.179600238800049 41.93550109863281 4.179600238800049 C 41.93550109863281 4.179600238800049 41.20110321044922 46.26449203491211 38.9259033203125 52.78950881958008 C 38.01168823242188 55.41239929199219 35.87119293212891 56.93244552612305 33.27297973632813 58.39473724365234 C 34.70968627929688 60.32084655761719 35.97639465332031 62.54009246826172 36.66510009765625 65.19329071044922 C 38.84761047363281 73.60379791259766 45.6129035949707 86.66011047363281 45.6129035949707 86.66011047363281 L 45.85050201416016 93.48030853271484 C 46.74690246582031 98.08831024169922 43.73730087280273 102.5505065917969 39.12930297851563 103.4459991455078 C 38.56117630004883 103.5564117431641 38.0086555480957 103.6097564697266 37.47586441040039 103.6097946166992 C 33.68725204467773 103.6100692749023 30.86758804321289 100.9148712158203 30.0825023651123 96.87419891357422 L 29.8611011505127 90.55619812011719 L 24.14970207214355 69.56279754638672 C 24.14970207214355 69.56279754638672 23.1298713684082 68.68321228027344 21.63759422302246 67.2664794921875 C 21.47860908508301 67.49706268310547 21.32273292541504 67.73390960693359 21.1697940826416 67.9779052734375 C 15.55290222167969 76.94010925292969 14.11019420623779 95.73660278320313 14.11019420623779 95.73660278320313 L 14.11379432678223 99.05130767822266 C 14.54882907867432 102.6694869995117 10.49962615966797 104.9652481079102 6.618904113769531 104.9652481079102 Z"/>
    </g>
    <g id="ch6-2" class="cls-1" transform="matrix(-0.999, -0.035, 0.035, -0.999, 460.917, 452.452)">
      <path class="cls-2" d="M 32.52709197998047 103.9557571411133 C 30.81239318847656 103.9558181762695 29.26180839538574 103.3610000610352 28.04296493530273 102.2356185913086 C 26.83686065673828 101.1220169067383 26.00326728820801 99.54156494140625 25.63080406188965 97.6629638671875 L 25.41170692443848 91.38475799560547 L 24.71340751647949 71.37917327880859 L 24.66717910766602 70.05471801757813 L 23.82702255249023 71.07964324951172 C 22.20043563842773 73.06394195556641 20.90005111694336 74.84165954589844 19.8515510559082 76.51434326171875 C 15.27046489715576 83.82456970214844 14.74570751190186 88.20438385009766 14.49352169036865 90.30921173095703 C 14.43705081939697 90.78055572509766 14.39243602752686 91.15285491943359 14.3228645324707 91.37300109863281 C 13.87459373474121 92.79405975341797 13.91442203521729 94.77950286865234 13.91633605957031 94.86331176757813 L 13.91689300537109 94.88754272460938 L 13.91977882385254 94.91158294677734 C 14.0535364151001 96.02407073974609 13.72307872772217 97.03721618652344 12.93759346008301 97.92288970947266 C 11.67543601989746 99.34598541259766 9.313821792602539 100.2656555175781 6.921107769012451 100.2658462524414 C 5.897636413574219 100.2659149169922 4.908893585205078 100.0940856933594 4.061793327331543 99.76891326904297 C 2.609907627105713 99.21158599853516 1.789236187934875 98.60734558105469 1.400836229324341 97.80966949462891 C 1.028793334960938 97.04561614990234 1.023279070854187 96.06134033203125 1.016279101371765 94.81521606445313 C 1.011690378189087 93.99739837646484 1.006490707397461 93.07133483886719 0.9007485508918762 92.00453186035156 C 0.9057591557502747 91.57441711425781 0.9904358386993408 85.97301483154297 1.976207613945007 82.17037200927734 C 2.202322006225586 81.29868316650391 2.414836168289185 80.19740295410156 2.660893440246582 78.92221832275391 C 3.575164794921875 74.1842041015625 4.956807613372803 67.02405548095703 9.219693183898926 59.9903564453125 C 10.07787895202637 58.57447052001953 11.07656478881836 57.29132843017578 12.18797874450684 56.17660140991211 L 12.46227931976318 55.90147399902344 L 12.26346492767334 55.56769943237305 C 11.33410739898682 54.00751495361328 10.76857948303223 52.63525772094727 10.58255004882813 51.4890022277832 C 9.489278793334961 44.75798797607422 4.958850383758545 4.283672332763672 4.913207530975342 3.875629425048828 L 4.910964965820313 3.855600833892822 L 4.907122135162354 3.835815191268921 C 4.446050643920898 1.463215231895447 4.531293392181396 -0.4831418991088867 5.160507678985596 -1.949184775352478 C 5.84806489944458 -3.551156282424927 7.210107803344727 -4.560370445251465 9.208793640136719 -4.948784828186035 C 9.80759334564209 -5.065155982971191 10.44937896728516 -5.12415599822998 11.1163215637207 -5.12415599822998 C 13.21872234344482 -5.12415599822998 15.4290075302124 -4.541113376617432 17.18046569824219 -3.524527549743652 C 18.50988388061523 -2.752915382385254 20.18087768554688 -1.384499073028564 20.60826110839844 0.7574365735054016 C 20.69486427307129 1.764432668685913 23.00236129760742 28.56448936462402 24.35249328613281 41.67779922485352 L 25.34827995300293 41.66638565063477 C 26.32229614257813 29.46958541870117 26.78689193725586 1.68566882610321 26.81629180908203 -0.1262628883123398 C 27.34626388549805 -1.438145518302917 28.43524360656738 -2.530495166778564 29.97116470336914 -3.289313316345215 C 31.41630744934082 -4.003299236297607 33.21780776977539 -4.396499156951904 35.04380798339844 -4.396499156951904 C 36.47109222412109 -4.396499156951904 37.84303665161133 -4.159456253051758 39.01132202148438 -3.711013317108154 C 42.96142196655273 -2.19474196434021 41.70820617675781 5.706000804901123 41.69509506225586 5.785629749298096 L 41.68943786621094 5.819943904876709 L 41.68854904174805 5.854886531829834 C 41.67870712280273 6.258072376251221 40.6773796081543 46.24784469604492 38.45376586914063 52.62487411499023 C 37.81000900268555 54.47185897827148 36.37675094604492 56.68775939941406 33.94316482543945 59.59851455688477 L 33.70872116088867 59.87892913818359 L 33.90476608276367 60.18741607666016 C 34.97897720336914 61.87771606445313 35.72357940673828 63.55624389648438 36.18115234375 65.31893157958984 C 38.28925323486328 73.44271850585938 40.07914733886719 86.89659881591797 40.1649284362793 87.54656982421875 L 40.40170669555664 94.34370422363281 L 40.40307998657227 94.38308715820313 L 40.41060638427734 94.42177581787109 C 40.81862258911133 96.51920318603516 40.38529205322266 98.64990234375 39.19043731689453 100.4214172363281 C 37.99563598632813 102.1928405761719 36.18239212036133 103.3931427001953 34.08473587036133 103.8012008666992 C 33.55713653564453 103.9037475585938 33.03303527832031 103.9557418823242 32.52709197998047 103.9557571411133 Z"/>
      <path class="cls-3" d="M 32.52707290649414 103.4557571411133 C 33.00110626220703 103.4557418823242 33.49310302734375 103.4068298339844 33.98924255371094 103.3104019165039 C 35.95582580566406 102.9278335571289 37.65576553344727 101.8025588989258 38.77590560913086 100.1418304443359 C 39.89605712890625 98.48106384277344 40.30230331420898 96.48355865478516 39.91979598999023 94.51726531982422 L 39.90475082397461 94.43989562988281 L 39.90199661254883 94.36112213134766 L 39.66606903076172 87.58808135986328 C 39.5477409362793 86.69436645507813 37.77666091918945 73.45806121826172 35.69718170166016 65.44454193115234 C 35.2529182434082 63.73309326171875 34.52857971191406 62.1011848449707 33.48278045654297 60.45558547973633 L 33.09069061279297 59.83861923217773 L 33.5595817565918 59.27780151367188 C 35.95321273803711 56.41484832763672 37.35833358764648 54.24855422973633 37.98165893554688 52.46024703979492 C 38.60862731933594 50.66220092773438 39.53908920288086 44.75714111328125 40.4113655090332 26.83633995056152 C 40.93598175048828 16.05795669555664 41.18622589111328 5.943571090698242 41.18869018554688 5.842663764953613 L 41.19050598144531 5.77277135848999 L 41.20170593261719 5.704524993896484 C 41.20498275756836 5.684525012969971 41.52747344970703 3.67958664894104 41.33344268798828 1.527832865715027 C 41.2244873046875 0.3193866610527039 40.97713470458984 -0.6933825612068176 40.59825897216797 -1.482305645942688 C 40.16879653930664 -2.376567125320435 39.59110260009766 -2.952890157699585 38.83214950561523 -3.244213342666626 C 37.72044372558594 -3.670951843261719 36.41044235229492 -3.89650559425354 35.04379653930664 -3.89650559425354 C 33.29312133789063 -3.89650559425354 31.57027435302734 -3.521674871444702 30.192626953125 -2.841044187545776 C 29.21415519714355 -2.35762619972229 27.93747329711914 -1.480639100074768 27.31464958190918 -0.0226982906460762 C 27.27314949035645 2.50121021270752 26.80771446228027 29.67194366455078 25.84668922424316 41.7061882019043 L 23.8551197052002 41.72900390625 C 22.51518058776855 28.7147102355957 20.23294258117676 2.227912425994873 20.1125431060791 0.8287129402160645 C 19.71283721923828 -1.115382432937622 18.16404724121094 -2.375515699386597 16.92945861816406 -3.092090368270874 C 15.25198173522949 -4.065736293792725 13.13316631317139 -4.624151706695557 11.11630439758301 -4.624151706695557 C 10.48130416870117 -4.624151706695557 9.871611595153809 -4.568243980407715 9.304165840148926 -4.457967281341553 C 7.452104568481445 -4.098043918609619 6.246996879577637 -3.212905645370483 5.61996603012085 -1.751982569694519 C 5.03104305267334 -0.3798133432865143 4.956335067749023 1.468109726905823 5.397934913635254 3.740432739257813 L 5.405627250671387 3.780002117156982 L 5.410104274749756 3.820063591003418 C 5.455735206604004 4.227986812591553 9.984766006469727 44.68991088867188 11.07608890533447 51.40889358520508 C 11.25198173522949 52.4927864074707 11.79599666595459 53.805908203125 12.69301223754883 55.31181716918945 L 13.09065818786621 55.9793701171875 L 12.54204273223877 56.52961730957031 C 11.45876598358154 57.61614227294922 10.48482704162598 58.86771011352539 9.647304534912109 60.24950790405273 C 5.430811882019043 67.20664978027344 4.059365749359131 74.31388092041016 3.151842832565308 79.01689147949219 C 2.904165983200073 80.3004150390625 2.690258264541626 81.40892791748047 2.460196733474731 82.29582977294922 C 1.505980849266052 85.97679138183594 1.408789396286011 91.39906311035156 1.401062488555908 91.98301696777344 C 1.506459832191467 93.06114959716797 1.51167631149292 93.99063873291016 1.516273617744446 94.81241607666016 C 1.522904396057129 95.99497222900391 1.52815055847168 96.92903137207031 1.850381255149841 97.59078979492188 C 2.071658134460449 98.04526519775391 2.543365955352783 98.65049743652344 4.240950584411621 99.3021240234375 C 5.031473636627197 99.60556793212891 5.958242893218994 99.76592254638672 6.921058177947998 99.76584625244141 C 9.177196502685547 99.76566314697266 11.39199638366699 98.91203308105469 12.56351947784424 97.59109497070313 C 13.25001239776611 96.81706237792969 13.53930473327637 95.93563079833984 13.42335033416748 94.97129058837891 L 13.41756629943848 94.92318725585938 L 13.41645812988281 94.87474060058594 C 13.41445827484131 94.78754425048828 13.37310409545898 92.72175598144531 13.84610462188721 91.22231292724609 C 13.90156555175781 91.04684448242188 13.94582748413086 90.67742919921875 13.99707317352295 90.24969482421875 C 14.25359630584717 88.10878753662109 14.78735065460205 83.65387725830078 19.42790412902832 76.24877166748047 C 20.48764228820801 74.55814361572266 21.80011940002441 72.76361846923828 23.44033432006836 70.76266479492188 L 25.12062835693359 68.71279907226563 L 25.21308898925781 71.36174011230469 L 25.91138076782227 91.36732482910156 L 26.12907409667969 97.60469818115234 C 26.48451614379883 99.36151885986328 27.26263809204102 100.834602355957 28.38215065002441 101.8682632446289 C 29.50701141357422 102.9068603515625 30.94030380249023 103.4558029174805 32.52707290649414 103.4557571411133 M 32.52710342407227 104.4557571411133 C 28.73848915100098 104.4558792114258 25.91838073730469 101.7600784301758 25.13250350952148 97.72019958496094 L 24.91199684143066 91.40219879150391 L 24.21370506286621 71.39661407470703 C 22.76504325866699 73.16389465332031 21.41459655761719 74.96218872070313 20.27519607543945 76.77989196777344 C 14.65830421447754 85.74300384521484 15.22890472412109 90.16560363769531 14.79959678649902 91.52371215820313 C 14.37119674682617 92.88180541992188 14.41619682312012 94.85191345214844 14.41619682312012 94.85191345214844 C 14.85122585296631 98.47002410888672 10.80180168151855 100.7655487060547 6.921141147613525 100.7658462524414 C 5.864258289337158 100.7659225463867 4.820588111877441 100.5957641601563 3.882596731185913 100.235710144043 C -0.4994956254959106 98.55360412597656 0.8477966785430908 96.47640228271484 0.4005043804645538 92.02680206298828 C 0.4005043804645538 92.02680206298828 0.44370436668396 86.08950805664063 1.492196679115295 82.04489135742188 C 2.541596651077271 77.99940490722656 3.325504302978516 68.75099945068359 8.792104721069336 59.731201171875 C 9.737504005432129 58.17141723632813 10.76828861236572 56.89235687255859 11.83388900756836 55.82357025146484 C 10.93785858154297 54.3193244934082 10.29939651489258 52.86553955078125 10.08899688720703 51.56909561157227 C 8.981103897094727 44.74800109863281 4.416304588317871 3.931201934814453 4.416304588317871 3.931201934814453 C 3.520796775817871 -0.6767979860305786 4.505396842956543 -4.544105529785156 9.113396644592285 -5.439598083496094 C 9.751552581787109 -5.563613414764404 10.42590808868408 -5.624151706695557 11.11630344390869 -5.624151706695557 C 15.41111850738525 -5.624151706695557 20.33261489868164 -3.282241821289063 21.10410499572754 0.6876020431518555 C 21.10410499572754 0.6876020431518555 23.46527290344238 28.17860221862793 24.84985733032227 41.6265869140625 C 25.86219596862793 28.94986343383789 26.31779670715332 -0.224997952580452 26.31779670715332 -0.224997952580452 C 27.52283096313477 -3.363240957260132 31.35579109191895 -4.896501541137695 35.04380035400391 -4.896501541137695 C 36.50661468505859 -4.896501541137695 37.94599914550781 -4.655510902404785 39.19050598144531 -4.177797794342041 C 43.57259750366211 -2.495705604553223 42.18839645385742 5.86709451675415 42.18839645385742 5.86709451675415 C 42.18839645385742 5.86709451675415 41.20110321044922 46.26449584960938 38.9259033203125 52.78949356079102 C 38.16770553588867 54.96477127075195 36.46599578857422 57.36054229736328 34.32676696777344 59.91921615600586 C 35.31525802612305 61.47463226318359 36.15096664428711 63.21263122558594 36.66510391235352 65.19329071044922 C 38.84759521484375 73.60380554199219 40.66379547119141 87.50520324707031 40.66379547119141 87.50520324707031 L 40.90139770507813 94.32630920410156 C 41.79779815673828 98.93431091308594 38.7881965637207 103.3955993652344 34.18019485473633 104.2919998168945 C 33.6120719909668 104.4024200439453 33.05990600585938 104.4557418823242 32.52710342407227 104.4557571411133 Z"/>
    </g>
  </g>
</svg>
