<svg xmlns="http://www.w3.org/2000/svg" width="75.826" height="210.485" viewBox="0 0 75.826 210.485">
  <defs>
    <style>
      .cls-1 {
        fill: #fff;
        stroke-linecap: round;
        stroke-linejoin: round;
      }

      .cls-2, .cls-3 {
        stroke: none;
      }

      .cls-3 {
        fill: #9a9a9a;
      }
    </style>
  </defs>
  <g id="ch8-1" class="cls-1" transform="translate(38 0.135)">
    <path class="cls-2" d="M 13.3415584564209 209.3495178222656 C 7.961363792419434 209.3495178222656 3.149446964263916 208.3624572753906 -0.9604973793029785 206.4158020019531 C -4.229275226593018 204.8675537109375 -7.069247245788574 202.7093505859375 -9.401497840881348 200.0010986328125 C -13.37113666534424 195.3915710449219 -14.49477481842041 190.7741241455078 -14.50563621520996 190.7280120849609 L -14.53441429138184 190.6061859130859 L -14.59235858917236 190.4951629638672 C -14.64844226837158 190.3876800537109 -20.26452445983887 179.5622100830078 -25.80646896362305 163.5426788330078 C -29.05841445922852 154.1426239013672 -31.64899826049805 144.8195190429688 -33.50630187988281 135.8323211669922 C -35.82455444335938 124.6146011352539 -36.99999618530273 113.8934936523438 -36.99999618530273 103.966796875 C -36.99999618530273 94.03279876708984 -35.82285690307617 83.22985076904297 -33.50127410888672 71.85807800292969 C -31.64160919189453 62.74887847900391 -29.04794120788574 53.25810241699219 -25.79232978820801 43.64937973022461 C -20.24891471862793 27.28837966918945 -14.64244174957275 16.1364631652832 -14.58644199371338 16.02574157714844 L -14.46971988677979 15.79482460021973 L -14.4796085357666 15.53626823425293 C -14.47977542877197 15.53001880645752 -14.50555324554443 14.48590755462646 -14.0741081237793 12.98615741729736 C -13.49949741363525 10.9888801574707 -12.42871952056885 9.168713569641113 -10.89155292510986 7.576212882995605 C -9.026830673217773 5.644379615783691 -6.505941867828369 4.102574348449707 -3.3989417552948 2.993574142456055 C 0.4717248380184174 1.611990928649902 5.276196956634521 0.8961575627326965 10.88100242614746 0.8659353256225586 C 11.00094699859619 0.8652964234352112 11.12361335754395 0.8649631142616272 11.24247455596924 0.8649631142616272 C 17.13139152526855 0.8649631142616272 22.14569664001465 1.654240846633911 26.14611434936523 3.210879802703857 C 29.29433631896973 4.435879707336426 31.82036399841309 6.135935306549072 33.65408706665039 8.263824462890625 C 35.2755012512207 10.14535236358643 36.05097579956055 12.02857398986816 36.4160041809082 13.27707386016846 C 36.70906448364258 14.27944183349609 36.79288101196289 15.04701042175293 36.81674194335938 15.3867015838623 C 36.10000228881836 17.03471565246582 31.49677085876465 27.81520080566406 26.95480728149414 43.04265594482422 C 22.41347503662109 58.26796340942383 17.00000190734863 81.19680023193359 17.00000190734863 103.966796875 C 17.00000190734863 126.7392959594727 22.41439056396484 149.2890777587891 26.95650291442871 164.1959686279297 C 31.49511528015137 179.0914154052734 36.09540557861328 189.5443878173828 36.81941604614258 191.1583251953125 C 36.77452850341797 192.0960998535156 36.43462753295898 196.1663055419922 33.88733673095703 200.1710205078125 C 32.20733642578125 202.8122100830078 29.89947509765625 204.9200134277344 27.02791976928711 206.4358520507813 C 23.39461326599121 208.3537750244141 18.83269691467285 209.333984375 13.46883583068848 209.3493194580078 L 13.3415584564209 209.3495178222656 Z"/>
    <path class="cls-3" d="M 11.24247455596924 1.864959716796875 C 11.12547492980957 1.864959716796875 11.00464153289795 1.86529541015625 10.88639163970947 1.865936279296875 C 5.417974948883057 1.895401000976563 0.740835964679718 2.5859375 -3.015080690383911 3.918380737304688 C -5.973525047302246 4.967910766601563 -8.367053031921387 6.417373657226563 -10.12919139862061 8.226486206054688 C -11.54799747467041 9.683135986328125 -12.54233074188232 11.34480285644531 -13.08458042144775 13.16529846191406 C -13.47526073455811 14.4769287109375 -13.48045921325684 15.41159057617188 -13.47988510131836 15.50691223144531 C -13.46218967437744 15.85380554199219 -13.53700733184814 16.16632080078125 -13.69402503967285 16.47691345214844 C -13.7496919631958 16.58702087402344 -19.32424736022949 27.67559814453125 -24.8452205657959 43.97029113769531 C -28.08746910095215 53.53958129882813 -30.67016410827637 62.98968505859375 -32.5214958190918 72.05810546875 C -34.82966232299805 83.36418151855469 -35.99999618530273 94.09982299804688 -35.99999618530273 103.966796875 C -35.99999618530273 113.8192138671875 -34.83302688598633 124.4649353027344 -32.53147125244141 135.6082153320313 C -30.68485832214355 144.5488891601563 -28.10833168029785 153.8257141113281 -24.87341499328613 163.1810150146484 C -19.35541343688965 179.1390380859375 -13.7616081237793 189.9255218505859 -13.705885887146 190.0323486328125 C -13.62756824493408 190.1824188232422 -13.57131767272949 190.3302307128906 -13.53316307067871 190.4949645996094 C -13.50054836273193 190.6258087158203 -12.35607719421387 195.1021575927734 -8.525080680847168 199.4853820800781 C -6.280997276306152 202.0529022216797 -3.555219650268555 204.0978546142578 -0.423469603061676 205.5633544921875 C 3.527252674102783 207.4121246337891 8.158474922180176 208.3495178222656 13.3415584564209 208.3495178222656 L 13.46597480773926 208.3493194580078 C 18.63972473144531 208.3345489501953 23.02755737304688 207.4026794433594 26.50755882263184 205.5796356201172 C 29.22116851806641 204.1580810546875 31.40419769287109 202.1827697753906 32.99602890014648 199.7086029052734 C 35.2840461730957 196.1523590087891 35.72308731079102 192.5184173583984 35.80670547485352 191.3427124023438 C 34.81884765625 189.1191711425781 30.37746620178223 178.8541717529297 25.99991989135742 164.4874267578125 C 21.43800354003906 149.5155181884766 16.00000190734863 126.8624038696289 16.00000190734863 103.966796875 C 16.00000190734863 81.07615661621094 21.4361686706543 58.04592895507813 25.99653053283691 42.75682067871094 C 30.37336921691895 28.08303833007813 34.81294631958008 17.509765625 35.79799270629883 15.22308349609375 C 35.75743865966797 14.85246276855469 35.65923690795898 14.22413635253906 35.42242050170898 13.44444274902344 C 34.91286468505859 11.76673889160156 34.03358459472656 10.20948791503906 32.80900192260742 8.816024780273438 C 31.07025337219238 6.837432861328125 28.67202949523926 5.2518310546875 25.68100166320801 4.103179931640625 C 21.81361389160156 2.618011474609375 16.95578002929688 1.864959716796875 11.24247455596924 1.864959716796875 M 11.24248218536377 -0.1350250244140625 C 37.82950973510742 -0.1350250244140625 37.82616806030273 15.57453918457031 37.82616806030273 15.57453918457031 C 37.82616806030273 15.57453918457031 18.00000190734863 60.12095642089844 18.00000190734863 103.966796875 C 18.00000190734863 147.8126220703125 37.82616806030273 190.9578247070313 37.82616806030273 190.9578247070313 C 37.82616806030273 190.9578247070313 37.82616806030273 210.2797393798828 13.4716968536377 210.3493194580078 C 13.4285888671875 210.3494415283203 13.38453483581543 210.3495178222656 13.34155082702637 210.3495178222656 C -10.90001201629639 210.3495178222656 -15.47888660430908 190.9578247070313 -15.47888660430908 190.9578247070313 C -15.47888660430908 190.9578247070313 -37.99999618530273 147.8126220703125 -37.99999618530273 103.966796875 C -37.99999618530273 60.12095642089844 -15.47888660430908 15.57453918457031 -15.47888660430908 15.57453918457031 C -15.47888660430908 15.57453918457031 -16.07494163513184 0.0111541748046875 10.87561416625977 -0.134033203125 C 10.99733829498291 -0.1346893310546875 11.12185478210449 -0.1350250244140625 11.24248218536377 -0.1350250244140625 Z"/>
  </g>
</svg>
