<svg xmlns="http://www.w3.org/2000/svg" width="54.007" height="210.509" viewBox="0 0 54.007 210.509">
  <defs>
    <style>
      .cls-1 {
        fill: #fff;
        stroke-linecap: round;
        stroke-linejoin: round;
      }

      .cls-2, .cls-3 {
        stroke: none;
      }

      .cls-3 {
        fill: #9a9a9a;
      }
    </style>
  </defs>
  <g id="ch8-2" class="cls-1" transform="translate(0.003 0.314)">
    <path class="cls-2" d="M 26.14377212524414 209.1955871582031 C 21.09974479675293 209.1955871582031 16.64096641540527 208.3033142089844 12.89132785797119 206.5434722900391 C 9.912161827087402 205.1452789306641 7.365689277648926 203.1958312988281 5.322633743286133 200.7493133544922 C 2.086730241775513 196.8743133544922 1.132235050201416 192.9352416992188 0.9999948143959045 192.3275299072266 L 0.9999948143959045 164.1690521240234 C 2.110762596130371 163.0365447998047 6.064175128936768 158.8450012207031 10.0672721862793 152.6531066894531 C 14.34988403320313 146.02880859375 19.4549674987793 135.8021697998047 19.4549674987793 124.7011947631836 C 19.4549674987793 113.6370010375977 14.3727445602417 101.8117523193359 10.10930061340332 93.83992004394531 C 6.060106754302979 86.26873016357422 1.955857634544373 80.63232421875 0.9999948143959045 79.3507080078125 L 0.9999948143959045 22.98930931091309 L 0.9999948143959045 22.96955871582031 L 0.9992170333862305 22.94983673095703 C 0.9985225796699524 22.93058586120605 0.931355893611908 20.84852981567383 1.610522627830505 18.00541877746582 C 2.230883598327637 15.40864181518555 3.62160587310791 11.61889171600342 6.724189281463623 8.311447143554688 C 11.22985553741455 3.508336305618286 18.06671714782715 0.9486140012741089 27.04488372802734 0.7034751176834106 C 27.46680068969727 0.691947340965271 27.88991165161133 0.6861140131950378 28.30246734619141 0.6861140131950378 C 36.45974349975586 0.6861140131950378 42.75849533081055 2.928475141525269 47.02368927001953 7.350919723510742 C 48.45207977294922 8.831974983215332 49.65457916259766 10.56655883789063 50.59780120849609 12.50650310516357 C 51.35785675048828 14.06975269317627 51.95280075073242 15.76997470855713 52.36610412597656 17.55997467041016 C 53.07524490356445 20.63119697570801 53.00152206420898 22.92908668518066 53.00069046020508 22.95194816589355 L 53.00004959106445 22.97002983093262 L 52.99999618530273 22.98930931091309 L 52.99999618530273 79.41188049316406 C 52.29516220092773 80.6165771484375 49.11539077758789 86.18228912353516 45.97969055175781 93.75494384765625 C 42.70766067504883 101.6568908691406 38.80724334716797 113.4401168823242 38.80724334716797 124.7011947631836 C 38.80724334716797 135.9826354980469 42.71802139282227 146.6638336181641 45.99874496459961 153.6376647949219 C 49.12054824829102 160.273681640625 52.20376968383789 164.8022003173828 52.99999618530273 165.9320373535156 L 52.99999618530273 192.3190307617188 C 52.85467529296875 192.9328155517578 51.84471893310547 196.7626495361328 48.49938201904297 200.5745849609375 C 46.37480163574219 202.9954681396484 43.73141098022461 204.94189453125 40.64260482788086 206.3596954345703 C 36.75457763671875 208.1443634033203 32.13910675048828 209.0961456298828 26.92441177368164 209.1886444091797 C 26.66382789611816 209.1932525634766 26.40118980407715 209.1955871582031 26.14377212524414 209.1955871582031 Z"/>
    <path class="cls-3" d="M 28.30246734619141 1.686111450195313 C 27.89860534667969 1.686111450195313 27.48468971252441 1.69183349609375 27.0721607208252 1.703079223632813 C 18.3839111328125 1.940338134765625 11.78979873657227 4.386917114257813 7.4730224609375 8.974868774414063 C 5.109298706054688 11.487060546875 3.470077514648438 14.57875061035156 2.600910186767578 18.1640625 C 1.949920654296875 20.84930419921875 1.996311187744141 22.83221435546875 1.998588562011719 22.91371154785156 C 1.999813079833984 22.94195556640625 1.999996185302734 22.960205078125 1.999996185302734 22.98927307128906 L 1.999996185302734 79.01806640625 C 3.250450134277344 80.70828247070313 7.098625183105469 86.09010314941406 10.99110412597656 93.36830902099609 C 17.27085494995117 105.1102523803711 20.4549674987793 115.6521682739258 20.4549674987793 124.7011947631836 C 20.4549674987793 136.0460815429688 15.26277160644531 146.4586639404297 10.90705108642578 153.1959991455078 C 7.151073455810547 159.0056610107422 3.426525115966797 163.0883941650391 1.999996185302734 164.5740051269531 L 1.999996185302734 192.22216796875 C 2.174301147460938 192.9880676269531 3.095645904541016 196.4898986816406 6.031246185302734 200.0373840332031 C 7.976966857910156 202.388671875 10.40885543823242 204.2640380859375 13.25935745239258 205.6114501953125 C 16.88696670532227 207.3261413574219 21.2219123840332 208.1955871582031 26.14380073547363 208.1955871582031 C 26.39557838439941 208.1955871582031 26.65224456787109 208.1933135986328 26.90666198730469 208.1887817382813 C 31.95282745361328 208.0992736816406 36.41180038452148 207.188232421875 40.15969085693359 205.4808959960938 C 43.11466217041016 204.1347808837891 45.64463424682617 202.2882537841797 47.67927169799805 199.9926147460938 C 50.76743698120117 196.5083465576172 51.79670333862305 192.9952239990234 51.99999618530273 192.1979675292969 L 51.99999618530273 166.2462768554688 C 50.96829986572266 164.7555999755859 48.04309844970703 160.3325042724609 45.0938835144043 154.0633544921875 C 41.76974487304688 146.9972534179688 37.80724334716797 136.1673278808594 37.80724334716797 124.7011947631836 C 37.80724334716797 115.528450012207 40.24599456787109 104.987922668457 45.05577087402344 93.37239074707031 C 48.08091354370117 86.06670379638672 51.07302474975586 80.73628234863281 51.99999618530273 79.13996887207031 L 51.99999618530273 22.98927307128906 C 51.99999618530273 22.96359252929688 52.00049591064453 22.9378662109375 52.00149536132813 22.91220092773438 C 52.00479888916016 22.826171875 52.26446533203125 14.24003601074219 46.31860733032227 8.060394287109375 C 42.24896621704102 3.830718994140625 36.18746948242188 1.686111450195313 28.30246734619141 1.686111450195313 M 28.30246543884277 -0.31390380859375 C 54.89892196655273 -0.31390380859375 53.99999618530273 22.98927307128906 53.99999618530273 22.98927307128906 L 53.99999618530273 79.68508911132813 C 53.99999618530273 79.68508911132813 39.80724334716797 103.2195892333984 39.80724334716797 124.7011947631836 C 39.80724334716797 146.1828308105469 53.99999618530273 165.6115570068359 53.99999618530273 165.6115570068359 L 53.99999618530273 192.4293365478516 C 53.99999618530273 192.4293365478516 50.54688262939453 209.7698059082031 26.9421329498291 210.1884765625 C 26.67416000366211 210.1932220458984 26.40656089782715 210.1956024169922 26.1437873840332 210.1956024169922 C 3.25982666015625 210.1956024169922 -3.814697265625e-06 192.4293365478516 -3.814697265625e-06 192.4293365478516 L -3.814697265625e-06 163.755859375 C -3.814697265625e-06 163.755859375 18.4549674987793 145.7188873291016 18.4549674987793 124.7011947631836 C 18.4549674987793 103.6835327148438 -3.814697265625e-06 79.68508911132813 -3.814697265625e-06 79.68508911132813 L -3.814697265625e-06 22.98927307128906 C -3.814697265625e-06 22.98927307128906 -0.8896446228027344 0.4658660888671875 27.017578125 -0.2961578369140625 C 27.45192527770996 -0.3080291748046875 27.8819751739502 -0.31390380859375 28.30246543884277 -0.31390380859375 Z"/>
  </g>
</svg>
