<svg xmlns="http://www.w3.org/2000/svg" width="86.687" height="106.682" viewBox="0 0 86.687 106.682">
  <defs>
    <style>
      .cls-1 {
        fill: #fff;
      }

      .cls-2, .cls-3 {
        stroke: none;
      }

      .cls-3 {
        fill: #707070;
      }
    </style>
  </defs>
  <g id="ch8" transform="translate(-376.319 -349.247)">
    <g id="ch8-1" class="cls-1" transform="matrix(-0.999, -0.035, 0.035, -0.999, 418.917, 452.452)">
      <path class="cls-2" d="M 8.206687927246094 101.2837524414063 L 8.206459045410156 101.2837524414063 C 7.18263053894043 101.2837219238281 6.193844795227051 101.1118774414063 5.346987724304199 100.7868194580078 C 3.894959211349487 100.2295684814453 3.074216365814209 99.62541198730469 2.685730457305908 98.827880859375 C 2.313644886016846 98.06401062011719 2.308059215545654 97.07999420166016 2.300973415374756 95.83420562744141 C 2.296311378479004 95.01316070556641 2.291030406951904 94.08315277099609 2.183934688568115 93.01102447509766 L 1.978702425956726 87.11371612548828 C 2.023116827011108 86.68883514404297 2.49936318397522 82.25987243652344 3.577130556106567 76.88509368896484 C 5.064059257507324 69.46979522705078 7.015230655670166 63.62769317626953 9.219701766967773 59.99036407470703 C 10.07787322998047 58.57446670532227 11.07654476165771 57.29133605957031 12.18795871734619 56.17660903930664 L 12.46227359771729 55.9014778137207 L 12.26345920562744 55.56770706176758 C 11.33411598205566 54.00753784179688 10.76857376098633 52.63525009155273 10.58254528045654 51.48899459838867 C 9.487801551818848 44.74887847900391 4.111773490905762 8.844165802001953 4.057587623596191 8.482279777526855 L 4.05598783493042 8.471565246582031 L 4.053916454315186 8.460922241210938 C 3.592802047729492 6.088165283203125 3.677916288375854 4.141793727874756 4.306887626647949 2.675865411758423 C 4.994216442108154 1.073922514915466 6.356087684631348 0.06472251564264297 8.354687690734863 -0.3236774802207947 C 8.953873634338379 -0.4402346312999725 9.595987319946289 -0.4993203282356262 10.26328754425049 -0.4993203282356262 C 12.36543083190918 -0.4993203282356262 14.57548809051514 0.08379394561052322 16.32680130004883 1.100508213043213 C 17.65764999389648 1.873137474060059 19.3308277130127 3.243804931640625 19.75567817687988 5.390193939208984 C 19.8515796661377 6.202640056610107 22.73816299438477 30.64336395263672 24.29986000061035 42.50525283813477 L 25.29358863830566 42.48472213745117 C 26.3080940246582 31.19378852844238 26.86044311523438 4.007169723510742 26.91879653930664 1.01151168346405 C 28.06933784484863 0.2826991379261017 33.51495742797852 -3.03040599822998 37.40782928466797 -3.03040599822998 C 38.05738830566406 -3.03040599822998 38.63260269165039 -2.93600606918335 39.11747360229492 -2.749820232391357 C 43.06755828857422 -1.233548879623413 41.81351470947266 6.666265487670898 41.80038833618164 6.745879650115967 L 41.79486083984375 6.77940845489502 L 41.79388809204102 6.813565254211426 C 41.78298950195313 7.207150936126709 40.67765808105469 46.24706649780273 38.45377349853516 52.6248779296875 C 37.63041687011719 54.98713684082031 35.76718902587891 56.417236328125 33.02775955200195 57.95902252197266 L 32.5322151184082 58.23790740966797 L 32.8722038269043 58.69370651245117 C 34.51230239868164 60.89247894287109 35.59467315673828 63.05960845947266 36.18114471435547 65.31892395019531 C 38.27569198608398 73.39049530029297 39.95014953613281 83.69472503662109 40.05268859863281 84.33086395263672 L 40.28920364379883 91.11991882324219 L 40.29057312011719 91.15929412841797 L 40.29810333251953 91.19798278808594 C 40.70613098144531 93.29547882080078 40.27280044555664 95.42632293701172 39.07791519165039 97.19796752929688 C 37.88306045532227 98.96958160400391 36.06985855102539 100.1697540283203 33.97231674194336 100.5773773193359 C 33.44450378417969 100.6799392700195 32.92018890380859 100.7319488525391 32.4139289855957 100.7319946289063 C 30.69908714294434 100.7321243286133 29.1485595703125 100.1374816894531 27.92998695373535 99.01235198974609 C 26.72420883178711 97.89903259277344 25.89078712463379 96.31871032714844 25.51831436157227 94.4400634765625 L 25.29920196533203 88.16096496582031 L 24.6494026184082 69.54536437988281 L 24.64177322387695 69.32695007324219 L 24.47627258300781 69.18419647216797 C 24.46615982055664 69.17546844482422 23.44685935974121 68.29470825195313 21.98185920715332 66.90386199951172 L 21.5578441619873 66.50130462646484 L 21.22595977783203 66.982666015625 C 21.06205940246582 67.22038269042969 20.90063095092773 67.46588134765625 20.74612998962402 67.71237945556641 C 17.79691696166992 72.41808319091797 16.44585990905762 78.92861175537109 15.83180236816406 83.56163787841797 C 15.1689453125 88.56282043457031 15.19745922088623 92.52034759521484 15.19783020019531 92.55975341796875 L 15.20140171051025 95.87125396728516 L 15.20143032073975 95.90093994140625 L 15.2049732208252 95.93040466308594 C 15.3387451171875 97.04269409179688 15.00831604003906 98.05567932128906 14.22287368774414 98.94123840332031 C 12.96073055267334 100.3642501831055 10.59923076629639 101.2837524414063 8.206687927246094 101.2837524414063 Z"/>
      <path class="cls-3" d="M 8.206687927246094 100.7837524414063 C 10.46264457702637 100.7837524414063 12.67730236053467 99.93029022216797 13.84881591796875 98.60946655273438 C 14.53524494171143 97.83553314208984 14.82450199127197 96.95425415039063 14.70855903625488 95.99010467529297 L 14.70147323608398 95.93116760253906 L 14.70140171051025 95.87179565429688 L 14.6978063583374 92.56001281738281 C 14.69596004486084 92.342529296875 14.67377853393555 88.49336242675781 15.33613014221191 83.49593353271484 C 16.23878860473633 76.68556213378906 17.91643142700195 71.28586578369141 20.32247352600098 67.44683837890625 C 20.48081588745117 67.19419097900391 20.64630126953125 66.94253540039063 20.8143310546875 66.69883728027344 L 21.47808837890625 65.73615264892578 L 22.32611656188965 66.54125213623047 C 23.78091621398926 67.92242431640625 24.79283142089844 68.79693603515625 24.80288696289063 68.80561065673828 L 25.13384437561035 69.09114837646484 L 25.14908790588379 69.52792358398438 L 25.79888725280762 88.14353942871094 L 26.01657485961914 94.38182830810547 C 26.74661445617676 97.99293518066406 29.19210624694824 100.2322387695313 32.41388702392578 100.2319946289063 C 32.88824462890625 100.2319488525391 33.38048934936523 100.1830215454102 33.87693023681641 100.0865631103516 C 35.84336090087891 99.70440673828125 37.54321670532227 98.57926177978516 38.66338729858398 96.91838073730469 C 39.78357315063477 95.25747680664063 40.1898307800293 93.25984954833984 39.80730056762695 91.29346466064453 L 39.79225921630859 91.21609497070313 L 39.78950119018555 91.13732147216797 L 39.5540771484375 84.37959289550781 C 39.41236114501953 83.50341796875 37.75799179077148 73.38613128662109 35.69717407226563 65.44454956054688 C 35.12727355957031 63.24903869628906 34.07211685180664 61.13859558105469 32.47141647338867 58.99265289306641 L 31.79146003723145 58.08108139038086 L 32.78251647949219 57.52329254150391 C 35.42025756835938 56.03873825073242 37.2100715637207 54.6739501953125 37.98165893554688 52.46026611328125 C 38.60888671875 50.66143798828125 39.54872894287109 44.83843612670898 40.46417236328125 27.31300735473633 C 41.01478958129883 16.77207946777344 41.29135894775391 6.89822244644165 41.29408645629883 6.799708366394043 L 41.29607391357422 6.73140811920166 L 41.30702972412109 6.664708137512207 C 41.310302734375 6.644722461700439 41.63300323486328 4.640022277832031 41.43920135498047 2.488508224487305 C 41.33036041259766 1.280208230018616 41.08310317993164 0.2675653696060181 40.70430374145508 -0.5212631821632385 C 40.27494430541992 -1.415406107902527 39.69728851318359 -1.991677522659302 38.938232421875 -2.283048868179321 C 38.51078796386719 -2.447177410125732 37.99588775634766 -2.53040599822998 37.40782928466797 -2.53040599822998 C 33.85779571533203 -2.53040599822998 28.89860725402832 0.3703096807003021 27.41338157653809 1.2915358543396 C 27.33230018615723 5.373069286346436 26.78210067749023 31.50552558898926 25.79157257080078 42.52946472167969 L 23.80414390563965 42.57050704956055 C 22.25262260437012 30.78596496582031 19.39420318603516 6.592906951904297 19.26146697998047 5.468636035919189 C 18.86658668518066 3.516209602355957 17.31328964233398 2.251372337341309 16.07575988769531 1.532922506332397 C 14.39844512939453 0.559165358543396 12.27987384796143 0.000679657852742821 10.26328754425049 0.000679657852742821 C 9.627930641174316 0.000679657852742821 9.01793098449707 0.05667965859174728 8.4500732421875 0.1671368032693863 C 6.598116397857666 0.5270510911941528 5.393173217773438 1.412136793136597 4.766373634338379 2.873022556304932 C 4.17767333984375 4.245079517364502 4.103102207183838 6.093036651611328 4.544730663299561 8.365536689758301 L 4.548873424530029 8.386822700500488 L 4.552087783813477 8.40825080871582 C 4.606259346008301 8.770108222961426 9.981816291809082 44.6717529296875 11.07608795166016 51.40889358520508 C 11.25198745727539 52.49279403686523 11.79600238800049 53.80593490600586 12.69301605224609 55.31182098388672 L 13.09065914154053 55.9793815612793 L 12.5420446395874 56.52963638305664 C 11.45875930786133 57.61614990234375 10.4848165512085 58.86771011352539 9.64730167388916 60.24950790405273 C 7.473516464233398 63.8361930847168 5.544673442840576 69.61940765380859 4.069273471832275 76.97390747070313 C 3.018381834030151 82.21235656738281 2.541129350662231 86.55067443847656 2.47961688041687 87.13121795654297 L 2.683075666427612 92.97755432128906 C 2.790937185287476 94.06607055664063 2.796263933181763 95.00339508056641 2.800973415374756 95.83136749267578 C 2.807687759399414 97.01358032226563 2.812987804412842 97.94736480712891 3.135244846343994 98.60892486572266 C 3.356573343276978 99.06332397460938 3.828359127044678 99.66843414306641 5.526159286499023 100.3200225830078 C 6.316430568695068 100.6233673095703 7.243258953094482 100.7837219238281 8.206430435180664 100.7837524414063 L 8.206687927246094 100.7837524414063 M 8.206684112548828 101.7837524414063 C 8.206447601318359 101.7837524414063 8.206667900085449 101.7837524414063 8.206430435180664 101.7837524414063 C 7.149858951568604 101.7837219238281 6.10551643371582 101.6135482788086 5.167801856994629 101.2536087036133 C 0.7848019599914551 99.57151031494141 2.133002042770386 97.49430847167969 1.684801936149597 93.04470825195313 L 1.477802038192749 87.09661102294922 C 1.477802038192749 87.09661102294922 3.325501918792725 68.75099182128906 8.792101860046387 59.73120880126953 C 9.737502098083496 58.17140960693359 10.76828765869141 56.89234924316406 11.83388805389404 55.82357788085938 C 10.93785953521729 54.3193359375 10.29940223693848 52.86553573608398 10.08900165557861 51.56909561157227 C 8.981101989746094 44.74800872802734 3.563102006912231 8.556307792663574 3.563102006912231 8.556307792663574 C 2.667602062225342 3.948308229446411 3.651302099227905 0.08100822567939758 8.259302139282227 -0.8144917488098145 C 8.897739410400391 -0.938687801361084 9.572577476501465 -0.999325692653656 10.26329231262207 -0.999325692653656 C 14.55789184570313 -0.999325692653656 19.47857284545898 1.343143701553345 20.25000190734863 5.312694072723389 C 20.25000190734863 5.312694072723389 23.19753074645996 30.30195045471191 24.79558753967285 42.43997955322266 C 25.87535858154297 30.42279434204102 26.42400169372559 0.7352939248085022 26.42400169372559 0.7352939248085022 C 26.42400169372559 0.7352939248085022 32.85083770751953 -3.530406475067139 37.40782928466797 -3.530406475067139 C 38.08842086791992 -3.530406475067139 38.72715759277344 -3.435289144515991 39.29670333862305 -3.216591835021973 C 43.67880249023438 -1.534491777420044 42.293701171875 6.827408313751221 42.293701171875 6.827408313751221 C 42.293701171875 6.827408313751221 41.20110321044922 46.26449584960938 38.9259033203125 52.78950881958008 C 38.01168823242188 55.41240692138672 35.87118911743164 56.93244934082031 33.27298736572266 58.39475250244141 C 34.70968627929688 60.32083511352539 35.97638702392578 62.54009246826172 36.66510009765625 65.19329071044922 C 38.84760284423828 73.60380554199219 40.55130386352539 84.28231048583984 40.55130386352539 84.28231048583984 L 40.78890228271484 91.10250854492188 C 41.685302734375 95.71051025390625 38.67570114135742 100.1726913452148 34.06770324707031 101.0681915283203 C 33.49946594238281 101.1786041259766 32.94682693481445 101.2319488525391 32.41397476196289 101.2319869995117 C 28.62491416931152 101.2322845458984 25.80588340759277 98.53717803955078 25.0200023651123 94.49729156494141 L 24.79950141906738 88.17840576171875 L 24.14970207214355 69.56280517578125 C 24.14970207214355 69.56280517578125 23.12987327575684 68.68321990966797 21.63760185241699 67.2664794921875 C 21.47861671447754 67.49706268310547 21.32273101806641 67.73390960693359 21.16980171203613 67.9779052734375 C 15.55290222167969 76.94010925292969 15.69780158996582 92.55510711669922 15.69780158996582 92.55510711669922 L 15.70140171051025 95.87070465087891 C 16.13643264770508 99.48817443847656 12.0873966217041 101.7837524414063 8.206684112548828 101.7837524414063 Z"/>
    </g>
    <g id="ch6-2" class="cls-1" transform="matrix(-0.999, -0.035, 0.035, -0.999, 460.917, 452.452)">
      <path class="cls-2" d="M 30.60610008239746 96.41134643554688 L 30.60608863830566 96.41134643554688 C 28.89165115356445 96.41150665283203 27.3414134979248 95.81681060791016 26.12294960021973 94.69153594970703 C 24.91726303100586 93.57804870605469 24.08409118652344 91.99769592285156 23.71201324462891 90.11923217773438 L 23.49390983581543 83.86985778808594 L 24.64807510375977 69.60311889648438 L 24.66855049133301 69.35005950927734 L 24.47627449035645 69.18419647216797 C 24.46615028381348 69.17546081542969 23.44684982299805 68.29470825195313 21.98186302185059 66.90385437011719 L 21.55783843994141 66.50130462646484 L 21.2259635925293 66.98264312744141 C 21.06206321716309 67.22035980224609 20.90062522888184 67.46587371826172 20.74613761901855 67.71237945556641 C 16.16387557983398 75.02371978759766 15.63955020904541 79.40351867675781 15.38757514953613 81.50834655761719 C 15.33125019073486 81.9788818359375 15.28674983978271 82.35054779052734 15.21738815307617 82.57030487060547 C 14.76918792724609 83.99115753173828 14.8090124130249 85.97745513916016 14.81092548370361 86.06131744384766 L 14.81148815155029 86.08554840087891 L 14.81437492370605 86.10961151123047 C 14.94815063476563 87.22195434570313 14.61768817901611 88.23503112792969 13.83218765258789 89.12067413330078 C 12.57002544403076 90.54373168945313 10.20866298675537 91.46327209472656 7.816325187683105 91.46331024169922 C 6.792462825775146 91.46331787109375 5.803537845611572 91.29137420654297 4.956462860107422 90.96604919433594 C 3.504500389099121 90.40869903564453 2.683837890625 89.80445861816406 2.295437812805176 89.00678253173828 C 1.923400282859802 88.24272155761719 1.917875289916992 87.25844573974609 1.910887837409973 86.01232147216797 C 1.906302571296692 85.19449615478516 1.901096701622009 84.26844024658203 1.795357823371887 83.20162963867188 C 1.800374388694763 82.77153015136719 1.885019898414612 77.17010498046875 2.870800256729126 73.36748504638672 C 2.940587759017944 73.09851837158203 3.005275249481201 72.84535980224609 3.066812753677368 72.60450744628906 C 3.923975229263306 69.24973297119141 4.154350280761719 68.34808349609375 9.219699859619141 59.9903450012207 C 10.07786273956299 58.57448196411133 11.0765380859375 57.29134368896484 12.18796253204346 56.17660903930664 L 12.46227550506592 55.90148162841797 L 12.26345062255859 55.56770706176758 C 11.3341007232666 54.00750732421875 10.76856327056885 52.63523101806641 10.58253765106201 51.48899459838867 C 9.487800598144531 44.74887084960938 4.111763000488281 8.844170570373535 4.057587623596191 8.482282638549805 L 4.05598783493042 8.4715576171875 L 4.05391263961792 8.460920333862305 C 3.592800378799438 6.088158130645752 3.677912712097168 4.141782760620117 4.306875228881836 2.675858020782471 C 4.994212627410889 1.073920369148254 6.356087684631348 0.06472040712833405 8.354687690734863 -0.3236795961856842 C 8.953863143920898 -0.440229594707489 9.595988273620605 -0.4993295967578888 10.26328754425049 -0.4993295967578888 C 12.36542510986328 -0.4993295967578888 14.57548809051514 0.08379540592432022 16.3267993927002 1.100520372390747 C 17.65756607055664 1.873095154762268 19.33068466186523 3.243942022323608 19.75566101074219 5.390119075775146 C 19.85049057006836 6.193428039550781 22.68454742431641 30.18936538696289 24.25537490844727 42.16668319702148 L 25.25003814697266 42.1346321105957 C 25.98973083496094 30.93673706054688 25.78561592102051 5.524878978729248 25.7701416015625 3.736964225769043 C 26.3006706237793 2.427828073501587 27.38831520080566 1.337647199630737 28.92151260375977 0.5800454020500183 C 30.36630058288574 -0.1338920891284943 32.16747665405273 -0.5270671248435974 33.99325180053711 -0.5270671248435974 C 35.42095184326172 -0.5270671248435974 36.79327392578125 -0.2898420989513397 37.96183776855469 0.1589578986167908 C 38.83783721923828 0.4952203929424286 39.52586364746094 1.177332878112793 40.00687408447266 2.186370372772217 C 40.4114875793457 3.035120487213135 40.67336273193359 4.112533092498779 40.78525161743164 5.388658046722412 C 40.97919845581055 7.600845336914063 40.64907455444336 9.634270668029785 40.64571380615234 9.654545783996582 L 40.63892364501953 9.695520401000977 L 40.63899993896484 9.737057685852051 C 40.63962554931641 10.10149574279785 40.67517471313477 46.25415802001953 38.45377349853516 52.62487030029297 C 37.63041305541992 54.98712158203125 35.76718902587891 56.41723251342773 33.02775192260742 57.95901870727539 L 32.5322265625 58.23790740966797 L 32.87220001220703 58.69369506835938 C 34.51231384277344 60.89249420166016 35.59467697143555 63.05963134765625 36.18113708496094 65.31892395019531 C 38.32180023193359 73.56819915771484 38.24518966674805 79.89037322998047 38.24416351318359 79.95326995849609 L 38.24396133422852 79.96607971191406 L 38.24440002441406 79.9788818359375 L 38.4828987121582 86.79907989501953 L 38.48427581787109 86.83838653564453 L 38.49178695678711 86.87699890136719 C 39.33332443237305 91.20736694335938 36.49520111083984 95.41498565673828 32.16511154174805 96.25648498535156 C 31.63702583312988 96.35920715332031 31.11252593994141 96.41130828857422 30.60610008239746 96.41134643554688 Z"/>
      <path class="cls-3" d="M 30.60604286193848 95.91135406494141 L 30.60602951049805 95.91135406494141 C 31.0805778503418 95.91130065917969 31.57297706604004 95.86229705810547 32.06973648071289 95.76565551757813 C 36.12917709350586 94.97677612304688 38.78992462158203 91.03212738037109 38.0009651184082 86.97236633300781 L 37.9859619140625 86.89516448974609 L 37.98321533203125 86.81655120849609 L 37.74470901489258 79.99635314941406 L 37.74383163452148 79.97074890136719 L 37.74421691894531 79.94556427001953 C 37.74518966674805 79.88314056396484 37.81585693359375 73.60911560058594 35.69717788696289 65.44454956054688 C 35.12728500366211 63.24907302856445 34.07212448120117 61.13863372802734 32.47141647338867 58.99263381958008 L 31.79146957397461 58.08105850219727 L 32.78252410888672 57.52327346801758 C 35.42025756835938 56.03873825073242 37.2100715637207 54.6739501953125 37.98165512084961 52.46024703979492 C 38.60693740844727 50.66701889038086 39.44486999511719 45.10535049438477 39.88589859008789 28.7932186126709 C 40.15140533447266 18.97323226928711 40.13916397094727 9.82912540435791 40.13900375366211 9.737898826599121 L 40.13898849487305 9.654845237731934 L 40.15230941772461 9.57361888885498 C 40.15559005737305 9.553618431091309 40.47806930541992 7.548925399780273 40.2840576171875 5.397405624389648 C 40.17509841918945 4.189085483551025 39.92773818969727 3.176432132720947 39.54887008666992 2.387578725814819 C 39.11941528320313 1.49341869354248 38.54170989990234 0.917125403881073 37.78256225585938 0.6257253885269165 C 36.67061614990234 0.1986720710992813 35.36028289794922 -0.02706126309931278 33.99322891235352 -0.02706126309931278 C 32.24277877807617 -0.02706126309931278 30.5202693939209 0.3477387428283691 29.14300346374512 1.028298735618591 C 28.1673755645752 1.510396122932434 26.89519119262695 2.384031772613525 26.27099609375 3.835005760192871 C 26.29184341430664 6.324700355529785 26.47807884216309 31.1296215057373 25.74896430969238 42.16757965087891 L 23.75963020324707 42.23171234130859 C 22.19924736022949 30.33411026000977 19.39310073852539 6.583602905273438 19.26147079467773 5.468706130981445 C 18.86671447753906 3.516068696975708 17.3133487701416 2.251410722732544 16.07575035095215 1.532912015914917 C 14.39842987060547 0.5591520667076111 12.27987003326416 0.0006587373791262507 10.26328372955322 0.0006587373791262507 C 9.627950668334961 0.0006587373791262507 9.017963409423828 0.05665873736143112 8.450070381164551 0.1671387404203415 C 6.598110198974609 0.5270320773124695 5.393163681030273 1.412138700485229 4.766376972198486 2.873005390167236 C 4.177670478820801 4.245071887969971 4.103110313415527 6.093031883239746 4.544736862182617 8.365538597106934 L 4.548870086669922 8.386805534362793 L 4.552070140838623 8.408245086669922 C 4.60624361038208 8.770098686218262 9.981817245483398 44.6717643737793 11.07608318328857 51.40889739990234 C 11.25199031829834 52.49280548095703 11.7960033416748 53.80593872070313 12.69301700592041 55.31181716918945 L 13.09065723419189 55.97937774658203 L 12.54204368591309 56.52963256835938 C 11.45875072479248 57.61615371704102 10.48480319976807 58.86771392822266 9.647296905517578 60.24951171875 C 4.62041711807251 68.54376220703125 4.393937110900879 69.43019104003906 3.551256895065308 72.728271484375 C 3.489563703536987 72.96968841552734 3.424723625183105 73.22345733642578 3.354803562164307 73.49295043945313 C 2.400569438934326 77.17387390136719 2.303379774093628 82.59614562988281 2.295658349990845 83.18010711669922 C 2.401057720184326 84.25825500488281 2.406270265579224 85.18775177001953 2.410883665084839 86.00952911376953 C 2.417510271072388 87.19207000732422 2.422750234603882 88.12613677978516 2.744976997375488 88.78788757324219 C 2.966270208358765 89.24236297607422 3.437977075576782 89.84759521484375 5.13572359085083 90.49928283691406 C 5.926190376281738 90.80287170410156 6.853123664855957 90.96332550048828 7.816323757171631 90.96331024169922 C 10.07205677032471 90.96327209472656 12.28659057617188 90.10976409912109 13.45810985565186 88.78890991210938 C 14.14461708068848 88.01488494873047 14.43391036987305 87.13352203369141 14.31795024871826 86.1693115234375 L 14.31217670440674 86.12119293212891 L 14.31107044219971 86.07273864746094 C 14.3090705871582 85.98549652099609 14.26772403717041 83.91884613037109 14.74057674407959 82.41979217529297 C 14.79587078094482 82.24465942382813 14.84000396728516 81.87590026855469 14.89112377166748 81.44891357421875 C 15.14741706848145 79.30799102783203 15.68073654174805 74.85308837890625 20.32245635986328 67.44686126708984 C 20.4807243347168 67.19435119628906 20.64619064331055 66.94268798828125 20.81429672241211 66.69886016845703 L 21.4780445098877 65.73611450195313 L 22.32611083984375 66.54124450683594 C 23.78091049194336 67.92241668701172 24.7928295135498 68.79693603515625 24.80288314819336 68.80560302734375 L 25.1873779296875 69.13733673095703 L 25.14644432067871 69.64344787597656 L 23.9946117401123 83.88143157958984 L 24.21027374267578 90.06098175048828 C 24.5652961730957 91.81781768798828 25.34299278259277 93.29061126708984 26.46217727661133 94.32420349121094 C 27.58664321899414 95.3626708984375 29.01956367492676 95.91148376464844 30.60604286193848 95.91135406494141 M 30.60613632202148 96.91135406494141 C 26.81792449951172 96.91168212890625 23.99873733520508 94.21599578857422 23.21369743347168 90.17640686035156 L 22.99320411682129 83.85840606689453 L 24.14969635009766 69.56280517578125 C 24.14969635009766 69.56280517578125 23.12986946105957 68.68321990966797 21.6375904083252 67.26647186279297 C 21.47861671447754 67.49705505371094 21.32272338867188 67.73390960693359 21.16980361938477 67.97791290283203 C 15.55289745330811 76.94010162353516 16.12260437011719 81.36360168457031 15.69420337677002 82.72080230712891 C 15.26580333709717 84.07889556884766 15.31080341339111 86.04991149902344 15.31080341339111 86.04991149902344 C 15.74582195281982 89.66732788085938 11.69699478149414 91.96324920654297 7.816340923309326 91.96331024169922 C 6.759459972381592 91.96332550048828 5.715191841125488 91.79305267333984 4.777203559875488 91.43280792236328 C 0.3950969874858856 89.75070190429688 1.742403626441956 87.67350006103516 1.29509699344635 83.22389984130859 C 1.29509699344635 83.22389984130859 1.338297009468079 77.28660583496094 2.38680362701416 73.24200439453125 C 3.436203718185425 69.19740295410156 3.325496912002563 68.75100708007813 8.792097091674805 59.73120498657227 C 9.737497329711914 58.17140579223633 10.76828384399414 56.89235305786133 11.83388328552246 55.82357788085938 C 10.93785667419434 54.31933975219727 10.29940319061279 52.86553955078125 10.08900356292725 51.56909942626953 C 8.981097221374512 44.74800491333008 3.56309700012207 8.556299209594727 3.56309700012207 8.556299209594727 C 2.667603731155396 3.948298692703247 3.651297092437744 0.08100540190935135 8.259297370910645 -0.8145012855529785 C 8.897734642028809 -0.9386972784996033 9.572571754455566 -0.9993351101875305 10.26328659057617 -0.9993351101875305 C 14.55788612365723 -0.9993351101875305 19.47856903076172 1.343136191368103 20.25000381469727 5.312698841094971 C 20.25000381469727 5.312698841094971 23.14351081848145 29.84383201599121 24.75113677978516 42.1016731262207 C 25.52173614501953 30.43576622009277 25.26929664611816 3.64409875869751 25.26929664611816 3.64409875869751 C 26.47358894348145 0.5061232447624207 30.30556297302246 -1.027065753936768 33.99322509765625 -1.027065753936768 C 35.45634078979492 -1.027065753936768 36.89633178710938 -0.7858635783195496 38.14109802246094 -0.307794600725174 C 42.5232048034668 1.374298691749573 41.13900375366211 9.736205101013184 41.13900375366211 9.736205101013184 C 41.13900375366211 9.736205101013184 41.20109558105469 46.26449966430664 38.92589569091797 52.78949737548828 C 38.01168441772461 55.41240692138672 35.87118911743164 56.93244552612305 33.27299118041992 58.39473724365234 C 34.70968246459961 60.32084655761719 35.97639083862305 62.54010009765625 36.66509628295898 65.19329833984375 C 38.84760284423828 73.60380554199219 38.74409866333008 79.96140289306641 38.74409866333008 79.96140289306641 L 38.98260498046875 86.78160858154297 C 39.87809753417969 91.38960266113281 36.86849594116211 95.851806640625 32.260498046875 96.74729919433594 C 31.69209671020508 96.85787200927734 31.13916397094727 96.91130065917969 30.60613632202148 96.91135406494141 Z"/>
    </g>
  </g>
</svg>
