<svg xmlns="http://www.w3.org/2000/svg" width="726.916" height="843.101" viewBox="0 0 726.916 843.101">
  <defs>
    <style>
      .cls-1 {
        fill: #ff5252;
      }

      .cls-2 {
        fill: #5893ff;
      }

      .cls-3 {
        fill: #4b0b67;
      }

      .cls-4 {
        fill: #fb7611;
      }

      .cls-5, .cls-6 {
        fill: none;
        stroke-width: 20px;
      }

      .cls-5 {
        stroke: #9a906a;
      }

      .cls-6 {
        stroke: #d6c992;
      }

      .cls-7 {
        fill: #656565;
      }

      .cls-8 {
        fill: #c7e8e4;
      }

      .cls-9 {
        fill: #afaeae;
      }

      .cls-10 {
        fill: #161616;
      }
    </style>
  </defs>
  <g id="h1-identification-svg" transform="translate(-1088.625 -144.668)">
    <g id="dna" transform="translate(4150.833 -4619.794) rotate(41)">
      <rect id="Rectangle_14" data-name="Rectangle 14" class="cls-1" width="69.523" height="23.369" transform="translate(1312.523 5937.478)"/>
      <path id="Path_16" data-name="Path 16" class="cls-2" d="M0,0H69.523V23.369H0Z" transform="translate(1312.523 5897.75)"/>
      <rect id="Rectangle_15" data-name="Rectangle 15" class="cls-3" width="69.523" height="23.369" transform="translate(1243 5937.478)"/>
      <rect id="Rectangle_17" data-name="Rectangle 17" class="cls-4" width="69.523" height="23.369" transform="translate(1243 5897.75)"/>
      <rect id="Rectangle_18" data-name="Rectangle 18" class="cls-4" width="69.523" height="23.369" transform="translate(1312.523 5785.579)"/>
      <rect id="Rectangle_21" data-name="Rectangle 21" class="cls-3" width="69.523" height="23.369" transform="translate(1312.523 5534.362)"/>
      <rect id="Rectangle_25" data-name="Rectangle 25" class="cls-1" width="69.523" height="23.369" transform="translate(1312.523 5500.477)"/>
      <path id="Path_17" data-name="Path 17" class="cls-1" d="M0,0H69.523V23.369H0Z" transform="translate(1312.523 5745.852)"/>
      <path id="Path_20" data-name="Path 20" class="cls-1" d="M0,0H69.523V23.369H0Z" transform="translate(1312.523 5709.045)"/>
      <path id="Path_18" data-name="Path 18" class="cls-2" d="M0,0H69.523V23.369H0Z" transform="translate(1312.523 5669.318)"/>
      <path id="Path_19" data-name="Path 19" class="cls-4" d="M0,0H69.523V23.369H0Z" transform="translate(1312.523 5629.591)"/>
      <rect id="Rectangle_19" data-name="Rectangle 19" class="cls-2" width="69.523" height="23.369" transform="translate(1243 5785.579)"/>
      <rect id="Rectangle_22" data-name="Rectangle 22" class="cls-1" width="69.523" height="23.369" transform="translate(1243 5534.362)"/>
      <rect id="Rectangle_26" data-name="Rectangle 26" class="cls-3" width="69.523" height="23.369" transform="translate(1243 5500.477)"/>
      <rect id="Rectangle_20" data-name="Rectangle 20" class="cls-3" width="69.523" height="23.369" transform="translate(1243 5745.852)"/>
      <rect id="Rectangle_27" data-name="Rectangle 27" class="cls-3" width="69.523" height="23.369" transform="translate(1243 5709.045)"/>
      <rect id="Rectangle_23" data-name="Rectangle 23" class="cls-4" width="69.523" height="23.369" transform="translate(1243 5669.318)"/>
      <rect id="Rectangle_24" data-name="Rectangle 24" class="cls-2" width="69.523" height="23.369" transform="translate(1243 5629.591)"/>
      <path id="Path_14" data-name="Path 14" class="cls-5" d="M0-122.783V-50.2L138.627,7.867V204.4L0,268.1v90.387" transform="translate(1243.292 5615.5)"/>
      <path id="Path_15" data-name="Path 15" class="cls-6" d="M138.627-122.783V-50.2L0,7.867V204.4l138.627,63.7v90.387" transform="translate(1243.292 5615.5)"/>
    </g>
    <rect id="Rectangle_82" data-name="Rectangle 82" class="cls-7" width="42" height="84" rx="21" transform="translate(1491.701 714.312) rotate(-47)"/>
    <path id="Exclusion_1" data-name="Exclusion 1" class="cls-8" d="M-6752-504a187.379,187.379,0,0,1-37.486-3.779,185.067,185.067,0,0,1-34.915-10.838,186.013,186.013,0,0,1-31.595-17.149,187.354,187.354,0,0,1-27.528-22.712,187.359,187.359,0,0,1-22.712-27.527,186.012,186.012,0,0,1-17.149-31.595,185.116,185.116,0,0,1-10.838-34.914A187.391,187.391,0,0,1-6938-690a187.4,187.4,0,0,1,3.779-37.486,185.113,185.113,0,0,1,10.838-34.914,186.022,186.022,0,0,1,17.149-31.595,187.358,187.358,0,0,1,22.712-27.528,187.331,187.331,0,0,1,27.528-22.712,186.022,186.022,0,0,1,31.595-17.149,185.069,185.069,0,0,1,34.915-10.838A187.379,187.379,0,0,1-6752-876a187.362,187.362,0,0,1,37.485,3.779,185.065,185.065,0,0,1,34.915,10.838,186.027,186.027,0,0,1,31.594,17.149,187.28,187.28,0,0,1,27.527,22.712,187.34,187.34,0,0,1,22.713,27.528,186.043,186.043,0,0,1,17.149,31.595,185.105,185.105,0,0,1,10.838,34.914A187.4,187.4,0,0,1-6566-690a187.391,187.391,0,0,1-3.779,37.485,185.1,185.1,0,0,1-10.838,34.914,186.061,186.061,0,0,1-17.149,31.595,187.312,187.312,0,0,1-22.713,27.527,187.3,187.3,0,0,1-27.527,22.712,186.022,186.022,0,0,1-31.594,17.149,185.062,185.062,0,0,1-34.915,10.838A187.362,187.362,0,0,1-6752-504Zm.5-348c-89.6,0-162.5,72.9-162.5,162.5S-6841.1-527-6751.5-527-6589-599.9-6589-689.5-6661.9-852-6751.5-852Z" transform="translate(8132 1269)"/>
    <path id="Path_107" data-name="Path 107" class="cls-9" d="M14.164,1.827C21.067,1.827,25,5.6,25,12.5c0,0-8.991,20.847-8.991,40.6S25,91.5,25,91.5c0,6.9-3.72,11.056-10.623,11.056S2.274,96.949,0,91.5c0,0-8.991-21.112-8.991-40.862S0,12.5,0,12.5C3.269,5.1,7.26,1.827,14.164,1.827Z" transform="matrix(0.799, 0.602, -0.602, 0.799, 1306.818, 468.939)"/>
    <rect id="Rectangle_83" data-name="Rectangle 83" class="cls-10" width="85" height="333" rx="42.5" transform="translate(1514.03 760.664) rotate(-47)"/>
    <rect id="Rectangle_84" data-name="Rectangle 84" class="cls-4" width="40" height="188" rx="20" transform="translate(1088.625 158.349) rotate(-20)"/>
    <circle id="Ellipse_163" data-name="Ellipse 163" class="cls-4" cx="20" cy="20" r="20" transform="translate(1160.107 354.744) rotate(-20)"/>
  </g>
</svg>
